<?xml version="1.0" standalone="no"?>
<svg version="1.1" id="Layer_1" xmlns="http://www.w3.org/2000/svg" xmlns:xlink="http://www.w3.org/1999/xlink" x="0px" y="0px" viewBox="0 0 595.276 595.276" enable-background="new 0 0 595.276 595.276" xml:space="preserve">
<path id="color_x5F_9" fill="#65B245" d="M469.229,275.85c0,3.605-2.845,6.538-6.411,6.696c0-0.069,0-0.125,0-0.206
	c0.648-0.648,1.296-1.296,1.943-1.943c0.256-0.256-0.142-0.654-0.398-0.398c-0.515,0.515-1.03,1.03-1.546,1.546
	c0-2.268,0-2.706,0-4.975c0-0.362-0.563-0.363-0.563,0c0,1.187,0,2.373,0,3.56c-0.528-0.528-1.055-1.055-1.583-1.583
	c-0.256-0.256-0.655,0.141-0.398,0.398c0.66,0.66,1.321,1.321,1.981,1.981c0,0.936,0,1.342,0,1.622
	c-1.122-0.044-2.173-0.36-3.088-0.889l-0.679-11.167c1.123-0.846,2.515-1.353,4.029-1.353
	C466.224,269.139,469.229,272.143,469.229,275.85z M531.639,302.836c-4.06,0-7.351,3.291-7.351,7.351
	c0,3.963,3.138,7.184,7.063,7.336c0-0.307,0-0.752,0-1.777c-0.723-0.723-1.446-1.446-2.17-2.17
	c-0.281-0.281,0.155-0.717,0.436-0.436c0.578,0.578,1.156,1.156,1.734,1.734c0-1.3,0-2.599,0-3.899c0-0.397,0.616-0.397,0.616,0
	c0,2.484,0,2.964,0,5.449c0.564-0.564,1.129-1.128,1.693-1.693c0.281-0.281,0.717,0.155,0.436,0.436
	c-0.709,0.71-1.419,1.419-2.129,2.129c0,0.089,0,0.15,0,0.226c3.906-0.173,7.022-3.385,7.022-7.334
	C538.99,306.127,535.699,302.836,531.639,302.836z M428.873,282.34c0,0.081,0,0.137,0,0.206c3.566-0.158,6.411-3.091,6.411-6.696
	c0-3.706-3.005-6.711-6.711-6.711c-3.707,0-6.711,3.005-6.711,6.711c0,3.618,2.865,6.559,6.449,6.698c0-0.28,0-0.686,0-1.622
	c-0.66-0.66-1.321-1.321-1.981-1.981c-0.257-0.257,0.141-0.654,0.398-0.398c0.528,0.528,1.056,1.055,1.583,1.583
	c0-1.187,0-2.373,0-3.56c0-0.363,0.563-0.362,0.563,0c0,2.268,0,2.706,0,4.975c0.515-0.515,1.03-1.03,1.545-1.546
	c0.257-0.257,0.654,0.142,0.398,0.398C430.169,281.044,429.521,281.692,428.873,282.34z M455.78,302.836
	c-4.06,0-7.351,3.291-7.351,7.351c0,3.963,3.138,7.184,7.063,7.336c0-0.307,0-0.752,0-1.777c-0.723-0.723-1.447-1.446-2.17-2.17
	c-0.281-0.281,0.155-0.717,0.436-0.436c0.578,0.578,1.156,1.156,1.734,1.734c0-1.3,0-2.599,0-3.899c0-0.397,0.616-0.397,0.616,0
	c0,2.484,0,2.964,0,5.449c0.564-0.564,1.129-1.128,1.693-1.693c0.281-0.281,0.717,0.155,0.436,0.436
	c-0.71,0.71-1.419,1.419-2.129,2.129c0,0.089,0,0.15,0,0.226c2.237-0.099,4.211-1.194,5.492-2.857c0.956-1.241,1.53-2.79,1.53-4.478
	s-0.575-3.237-1.53-4.478C460.256,303.964,458.152,302.836,455.78,302.836z M438.308,349.228c-4.06,0-7.351,3.291-7.351,7.351
	c0,3.963,3.138,7.184,7.063,7.336c0-0.307,0-0.752,0-1.777c-0.723-0.723-1.447-1.446-2.17-2.17
	c-0.281-0.281,0.155-0.717,0.436-0.436c0.578,0.578,1.156,1.156,1.734,1.734c0-1.3,0-2.599,0-3.899c0-0.397,0.616-0.397,0.616,0
	c0,2.484,0,2.964,0,5.449c0.564-0.564,1.129-1.129,1.693-1.693c0.281-0.281,0.717,0.155,0.436,0.436
	c-0.709,0.71-1.419,1.419-2.129,2.129c0,0.089,0,0.15,0,0.225c3.906-0.173,7.022-3.385,7.022-7.334
	C445.659,352.519,442.368,349.228,438.308,349.228z M337.59,390.633v-5.598c-1.049-3.161-3.821-5.527-7.205-5.997
	c-0.403-0.056-0.811-0.095-1.229-0.095c-2.595,0-4.923,1.119-6.548,2.892c-1.45,1.582-2.342,3.683-2.342,5.998
	c0,2.315,0.892,4.416,2.342,5.998c1.552,1.693,3.746,2.779,6.2,2.874c0-0.371,0-0.909,0-2.149c-0.875-0.875-1.749-1.749-2.624-2.624
	c-0.34-0.34,0.187-0.867,0.527-0.527c0.699,0.699,1.398,1.398,2.097,2.097c0-1.572,0-3.144,0-4.716c0-0.48,0.745-0.48,0.745,0
	c0,3.005,0,3.585,0,6.59c0.682-0.682,1.365-1.365,2.047-2.047c0.34-0.34,0.867,0.187,0.527,0.527
	c-0.858,0.858-1.716,1.716-2.574,2.574c0,0.107,0,0.181,0,0.273c0.281-0.012,0.558-0.037,0.831-0.075
	C333.769,396.16,336.541,393.794,337.59,390.633z M215.171,378.944c-0.572,0-1.13,0.059-1.672,0.162
	c-3.935,0.75-6.941,4.091-7.191,8.181c-0.011,0.182-0.027,0.362-0.027,0.547c0,3.291,1.793,6.158,4.451,7.695
	c0.193,0.112,0.392,0.214,0.593,0.311c0.721,0.347,1.494,0.6,2.307,0.742c0.389,0.068,0.786,0.109,1.19,0.124
	c0-0.371,0-0.909,0-2.149c-0.875-0.875-1.749-1.749-2.624-2.624c-0.34-0.34,0.188-0.867,0.527-0.527
	c0.699,0.699,1.398,1.398,2.097,2.097c0-1.572,0-3.144,0-4.716c0-0.48,0.745-0.48,0.745,0c0,3.005,0,3.585,0,6.59
	c0.682-0.682,1.365-1.365,2.047-2.047c0.34-0.34,0.867,0.187,0.527,0.527c-0.858,0.858-1.716,1.716-2.574,2.574
	c0,0.107,0,0.181,0,0.273c4.724-0.21,8.492-4.094,8.492-8.87c0-1.459-0.358-2.832-0.981-4.047
	C221.606,380.914,218.621,378.944,215.171,378.944z M340.837,418.02c-1.147,0-2.24,0.225-3.247,0.621
	c-3.302,1.298-5.643,4.507-5.643,8.269s2.341,6.972,5.643,8.269c0.904,0.355,1.879,0.563,2.899,0.603c0-0.371,0-0.909,0-2.149
	c-0.875-0.875-1.749-1.749-2.624-2.624c-0.34-0.34,0.188-0.867,0.527-0.527c0.699,0.699,1.398,1.398,2.097,2.097
	c0-1.572,0-3.144,0-4.716c0-0.48,0.745-0.48,0.745,0c0,3.005,0,3.585,0,6.59c0.682-0.682,1.365-1.365,2.047-2.047
	c0.34-0.34,0.867,0.187,0.527,0.527c-0.858,0.858-1.716,1.716-2.574,2.574c0,0.107,0,0.181,0,0.273
	c4.724-0.209,8.492-4.094,8.492-8.87C349.727,422.001,345.747,418.02,340.837,418.02z M518.554,418.02
	c-0.735,0-1.445,0.099-2.128,0.267c-3.88,0.955-6.762,4.448-6.762,8.623s2.882,7.668,6.762,8.623c0.574,0.141,1.169,0.226,1.78,0.25
	c0-0.371,0-0.909,0-2.149c-0.875-0.875-1.749-1.749-2.624-2.624c-0.34-0.34,0.187-0.867,0.527-0.527
	c0.699,0.699,1.398,1.398,2.097,2.097c0-1.572,0-3.144,0-4.716c0-0.48,0.745-0.48,0.745,0c0,3.005,0,3.585,0,6.59
	c0.682-0.682,1.365-1.365,2.047-2.047c0.34-0.34,0.867,0.187,0.527,0.527c-0.858,0.858-1.716,1.716-2.574,2.574
	c0,0.107,0,0.181,0,0.273c4.724-0.21,8.492-4.094,8.492-8.87C527.444,422.001,523.464,418.02,518.554,418.02z"></path>
<path id="color_x5F_8" fill="#875F44" d="M215.171,378.944c-0.572,0-1.13,0.059-1.672,0.162l5.274-6
	c1.628-1.853,3.948-2.935,6.403-3.021v11.318l-2.096,2.385C221.606,380.914,218.621,378.944,215.171,378.944z M256.006,367.731
	h2.518c0.241-0.22,0.472-0.453,0.69-0.701l22.284-25.354c1.697-1.931,4.144-3.038,6.715-3.038h-13.695
	c-2.571,0-5.018,1.107-6.715,3.038l-13.091,14.894v8.549h1.294V367.731z M108.789,427.665c1.697-1.931,4.144-3.038,6.715-3.038
	h-10.098h-3.597c-2.571,0-5.018,1.107-6.715,3.038l-8.195,9.324h13.695L108.789,427.665z M225.176,395.84v-1.317
	c-1.389,0.849-2.995,1.317-4.658,1.317H225.176z M283.221,355.103v-1.646l-1.447,1.646H283.221z M266.014,369.939h13.695
	c0.504-0.082,0.999-0.2,1.478-0.366v-13.802l-9.896,11.259C269.915,368.596,268.043,369.607,266.014,369.939z M324.337,361.329
	l-0.858,0.976h0.858V361.329z M336.108,362.305h1.066l12.927-14.708v-8.959h-1.776c-2.571,0-5.018,1.107-6.715,3.038l-5.502,6.26
	V362.305z M113.962,436.989h12.403l8.195-9.324c1.697-1.931,4.144-3.038,6.715-3.038h-0.803c2.571,0,5.018-1.107,6.715-3.038
	l14.62-16.634c1.697-1.931,4.144-3.038,6.715-3.038h9.455c2.571,0,5.018-1.107,6.715-3.038c1.697-1.931,4.144-3.038,6.715-3.038
	h-13.695c-2.571,0-5.018,1.107-6.715,3.038h0c-1.697,1.931-4.144,3.038-6.715,3.038h-9.455c-2.571,0-5.018,1.107-6.715,3.038
	l-14.62,16.634c-1.698,1.931-4.144,3.038-6.715,3.038h0.803c-2.571,0-5.018,1.107-6.715,3.038l-8.195,9.324H113.962z
	 M197.657,398.016h8.164h5.531c0.688-0.593,1.455-1.077,2.28-1.434c-0.813-0.142-1.586-0.395-2.307-0.742h-2.884
	c0.782,0,1.549-0.114,2.291-0.311c-2.658-1.537-4.451-4.404-4.451-7.695c0-0.185,0.016-0.365,0.027-0.547l-4.847,5.515
	c-1.697,1.931-4.144,3.038-6.715,3.038h8.741C201.331,395.84,199.27,396.627,197.657,398.016z M173.886,404.955l-14.62,16.634
	c-1.697,1.931-4.144,3.038-6.715,3.038h13.695c2.571,0,5.018-1.107,6.715-3.038l0.535-0.608v-1.172h1.031l2.929-3.333v-2.115h1.859
	l2.101-2.39v-3.058h2.688l1.272-1.448v-4h3.915c0.015-0.01,0.03-0.02,0.045-0.03v-1.518h-8.734
	C178.03,401.917,175.583,403.023,173.886,404.955z M462.255,283.012h0.563c0-0.121,0-0.591,0-0.672
	c0.648-0.648,1.296-1.296,1.943-1.943c0.256-0.256-0.142-0.654-0.398-0.398c-0.515,0.515-1.03,1.03-1.546,1.546
	c0-2.268,0-2.706,0-4.975c0-0.362-0.563-0.363-0.563,0c0,1.187,0,2.373,0,3.56c-0.528-0.528-1.055-1.055-1.583-1.583
	c-0.256-0.256-0.655,0.141-0.398,0.398c0.66,0.66,1.321,1.321,1.981,1.981C462.255,281.861,462.255,282.844,462.255,283.012z
	 M531.352,315.746c0,1.025,0,1.47,0,1.777c0,0.255,0,0.417,0,0.732h0.616c0-0.167,0-0.396,0-0.734c0-0.076,0-0.137,0-0.226
	c0.71-0.71,1.419-1.419,2.129-2.129c0.281-0.281-0.155-0.717-0.436-0.436c-0.564,0.564-1.128,1.128-1.693,1.693
	c0-2.484,0-2.964,0-5.449c0-0.397-0.616-0.397-0.616,0c0,1.3,0,2.599,0,3.899c-0.578-0.578-1.156-1.156-1.734-1.734
	c-0.281-0.281-0.717,0.155-0.436,0.436C529.905,314.299,530.628,315.022,531.352,315.746z M363.435,200.665
	c0-0.962,0.78-1.743,1.743-1.743h42.732v-2.073h3.962l-32.41-32.41c-0.681-0.681-0.681-1.784,0-2.464c0.681-0.68,1.784-0.68,2.464,0
	l34.483,34.483v-48.767c0-0.962,0.78-1.742,1.743-1.742c0.962,0,1.742,0.78,1.742,1.742v48.767l10.438-10.438l0.833-9.907
	l4.797,4.278l18.416-18.416c0.681-0.68,1.784-0.68,2.464,0c0.68,0.681,0.68,1.784,0,2.464l-18.275,18.275l15.852,14.135v2.073
	h16.707c0.962,0,1.743,0.78,1.743,1.743c0,0.962-0.78,1.743-1.743,1.743h-14.694v1.238h-32.835l33.245,33.245
	c0.68,0.681,0.68,1.784,0,2.464c-0.073,0.073-0.153,0.134-0.235,0.192c0,0,0,0,0,0c-0.68,0.477-1.622,0.416-2.23-0.192
	l-34.483-34.483v48.767c0,0.907-0.696,1.644-1.582,1.726c-0.054,0.005-0.105,0.016-0.16,0.016c-0.962,0-1.743-0.78-1.743-1.743
	v-48.767l-34.483,34.483c-0.68,0.68-1.784,0.68-2.464,0s-0.681-1.784,0-2.464l33.245-33.245h-6.81v-1.238h-40.719
	C364.216,202.407,363.435,201.627,363.435,200.665z M424.432,196.849h4.99l0.458-5.448L424.432,196.849z M414.702,200.665
	c0,1.905,1.544,3.449,3.449,3.449c1.905,0,3.449-1.544,3.449-3.449s-1.544-3.449-3.449-3.449
	C416.247,197.215,414.702,198.76,414.702,200.665z M428.311,283.012h0.563c0-0.121,0-0.591,0-0.672
	c0.648-0.648,1.296-1.296,1.943-1.943c0.256-0.256-0.141-0.654-0.398-0.398c-0.515,0.515-1.03,1.03-1.545,1.546
	c0-2.268,0-2.706,0-4.975c0-0.362-0.563-0.363-0.563,0c0,1.187,0,2.373,0,3.56c-0.528-0.528-1.055-1.055-1.583-1.583
	c-0.256-0.256-0.654,0.141-0.398,0.398c0.66,0.66,1.321,1.321,1.981,1.981C428.311,281.861,428.311,282.844,428.311,283.012z
	 M455.492,318.255h0.616c0-0.167,0-0.871,0-0.96c0.71-0.71,1.419-1.419,2.129-2.129c0.281-0.281-0.155-0.717-0.436-0.436
	c-0.564,0.564-1.129,1.128-1.693,1.693c0-2.484,0-2.964,0-5.449c0-0.397-0.616-0.397-0.616,0c0,1.3,0,2.599,0,3.899
	c-0.578-0.578-1.156-1.156-1.734-1.734c-0.281-0.281-0.717,0.155-0.436,0.436c0.723,0.723,1.447,1.446,2.17,2.17
	C455.492,316.771,455.492,317.94,455.492,318.255z M336.767,302.596c0.112-0.021,0.226-0.035,0.344-0.035
	c0.103,0,0.202,0.014,0.3,0.03v-0.871h3.752c-0.042-0.224-0.103-0.438-0.169-0.649h-7.024c-0.066,0.211-0.127,0.425-0.169,0.649
	h2.965V302.596z M351.83,302.596c0.112-0.021,0.226-0.035,0.344-0.035c0.103,0,0.202,0.014,0.3,0.03v-0.871h3.679
	c-0.042-0.224-0.103-0.438-0.169-0.649h-7.024c-0.066,0.211-0.127,0.425-0.169,0.649h3.038V302.596z M438.021,364.042h0.616
	c0-0.039,0-0.266,0-0.354c0.71-0.71,1.419-1.419,2.129-2.129c0.281-0.281-0.155-0.717-0.436-0.436
	c-0.564,0.564-1.129,1.129-1.693,1.693c0-2.485,0-2.964,0-5.449c0-0.397-0.616-0.397-0.616,0c0,1.3,0,2.599,0,3.899
	c-0.578-0.578-1.156-1.156-1.734-1.734c-0.281-0.281-0.717,0.155-0.436,0.436c0.723,0.723,1.447,1.446,2.17,2.17
	C438.021,363.163,438.021,364.001,438.021,364.042z M328.808,394.557c0,1.24,0,1.778,0,2.149c0,0.404,0,0.617,0,1.309h0.745
	c0-0.291,0-0.579,0-1.312c0-0.092,0-0.165,0-0.273c0.858-0.858,1.716-1.716,2.574-2.574c0.34-0.34-0.187-0.867-0.527-0.527
	c-0.683,0.682-1.365,1.365-2.047,2.047c0-3.005,0-3.585,0-6.59c0-0.48-0.745-0.48-0.745,0c0,1.572,0,3.144,0,4.716
	c-0.699-0.699-1.398-1.398-2.097-2.097c-0.34-0.34-0.867,0.187-0.527,0.527C327.059,392.808,327.934,393.683,328.808,394.557z
	 M214.823,394.557c0,1.24,0,1.778,0,2.149c0,0.404,0,0.617,0,1.309h0.745c0-0.291,0-0.579,0-1.312c0-0.092,0-0.165,0-0.273
	c0.858-0.858,1.716-1.716,2.574-2.574c0.34-0.34-0.187-0.867-0.527-0.527c-0.682,0.682-1.365,1.365-2.047,2.047
	c0-3.005,0-3.585,0-6.59c0-0.48-0.745-0.48-0.745,0c0,1.572,0,3.144,0,4.716c-0.699-0.699-1.398-1.398-2.097-2.097
	c-0.34-0.34-0.867,0.187-0.527,0.527C213.073,392.808,213.948,393.683,214.823,394.557z M242.477,379.914
	c0.112-0.021,0.226-0.035,0.344-0.035c0.103,0,0.202,0.014,0.301,0.03v-0.871h6.753v-0.649h-14.222v0.649h6.825V379.914z
	 M340.489,436.989h0.745c0-0.258,0-1.374,0-1.481c0.858-0.858,1.716-1.716,2.574-2.574c0.34-0.34-0.187-0.867-0.527-0.527
	c-0.682,0.682-1.365,1.365-2.047,2.047c0-3.005,0-3.585,0-6.59c0-0.48-0.745-0.48-0.745,0c0,1.572,0,3.144,0,4.716
	c-0.699-0.699-1.398-1.398-2.097-2.097c-0.34-0.34-0.867,0.187-0.527,0.527c0.875,0.875,1.749,1.749,2.624,2.624
	C340.489,434.874,340.489,436.378,340.489,436.989z M518.206,433.634c0,1.24,0,2.744,0,3.355h0.745c0-0.258,0-1.374,0-1.481
	c0.858-0.858,1.716-1.716,2.574-2.574c0.34-0.34-0.187-0.867-0.527-0.527c-0.682,0.682-1.365,1.365-2.047,2.047
	c0-3.005,0-3.585,0-6.59c0-0.48-0.745-0.48-0.745,0c0,1.572,0,3.144,0,4.716c-0.699-0.699-1.398-1.398-2.097-2.097
	c-0.34-0.34-0.867,0.187-0.527,0.527C516.457,431.884,517.331,432.759,518.206,433.634z M538.927,455.69
	c-18.137,1.863-36.406,1.863-54.544,0c-11.35-1.166-23.793-1.81-36.845-1.81c-13.052,0-25.496,0.644-36.845,1.81
	c-18.137,1.863-36.406,1.863-54.544,0c-11.35-1.166-23.793-1.81-36.845-1.81c-13.052,0-25.495,0.644-36.845,1.81
	c-18.137,1.863-36.407,1.863-54.544,0c-11.35-1.166-23.793-1.81-36.845-1.81c-13.052,0-25.495,0.644-36.845,1.81
	c-18.137,1.863-36.406,1.863-54.544,0c-11.35-1.166-23.793-1.81-36.845-1.81c-4.592,0-10.926,0.764-17.429,1.805
	c1.211,1.928,2.443,3.84,3.696,5.738h497.069c1.464-2.216,2.898-4.453,4.303-6.71C546.519,454.98,542.663,455.307,538.927,455.69z
	 M130.733,355.178h8.318v-0.416h-8.318v-25.837v-0.129c0-0.164-0.133-0.297-0.297-0.297c-0.164,0-0.297,0.133-0.297,0.297v28.807
	h0.594V355.178z M182.186,345.795h5.392v-0.27h-5.392v-16.75v-0.083c0-0.106-0.086-0.193-0.193-0.193
	c-0.106,0-0.193,0.086-0.193,0.193v18.675h0.385V345.795z M70.696,383.515h0.921v-44.714c0-0.207-0.168-0.375-0.375-0.375h-0.171
	c-0.207,0-0.375,0.168-0.375,0.375v40.312H57.81v0.644h12.886V383.515z M305.906,571.785c3.95,0,5.707-2.193,7.706-4.144
	l-18.194-2.109C299.112,567.418,300.326,571.785,305.906,571.785z M228.723,535.004l-40.205-14.62l13.808,31.271l-24.367,9.747
	l-33.31-8.419c8.719,5.235,17.731,10.03,27,14.367c1.523-1.44,3.249-2.677,6.212-2.677c7.117,0,7.117,7.113,14.233,7.113
	c7.114,0,7.114-7.113,14.228-7.113c7.112,0,7.112,7.113,14.224,7.113c7.112,0,7.112-7.113,14.224-7.113
	c7.114,0,7.114,7.113,14.228,7.113c6.553,0,7.082-6.024,12.686-6.975l-43.114-5.846l19.493-9.747l27.673,15.813
	c4.724,1.433,5.56,6.754,11.717,6.754c6.416,0,7.061-5.77,12.343-6.905l-15.996-1.855L228.723,535.004z M334.358,571.785
	c1.875,0,3.249-0.501,4.396-1.229l-10.339-1.199C329.875,570.688,331.568,571.785,334.358,571.785z M295.799,506.72
	c2.051,1.979,3.8,4.26,7.831,4.26c2.952,0,4.675-1.228,6.194-2.661l-6.144,0.421l1.092-6.186L295.799,506.72z M389.196,497.46
	l-34.934,10.189l3.639-11.645h0l-27.656,10.917l0,0l-5.408,0.37c1.824,1.822,3.601,3.689,7.246,3.689
	c7.112,0,7.112-7.113,14.224-7.113c7.114,0,7.114,7.113,14.228,7.113c7.113,0,7.113-7.113,14.227-7.113
	c7.114,0,7.114,7.113,14.229,7.113c7.113,0,7.113-7.113,14.227-7.113c7.113,0,7.113,7.113,14.225,7.113
	c7.112,0,7.112-7.113,14.225-7.113c7.082,0,7.118,7.044,14.137,7.107l-24.585-28.799L389.196,497.46z"></path>
<path id="color_x5F_7" fill="#CE8E5C" d="M174.527,419.807l2.929-3.333v3.333H174.527z M189.335,403.434
	c-0.015,0.01-0.03,0.02-0.045,0.03h0.045V403.434z M246.734,356.639c0-1.42-0.906-2.638-2.22-3.254h-3.785
	c-1.313,0.615-2.22,1.834-2.22,3.254v8.48h8.225V356.639z M181.416,414.359v-2.39l-2.101,2.39H181.416z M185.375,407.464
	l-1.272,1.448h1.272V407.464z M252.512,348.713h0.887v1.525h1.314v6.332l13.091-14.894c1.697-1.931,4.144-3.038,6.715-3.038h-21.372
	c-2.033,0-3.982,0.701-5.551,1.946C250.625,342.238,252.248,345.388,252.512,348.713z M225.176,381.402l-2.096,2.385
	c0.623,1.215,0.981,2.588,0.981,4.047c0,4.775-3.769,8.66-8.492,8.87c0,0.733,0,1.021,0,1.312h2.85h4.308h2.449v-2.176h-4.658
	c1.662,0,3.268-0.469,4.658-1.317V381.402z M214.823,398.016c0-0.693,0-0.906,0-1.309c-0.404-0.016-0.802-0.056-1.19-0.124
	c-0.825,0.357-1.592,0.841-2.28,1.434H214.823z M211.325,395.84c-0.202-0.097-0.4-0.199-0.593-0.311
	c-0.742,0.197-1.509,0.311-2.291,0.311H211.325z M336.108,347.936l5.502-6.26c1.697-1.931,4.144-3.038,6.715-3.038h-12.217V347.936z
	 M281.187,369.573c-0.479,0.165-0.974,0.283-1.478,0.366h1.478V369.573z M319.741,351.297h1.564v3.806h1.303v7.201h0.871
	l0.858-0.976v-22.691h-10.351c-0.141,0-0.28,0.016-0.421,0.023C317.306,341.773,319.355,346.427,319.741,351.297z M347.877,362.305
	c0.184-2.538,0.97-4.902,2.224-6.958v-7.75l-12.927,14.708H347.877z M258.524,367.731h1.496v2.208h5.958h0.036
	c2.029-0.331,3.901-1.343,5.278-2.909l9.896-11.259v-0.668h0.587l1.447-1.646v-2.16h1.563c0.077-0.99,0.234-1.969,0.446-2.932h0
	c0-0.002,0.001-0.004,0.001-0.006c0.088-0.398,0.192-0.79,0.303-1.18c0.023-0.082,0.046-0.165,0.071-0.247
	c0.114-0.381,0.238-0.756,0.374-1.128c0.025-0.068,0.052-0.135,0.078-0.203c0.618-1.629,1.454-3.157,2.513-4.526
	c0.034-0.044,0.067-0.089,0.102-0.133c0.249-0.315,0.511-0.618,0.783-0.914c0.052-0.057,0.106-0.113,0.159-0.169
	c0.282-0.298,0.574-0.587,0.881-0.863c0.013-0.012,0.027-0.023,0.04-0.034c0.124-0.111,0.252-0.217,0.38-0.324h-2.702
	c-2.571,0-5.018,1.107-6.715,3.038l-22.284,25.354C258.996,367.277,258.765,367.511,258.524,367.731z M410.004,194.982l-2.094,1.868
	h3.962L410.004,194.982z M431.164,176.113l-11.27,10.05v10.295l10.438-10.438L431.164,176.113z M416.409,189.27l-3.799,3.388
	l3.799,3.799V189.27z M429.88,191.401l-5.448,5.448h4.99L429.88,191.401z M414.702,200.665c0,1.905,1.544,3.449,3.449,3.449
	c1.905,0,3.449-1.544,3.449-3.449s-1.544-3.449-3.449-3.449C416.247,197.215,414.702,198.76,414.702,200.665z M338.974,304.424
	c0-0.926-0.677-1.688-1.562-1.832c-0.098-0.016-0.198-0.03-0.3-0.03c-0.118,0-0.232,0.014-0.344,0.035
	c-0.864,0.162-1.519,0.917-1.519,1.828c0,0-0.894,3.125-1.067,3.441l5.715-0.102C339.769,307.511,338.974,304.424,338.974,304.424z
	 M354.037,304.424c0-0.926-0.677-1.688-1.562-1.832c-0.098-0.016-0.198-0.03-0.3-0.03c-0.118,0-0.232,0.014-0.344,0.035
	c-0.864,0.162-1.519,0.917-1.519,1.828c0,0-0.894,3.125-1.067,3.441l5.715-0.102C354.832,307.511,354.037,304.424,354.037,304.424z
	 M228.812,376.743v1.083h0.625H232h3.63h0.806v-1.083h-0.764H232h-2.562H228.812z M232,380.194v1.083h3.63h0.022v-1.083h-0.022H232z
	 M256.006,377.826h0.378v-1.083h-0.378h-2.398h-3.754h-1.094v1.083h1.136h3.712H256.006z M249.171,380.194v1.083h0.725h3.712v-1.083
	h-3.712H249.171z M243.121,379.909c-0.099-0.016-0.198-0.03-0.301-0.03c-0.118,0-0.232,0.014-0.344,0.035
	c-0.864,0.162-1.519,0.917-1.519,1.828c0,0-0.894,3.125-1.067,3.441l5.715-0.102c-0.128-0.252-0.923-3.339-0.923-3.339
	C244.683,380.816,244.006,380.054,243.121,379.909z M113.962,448.014v-11.025h-1.292l8.195-9.324
	c1.697-1.931,4.144-3.038,6.715-3.038h-0.803c2.571,0,5.018-1.107,6.715-3.038l14.62-16.634c1.698-1.931,4.144-3.038,6.715-3.038
	h9.455c2.571,0,5.018-1.107,6.715-3.038h0c1.697-1.931,4.144-3.038,6.715-3.038h13.695c-2.571,0-5.018,1.107-6.715,3.038
	c-1.697,1.931-4.144,3.038-6.715,3.038h-9.455c-2.571,0-5.018,1.107-6.715,3.038l-14.62,16.634
	c-1.697,1.931-4.144,3.038-6.715,3.038h0.803c-2.571,0-5.018,1.107-6.715,3.038l-8.195,9.324h39.211v-6.286h3.96v-5.448h3.96v-4.275
	l-0.535,0.608c-1.697,1.931-4.144,3.038-6.715,3.038h-13.695c2.571,0,5.018-1.107,6.715-3.038l14.62-16.634
	c1.697-1.931,4.144-3.038,6.715-3.038h8.734v-3.901h8.322c1.612-1.389,3.674-2.176,5.83-2.176h-8.741
	c2.571,0,5.018-1.107,6.715-3.038l4.847-5.515c0.249-4.091,3.256-7.432,7.191-8.181l5.274-6c1.628-1.853,3.948-2.935,6.403-3.021
	v-2.354h4.262v-2.612h1.046v-5.299l-6.336,7.209c-1.697,1.931-4.144,3.038-6.715,3.038h-13.316c-2.571,0-5.018,1.107-6.715,3.038
	l-17.312,19.696c-1.697,1.931-4.144,3.038-6.715,3.038h-17.031c-2.571,0-5.018,1.107-6.715,3.038
	c-1.697,1.931-4.144,3.038-6.715,3.038h-9.455c-2.571,0-5.018,1.107-6.715,3.038l-14.62,16.634
	c-1.697,1.931-4.144,3.038-6.715,3.038h10.098c-2.571,0-5.018,1.107-6.715,3.038l-8.195,9.324H86.898l8.195-9.324
	c1.697-1.931,4.144-3.038,6.715-3.038H80.437c-2.571,0-5.018,1.107-6.715,3.038l-8.195,9.324H51.308
	c-5.118,0-10.042,1.83-13.938,5.11c2.562,4.606,5.241,9.135,8.036,13.587c6.503-1.041,12.838-1.805,17.429-1.805
	c13.052,0,25.495,0.644,36.845,1.81c18.137,1.863,36.407,1.863,54.544,0c11.35-1.166,23.793-1.81,36.845-1.81
	c13.052,0,25.495,0.644,36.845,1.81c18.137,1.863,36.407,1.863,54.544,0c11.35-1.166,23.793-1.81,36.845-1.81
	c13.052,0,25.495,0.644,36.845,1.81c18.137,1.863,36.406,1.863,54.544,0c11.35-1.166,23.793-1.81,36.845-1.81
	c13.052,0,25.495,0.644,36.845,1.81c18.137,1.863,36.406,1.863,54.544,0c3.736-0.384,7.592-0.711,11.548-0.977
	c1.379-2.215,2.73-4.447,4.052-6.7H113.962z M142.018,551.384c0.874,0.537,1.752,1.07,2.632,1.598l33.31,8.419l24.367-9.747
	l-13.808-31.271L142.018,551.384z M218.57,558.964l43.114,5.846c0.479-0.081,0.981-0.138,1.541-0.138
	c0.957,0,1.777,0.136,2.512,0.359l-27.673-15.813L218.57,558.964z M357.901,496.004l-3.639,11.645l34.934-10.189L357.901,496.004
	L357.901,496.004z M304.772,502.555l-1.092,6.186l6.144-0.421c1.587-1.498,2.964-3.206,5.257-3.998L304.772,502.555L304.772,502.555
	z M324.836,507.292l5.408-0.37h0l-7.152-1.226C323.713,506.188,324.279,506.735,324.836,507.292z"></path>
<path id="color_x5F_6" fill="#9BC1CF" d="M580.846,350.876v-5.448h-3.96v-5.448h-3.96v-5.448h-3.96v-5.448h-3.96v-5.448h-2.064
	v40.405h-9.266v-30.638c0-3.806-3.031-8.072-7.311-8.072c-0.533,0-1.047,0.056-1.538,0.163c3.528,0.801,5.916,4.532,5.916,7.909
	v30.638H533.69v33.974h16.127v5.448h3.96v5.448h3.96v5.448h3.96v5.448h3.96v5.448h0.932c4.124-8.676,7.841-17.582,11.125-26.696
	v-35.43h7.091v-12.253H580.846z M551.688,378.11v9.638v0h-7.13v-9.638H551.688L551.688,378.11z M531.968,317.521
	c0,0.338,0,0.567,0,0.734l14.489-0.067v-5.662h-3.82v-75.413h-22.108v81.141h10.823c0-0.315,0-0.478,0-0.732
	c-3.925-0.152-7.063-3.374-7.063-7.336c0-4.06,3.291-7.351,7.351-7.351c4.06,0,7.351,3.291,7.351,7.351
	C538.99,314.135,535.874,317.348,531.968,317.521z M536.16,259.37h-7.682v-10.726c0-1.811,1.255-3.325,2.941-3.73
	c0.289-0.07,0.589-0.11,0.9-0.11c2.121,0,3.841,1.72,3.841,3.841V259.37z M485.805,259.37h-1.799v-10.726
	c0-2.121,1.72-3.841,3.841-3.841c0.31,0,0.611,0.041,0.9,0.11c-1.686,0.405-2.941,1.92-2.941,3.73V259.37z M413.597,283.012h-16.905
	v-3.172h16.905V283.012z M390.025,302.276c-1.414-1.451-3.15-2.631-5.213-3.436v-2.657h3.96v-5.448h1.253V302.276z M491.827,293.354
	L491.827,293.354c3.55,0,6.428,1.868,6.428,4.172v20.728h17.49v-35.243H504.84c-0.064-4.768-2.621-8.925-6.42-11.252
	c-1.951-1.195-4.226-1.905-6.668-1.962c-0.105-0.002-0.207-0.016-0.312-0.016c-7.345,0-13.303,5.908-13.401,13.23H461.6v22.697
	c0.956,1.241,1.53,2.79,1.53,4.478s-0.575,3.237-1.53,4.478v3.591h0.064H485.4v-20.728c0-1.967,2.1-3.612,4.922-4.052
	C490.805,293.399,491.308,293.354,491.827,293.354z M503.951,298.099h4.722l0,0h2.266l0,0v9.638h-2.266h-4.722V298.099z
	 M478.2,298.099v9.638h-2.266h-4.722v-9.638h4.722l0,0H478.2L478.2,298.099z M341.616,325.352c-3.203,1.103-5.507,4.133-5.507,7.71
	v29.706h-2.15v-29.364C333.958,329.078,337.112,325.558,341.616,325.352z M524.234,333.403v30.638h-2.933v-30.638
	c0-3.376-1.741-6.262-4.445-7.466c-0.649-0.289-1.386-0.314-2.074-0.138l-0.538,0.137c0.408-0.189,0.836-0.341,1.284-0.442
	c0.449-0.102,0.913-0.163,1.396-0.163C521.204,325.332,524.234,328.945,524.234,333.403z M379.422,331.624h3.919v0v16.255
	c-1.32,0-2.631,0-3.919,0V331.624L379.422,331.624z M366.981,341.263h-2.313v-9.638v0h2.313v0V341.263z M401.259,331.624
	L401.259,331.624l2.313,0v0v9.638h-2.313V331.624z M433.546,331.624h2.267v0v9.638h-2.267V331.624L433.546,331.624z
	 M287.117,369.003h-1.124v-6.698c0-1.325,1.074-2.399,2.399-2.399c0.194,0,0.381,0.025,0.562,0.069
	c-1.053,0.253-1.837,1.199-1.837,2.33V369.003z M274.762,386.282h-0.864v-5.448h16.486v3.645c-1.816-0.797-3.933-1.255-6.363-1.255
	c-0.128,0-0.246,0.015-0.373,0.018c-0.001,0-0.001,0-0.002,0c-1.433,0.029-2.749,0.223-3.958,0.55
	c-0.068,0.018-0.138,0.035-0.205,0.054c-0.357,0.102-0.702,0.217-1.039,0.342c-0.076,0.028-0.151,0.058-0.226,0.087
	c-0.34,0.134-0.673,0.275-0.993,0.431c-0.021,0.01-0.041,0.022-0.062,0.032C276.287,385.174,275.486,385.692,274.762,386.282z
	 M282.465,375.387h-16.486v-5.448h0.036h16.451V375.387z M218.418,398.016v38.973h-36.355v-6.286h3.96v-5.448h3.96v-5.448h3.96
	v-5.448h3.96v-5.448h3.96v-5.448h3.96v-5.448H218.418z M260.02,367.731v30.285h-4.014v-20.19h0.378v-1.083h-0.378v-9.012H260.02z
	 M229.438,398.016h-4.262v-30.285h4.262v9.012h-0.625v1.083h0.625V398.016z M233.452,404.212c0.113,0,0.221,0.013,0.332,0.019
	c-2.833,0.949-4.888,3.596-4.888,6.749v26.009h-2.511v-25.71C226.385,407.376,229.314,404.212,233.452,404.212z M301.496,403.464
	h3.96v-5.448h-31.092v38.973h7.334v-6.286h3.96v-5.448h3.96v-5.448h3.96v-5.448h3.96v-5.448h3.96V403.464z M287.564,415.926h-6.288
	v-7.523c0-1.482,1.027-2.722,2.408-3.054c0.237-0.057,0.482-0.09,0.736-0.09c1.736,0,3.144,1.408,3.144,3.144V415.926z
	 M322.608,398.016v-4.184c-1.45-1.582-2.342-3.683-2.342-5.998c0-2.315,0.892-4.416,2.342-5.998v-26.733h-13.807v42.913h13.141
	v5.448h-3.96v5.448h-3.96v5.448h-3.96v5.448h-3.96v5.448h-3.96v5.448h-3.96v6.286h39.407v-1.809
	c-3.302-1.298-5.643-4.507-5.643-8.269s2.341-6.971,5.643-8.269v-20.625H322.608z M318.563,369.003h-1.124h-3.673v-6.698
	c0-1.131,0.784-2.077,1.837-2.33c0.181-0.043,0.368-0.069,0.562-0.069c1.325,0,2.399,1.074,2.399,2.399V369.003z M329.595,422.95
	h-5.635v-9.638h5.635V422.95z M362.372,366.377h-1.828v-9.638v0h1.828v0V366.377z M361.361,390.159h-3.695v-16.343v0h3.695v0
	V390.159z M357.666,412.159h3.695v0v24.829h-3.695V412.159L357.666,412.159z M346.378,370.253h1.828v0v9.638h-1.828V370.253
	L346.378,370.253z M374.712,370.253h1.828v0v9.638h-1.828V370.253L374.712,370.253z M369.059,398.645v3.929h-15.178v-3.929H369.059z
	 M418.232,398.016h4.218v38.973h-34.115v-6.286h3.96v-5.448h3.96v-5.448h3.96v-5.448h3.96v-5.448h3.96v-5.448h3.96v-5.448h3.173
	v-24.253v0h2.965v0V398.016z M452.288,404.225c-2.841,0.945-4.903,3.596-4.903,6.755v26.009h-1.883v-25.71
	C445.502,407.466,448.301,404.367,452.288,404.225z M488.473,398.016v38.973h27.952v-1.456c-3.88-0.955-6.762-4.448-6.762-8.623
	s2.882-7.668,6.762-8.623v-20.272H488.473z M505.571,422.95h-5.635v-9.638h5.635V422.95z M430.41,413.312h2.313l0,0v9.638h-2.313
	V413.312L430.41,413.312z M469.913,413.312h2.313l0,0v9.638h-2.313V413.312L469.913,413.312z M469.913,378.11h2.313v0v9.638h-2.313
	V378.11L469.913,378.11z M448.203,387.749h-2.313v-9.638v0h2.313v0V387.749z M506.258,378.11L506.258,378.11l1.828,0v0v9.638h-1.828
	V378.11z M124.438,359.02h17.121l-1.653,1.24h-13.815L124.438,359.02z M188.132,349.089h-8.956l-1.072-0.804h11.099h0
	L188.132,349.089z M80.449,385.71L80.449,385.71l-2.561,1.921H56.486l-2.561-1.921H80.449z"></path>
<path id="color_x5F_5" fill="#FFD2BB" d="M285.74,318.052c-1.697-1.931-4.144-3.038-6.715-3.038l-46.305-19.672
	c-1.697-1.931-4.144-3.038-6.715-3.038h-9.455c-2.524,0-4.989-1.013-6.625-2.934c-1.7-1.995-4.188-3.142-6.805-3.142l-11.774-3.119
	c-1.57,1.232-2.974,2.613-4.18,4.206c-0.841,1.11-2.07,4.651-3.548,5.006c-1.053,0.252-3.837-1.911-4.792-2.299
	c-2.181-0.888-4.472-1.393-6.797-1.716c0.312-0.158,4.108-1.33,10.886-0.04c0.686-0.153,3.506-4.875,8.208-5.215l-69.035-18.286
	c-3.242-0.859-6.623-1.059-9.943-0.588l-57.093,8.087c-4.264,0.604-8.604,0.352-12.769-0.742L2.245,261.007
	C0.772,273.012,0,285.234,0,297.638c0,8.345,0.361,16.605,1.035,24.777h288.539L285.74,318.052z M148.776,280.114
	c-1.546,1.61-4.164,7.016-6.583,7.303c-1.724,0.205-5.75-3.759-7.197-4.556c-3.305-1.822-6.857-3.054-10.497-4.003
	c0.526-0.193,6.787-1.348,17.334,1.973c1.146-0.117,6.74-7.458,14.569-6.75C153.599,275.776,151.045,277.75,148.776,280.114z
	 M220.951,303.139c-0.785,1.15-1.839,4.747-3.298,5.174c-1.04,0.304-3.926-1.72-4.899-2.061c-2.222-0.78-4.535-1.172-6.873-1.38
	c0.304-0.173,4.038-1.53,10.871-0.574c0.693-0.191,3.378-5.285,8.269-5.657C223.471,299.972,222.103,301.45,220.951,303.139z
	 M49.103,461.424h497.069c-2.649,4.011-5.392,7.955-8.227,11.827c-10.949-0.023-10.971-6.188-21.96-6.188
	c-11.01,0-11.01,6.189-22.02,6.189c-11.01,0-11.01-6.189-22.019-6.189c-11.008,0-11.008,6.189-22.017,6.189
	c-11.008,0-11.008-6.189-22.016-6.189c-11.007,0-11.007,6.189-22.014,6.189c-11.009,0-11.009-6.189-22.017-6.189
	c-11.007,0-11.007,6.189-22.014,6.189c-11.006,0-11.006-6.189-22.012-6.189c-11.008,0-11.008,6.189-22.016,6.189
	c-11.008,0-11.008-6.189-22.017-6.189c-11.008,0-11.008,6.189-22.015,6.189c-11.009,0-11.009-6.189-22.017-6.189
	c-11.008,0-11.008,6.189-22.015,6.189c-11.007,0-11.007-6.189-22.014-6.189c-11.007,0-11.007,6.189-22.014,6.189
	c-11.007,0-11.007-6.189-22.013-6.189c-11.007,0-11.007,6.189-22.014,6.189c-11.008,0-11.008-6.189-22.016-6.189
	c-11.007,0-11.007,6.189-22.014,6.189c-11.006,0-11.006-6.189-22.012-6.189c-9.7,0-10.856,4.805-18.526,5.946
	C54.381,469.214,51.697,465.352,49.103,461.424z M233.784,404.231c3.96,0.195,6.735,3.807,6.735,7.049v25.71h-11.623V410.98
	C228.896,407.827,230.95,405.18,233.784,404.231z M517.061,205.415v-3.193c0-0.886-0.719-1.605-1.605-1.605h-10.796
	c-0.886,0-1.605,0.719-1.605,1.605v3.148c-13.263,2.844-20.069,13.922-20.986,25.65h55.977
	C537.117,219.3,530.232,208.317,517.061,205.415z M509.231,217.965c0,4.617-3.743,8.359-8.359,8.359h-18.088
	c2.547-11.516,11.161-21.321,26.447-21.627V217.965z M511.515,259.37h-5.882v-10.726c0-1.811,1.255-3.325,2.941-3.73
	c1.686,0.405,2.941,1.92,2.941,3.73V259.37z M531.419,244.914c1.686,0.405,2.941,1.92,2.941,3.73v10.726h-5.882v-10.726
	C528.478,246.834,529.733,245.32,531.419,244.914z M491.688,259.37h-5.882v-10.726c0-1.811,1.255-3.325,2.941-3.73
	c1.686,0.405,2.941,1.92,2.941,3.73V259.37z M509.612,364.042v-30.638c0-2.948,1.823-6.163,4.632-7.466l0.538-0.137
	c0.688-0.175,1.425-0.151,2.074,0.138c2.704,1.203,4.445,4.089,4.445,7.466v30.638H509.612z M550.743,364.042h-11.689v-30.638
	c0-3.903,2.323-7.158,5.774-7.909c3.528,0.801,5.916,4.532,5.916,7.909V364.042z M430.921,228.379h-6.295v-9.835
	c0-1.938,1.343-3.558,3.148-3.992c1.805,0.434,3.148,2.055,3.148,3.992V228.379z M440.357,237.833l-4.13,1.702
	c0.516-1.144,1.529-2.015,2.774-2.315C439.496,237.339,439.95,237.554,440.357,237.833z M442.149,251.048h-6.295v-8.344l6.147-2.533
	c0.088,0.334,0.149,0.68,0.149,1.042V251.048z M449.775,283.012h-7.092v-18.734c0-2.183,1.513-4.009,3.546-4.498
	c2.033,0.489,3.546,2.314,3.546,4.498V283.012z M444.026,317.556h-9.844v-20.029c0-1.967,2.1-3.612,4.922-4.052
	c2.822,0.44,4.922,2.085,4.922,4.052V317.556z M485.4,297.527c0-1.967,2.1-3.612,4.922-4.052c2.822,0.44,4.922,2.085,4.922,4.052
	v20.728H485.4V297.527z M418.217,317.556h-9.844v-20.029c0-1.967,2.1-3.612,4.922-4.052c2.822,0.44,4.922,2.085,4.922,4.052V317.556
	z M394.689,313.082h-32.763c0.073-0.927,0.219-1.845,0.418-2.748h10.587c2.702,0,4.893-2.191,4.893-4.893v-7.765
	c0.143-0.003,0.275-0.02,0.42-0.02c2.479,0,4.657,0.438,6.569,1.184c2.063,0.805,3.799,1.985,5.213,3.436
	C392.816,305.143,394.367,309.032,394.689,313.082z M383.34,347.879v-16.255h8.164v16.255
	C388.887,347.879,386.104,347.879,383.34,347.879z M371.799,341.263l-4.818,0v-9.638h4.818V341.263z M408.389,341.263l-4.818,0
	v-9.638h4.818V341.263z M433.546,331.624v9.638l-4.722,0v-9.639H433.546z M475.934,307.738h-4.722v-9.638h4.722V307.738z
	 M508.673,307.738h-4.722v-9.638h4.722V307.738z M495,357.409h-41.924c0.093-1.187,0.276-2.362,0.535-3.516h13.547
	c3.458,0,6.261-2.803,6.261-6.261v-9.937l0.538-0.026c0.133,0,0.261,0.008,0.393,0.009c5.052,0.072,9.16,1.515,12.346,3.846
	c2.163,1.582,3.9,3.572,5.22,5.817c1.059,1.802,1.852,3.766,2.377,5.818C494.649,354.546,494.886,355.97,495,357.409z
	 M452.569,404.212c4.138,0,7.067,3.735,7.067,7.067v25.71h-12.252V410.98c0-3.159,2.062-5.81,4.903-6.755
	C452.382,404.222,452.474,404.212,452.569,404.212z M301.746,334.86L301.746,334.86c-0.002,0-0.004,0-0.006,0
	c-1.077,0.022-2.09,0.134-3.064,0.297c-0.579,0.1-1.098,0.192-0.787,0.126v-1.367c0-0.886,0.719-1.605,1.605-1.605h5.537
	c0.886,0,1.605,0.719,1.605,1.605v1.399c2.736,0.604,5.029,1.771,6.903,3.323c0.009,0.008,0.018,0.015,0.027,0.023
	c3.741,3.113,5.789,7.766,6.176,12.637h-34.957c0.077-0.99,0.234-1.969,0.446-2.932h11.296c2.883,0,5.221-2.337,5.221-5.22V334.86z
	 M301.336,359.975c1.053,0.253,1.837,1.199,1.837,2.33v6.698h-3.673v-6.698C299.499,361.174,300.283,360.228,301.336,359.975z
	 M315.603,359.975c1.053,0.253,1.837,1.199,1.837,2.33v6.698h-3.673v-6.698C313.766,361.174,314.549,360.228,315.603,359.975z
	 M290.79,369.003h-3.673v-6.698c0-1.131,0.784-2.077,1.837-2.33c1.053,0.253,1.837,1.199,1.837,2.33V369.003z M298.304,398.016
	h-16.486h-7.454H269.5c0.021-1.195,0.159-2.384,0.415-3.543h9.393c2.397,0,4.341-1.944,4.341-4.341v-6.89
	c0.127-0.003,0.244-0.018,0.373-0.018c2.43,0,4.546,0.458,6.363,1.255c1.096,0.481,2.073,1.095,2.949,1.803
	c0.354,0.286,0.692,0.587,1.01,0.905c0.223,0.222,0.445,0.445,0.65,0.681c0.997,1.148,1.783,2.457,2.372,3.862
	c0.414,0.986,0.722,2.019,0.937,3.079c0.213,1.051,0.333,2.125,0.353,3.207H298.304z M252.512,348.713h-19.828
	c0.044-0.561,0.132-1.117,0.253-1.663h6.407c1.635,0,2.961-1.326,2.961-2.961v-4.7c-0.001,0-0.001,0-0.002,0
	c-0.525,0.011-1.021,0.061-1.503,0.131c-0.414,0.062-0.683,0.028-0.683,0.028c0-0.886,0.719-1.605,1.605-1.605h1.751
	c0.886,0,1.605,0.719,1.605,1.605v0.099c0.928,0.205,1.764,0.526,2.517,0.937C250.625,342.238,252.248,345.388,252.512,348.713z
	 M249.896,380.194v-2.368h-1.136v-1.083h1.094c-0.382-3.579-3.41-6.368-7.091-6.368s-6.709,2.788-7.091,6.368h0.764v1.083h-0.806
	v2.368h0.022v1.083h-0.022v16.739h5.524h8.742v-16.739h-0.725v-1.083H249.896z M244.683,381.742c0,0,0.795,3.087,0.923,3.339
	l-5.715,0.102c0.173-0.316,1.067-3.441,1.067-3.441c0-0.911,0.655-1.666,1.519-1.828v-0.875h-6.825v-0.649h14.222v0.649h-6.753
	v0.871C244.006,380.054,244.683,380.816,244.683,381.742z M327.767,422.95h-3.807v-9.638h3.807V422.95z M254.769,436.989v-24.79
	h6.813v24.79H254.769z M283.683,405.35c1.38,0.332,2.408,1.571,2.408,3.054v7.523h-4.815v-7.523
	C281.276,406.921,282.303,405.682,283.683,405.35z M362.372,356.738h3.807v9.638h-3.807V356.738z M361.361,390.159v-16.343h7.698
	v16.343H361.361z M361.361,436.989v-24.829h7.698v24.83L361.361,436.989z M352.013,379.891h-3.807v-9.638h3.807V379.891z
	 M376.539,379.891v-9.638h3.808v9.638H376.539z M409.089,398.016v-24.253h6.177v24.253H409.089z M432.723,413.312h4.818v9.638
	h-4.818V413.312z M472.226,422.95v-9.638h4.818v9.638H472.226z M477.044,387.749l-4.818,0v-9.638h4.818V387.749z M448.203,378.11
	h4.818v9.638l-4.818,0V378.11z M544.558,387.749v-9.638h4.818v9.638L544.558,387.749z M499.936,413.312h3.808v9.638h-3.808V413.312z
	 M502.451,387.749v-9.638h3.808v9.638L502.451,387.749z"></path>
<path id="color_x5F_4" fill="#00CEC9" d="M411.789,293.354c0.519,0,1.022,0.044,1.506,0.12c-2.822,0.44-4.922,2.085-4.922,4.052
	v20.029h-3.011v-20.029C405.362,295.223,408.239,293.354,411.789,293.354z M546.456,318.189l16.486,0.067v0.558v4.824h14.59v-5.448
	h-14.59v-5.662h-16.486V318.189z M555.023,301.631h-3.96h-8.427v5.448h12.387V301.631z M547.104,290.735h-3.96h-0.508v5.448h4.467
	V290.735z M584.806,363.129h3.139c0.043-2.195,0.548-4.274,1.409-6.156c0.41-2.025,0.8-4.057,1.168-6.097h-5.715V363.129z
	 M576.886,339.98v5.448h14.552c0.292-1.81,0.566-3.627,0.826-5.448H576.886z M585.453,329.084h-16.486v5.448h16.486V329.084z
	 M498.42,237.114h22.109v81.141h-4.784v-35.243H504.84c-0.064-4.768-2.621-8.925-6.42-11.252V237.114z M505.633,259.37h5.882h1.799
	v-10.726c0-2.121-1.72-3.841-3.841-3.841c-0.31,0-0.611,0.041-0.899,0.11c-1.686,0.405-2.941,1.92-2.941,3.73V259.37z
	 M491.439,269.782c0.105,0,0.207,0.013,0.312,0.016c0-0.005,0-0.01,0-0.016c-1.229-0.041-8.802,0-10.275,0
	c-1.831,0-3.575,0.369-5.165,1.034c-4.789,2.001-8.163,6.699-8.236,12.196h9.963C478.135,275.69,484.094,269.782,491.439,269.782z
	 M419.894,204.872l29.313,29.313l-7.768,3.202c-0.459-0.177-0.954-0.284-1.475-0.284c-0.332,0-0.654,0.044-0.963,0.118
	c-1.245,0.3-2.258,1.171-2.774,2.315l-16.333,6.732V204.872z M422.7,228.379h1.926h6.295v-9.835c0-1.938-1.343-3.558-3.148-3.992
	c-0.309-0.074-0.631-0.118-0.963-0.118c-2.27,0-4.11,1.84-4.11,4.111V228.379z M455.94,228.576l-2.179,5.234l2.659,2.659
	L455.94,228.576z M451.944,283.012h7.305l-2.642-43.465c-0.68,0.477-1.622,0.416-2.23-0.192l-3.035-3.035l-7.664,3.159
	c0.247,0.528,0.396,1.112,0.396,1.734v9.835h-1.926h-6.295v-8.344l-15.959,6.578v4.357c0,0.907-0.696,1.644-1.582,1.726v27.647
	h9.999c0-0.168,0-0.293,0-0.464c-3.584-0.139-6.449-3.08-6.449-6.698c0-3.706,3.004-6.711,6.711-6.711
	c3.707,0,6.711,3.005,6.711,6.711c0,3.605-2.845,6.538-6.411,6.696c0,0.189,0,0.345,0,0.466h13.81v-18.734
	c0-2.183,1.513-4.009,3.546-4.498c0.349-0.084,0.71-0.133,1.085-0.133h0c2.557,0,4.63,2.073,4.63,4.631V283.012z M455.556,222.246
	l-1.131-18.601h-30.828l28.033,28.033L455.556,222.246z M365.474,303.502c0.032-0.042,0.063-0.084,0.096-0.126
	c0.233-0.294,0.478-0.578,0.733-0.855c0.05-0.054,0.101-0.107,0.151-0.161c0.237-0.25,0.477-0.496,0.733-0.73h-2.821v3.501
	C364.701,304.566,365.071,304.023,365.474,303.502z M372.286,290.735v5.448h16.486v-5.448H372.286z M390.025,283.012h6.667v-3.172
	h-16.486v5.448h9.82V283.012z M341.678,281.752v10.974h0.786v-10.974c0-1.758,1.097-3.196,2.514-3.427
	c-0.13-0.021-0.258-0.047-0.393-0.047C342.979,278.277,341.678,279.833,341.678,281.752z M347.902,302.803v14.844
	c0,0.208,0.031,0.406,0.051,0.608h0.786c-0.021-0.202-0.051-0.4-0.051-0.608v-14.844c0-0.373,0.04-0.733,0.105-1.082
	c0.042-0.224,0.103-0.438,0.169-0.649c0.546-1.758,1.891-3.031,3.512-3.214c-0.131-0.015-0.258-0.047-0.393-0.047
	C349.772,297.81,347.902,300.046,347.902,302.803z M349.55,279.84h0.786c-0.276-2.185-1.937-3.935-4.083-4.318v-5.125h-0.786v5.125
	C347.614,275.905,349.275,277.654,349.55,279.84z M353.385,292.812V279.84h-0.786v12.972c3.817,0.536,6.758,3.806,6.758,7.772v0.314
	h0.786v-0.314C360.143,296.618,357.203,293.348,353.385,292.812z M333.802,301.721c0.042-0.224,0.103-0.438,0.169-0.649
	c0.546-1.758,1.891-3.031,3.512-3.214c-0.131-0.015-0.258-0.047-0.393-0.047c-2.308,0-4.178,2.235-4.178,4.993v14.844
	c0,0.208,0.031,0.406,0.051,0.608h0.786c-0.021-0.202-0.051-0.4-0.051-0.608v-14.844
	C333.698,302.431,333.737,302.071,333.802,301.721z M345.468,266.736v1.817h0.786v-1.817c0-0.488-0.395-0.883-0.883-0.883
	c-0.143,0-0.273,0.042-0.393,0.103C345.265,266.102,345.468,266.392,345.468,266.736z M347.315,270.397h0.786
	c0.4,0,0.723-0.324,0.723-0.723v-0.396c0-0.4-0.324-0.724-0.724-0.724h-0.786c0.4,0,0.724,0.324,0.724,0.724v0.396
	C348.038,270.073,347.714,270.397,347.315,270.397z M362.628,309.225c0.022-0.078,0.044-0.157,0.067-0.234
	c0.107-0.356,0.223-0.708,0.35-1.056c0.023-0.064,0.049-0.127,0.073-0.191c0.055-0.146,0.108-0.28,0.167-0.424v-0.241v-6.181H362.5
	v8.775C362.539,309.522,362.586,309.374,362.628,309.225z M330.385,396.629v1.387h7.205v-7.383
	C336.541,393.794,333.769,396.16,330.385,396.629z M336.108,362.305v0.463h-5.723v16.271c3.384,0.469,6.156,2.836,7.205,5.997
	v-21.906h10.23c0.005-0.278,0.037-0.55,0.057-0.824h-10.703H336.108z M491.916,347.342h4.267v-5.817h-4.228h-5.259
	C488.858,343.107,490.595,345.097,491.916,347.342z M487.726,335.707v-5.818h-4.229h-13.376v5.818H487.726z M461.664,324.073h17.605
	v-5.817h-17.605V324.073z M396.154,313.082h-35.693v4.473h35.693V313.082z M446.387,317.556v46.486h-7.75c0-0.039,0-0.086,0-0.129
	c3.906-0.173,7.022-3.385,7.022-7.334c0-4.06-3.291-7.351-7.351-7.351c-4.06,0-7.351,3.291-7.351,7.351
	c0,3.963,3.138,7.184,7.063,7.336c0,0.045,0,0.087,0,0.127h-9.022v33.974h-10.767v-24.253v0l-9.143,0v24.253h3.004v5.448h-20.446
	v5.448h12.527v5.448h-16.486v-5.448h1.447v-45.783h-10.23c-0.166-8.449-7.054-15.249-15.542-15.249c0.526,0,37.423,0,39.863,0
	c8.488,0,15.376,6.801,15.542,15.249h1.217v-45.573h11.185v-20.029c0-2.304,2.878-4.172,6.428-4.172c0.519,0,1.022,0.044,1.506,0.12
	c-2.822,0.44-4.922,2.085-4.922,4.052v20.029H446.387z M435.812,331.624l-2.267,0h-4.722v9.639h6.988v0V331.624L435.812,331.624z
	 M475.934,298.099v9.638h2.266v-9.638l0,0H475.934L475.934,298.099z M510.94,298.099L510.94,298.099h-2.266l0,0v9.638h2.266V298.099
	z M518.532,364.042v33.974h-26.401v-33.974h-40.929v-6.632h1.874H495c-0.114-1.44-0.352-2.864-0.707-4.25h6.118h4.228v6.712h-7.764
	v4.169H518.532z M508.086,378.11h-1.828v0h-3.808v9.638h5.635v0V378.11L508.086,378.11z M308.801,398.016h13.141v5.448h-16.486
	v-5.448h-6.799c-0.02-1.082-0.139-2.155-0.353-3.207c-0.215-1.06-0.524-2.093-0.937-3.079c-0.589-1.405-1.375-2.714-2.372-3.862
	v-32.765h13.807V398.016z M304.296,362.305c0-1.325-1.074-2.399-2.399-2.399c-0.194,0-0.381,0.025-0.562,0.069
	c-1.053,0.253-1.837,1.199-1.837,2.33v6.698h4.797V362.305z M273.898,380.834h-3.96v-5.448h-3.96v-5.448h-5.958v28.077h9.48
	c0.021-1.195,0.159-2.384,0.415-3.543h0c0-0.001,0.001-0.003,0.001-0.004c0.073-0.331,0.16-0.657,0.252-0.983
	c0.02-0.068,0.038-0.137,0.059-0.205c0.095-0.317,0.198-0.63,0.311-0.939c0.021-0.056,0.043-0.111,0.064-0.166
	c0.514-1.355,1.209-2.626,2.091-3.765c0.029-0.037,0.056-0.074,0.085-0.111c0.207-0.262,0.425-0.514,0.651-0.76
	c0.044-0.047,0.088-0.094,0.133-0.141c0.235-0.248,0.478-0.489,0.734-0.719c0.01-0.009,0.02-0.017,0.03-0.026
	c0.143-0.127,0.288-0.252,0.438-0.373h-0.864V380.834z M165.577,430.703v6.286h16.486v-6.286h-12.527H165.577z M173.496,419.807
	v5.448h16.486v-5.448H173.496z M181.416,408.912v5.448h16.486v-5.448H181.416z M189.335,398.016v5.448h16.486v-5.448H189.335z
	 M254.712,365.119h1.294v11.624h-2.398v-2.198c0-4.791-3.884-8.675-8.675-8.675h-4.258c-4.791,0-8.675,3.884-8.675,8.675v2.198
	h-2.562v-11.624h1.046v-14.881h24.229V365.119z M248.874,356.208c0-3.083-2.789-5.582-6.229-5.582c-3.44,0-6.228,2.499-6.228,5.582
	v8.911h2.092h8.225h2.14V356.208z M229.438,398.016H232v-20.19h-2.562V398.016z M253.608,398.016h2.398v-20.19h-2.398V398.016z
	 M281.697,430.703v6.286h16.486v-6.286H281.697z M289.616,419.807v5.448h16.486v-5.448H289.616z M297.536,408.912v5.448h16.486
	v-5.448H297.536z M327.767,422.95h1.828v-9.638h-1.828V422.95z M251.499,412.199v24.79h3.27v-24.79l0,0H251.499L251.499,412.199z
	 M363.31,347.882c0.018,0,0.035-0.003,0.052-0.003c-0.02,0-0.052,0-0.052,0V347.882z M363.061,398.645h5.997v-8.486h-5.997V398.645z
	 M371.848,430.703v6.286h16.486v-6.286H371.848z M379.768,419.807v5.448h16.486v-5.448H379.768z M557.089,436.989h3.593
	c1.105-2.081,2.185-4.176,3.242-6.286h-6.835V436.989z M549.17,419.807v5.448h16.486v-5.448H549.17z M557.737,408.912H541.25v5.448
	h16.486V408.912z M549.817,398.016h-16.486v5.448h16.486V398.016z M503.744,422.95h1.828v-9.638h-1.828V422.95z M124.438,359.02
	h17.121l1.623-1.218h-20.368L124.438,359.02z M178.105,348.285h11.099l1.052-0.789h-13.204L178.105,348.285z M53.925,385.71h26.524
	l2.515-1.886H51.41L53.925,385.71z M114.366,159.625c14.002,0,14.025-21.761,0-21.761
	C100.364,137.865,100.341,159.625,114.366,159.625z M323.271,220.335c-30.203,0-99.193,0-103.485,0
	c-14.002,0-14.025,21.761,0,21.761c30.203,0,99.193,0,103.485,0C337.273,242.096,337.296,220.335,323.271,220.335z M156.921,212.416
	c-14.002,0-14.025,21.761,0,21.761C170.923,234.176,170.946,212.416,156.921,212.416z M126.939,212.416h-50.26
	c-1.976,0-3.578-1.602-3.578-3.578v0c0-1.976,1.602-3.578,3.578-3.578h5.771c14.002,0,14.025-21.761,0-21.761
	c-19.92,0-39.841,0-59.761,0c-2.958,7.118-5.643,14.377-8.052,21.761h39.089c1.976,0,3.578,1.602,3.578,3.578v0
	c0,1.976-1.602,3.578-3.578,3.578H20.553c-14.002,0-14.025,21.761,0,21.761c31.023,0,101.948,0,106.386,0
	C140.941,234.176,140.964,212.416,126.939,212.416z M294.256,126.28c14.002,0,14.025-21.761,0-21.761
	C280.254,104.519,280.231,126.28,294.256,126.28z M331.975,104.519h101.711c2.582,0,4.676-2.093,4.676-4.676l0,0
	c0-2.582-2.093-4.676-4.676-4.676h-9.831c-14.025,0-14.002-21.761,0-21.761c4.858,0,36.415,0,69.497,0
	c7.85,6.857,15.329,14.125,22.42,21.761h-41.785c-2.582,0-4.676,2.093-4.676,4.676l0,0c0,2.582,2.093,4.676,4.676,4.676h50.116
	c5.961,6.984,11.609,14.241,16.913,21.761c-22.933,0-78.224,0-126.559,0c-2.48-1.674-5.706-3.181-9.453-2.842
	c1.436,0.868,2.804,1.812,4.104,2.842c-36.413,0-67.932,0-77.132,0C317.95,126.28,317.973,104.519,331.975,104.519z
	 M329.013,115.995c3.091,1.084,5.995,2.493,8.7,4.342c1.843,1.259,5.514,6.014,7.94,5.799c1.729-0.153,4.857-4.857,6.111-5.934
	c2.861-2.46,6.085-4.394,9.453-6.069c-0.554-0.081-6.919,0.072-16.561,5.483C343.51,119.736,336.531,113.698,329.013,115.995z
	 M372.595,95.167c7.415,0,14.83,0,22.244,0c14.002,0,14.025-21.761,0-21.761c-7.415,0-14.83,0-22.244,0
	C358.593,73.407,358.57,95.167,372.595,95.167z"></path>
<path id="color_x5F_3" fill="#E84393" d="M279.307,394.473c2.397,0,4.341-1.944,4.341-4.341v-6.89c-0.001,0-0.001,0-0.002,0
	c-1.433,0.029-2.749,0.223-3.958,0.55c-0.068,0.018-0.138,0.035-0.205,0.054c-0.356,0.102-0.702,0.217-1.039,0.342
	c-0.076,0.028-0.151,0.058-0.226,0.087c-0.34,0.133-0.673,0.275-0.993,0.431c-0.021,0.01-0.041,0.022-0.062,0.032
	c-1.059,0.525-2.005,1.171-2.841,1.917c-0.01,0.009-0.02,0.017-0.03,0.026c-0.256,0.23-0.499,0.471-0.734,0.719
	c-0.044,0.047-0.089,0.093-0.133,0.141c-0.227,0.246-0.445,0.499-0.651,0.76c-0.029,0.036-0.056,0.074-0.085,0.111
	c-0.882,1.138-1.577,2.411-2.091,3.765c-0.021,0.055-0.043,0.11-0.064,0.166c-0.113,0.309-0.217,0.622-0.311,0.939
	c-0.02,0.068-0.039,0.137-0.059,0.205c-0.093,0.325-0.179,0.652-0.252,0.983c0,0.001-0.001,0.003-0.001,0.004h0H279.307z
	 M281.695,385.33c0.891,0,0.889,1.382,0,1.382C280.804,386.713,280.806,385.33,281.695,385.33z M272.947,392.446
	c0.739-3.095,2.71-5.518,5.724-6.616c0.839-0.306,1.197,1.031,0.368,1.333c-2.56,0.933-4.138,3.052-4.758,5.651
	C274.073,393.68,272.741,393.311,272.947,392.446z M492.537,494.129c9.547,0,19.095,0,28.642,0
	c5.893-6.699,11.487-13.666,16.767-20.878c-10.949-0.023-10.971-6.188-21.96-6.188c-11.01,0-11.01,6.189-22.02,6.189
	c-11.01,0-11.01-6.189-22.019-6.189c-11.008,0-11.008,6.189-22.017,6.189c-11.008,0-11.008-6.189-22.016-6.189
	c-11.007,0-11.007,6.189-22.014,6.189c-11.009,0-11.009-6.189-22.017-6.189c-11.007,0-11.007,6.189-22.014,6.189
	c-11.006,0-11.006-6.189-22.012-6.189c-11.008,0-11.008,6.189-22.016,6.189c-11.008,0-11.008-6.189-22.017-6.189
	c-11.008,0-11.008,6.189-22.015,6.189c-11.009,0-11.009-6.189-22.017-6.189c-11.008,0-11.008,6.189-22.015,6.189
	c-11.007,0-11.007-6.189-22.014-6.189c-11.007,0-11.007,6.189-22.014,6.189c-11.007,0-11.007-6.189-22.013-6.189
	c-11.007,0-11.007,6.189-22.014,6.189c-11.008,0-11.008-6.189-22.016-6.189c-11.007,0-11.007,6.189-22.014,6.189
	c-11.006,0-11.006-6.189-22.012-6.189c-9.7,0-10.856,4.805-18.526,5.946c6.731,9.214,13.975,18.028,21.697,26.397
	c6.285,0,12.571,0,18.856,0c2.638,0,2.634,4.094,0,4.094c-5.007,0-10.015,0-15.022,0c17.603,18.375,37.541,34.491,59.333,47.884
	l46.5-31l40.205,14.62l45.079,28.022l15.996,1.855c0.574-0.123,1.186-0.208,1.883-0.208c1.532,0,2.723,0.342,3.737,0.86
	l18.194,2.109c1.601-1.562,3.356-2.969,6.519-2.969c4.324,0,6.023,2.624,8.285,4.686l10.339,1.199
	c3.204-2.034,4.591-5.884,9.828-5.884c7.11,0,7.11,7.113,14.221,7.113c7.112,0,7.112-7.113,14.224-7.113
	c7.11,0,7.11,7.113,14.22,7.113c7.111,0,7.111-7.113,14.221-7.113c5.516,0,6.764,4.271,10.362,6.19
	c19.409-8.408,37.751-18.812,54.755-30.973c-12.758,0-25.516,0-38.274,0c-2.639,0-2.634-4.094,0-4.094c14.621,0,29.242,0,43.863,0
	c9.39-7.051,18.353-14.639,26.836-22.728H244.872c0,0,11.952-9.2,16.057-9.2c7.119,0,7.119,7.113,14.238,7.113
	c7.114,0,7.114-7.113,14.228-7.113c3.085,0,4.832,1.338,6.402,2.853l8.973-4.166v0l10.309,1.767c0.8-0.277,1.7-0.454,2.777-0.454
	c2.354,0,3.923,0.785,5.235,1.827l7.152,1.226h0l0,0l27.656-10.917h0l0,0l31.295,1.456l32.023-15.284l24.585,28.799
	c0.031,0,0.058,0.006,0.09,0.006c7.112,0,7.112-7.113,14.225-7.113c7.11,0,7.11,7.113,14.221,7.113
	c7.112,0,7.112-7.113,14.224-7.113c7.11,0,7.11,7.113,14.22,7.113c1.115,0,2.041-0.189,2.861-0.484
	c4.073-3.981,8.042-8.066,11.882-12.273c-8.33,0-16.659,0-24.989,0C489.899,498.223,489.903,494.129,492.537,494.129z
	 M495.63,484.122c6.55,0,13.1,0,19.65,0c2.638,0,2.634,4.094,0,4.094c-6.55,0-13.1,0-19.65,0
	C492.992,488.216,492.996,484.122,495.63,484.122z M106.986,503.5c-2.639,0-2.634-4.094,0-4.094
	C109.625,499.406,109.62,503.5,106.986,503.5z M128.82,512.961c-5.337,0-10.674,0-16.012,0c-2.639,0-2.634-4.094,0-4.094
	c5.337,0,10.674,0,16.012,0C131.459,508.867,131.454,512.961,128.82,512.961z M128.82,494.038c-2.639,0-2.634-4.094,0-4.094
	C131.459,489.944,131.454,494.038,128.82,494.038z M156.477,530.428c-4.367,0-8.734,0-13.1,0c-2.639,0-2.634-4.094,0-4.094
	c4.367,0,8.733,0,13.1,0C159.115,526.334,159.111,530.428,156.477,530.428z M160.115,494.038c-7.339,0-14.677,0-22.016,0
	c-2.638,0-2.634-4.094,0-4.094c7.339,0,14.677,0,22.016,0C162.754,489.944,162.75,494.038,160.115,494.038z M175.399,507.139
	c-2.639,0-2.634-4.094,0-4.094C178.038,503.045,178.033,507.139,175.399,507.139z M185.589,507.139c-2.639,0-2.634-4.094,0-4.094
	C188.227,503.045,188.223,507.139,185.589,507.139z M448.323,524.151c4.124,0,8.249,0,12.373,0c2.638,0,2.634,4.094,0,4.094
	c-4.124,0-8.249,0-12.373,0C445.685,528.245,445.689,524.151,448.323,524.151z M415.573,535.796c2.639,0,2.634,4.094,0,4.094
	C412.934,539.89,412.938,535.796,415.573,535.796z M395.194,552.99c-8.006,0-16.012,0-24.017,0c-2.639,0-2.634-4.094,0-4.094
	c8.006,0,16.011,0,24.017,0C397.833,548.896,397.828,552.99,395.194,552.99z M362.443,532.157c4.367,0,8.734,0,13.1,0
	c2.638,0,2.634,4.094,0,4.094c-4.367,0-8.734,0-13.1,0C359.805,536.25,359.809,532.157,362.443,532.157z M325.326,536.523
	c8.491,0,16.982,0,25.473,0c2.639,0,2.634,4.094,0,4.094c-8.491,0-16.982,0-25.473,0
	C322.687,540.617,322.691,536.523,325.326,536.523z M315.5,536.523c2.638,0,2.634,4.094,0,4.094
	C312.862,540.617,312.866,536.523,315.5,536.523z M276.563,536.523c9.522,0,19.044,0,28.566,0c2.638,0,2.634,4.094,0,4.094
	c-9.522,0-19.044,0-28.566,0C273.925,540.617,273.929,536.523,276.563,536.523z M213.245,494.038c-2.639,0-2.634-4.094,0-4.094
	C215.883,489.944,215.879,494.038,213.245,494.038z M232.167,518.783c-4.367,0-8.734,0-13.1,0c-2.638,0-2.634-4.094,0-4.094
	c4.367,0,8.734,0,13.1,0C234.806,514.69,234.802,518.783,232.167,518.783z M234.351,494.038c-3.154,0-6.308,0-9.461,0
	c-2.638,0-2.634-4.094,0-4.094c3.154,0,6.308,0,9.461,0C236.99,489.944,236.985,494.038,234.351,494.038z M300.763,483.849
	c-3.457,0-6.914,0-10.371,0c-2.638,0-2.634-4.094,0-4.094c3.457,0,6.914,0,10.371,0
	C303.401,479.755,303.397,483.849,300.763,483.849z M311.134,483.849c-2.639,0-2.634-4.094,0-4.094c3.518,0,7.035,0,10.553,0
	c2.639,0,2.634,4.094,0,4.094C318.169,483.849,314.651,483.849,311.134,483.849z M344.43,493.31c-8.794,0-17.588,0-26.383,0
	c-2.639,0-2.634-4.094,0-4.094c8.794,0,17.589,0,26.383,0C347.069,489.217,347.065,493.31,344.43,493.31z M357.901,493.31
	c-2.639,0-2.634-4.094,0-4.094C360.539,489.217,360.535,493.31,357.901,493.31z M382.094,481.666c-3.639,0-7.278,0-10.917,0
	c-2.639,0-2.634-4.094,0-4.094c3.639,0,7.278,0,10.917,0C384.732,477.572,384.728,481.666,382.094,481.666z M488.534,488.216
	c-2.487,0-4.973,0-7.46,0c-2.639,0-2.634-4.094,0-4.094c2.487,0,4.973,0,7.46,0C491.173,484.122,491.168,488.216,488.534,488.216z
	 M296.526,348.366c2.883,0,5.221-2.337,5.221-5.22v-8.286l0,0c-0.002,0-0.004,0-0.006,0c-1.72,0.035-3.301,0.268-4.753,0.66
	c-0.083,0.023-0.169,0.042-0.252,0.066c-0.428,0.122-0.842,0.261-1.246,0.411c-0.092,0.034-0.183,0.07-0.274,0.105
	c-0.408,0.16-0.809,0.33-1.193,0.518c-0.026,0.013-0.05,0.027-0.076,0.04c-1.272,0.63-2.409,1.407-3.412,2.302
	c-0.013,0.012-0.027,0.022-0.04,0.034c-0.307,0.276-0.599,0.566-0.881,0.863c-0.053,0.056-0.107,0.112-0.159,0.169
	c-0.273,0.296-0.535,0.6-0.783,0.914c-0.035,0.044-0.068,0.089-0.102,0.133c-1.06,1.368-1.895,2.898-2.513,4.526
	c-0.026,0.068-0.052,0.135-0.078,0.203c-0.136,0.371-0.26,0.748-0.374,1.128c-0.025,0.082-0.047,0.165-0.071,0.247
	c-0.111,0.39-0.215,0.783-0.303,1.18c0,0.002-0.001,0.004-0.001,0.006h0H296.526z M299.397,337.371c1.071,0,1.07,1.662,0,1.662
	C298.326,339.033,298.328,337.371,299.397,337.371z M288.877,345.928c0.888-3.721,3.259-6.635,6.883-7.956
	c1.008-0.368,1.439,1.239,0.442,1.603c-3.079,1.122-4.976,3.67-5.722,6.796C290.231,347.412,288.629,346.968,288.877,345.928z
	 M473.419,347.633v-9.937c-11.449,0.229-17.9,7.573-19.808,16.198h13.547C470.616,353.893,473.419,351.09,473.419,347.633z
	 M470.602,340.707c1.285,0,1.283,1.994,0,1.994C469.317,342.701,469.319,340.707,470.602,340.707z M466.77,343.35
	c-3.692,1.346-5.968,4.401-6.862,8.15c-0.298,1.249-2.22,0.717-1.922-0.53c1.065-4.463,3.909-7.958,8.255-9.542
	C467.449,340.987,467.966,342.915,466.77,343.35z M509.231,217.965v-13.267c-15.287,0.306-23.9,10.111-26.447,21.627h18.088
	C505.489,226.325,509.231,222.582,509.231,217.965z M505.47,208.719c1.716,0,1.713,2.662,0,2.662
	C503.755,211.381,503.757,208.719,505.47,208.719z M500.353,212.248c-4.93,1.797-7.968,5.877-9.163,10.881
	c-0.398,1.668-2.964,0.958-2.567-0.708c1.422-5.959,5.219-10.625,11.022-12.74C501.26,209.093,501.95,211.666,500.353,212.248z
	 M372.931,310.334c2.702,0,4.893-2.191,4.893-4.893v-7.765l0,0c-0.001,0-0.003,0-0.004,0c-1.614,0.033-3.096,0.251-4.457,0.619
	c-0.078,0.021-0.157,0.04-0.234,0.062c-0.401,0.115-0.79,0.244-1.169,0.385c-0.086,0.032-0.172,0.065-0.257,0.099
	c-0.383,0.15-0.757,0.309-1.117,0.485c-0.025,0.012-0.048,0.026-0.073,0.038c-1.191,0.591-2.255,1.318-3.195,2.155
	c-0.013,0.011-0.026,0.022-0.039,0.033c-0.288,0.258-0.56,0.53-0.824,0.808c-0.051,0.053-0.101,0.107-0.151,0.161
	c-0.255,0.277-0.501,0.561-0.733,0.855c-0.033,0.041-0.064,0.084-0.096,0.126c-0.993,1.282-1.776,2.716-2.355,4.241
	c-0.024,0.064-0.049,0.127-0.073,0.191c-0.128,0.348-0.244,0.7-0.35,1.056c-0.023,0.078-0.045,0.156-0.067,0.234
	c-0.104,0.365-0.201,0.732-0.283,1.104c0,0.002-0.001,0.004-0.001,0.006h0H372.931z M375.622,300.029c1.004,0,1.003,1.558,0,1.558
	C374.618,301.587,374.619,300.029,375.622,300.029z M365.762,308.05c0.833-3.488,3.055-6.219,6.451-7.457
	c0.945-0.345,1.349,1.162,0.414,1.502c-2.886,1.052-4.664,3.44-5.363,6.369C367.031,309.44,365.529,309.025,365.762,308.05z
	 M239.344,347.05c1.635,0,2.961-1.326,2.961-2.961v-4.7c-0.001,0-0.001,0-0.002,0c-0.977,0.02-1.875,0.152-2.699,0.375
	c-0.046,0.013-0.094,0.023-0.14,0.037c-0.243,0.069-0.478,0.148-0.708,0.233c-0.053,0.02-0.104,0.04-0.156,0.06
	c-0.231,0.091-0.458,0.187-0.675,0.293c-0.015,0.007-0.03,0.016-0.045,0.023c-0.721,0.357-1.365,0.798-1.934,1.305
	c-0.007,0.007-0.015,0.012-0.022,0.019c-0.174,0.156-0.339,0.321-0.499,0.489c-0.031,0.032-0.061,0.064-0.091,0.097
	c-0.155,0.168-0.303,0.34-0.444,0.518c-0.02,0.025-0.038,0.05-0.057,0.075c-0.601,0.776-1.076,1.645-1.426,2.569
	c-0.014,0.038-0.029,0.076-0.044,0.114c-0.077,0.211-0.148,0.425-0.213,0.641c-0.014,0.046-0.026,0.092-0.04,0.138
	c-0.063,0.222-0.122,0.445-0.172,0.671c0,0.001-0.001,0.002-0.001,0.003h0H239.344z M240.973,340.814c0.608,0,0.607,0.943,0,0.943
	C240.365,341.757,240.366,340.814,240.973,340.814z M235.005,345.668c0.504-2.111,1.849-3.764,3.904-4.513
	c0.572-0.208,0.816,0.703,0.251,0.909c-1.746,0.637-2.822,2.082-3.246,3.854C235.773,346.509,234.864,346.258,235.005,345.668z
	 M186.645,573.872h221.986c-34.301,13.796-71.757,21.404-110.993,21.404C258.401,595.276,220.946,587.667,186.645,573.872z
	 M22.926,387.82c2.639,0,2.634,4.094,0,4.094C20.287,391.914,20.291,387.82,22.926,387.82z M46.397,387.82
	c2.639,0,2.634,4.094,0,4.094C43.759,391.914,43.763,387.82,46.397,387.82z M52.401,406.703c-10.594,0-21.189,0-31.783,0
	c-0.535-1.357-1.041-2.727-1.556-4.094c11.113,0,22.227,0,33.34,0C55.04,402.609,55.036,406.703,52.401,406.703z M51.674,338.562
	c2.639,0,2.634,4.094,0,4.094C49.035,342.656,49.039,338.562,51.674,338.562z M25.473,338.562c5.337,0,10.674,0,16.012,0
	c2.639,0,2.634,4.094,0,4.094c-5.337,0-10.674,0-16.012,0C22.834,342.656,22.839,338.562,25.473,338.562z M103.347,355.302
	c4.124,0,8.248,0,12.373,0c2.638,0,2.634,4.094,0,4.094c-4.124,0-8.248,0-12.373,0C100.709,359.396,100.713,355.302,103.347,355.302
	z M155.749,350.207c2.639,0,2.634,4.094,0,4.094C153.11,354.301,153.115,350.207,155.749,350.207z M66.957,421.259
	c-6.793,0-13.586,0-20.378,0c-2.639,0-2.634-4.094,0-4.094c6.793,0,13.586,0,20.378,0C69.596,417.165,69.592,421.259,66.957,421.259
	z M90.247,338.562c3.396,0,6.793,0,10.189,0c2.639,0,2.634,4.094,0,4.094c-3.396,0-6.793,0-10.189,0
	C87.608,342.656,87.613,338.562,90.247,338.562z M146.287,380.047c2.639,0,2.634,4.094,0,4.094
	C143.649,384.141,143.653,380.047,146.287,380.047z M68.413,402.609c2.639,0,2.634,4.094,0,4.094
	C65.774,406.703,65.779,402.609,68.413,402.609z M87.336,393.147c6.55,0,13.1,0,19.651,0c2.639,0,2.634,4.094,0,4.094
	c-6.55,0-13.1,0-19.651,0C84.697,397.241,84.701,393.147,87.336,393.147z M136.826,369.13c5.095,0,10.189,0,15.284,0
	c2.639,0,2.634,4.094,0,4.094c-5.095,0-10.189,0-15.284,0C134.187,373.224,134.192,369.13,136.826,369.13z M138.645,380.047
	c2.639,0,2.634,4.094,0,4.094c-10.068,0-20.136,0-30.204,0c-2.639,0-2.634-4.094,0-4.094
	C118.51,380.047,128.578,380.047,138.645,380.047z M166.666,369.858c4.367,0,8.734,0,13.1,0c2.639,0,2.634,4.094,0,4.094
	c-4.367,0-8.734,0-13.1,0C164.027,373.952,164.031,369.858,166.666,369.858z M201.6,342.201c2.183,0,4.367,0,6.55,0
	c2.639,0,2.634,4.094,0,4.094c-2.183,0-4.367,0-6.55,0C198.961,346.295,198.966,342.201,201.6,342.201z"></path>
<path id="color_x5F_2" fill="#FBC02D" d="M71.617,339.744l11.759,43.771l-11.759-3.997V339.744z M83.376,383.515H71.617h-0.921
	H51.695l18.785-43.238l-12.014,38.836h12.23v-39.535v-0.492l-19.303,44.429h-0.395l0.298,0.224l-0.013,0.03l0.126,0.055l0,0h31.554
	L83.376,383.515z M536.16,259.37v-10.726c0-2.121-1.719-3.841-3.841-3.841c-0.31,0-0.611,0.041-0.9,0.11
	c1.686,0.405,2.941,1.92,2.941,3.73v10.726H536.16z M542.636,312.527h16.346v-5.448h-16.346V312.527z M542.636,285.288v5.448h0.508
	v-5.448H542.636z M540.55,237.114h-42.13v34.646c-1.951-1.195-4.226-1.905-6.668-1.962c0-0.005,0-0.01,0-0.016
	c-1.229-0.041-8.802,0-10.275,0c-1.831,0-3.575,0.369-5.165,1.034v-33.702h3.256v-6.094h60.983V237.114z M491.688,248.645
	c0-1.811-1.255-3.325-2.941-3.73c-0.289-0.07-0.589-0.11-0.9-0.11c-2.121,0-3.841,1.72-3.841,3.841v10.726h1.799h5.882V248.645z
	 M513.315,259.37v-10.726c0-2.121-1.72-3.841-3.841-3.841c-0.31,0-0.611,0.041-0.899,0.11c1.686,0.405,2.941,1.92,2.941,3.73v10.726
	H513.315z M542.636,301.631h8.427v-5.448h-8.427V301.631z M477.919,180.487c31.133,0,62.266,0,93.399,0
	c-3.178-7.415-6.655-14.671-10.404-21.761c-38.657,0-79.24,0-82.995,0C463.917,158.726,463.894,180.487,477.919,180.487z
	 M384.674,169.651l-2.132-2.132l-13.072,31.403h3.02L384.674,169.651z M128.82,489.944c-2.634,0-2.639,4.094,0,4.094
	C131.454,494.038,131.459,489.944,128.82,489.944z M128.82,508.867c-5.337,0-10.674,0-16.012,0c-2.634,0-2.639,4.094,0,4.094
	c5.337,0,10.674,0,16.012,0C131.454,512.961,131.459,508.867,128.82,508.867z M97.707,499.406c-6.285,0-12.571,0-18.856,0
	c1.268,1.374,2.541,2.744,3.834,4.094c5.007,0,10.015,0,15.022,0C100.341,503.5,100.345,499.406,97.707,499.406z M106.986,499.406
	c-2.634,0-2.639,4.094,0,4.094C109.62,503.5,109.625,499.406,106.986,499.406z M130.139,329.35l-7.59,28.253l7.59-2.58V329.35z
	 M143.182,357.802L143.182,357.802l0.082-0.035l-0.008-0.02l0.192-0.144h-0.255l-12.46-28.678v0.318v25.519h7.894l-7.755-25.068
	l12.126,27.91h-12.265h-0.594h-7.59l0.266,0.199H143.182z M303.977,73.071c14.002,0,14.025-21.761,0-21.761
	C289.974,51.31,289.951,73.071,303.977,73.071z M257.227,289.936c2.045,1.152,3.992,2.461,5.696,4.086
	c0.746,0.711,2.545,3.743,3.617,3.894c1.505,0.212,3.945-2.633,5.134-3.359c1.745-1.065,3.6-1.85,5.561-2.426
	c-4.611-1.673-9.154,1.866-9.864,1.754C261.536,290.202,257.575,289.903,257.227,289.936z M217.851,167.643h-16.946
	c-2.214,0-4.009-1.795-4.009-4.009c0-2.214,1.795-4.009,4.009-4.009h11.143c14.028,0,14.025-21.841-0.078-21.761
	c-21.571,0-43.127,0-64.698,0c-14.026-0.024-14.057,21.761-0.024,21.761h28.874c2.214,0,4.009,1.795,4.009,4.009
	c0,2.214-1.795,4.009-4.009,4.009h-3.728c-14.061,0-14.025,21.944,0.177,21.76c15.052,0,30.088,0,45.14,0
	C231.853,189.547,231.923,167.643,217.851,167.643z M247.833,167.643c-14.002,0-14.025,21.761,0,21.761c20.31,0,40.62,0,60.93,0
	c14.002,0,14.025-21.761,0-21.761C288.453,167.643,268.143,167.643,247.833,167.643z M105.711,103.228c40.075,0,131.632,0,137.335,0
	c14.002,0,14.025-21.761,0-21.761h-5.473c-2.319,0-4.198-1.88-4.198-4.199c0-2.319,1.88-4.198,4.198-4.198h37.389
	c14.001,0,14.025-21.758,0.002-21.761c-22.911,0-45.819,0-68.73,0c-13.942,0.062-13.945,21.761,0.06,21.761h5.473
	c2.319,0,4.199,1.88,4.199,4.198c0,2.319-1.88,4.199-4.199,4.199H105.711C91.709,81.467,91.685,103.228,105.711,103.228z
	 M216.752,304.297c-6.833-0.955-10.567,0.402-10.871,0.574c2.338,0.209,4.651,0.6,6.873,1.38c0.973,0.341,3.859,2.365,4.899,2.061
	c1.459-0.426,2.512-4.023,3.298-5.174c1.152-1.689,2.52-3.168,4.07-4.499C220.13,299.012,217.445,304.106,216.752,304.297z
	 M216.749,270.26c-9.642-5.412-16.007-5.564-16.561-5.483c3.368,1.675,6.592,3.609,9.454,6.069c1.253,1.077,4.382,5.781,6.11,5.934
	c2.426,0.214,6.097-4.54,7.94-5.799c2.705-1.849,5.61-3.258,8.7-4.342C224.874,264.342,217.895,270.38,216.749,270.26z
	 M289.73,143.912c1.189,0.726,3.629,3.571,5.134,3.359c1.072-0.151,2.871-3.182,3.617-3.894c1.704-1.625,3.651-2.934,5.696-4.086
	c-0.348-0.033-4.309,0.267-10.144,3.948c-0.71,0.111-5.253-3.427-9.864-1.754C286.129,142.062,287.984,142.847,289.73,143.912z
	 M344.652,153.653c-0.693-0.191-3.378-5.285-8.269-5.657c1.55,1.332,2.918,2.81,4.07,4.499c0.785,1.15,1.839,4.747,3.298,5.174
	c1.039,0.304,3.926-1.72,4.899-2.061c2.222-0.78,4.535-1.172,6.873-1.38C355.219,154.055,351.485,152.698,344.652,153.653z
	 M382.497,233.855l2.135-2.135l-12.082-29.313h-3.015L382.497,233.855z M375.622,301.587c1.003,0,1.004-1.558,0-1.558
	C374.619,300.029,374.618,301.587,375.622,301.587z M370.586,299.326c0.36-0.176,0.734-0.335,1.117-0.485
	c0.085-0.033,0.17-0.067,0.257-0.099c0.379-0.141,0.767-0.271,1.169-0.385c0.077-0.022,0.156-0.04,0.234-0.062
	c1.362-0.368,2.843-0.586,4.457-0.619c0.001,0,0.003,0,0.004,0l0,0c0.143-0.003,0.275-0.02,0.42-0.02
	c2.479,0,4.657,0.438,6.569,1.184v-2.657h-16.486v4.515c0.672-0.498,1.406-0.946,2.186-1.334
	C370.538,299.352,370.561,299.338,370.586,299.326z M345.653,126.136c1.729-0.153,4.857-4.857,6.111-5.934
	c2.861-2.46,6.085-4.394,9.453-6.069c-0.554-0.081-6.919,0.072-16.561,5.483c-1.146,0.12-8.125-5.918-15.643-3.621
	c3.091,1.084,5.995,2.493,8.7,4.342C339.556,121.596,343.227,126.351,345.653,126.136z M367.264,308.464
	c0.699-2.929,2.477-5.317,5.363-6.369c0.934-0.341,0.531-1.847-0.414-1.502c-3.396,1.238-5.619,3.969-6.451,7.457
	C365.529,309.025,367.031,309.44,367.264,308.464z M363.286,307.079v0.241c0.031-0.075,0.068-0.166,0.1-0.241H363.286z
	 M412.628,129.47c1.546,1.61,4.164,7.016,6.583,7.303c1.723,0.205,5.75-3.758,7.197-4.556c3.305-1.822,6.857-3.054,10.497-4.003
	c-0.526-0.193-6.787-1.348-17.334,1.973c-0.598-0.061-2.413-2.084-5.116-3.908c-2.48-1.674-5.706-3.181-9.453-2.842
	c1.436,0.868,2.804,1.812,4.104,2.842C410.345,127.26,411.522,128.317,412.628,129.47z M449.207,234.185l-7.768,3.202
	c-0.459-0.177-0.954-0.284-1.475-0.284c-0.332,0-0.654,0.044-0.963,0.118c0.494,0.119,0.949,0.334,1.356,0.613l-20.463,8.434v3.015
	L442,240.171c0.088,0.334,0.149,0.68,0.149,1.042v9.835h1.926v-9.835c0-0.622-0.149-1.206-0.396-1.734l7.664-3.159L449.207,234.185z
	 M466.833,202.407h-3.02l-12.184,29.271l2.132,2.132L466.833,202.407z M427.774,214.551c-0.309-0.074-0.631-0.118-0.963-0.118
	c-2.27,0-4.11,1.84-4.11,4.111v9.835h1.926v-9.835C424.626,216.606,425.969,214.985,427.774,214.551z M510.058,191.417
	c-0.475,0-0.86,0.385-0.86,0.859v1.77H507.4c-0.389,0-0.704,0.315-0.704,0.704v0.386c0,0.389,0.315,0.705,0.705,0.705h1.798v4.775
	h1.719v-4.775h1.799c0.389,0,0.704-0.315,0.704-0.704v-0.386c0-0.389-0.316-0.705-0.705-0.705h-1.798v-1.77
	C510.918,191.802,510.533,191.417,510.058,191.417z M374.239,136.671c0.84,1.11,2.07,4.651,3.548,5.006
	c1.053,0.252,3.837-1.91,4.792-2.299c2.181-0.888,4.472-1.393,6.797-1.716c-0.312-0.158-4.108-1.33-10.886-0.04
	c-0.702-0.156-3.633-5.112-8.537-5.244C371.567,133.631,373.005,135.041,374.239,136.671z M419.894,155.003l29.271,12.184
	l2.132-2.132l-31.402-13.072V155.003z M505.47,208.719c-1.713,0-1.715,2.662,0,2.662
	C507.183,211.381,507.186,208.719,505.47,208.719z M466.769,198.922l-12.962-31.448l-2.135,2.135l12.082,29.313H466.769z
	 M124.499,278.858c3.64,0.95,7.192,2.182,10.497,4.003c1.447,0.798,5.473,4.761,7.197,4.556c2.419-0.287,5.037-5.693,6.583-7.303
	c2.269-2.364,4.823-4.339,7.626-6.033c-7.829-0.708-13.423,6.632-14.569,6.75C131.286,277.51,125.025,278.665,124.499,278.858z
	 M182.914,288.265c-6.778-1.29-10.574-0.118-10.886,0.04c2.325,0.323,4.616,0.828,6.797,1.716c0.955,0.389,3.739,2.552,4.792,2.299
	c1.478-0.354,2.707-3.895,3.548-5.006c1.206-1.593,2.61-2.974,4.18-4.206c0.036-0.029,0.07-0.059,0.106-0.088
	c-0.112,0.003-0.218,0.021-0.329,0.029C186.42,283.39,183.6,288.112,182.914,288.265z M156.477,526.334c-4.367,0-8.734,0-13.1,0
	c-2.634,0-2.639,4.094,0,4.094c4.367,0,8.733,0,13.1,0C159.111,530.428,159.115,526.334,156.477,526.334z M491.191,223.13
	c1.195-5.005,4.233-9.084,9.163-10.881c1.597-0.582,0.907-3.155-0.708-2.567c-5.803,2.116-9.599,6.782-11.022,12.74
	C488.227,224.087,490.793,224.798,491.191,223.13z M39.301,366.219c-10.449,0-20.898,0-31.347,0
	c0.323,1.369,0.657,2.733,0.999,4.094c10.116,0,20.232,0,30.348,0C41.935,370.313,41.94,366.219,39.301,366.219z M416.409,152.048
	l-31.448,12.962l2.135,2.135l29.313-12.082V152.048z M412.707,203.645h-4.803l-0.311,5.114L412.707,203.645z M391.248,571.785
	c-7.11,0-7.11-7.113-14.22-7.113c-7.112,0-7.112,7.113-14.224,7.113c-7.11,0-7.11-7.113-14.221-7.113
	c-5.237,0-6.624,3.851-9.828,5.884c-1.147,0.728-2.521,1.229-4.396,1.229c-2.79,0-4.482-1.097-5.942-2.427
	c-2.262-2.061-3.961-4.686-8.285-4.686c-3.163,0-4.918,1.407-6.519,2.969c-1.999,1.951-3.756,4.144-7.706,4.144
	c-5.58,0-6.794-4.367-10.488-6.253c-1.014-0.518-2.205-0.86-3.737-0.86c-0.697,0-1.31,0.085-1.883,0.208
	c-5.282,1.134-5.927,6.905-12.343,6.905c-6.158,0-6.993-5.321-11.717-6.754c-0.734-0.223-1.555-0.359-2.512-0.359
	c-0.56,0-1.062,0.057-1.541,0.138c-5.603,0.95-6.132,6.975-12.686,6.975c-7.114,0-7.114-7.113-14.228-7.113
	c-7.112,0-7.112,7.113-14.224,7.113c-7.112,0-7.112-7.113-14.224-7.113c-7.114,0-7.114,7.113-14.228,7.113
	c-7.117,0-7.117-7.113-14.233-7.113c-2.963,0-4.689,1.237-6.212,2.677c4.927,2.306,9.925,4.483,14.995,6.522h221.986
	c2.416-0.972,4.815-1.976,7.2-3.009c-3.598-1.919-4.845-6.19-10.362-6.19C398.358,564.672,398.358,571.785,391.248,571.785z
	 M248.874,365.119v-8.911c0-3.083-2.789-5.582-6.229-5.582c-3.44,0-6.228,2.499-6.228,5.582v8.911h2.092v-8.48
	c0-1.42,0.906-2.638,2.22-3.254h3.785c1.313,0.615,2.22,1.834,2.22,3.254v8.48H248.874z M253.608,374.545
	c0-4.791-3.884-8.675-8.675-8.675h-4.258c-4.791,0-8.675,3.884-8.675,8.675v2.198h3.672c0.382-3.579,3.41-6.368,7.091-6.368
	s6.709,2.788,7.091,6.368h3.754V374.545z M253.608,380.194v-2.368h-3.712v2.368H253.608z M232,380.194h3.63v-2.368H232V380.194z
	 M302.263,326.565c-0.296,0-0.537,0.24-0.537,0.537v1.105h-1.123c-0.243,0-0.44,0.197-0.44,0.44v0.241c0,0.243,0.197,0.44,0.44,0.44
	h1.123v2.982h1.074v-2.982h1.123c0.243,0,0.44-0.197,0.44-0.44v-0.241c0-0.243-0.197-0.44-0.44-0.44h-1.123v-1.105
	C302.799,326.806,302.559,326.565,302.263,326.565z M282.465,375.387v-5.448h-1.277v-0.366v-14.47h2.033v-3.806h38.084v3.806h-26.31
	v32.765c-0.205-0.236-0.428-0.459-0.65-0.681c-0.319-0.318-0.656-0.619-1.01-0.905c-0.876-0.708-1.853-1.322-2.949-1.803v-3.645
	h-3.96h-12.526h-3.96v-5.448H282.465z M285.993,369.003h4.797v-6.698c0-1.131-0.784-2.077-1.837-2.33
	c-0.181-0.043-0.368-0.069-0.562-0.069c-1.325,0-2.399,1.074-2.399,2.399V369.003z M290.48,346.37
	c0.746-3.126,2.643-5.673,5.722-6.796c0.997-0.363,0.566-1.971-0.442-1.603c-3.624,1.321-5.995,4.235-6.883,7.956
	C288.629,346.968,290.231,347.412,290.48,346.37z M169.536,430.703h12.527h3.96v-5.448h-12.527h-3.96V430.703z M299.397,337.371
	c-1.07,0-1.071,1.662,0,1.662C300.467,339.033,300.469,337.371,299.397,337.371z M179.315,414.359h-1.859v2.115v3.333h12.527h3.96
	v-5.448h-12.527H179.315z M242.598,334.685c-0.168,0-0.304,0.136-0.304,0.304v0.627h-0.637c-0.138,0-0.249,0.112-0.249,0.249v0.137
	c0,0.138,0.112,0.25,0.25,0.25h0.637v1.691h0.609v-1.691h0.637c0.138,0,0.249-0.112,0.249-0.25v-0.137c0-0.138-0.112-0.25-0.25-0.25
	h-0.637v-0.627C242.902,334.821,242.766,334.685,242.598,334.685z M235.914,345.918c0.423-1.773,1.499-3.218,3.246-3.854
	c0.566-0.206,0.321-1.118-0.251-0.909c-2.055,0.749-3.4,2.402-3.904,4.513C234.864,346.258,235.773,346.509,235.914,345.918z
	 M231.797,350.238h21.602v-1.525h-21.602V350.238z M240.973,340.814c-0.607,0-0.608,0.943,0,0.943
	C241.579,341.757,241.58,340.814,240.973,340.814z M549.376,378.11v9.638h2.313v-9.638v0L549.376,378.11L549.376,378.11z
	 M287.564,415.926v-7.523c0-1.736-1.408-3.144-3.144-3.144c-0.254,0-0.5,0.033-0.736,0.09c1.38,0.332,2.408,1.571,2.408,3.054v7.523
	H287.564z M329.554,396.704c0,0.733,0,1.021,0,1.312h0.831v-1.387C330.112,396.667,329.834,396.692,329.554,396.704z
	 M580.846,350.876h9.676c0.327-1.809,0.623-3.628,0.917-5.448h-10.593V350.876z M589.412,334.532h-16.486v5.448h16.486V334.532z
	 M577.533,322.414v1.222h-12.527v5.448h16.486v-4.941h12.595c0.051-0.576,0.106-1.151,0.154-1.729H577.533z M160.115,489.944
	c-7.339,0-14.677,0-22.016,0c-2.634,0-2.638,4.094,0,4.094c7.339,0,14.677,0,22.016,0
	C162.75,494.038,162.754,489.944,160.115,489.944z M577.714,363.129v35.43c4.844-13.441,8.754-27.326,11.639-41.586
	c-0.861,1.882-1.365,3.961-1.409,6.156H577.714z M310.063,414.359h-16.486v5.448h16.486V414.359z M302.143,425.255h-16.486v5.448
	h16.486V425.255z M304.296,369.003v-6.698c0-1.325-1.074-2.399-2.399-2.399c-0.194,0-0.381,0.025-0.562,0.069
	c1.053,0.253,1.837,1.199,1.837,2.33v6.698H304.296z M281.695,386.713c0.889,0,0.891-1.382,0-1.382
	C280.806,385.33,280.804,386.713,281.695,386.713z M317.982,403.464h-12.527h-3.96v5.448h16.486V403.464z M278.671,385.83
	c-3.013,1.099-4.985,3.522-5.724,6.616c-0.206,0.865,1.126,1.234,1.333,0.367c0.62-2.599,2.198-4.717,4.758-5.651
	C279.867,386.861,279.509,385.525,278.671,385.83z M318.563,362.305c0-1.325-1.074-2.399-2.399-2.399
	c-0.194,0-0.381,0.025-0.562,0.069c1.053,0.253,1.837,1.199,1.837,2.33v6.698h1.124V362.305z M322.608,393.832v4.184h6.2
	c0-0.693,0-0.906,0-1.309C326.354,396.611,324.16,395.525,322.608,393.832z M201.862,408.912v-5.448h-12.527h-0.045h-3.915v4v1.448
	h12.527H201.862z M415.573,535.796c-2.634,0-2.639,4.094,0,4.094C418.207,539.89,418.211,535.796,415.573,535.796z M375.544,532.157
	c-4.367,0-8.734,0-13.1,0c-2.634,0-2.638,4.094,0,4.094c4.367,0,8.734,0,13.1,0C378.178,536.25,378.182,532.157,375.544,532.157z
	 M432.312,539.89c12.758,0,25.516,0,38.274,0c1.879-1.344,3.743-2.708,5.59-4.094c-14.621,0-29.242,0-43.863,0
	C429.678,535.796,429.673,539.89,432.312,539.89z M488.563,503.868c-7.112,0-7.112,7.113-14.224,7.113
	c-7.111,0-7.111-7.113-14.221-7.113c-7.112,0-7.112,7.113-14.225,7.113c-0.032,0-0.058-0.005-0.09-0.006
	c-7.019-0.063-7.056-7.107-14.137-7.107c-7.113,0-7.113,7.113-14.225,7.113c-7.112,0-7.112-7.113-14.225-7.113
	c-7.113,0-7.113,7.113-14.227,7.113c-7.114,0-7.114-7.113-14.229-7.113c-7.113,0-7.113,7.113-14.227,7.113
	c-7.114,0-7.114-7.113-14.228-7.113c-7.112,0-7.112,7.113-14.224,7.113c-3.645,0-5.423-1.868-7.246-3.689
	c-0.557-0.556-1.123-1.103-1.744-1.597c-1.311-1.043-2.881-1.827-5.235-1.827c-1.077,0-1.977,0.177-2.777,0.454
	c-2.293,0.793-3.67,2.501-5.257,3.998c-1.519,1.433-3.242,2.661-6.194,2.661c-4.031,0-5.78-2.281-7.831-4.26
	c-1.57-1.515-3.317-2.853-6.402-2.853c-7.114,0-7.114,7.113-14.228,7.113c-7.119,0-7.119-7.113-14.238-7.113
	c-4.105,0-16.057,9.2-16.057,9.2h258.139c0.888-0.847,1.756-1.714,2.633-2.571c-0.82,0.295-1.746,0.484-2.861,0.484
	C495.673,510.981,495.673,503.868,488.563,503.868z M350.798,540.617c2.634,0,2.639-4.094,0-4.094c-8.491,0-16.982,0-25.473,0
	c-2.634,0-2.638,4.094,0,4.094C333.817,540.617,342.308,540.617,350.798,540.617z M460.696,528.245c2.634,0,2.638-4.094,0-4.094
	c-4.124,0-8.249,0-12.373,0c-2.634,0-2.638,4.094,0,4.094C452.448,528.245,456.572,528.245,460.696,528.245z M371.177,552.99
	c8.006,0,16.011,0,24.017,0c2.634,0,2.638-4.094,0-4.094c-8.006,0-16.012,0-24.017,0C368.543,548.896,368.538,552.99,371.177,552.99
	z M185.589,503.045c-2.634,0-2.639,4.094,0,4.094C188.223,507.139,188.227,503.045,185.589,503.045z M213.245,489.944
	c-2.634,0-2.639,4.094,0,4.094C215.879,494.038,215.883,489.944,213.245,489.944z M175.399,503.045c-2.634,0-2.639,4.094,0,4.094
	C178.033,507.139,178.038,503.045,175.399,503.045z M305.129,540.617c2.634,0,2.638-4.094,0-4.094c-9.522,0-19.044,0-28.566,0
	c-2.634,0-2.639,4.094,0,4.094C286.085,540.617,295.607,540.617,305.129,540.617z M219.067,518.783c4.367,0,8.734,0,13.1,0
	c2.634,0,2.639-4.094,0-4.094c-4.367,0-8.734,0-13.1,0C216.433,514.69,216.429,518.783,219.067,518.783z M315.5,540.617
	c2.634,0,2.638-4.094,0-4.094C312.866,536.523,312.862,540.617,315.5,540.617z M234.351,494.038c2.634,0,2.639-4.094,0-4.094
	c-3.154,0-6.308,0-9.461,0c-2.634,0-2.638,4.094,0,4.094C228.043,494.038,231.197,494.038,234.351,494.038z M300.763,483.849
	c2.634,0,2.638-4.094,0-4.094c-3.457,0-6.914,0-10.371,0c-2.634,0-2.638,4.094,0,4.094
	C293.848,483.849,297.305,483.849,300.763,483.849z M470.602,340.707c-1.283,0-1.285,1.994,0,1.994
	C471.885,342.701,471.887,340.707,470.602,340.707z M391.647,408.912h16.486v-5.448h-16.486V408.912z M321.687,479.755
	c-3.518,0-7.035,0-10.553,0c-2.634,0-2.639,4.094,0,4.094c3.518,0,7.035,0,10.553,0
	C324.321,483.849,324.325,479.755,321.687,479.755z M549.17,425.255h17.419c-0.869,1.827-1.76,3.641-2.665,5.448h-6.835v6.286h3.593
	c-1.976,3.723-4.028,7.398-6.156,11.025H113.962v-11.025h12.403h39.211h16.486h10.264h26.091v-38.973H232v-16.739h3.63v16.739
	h14.266v-16.739h3.712v16.739h20.756v38.973h63.227v-1.809c0.904,0.355,1.879,0.563,2.899,0.603c0,0.383,0,0.595,0,1.206h0.745
	c0-0.258,0-0.56,0-1.209c4.724-0.209,8.492-4.094,8.492-8.87c0-4.91-3.98-8.89-8.89-8.89c-1.147,0-2.24,0.225-3.247,0.621v-55.512
	h10.23c0.005-0.278,0.037-0.55,0.057-0.824c0.184-2.538,0.97-4.902,2.224-6.958v-21.944c0-3.806-3.346-8.072-8.072-8.072
	c-0.141,0-0.276,0.013-0.414,0.02c-4.504,0.206-7.658,3.727-7.658,8.052v29.364h-3.573v16.271c-0.403-0.056-0.811-0.095-1.229-0.095
	c-2.595,0-4.923,1.119-6.548,2.892v-19.531h1.729v-23.667v-14.495H1.188c-0.051-0.576-0.106-1.151-0.153-1.729h288.539h34.764
	v-4.159h2.333v-17.357h3.143v-0.314c0-3.965,2.94-7.235,6.757-7.772V279.84h3.049c0.276-2.185,1.937-3.934,4.082-4.318v-5.125
	h-1.061h-0.786c-0.4,0-0.724-0.324-0.724-0.724v-0.396c0-0.4,0.324-0.724,0.723-0.724h0.786h1.061v-1.817
	c0-0.488,0.395-0.883,0.883-0.883c0.143,0,0.273,0.042,0.393,0.103c0.288,0.146,0.49,0.436,0.49,0.78v1.817h0.786h1.061
	c0.4,0,0.724,0.324,0.724,0.724v0.396c0,0.4-0.324,0.723-0.723,0.723h-1.061h-0.786v5.125c2.146,0.383,3.807,2.132,4.083,4.318
	h3.049v12.972c3.817,0.536,6.758,3.806,6.758,7.772v0.314h3.143v8.775c-0.056,0.218-0.107,0.436-0.155,0.656
	c0,0.002-0.001,0.004-0.001,0.006h0c-0.199,0.903-0.345,1.82-0.418,2.748h-1.465v4.473h35.693v-4.473h-1.466
	c-0.321-4.051-1.872-7.939-4.663-10.806v-11.541h-13.78v-5.448h13.78v-2.276h23.572v-3.172h-10.324l2.132-35.075l-20.398-8.491
	l2.132-2.132l18.445,7.678l1.691-27.813l9.135-9.135v41.455v3.02v4.292c0,0.962,0.78,1.743,1.743,1.743
	c0.055,0,0.107-0.011,0.16-0.016v27.647h31.463v-18.734c0-2.183-1.513-4.009-3.546-4.498c0.349-0.084,0.71-0.133,1.085-0.133h0
	c2.557,0,4.63,2.073,4.63,4.631v18.734h9.656v22.697c-1.344-1.744-3.448-2.873-5.82-2.873c-4.06,0-7.351,3.291-7.351,7.351
	c0,3.963,3.138,7.184,7.063,7.336c0,0.255,0,0.417,0,0.732h0.616c0-0.167,0-0.396,0-0.734c2.237-0.099,4.211-1.194,5.492-2.857
	l0.064,9.408h17.605v-5.817h15.974v-20.728c0-1.967-2.1-3.612-4.922-4.052c0.484-0.076,0.986-0.12,1.506-0.12h0
	c3.55,0,6.428,1.868,6.428,4.172v20.728h64.688v45.786h-9.266v-30.638c0-3.806-3.031-8.072-7.311-8.072
	c-0.533,0-1.047,0.056-1.538,0.163c-3.451,0.75-5.774,4.006-5.774,7.909v30.638h-5.364v33.974h-0.359v5.448h20.446v5.448H541.25
	v5.448h20.446v5.448H549.17V425.255z M341.268,302.803c0-0.373-0.04-0.733-0.105-1.082c-0.042-0.224-0.103-0.438-0.169-0.649
	c-0.546-1.758-1.891-3.031-3.512-3.214c-0.131-0.015-0.258-0.047-0.393-0.047c-2.308,0-4.178,2.235-4.178,4.993v14.844
	c0,0.208,0.031,0.406,0.051,0.608h8.254c0.021-0.202,0.051-0.4,0.051-0.608V302.803z M347.492,281.752
	c0-1.758-1.096-3.196-2.514-3.427c-0.13-0.021-0.258-0.047-0.393-0.047c-1.606,0-2.907,1.555-2.907,3.474v10.974h5.814V281.752z
	 M240.519,411.279c0-3.241-2.775-6.854-6.735-7.049c-0.111-0.005-0.219-0.019-0.332-0.019c-4.138,0-7.067,3.164-7.067,7.067v25.71
	h14.134V411.279z M261.582,412.199h-10.083l0,0v24.79h10.083V412.199z M470.121,335.707h17.605v-5.818h-17.605V335.707z
	 M445.89,378.11L445.89,378.11v9.639v0h7.13v-9.638L445.89,378.11z M405.362,317.556h12.855v-20.029c0-1.967-2.1-3.612-4.922-4.052
	c-0.484-0.076-0.986-0.12-1.506-0.12c-3.55,0-6.428,1.868-6.428,4.172V317.556z M401.259,341.263h7.131v-9.639l-7.131,0v0V341.263
	L401.259,341.263z M364.669,341.263h7.131v-9.639l-7.131,0v0V341.263L364.669,341.263z M360.545,366.377h5.635v-9.638l-5.635,0v0
	V366.377z M355.596,318.255v-0.7h0.662v-14.752c0-0.373-0.04-0.733-0.105-1.082c-0.042-0.224-0.103-0.438-0.169-0.649
	c-0.546-1.758-1.891-3.031-3.512-3.214c-0.131-0.015-0.258-0.047-0.393-0.047c-2.307,0-4.178,2.235-4.178,4.993v14.844
	c0,0.208,0.031,0.406,0.051,0.608H355.596z M352.013,370.253l-5.635,0v0v9.638h5.635V370.253z M369.059,412.159l-11.393,0v0v24.829
	v0h11.393V412.159z M369.059,373.815l-11.393,0v0v16.343h5.396v8.486h-9.181v3.929h15.178V373.815z M437.541,413.312h-7.131l0,0
	v9.638l0,0h7.131V413.312z M438.637,364.042h7.75v-45.786v-0.7h-2.36v-20.029c0-1.967-2.1-3.612-4.922-4.052
	c-0.484-0.076-0.986-0.12-1.506-0.12c-3.55,0-6.428,1.868-6.428,4.172v20.029h-11.185v45.573h-1.217
	c-0.166-8.449-7.054-15.249-15.542-15.249c-2.44,0-6.781,0-11.722,0v-16.255h-8.164v0h-3.919v0v16.255c-8.318,0-15.533,0-16.059,0
	c-0.02,0-0.052,0-0.052,0v0.003c0.018,0,0.035-0.003,0.052-0.003c8.488,0,15.376,6.801,15.542,15.249h10.23v45.783h-1.447v5.448
	h12.526v5.448h-20.446v5.448h12.526v5.448h-20.446v6.286h50.601v-38.973h6.549v-33.974H438.637z M380.347,379.891v-9.638l-5.635,0v0
	v9.638H380.347z M459.637,411.279c0-3.332-2.929-7.067-7.067-7.067c-0.096,0-0.187,0.01-0.281,0.013
	c-3.987,0.142-6.786,3.241-6.786,7.054v25.71h14.134V411.279z M477.044,413.312h-7.131l0,0v9.638l0,0h7.131V413.312z
	 M477.044,378.11l-7.131,0v0v9.638v0h7.131V378.11z M527.444,426.91c0-4.91-3.98-8.89-8.89-8.89c-0.735,0-1.445,0.099-2.128,0.267
	v-20.272h2.106v-33.974h5.703v-30.638c0-4.458-3.03-8.072-7.311-8.072c-0.483,0-0.947,0.061-1.396,0.163
	c-0.448,0.102-0.875,0.253-1.284,0.442c-2.809,1.304-4.632,4.519-4.632,7.466v30.638h-12.736v-4.169h7.764v-6.712h-10.346
	c-0.526-2.052-1.318-4.016-2.377-5.818h4.267v-5.817h-9.487c-3.186-2.331-7.294-3.773-12.346-3.846
	c-0.132-0.002-0.26-0.009-0.393-0.009c-13.349,0-20.083,9.544-20.881,19.74h-1.874v6.632h40.929v33.974h-3.657v38.973h27.952v-1.456
	c0.574,0.141,1.169,0.226,1.78,0.25c0,0.383,0,0.595,0,1.206h0.745c0-0.258,0-0.56,0-1.209
	C523.675,435.571,527.444,431.686,527.444,426.91z M171.942,354.301c7.46,0,14.92,0,22.38,0c2.634,0,2.639-4.094,0-4.094
	c-7.46,0-14.92,0-22.38,0C169.308,350.207,169.304,354.301,171.942,354.301z M190.256,347.496L190.256,347.496L190.256,347.496
	l0.053-0.023l-0.005-0.013l0.125-0.094h-0.165l-8.077-18.592v0.206v16.544h5.118l-5.027-16.251l7.861,18.093h-7.951h-0.385h-4.921
	l0.172,0.129H190.256z M181.801,329.051l-4.921,18.316l4.921-1.672V329.051z M466.24,341.428c-4.346,1.585-7.19,5.079-8.255,9.542
	c-0.298,1.247,1.624,1.779,1.922,0.53c0.895-3.748,3.17-6.804,6.862-8.15C467.966,342.915,467.449,340.987,466.24,341.428z
	 M515.281,488.216c2.634,0,2.638-4.094,0-4.094c-6.55,0-13.1,0-19.65,0c-2.634,0-2.639,4.094,0,4.094
	C502.181,488.216,508.731,488.216,515.281,488.216z M357.901,489.217c-2.634,0-2.639,4.094,0,4.094
	C360.535,493.31,360.539,489.217,357.901,489.217z M318.048,493.31c8.794,0,17.589,0,26.383,0c2.634,0,2.639-4.094,0-4.094
	c-8.794,0-17.588,0-26.383,0C315.413,489.217,315.409,493.31,318.048,493.31z M382.094,481.666c2.634,0,2.638-4.094,0-4.094
	c-3.639,0-7.278,0-10.917,0c-2.634,0-2.639,4.094,0,4.094C374.816,481.666,378.455,481.666,382.094,481.666z M492.537,498.223
	c8.33,0,16.659,0,24.989,0c1.233-1.351,2.445-2.721,3.653-4.094c-9.547,0-19.094,0-28.642,0
	C489.903,494.129,489.899,498.223,492.537,498.223z M488.534,488.216c2.634,0,2.639-4.094,0-4.094c-2.487,0-4.973,0-7.46,0
	c-2.634,0-2.639,4.094,0,4.094C483.561,488.216,486.048,488.216,488.534,488.216z"></path>
<path id="color_x5F_1" fill="#0984E3" d="M355.985,301.072h-7.024c0.546-1.758,1.891-3.031,3.512-3.214
	C354.094,298.041,355.439,299.314,355.985,301.072z M469.31,99.843L469.31,99.843c0,2.582,2.093,4.676,4.676,4.676h50.116
	c-2.711-3.176-5.49-6.293-8.33-9.351h-41.785C471.404,95.167,469.31,97.261,469.31,99.843z M595.276,297.638
	c0,8.345-0.361,16.605-1.034,24.777h-16.708v-4.226h-14.59v-5.662h-3.96v-5.448h-3.96v-5.448h-3.96v-5.448h-3.96v-5.448h-3.96
	v-5.448h-0.508v-48.174h-2.087v-6.094h-2.504c-0.93-11.719-7.814-22.702-20.985-25.605v-3.193c0-0.886-0.719-1.605-1.605-1.605
	h-4.538v-4.775h1.799c0.389,0,0.704-0.315,0.704-0.704v-0.386c0-0.389-0.316-0.705-0.705-0.705h-1.798v-1.77
	c0-0.475-0.385-0.86-0.86-0.86c-0.475,0-0.86,0.385-0.86,0.859v1.77H507.4c-0.389,0-0.704,0.315-0.704,0.704v0.386
	c0,0.389,0.315,0.705,0.705,0.705h1.798v4.775h-4.538c-0.886,0-1.605,0.719-1.605,1.605v3.148
	c-13.263,2.844-20.069,13.922-20.986,25.65h-2.502v6.094h-3.256v33.702c-4.789,2.001-8.163,6.699-8.236,12.196h-5.258
	c0-0.121,0-0.277,0-0.466c3.566-0.158,6.411-3.091,6.411-6.696c0-3.706-3.005-6.711-6.711-6.711c-1.514,0-2.906,0.507-4.029,1.353
	l-1.881-30.945c0.082-0.057,0.162-0.119,0.235-0.192c0.68-0.68,0.68-1.784,0-2.464l-0.422-0.422l-0.48-7.893l10.893-26.169h4.292
	c0.962,0,1.743-0.78,1.743-1.743c0-0.962-0.78-1.743-1.743-1.743h-4.357l-12.962-31.448l3.035-3.035c0.68-0.681,0.68-1.784,0-2.464
	c-0.68-0.68-1.784-0.68-2.464,0l-3.081,3.081l-31.402-13.072v-4.292c0-0.962-0.78-1.742-1.742-1.742
	c-0.962,0-1.743,0.78-1.743,1.742v4.357l-31.448,12.962l-3.035-3.035c-0.681-0.68-1.784-0.68-2.464,0
	c-0.681,0.681-0.681,1.784,0,2.464l3.08,3.081l-13.072,31.403h-4.292c-0.962,0-1.743,0.78-1.743,1.743
	c0,0.962,0.78,1.743,1.743,1.743h4.357l12.962,31.448l-3.035,3.035c-0.681,0.681-0.681,1.784,0,2.464s1.784,0.68,2.464,0
	l3.081-3.081l20.398,8.491l-2.132,35.075h-23.067v5.448h-3.96v5.448h-3.96v5.448h-3.96v4.515c-0.353,0.262-0.685,0.533-1.008,0.821
	c-0.013,0.011-0.026,0.022-0.039,0.033c-0.03,0.027-0.062,0.051-0.092,0.078h-2.821v3.501c-0.37,0.627-0.694,1.273-0.981,1.946h-0.1
	v-6.181H362.5h-2.357v-0.314c0-3.965-2.94-7.235-6.757-7.772V279.84h-0.786h-2.263c-0.276-2.185-1.937-3.935-4.083-4.318v-5.125
	h1.061h0.786c0.4,0,0.723-0.324,0.723-0.723v-0.396c0-0.4-0.324-0.724-0.724-0.724h-0.786h-1.061v-1.817
	c0-0.488-0.395-0.883-0.883-0.883c-0.143,0-0.273,0.042-0.393,0.103c-0.12-0.061-0.25-0.103-0.393-0.103
	c-0.487,0-0.883,0.395-0.883,0.883v1.817h-1.061h-0.786c-0.399,0-0.723,0.324-0.723,0.724v0.396c0,0.4,0.324,0.724,0.724,0.724
	h0.786h1.061v5.125c-2.146,0.383-3.807,2.133-4.082,4.318h-2.263h-0.786v12.972c-3.817,0.536-6.757,3.806-6.757,7.772v0.314h-3.143
	v17.357h-2.333v4.159h-34.764l-3.834-4.362c-1.697-1.931-4.144-3.038-6.715-3.038l-46.305-19.672
	c-1.697-1.931-4.144-3.038-6.715-3.038h-9.455c-2.524,0-4.989-1.013-6.625-2.934c-1.7-1.995-4.188-3.142-6.805-3.142l-81.031-21.464
	c-3.242-0.859-6.623-1.059-9.943-0.588l-57.093,8.087c-4.264,0.604-8.604,0.352-12.769-0.742L2.245,261.007
	c2.358-19.21,6.554-37.849,12.392-55.748h39.089c1.976,0,3.578,1.602,3.578,3.578v0c0,1.976-1.602,3.578-3.578,3.578H20.553
	c-14.002,0-14.025,21.761,0,21.761c31.023,0,101.948,0,106.386,0c14.002,0,14.025-21.761,0-21.761h-50.26
	c-1.976,0-3.578-1.602-3.578-3.578v0c0-1.976,1.602-3.578,3.578-3.578h5.771c14.002,0,14.025-21.761,0-21.761
	c-19.92,0-39.841,0-59.761,0C67.464,75.764,173.697,0,297.638,0c74.933,0,143.39,27.7,195.714,73.407c-33.082,0-64.639,0-69.497,0
	c-14.002,0-14.025,21.761,0,21.761h9.831c2.582,0,4.676,2.093,4.676,4.676l0,0c0,2.582-2.093,4.676-4.676,4.676H331.975
	c-14.002,0-14.025,21.761,0,21.761c9.2,0,40.719,0,77.132,0c1.238,0.98,2.415,2.038,3.522,3.191c1.546,1.61,4.164,7.016,6.583,7.303
	c1.723,0.205,5.75-3.758,7.197-4.556c3.305-1.822,6.857-3.054,10.497-4.003c-0.526-0.193-6.787-1.348-17.334,1.973
	c-0.598-0.061-2.413-2.084-5.116-3.908c48.335,0,103.626,0,126.559,0c7.299,10.347,13.945,21.185,19.899,32.447
	c-38.657,0-79.24,0-82.995,0c-14.002,0-14.025,21.761,0,21.761c31.133,0,62.266,0,93.399,0
	C586.73,216.443,595.276,256.041,595.276,297.638z M372.595,95.167c7.415,0,14.83,0,22.244,0c14.002,0,14.025-21.761,0-21.761
	c-7.415,0-14.83,0-22.244,0C358.593,73.407,358.57,95.167,372.595,95.167z M308.763,167.643c-20.31,0-40.62,0-60.93,0
	c-14.002,0-14.025,21.761,0,21.761c20.31,0,40.62,0,60.93,0C322.765,189.404,322.789,167.643,308.763,167.643z M289.73,143.912
	c1.189,0.726,3.629,3.571,5.134,3.359c1.072-0.151,2.871-3.182,3.617-3.894c1.704-1.625,3.651-2.934,5.696-4.086
	c-0.348-0.033-4.309,0.267-10.144,3.948c-0.71,0.111-5.253-3.427-9.864-1.754C286.129,142.062,287.984,142.847,289.73,143.912z
	 M303.977,73.071c14.002,0,14.025-21.761,0-21.761C289.974,51.31,289.951,73.071,303.977,73.071z M294.256,126.28
	c14.002,0,14.025-21.761,0-21.761C280.254,104.519,280.231,126.28,294.256,126.28z M114.366,137.865
	c-14.002,0-14.025,21.761,0,21.761C128.368,159.625,128.391,137.865,114.366,137.865z M243.046,103.228
	c14.002,0,14.025-21.761,0-21.761h-5.473c-2.319,0-4.198-1.88-4.198-4.199c0-2.319,1.88-4.198,4.198-4.198h37.389
	c14.001,0,14.025-21.758,0.002-21.761c-22.911,0-45.819,0-68.73,0c-13.942,0.062-13.945,21.761,0.06,21.761h5.473
	c2.319,0,4.199,1.88,4.199,4.198c0,2.319-1.88,4.199-4.199,4.199H105.711c-14.002,0-14.025,21.761,0,21.761
	C145.786,103.228,237.343,103.228,243.046,103.228z M156.921,212.416c-14.002,0-14.025,21.761,0,21.761
	C170.923,234.176,170.946,212.416,156.921,212.416z M172.573,189.403c15.052,0,30.088,0,45.14,0
	c14.14,0.144,14.21-21.76,0.139-21.76h-16.946c-2.214,0-4.009-1.795-4.009-4.009c0-2.214,1.795-4.009,4.009-4.009h11.143
	c14.028,0,14.025-21.841-0.078-21.761c-21.571,0-43.127,0-64.698,0c-14.026-0.024-14.057,21.761-0.024,21.761h28.874
	c2.214,0,4.009,1.795,4.009,4.009c0,2.214-1.795,4.009-4.009,4.009h-3.728C158.334,167.643,158.37,189.587,172.573,189.403z
	 M232.391,266.639c-7.518-2.297-14.497,3.741-15.643,3.621c-9.642-5.412-16.007-5.564-16.561-5.483
	c3.368,1.675,6.592,3.609,9.454,6.069c1.253,1.077,4.382,5.781,6.11,5.934c2.426,0.214,6.097-4.54,7.94-5.799
	C226.397,269.132,229.301,267.723,232.391,266.639z M277.236,292.13c-4.611-1.673-9.154,1.866-9.864,1.754
	c-5.835-3.682-9.796-3.981-10.144-3.948c2.045,1.152,3.992,2.461,5.696,4.086c0.746,0.711,2.545,3.743,3.617,3.894
	c1.505,0.212,3.945-2.633,5.134-3.359C273.42,293.491,275.275,292.706,277.236,292.13z M323.271,220.335
	c-30.203,0-99.193,0-103.485,0c-14.002,0-14.025,21.761,0,21.761c30.203,0,99.193,0,103.485,0
	C337.273,242.096,337.296,220.335,323.271,220.335z M355.523,154.228c-0.304-0.173-4.038-1.53-10.871-0.574
	c-0.693-0.191-3.378-5.285-8.269-5.657c1.55,1.332,2.918,2.81,4.07,4.499c0.785,1.15,1.839,4.747,3.298,5.174
	c1.039,0.304,3.926-1.72,4.899-2.061C350.872,154.828,353.185,154.436,355.523,154.228z M389.376,137.661
	c-0.312-0.158-4.108-1.33-10.886-0.04c-0.702-0.156-3.633-5.112-8.537-5.244c1.614,1.254,3.052,2.664,4.286,4.294
	c0.84,1.11,2.07,4.651,3.548,5.006c1.053,0.252,3.837-1.91,4.792-2.299C384.76,138.49,387.051,137.985,389.376,137.661z
	 M344.978,278.325c-1.418,0.231-2.514,1.669-2.514,3.427v10.974h5.029v-10.974C347.492,279.994,346.396,278.556,344.978,278.325z
	 M352.474,301.721v0.871c0.885,0.144,1.562,0.907,1.562,1.832c0,0,0.795,3.087,0.923,3.339l-5.715,0.102
	c0.173-0.316,1.067-3.441,1.067-3.441c0-0.911,0.655-1.666,1.519-1.828v-0.875h-3.038c-0.065,0.349-0.105,0.709-0.105,1.082v14.844
	c0,0.208,0.031,0.406,0.051,0.608h6.857v-0.7h0.662v-14.752c0-0.373-0.04-0.733-0.105-1.082H352.474z M412.61,192.658l3.799-3.388
	v-34.208l-29.313,12.082L412.61,192.658z M372.49,198.922h35.42v-2.073l2.094-1.868l-25.33-25.33L372.49,198.922z M405.897,202.407
	H372.55l12.082,29.313l22.961-22.961l0.311-5.114h-2.007V202.407z M463.753,198.922l-12.082-29.313l-13.105,13.104l15.852,14.135
	v2.073H463.753z M419.894,155.003v31.16l11.27-10.05l4.797,4.278l13.203-13.203L419.894,155.003z M456.431,202.407v1.238h-2.006
	l1.131,18.601l8.258-19.839H456.431z M405.583,241.82l1.691-27.813l-20.135,20.135L405.583,241.82z M459.249,283.012h2.351h0.655
	c0-0.168,0-0.293,0-0.464c-1.122-0.044-2.173-0.36-3.088-0.889L459.249,283.012z M337.483,297.858
	c-1.621,0.184-2.966,1.456-3.512,3.214h7.024C340.448,299.314,339.104,298.041,337.483,297.858z M341.268,317.647v-14.844
	c0-0.373-0.04-0.733-0.105-1.082h-3.752v0.871c0.885,0.144,1.562,0.907,1.562,1.832c0,0,0.795,3.087,0.923,3.339l-5.715,0.102
	c0.173-0.316,1.067-3.441,1.067-3.441c0-0.911,0.655-1.666,1.519-1.828v-0.875h-2.965c-0.065,0.349-0.105,0.709-0.105,1.082v14.844
	c0,0.208,0.031,0.406,0.051,0.608h7.468C341.237,318.054,341.268,317.855,341.268,317.647z M342.03,325.332
	c-0.141,0-0.276,0.013-0.414,0.02c-3.203,1.103-5.507,4.133-5.507,7.71v5.576h13.993v-5.234
	C350.101,329.598,346.756,325.332,342.03,325.332z M71.617,383.515h11.759l-11.759-3.997V383.515z M130.139,355.023l-7.59,2.58h7.59
	V355.023z M130.873,329.694l7.755,25.068h0.423v0.416h-8.318v2.425h12.265L130.873,329.694z M1.188,324.143h323.149v14.495h-10.798
	c-1.874-1.552-4.167-2.719-6.903-3.323v-1.399c0-0.886-0.719-1.605-1.605-1.605h-2.232v-2.982h1.123c0.243,0,0.44-0.197,0.44-0.44
	v-0.241c0-0.243-0.197-0.44-0.44-0.44h-1.123v-1.105c0-0.297-0.24-0.537-0.537-0.537c-0.296,0-0.537,0.24-0.537,0.537v1.105h-1.123
	c-0.243,0-0.44,0.197-0.44,0.44v0.241c0,0.243,0.197,0.44,0.44,0.44h1.123v2.982h-2.231c-0.886,0-1.605,0.719-1.605,1.605v1.367
	c-0.31,0.067-0.603,0.156-0.902,0.237c-0.083,0.023-0.169,0.042-0.252,0.066c-0.428,0.122-0.842,0.26-1.246,0.411
	c-0.092,0.034-0.183,0.07-0.274,0.105c-0.409,0.16-0.808,0.33-1.193,0.518c-0.026,0.013-0.05,0.027-0.076,0.04
	c-1.115,0.553-2.124,1.218-3.032,1.978h-37.769c-2.033,0-3.982,0.701-5.551,1.946c-0.753-0.411-1.589-0.732-2.517-0.937v-0.099
	c0-0.886-0.719-1.605-1.605-1.605h-0.571v-1.691h0.637c0.138,0,0.249-0.112,0.249-0.25v-0.137c0-0.138-0.112-0.25-0.25-0.25h-0.637
	v-0.627c0-0.168-0.136-0.305-0.305-0.305c-0.168,0-0.304,0.136-0.304,0.304v0.627h-0.637c-0.138,0-0.249,0.112-0.249,0.249v0.137
	c0,0.138,0.112,0.25,0.25,0.25h0.637v1.691h-0.571c-0.886,0-1.605,0.719-1.605,1.605v0.081c-0.177,0.038-0.343,0.089-0.514,0.135
	c-0.046,0.013-0.094,0.023-0.14,0.037c-0.243,0.069-0.478,0.148-0.708,0.233c-0.053,0.02-0.104,0.04-0.156,0.06
	c-0.231,0.091-0.458,0.187-0.675,0.293c-0.015,0.007-0.03,0.016-0.045,0.023c-0.721,0.358-1.365,0.797-1.934,1.305
	c-0.007,0.007-0.015,0.012-0.022,0.019c-0.174,0.157-0.339,0.321-0.499,0.489c-0.031,0.032-0.061,0.064-0.091,0.097
	c-0.155,0.168-0.303,0.34-0.444,0.518c-0.02,0.025-0.038,0.05-0.057,0.075c-0.601,0.777-1.076,1.644-1.426,2.569
	c-0.014,0.038-0.029,0.076-0.044,0.114c-0.077,0.211-0.148,0.425-0.213,0.641c-0.014,0.046-0.026,0.092-0.04,0.138
	c-0.063,0.222-0.122,0.445-0.172,0.671c0,0.001-0.001,0.002-0.001,0.003h0c-0.12,0.546-0.209,1.102-0.253,1.663h-0.887v1.525h-1.313
	v9.582l-6.336,7.209c-1.697,1.931-4.144,3.038-6.715,3.038h-13.316c-2.571,0-5.018,1.107-6.715,3.038l-17.312,19.696
	c-1.697,1.931-4.144,3.038-6.715,3.038h-17.031c-2.571,0-5.018,1.107-6.715,3.038c-1.697,1.931-4.144,3.038-6.715,3.038h-9.455
	c-2.571,0-5.018,1.107-6.715,3.038l-14.62,16.634c-1.697,1.931-4.144,3.038-6.715,3.038h-3.597H80.437
	c-2.571,0-5.018,1.107-6.715,3.038l-8.195,9.324H51.308c-5.118,0-10.042,1.83-13.938,5.11
	c-6.322-11.366-11.938-23.178-16.753-35.396c10.594,0,21.189,0,31.783,0c2.634,0,2.639-4.094,0-4.094c-11.113,0-22.227,0-33.34,0
	c-3.957-10.497-7.342-21.273-10.108-32.296c10.116,0,20.232,0,30.348,0c2.634,0,2.639-4.094,0-4.094c-10.449,0-20.898,0-31.347,0
	C4.727,352.534,2.454,338.484,1.188,324.143z M22.926,387.82c-2.634,0-2.639,4.094,0,4.094
	C25.56,391.914,25.564,387.82,22.926,387.82z M201.6,346.295c2.183,0,4.367,0,6.55,0c2.634,0,2.639-4.094,0-4.094
	c-2.183,0-4.367,0-6.55,0C198.966,342.201,198.961,346.295,201.6,346.295z M66.957,417.165c-6.793,0-13.586,0-20.378,0
	c-2.634,0-2.639,4.094,0,4.094c6.793,0,13.586,0,20.378,0C69.592,421.259,69.596,417.165,66.957,417.165z M68.413,402.609
	c-2.634,0-2.639,4.094,0,4.094C71.047,406.703,71.052,402.609,68.413,402.609z M138.645,380.047c-10.068,0-20.136,0-30.204,0
	c-2.634,0-2.639,4.094,0,4.094c10.068,0,20.136,0,30.204,0C141.28,384.141,141.284,380.047,138.645,380.047z M146.287,380.047
	c-2.634,0-2.639,4.094,0,4.094C148.922,384.141,148.926,380.047,146.287,380.047z M176.88,347.367l2.296,1.722h8.956l1.072-0.804h0
	l1.052-0.789h0l0,0l0.053-0.023l-0.005-0.013l0.125-0.094h-0.165l-8.077-18.592v-0.083c0-0.106-0.086-0.193-0.193-0.193
	c-0.106,0-0.193,0.086-0.193,0.193v0.359L176.88,347.367z M171.942,354.301c7.46,0,14.92,0,22.38,0c2.634,0,2.639-4.094,0-4.094
	c-7.46,0-14.92,0-22.38,0C169.308,350.207,169.304,354.301,171.942,354.301z M166.666,373.952c4.367,0,8.734,0,13.1,0
	c2.634,0,2.639-4.094,0-4.094c-4.367,0-8.734,0-13.1,0C164.031,369.858,164.027,373.952,166.666,373.952z M155.749,354.301
	c2.634,0,2.639-4.094,0-4.094C153.115,350.207,153.11,354.301,155.749,354.301z M152.11,369.13c-5.095,0-10.189,0-15.284,0
	c-2.634,0-2.639,4.094,0,4.094c5.095,0,10.189,0,15.284,0C154.744,373.224,154.748,369.13,152.11,369.13z M122.549,357.603
	l0.266,0.199l3.276,2.457h13.815l3.277-2.457l0,0l0.082-0.035l-0.008-0.02l0.192-0.144h-0.255l-12.46-28.678v-0.129
	c0-0.164-0.133-0.297-0.297-0.297c-0.164,0-0.297,0.133-0.297,0.297v0.554L122.549,357.603z M103.347,355.302
	c-2.634,0-2.639,4.094,0,4.094c4.124,0,8.248,0,12.373,0c2.634,0,2.638-4.094,0-4.094
	C111.596,355.302,107.471,355.302,103.347,355.302z M90.247,342.656c3.396,0,6.793,0,10.189,0c2.634,0,2.639-4.094,0-4.094
	c-3.396,0-6.793,0-10.189,0C87.613,338.562,87.608,342.656,90.247,342.656z M87.336,397.241c6.55,0,13.1,0,19.651,0
	c2.634,0,2.639-4.094,0-4.094c-6.55,0-13.1,0-19.651,0C84.701,393.147,84.697,397.241,87.336,397.241z M70.696,339.086
	l-19.303,44.429h-0.395l0.298,0.224l-0.013,0.03l0.126,0.055l0,0l2.515,1.886l2.561,1.921h21.402l2.561-1.921l0,0l2.515-1.886
	l0.412-0.309l-11.759-43.771v-0.943c0-0.207-0.168-0.375-0.375-0.375h-0.171c-0.207,0-0.375,0.168-0.375,0.375V339.086z
	 M51.674,342.656c2.634,0,2.639-4.094,0-4.094C49.039,338.562,49.035,342.656,51.674,342.656z M46.397,391.914
	c2.634,0,2.639-4.094,0-4.094C43.763,387.82,43.759,391.914,46.397,391.914z M25.473,342.656c5.337,0,10.674,0,16.012,0
	c2.634,0,2.639-4.094,0-4.094c-5.337,0-10.674,0-16.012,0C22.839,338.562,22.834,342.656,25.473,342.656z M70.696,379.758H57.81
	v-0.644h0.656l12.014-38.836l-18.785,43.238h19.001V379.758z M182.277,329.274l5.027,16.251h0.275v0.27h-5.392v1.572h7.951
	L182.277,329.274z M181.801,345.694l-4.921,1.672h4.921V345.694z M581.493,329.084h3.96v5.448h3.96v5.448h2.851
	c0.746-5.236,1.354-10.516,1.824-15.837h-12.595V329.084z"></path>
</svg>