<?xml version="1.0" standalone="no"?>
<svg version="1.1" id="Layer_1" xmlns="http://www.w3.org/2000/svg" xmlns:xlink="http://www.w3.org/1999/xlink" x="0px" y="0px" viewBox="0 0 595.276 595.276" enable-background="new 0 0 595.276 595.276" xml:space="preserve">
<path id="color_x5F_6_35_" fill="#5B499E" d="M297.638,205.429c-29.35,0-53.144-23.793-53.144-53.144
	c0-2.573,0.193-5.099,0.546-7.574h-24.761c-0.241,2.493-0.373,5.018-0.373,7.574c0,42.93,34.802,77.732,77.732,77.732
	c31.961,0,59.405-19.296,71.349-46.868c-0.939-0.851-1.54-2.069-1.54-3.438c0-2.527,2.015-4.572,4.522-4.639
	c0.378-1.234,0.725-2.482,1.042-3.741h-25.758C339.592,191.27,320.274,205.429,297.638,205.429z M232.392,170.545
	c-0.949,0-1.718-0.769-1.718-1.718c0-0.949,0.769-1.718,1.718-1.718c0.949,0,1.718,0.769,1.718,1.718
	C234.11,169.776,233.341,170.545,232.392,170.545z M260.309,210.059c-0.712,0-1.288-0.577-1.288-1.288
	c0-0.712,0.577-1.288,1.288-1.288c0.712,0,1.288,0.577,1.288,1.288C261.598,209.482,261.021,210.059,260.309,210.059z M469.3,83.396
	h-28.408c1.294,0,2.344,1.049,2.344,2.344c0,1.294-1.049,2.343-2.344,2.343c-1.294,0-2.344-1.049-2.344-2.343
	c0-1.294,1.049-2.344,2.344-2.344h-55.947c-1.625,0-3.062,0.743-4.039,1.891c-0.791,0.929-1.287,2.118-1.287,3.434
	c0,2.941,2.384,5.326,5.326,5.326h1.765c0.208,0,0.406,0.033,0.598,0.082c1.067,0.268,1.861,1.226,1.861,2.377
	c0,0.159-0.018,0.313-0.047,0.464c-0.217,1.135-1.213,1.994-2.412,1.994h-32.54c-14.173-15.021-34.25-24.411-56.532-24.411
	c-34.979,0-64.555,23.106-74.314,54.886h26.322c8.544-17.916,26.82-30.298,47.991-30.298c29.351,0,53.144,23.793,53.144,53.144
	c0,3.33-0.321,6.583-0.907,9.744h24.866c0.4-3.194,0.629-6.441,0.629-9.744c0-15.762-4.705-30.419-12.768-42.669h63.642
	c2.941,0,5.326-2.384,5.326-5.326s-2.384-5.326-5.326-5.326h-9.876c-1.358,0-2.458-1.101-2.458-2.459
	c0-1.358,1.101-2.458,2.458-2.458H469.3c2.941,0,5.326-2.385,5.326-5.326C474.626,85.78,472.241,83.396,469.3,83.396z
	 M262.886,99.25c-1.186,0-2.147-0.962-2.147-2.147c0-1.186,0.961-2.147,2.147-2.147s2.147,0.961,2.147,2.147
	C265.034,98.288,264.072,99.25,262.886,99.25z M357.804,137.045c-0.474,0-0.859-0.385-0.859-0.859c0-0.475,0.385-0.859,0.859-0.859
	s0.859,0.384,0.859,0.859C358.663,136.66,358.278,137.045,357.804,137.045z M151.394,72.184c0-1.891,1.533-3.424,3.424-3.424h54.236
	c1.891,0,3.424,1.533,3.424,3.424c0,1.891-1.533,3.424-3.424,3.424h-1.135c-0.873,0-1.581,0.708-1.581,1.581
	s0.708,1.581,1.581,1.581h34.067c1.891,0,3.424,1.533,3.424,3.424s-1.533,3.424-3.424,3.424h-59.485
	c-1.891,0-3.424-1.533-3.424-3.424s1.533-3.424,3.424-3.424h6.35c0.873,0,1.581-0.708,1.581-1.581s-0.708-1.581-1.581-1.581h-34.032
	C152.927,75.608,151.394,74.075,151.394,72.184z M180.745,447.353l-112.12,40.389c-1.371-1.65-2.72-3.318-4.056-4.998
	l123.155-44.364v31.744l-6.979,2.529V447.353z M158.361,509.992v-22.783l6.979-8.973v29.226L158.361,509.992z M135.978,524.547
	l6.979-8.973v29.226l-6.979,2.529V524.547z M262.362,513.266v31.744l-6.979,2.529v-25.3l-100.954,36.366
	c-2.339-1.286-4.656-2.607-6.956-3.953L262.362,513.266z M232.999,562.095l6.979-8.973v29.226l-6.979,2.529V562.095z"></path>
<path id="color_x5F_5_34_" fill="#785EA8" d="M297.638,205.429c22.636,0,41.954-14.158,49.614-34.097h-8.823
	c-2.565,0-4.645-2.082-4.645-4.651c0-2.569,2.08-4.651,4.645-4.651h11.445c0.586-3.16,0.907-6.414,0.907-9.744
	c0-29.351-23.793-53.144-53.144-53.144c-21.171,0-39.447,12.382-47.991,30.298h20.938c6.497-7.685,16.202-12.57,27.053-12.57
	c19.56,0,35.416,15.856,35.416,35.416c0,19.56-15.856,35.416-35.416,35.416c-19.56,0-35.416-15.856-35.416-35.416
	c0-2.601,0.288-5.133,0.82-7.574H245.04c-0.353,2.475-0.546,5.001-0.546,7.574C244.494,181.635,268.287,205.429,297.638,205.429z
	 M315.284,194.167c0.712,0,1.288,0.577,1.288,1.288c0,0.712-0.577,1.288-1.288,1.288c-0.712,0-1.289-0.577-1.289-1.288
	C313.996,194.744,314.573,194.167,315.284,194.167z M537.57,473.767c-1.488,2.024-2.999,4.029-4.537,6.013H239.902v12.839
	l-6.979,2.529v-22.783l6.979-8.973v10.374H537.57z M110.792,306.604l-16.809,10.48v-85.092l5.445-5.366v85.092L110.792,306.604z
	 M110.792,209.012l-16.809,10.48V134.4l5.445-5.366v85.092L110.792,209.012z M110.792,111.42L93.983,121.9V80.607
	c1.794-1.684,3.61-3.346,5.445-4.985v40.912L110.792,111.42z M56.236,328.069l-16.809,10.48v-85.092l5.445-5.366v85.092
	L56.236,328.069z M56.236,230.477l-16.809,10.48v-85.092l5.445-5.366v85.092L56.236,230.477z M56.236,132.885l-10.877,6.782
	c0.549-0.876,1.088-1.758,1.646-2.628L56.236,132.885z M311.022,546.93c-1.796,0-1.593,0-5.388,0s-3.996,3.943,0,3.943
	c3.996,0,3.986,5.641-0.031,5.641c-2.597,0-5.194,0-7.791,0c-4.024,0-4.026-5.641-0.031-5.641c3.995,0,4.066-3.943,0-3.943
	c-3.37,0-3.133,0-4.699,0c-4.035,0-4.028-5.644,0-5.644c5.98,0,11.96,0,17.94,0C315.057,541.287,315.05,546.93,311.022,546.93z
	 M282.23,546.93c-4.035,0-4.028-5.644,0-5.644C286.265,541.287,286.259,546.93,282.23,546.93z M362.384,528.742
	c-4.035,0-4.028-5.644,0-5.644C366.419,523.098,366.413,528.742,362.384,528.742z M221.016,518.923c1.089,0,1.873,0.417,2.374,1.017
	c1.355,1.624,0.568,4.626-2.374,4.626c-0.541,0-1.003-0.107-1.399-0.283C217.061,523.149,217.528,518.923,221.016,518.923z
	 M377.947,516.58c-3.205,0-3.85-3.553-1.965-5.018c0.488-0.379,1.137-0.626,1.965-0.626c0.83,0,1.479,0.247,1.967,0.626
	C381.8,513.027,381.147,516.58,377.947,516.58z M409.111,522.171c-1.777,0-3.554,0-5.331,0c-5.597,0-11.193,0-16.79,0
	c-1.985,0-2.987-1.366-3.018-2.754c-0.032-1.433,0.971-2.889,3.018-2.889c7.374,0,14.747,0,22.121,0
	C413.146,516.527,413.139,522.171,409.111,522.171z M232.146,518.923c4.838,0,9.675,0,14.513,0l-15.371,5.537
	c-2.525-0.599-2.836-3.802-0.932-5.044C230.821,519.112,231.415,518.923,232.146,518.923z M219.415,526.91c1.732,0,3.432,0,5.071,0
	l-13.947,5.024v-22.23l6.979-8.973v10.081c0.705,0.973,0.704,2.346,0,3.32v12.779C218.153,526.91,218.786,526.91,219.415,526.91z
	 M366.857,532.662c0.649,1.652-0.286,3.874-2.803,3.885c-8.362,0-16.699,0-25.06,0c-2.537,0.001-3.475-2.228-2.822-3.885
	c0.385-0.979,1.324-1.759,2.821-1.759c0.019,0,0.032,0,0.045,0c0.004,0,0.022,0,0.062,0c0.119,0,0.441,0,1.221,0
	c2.094,0,2.149-2.162,0-2.162c-2.149,0-16.424,0-18.858,0c-2.435,0-2.643,3.527,0,3.527c1.536,0,1.724,0,1.741,0
	c-0.001,0,0,0,0.003,0c0.009,0,0.049,0,0.205,0c4.065,0,4.028,5.728-0.091,5.643c-4.614,0-9.195,0-13.81,0
	c-4.138,0.097-4.166-5.643-0.103-5.643c1.401,0,1.761,0,4.203,0c2.442,0,2.358-3.527,0-3.527c-2.358,0-3.827,0-5.74,0
	c-2.404,0-3.361-2-2.901-3.619c-1.098,0.059-2.214,0.105-3.343,0.141c0.942,1.706,0.003,4.312-2.831,4.204
	c-0.926,0.617-1.545,1.03-2.471,1.647c-0.241,1.192-1.229,2.238-2.964,2.238c-1.298,0-2.597,0-3.896,0c-1.298,0-1.322,0.746,0,0.746
	c1.322,0,1.113,0,1.669,0c4.038,0,4.028,5.651-0.008,5.644c-9.599,0-19.17,0-28.764,0v-5.644c7.292,0,17.496,0,19.25,0
	c1.955,0,1.175-0.746,0-0.746c-1.175,0-1.071,0-1.607,0c-2.534,0-3.472-2.225-2.823-3.881c-3.359,0-6.718,0-10.077,0
	c-3.126,0-2.708-4.904-4.351-4.904c-0.107,0-0.24,0-0.391,0v-11.301l-10.17,3.663c-1.065,0-2.18,0-3.213,0
	c-1.981,0-2.982-1.361-3.017-2.746c-3.122,0-6.243,0-9.365,0c-4.035,0-4.028-5.644,0-5.644c1.752,0,2.643,0,5.256,0
	c2.612,0,3.092-4.739,0-4.739c-3.092,0-5.73,0-8.595,0c-4.078,0-4.028-5.764,0.129-5.642c7.345,0,14.637,0,21.982,0.001
	c4.183-0.14,4.226,5.641,0.149,5.641c-1.948,0-4.382,0-7.304,0s-2.435,4.777,0,4.777c2.435,0,4.028,1.427,4.06,2.709h8.397
	c1.556-0.851,3.587-1.634,5.99-2.335h5.53c1.199,0,2.171,0.876,2.171,1.957c0,1.081-0.972,1.957-2.171,1.957h-7.231
	c0.363,1.166,1.204,2.281,2.456,3.317h22.491c1.199,0,2.171,0.876,2.171,1.957s-0.972,1.957-2.171,1.957h-14.76
	c5.806,1.933,13.582,3.117,22.133,3.117c11.125,0,20.932-2.004,26.797-5.056c-0.416,0.385-0.485,0.814-0.413,1.258
	c0.224,1.387,1.765,2.919-1.944,3.682c9.236,0,18.471,0,27.707,0c4.035,0,4.029,5.644,0,5.644c-0.022,0-0.044,0-0.073,0
	c-0.197,0-0.554,0-1.179,0c-2.444,0-2.435,2.162,0,2.162c2.435,0,10.573,0,15.86,0C365.534,530.903,366.473,531.683,366.857,532.662
	z M262.362,527.951c0.829,1.016,0.829,2.546,0,3.563V527.951z M379.06,507.794c-5.287,0-13.008,0-15.86,0
	c-2.852,0-3.061,3.142,0,3.142c3.061,0,1.669,0,2.504,0c0.83,0,1.478,0.247,1.966,0.626c1.76,1.367,1.303,4.551-1.376,4.965
	c2.725,0,5.45,0,8.175,0c2.049,0,3.048,1.456,3.015,2.889c-0.045,1.913-1.935,3.785-5.681,2.095
	c-5.222,0.053-9.682,0.098-14.904,0.15c-3.529,1.421-5.293-0.394-5.329-2.245c-0.025-1.283,0.771-2.583,2.415-2.836
	c-6.013,0-12.025,0-18.038,0c-6.464,0-9.625,0.444-11.108,1.107h-9.192c-1.199,0-2.171-0.876-2.171-1.957s0.972-1.957,2.171-1.957
	h13.569c0.384-0.716,0.592-1.454,0.592-2.21c0-0.57-0.121-1.129-0.342-1.677c0.906,0.337,1.753,0.686,2.491,1.051
	c6.498,0,17.47,0,19.495,0c2.025,0,1.94-3.142,0-3.142c-1.94,0-1.628,0-2.442,0c-4.025,0-4.028-5.616-0.029-5.644
	c10.029,0,20.055,0,30.084,0C383.095,502.154,383.087,507.794,379.06,507.794z M279.417,487.473c-0.922,0-1.237,0-1.333,0
	c-0.003,0-0.016,0-0.038,0c-0.02,0-0.046,0-0.09,0c-2.525,0-3.465-2.21-2.829-3.864c0.388-1.008,1.359-1.811,2.918-1.779
	c10.571,0,21.082,0,31.654,0.001c1.578-0.042,2.557,0.764,2.946,1.778c0.635,1.654-0.308,3.864-2.829,3.864
	c-7.618,0-22.055,0-24.455,0c-2.4,0-2.296,3.495,0,3.495c2.296,0,2.156,0,2.435,0c0.704,0,1.278,0.179,1.736,0.463
	c2.167,1.342,1.59,5.181-1.736,5.181c-1.669,0-2.226,0-5.008,0c-1.47,0-2.213,0.877-2.154,1.704
	c0.053,0.738,0.743,1.438,2.154,1.438c2.991,0,7.721,0,9.123,0c0.701,0,0.946-0.719,1.271-1.438
	c0.336-0.743,0.756-1.486,1.854-1.434c6.58,0.002,13.12,0.005,19.664,0.007c3.939,0.001,7.876,0.003,11.837,0.004
	c2.348-0.243,1.613,2.861,3.272,2.861c1.597,0,3.156,0,4.733,0c4.058,0,4.028,5.707-0.068,5.643c-0.542,0.476-0.797,0.7-1.339,1.176
	c0.134,1.492-0.867,3.082-3.007,3.082c-0.422,0-0.844,0-1.266,0c0.182,0.064,0.341,0.132,0.516,0.196h-17.743
	c-1.199,0-2.171-0.876-2.171-1.957c0-1.081,0.972-1.957,2.171-1.957h14.132c-5.54-3.593-16.219-6.027-28.487-6.027
	c-8.839,0-16.851,1.265-22.713,3.315h9.992c1.199,0,2.171,0.876,2.171,1.957c0,1.081-0.972,1.957-2.171,1.957H268.21
	c-0.094-0.858,0.029-1.742,0.029-1.742s-0.319,0-0.478,0c-4.035,0-4.028-5.644,0-5.644c1.185,0,0.904,0,3.555,0
	c2.651,0,2.566-3.142,0-3.142c-2.566,0-10.254,0-15.381,0c-2.265,0-3.255-1.778-2.977-3.338c0.217-1.22,1.21-2.306,2.977-2.306
	c7.827,0,20.764,0,23.481,0C282.133,490.968,281.604,487.473,279.417,487.473z M380.769,532.662c0.651,1.656-0.29,3.885-2.822,3.885
	c-2.536,0-3.473-2.229-2.821-3.885c0.385-0.979,1.324-1.759,2.821-1.759C379.446,530.903,380.384,531.683,380.769,532.662z
	 M353.461,495.813c-4.035,0-4.028-5.644,0-5.644C357.496,490.17,357.49,495.813,353.461,495.813z M320.628,487.285
	c-2.432,0-3.385-2.047-2.885-3.676c0.329-1.074,1.284-1.968,2.885-1.968c1.603,0,2.558,0.894,2.886,1.968
	C324.012,485.238,323.056,487.285,320.628,487.285z M310.055,490.17c9.646,0,19.292,0,28.938,0c4.035,0,4.028,5.644,0,5.644
	c-8.098,0-16.196,0-24.294,0c-1.548,0-3.096,0-4.644,0c-2.802,0-3.65-2.719-2.561-4.382
	C307.973,490.699,308.824,490.17,310.055,490.17z M243.276,496.612c-2.265,0-3.255-1.778-2.977-3.338
	c0.217-1.22,1.21-2.306,2.977-2.306c1.77,0,2.762,1.086,2.978,2.306C246.53,494.834,245.537,496.612,243.276,496.612z
	 M224.355,515.294c-4.035,0-4.028-5.644,0-5.644C228.39,509.651,228.383,515.294,224.355,515.294z M300.073,357.833L42.325,450.68
	c-1.061-1.766-2.111-3.539-3.136-5.329l0.238-0.086v-94.217l5.445-5.366v97.622l49.11-17.691v-96.03l5.445-5.366v99.435
	l207.624-74.791v31.744l-6.979,2.529V357.833z M277.69,420.471v-22.783l6.979-8.973v29.226L277.69,420.471z M255.306,457.81v-22.783
	l6.979-8.973v29.226L255.306,457.81z"></path>
<path id="color_x5F_4_31_" fill="#FAFBFB" d="M333.054,152.285c0,19.56-15.856,35.416-35.416,35.416
	c-19.56,0-35.416-15.856-35.416-35.416c0-2.601,0.288-5.133,0.82-7.574h14.037c4.217,0,7.636-3.419,7.636-7.636
	c0-4.217-3.419-7.636-7.636-7.636h-6.495c6.497-7.685,16.202-12.57,27.053-12.57C317.198,116.869,333.054,132.725,333.054,152.285z
	 M485.947,255.461c-0.575,3.956-3.71,7.091-7.666,7.666c3.947,0.505,7.026,3.585,7.532,7.531c0.575-3.956,3.71-7.091,7.666-7.666
	C489.532,262.487,486.452,259.408,485.947,255.461z M459.537,118.158c-0.455,3.128-2.933,5.606-6.061,6.061
	c3.12,0.399,5.555,2.834,5.954,5.954c0.455-3.128,2.933-5.606,6.061-6.061C462.371,123.713,459.937,121.278,459.537,118.158z
	 M405.099,45.705c-0.511,3.515-3.296,6.3-6.811,6.811v0c3.506,0.449,6.242,3.185,6.691,6.691c0.511-3.515,3.296-6.3,6.811-6.811
	C408.284,51.948,405.548,49.212,405.099,45.705z M122.323,110.952c0.511-3.515,3.296-6.3,6.811-6.811
	c-3.506-0.449-6.242-3.185-6.691-6.691c-0.511,3.515-3.296,6.3-6.811,6.811C119.138,104.709,121.874,107.446,122.323,110.952z
	 M308.933,306.902c2.46,0.315,4.379,2.234,4.694,4.694c0.358-2.466,2.312-4.419,4.778-4.778c-2.46-0.315-4.379-2.234-4.694-4.694
	C313.353,304.59,311.399,306.544,308.933,306.902z M502.573,98.851c-0.359,2.466-2.312,4.419-4.778,4.778
	c2.46,0.315,4.379,2.234,4.694,4.694c0.359-2.466,2.312-4.419,4.778-4.778C504.807,103.23,502.888,101.311,502.573,98.851z
	 M228.097,50.288c0.358-2.466,2.312-4.419,4.778-4.778c-2.46-0.315-4.379-2.234-4.694-4.694c-0.358,2.466-2.312,4.419-4.778,4.778
	C225.863,45.909,227.783,47.828,228.097,50.288z M158.014,197.237c0.419-2.88,2.701-5.162,5.581-5.581
	c-2.873-0.368-5.115-2.61-5.483-5.483c-0.419,2.88-2.701,5.162-5.581,5.581v0C155.405,192.122,157.646,194.364,158.014,197.237z
	 M127.115,274.05c-0.419,2.88-2.701,5.162-5.581,5.581c2.873,0.368,5.115,2.61,5.483,5.483c0.419-2.88,2.701-5.162,5.581-5.581
	C129.725,279.165,127.483,276.923,127.115,274.05z M484.934,94.955c0.474,0,0.859-0.385,0.859-0.859
	c0-0.474-0.384-0.859-0.859-0.859s-0.859,0.385-0.859,0.859C484.074,94.57,484.459,94.955,484.934,94.955z M499.536,148.641
	c0-0.712-0.577-1.288-1.288-1.288c-0.712,0-1.288,0.577-1.288,1.288c0,0.712,0.577,1.288,1.288,1.288
	C498.959,149.93,499.536,149.353,499.536,148.641z M417.933,130.173c-0.711,0-1.288,0.577-1.288,1.288
	c0,0.712,0.577,1.289,1.288,1.289c0.712,0,1.289-0.577,1.289-1.289C419.221,130.75,418.644,130.173,417.933,130.173z
	 M517.575,130.173c-0.712,0-1.289,0.577-1.289,1.288c0,0.712,0.577,1.289,1.289,1.289c0.711,0,1.289-0.577,1.289-1.289
	C518.863,130.75,518.286,130.173,517.575,130.173z M550.216,216.072c-1.423,0-2.577,1.154-2.577,2.577s1.154,2.577,2.577,2.577
	c1.423,0,2.577-1.154,2.577-2.577S551.64,216.072,550.216,216.072z M446.279,270.188c-0.474,0-0.859,0.385-0.859,0.859
	s0.385,0.859,0.859,0.859c0.474,0,0.859-0.385,0.859-0.859S446.754,270.188,446.279,270.188z M500.395,289.944
	c-0.949,0-1.718,0.769-1.718,1.718c0,0.949,0.769,1.718,1.718,1.718c0.949,0,1.718-0.769,1.718-1.718
	C502.113,290.713,501.344,289.944,500.395,289.944z M335.47,270.188c-0.474,0-0.859,0.385-0.859,0.859s0.385,0.859,0.859,0.859
	s0.859-0.385,0.859-0.859S335.945,270.188,335.47,270.188z M289.944,299.393c0-0.949-0.769-1.718-1.718-1.718
	c-0.949,0-1.718,0.769-1.718,1.718c0,0.949,0.769,1.718,1.718,1.718C289.175,301.111,289.944,300.342,289.944,299.393z
	 M369.4,202.328c-0.712,0-1.289,0.577-1.289,1.288c0,0.712,0.577,1.288,1.289,1.288c0.711,0,1.288-0.577,1.288-1.288
	C370.689,202.905,370.112,202.328,369.4,202.328z M222.084,204.905c0.474,0,0.859-0.384,0.859-0.859
	c0-0.474-0.385-0.859-0.859-0.859c-0.474,0-0.859,0.385-0.859,0.859C221.225,204.52,221.61,204.905,222.084,204.905z
	 M260.309,207.482c-0.712,0-1.288,0.577-1.288,1.288c0,0.712,0.577,1.288,1.288,1.288c0.712,0,1.288-0.577,1.288-1.288
	C261.598,208.059,261.021,207.482,260.309,207.482z M327.739,242.7c0-0.712-0.577-1.288-1.289-1.288
	c-0.711,0-1.288,0.577-1.288,1.288c0,0.712,0.577,1.288,1.288,1.288C327.163,243.988,327.739,243.412,327.739,242.7z
	 M266.322,270.678c0-0.712-0.577-1.288-1.288-1.288c-0.712,0-1.288,0.577-1.288,1.288c0,0.712,0.577,1.289,1.288,1.289
	C265.745,271.966,266.322,271.389,266.322,270.678z M316.573,195.456c0-0.712-0.577-1.288-1.288-1.288
	c-0.712,0-1.289,0.577-1.289,1.288c0,0.712,0.577,1.288,1.289,1.288C315.996,196.744,316.573,196.167,316.573,195.456z
	 M279.636,244.418c0-0.949-0.769-1.718-1.718-1.718c-0.949,0-1.718,0.769-1.718,1.718s0.769,1.718,1.718,1.718
	C278.867,246.136,279.636,245.367,279.636,244.418z M372.407,257.303c-0.949,0-1.718,0.769-1.718,1.718
	c0,0.949,0.769,1.718,1.718,1.718c0.949,0,1.718-0.769,1.718-1.718C374.125,258.072,373.355,257.303,372.407,257.303z
	 M185.148,206.623c0.949,0,1.718-0.769,1.718-1.718c0-0.949-0.769-1.718-1.718-1.718c-0.949,0-1.718,0.769-1.718,1.718
	C183.43,205.854,184.199,206.623,185.148,206.623z M230.674,168.827c0,0.949,0.769,1.718,1.718,1.718
	c0.949,0,1.718-0.769,1.718-1.718c0-0.949-0.769-1.718-1.718-1.718C231.443,167.109,230.674,167.879,230.674,168.827z
	 M262.886,99.25c1.186,0,2.147-0.962,2.147-2.147c0-1.186-0.961-2.147-2.147-2.147s-2.147,0.961-2.147,2.147
	C260.739,98.288,261.7,99.25,262.886,99.25z M206.404,103.738c1.07,0,1.937-0.867,1.937-1.937c0-1.07-0.867-1.937-1.937-1.937
	s-1.937,0.867-1.937,1.937C204.467,102.871,205.334,103.738,206.404,103.738z M336.759,40.839c-0.712,0-1.288,0.577-1.288,1.288
	c0,0.712,0.577,1.288,1.288,1.288c0.712,0,1.288-0.577,1.288-1.288C338.047,41.416,337.47,40.839,336.759,40.839z M328.598,60.596
	c0.474,0,0.859-0.385,0.859-0.859s-0.385-0.859-0.859-0.859c-0.474,0-0.859,0.385-0.859,0.859S328.124,60.596,328.598,60.596z
	 M357.804,135.327c-0.474,0-0.859,0.384-0.859,0.859c0,0.474,0.385,0.859,0.859,0.859s0.859-0.385,0.859-0.859
	C358.663,135.712,358.278,135.327,357.804,135.327z M279.931,62.313c0.474,0,0.859-0.384,0.859-0.859
	c0-0.474-0.385-0.859-0.859-0.859c-0.474,0-0.859,0.384-0.859,0.859C279.072,61.929,279.457,62.313,279.931,62.313z M441.984,52.006
	c-0.949,0-1.718,0.769-1.718,1.718c0,0.949,0.769,1.718,1.718,1.718c0.949,0,1.718-0.769,1.718-1.718
	C443.702,52.775,442.933,52.006,441.984,52.006z M466.036,183.43c-0.474,0-0.859,0.385-0.859,0.859c0,0.475,0.385,0.859,0.859,0.859
	s0.859-0.385,0.859-0.859C466.895,183.815,466.51,183.43,466.036,183.43z M550.646,260.739c-0.712,0-1.289,0.577-1.289,1.288
	c0,0.712,0.577,1.289,1.289,1.289c0.711,0,1.288-0.577,1.288-1.289C551.934,261.316,551.357,260.739,550.646,260.739z
	 M111.276,189.443c-0.949,0-1.718,0.769-1.718,1.718c0,0.949,0.769,1.718,1.718,1.718c0.949,0,1.718-0.769,1.718-1.718
	C112.994,190.212,112.224,189.443,111.276,189.443z M56.301,186.866c0-0.474-0.385-0.859-0.859-0.859
	c-0.474,0-0.859,0.385-0.859,0.859c0,0.474,0.385,0.859,0.859,0.859C55.916,187.725,56.301,187.34,56.301,186.866z M60.596,149.071
	c-0.949,0-1.718,0.769-1.718,1.718c0,0.949,0.769,1.718,1.718,1.718c0.949,0,1.718-0.769,1.718-1.718
	C62.314,149.84,61.544,149.071,60.596,149.071z M154.225,301.111c0,0.949,0.769,1.718,1.718,1.718s1.718-0.769,1.718-1.718
	c0-0.949-0.769-1.718-1.718-1.718S154.225,300.162,154.225,301.111z M212.206,259.88c0.712,0,1.288-0.577,1.288-1.289
	c0-0.712-0.577-1.288-1.288-1.288c-0.712,0-1.288,0.577-1.288,1.288C210.918,259.303,211.495,259.88,212.206,259.88z
	 M437.689,215.212c-0.474,0-0.859,0.385-0.859,0.859c0,0.474,0.385,0.859,0.859,0.859c0.474,0,0.859-0.385,0.859-0.859
	C438.548,215.597,438.164,215.212,437.689,215.212z M390.875,233.251c-0.712,0-1.289,0.577-1.289,1.288
	c0,0.712,0.577,1.288,1.289,1.288c0.712,0,1.288-0.577,1.288-1.288C392.163,233.828,391.586,233.251,390.875,233.251z
	 M526.165,169.686c-0.474,0-0.859,0.385-0.859,0.859c0,0.474,0.385,0.859,0.859,0.859c0.474,0,0.859-0.385,0.859-0.859
	C527.024,170.071,526.639,169.686,526.165,169.686z M440.892,83.396c-1.294,0-2.344,1.049-2.344,2.344
	c0,1.294,1.049,2.343,2.344,2.343c1.294,0,2.344-1.049,2.344-2.343C443.236,84.445,442.186,83.396,440.892,83.396z M382.714,122.05
	c-1.294,0-2.344,1.049-2.344,2.344c0,1.294,1.049,2.343,2.344,2.343c1.294,0,2.344-1.049,2.344-2.343
	C385.058,123.099,384.009,122.05,382.714,122.05z M472.908,65.749c-0.949,0-1.718,0.769-1.718,1.718
	c0,0.949,0.769,1.718,1.718,1.718c0.949,0,1.718-0.769,1.718-1.718C474.626,66.519,473.857,65.749,472.908,65.749z M354.368,79.493
	c-0.949,0-1.718,0.769-1.718,1.718s0.769,1.718,1.718,1.718c0.949,0,1.718-0.769,1.718-1.718S355.317,79.493,354.368,79.493z
	 M159.379,89.801c0.474,0,0.859-0.385,0.859-0.859c0-0.474-0.385-0.859-0.859-0.859c-0.475,0-0.859,0.385-0.859,0.859
	C158.52,89.416,158.904,89.801,159.379,89.801z M179.565,33.967c0.712,0,1.289-0.577,1.289-1.288c0-0.712-0.577-1.289-1.289-1.289
	c-0.711,0-1.288,0.577-1.288,1.289C178.276,33.39,178.853,33.967,179.565,33.967z M255.155,9.057c-0.712,0-1.288,0.577-1.288,1.288
	c0,0.712,0.577,1.288,1.288,1.288c0.712,0,1.288-0.577,1.288-1.288C256.444,9.633,255.867,9.057,255.155,9.057z M325.163,25.377
	c0.949,0,1.718-0.769,1.718-1.718c0-0.949-0.769-1.718-1.718-1.718s-1.718,0.769-1.718,1.718
	C323.444,24.608,324.214,25.377,325.163,25.377z M174.411,136.186c0.712,0,1.289-0.577,1.289-1.288c0-0.712-0.577-1.288-1.289-1.288
	c-0.711,0-1.288,0.577-1.288,1.288C173.122,135.609,173.699,136.186,174.411,136.186z M136.616,160.238
	c1.186,0,2.148-0.961,2.148-2.147c0-1.186-0.962-2.147-2.148-2.147c-1.186,0-2.147,0.962-2.147,2.147
	C134.468,159.276,135.43,160.238,136.616,160.238z M501.254,213.495c0-0.949-0.769-1.718-1.718-1.718
	c-0.949,0-1.718,0.769-1.718,1.718c0,0.949,0.769,1.718,1.718,1.718C500.485,215.212,501.254,214.443,501.254,213.495z
	 M548.498,191.161c0-0.949-0.769-1.718-1.718-1.718c-0.949,0-1.718,0.769-1.718,1.718c0,0.949,0.769,1.718,1.718,1.718
	C547.729,192.879,548.498,192.11,548.498,191.161z M57.589,253.008c-1.186,0-2.148,0.962-2.148,2.148s0.962,2.147,2.148,2.147
	c1.186,0,2.147-0.961,2.147-2.147S58.775,253.008,57.589,253.008z M5.477,263.866c-1.977,0-3.58,1.603-3.58,3.58
	s1.603,3.58,3.58,3.58s3.58-1.603,3.58-3.58S7.454,263.866,5.477,263.866z M241.39,259.775L211.6,284.95l-1.871,5.148l-11.148,4.905
	l10.702,2.676c0,0-8.027,26.756-46.392,30.004c-4.521,5.16-7.297,9.158-13.362,19.94c-3.423,6.085-8.773,9.142-14.259,10.561
	c-0.08,0.021-0.161,0.04-0.241,0.06c-0.846,0.211-1.693,0.388-2.537,0.527c-9.1,1.499-17.745-0.892-17.745-0.892
	c6.421,12.427,14.86,14.459,22.059,13.077c0.244-0.047,0.485-0.102,0.727-0.157c1.402-0.316,2.749-0.752,4.021-1.262
	c5.947-2.388,10.205-6.307,10.205-6.307c0.891,3.265-2.757,9.283-5.3,12.951c-1.277,1.842-2.28,3.102-2.28,3.102l0.432,28.092
	l4.872-1.755c-1.574-3.627-0.621-12.7,1.6-19.386c1.443-4.343,3.419-7.676,5.582-7.843c5.797-0.446,13.824-11.594,13.824-11.594
	l-3.568,7.581l-0.871,25.275l6.419-2.312l-1.089-2.449c-4.013-6.689,4.459-19.844,4.459-19.844
	c10.256-4.236,12.04-17.391,12.04-17.391c11.148-6.466,9.208-1.013,15.729-0.816c-0.345,9.74,0.297,23.319,0.611,29.063l3.635-1.309
	c0.844-7.393,3.537-30.38,4.426-30.728c0.572-0.224,2.345-0.48,2.872-0.739c0.034,8.922,0.5,22.339,0.735,28.573l3.448-1.242
	c0.231-6.321,0.906-21.725,2.291-32.253c4.422-4.962,5.495-9.278,5.495-9.278l0.446,4.459c14.27-17.614,12.04-44.37,12.04-44.37
	c-4.459-11.594,3.568-31.661,3.568-31.661L241.39,259.775z M329.455,509.852h-17.82c-1.199,0-2.171-0.876-2.171-1.957
	c0-1.081,0.972-1.957,2.171-1.957h14.132c-5.54-3.593-16.219-6.027-28.487-6.027c-8.839,0-16.851,1.265-22.713,3.315h9.992
	c1.199,0,2.171,0.876,2.171,1.957c0,1.081-0.972,1.957-2.171,1.957h-17.375c-0.666,0.581-1.202,1.187-1.601,1.811h6.608
	c1.199,0,2.171,0.876,2.171,1.957c0,1.081-0.972,1.957-2.171,1.957h-7.231c0.363,1.166,1.204,2.281,2.456,3.317h22.491
	c1.199,0,2.171,0.876,2.171,1.957s-0.972,1.957-2.171,1.957h-14.76c5.806,1.933,13.582,3.117,22.133,3.117
	c11.125,0,20.932-2.004,26.797-5.056c0.298-0.155,0.596-0.311,0.873-0.472h-9.304c-1.199,0-2.171-0.876-2.171-1.957
	s0.972-1.957,2.171-1.957h13.569c0.384-0.716,0.592-1.454,0.592-2.21C329.807,510.992,329.46,509.863,329.455,509.852z"></path>
<path id="color_x5F_3_34_" fill="#19123B" d="M44.872,443.304l49.11-17.691v-96.03l5.445-5.366l7.081-7.081l4.283-4.283v-6.25
	l-16.809,10.48v-85.092l16.809-16.73v-6.25l-16.809,10.48V134.4l16.809-16.73v-6.25L93.983,121.9V80.607
	c-9.282,8.714-18.016,18.003-26.121,27.835v67.245l-14.578-8.329v6.25l14.578,14.578v85.092l-14.578-8.329v6.25l14.578,14.578
	v66.989l-3.414,11.256l-1.514-12.585l-0.647,5.309l-3.222-16.371l-1.263,6.037l-1.178-9.792l-1.446,11.859l-2.045-11.057
	l3.104-3.104v-6.25l-16.809,10.48v-85.092l16.809-16.73v-6.25l-16.809,10.48v-85.092l16.809-16.73v-6.25l-10.877,6.782
	c-13.556,21.603-24.426,45.061-32.115,69.922l0.062,0.062v85.092L0.2,287.255c-0.077,2.236-0.127,4.479-0.154,6.727l13.26,13.26
	v46.137l-0.746,3.145l-0.915-7.504l-3.302,18.792c1.475,6.101,3.119,12.135,4.964,18.083c6.48,20.898,15.202,40.809,25.882,59.456
	l0.238-0.086v-94.217l5.445-5.366V443.304z M50.076,340.479l-1.379,4.125l-0.457-2.289L50.076,340.479z M108.916,320.152
	c0.745,4.841,4.58,29.841,8.372,31.527h-5.047c2.244,12.181,5.674,25.926,9.947,27.825h-7.039
	c2.874,14.856,7.01,30.539,12.074,34.031c3.809-5.833,7.355-31.165,7.407-31.23h0.318c0.044,0.053,2.459,17.27,5.439,26.592
	l-40.96,14.755v-31.914c0.982-3.963,1.881-8.122,2.677-12.234h-2.677v-6.262c2.277-5.563,4.168-13.87,5.585-21.563h-5.047
	c3.004-1.335,6.035-17.301,7.536-26.287c0.595-3.563,0.95-6.032,0.966-6.052h0.318C108.791,319.346,108.836,319.637,108.916,320.152
	z M44.872,330.686l0.663-1.907l0.752,3.767l-1.416,0.637V330.686z M6.543,358.615l0.357,2.929c-0.153-0.699-0.309-1.398-0.457-2.099
	L6.543,358.615z M573.791,408.829c-9.369,23.246-21.585,45.034-36.221,64.938h-279.3l0.948-7.881l0.915,7.503l2.465-10.386
	l1.871,10.072l1.552-12.906l1.228,10.065l3.154-11.816l3.722,11.822l3.042-18.485l2.995,13.484l2.187-18.187l2.085,17.092
	l2.748-13.123l1.073,8.797l2.763-12.411l2.015,8.563l1.772-14.731l1.738,14.249l2.967-17.327l1.706,13.986l1.73-10.052l0.989,8.108
	l2.46-15.885l1.402,11.492l1.506-12.523l1.467,12.03l1.466-10.578l1.762,8.27l1.595-13.259l1.556,11.007l2.97-12.684l0.375-1.603
	l0.949,4.051l1.538,6.565l1.026-4.973l0.779-3.778l0.853,6.995l0.124,1.013l0.141-0.491l3.062-10.616l2.071,5.746l2.288,6.347
	l1.728-6.042l1.685-5.891l0.41,3.364l1.228,10.067l1.127-9.374l0.202-1.684l0.099,0.815l1.471,12.061l1.439-11.751l2.741,16.097
	l1.887-9.345l0.967,7.931l2.3-9.217l2.323,8.552l2.348-7.654l1.195,9.8l1.352-11.242l1.536,12.59l2.198-8.663l2.641,12.462
	l2.835-10.69l2.305,9.86l1.073-8.923l1.454,14.041l3.066-10.65l2.571,14.032l2.899-12.885l2.718,10.574l1.465-12.179l1.439,11.796
	l1.589-13.214l1.741,14.273l1.244-10.343l1.397,11.456l2.419-10.753l1.158,5.567l1.061-8.818l2.518,12.626l1.393-11.582l0.941,7.716
	l2.755-10.341l3.035,13.046l1.552-12.906l1.228,10.065l1.9-15.799l1.801,14.765l1.514-12.586l1.662,13.626l2.211-18.385
	l1.488,12.201l1.089-9.052l3.082,9.75l2.147-17.394l2.577,14.173l2.931-13.316l1.74,13.745l0.765-13.184l1.651,8.352l0.998-15.892
	l2.155,17.664l0.06-0.037l2.49-20.705l1.968,16.137l4.916-19.98l1.402,11.492l1.506-12.523l1.738,18.69l1.195-17.238l1.388,11.378
	l1.968-16.367l1.45,11.887l1.795-14.925l1.59,13.035l1.429-11.883l3.182,18.457l1.937-14.004l2.398,14.436l1.552-12.639
	l1.228,10.276l1.9-15.473l1.801,15.075l1.513-12.325l1.662,13.912l2.211-18.005l1.488,12.457l1.089-8.865l1.69,12.756l1.746-20.117
	l2.27,19.003l1.279-10.417l0.404,3.379l0.88-7.165l1.073,8.982l1.395-11.361l2.065,12.22l3.089-18.311l2.183,18.269l2.522-20.537
	l1.968,16.475l1.468-11.95l1.266,10.593l2.183-17.776l1.402,11.733l1.506-12.264l1.565,13.1l1.368-11.143l1.388,11.616l1.968-16.028
	l1.45,12.136l0.806-6.561l0.989-8.055l0.518,2.703l1.447,7.553l0.79-6.433l0.264-2.151l0.388,2.536l1.523,9.946l2.899-15.408
	l3.556,13.855l0.001,0l1.2-10.184l0.25-2.12l1.2,9.636l0.156,1.253c0.408-0.151,2.557-7.711,2.557-7.711l0.829,6.938
	c0.148-0.014,1.021-5.209,1.386-7.414c0.098-0.592,0.161-0.981,0.161-0.981l0.461,3.047l0.816,5.393
	c0.217,0.026,1.63-8.248,1.63-8.248l1.106,8.878l2.245-4.451l0.966,9.18l2.567-11.752l1.499,12.031l3.206-10.311l1.772,14.219
	l2.07-8.858l2.708,11.328l1.073-9.107l1.676,13.449l3.157-18.813L573.791,408.829z M210.54,509.703l6.979-8.973l15.404-5.583
	v-22.783l6.979-8.973l15.405-5.583v-22.783l6.979-8.973l15.405-5.583v-22.783l6.979-8.973l15.405-5.583v-25.3L42.325,450.68
	c6.721,11.188,14.156,21.896,22.243,32.064l123.155-44.364v31.744l-6.979,2.529v-25.3l-112.12,40.389
	c22.126,26.625,48.809,49.321,78.849,66.91l63.066-22.718V509.703z M142.957,544.801l-6.979,2.529v-22.783l6.979-8.973V544.801z
	 M165.34,507.463l-6.979,2.529v-22.783l6.979-8.973V507.463z M154.429,558.605l100.954-36.366v25.3l-15.405,5.583l-6.979,8.973
	v22.783l-5.616,2.035C201.59,580.671,177.109,571.077,154.429,558.605z"></path>
<path id="color_x5F_2_34_" fill="#463B91" d="M496.708,178.043h67.809c1.825,0,3.372-1.631,3.988-3.919
	c-1.268-2.777-2.586-5.525-3.937-8.256c-0.018,0-0.034-0.007-0.051-0.007h-1.419c-1.091,0-1.976-1.259-1.976-2.812
	c0-0.959,0.339-1.804,0.854-2.311c-2.226-4.29-4.554-8.518-6.98-12.682h-23.678c-2.364,0-4.281,2.727-4.281,6.091
	c0,3.364,1.917,6.091,4.281,6.091h7.939c1.091,0,1.976,1.259,1.976,2.812c0,1.553-0.885,2.812-1.976,2.812h-42.549
	c-2.364,0-4.281,2.727-4.281,6.091C492.427,175.316,494.344,178.043,496.708,178.043z M526.165,169.686
	c0.474,0,0.859,0.385,0.859,0.859c0,0.474-0.385,0.859-0.859,0.859c-0.474,0-0.859-0.385-0.859-0.859
	C525.306,170.071,525.69,169.686,526.165,169.686z M106.168,211.093l-6.74,3.033v-9.456h2.482c2.364,0,4.281,2.727,4.281,6.091
	C106.191,210.875,106.172,210.981,106.168,211.093z M9.581,222.476h3.726v12.182H6.699C7.58,230.567,8.533,226.503,9.581,222.476z
	 M44.872,204.671h22.99v12.182h-8.544c-1.091,0-1.976,1.259-1.976,2.812c0,1.553,0.885,2.812,1.976,2.812h1.419
	c2.364,0,4.281,2.727,4.281,6.091c0,3.364-1.917,6.091-4.281,6.091h-4.5v-4.181l-9.292,4.181h-2.072V204.671z M273.624,33.468
	h67.809c2.364,0,4.281-2.727,4.281-6.091c0-3.364-1.917-6.091-4.281-6.091h-1.419c-1.091,0-1.976-1.259-1.976-2.812
	c0-1.553,0.885-2.812,1.976-2.812h42.592c1.364,0,2.565-0.924,3.349-2.338c-13.823-4.289-28.078-7.597-42.683-9.844h-35.038
	c-2.364,0-4.281,2.727-4.281,6.091c0,3.364,1.917,6.091,4.281,6.091h7.939c1.091,0,1.976,1.259,1.976,2.812
	c0,1.553-0.885,2.812-1.976,2.812h-42.549c-2.364,0-4.281,2.727-4.281,6.091C269.342,30.741,271.259,33.468,273.624,33.468z
	 M325.163,21.941c0.949,0,1.718,0.769,1.718,1.718c0,0.949-0.769,1.718-1.718,1.718s-1.718-0.769-1.718-1.718
	C323.444,22.71,324.214,21.941,325.163,21.941z M192.326,246.008h-1.508c-1.111,0-2.011-0.901-2.011-2.011
	c0-1.111,0.9-2.011,2.011-2.011h48.712c16.731,10.861,36.674,17.193,58.107,17.193c20.714,0,40.039-5.91,56.416-16.109
	c0.866,0.51,1.837,0.804,2.868,0.804h102.865c3.587,0,6.494-3.466,6.494-7.741s-2.908-7.741-6.494-7.741h-2.152
	c-1.656,0-2.998-1.6-2.998-3.573c0-1.973,1.342-3.573,2.998-3.573h64.612c3.587,0,6.494-3.466,6.494-7.741s-2.908-7.741-6.494-7.741
	H409.426c-3.587,0-6.494,3.466-6.494,7.741s2.908,7.741,6.494,7.741h12.043c1.656,0,2.998,1.6,2.998,3.573
	c0,1.974-1.342,3.573-2.998,3.573h-48.793c12.283-12.111,21.653-27.166,26.952-44.029h46.034c2.565,0,4.645-2.083,4.645-4.651
	s-2.079-4.651-4.645-4.651h-42.476c-0.384,0-0.741-0.117-1.037-0.316c0.239-1.116,0.446-2.242,0.65-3.371
	c0.125-0.027,9.201-0.042,9.201-0.042c2.565,0,4.645-1.605,4.645-4.651c0-3.046-2.079-4.651-4.645-4.651h-0.969
	c-1.19,0-2.155-0.966-2.155-2.158c0-1.192,0.965-2.158,2.155-2.158h55.345c2.565,0,4.645-2.082,4.645-4.651s-2.08-4.651-4.645-4.651
	h-61.942c-0.491-13.753-3.571-26.841-8.782-38.795h-33.05c8.063,12.25,12.768,26.907,12.768,42.669c0,3.303-0.23,6.55-0.629,9.744
	h-36.311c-2.565,0-4.645,2.083-4.645,4.651c0,2.569,2.08,4.651,4.645,4.651h34.581c-0.317,1.26-0.664,2.507-1.042,3.741
	c-2.507,0.067-4.522,2.112-4.522,4.639c0,1.368,0.601,2.586,1.54,3.438c-11.944,27.572-39.388,46.868-71.349,46.868
	c-42.93,0-77.732-34.802-77.732-77.732c0-2.556,0.132-5.081,0.373-7.574h56.8c4.217,0,7.636-3.419,7.636-7.636
	c0-4.217-3.419-7.636-7.636-7.636h-53.755c9.758-31.78,39.335-54.886,74.314-54.886c22.282,0,42.359,9.39,56.532,24.411h32.54
	c1.199,0,2.194-0.859,2.412-1.994c-0.583-0.962-1.202-1.899-1.814-2.841c-0.192-0.048-0.39-0.082-0.598-0.082h-1.765
	c-2.941,0-5.326-2.385-5.326-5.326c0-1.316,0.496-2.505,1.287-3.434c-19.594-24.321-49.605-39.896-83.268-39.896
	c-30.546,0-58.078,12.834-77.559,33.378h21.907c1.891,0,3.424,1.533,3.424,3.424s-1.533,3.424-3.424,3.424h-27.875
	c-10.066,12.595-17.341,27.509-20.894,43.822h-48.792c-4.217,0-7.636,3.419-7.636,7.636c0,4.217,3.419,7.636,7.636,7.636h14.16
	c1.947,0,3.525,1.578,3.525,3.525c0,1.947-1.578,3.525-3.525,3.525H99.428v15.272h92.353c3.645,26.4,16.925,49.708,36.184,66.282
	h-17.481c-0.96,0-1.738-0.778-1.738-1.738c0-0.96,0.778-1.738,1.738-1.738h1.177c2.394,0,4.335-1.941,4.335-4.335
	c0-2.394-1.941-4.335-4.335-4.335h-68.67c-2.394,0-4.335,1.941-4.335,4.335c0,2.394,1.941,4.335,4.335,4.335h39.646
	c0.96,0,1.738,0.778,1.738,1.738c0,0.96-0.778,1.738-1.738,1.738h-8.227c-2.394,0-4.335,1.496-4.335,4.335s1.941,4.335,4.335,4.335
	h0.904c1.111,0,2.011,0.901,2.011,2.011c0,1.111-0.9,2.011-2.011,2.011h-51.659c-2.394,0-4.335,1.941-4.335,4.335
	c0,2.394,1.941,4.335,4.335,4.335h68.67c2.394,0,4.335-1.941,4.335-4.335C196.661,247.949,194.72,246.008,192.326,246.008z
	 M499.536,211.777c0.949,0,1.718,0.769,1.718,1.718c0,0.949-0.769,1.718-1.718,1.718c-0.949,0-1.718-0.769-1.718-1.718
	C497.818,212.546,498.587,211.777,499.536,211.777z M437.689,215.212c0.474,0,0.859,0.385,0.859,0.859
	c0,0.474-0.384,0.859-0.859,0.859c-0.474,0-0.859-0.385-0.859-0.859C436.83,215.597,437.215,215.212,437.689,215.212z
	 M390.875,233.251c0.712,0,1.288,0.577,1.288,1.288c0,0.712-0.577,1.288-1.288,1.288c-0.712,0-1.289-0.577-1.289-1.288
	C389.586,233.828,390.163,233.251,390.875,233.251z M382.714,122.05c1.294,0,2.344,1.049,2.344,2.344
	c0,1.294-1.049,2.343-2.344,2.343c-1.294,0-2.344-1.049-2.344-2.343C380.371,123.099,381.42,122.05,382.714,122.05z M369.4,202.328
	c0.711,0,1.288,0.577,1.288,1.288c0,0.712-0.577,1.288-1.288,1.288c-0.712,0-1.289-0.577-1.289-1.288
	C368.112,202.905,368.689,202.328,369.4,202.328z M326.451,241.411c0.712,0,1.289,0.577,1.289,1.288
	c0,0.712-0.577,1.288-1.289,1.288c-0.711,0-1.288-0.577-1.288-1.288C325.163,241.988,325.739,241.411,326.451,241.411z
	 M354.368,79.493c0.949,0,1.718,0.769,1.718,1.718s-0.769,1.718-1.718,1.718c-0.949,0-1.718-0.769-1.718-1.718
	S353.419,79.493,354.368,79.493z M328.598,58.877c0.474,0,0.859,0.385,0.859,0.859s-0.385,0.859-0.859,0.859
	c-0.474,0-0.859-0.385-0.859-0.859S328.124,58.877,328.598,58.877z M279.931,60.596c0.474,0,0.859,0.384,0.859,0.859
	c0,0.474-0.385,0.859-0.859,0.859c-0.474,0-0.859-0.384-0.859-0.859C279.072,60.98,279.457,60.596,279.931,60.596z M206.404,99.864
	c1.07,0,1.937,0.867,1.937,1.937c0,1.07-0.867,1.937-1.937,1.937s-1.937-0.867-1.937-1.937
	C204.467,100.731,205.334,99.864,206.404,99.864z M136.616,160.238c-1.186,0-2.147-0.961-2.147-2.147
	c0-1.186,0.962-2.147,2.147-2.147c1.186,0,2.148,0.962,2.148,2.147C138.763,159.276,137.802,160.238,136.616,160.238z
	 M174.411,136.186c-0.711,0-1.288-0.577-1.288-1.288c0-0.712,0.577-1.288,1.288-1.288c0.712,0,1.289,0.577,1.289,1.288
	C175.699,135.609,175.122,136.186,174.411,136.186z M222.084,204.905c-0.474,0-0.859-0.384-0.859-0.859
	c0-0.474,0.385-0.859,0.859-0.859c0.474,0,0.859,0.385,0.859,0.859C222.943,204.52,222.559,204.905,222.084,204.905z M277.918,242.7
	c0.949,0,1.718,0.769,1.718,1.718s-0.769,1.718-1.718,1.718c-0.949,0-1.718-0.769-1.718-1.718S276.97,242.7,277.918,242.7z
	 M10.815,328.41l2.492-13.175v38.145l-0.746,3.145l-0.915-7.504l-3.302,18.792c-0.503-2.081-0.984-4.171-1.443-6.269l-0.357-2.929
	l-0.1,0.829c-1.943-9.2-3.455-18.558-4.527-28.051l0.34-2.602l2.928,10.467l1.552-12.906l1.228,10.065l1.9-15.799L10.815,328.41z
	 M103.509,309.881l-4.082,1.837v-14.321l0.323-1.247l1.597,10.873l0.915-7.504L103.509,309.881z M62.472,263.581l1.664,7.568
	l-3.787-2.163L62.472,263.581z M146.458,376.182c-1.277,1.842-2.28,3.102-2.28,3.102l0.432,28.092l-4.222,1.521
	c-2.98-9.322-5.395-26.539-5.439-26.592h-0.318c-0.053,0.065-3.598,25.396-7.407,31.23c-5.064-3.492-9.2-19.175-12.074-34.031h7.039
	c-4.273-1.899-7.703-15.643-9.947-27.825h5.047c-3.793-1.686-7.628-26.686-8.372-31.527l0.929-3.815l0.879,9.031l2.655-7.664
	l1.317,10.954l3.363,7.687l2.738-12.277l1.597,12.591l0.915-7.503l2.998,24.931l1.358-11.132l1.177,9.792l1.617-6.989l2.031,13.014
	c-9.1,1.499-17.745-0.892-17.745-0.892c6.421,12.427,14.86,14.459,22.059,13.077l0.248,2.06l0.479-2.217
	c1.402-0.316,2.749-0.752,4.021-1.262l0.904,4.253l2.626-5.122L146.458,376.182z M160.116,391.432l1.675,9.755l-12.31,4.434
	c-1.574-3.627-0.621-12.7,1.6-19.386l1.171,8.172l2.688-10.21l4.26,14.739L160.116,391.432z M48.239,342.315l1.836-1.836
	l-1.379,4.125L48.239,342.315z M99.428,379.503h2.677c-0.796,4.112-1.695,8.271-2.677,12.234V379.503z M66.817,269.218l0.447,3.718
	l-1.268-0.725L66.817,269.218z M57.733,275.649l10.129,10.129v66.989l-3.414,11.256l-1.514-12.585l-0.647,5.309l-3.222-16.371
	l-1.263,6.037l-1.178-9.792l-1.446,11.859l-2.045-11.057l3.104-3.104v-6.25l-9.948,4.477l-0.752-3.767l-0.663,1.907v-43.205
	l2.787-11.101l2.106,12.227l5.082-14.807l0.856,7.017L57.733,275.649z M99.966,351.678h5.047c-1.417,7.693-3.308,16-5.585,21.563
	v-49.024l7.081-7.081l0.993,8.255C106.001,334.378,102.97,350.343,99.966,351.678z M135.153,357.217l0.116,0.966
	c-0.08,0.021-0.161,0.04-0.241,0.06L135.153,357.217z M595.276,297.638c0,22.269-2.465,43.959-7.102,64.831l-0.645-2.372
	l-3.18,13.863l-1.488-7.785l-2.211,11.73l-4.977-10.084l-1.9,10.08l-1.228-6.421l-1.552,8.234l-1.446-7.566l-2.889,7.766
	l-0.915-4.787l-4.4,13.723l-1.677-6.782l-1.325,7.027l-2.549-3.991l-2.003,5.469l-1.311-6.859l-2.035,9.374l-2.43-4.795
	l-1.876,8.258l-0.461-3.047c0,0-0.063,0.389-0.161,0.981l-2.197-8.087l-2.731,15.021l-1.2-9.636l-0.25,2.12l-0.384-2.028
	l-1.488,7.784l-3.18-13.863l-4.128,9.897l-0.388-2.536l-0.264,2.151l-1.233-6.448l-1.004,5.328l-0.518-2.703l-0.989,8.055
	l-3.073-9.855l-2.526,5.714l-0.993-5.267l-0.915,4.787l-2.348-6.311l-1.988,6.111l-1.552-8.234l-1.228,6.422l-4.167-15.653
	l-0.915,4.787l-1.408-6.878l-2.928,6.678l-1.552-8.234l-1.228,6.422l-1.9-10.08l-0.95,4.971l-2.609-8.799l-1.592,3.715l-1.178-6.247
	l-1.446,7.566l-1.552-8.234l-1.228,6.422l-1.9-10.08l-1.408,7.367l-3.654-9.277l-3.463,7.257l-1.783-9.458l-1.399,7.321
	l-3.702-13.442l-0.915,4.787l-2.889-7.767l-1.447,7.566l-4.68-11.893l-2.106,7.801l-5.082-9.447l-0.856,4.477l-6.769-10.996
	l-2.621,7.606l-1.724-4.01l-1.089,5.775l-3.714-6.815l-3.161,10.096l-3.711-7.082l-2.77,9.555l-1.446-7.566l-1.178,6.247
	l-1.263-3.852l-3.223,10.445l-0.647-3.387l-1.514,8.03l-3.85-8.1l-2.63,10.573l-2.738-6.737l-1.597,6.937l-0.915-4.787l-2.313,12.27
	l-1.071-5.601l-1.9,10.08l-2.297-6.02l-0.879,5.762l-2.655-4.889l-1.317,6.989l-3.363,4.904l-2.738-7.833l-1.597,8.033l-0.915-4.787
	l-2.998,15.906l-1.358-7.103l-1.178,6.247l-1.617-4.459l-3.419,13.977l-1.274-6.665l-1.9,10.08l-2.64-7.802l-2.764,8.295
	l-2.627-3.268l-3.888,13.565l-1.214-6.348l-2.068,9.204l-2.688-6.514l-4.26,9.404l-0.915-4.787l-3.072,11.416l-1.545,1.344
	l-1.589-3.127l-0.577,3.824l-0.099-0.815l-0.202,1.684l-0.993-5.193l-1.363,4.5l-0.41-3.364l-1.685,5.891l-2.187-5.978l-1.829,5.674
	l-2.071-5.746l-3.062,10.616l-0.265-0.522l-0.853-6.995l-0.779,3.778l-2.084-4.106l-0.48,2.514l-0.949-4.051l-0.375,1.603
	l-0.104-0.551l-0.717,3.753l-1.178-6.247l-1.421,7.433l-0.056-0.026l-1.522-8.075l-1.02,5.336l-1.197-6.347l-0.207,1.086
	l-0.704-3.733l-0.708,3.702l-0.29-1.539l-0.717,3.753l-1.178-6.247l-0.376,1.966l-0.046-0.244l-1.071,5.6l-1.506-7.99l-0.591,3.093
	l-0.705-3.74l-0.636,3.328l-1.195-6.34l-1.763,9.22l-0.083-0.039l-1.469-7.791l-0.299,1.567l-0.567-3.009l-1.363,7.127l-1.644-8.721
	l-1.465,7.664l-0.05-0.023l-1.062-5.632l-0.094,0.494l-0.279-1.457l-1.027,5.451l-0.255-0.119l-1.78-9.442l-2.161,11.302
	l-0.789-4.128l-1.498,7.946l-1.205,1.211l-1.17-6.12l-1.514,8.03l-1.801-9.42l-1.9,10.08l-1.228-6.422l-1.075,5.702l-0.092-0.48
	l-0.477,2.533l-1.355-7.086l-1.178,6.247l-0.717-3.753l-0.994,5.272l-0.915-4.787l-1.569,8.324l-0.526-2.751l-1.24,6.578
	l-0.263-1.377l-0.166,0.879l-0.53-2.773l-0.494,2.623l-0.434-2.271l-1.24,6.578l-0.263-1.377l-0.312,1.656l-0.379-1.982v-15.51
	l22.383-8.112v-21.268l4.271,13.19l1.703-11.672l1.228,10.065l3.443-16.738l2.914,12.488l2.73-14.13l1.088,8.921l0.783-8.138
	l1.589,4.902l1.544-2.107l3.073-17.893l0.915,7.503l4.26-14.739l2.688,10.21l2.068-14.426l1.214,9.95l3.888-21.262l2.626,5.122
	l2.764-13.001l2.64,12.228l1.9-15.799l1.274,10.447l3.419-21.908l1.617,6.989l1.178-9.791l1.358,11.132l2.998-24.931l0.915,7.503
	l1.597-12.591l2.738,12.277l3.363-7.687l1.317-10.954l2.655,7.664l0.879-9.031l2.297,9.436l1.9-15.799l1.071,8.779l2.313-19.232
	l0.915,7.504l1.597-10.873l2.738,10.559l2.63-16.572l3.85,12.696l1.514-12.586l0.648,5.309l3.222-16.371l1.263,6.037l1.178-9.792
	l1.447,11.859l2.77-14.976l3.711,11.1l3.161-15.825l3.714,10.681l1.089-9.052l1.724,6.285l2.621-11.922l6.769,17.235l0.856-7.016
	l5.082,14.807l2.106-12.226l4.68,18.64l1.447-11.859l2.889,12.173l0.915-7.503l3.702,21.069l1.4-11.475l1.783,14.824l3.463-11.375
	l3.654,14.54l1.409-11.548l1.9,15.799l1.228-10.065l1.552,12.906l1.447-11.859l1.178,9.792l1.592-5.822l2.609,13.791l0.95-7.792
	l1.9,15.799l1.228-10.065l1.552,12.906l2.928-10.467l1.408,10.781l0.915-7.504l4.167,24.535l1.228-10.065l1.552,12.906l1.988-9.578
	l2.348,9.892l0.915-7.503l0.993,8.255l2.526-8.956l3.384,17.006l2.201-18.3l1.488,12.201l4.524-17.004l3.18,21.728l1.488-12.201
	l1.82,15.078l2.744-23.663l2.792,16.106l1.904-13.135l2.43,7.516l2.035-14.692l1.311,10.751l2.003-8.572l2.549,6.255l1.325-11.014
	l1.677,10.63l4.4-21.509l0.915,7.504l2.889-12.173l1.446,11.859l1.552-12.906l1.228,10.065l1.9-15.8l4.977,15.805l2.211-18.386
	l1.488,12.201l3.18-21.728l2.587,14.91l0.849-6.958l1.089,9.052l1.488-12.201l2.201,18.3l1.672-13.541l1.078,8.966l2.161-14.457
	l2.906,10.229l0.994-8.263l0.718,5.882l1.178-9.792l1.446,11.859l3.067-17.431l2.226,3.813l1.654-13.757l0.915,7.504l1.647-13.45
	l2.688,13.136l1.552-12.906l1.228,10.065l2.851-8.008l0.271-12.81l2.219,7.223l2.011-8.473
	C594.379,271.105,595.276,284.266,595.276,297.638z M240.325,464.699l-0.261-1.365l0.556-0.202L240.325,464.699z M242.949,466.018
	l-0.667-3.488l1.422-0.515L242.949,466.018z M349.427,528.742c-0.022,0-0.044,0-0.073,0c-0.197,0-0.554,0-1.179,0
	c-2.444,0-2.435,2.162,0,2.162c2.435,0,10.573,0,15.86,0c1.499,0,2.438,0.78,2.822,1.759h8.269c0.385-0.979,1.324-1.759,2.821-1.759
	c1.499,0,2.437,0.78,2.822,1.759h17.656c3.658,0,6.623-2.965,6.623-6.623v0c0-1.449-0.479-2.778-1.268-3.869
	c-5.597,0-11.193,0-16.79,0c-1.985,0-2.987-1.366-3.018-2.754h-6.489c-0.045,1.913-1.935,3.785-5.681,2.095
	c-5.222,0.053-9.682,0.098-14.904,0.15c-3.529,1.421-5.293-0.394-5.329-2.245h-27.905c0.224,1.387,1.765,2.919-1.944,3.682
	c9.236,0,18.471,0,27.707,0C353.462,523.098,353.455,528.742,349.427,528.742z M362.384,523.098c4.035,0,4.028,5.644,0,5.644
	C358.349,528.742,358.356,523.098,362.384,523.098z M416.271,549.157h-71.659c2.404-1.169,4.009-3.724,3.706-6.642
	c-0.355-3.42-3.429-5.919-6.867-5.919h-11.208c-1.086,0-1.967-0.881-1.967-1.967c0-1.086,0.881-1.967,1.967-1.967h5.929
	c0.385-0.979,1.324-1.759,2.821-1.759c0.019,0,0.032,0,0.045,0c0.004,0,0.022,0,0.062,0c0.119,0,0.441,0,1.221,0
	c2.094,0,2.149-2.162,0-2.162c-2.149,0-16.424,0-18.858,0c-2.435,0-2.643,3.527,0,3.527c1.536,0,1.724,0,1.741,0
	c-0.001,0,0,0,0.003,0c0.009,0,0.049,0,0.205,0c4.065,0,4.028,5.728-0.091,5.643c-4.614,0-9.195,0-13.81,0
	c-4.138,0.097-4.166-5.643-0.103-5.643c1.401,0,1.761,0,4.203,0c2.442,0,2.358-3.527,0-3.527c-2.358,0-3.827,0-5.74,0
	c-2.404,0-3.361-2-2.901-3.619c-1.098,0.059-2.214,0.105-3.343,0.141c0.942,1.706,0.003,4.312-2.831,4.204
	c-0.926,0.617-1.545,1.03-2.471,1.647c-0.241,1.192-1.229,2.238-2.964,2.238c-1.298,0-2.597,0-3.896,0c-1.298,0-1.322,0.746,0,0.746
	c1.322,0,1.113,0,1.669,0c4.038,0,4.028,5.651-0.008,5.644c-9.599,0-19.17,0-28.764,0v5.268l-6.979,2.529l-6.353,2.302h47.515
	c-1.635,0.966-2.664,2.846-2.317,4.954c0.388,2.355,2.551,4.011,4.938,4.011h117.379c2.75,0,4.963-2.302,4.817-5.084
	C421.225,551.114,418.884,549.157,416.271,549.157z M282.23,546.93c-4.035,0-4.028-5.644,0-5.644
	C286.265,541.287,286.259,546.93,282.23,546.93z M311.022,546.93c-1.796,0-1.593,0-5.388,0s-3.996,3.943,0,3.943
	c3.996,0,3.986,5.641-0.031,5.641c-2.597,0-5.194,0-7.791,0c-4.024,0-4.026-5.641-0.031-5.641c3.995,0,4.066-3.943,0-3.943
	c-3.37,0-3.133,0-4.699,0c-4.035,0-4.028-5.644,0-5.644c5.98,0,11.96,0,17.94,0C315.057,541.287,315.05,546.93,311.022,546.93z
	 M262.362,531.513c0.829-1.017,0.829-2.546,0-3.563v-3.384c0.151,0,0.284,0,0.391,0c1.643,0,1.225,4.904,4.351,4.904
	c3.359,0,6.718,0,10.077,0c-0.649,1.656,0.289,3.881,2.823,3.881c0.536,0,0.432,0,1.607,0c1.175,0,1.955,0.746,0,0.746
	c-1.753,0-11.958,0-19.25,0V531.513z M231.288,524.46l-6.802,2.45c-1.639,0-3.34,0-5.071,0c-0.038-0.285-0.063-0.575-0.063-0.871v0
	c0-0.612,0.11-1.193,0.265-1.755c0.396,0.176,0.858,0.283,1.399,0.283c2.941,0,3.729-3.003,2.374-4.626
	c0.794-0.337,1.667-0.524,2.584-0.524h4.381C228.452,520.658,228.763,523.861,231.288,524.46z M322.494,572.772L322.494,572.772
	c0,3.109-2.52,5.63-5.629,5.63h-76.886v-11.259h76.886C319.974,567.142,322.494,569.663,322.494,572.772z M429.484,527.883h56.768
	c-4.758,3.902-9.643,7.653-14.64,11.259h-42.128c-3.109,0-5.629-2.521-5.629-5.63C423.854,530.403,426.375,527.883,429.484,527.883z
	 M481.023,498.619h36.135c-3.526,3.849-7.158,7.6-10.88,11.259h-25.255c-3.109,0-5.629-2.52-5.629-5.629
	S477.914,498.619,481.023,498.619z M438.695,485.305h89.95c-1.542,1.896-3.106,3.773-4.693,5.63h-85.257
	c-1.554,0-2.815-1.26-2.815-2.815S437.14,485.305,438.695,485.305z M309.815,487.473c-7.618,0-22.055,0-24.455,0
	c-2.4,0-2.296,3.495,0,3.495c2.296,0,2.156,0,2.435,0c0.704,0,1.278,0.179,1.736,0.463h17.963c0.479-0.732,1.33-1.262,2.561-1.262
	c9.646,0,19.292,0,28.938,0c4.035,0,4.028,5.644,0,5.644c-8.098,0-16.196,0-24.294,0v1.076c3.939,0.001,7.876,0.003,11.837,0.004
	c2.348-0.243,1.613,2.861,3.272,2.861c1.597,0,3.156,0,4.733,0c4.058,0,4.028,5.707-0.068,5.643c-0.542,0.476-0.797,0.7-1.339,1.176
	c0.134,1.492-0.867,3.082-3.007,3.082c-0.422,0-0.844,0-1.266,0c0.182,0.064,0.341,0.132,0.516,0.196h0.077
	c0.004,0.011,0.006,0.022,0.01,0.033c0.906,0.337,1.753,0.686,2.491,1.051c6.498,0,17.47,0,19.495,0c2.025,0,1.94-3.142,0-3.142
	c-1.94,0-1.628,0-2.442,0c-4.025,0-4.028-5.616-0.029-5.644c10.029,0,20.055,0,30.084,0c4.031,0.004,4.023,5.644-0.004,5.644
	c-5.287,0-13.008,0-15.86,0c-2.852,0-3.061,3.142,0,3.142c3.061,0,1.669,0,2.504,0c0.83,0,1.478,0.247,1.966,0.626h8.311
	c0.488-0.379,1.137-0.626,1.965-0.626c0.83,0,1.479,0.247,1.967,0.626h72.627c3.872,0,6.968-3.323,6.592-7.273
	c-0.328-3.443-3.417-5.972-6.876-5.972h-80.488c-1.901,0-3.442-1.541-3.442-3.442c0-1.901,1.541-3.442,3.442-3.442h7.672
	c2.118,0,4.016-1.586,4.127-3.701c0.118-2.256-1.676-4.121-3.906-4.121h-56.148c0.498,1.629-0.458,3.676-2.886,3.676
	c-2.432,0-3.385-2.047-2.885-3.676h-5.099C313.279,485.264,312.336,487.473,309.815,487.473z M353.461,490.17
	c4.035,0,4.028,5.644,0,5.644C349.426,495.813,349.433,490.17,353.461,490.17z M280.633,498.316h12.548
	c-0.325,0.719-0.57,1.438-1.271,1.438c-1.402,0-6.132,0-9.123,0C281.376,499.754,280.685,499.055,280.633,498.316z M240.299,493.274
	h-2.206l1.809-0.656v-7.166h11.879c0.748-1.115,2.06-1.843,3.486-1.843h19.861c-0.636,1.654,0.304,3.864,2.829,3.864
	c0.043,0,0.07,0,0.09,0c0.022,0,0.035,0,0.038,0c0.095,0,0.41,0,1.333,0c2.188,0,2.717,3.495,0,3.495c-2.716,0-15.654,0-23.481,0
	c-1.767,0-2.76,1.086-2.977,2.306h-6.705c-0.216-1.22-1.207-2.306-2.978-2.306C241.508,490.968,240.516,492.055,240.299,493.274z"></path>
<path id="color_x5F_1_33_" fill="#2E2475" d="M204.219,385.903l-31.751,11.438l-1.089-2.449c-4.013-6.689,4.459-19.844,4.459-19.844
	c10.256-4.236,12.04-17.391,12.04-17.391c11.148-6.466,9.208-1.013,15.729-0.816C203.263,366.58,203.904,380.159,204.219,385.903z
	 M44.872,234.658v0.932l2.072-0.932H44.872z M212.279,353.866c-0.889,0.348-3.581,23.335-4.426,30.728l8.033-2.894
	c-0.234-6.235-0.701-19.651-0.735-28.573C214.625,353.386,212.852,353.642,212.279,353.866z M387.308,94.129
	c0.612,0.942,1.231,1.879,1.814,2.841c0.029-0.151,0.047-0.305,0.047-0.464C389.168,95.355,388.375,94.397,387.308,94.129z
	 M59.318,216.853h8.544v56.426l-0.598-0.342l-0.447-3.718l-0.821,2.994l-1.86-1.062l-1.664-7.568l-2.123,5.405l-7.065-4.036v6.25
	l4.449,4.449l-2.03,5.168l-0.856-7.017l-5.082,14.807l-2.106-12.227l-2.787,11.101V248.09l11.364-11.364v-2.068h4.5
	c2.364,0,4.281-2.727,4.281-6.091c0-3.364-1.917-6.091-4.281-6.091h-1.419c-1.091,0-1.976-1.259-1.976-2.812
	C57.341,218.111,58.226,216.853,59.318,216.853z M59.737,255.155c0-1.186-0.961-2.148-2.147-2.148c-1.186,0-2.148,0.962-2.148,2.148
	s0.962,2.147,2.148,2.147C58.775,257.303,59.737,256.341,59.737,255.155z M47.005,137.039c6.391-9.954,13.359-19.502,20.857-28.597
	v67.245l-14.578-8.329v6.25l14.578,14.578v16.484h-22.99v-54.172l11.364-11.364v-6.25L47.005,137.039z M54.583,186.866
	c0,0.474,0.385,0.859,0.859,0.859c0.474,0,0.859-0.385,0.859-0.859c0-0.474-0.385-0.859-0.859-0.859
	C54.967,186.007,54.583,186.392,54.583,186.866z M58.878,150.789c0,0.949,0.769,1.718,1.718,1.718c0.949,0,1.718-0.769,1.718-1.718
	c0-0.949-0.769-1.718-1.718-1.718C59.647,149.071,58.878,149.84,58.878,150.789z M592.67,258.2l-2.011,8.473l-2.219-7.223
	l-0.271,12.81l-2.851,8.008l-1.228-10.065l-1.552,12.906l-2.688-13.136l-1.647,13.45l-0.915-7.504l-1.654,13.757l-2.226-3.813
	l-3.067,17.431l-1.446-11.859l-1.178,9.792l-0.718-5.882l-0.994,8.263l-2.906-10.229l-2.161,14.457l-1.078-8.966l-1.672,13.541
	l-2.201-18.3l-1.488,12.201l-1.089-9.052l-0.849,6.958l-2.587-14.91l-3.18,21.728l-1.488-12.201l-2.211,18.386l-4.977-15.805
	l-1.9,15.8l-1.228-10.065l-1.552,12.906l-1.446-11.859l-2.889,12.173l-0.915-7.504l-4.4,21.509l-1.677-10.63l-1.325,11.014
	l-2.549-6.255l-2.003,8.572l-1.311-10.751l-2.035,14.692l-2.43-7.516l-1.904,13.135l-2.792-16.106l-2.744,23.663l-1.82-15.078
	l-1.488,12.201l-3.18-21.728l-4.524,17.004l-1.488-12.201l-2.201,18.3l-3.384-17.006l-2.526,8.956l-0.993-8.255l-0.915,7.503
	l-2.348-9.892l-1.988,9.578l-1.552-12.906l-1.228,10.065l-4.167-24.535l-0.915,7.504l-1.408-10.781l-2.928,10.467l-1.552-12.906
	l-1.228,10.065l-1.9-15.799l-0.95,7.792l-2.609-13.791l-1.592,5.822l-1.178-9.792l-1.447,11.859l-1.552-12.906l-1.228,10.065
	l-1.9-15.799l-1.409,11.548l-3.654-14.54l-3.463,11.375l-1.783-14.824l-1.4,11.475l-3.702-21.069l-0.915,7.503l-2.889-12.173
	l-1.447,11.859l-4.68-18.64l-2.106,12.226l-5.082-14.807l-0.856,7.016l-6.769-17.235l-2.621,11.922l-1.724-6.285l-1.089,9.052
	l-3.714-10.681l-3.161,15.825l-3.711-11.1l-2.77,14.976l-1.447-11.859l-1.178,9.792l-1.263-6.037l-3.222,16.371l-0.648-5.309
	l-1.514,12.586l-3.85-12.696l-2.63,16.572l-2.738-10.559l-1.597,10.873l-0.915-7.504l-2.313,19.232l-1.071-8.779l-1.9,15.799
	l-2.297-9.436l-0.879,9.031l-2.655-7.664l-1.317,10.954l-3.363,7.687l-2.738-12.277l-1.597,12.591l-0.915-7.503l-2.998,24.931
	l-1.358-11.132l-1.178,9.791l-1.617-6.989l-3.419,21.908l-1.274-10.447l-1.9,15.799l-2.64-12.228l-2.764,13.001l-2.626-5.122
	l-3.888,21.262l-1.214-9.95l-2.068,14.426l-2.688-10.21l-4.26,14.739l-0.915-7.503l-3.073,17.893l-1.544,2.107l-1.589-4.902
	l-0.783,8.138l-1.088-8.921l-2.73,14.13l-2.914-12.488l-3.443,16.738l-1.228-10.065l-1.703,11.672l-4.271-13.19v-7.958l22.383-8.112
	V348.86l-87.718,31.598c0.231-6.321,0.906-21.725,2.291-32.253c4.422-4.962,5.495-9.278,5.495-9.278l0.446,4.459
	c14.27-17.614,12.04-44.37,12.04-44.37c-4.459-11.594,3.568-31.661,3.568-31.661l-1.784-7.581L211.6,284.95l-1.871,5.148
	l-11.148,4.905l10.702,2.676c0,0-8.027,26.756-46.392,30.004c-4.521,5.16-7.297,9.158-13.362,19.94
	c-3.423,6.085-8.773,9.142-14.259,10.561l-0.116-0.966l-0.125,1.026c-0.846,0.211-1.693,0.388-2.537,0.527l-2.031-13.014
	l-1.617,6.989l-1.177-9.792l-1.358,11.132l-2.998-24.931l-0.915,7.503l-1.597-12.591l-2.738,12.277l-3.363-7.687l-1.317-10.954
	l-2.655,7.664l-0.879-9.031l-0.929,3.815c-0.079-0.514-0.124-0.806-0.13-0.813h-0.318c-0.016,0.02-0.371,2.489-0.966,6.052
	l-0.993-8.255l4.283-4.283v-6.25l-7.282,3.277l-1.246-10.361l-0.915,7.504l-1.597-10.873l-0.323,1.247v-70.772l11.364-11.364v-6.25
	l-4.624,2.081c0.004-0.112,0.024-0.218,0.024-0.331c0-3.364-1.917-6.091-4.281-6.091h-2.482v-37.638h92.353
	c3.645,26.4,16.925,49.708,36.184,66.282h-17.481c-0.96,0-1.738-0.778-1.738-1.738c0-0.96,0.778-1.738,1.738-1.738h1.177
	c2.394,0,4.335-1.941,4.335-4.335c0-2.394-1.941-4.335-4.335-4.335h-68.67c-2.394,0-4.335,1.941-4.335,4.335
	c0,2.394,1.941,4.335,4.335,4.335h39.646c0.96,0,1.738,0.778,1.738,1.738c0,0.96-0.778,1.738-1.738,1.738h-8.227
	c-2.394,0-4.335,1.496-4.335,4.335s1.941,4.335,4.335,4.335h0.904c1.111,0,2.011,0.901,2.011,2.011c0,1.111-0.9,2.011-2.011,2.011
	h-51.659c-2.394,0-4.335,1.941-4.335,4.335c0,2.394,1.941,4.335,4.335,4.335h68.67c2.394,0,4.335-1.941,4.335-4.335
	c0-2.394-1.941-4.335-4.335-4.335h-1.508c-1.111,0-2.011-0.901-2.011-2.011c0-1.111,0.9-2.011,2.011-2.011h48.712
	c16.731,10.861,36.674,17.193,58.107,17.193c20.714,0,40.039-5.91,56.416-16.109c0.866,0.51,1.837,0.804,2.868,0.804h102.865
	c3.587,0,6.494-3.466,6.494-7.741s-2.908-7.741-6.494-7.741h-2.152c-1.656,0-2.998-1.6-2.998-3.573c0-1.973,1.342-3.573,2.998-3.573
	h64.612c3.587,0,6.494-3.466,6.494-7.741s-2.908-7.741-6.494-7.741H409.426c-3.587,0-6.494,3.466-6.494,7.741
	s2.908,7.741,6.494,7.741h12.043c1.656,0,2.998,1.6,2.998,3.573c0,1.974-1.342,3.573-2.998,3.573h-48.793
	c12.283-12.111,21.653-27.166,26.952-44.029h46.034c2.565,0,4.645-2.083,4.645-4.651s-2.079-4.651-4.645-4.651h-42.476
	c-0.384,0-0.741-0.117-1.037-0.316c0.239-1.116,0.446-2.242,0.65-3.371c0.125-0.027,0.254-0.042,0.387-0.042H412
	c2.565,0,4.645-1.605,4.645-4.651c0-3.046-2.079-4.651-4.645-4.651h-0.969c-1.19,0-2.155-0.966-2.155-2.158
	c0-1.192,0.965-2.158,2.155-2.158h55.345c2.565,0,4.645-2.082,4.645-4.651s-2.08-4.651-4.645-4.651h-61.942
	c-0.491-13.753-3.571-26.841-8.782-38.795h30.592c2.941,0,5.326-2.384,5.326-5.326s-2.384-5.326-5.326-5.326h-9.876
	c-1.358,0-2.458-1.101-2.458-2.459c0-1.358,1.101-2.458,2.458-2.458H469.3c2.941,0,5.326-2.385,5.326-5.326
	c0-2.941-2.384-5.326-5.326-5.326h-28.408h-55.947c-1.625,0-3.062,0.743-4.039,1.891c-19.594-24.321-49.605-39.896-83.268-39.896
	c-30.546,0-58.078,12.834-77.559,33.378h-12.16c-0.873,0-1.581-0.708-1.581-1.581s0.708-1.581,1.581-1.581h1.135
	c1.891,0,3.424-1.533,3.424-3.424c0-1.891-1.533-3.424-3.424-3.424h-54.236c-1.891,0-3.424,1.533-3.424,3.424
	c0,1.891,1.533,3.424,3.424,3.424h34.032c0.873,0,1.581,0.708,1.581,1.581s-0.708,1.581-1.581,1.581h-6.35
	c-1.891,0-3.424,1.533-3.424,3.424s1.533,3.424,3.424,3.424h31.61c-10.066,12.595-17.341,27.509-20.894,43.822h-48.792
	c-4.217,0-7.636,3.419-7.636,7.636c0,4.217,3.419,7.636,7.636,7.636h14.16c1.947,0,3.525,1.578,3.525,3.525
	c0,1.947-1.578,3.525-3.525,3.525H99.428v-22.727l11.364-11.364v-6.25l-11.364,5.114V75.622C152.061,28.599,221.505,0,297.638,0
	c15.518,0,30.757,1.191,45.634,3.48h-35.038c-2.364,0-4.281,2.727-4.281,6.091c0,3.364,1.917,6.091,4.281,6.091h7.939
	c1.091,0,1.976,1.259,1.976,2.812c0,1.553-0.885,2.812-1.976,2.812h-42.549c-2.364,0-4.281,2.727-4.281,6.091
	c0,3.364,1.917,6.091,4.281,6.091h67.809c2.364,0,4.281-2.727,4.281-6.091c0-3.364-1.917-6.091-4.281-6.091h-1.419
	c-1.091,0-1.976-1.259-1.976-2.812c0-1.553,0.885-2.812,1.976-2.812h42.592c1.364,0,2.565-0.924,3.349-2.338
	c71.775,22.271,131.907,70.979,169.042,134.732h-23.678c-2.364,0-4.281,2.727-4.281,6.091c0,3.364,1.917,6.091,4.281,6.091h7.939
	c1.091,0,1.976,1.259,1.976,2.812c0,1.553-0.885,2.812-1.976,2.812h-42.549c-2.364,0-4.281,2.727-4.281,6.091
	c0,3.364,1.917,6.091,4.281,6.091h67.809c1.825,0,3.372-1.631,3.988-3.919C580.475,200.332,588.748,228.578,592.67,258.2z
	 M516.286,131.462c0,0.712,0.577,1.289,1.289,1.289c0.711,0,1.289-0.577,1.289-1.289c0-0.712-0.577-1.288-1.289-1.288
	C516.863,130.173,516.286,130.75,516.286,131.462z M497.796,103.629c2.46,0.315,4.379,2.234,4.694,4.694
	c0.359-2.466,2.312-4.419,4.778-4.778c-2.46-0.315-4.379-2.234-4.694-4.694C502.215,101.316,500.261,103.27,497.796,103.629z
	 M496.959,148.641c0,0.712,0.577,1.288,1.288,1.288c0.712,0,1.288-0.577,1.288-1.288c0-0.712-0.577-1.288-1.288-1.288
	C497.536,147.353,496.959,147.93,496.959,148.641z M129.134,104.141c-3.506-0.449-6.242-3.185-6.691-6.691
	c-0.511,3.515-3.296,6.3-6.811,6.811c3.506,0.449,6.242,3.185,6.691,6.691C122.834,107.437,125.619,104.652,129.134,104.141z
	 M158.52,88.942c0,0.474,0.385,0.859,0.859,0.859c0.474,0,0.859-0.385,0.859-0.859c0-0.474-0.385-0.859-0.859-0.859
	C158.904,88.083,158.52,88.468,158.52,88.942z M180.853,32.679c0-0.712-0.577-1.289-1.289-1.289c-0.711,0-1.288,0.577-1.288,1.289
	c0,0.712,0.577,1.288,1.288,1.288C180.276,33.967,180.853,33.39,180.853,32.679z M232.875,45.51
	c-2.46-0.315-4.379-2.234-4.694-4.694c-0.358,2.466-2.312,4.419-4.778,4.778c2.46,0.315,4.379,2.234,4.694,4.694
	C228.456,47.822,230.409,45.868,232.875,45.51z M256.444,10.345c0-0.712-0.577-1.288-1.288-1.288c-0.712,0-1.288,0.577-1.288,1.288
	c0,0.712,0.577,1.288,1.288,1.288C255.867,11.633,256.444,11.057,256.444,10.345z M338.047,42.127c0-0.712-0.577-1.288-1.288-1.288
	c-0.712,0-1.288,0.577-1.288,1.288c0,0.712,0.577,1.288,1.288,1.288C337.47,43.416,338.047,42.839,338.047,42.127z M411.791,52.397
	c-3.506-0.449-6.242-3.185-6.691-6.691c-0.511,3.515-3.296,6.3-6.811,6.811v0c3.506,0.449,6.242,3.185,6.691,6.691
	C405.491,55.693,408.276,52.908,411.791,52.397z M443.702,53.724c0-0.949-0.769-1.718-1.718-1.718c-0.949,0-1.718,0.769-1.718,1.718
	c0,0.949,0.769,1.718,1.718,1.718C442.933,55.442,443.702,54.673,443.702,53.724z M419.221,131.462c0-0.712-0.577-1.288-1.289-1.288
	c-0.711,0-1.288,0.577-1.288,1.288c0,0.712,0.577,1.289,1.288,1.289C418.644,132.75,419.221,132.173,419.221,131.462z
	 M465.492,124.113c-3.12-0.399-5.555-2.834-5.954-5.954c-0.455,3.128-2.933,5.606-6.061,6.061c3.12,0.399,5.555,2.834,5.954,5.954
	C459.886,127.046,462.364,124.567,465.492,124.113z M466.895,184.289c0-0.474-0.385-0.859-0.859-0.859s-0.859,0.385-0.859,0.859
	c0,0.475,0.385,0.859,0.859,0.859S466.895,184.764,466.895,184.289z M474.626,67.467c0-0.949-0.769-1.718-1.718-1.718
	c-0.949,0-1.718,0.769-1.718,1.718c0,0.949,0.769,1.718,1.718,1.718C473.857,69.185,474.626,68.416,474.626,67.467z M485.792,94.096
	c0-0.474-0.384-0.859-0.859-0.859s-0.859,0.385-0.859,0.859c0,0.474,0.385,0.859,0.859,0.859S485.792,94.57,485.792,94.096z
	 M183.43,204.905c0,0.949,0.769,1.718,1.718,1.718c0.949,0,1.718-0.769,1.718-1.718c0-0.949-0.769-1.718-1.718-1.718
	C184.199,203.187,183.43,203.956,183.43,204.905z M152.532,191.754c2.873,0.368,5.115,2.61,5.483,5.483
	c0.419-2.88,2.701-5.162,5.581-5.581c-2.873-0.368-5.115-2.61-5.483-5.483C157.693,189.054,155.411,191.336,152.532,191.754
	L152.532,191.754z M112.994,191.161c0-0.949-0.769-1.718-1.718-1.718c-0.949,0-1.718,0.769-1.718,1.718
	c0,0.949,0.769,1.718,1.718,1.718C112.224,192.879,112.994,192.11,112.994,191.161z M132.598,279.533
	c-2.873-0.368-5.115-2.61-5.483-5.483c-0.419,2.88-2.701,5.162-5.581,5.581c2.873,0.368,5.115,2.61,5.483,5.483
	C127.436,282.234,129.718,279.952,132.598,279.533z M157.661,301.111c0-0.949-0.769-1.718-1.718-1.718s-1.718,0.769-1.718,1.718
	c0,0.949,0.769,1.718,1.718,1.718S157.661,302.06,157.661,301.111z M213.495,258.591c0-0.712-0.577-1.288-1.288-1.288
	c-0.712,0-1.288,0.577-1.288,1.288c0,0.712,0.577,1.289,1.288,1.289C212.918,259.88,213.495,259.303,213.495,258.591z
	 M266.322,270.678c0-0.712-0.577-1.288-1.288-1.288c-0.712,0-1.288,0.577-1.288,1.288c0,0.712,0.577,1.289,1.288,1.289
	C265.745,271.966,266.322,271.389,266.322,270.678z M289.944,299.393c0-0.949-0.769-1.718-1.718-1.718
	c-0.949,0-1.718,0.769-1.718,1.718c0,0.949,0.769,1.718,1.718,1.718C289.175,301.111,289.944,300.342,289.944,299.393z
	 M318.405,306.819c-2.46-0.315-4.379-2.234-4.694-4.694c-0.358,2.466-2.312,4.419-4.778,4.778c2.46,0.315,4.379,2.234,4.694,4.694
	C313.986,309.131,315.939,307.177,318.405,306.819z M336.329,271.047c0-0.474-0.385-0.859-0.859-0.859s-0.859,0.385-0.859,0.859
	s0.385,0.859,0.859,0.859S336.329,271.521,336.329,271.047z M374.125,259.021c0-0.949-0.769-1.718-1.718-1.718
	c-0.949,0-1.718,0.769-1.718,1.718c0,0.949,0.769,1.718,1.718,1.718C373.355,260.739,374.125,259.97,374.125,259.021z
	 M447.138,271.047c0-0.474-0.385-0.859-0.859-0.859c-0.474,0-0.859,0.385-0.859,0.859s0.385,0.859,0.859,0.859
	C446.754,271.905,447.138,271.521,447.138,271.047z M493.478,262.992c-3.947-0.505-7.026-3.585-7.532-7.532
	c-0.575,3.956-3.71,7.091-7.666,7.666c3.947,0.505,7.026,3.585,7.532,7.531C486.387,266.702,489.522,263.568,493.478,262.992z
	 M502.113,291.662c0-0.949-0.769-1.718-1.718-1.718c-0.949,0-1.718,0.769-1.718,1.718c0,0.949,0.769,1.718,1.718,1.718
	C501.344,293.38,502.113,292.611,502.113,291.662z M548.498,191.161c0-0.949-0.769-1.718-1.718-1.718
	c-0.949,0-1.718,0.769-1.718,1.718c0,0.949,0.769,1.718,1.718,1.718C547.729,192.879,548.498,192.11,548.498,191.161z
	 M551.934,262.027c0-0.711-0.577-1.288-1.288-1.288c-0.712,0-1.289,0.577-1.289,1.288c0,0.712,0.577,1.289,1.289,1.289
	C551.357,263.316,551.934,262.739,551.934,262.027z M552.793,218.648c0-1.423-1.154-2.577-2.577-2.577
	c-1.423,0-2.577,1.154-2.577,2.577s1.154,2.577,2.577,2.577C551.64,221.225,552.793,220.072,552.793,218.648z M9.581,222.476h3.726
	v-12.826l-0.062-0.062C11.929,213.844,10.709,218.142,9.581,222.476z M151.758,363.23c0,0-4.257,3.92-10.205,6.307l0.904,4.253
	l2.626-5.122l1.374,7.513C149.001,372.514,152.649,366.496,151.758,363.23z M156.663,378.392c-2.163,0.166-4.139,3.499-5.582,7.843
	l1.171,8.172l2.688-10.21l4.26,14.739l0.915-7.503l1.675,9.755l4.257-1.534l0.871-25.275l3.568-7.581
	C170.487,366.798,162.461,377.946,156.663,378.392z M137.053,373.017l0.479-2.217c-0.242,0.055-0.482,0.11-0.727,0.157
	L137.053,373.017z M6.699,234.658h6.608v60.085L0.2,287.255C0.817,269.271,3.028,251.695,6.699,234.658z M5.477,263.866
	c-1.977,0-3.58,1.603-3.58,3.58s1.603,3.58,3.58,3.58s3.58-1.603,3.58-3.58S7.454,263.866,5.477,263.866z M0,297.638
	c0,11.416,0.665,22.675,1.917,33.756l0.34-2.602l2.928,10.467l1.552-12.906l1.228,10.065l1.9-15.799l0.95,7.792l2.492-13.175v-7.992
	l-13.26-13.26C0.032,295.201,0,296.416,0,297.638z M563.098,165.861h1.419c0.018,0,0.034,0.007,0.051,0.007
	c-0.85-1.719-1.71-3.431-2.592-5.131c-0.515,0.507-0.854,1.352-0.854,2.311C561.122,164.602,562.007,165.861,563.098,165.861z
	 M332.866,425.308l-1.829,5.674l2.288,6.347l1.728-6.042L332.866,425.308z M325.638,435.329l0.124,1.013l0.141-0.491
	L325.638,435.329z M260.133,473.389l2.465-10.386l1.871,10.072l1.552-12.906l1.228,10.065l3.154-11.816l3.722,11.822l3.042-18.485
	l2.995,13.484l2.187-18.187l2.085,17.092l2.748-13.123l1.073,8.797l2.763-12.411l2.015,8.563l1.772-14.731l1.738,14.249
	l2.967-17.327l1.706,13.986l1.73-10.052l0.989,8.108l2.46-15.885l1.402,11.492l1.506-12.523l1.467,12.03l1.466-10.578l1.762,8.27
	l1.595-13.259l1.556,11.007l2.97-12.684l-0.104-0.551l-0.717,3.753l-1.178-6.247l-1.421,7.433l-0.056-0.026l-1.522-8.075
	l-1.02,5.336l-1.197-6.347l-0.207,1.086l-0.704-3.733l-0.708,3.702l-0.29-1.539l-0.717,3.753l-1.178-6.247l-0.376,1.966
	l-0.046-0.244l-1.071,5.6l-1.506-7.99l-0.591,3.093l-0.705-3.74l-0.636,3.328l-1.195-6.34l-1.763,9.22l-0.083-0.039l-1.469-7.791
	l-0.299,1.567l-0.567-3.009l-1.363,7.127l-1.644-8.721l-1.465,7.664l-0.05-0.023l-1.062-5.632l-0.094,0.494l-0.279-1.457
	l-1.027,5.451l-0.255-0.119l-1.78-9.442l-2.161,11.302l-0.789-4.128l-1.498,7.946l-1.205,1.211l-1.17-6.12l-1.514,8.03l-1.801-9.42
	l-1.9,10.08l-1.228-6.422l-1.075,5.702l-0.092-0.48l-0.477,2.533l-1.355-7.086l-1.178,6.247l-0.717-3.753l-0.994,5.272l-0.915-4.787
	l-1.569,8.324l-0.526-2.751l-1.24,6.578l-0.263-1.377l-0.166,0.879l-0.53-2.773l-0.494,2.623l-0.434-2.271l-1.24,6.578l-0.263-1.377
	l-0.312,1.656l-0.379-1.982v13.716l-6.979,2.529l-11.603,4.205l-0.755,4.003l-0.667-3.488l-1.662,0.602l-0.295,1.567l-0.261-1.365
	l-0.162,0.059v10.374h18.368l0.948-7.881L260.133,473.389z M321.922,428.006l-0.48,2.514l1.538,6.565l1.026-4.973L321.922,428.006z
	 M338.51,424.26l-1.363,4.5l1.228,10.067l1.127-9.374L338.51,424.26z M537.264,399.658l-3.18-13.863l-4.128,9.897l1.523,9.946
	l2.899-15.408l3.556,13.855l0.001,0l1.2-10.184l-0.384-2.028L537.264,399.658z M540.586,401.418l0.156,1.253
	c0.408-0.151,2.557-7.711,2.557-7.711l0.829,6.938c0.148-0.014,1.021-5.209,1.386-7.414l-2.197-8.087L540.586,401.418z
	 M584.349,373.96l-1.488-7.785l-2.211,11.73l-4.977-10.084l-1.9,10.08l-1.228-6.421l-1.552,8.234l-1.446-7.566l-2.889,7.766
	l-0.915-4.787l-4.4,13.723l-1.677-6.782l-1.325,7.027l-2.549-3.991l-2.003,5.469l-1.311-6.859l-2.035,9.374l-2.43-4.795
	l-1.876,8.258l0.816,5.393c0.217,0.026,1.63-8.248,1.63-8.248l1.106,8.878l2.245-4.451l0.966,9.18l2.567-11.752l1.499,12.031
	l3.206-10.311l1.772,14.219l2.07-8.858l2.708,11.328l1.073-9.107l1.676,13.449l3.157-18.813l1.164,9.339
	c6.003-14.895,10.834-30.385,14.383-46.36l-0.645-2.372L584.349,373.96z M345.456,444.991l1.887-9.345l0.967,7.931l2.3-9.217
	l2.323,8.552l2.348-7.654l1.195,9.8l1.352-11.242l1.536,12.59l2.198-8.663l2.641,12.462l2.835-10.69l2.305,9.86l1.073-8.923
	l1.454,14.041l3.066-10.65l2.571,14.032l2.899-12.885l2.718,10.574l1.465-12.179l1.439,11.796l1.589-13.214l1.741,14.273
	l1.244-10.343l1.397,11.456l2.419-10.753l1.158,5.567l1.061-8.818l2.518,12.626l1.393-11.582l0.941,7.716l2.755-10.341l3.035,13.046
	l1.552-12.906l1.228,10.065l1.9-15.799l1.801,14.765l1.514-12.586l1.662,13.626l2.211-18.385l1.488,12.201l1.089-9.052l3.082,9.75
	l2.147-17.394l2.577,14.173l2.931-13.316l1.74,13.745l0.765-13.184l1.651,8.352l0.998-15.892l2.155,17.664l0.06-0.037l2.49-20.705
	l1.968,16.137l4.916-19.98l1.402,11.492l1.506-12.523l1.738,18.69l1.195-17.238l1.388,11.378l1.968-16.367l1.45,11.887l1.795-14.925
	l1.59,13.035l1.429-11.883l3.182,18.457l1.937-14.004l2.398,14.436l1.552-12.639l1.228,10.276l1.9-15.473l1.801,15.075l1.513-12.325
	l1.662,13.912l2.211-18.005l1.488,12.457l1.089-8.865l1.69,12.756l1.746-20.117l2.27,19.003l1.279-10.417l0.404,3.379l0.88-7.165
	l1.073,8.982l1.395-11.361l2.065,12.22l3.089-18.311l2.183,18.269l2.522-20.537l1.968,16.475l1.468-11.95l1.266,10.593l2.183-17.776
	l1.402,11.733l1.506-12.264l1.565,13.1l1.368-11.143l1.388,11.616l1.968-16.028l1.45,12.136l0.806-6.561l-3.073-9.855l-2.526,5.714
	l-0.993-5.267l-0.915,4.787l-2.348-6.311l-1.988,6.111l-1.552-8.234l-1.228,6.422l-4.167-15.653l-0.915,4.787l-1.408-6.878
	l-2.928,6.678l-1.552-8.234l-1.228,6.422l-1.9-10.08l-0.95,4.971l-2.609-8.799l-1.592,3.715l-1.178-6.247l-1.446,7.566l-1.552-8.234
	l-1.228,6.422l-1.9-10.08l-1.408,7.367l-3.654-9.277l-3.463,7.257l-1.783-9.458l-1.399,7.321l-3.702-13.442l-0.915,4.787
	l-2.889-7.767l-1.447,7.566l-4.68-11.893l-2.106,7.801l-5.082-9.447l-0.856,4.477l-6.769-10.996l-2.621,7.606l-1.724-4.01
	l-1.089,5.775l-3.714-6.815l-3.161,10.096l-3.711-7.082l-2.77,9.555l-1.446-7.566l-1.178,6.247l-1.263-3.852l-3.223,10.445
	l-0.647-3.387l-1.514,8.03l-3.85-8.1l-2.63,10.573l-2.738-6.737l-1.597,6.937l-0.915-4.787l-2.313,12.27l-1.071-5.601l-1.9,10.08
	l-2.297-6.02l-0.879,5.762l-2.655-4.889l-1.317,6.989l-3.363,4.904l-2.738-7.833l-1.597,8.033l-0.915-4.787l-2.998,15.906
	l-1.358-7.103l-1.178,6.247l-1.617-4.459l-3.419,13.977l-1.274-6.665l-1.9,10.08l-2.64-7.802l-2.764,8.295l-2.627-3.268
	l-3.888,13.565l-1.214-6.348l-2.068,9.204l-2.688-6.514l-4.26,9.404l-0.915-4.787l-3.072,11.416l-1.545,1.344l-1.589-3.127
	l-0.577,3.824l1.471,12.061l1.439-11.751L345.456,444.991z M528.071,388.859l-1.004,5.328l1.447,7.553l0.79-6.433L528.071,388.859z
	 M323.664,519.416h27.905c-0.025-1.283,0.771-2.583,2.415-2.836c-6.013,0-12.025,0-18.038,0c-6.464,0-9.625,0.444-11.108,1.107
	h0.113c-0.278,0.161-0.575,0.316-0.873,0.472C323.661,518.543,323.592,518.972,323.664,519.416z M230.355,519.416h-4.381
	c-0.917,0-1.79,0.187-2.584,0.524c-0.501-0.6-1.285-1.017-2.374-1.017c-3.488,0-3.955,4.226-1.399,5.361
	c-0.155,0.563-0.265,1.143-0.265,1.755v0c0,0.296,0.025,0.586,0.063,0.871c-0.629,0-1.262,0-1.896,0v-12.779
	c0.704-0.974,0.705-2.347,0-3.32v-10.081l20.574-7.457h2.206c-0.278,1.56,0.712,3.338,2.977,3.338c2.261,0,3.254-1.778,2.978-3.338
	h6.705c-0.278,1.56,0.712,3.338,2.977,3.338c5.127,0,12.814,0,15.381,0c2.566,0,2.651,3.142,0,3.142c-2.651,0-2.37,0-3.555,0
	c-4.028,0-4.035,5.644,0,5.644c0.159,0,0.478,0,0.478,0s-0.122,0.884-0.029,1.742h-1.025c-0.666,0.581-1.202,1.187-1.601,1.811
	h1.078c-2.403,0.701-4.434,1.485-5.99,2.335h-8.397c-0.032-1.281-1.626-2.709-4.06-2.709c-2.435,0-2.922-4.777,0-4.777
	s5.356,0,7.304,0c4.077,0,4.035-5.782-0.149-5.641c-7.345,0-14.637,0-21.982-0.001c-4.157-0.122-4.207,5.642-0.129,5.642
	c2.865,0,5.503,0,8.595,0c3.092,0,2.612,4.739,0,4.739c-2.612,0-3.504,0-5.256,0c-4.028,0-4.035,5.644,0,5.644
	c3.122,0,6.243,0,9.365,0c0.035,1.385,1.036,2.746,3.017,2.746c1.033,0,2.147,0,3.213,0l-5.534,1.993c-4.838,0-9.675,0-14.513,0
	C231.415,518.923,230.821,519.112,230.355,519.416z M224.355,509.651c-4.028,0-4.035,5.644,0,5.644
	C228.383,515.294,228.39,509.651,224.355,509.651z M287.795,496.612c-1.669,0-2.226,0-5.008,0c-1.47,0-2.213,0.877-2.154,1.704
	h12.548c0.336-0.743,0.756-1.486,1.854-1.434c6.58,0.002,13.12,0.005,19.664,0.007v-1.076c-1.548,0-3.096,0-4.644,0
	c-2.802,0-3.65-2.719-2.561-4.382h-17.963C291.698,492.774,291.121,496.612,287.795,496.612z M239.902,485.452h11.879
	c0.748-1.115,2.06-1.843,3.486-1.843h19.861c0.388-1.008,1.359-1.811,2.918-1.779c10.571,0,21.082,0,31.654,0.001
	c1.578-0.042,2.557,0.764,2.946,1.778h5.099c0.329-1.074,1.284-1.968,2.885-1.968c1.603,0,2.558,0.894,2.886,1.968h56.148
	c2.23,0,4.024,1.866,3.906,4.121c-0.111,2.115-2.009,3.701-4.127,3.701h-7.672c-1.901,0-3.442,1.541-3.442,3.442
	c0,1.901,1.541,3.442,3.442,3.442h80.488c3.459,0,6.548,2.529,6.876,5.972c0.377,3.95-2.72,7.273-6.592,7.273h-72.627
	c1.885,1.465,1.232,5.018-1.967,5.018c-3.205,0-3.85-3.553-1.965-5.018h-8.311c1.76,1.367,1.303,4.551-1.376,4.965
	c2.725,0,5.45,0,8.175,0c2.049,0,3.048,1.456,3.015,2.889h6.489c-0.032-1.433,0.971-2.889,3.018-2.889c7.374,0,14.747,0,22.121,0
	c4.035,0,4.028,5.644,0,5.644c-1.777,0-3.554,0-5.331,0c0.789,1.09,1.268,2.42,1.268,3.869v0c0,3.658-2.965,6.623-6.623,6.623
	h-17.656c0.651,1.656-0.29,3.885-2.822,3.885c-2.536,0-3.473-2.229-2.821-3.885h-8.269c0.649,1.652-0.286,3.874-2.803,3.885
	c-8.362,0-16.699,0-25.06,0c-2.537,0.001-3.475-2.228-2.822-3.885h-5.929c-1.086,0-1.967,0.881-1.967,1.967
	c0,1.086,0.881,1.967,1.967,1.967h11.208c3.438,0,6.512,2.499,6.867,5.919c0.303,2.918-1.303,5.473-3.706,6.642h71.659
	c2.612,0,4.954,1.956,5.09,4.565c0.146,2.782-2.067,5.084-4.817,5.084H299.166c-2.387,0-4.55-1.656-4.938-4.011
	c-0.347-2.107,0.682-3.988,2.317-4.954H249.03l-9.052,3.28v14.02h76.886c3.109,0,5.629,2.521,5.629,5.63v0
	c0,3.109-2.52,5.629-5.629,5.629h-76.886v3.947l-6.979,2.529l-5.616,2.035c22.529,5.452,46.05,8.363,70.255,8.363
	c64.955,0,125.04-20.821,173.974-56.134h-42.128c-3.109,0-5.629-2.521-5.629-5.63c0-3.109,2.52-5.63,5.629-5.63h56.768
	c6.947-5.698,13.625-11.711,20.026-18.004h-25.255c-3.109,0-5.629-2.52-5.629-5.629s2.521-5.63,5.629-5.63h36.135
	c2.309-2.521,4.572-5.085,6.794-7.685h-85.257c-1.554,0-2.815-1.26-2.815-2.815s1.26-2.815,2.815-2.815h89.95
	c1.484-1.824,2.947-3.666,4.388-5.526H239.902V485.452z"></path>
</svg>