<?xml version="1.0" standalone="no"?>
<svg version="1.1" id="Layer_1" xmlns="http://www.w3.org/2000/svg" xmlns:xlink="http://www.w3.org/1999/xlink" x="0px" y="0px" viewBox="0 0 595.276 595.276" enable-background="new 0 0 595.276 595.276" xml:space="preserve">
<path id="color_x5F_9_26_" fill="#4D3025" d="M126.632,412.532H48.372v-4.088h78.261V412.532z M126.632,445.316H48.372v4.088h78.261
	V445.316z M499.123,143.97h-3.292v13.535h3.292V143.97z M511.636,486.16h16.32c2.698-3.292,5.33-6.639,7.887-10.047h-24.207V486.16z
	 M471.15,174.341h-3.457v207.475h3.457V174.341z M560.808,436.75c1.18-2.228,2.332-4.473,3.457-6.734v-251.72h-3.457V436.75z
	 M581.594,208.204v178.867c1.689-5.367,3.227-10.8,4.615-16.294v-146.28C584.821,219.005,583.283,213.571,581.594,208.204z
	 M362.232,371.573h-39.553v-5.365h5.983l7.412-12.707h37.798l7.059,12.707h59.561v9.453h-78.261V371.573z M363.694,363.231
	l4.564-6.736h-30.724l-3.705,6.736H363.694z M511.636,467.83h5.182c2.111,0,4.394-0.614,6.469-1.66
	c1.898-0.956,3.615-2.276,4.861-3.845c0.65-0.818,1.161-1.704,1.51-2.637c0.32-0.855,0.514-1.746,0.514-2.669v-2.35H314.886v6.404
	h-4.864v-6.404h-3.672v6.404h-4.864v-6.404h-3.672v6.404h-4.864v-6.404h-3.672v6.404h-4.864v-6.404h-3.672v6.404h-4.864v-6.404
	h-3.672v6.404h-4.864v-6.404h-3.672v6.404h-4.864v-6.404h-3.672v6.404h-4.864v-6.404h-3.672v6.404h-4.864v-6.404h-3.672v6.404
	h-4.864v-6.404h-3.672v6.404h-4.864v-6.404h-3.672v6.404h-4.864v-6.404h-89.488v13.161h153.389v18.331h8.845v-7.953l8.684-4.424
	v-5.953l0,0h7.6v14.884v0l17.529-8.93v-5.953h145.014v2.295h3.457v-2.295h22.957v8.284h-53.615v6.073H322.679v3.973h171.428v-3.447
	v0l17.529-8.93V467.83z M48.372,375.661h78.261v-9.453H7.952c0.423,1.794,0.854,3.584,1.309,5.365h39.111V375.661z M94.141,396.124
	c6.702,0,12.136-5.433,12.136-12.136h-37.55c0,6.702,5.433,12.136,12.136,12.136H94.141z M80.863,432.995h13.278
	c6.702,0,12.136-5.433,12.136-12.136h-37.55C68.727,427.562,74.161,432.995,80.863,432.995z M80.863,469.866h13.278
	c6.702,0,12.136-5.433,12.136-12.136h-37.55C68.727,464.433,74.161,469.866,80.863,469.866z M67.32,486.16h59.313v-3.973H64.12
	C65.175,483.521,66.242,484.845,67.32,486.16z M118.938,240.102h-1.758v33.054h1.758V240.102z M118.938,194.391h-1.758v39.434h1.758
	V194.391z M180.578,168.02h-1.758v78.766h1.758V168.02z M242.218,194.391h-1.758v78.766h1.758V194.391z M100.96,199.554h-3.736
	v34.27h3.736V199.554z M10.531,218.966c-1.341,4.904-2.558,9.857-3.65,14.858h3.65V218.966z M341.806,193.294h-4.615v40.53h4.615
	V193.294z"></path>
<path id="color_x5F_8_33_" fill="#FFFFFF" d="M89.352,337.121l0.275,3.241l-15.994,12.764l-0.376-3.208L89.352,337.121z
	 M169.27,136.337l3.005,2.478h112.539l-3.005-2.478H169.27z M108.573,233.824h1.656v-34.267h-1.656V233.824z M91.946,233.824h3.779
	v-40.53h-3.779V233.824z M441.503,233.824v-34.267h-1.656v34.267H441.503z M427,233.824v-40.53h-3.779v40.53H427z M549.95,200.101
	c-13.93,22.831-43.375,71.085-63.626,104.229v36.976l63.626-79.719V200.101z M493.052,381.829l57.16-75.407V289.14l-63.062,92.677
	C487.151,381.816,492.887,381.826,493.052,381.829z M510.7,387.902l39.513-64.978v-9.37l-50.671,69.086
	C503.652,383.617,507.436,385.432,510.7,387.902z M574.342,320.53v52.081h4.615V320.53H574.342z M396.413,263.575l9.49,52.467
	h15.192l-16.164-52.467H396.413z M325.285,418.948L325.285,418.948l0,3.547h0h204.887v-3.547H325.285z M62.488,263.519h-8.955
	l7.581,52.579h14.073L62.488,263.519z M296.825,95.451v38.897c0,6.464-5.24,11.704-11.703,11.704H144.809
	c6.464,0,11.704-5.24,11.704-11.704V95.451c0-6.464-5.24-11.704-11.704-11.704h140.313
	C291.585,83.747,296.825,88.987,296.825,95.451z M290.757,92.904h-127.43c-0.469,0.72-0.855,1.498-1.157,2.317h129.743
	C291.611,94.402,291.226,93.624,290.757,92.904z M165.641,90.298h122.801c-2.008-1.667-4.587-2.67-7.401-2.67H173.042
	C170.228,87.628,167.65,88.631,165.641,90.298z M161.446,100.143h131.191v-0.919c0-0.474-0.037-0.938-0.092-1.397H161.538
	c-0.055,0.459-0.092,0.923-0.092,1.397V100.143z M161.446,105.066h131.191v-2.317H161.446V105.066z M161.446,109.989h131.191v-2.316
	H161.446V109.989z M161.446,114.911h131.191v-2.317H161.446V114.911z M161.446,119.834h131.191v-2.317H161.446V119.834z
	 M161.446,124.757h131.191v-2.316H161.446V124.757z M169.718,141.469h-8.828l-2.717,3.602h8.829L169.718,141.469z M286.907,137.576
	c0-1.645-1.508-2.978-3.369-2.978H170.545c-1.861,0-3.369,1.333-3.369,2.978c0,1.645,1.508,2.978,3.369,2.978h112.993
	C285.399,140.554,286.907,139.221,286.907,137.576z M292.637,127.363H161.446v3.404h131.191V127.363z M121.793,233.824h4.485
	v-32.227h40.118v64.353h-40.118v-25.848h-4.485v29.866h49.089v-72.388h-49.089V233.824z M130.014,235.719v14.373l33.626-31.62
	v-13.415L130.014,235.719z M183.433,171.209h49.089v72.389h-49.089V171.209z M187.918,239.58h40.118v-64.353h-40.118V239.58z
	 M191.654,223.721l33.626-31.62v-13.415l-33.626,30.662V223.721z M245.073,197.579h49.088v72.388h-49.088V197.579z M249.558,265.95
	h40.118v-64.353h-40.118V265.95z M253.295,250.092l33.626-31.62v-13.415l-33.626,30.662V250.092z M76.606,199.554h-2.349v34.27
	h2.349V199.554z M29.799,233.824h3.447v-34.27h-3.447V233.824z M405.532,199.554v34.27h2.349v-34.27H405.532z M364.521,233.824
	v-34.27h-3.447v34.27H364.521z M457.264,46.393H138.011c-2.694,1.715-5.356,3.475-7.99,5.274h335.233
	C462.62,49.868,459.958,48.108,457.264,46.393z M436.444,34.306H158.832c-4.569,2.413-9.068,4.94-13.493,7.58h304.598
	C445.513,39.245,441.013,36.719,436.444,34.306z"></path>
<path id="color_x5F_7_33_" fill="#C9E9ED" d="M482.429,184.779v173.636l70.235-88.96v-84.677H482.429z M549.95,261.588
	l-63.626,79.719V304.33c20.251-33.144,49.696-81.398,63.626-104.229V261.588z M410.873,335.131
	c4.539,21.364-20.035,25.452-20.035,25.452s2.315-9.998,1.477-24.179C391.478,322.224,407.921,321.237,410.873,335.131z
	 M212.884,378.546c0.541,1.155,0.831,2.255,0.91,3.27h-53.47c-0.079-1.015-0.369-2.115-0.91-3.271l-9.288-19.833
	c-2.33-4.975-8.252-9.009-13.227-9.009h53.47c0,0,0.394,0.146,1.045,0.415c2.782,1.149,10.294,4.561,12.182,8.593L212.884,378.546z
	 M300.587,378.546c0.541,1.155,0.831,2.255,0.91,3.27h-53.47c-0.079-1.015-0.369-2.115-0.91-3.271l-9.289-19.833
	c-2.33-4.975-8.252-9.009-13.227-9.009h53.47c1.86,0,3.852,0.564,5.739,1.53c2.741,1.402,5.253,3.655,6.826,6.26
	c0.241,0.4,0.469,0.805,0.663,1.219L300.587,378.546z M68.837,332.615h-0.076H66.72h-2.247l2.303,16.752
	c-5.761,8.234-17.241,11.216-17.241,11.216s0.818-9.998-0.02-24.179C48.731,323.143,64.492,321.397,68.837,332.615z M89.901,342.505
	l0.989,6.153l-15.852,13.8l-0.99-7.109L89.901,342.505z M138.28,146.051V83.747h6.528c6.464,0,11.704,5.24,11.704,11.704v38.897
	c0,6.464-5.24,11.704-11.704,11.704H138.28z M111.593,199.554h3.728v34.27h-3.574v-34.267h-0.154V199.554z M95.725,193.294h1.5
	v40.53h-1.5V193.294z M87.99,193.294h3.956v40.53H87.99V193.294z M56.593,233.824h-4.834v-40.53h4.834V233.824z M22.405,199.554
	v34.27h-4.252v-34.27H22.405z M446.595,199.554v34.27h-3.574v-34.267L446.595,199.554z M427,193.294h1.5v40.53H427V193.294z
	 M419.265,193.294h3.956v40.53h-3.956V193.294z M383.033,193.294h4.835v40.53h-4.835V193.294z M353.68,199.554v34.27h-4.252v-34.27
	H353.68z"></path>
<path id="color_x5F_6_40_" fill="#54A7B8" d="M482.429,358.415v23.401h4.721l63.062-92.677v17.282l-57.16,75.407
	c-0.166-0.003-2.544-0.013-2.544-0.013c17.235,0,31.304,13.547,32.144,30.573c0.026,0.534,0.041,6.558,0.041,6.558h7.479h0v38.071
	c0,0.923-0.194,1.814-0.514,2.669h17.657c1.828-2.81,3.615-5.649,5.349-8.524V269.455L482.429,358.415z M550.212,322.924
	L510.7,387.902c-3.264-2.47-7.048-4.285-11.158-5.262l50.671-69.086V322.924z M404.065,319.474h-36.186
	c-7.304,4.901-12.029,12.694-12.029,21.472c0,4.538,1.271,8.807,3.5,12.555h14.521l7.059,12.707h25.434l-1.339-4.462
	c6.755-4.925,11.069-12.412,11.069-20.799C416.094,332.168,411.37,324.375,404.065,319.474z M390.838,360.583
	c0,0,2.315-9.998,1.477-24.179c-0.837-14.18,15.605-15.168,18.558-1.273C415.412,356.495,390.838,360.583,390.838,360.583z
	 M247.117,378.546c0.541,1.155,0.831,2.256,0.91,3.271h-3.119c-16.621,0-30.095,13.474-30.095,30.095v2.09v4.947h-88.18v-36.106
	c1.654-0.443,3.364-0.746,5.118-0.901c0.884-0.078,1.776-0.125,2.68-0.125h9.12c-0.871-1.015-1.612-2.115-2.153-3.271l-2.946-6.29
	l-6.343-13.543c-0.136-0.289-0.253-0.575-0.358-0.857c-0.796-2.131-0.751-4.044,0-5.482c0.861-1.648,2.645-2.669,5.148-2.669h0
	c4.975,0,10.897,4.033,13.227,9.009l9.288,19.833c0.541,1.155,0.831,2.256,0.91,3.271h70.524h0.405
	c-0.138-0.16-0.275-0.321-0.405-0.485c-0.696-0.878-1.293-1.812-1.748-2.785l-9.288-19.833c-2.33-4.975-0.186-9.009,4.79-9.009
	c4.975,0,10.897,4.033,13.227,9.009L247.117,378.546z M49.514,336.404c0.838,14.18,0.02,24.179,0.02,24.179
	s11.481-2.982,17.241-11.216l0.213,1.549l-0.722,7.254c-1.221,1.3-2.569,2.502-4.042,3.576l1.339,4.462H22.778l1.339-4.462
	c-6.755-4.925-11.068-12.412-11.068-20.799c0-8.778,4.725-16.572,12.029-21.472h36.186c4.883,3.276,8.608,7.848,10.544,13.14h-2.971
	C64.492,321.397,48.731,323.143,49.514,336.404z M70.099,335.585l3.967,28.855h20.12l-3.967-28.855H70.099z M73.256,349.918
	l16.096-12.797l0.275,3.241l-15.994,12.764L73.256,349.918z M75.038,362.458l-0.99-7.109l15.853-12.844l0.989,6.153L75.038,362.458z
	 M138.28,146.051h-14.94V83.747v0h14.94v0V146.051z M283.538,134.598H170.545c-1.861,0-3.369,1.333-3.369,2.978
	c0,1.645,1.508,2.978,3.369,2.978h112.993c1.861,0,3.369-1.333,3.369-2.978C286.907,135.931,285.399,134.598,283.538,134.598z
	 M172.275,138.815l-3.005-2.478h112.539l3.005,2.478H172.275z M161.446,112.595h131.191v2.317H161.446V112.595z M161.446,127.363
	h131.191v3.404H161.446V127.363z M161.446,122.44h131.191v2.316H161.446V122.44z M161.446,117.518h131.191v2.317H161.446V117.518z
	 M291.913,95.221H162.17c0.302-0.819,0.687-1.596,1.157-2.317h127.43C291.226,93.624,291.611,94.402,291.913,95.221z
	 M161.446,107.672h131.191v2.316H161.446V107.672z M288.442,90.298H165.641c2.008-1.667,4.587-2.67,7.401-2.67h107.999
	C283.855,87.628,286.434,88.631,288.442,90.298z M161.446,102.749h131.191v2.317H161.446V102.749z M292.545,97.827
	c0.055,0.459,0.092,0.923,0.092,1.397v0.919H161.446v-0.919c0-0.474,0.037-0.938,0.092-1.397H292.545z M167.001,145.07h-8.829
	l2.717-3.602h8.828L167.001,145.07z M111.593,199.557h0.154v34.267h-1.518v-34.267H111.593z M106.457,199.557h2.116v34.267h-2.116
	V199.557z M74.257,233.824h-3.143v-34.27h3.143V233.824z M77.925,233.824h-1.319v-34.27h1.319V233.824z M47.359,196.84h-4.835
	v-3.546h9.234v40.53h-4.4V196.84z M18.153,233.824h-2.198v-32.546c0.197-0.577,0.406-1.149,0.607-1.724h1.59V233.824z
	 M442.867,199.557h0.154v34.267h-1.518v-34.267H442.867z M437.732,199.557h2.116v34.267h-2.116V199.557z M405.532,233.824h-3.143
	v-34.27h3.143V233.824z M409.2,233.824h-1.319v-34.27h1.319V233.824z M378.633,196.84h-4.835v-3.546h9.234v40.53h-4.4V196.84z
	 M347.23,199.554h2.198v34.27h-2.198V199.554z"></path>
<path id="color_x5F_5_39_" fill="#00627D" d="M537.998,148.627v14.939H444.05v-38.729h11.702v23.79h36.345v10.591
	c0,0.768,0.622,1.39,1.39,1.39h7.979c0.768,0,1.39-0.622,1.39-1.39v-10.591H537.998z M305.151,486.16v-4.773h-7.6v4.773h-17.529
	v-4.773H126.632v4.773H67.32c3.84,4.686,7.827,9.245,11.942,13.686h436.753c4.114-4.441,8.101-9,11.942-13.686H305.151z
	 M378.573,260.143h-16.295l-16.164,59.331h25.606L378.573,260.143z M244.908,381.816c-16.621,0-30.095,13.474-30.095,30.095v34.88
	h2.314c-0.608,0.438-1.007,1.144-1.007,1.945v12.336h4.864v-12.336c0-0.802-0.399-1.507-1.007-1.945h5.686
	c-0.608,0.438-1.007,1.144-1.007,1.945v12.336h4.864v-12.336c0-0.802-0.399-1.507-1.007-1.945h5.686
	c-0.608,0.438-1.007,1.144-1.007,1.945v12.336h4.864v-12.336c0-0.802-0.399-1.507-1.007-1.945h5.686
	c-0.608,0.438-1.007,1.144-1.007,1.945v12.336h4.864v-12.336c0-0.802-0.399-1.507-1.007-1.945h5.686
	c-0.608,0.438-1.007,1.144-1.007,1.945v12.336h4.864v-12.336c0-0.802-0.399-1.507-1.007-1.945h5.686
	c-0.608,0.438-1.007,1.144-1.007,1.945v12.336h4.864v-12.336c0-0.802-0.399-1.507-1.007-1.945h5.686
	c-0.608,0.438-1.007,1.144-1.007,1.945v12.336h4.864v-12.336c0-0.802-0.399-1.507-1.007-1.945h5.686
	c-0.608,0.438-1.007,1.144-1.007,1.945v12.336h4.864v-12.336c0-0.802-0.399-1.507-1.007-1.945h5.686
	c-0.608,0.438-1.007,1.144-1.007,1.945v12.336h4.864v-12.336c0-0.802-0.399-1.507-1.007-1.945h5.686
	c-0.608,0.438-1.007,1.144-1.007,1.945v12.336h4.864v-12.336c0-0.802-0.399-1.507-1.007-1.945h5.686
	c-0.608,0.438-1.007,1.144-1.007,1.945v12.336h4.864v-12.336c0-0.802-0.399-1.507-1.007-1.945h5.686
	c-0.608,0.438-1.007,1.144-1.007,1.945v12.336h4.864v-12.336c0-0.802-0.399-1.507-1.007-1.945h2.241v-32.79
	c0-17.775,14.392-32.185,32.167-32.185H244.908z M3.313,319.474h25.606l6.853-59.331H19.478L3.313,319.474z M65.467,366.208h5.871
	l-4.618-33.593h-2.247l2.516,18.301L65.467,366.208z M163.641,224.221l-33.626,30.662v6.707l33.626-30.662V224.221z M225.281,197.85
	l-33.626,30.662v6.707l33.626-30.662V197.85z M286.921,224.221l-33.626,30.662v6.707l33.626-30.662V224.221z M77.925,199.554v34.27
	h4.568V196.84h-9.025v2.714H77.925z M65.166,233.824h1.554V196.84h-9.025v2.714h7.472V233.824z M29.799,199.554h3.447v34.27h8.615
	V196.84H29.799V199.554z M432.235,199.554h-3.736v34.27h3.736V199.554z M409.2,199.554v34.27h4.569V196.84h-9.025v2.714H409.2z
	 M396.441,199.554v34.27h1.554V196.84h-9.025v2.714H396.441z M364.521,233.824h8.615V196.84h-12.063v2.714h3.447V233.824z
	 M331.694,196.84h-13.715v36.984h13.715V196.84z M257.213,567.255c0.35-3.67-2.526-6.758-6.124-6.758h-17.8
	c-1.335,0-2.417-1.082-2.417-2.417c0-1.335,1.082-2.417,2.417-2.417h41.268c3.214,0,6.084-2.349,6.389-5.549
	c0.35-3.67-2.527-6.758-6.124-6.758H166.969c-3.214,0-6.083,2.349-6.389,5.549c-0.35,3.67,2.527,6.758,6.124,6.758h17.8
	c1.335,0,2.417,1.082,2.417,2.417c0,1.335-1.082,2.417-2.417,2.417h-26.567c8.463,4.507,17.169,8.617,26.094,12.306h66.793
	C254.038,572.804,256.908,570.455,257.213,567.255z M178.982,532.095c0.35-3.67-2.527-6.757-6.124-6.757h-17.8
	c-1.335,0-2.417-1.082-2.417-2.417c0-1.335,1.082-2.417,2.417-2.417l41.269,0c3.214,0,6.084-2.35,6.389-5.549
	c0.35-3.67-2.527-6.758-6.124-6.758h-66.106c-0.51-2.883-3.015-5.077-6.045-5.077H82.314c1.681,1.761,3.385,3.501,5.109,5.22
	c4.195,4.185,8.525,8.233,12.963,12.163h5.888c1.335,0,2.417,1.082,2.417,2.417c0,1.335-1.082,2.417-2.417,2.417h-0.292
	c5.069,4.271,10.281,8.376,15.63,12.306h50.982C175.807,537.644,178.676,535.294,178.982,532.095z M413.634,512.67
	c-0.35,3.67,2.526,6.757,6.124,6.757h2.517c2.427,0,4.395,1.968,4.395,4.395s-1.968,4.395-4.395,4.395h-48.839
	c-3.214,0-6.083,2.349-6.388,5.549c-0.35,3.67,2.526,6.758,6.124,6.758h50.982h45.551c5.094-3.616,10.059-7.401,14.909-11.322
	c-0.96-0.619-2.098-0.984-3.325-0.984h-2.637c-2.427,0-4.395-1.968-4.395-4.395s1.968-4.395,4.395-4.395h17.451
	c4.438-3.974,8.759-8.075,12.952-12.306h-89.032C416.809,507.122,413.939,509.471,413.634,512.67z M332.737,578.321H224.884
	c-3.214,0-6.083,2.349-6.389,5.549c-0.024,0.25-0.03,0.497-0.024,0.741c19.499,5.367,39.798,8.797,60.68,10.076
	c0.174-2.268,2.049-4.06,4.361-4.06h48.96c3.214,0,6.083-2.35,6.389-5.549C339.211,581.409,336.335,578.321,332.737,578.321z
	 M419.66,549.314h-6.768h-50.103h-50.982c-3.598,0-6.474,3.088-6.124,6.758c0.305,3.199,3.175,5.549,6.388,5.549h48.839
	c2.427,0,4.395,1.968,4.395,4.395s-1.968,4.395-4.395,4.395h-2.517c-3.597,0-6.474,3.088-6.124,6.758
	c0.305,3.199,3.175,5.549,6.389,5.549h24.726c11.495-3.453,22.696-7.581,33.56-12.341c-2.264-0.178-4.052-2.051-4.052-4.36
	c0-2.427,1.968-4.395,4.395-4.395h2.637c3.598,0,6.474-3.087,6.124-6.757C425.744,551.663,422.874,549.314,419.66,549.314z"></path>
<path id="color_x5F_4_36_" fill="#B05A2F" d="M462.269,163.566v218.25h-21.777v-15.608h-10.858V250.946h1.163l2.23-10.843h27.215
	v-6.278h-13.647v-34.27h-16.961v-35.988H462.269z M471.15,174.341v207.475h3.956v-203.52h89.16v251.72
	c1.358-2.73,2.68-5.48,3.956-8.257V174.341H471.15z M516.817,467.83h-5.182v2.295h28.59c0.931-1.307,1.838-2.633,2.749-3.956
	h-19.688C521.211,467.215,518.928,467.83,516.817,467.83z M494.107,467.83H471.15v2.295h22.957V467.83z M479.792,381.816h2.637
	V184.779h70.235v266.385c0.892-1.478,1.77-2.965,2.637-4.46V182.142h-75.509V381.816z M528.148,462.325h17.431
	c0.583-0.876,1.162-1.755,1.736-2.637h-17.657C529.309,460.621,528.798,461.507,528.148,462.325z M570.716,320.53v52.081h3.626
	V320.53H570.716z M322.679,381.816h39.553v-10.243h-39.553V381.816z M322.679,467.83v14.358h117.813v-6.073h21.777v-8.284H322.679z
	 M305.151,302.316h-6.531v-7.902h5.927c-1.647-2.109-2.637-4.756-2.637-7.639c0-6.867,5.567-12.435,12.435-12.435
	c6.867,0,12.435,5.567,12.435,12.435c0,2.883-0.99,5.53-2.637,7.639h-6.024v7.902h-4.124v3.285h-8.845V302.316z M311.967,283.431
	c0,3.539,2.869,6.407,6.407,6.407c3.538,0,6.407-2.869,6.407-6.407c0-3.539-2.869-6.407-6.407-6.407
	C314.836,277.024,311.967,279.892,311.967,283.431z M305.151,381.816h8.845v-65.808h-16.659v3.065h7.814V381.816z M305.151,486.16
	h8.845v-7.953l-8.845,4.506V486.16z M297.551,473.783l-8.684,4.424v7.953h8.684V473.783z M494.107,486.16h8.845v-7.953l-8.845,4.506
	V486.16z M116.035,294.414h-6.024v7.902h-4.123v63.892H97.4l-0.358-2.603v-61.288h-6.531v-7.902h5.927
	c-1.647-2.109-2.637-4.756-2.637-7.639c0-6.867,5.567-12.435,12.435-12.435c6.867,0,12.435,5.567,12.435,12.435
	C118.671,289.659,117.681,292.305,116.035,294.414z M116.673,283.431c0-3.539-2.869-6.407-6.407-6.407
	c-3.538,0-6.407,2.868-6.407,6.407c0,3.539,2.869,6.407,6.407,6.407C113.804,289.838,116.673,286.969,116.673,283.431z
	 M126.632,366.208v16.634c1.654-0.443,3.364-0.746,5.118-0.901v-24.086c-0.796-2.131-0.751-4.044,0-5.482v-36.365h-17.179v3.065
	h10.354v47.134H126.632z M158.231,349.704v-33.695h-19.78v3.065h12.954v30.63H158.231z M184.712,349.704v-33.695h-19.78v3.065
	h12.954v30.63H184.712z M211.193,374.935v-58.926h-19.78v3.065h12.954v41.287L211.193,374.935z M230.848,381.816h0.405
	c-0.138-0.16-0.275-0.321-0.405-0.485V381.816z M230.848,349.704h6.826v-33.695h-19.78v3.065h12.954V349.704z M257.329,349.704
	h6.826v-33.695h-19.78v3.065h12.954V349.704z M283.81,351.234c2.741,1.402,5.253,3.655,6.826,6.26v-41.485h-19.78v3.065h12.954
	V351.234z M297.813,448.737v5.932h3.672v-5.932c0-0.802,0.399-1.507,1.007-1.945h-5.686
	C297.414,447.229,297.813,447.935,297.813,448.737z M214.813,422.495h-88.18v32.174h89.488v-5.932c0-0.802,0.399-1.507,1.007-1.945
	h-2.314V422.495z M246.594,448.737v5.932h3.672v-5.932c0-0.802,0.399-1.507,1.007-1.945h-5.686
	C246.195,447.229,246.594,447.935,246.594,448.737z M263.667,448.737v5.932h3.672v-5.932c0-0.802,0.399-1.507,1.007-1.945h-5.686
	C263.268,447.229,263.667,447.935,263.667,448.737z M272.203,448.737v5.932h3.672v-5.932c0-0.802,0.399-1.507,1.007-1.945h-5.686
	C271.804,447.229,272.203,447.935,272.203,448.737z M255.13,448.737v5.932h3.672v-5.932c0-0.802,0.399-1.507,1.007-1.945h-5.686
	C254.731,447.229,255.13,447.935,255.13,448.737z M280.74,448.737v5.932h3.672v-5.932c0-0.802,0.399-1.507,1.007-1.945h-5.686
	C280.341,447.229,280.74,447.935,280.74,448.737z M229.521,448.737v5.932h3.672v-5.932c0-0.802,0.399-1.507,1.007-1.945h-5.686
	C229.122,447.229,229.521,447.935,229.521,448.737z M220.984,448.737v5.932h3.672v-5.932c0-0.802,0.399-1.507,1.007-1.945h-5.686
	C220.585,447.229,220.984,447.935,220.984,448.737z M238.057,448.737v5.932h3.672v-5.932c0-0.802,0.399-1.507,1.007-1.945h-5.686
	C237.658,447.229,238.057,447.935,238.057,448.737z M289.276,454.669h3.672v-5.932c0-0.802,0.399-1.507,1.007-1.945h-5.686
	c0.608,0.438,1.007,1.144,1.007,1.945V454.669z M310.022,454.669v-5.932c0-0.802,0.399-1.507,1.007-1.945h-5.686
	c0.608,0.438,1.007,1.144,1.007,1.945v5.932H310.022z M325.285,454.669v-32.174h0h-9.165v24.297h-2.241
	c0.608,0.438,1.007,1.144,1.007,1.945v5.932H325.285z M48.372,460.312v-88.739H9.261C17.433,403.543,30.793,433.431,48.372,460.312z
	 M173.736,273.156v-78.766h-54.799v39.434h2.855v-36.245h49.089v72.388h-49.089v-29.866h-2.855v33.054H173.736z M180.578,246.786
	V168.02h54.799v78.766H180.578z M232.521,171.209h-49.089v72.389h49.089V171.209z M242.218,273.156v-78.766h54.799v78.766H242.218z
	 M294.161,197.579h-49.088v72.388h49.088V197.579z M3.656,250.946H7.77v-10.843H5.578C4.874,243.695,4.229,247.308,3.656,250.946z
	 M95.958,240.102h-4.421v10.843h4.421V240.102z M106.457,199.557v-0.003h-5.497v34.27h5.497V199.557z M56.593,199.554v34.27h3.076
	v-34.27H56.593z M22.405,233.824h1.978V196.84h-3.736v2.714h1.758V233.824z M15.955,201.278c-1.989,5.815-3.792,11.716-5.424,17.688
	v14.858h5.424V201.278z M339.044,240.102h-4.421v10.843h4.421V240.102z M427.233,240.102h-4.421v10.843h4.421V240.102z
	 M390.944,199.554h-3.077v34.27h3.077V199.554z M353.68,233.824h1.978V196.84h-3.736v2.714h1.758V233.824z M347.23,193.294h-5.424
	v40.53h5.424V193.294z M316.475,233.824h-12.682v6.278h12.682V233.824z"></path>
<path id="color_x5F_3_40_" fill="#E19B4F" d="M493.487,160.609h7.979c0.768,0,1.39-0.622,1.39-1.39v-16.962
	c0-0.768-0.622-1.39-1.39-1.39h-7.979c-0.768,0-1.39,0.622-1.39,1.39v16.962C492.097,159.986,492.719,160.609,493.487,160.609z
	 M495.83,143.97h3.292v13.535h-3.292V143.97z M494.107,470.125v5.989h-31.838v-8.284h5.424v2.295H494.107z M595.276,297.638
	c0,25.238-3.154,49.738-9.067,73.14v-146.28C592.122,247.899,595.276,272.399,595.276,297.638z M475.105,178.296h85.703V436.75
	c-1.777,3.355-3.607,6.677-5.507,9.954V182.142h-75.509v199.675h-4.687V178.296z M528.148,462.325h17.431
	c-0.858,1.289-1.727,2.57-2.605,3.845h-19.688C525.184,465.213,526.902,463.893,528.148,462.325z M511.636,470.125h28.59
	c-1.436,2.016-2.898,4.011-4.383,5.989h-24.207v10.047h-8.684v-7.953l8.684-4.424V470.125z M462.269,163.566v218.25h5.424V174.341
	h100.528v247.418c5.149-11.207,9.627-22.784,13.373-34.688V208.204c-4.866-15.463-10.963-30.379-18.17-44.639H462.269z
	 M570.716,320.53h8.241v52.081h-8.241V320.53z M362.232,375.661h78.261v6.155h-41.704h-36.556V375.661z M318.374,277.024
	c3.538,0,6.407,2.868,6.407,6.407c0,3.539-2.869,6.407-6.407,6.407c-3.539,0-6.407-2.869-6.407-6.407
	C311.967,279.892,314.836,277.024,318.374,277.024z M313.996,316.009h-16.659v55.597l-6.038-12.893
	c-0.194-0.415-0.422-0.819-0.663-1.219v-41.485h-19.78v33.695h-6.701v-33.695h-19.78v33.695h-6.701v-33.695h-19.78v65.808h-4.1
	c-0.079-1.015-0.369-2.115-0.91-3.27l-1.691-3.611v-58.926h-19.78v34.11c-0.651-0.269-1.045-0.415-1.045-0.415h-5.656v-33.695
	h-19.78v33.695h-6.701v-33.695h-19.78v33.695h-1.553h0c-2.503,0-4.287,1.022-5.148,2.669v-36.365h-17.179v50.199h-8.684v-63.892
	h4.123v-7.902h10.811v7.902h-6.251v3.285h199.425v-3.285h4.124v-7.902h10.811v7.902h-6.251v79.5h-8.684V316.009z M313.996,478.207
	l8.684-4.424v12.377h-8.684V478.207z M110.266,289.838c-3.538,0-6.407-2.869-6.407-6.407c0-3.539,2.869-6.407,6.407-6.407
	c3.539,0,6.407,2.868,6.407,6.407C116.673,286.969,113.804,289.838,110.266,289.838z M138.451,381.816h-4.021
	c-0.904,0-1.797,0.047-2.68,0.125v-24.086c0.106,0.282,0.223,0.568,0.358,0.857l6.343,13.543V381.816z M316.12,418.948h9.165v3.547
	h-9.165V418.948z M530.172,454.669H325.285v-32.174h204.887L530.172,454.669z M48.372,408.444h78.261v-32.784H48.372V408.444z
	 M106.277,383.988c0,6.702-5.433,12.136-12.136,12.136H80.863c-6.702,0-12.136-5.433-12.136-12.136H106.277z M48.372,460.312
	c4.927,7.534,10.177,14.836,15.748,21.875h62.513v-32.784H48.372V460.312z M106.277,457.731c0,6.702-5.433,12.136-12.136,12.136
	H80.863c-6.702,0-12.136-5.433-12.136-12.136H106.277z M126.632,412.532H48.372v32.784h78.261v-22.821h88.18v-3.547h-88.18V412.532z
	 M94.141,432.995H80.863c-6.702,0-12.136-5.433-12.136-12.136h37.55C106.277,427.562,100.844,432.995,94.141,432.995z
	 M128.968,233.824v6.278h-27.215l-2.23,10.843h-3.565v-10.843H13.565l-2.23,10.843H7.77v-10.843H5.578
	c0.412-2.101,0.847-4.193,1.303-6.278h17.502V196.84h5.289h0.127v36.984h29.87v-34.27h5.497v34.27H128.968z M460.243,233.824v6.278
	h-27.215l-2.23,10.843h-3.565v-10.843h-82.394l-2.23,10.843h-3.565v-10.843h-22.569v-6.278h39.182V196.84h5.289h0.127v36.984h29.87
	v-34.27h5.497v34.27H460.243z M471.359,55.95H123.917c2.017-1.452,4.051-2.881,6.105-4.283h335.233
	C467.308,53.069,469.342,54.498,471.359,55.95z M436.444,34.306H158.832C200.278,12.413,247.505,0,297.638,0
	S394.998,12.413,436.444,34.306z M457.264,46.393H138.011c2.417-1.539,4.863-3.036,7.327-4.507h304.598
	C452.401,43.356,454.847,44.854,457.264,46.393z"></path>
<path id="color_x5F_2_39_" fill="#0091A2" d="M539.202,123.747v24.881h-36.345v-6.37c0-0.768-0.622-1.39-1.39-1.39h-7.979
	c-0.768,0-1.39,0.622-1.39,1.39v6.37h-36.345v-24.994h83.368C539.146,123.671,539.174,123.709,539.202,123.747z M106.273,520.503
	h-5.888c1.845,1.634,3.71,3.246,5.595,4.835h0.292c1.335,0,2.417-1.082,2.417-2.417C108.69,521.586,107.608,520.503,106.273,520.503
	z M474.257,523.823c0,2.427,1.968,4.395,4.395,4.395h2.637c1.227,0,2.365,0.366,3.325,0.984c3.912-3.163,7.744-6.421,11.489-9.774
	h-17.451C476.224,519.428,474.257,521.395,474.257,523.823z M82.314,503.12h42.126c3.03,0,5.534,2.194,6.045,5.077h66.106
	c3.598,0,6.474,3.088,6.124,6.758c-0.305,3.199-3.175,5.549-6.389,5.549l-41.269,0c-1.335,0-2.417,1.082-2.417,2.417
	c0,1.335,1.082,2.417,2.417,2.417h17.8c3.598,0,6.474,3.088,6.124,6.757c-0.305,3.199-3.175,5.549-6.389,5.549h-50.982
	c11.507,8.454,23.643,16.099,36.326,22.854h26.567c1.335,0,2.417-1.082,2.417-2.417c0-1.335-1.082-2.417-2.417-2.417h-17.8
	c-3.598,0-6.474-3.088-6.124-6.758c0.305-3.199,3.175-5.549,6.389-5.549h107.853c3.598,0,6.474,3.088,6.124,6.758
	c-0.305,3.199-3.175,5.549-6.389,5.549h-41.268c-1.335,0-2.417,1.082-2.417,2.417c0,1.335,1.082,2.417,2.417,2.417h17.8
	c3.598,0,6.474,3.088,6.124,6.758c-0.305,3.199-3.175,5.549-6.389,5.549h-66.793c11.155,4.611,22.65,8.562,34.439,11.807
	c-0.005-0.244,0-0.491,0.024-0.741c0.305-3.199,3.175-5.549,6.389-5.549h107.853c3.598,0,6.474,3.088,6.124,6.757
	c-0.305,3.199-3.175,5.549-6.389,5.549h-48.96c-2.313,0-4.188,1.792-4.361,4.06c6.116,0.375,12.276,0.588,18.487,0.588
	c29.812,0,58.591-4.403,85.746-12.56h-24.726c-3.214,0-6.084-2.349-6.389-5.549c-0.35-3.67,2.527-6.758,6.124-6.758h2.517
	c2.427,0,4.395-1.968,4.395-4.395s-1.968-4.395-4.395-4.395h-48.839c-3.214,0-6.083-2.349-6.388-5.549
	c-0.35-3.67,2.526-6.758,6.124-6.758h50.982h50.103h6.768c3.214,0,6.083,2.35,6.389,5.549c0.35,3.67-2.527,6.757-6.124,6.757h-2.637
	c-2.427,0-4.395,1.968-4.395,4.395c0,2.31,1.788,4.182,4.052,4.36c18.662-8.175,36.332-18.192,52.76-29.852h-45.551h-50.982
	c-3.598,0-6.474-3.088-6.124-6.758c0.305-3.199,3.175-5.549,6.388-5.549h48.839c2.427,0,4.395-1.968,4.395-4.395
	s-1.968-4.395-4.395-4.395h-2.517c-3.598,0-6.474-3.088-6.124-6.757c0.305-3.199,3.175-5.549,6.389-5.549h89.032
	c2.362-2.384,4.679-4.813,6.96-7.275H79.261C80.275,500.941,81.284,502.041,82.314,503.12z M371.72,319.474l6.853-59.331h31.093
	l16.164,59.332L371.72,319.474z M396.413,263.575l9.49,52.467h15.192l-16.164-52.467H396.413z M522.652,412.389
	c-0.84-17.026-14.91-30.573-32.144-30.573H348.286c-17.775,0-32.167,14.41-32.167,32.185v4.947h9.165h197.408v-4.947
	C522.693,413.461,522.678,412.923,522.652,412.389z M83.029,319.474l-54.11,0l6.853-59.331h31.093L83.029,319.474z M75.187,316.098
	l-12.699-52.579h-8.955l7.581,52.579H75.187z M97.4,366.208H71.338l-4.618-33.593h26.062L97.4,366.208z M94.186,364.441
	l-3.967-28.855H70.099l3.967,28.855H94.186z M363.694,363.231l4.564-6.736h-30.724l-3.705,6.736H363.694z M166.396,265.95h-40.118
	v-25.848h2.69v-6.278h-2.69v-32.227h40.118V265.95z M163.641,224.221l-33.626,30.662v6.707l33.626-30.662V224.221z M163.641,205.057
	l-33.626,30.662v14.373l33.626-31.62V205.057z M228.036,239.58h-40.118v-64.353h40.118V239.58z M225.281,197.85l-33.626,30.662
	v6.707l33.626-30.662V197.85z M225.281,178.687l-33.626,30.662v14.373l33.626-31.62V178.687z M289.676,265.95h-40.118v-64.353
	h40.118V265.95z M286.921,224.221l-33.626,30.662v6.707l33.626-30.662V224.221z M286.921,205.057l-33.626,30.662v14.373
	l33.626-31.62V205.057z M87.99,196.84h-5.497v36.984h5.497V196.84z M71.115,196.84H66.72v36.984h4.395V196.84z M47.359,196.84
	h-5.497v36.984h5.497V196.84z M437.732,199.557v-0.003h-5.497v34.27h5.497V199.557z M419.265,196.84h-5.497v36.984h5.497V196.84z
	 M402.389,196.84h-4.395v36.984h4.395V196.84z M378.633,196.84h-4.835h-0.662v36.984h5.497V196.84z M337.191,196.84h-5.497v36.984
	h5.497V196.84z"></path>
<path id="color_x5F_1_38_" fill="#96D5D0" d="M138.451,372.256l2.946,6.29c0.541,1.155,1.282,2.256,2.153,3.271h-5.099V372.256z
	 M204.367,360.361v-41.287h-12.954v31.045c2.782,1.149,10.294,4.561,12.182,8.593L204.367,360.361z M126.632,481.388h153.389V467.83
	H126.632V481.388z M297.551,481.388h7.6V467.83h-7.6V481.388z M297.336,371.605l3.251,6.941c0.541,1.155,0.831,2.255,0.91,3.27
	h3.654v-62.742h-7.814V371.605z M270.856,349.704h7.216c1.86,0,3.852,0.564,5.739,1.53v-32.16h-12.954V349.704z M224.601,349.704
	h6.247v-30.63h-12.954v62.742h12.954v-0.485c-0.696-0.878-1.293-1.812-1.748-2.785l-9.288-19.833
	C217.482,353.737,219.626,349.704,224.601,349.704z M164.932,319.074v30.63h12.954v-30.63H164.932z M244.375,319.074v30.63h12.954
	v-30.63H244.375z M151.406,319.074h-12.954v30.63h12.954V319.074z M63.564,366.208h1.903l0.8-8.038
	c-1.221,1.3-2.569,2.502-4.042,3.576L63.564,366.208z M114.571,366.208h10.354v-47.134h-10.354V366.208z M539.202,123.747v24.881
	h-1.204v14.939h25.426C556.379,149.627,548.269,136.32,539.202,123.747z M539.119,123.633h-83.368v1.204H444.05v38.729h-14.415
	v35.988h-1.135v-6.259h-9.234v3.546h-14.522v2.714h-2.354v-2.714h-13.42v2.714h-1.102v-6.259h-14.069v3.546h-21.877v2.714h-4.692
	v-6.259h-10.039v3.546h-19.212v36.984h-14.185v6.278h30.83v10.843h7.986l2.23-10.843h77.973v10.843h6.823v115.262h-23.269
	l-1.339-4.462c6.755-4.925,11.069-12.412,11.069-20.799c0-8.778-4.725-16.572-12.029-21.472h21.765l-16.164-59.332h-47.387
	l-16.164,59.332h21.765c-7.304,4.901-12.029,12.694-12.029,21.472c0,4.538,1.271,8.807,3.5,12.555h-23.277l-7.412,12.707h-5.983
	v-63.892h6.251v-7.902h-4.787c1.647-2.109,2.637-4.756,2.637-7.639c0-6.867-5.567-12.435-12.435-12.435
	c-6.868,0-12.435,5.567-12.435,12.435c0,2.883,0.99,5.53,2.637,7.639h-5.927v7.902h6.531v3.285h-190.58v-3.285h6.251v-7.902h-4.787
	c1.647-2.109,2.637-4.756,2.637-7.639c0-6.867-5.567-12.435-12.435-12.435c-6.868,0-12.435,5.567-12.435,12.435
	c0,2.883,0.99,5.53,2.637,7.639h-5.927v7.902h6.531v61.288l-4.26-30.99H71.808c-1.936-5.293-5.66-9.864-10.544-13.14h21.765
	l-16.164-59.332H35.772H19.478L3.313,319.474v0h21.765c-7.304,4.901-12.029,12.694-12.029,21.472
	c0,8.387,4.313,15.874,11.068,20.799l-1.339,4.462H7.952C2.76,344.192,0,321.238,0,297.638c0-15.887,1.258-31.479,3.656-46.692
	h7.679l2.23-10.843h77.972v10.843h7.986l2.23-10.843h15.426v33.054h56.557v-78.766h-56.557v39.434h-1.859v-34.27H97.224v-6.259
	H87.99v3.546H73.468v2.714h-2.354v-2.714h-13.42v2.714h-1.102v-6.259H42.524v3.546H20.647v2.714h-4.084
	C36.884,141.315,74.784,91.328,123.917,55.95h347.442C497.422,74.716,520.322,97.593,539.119,123.633z M285.122,146.051
	c6.464,0,11.703-5.24,11.703-11.704V95.451c0-6.464-5.24-11.704-11.703-11.704l-161.782,0v0v62.304H285.122z M235.376,168.02H178.82
	v78.766h56.557V168.02z M297.017,194.391H240.46v78.766h56.557V194.391z"></path>
</svg>