<?xml version="1.0" standalone="no"?>
<svg version="1.1" id="Layer_1" xmlns="http://www.w3.org/2000/svg" xmlns:xlink="http://www.w3.org/1999/xlink" x="0px" y="0px" viewBox="0 0 595.276 595.276" enable-background="new 0 0 595.276 595.276" xml:space="preserve">
<path id="color_x5F_9_28_" fill="#009681" d="M249.839,398.409c0.432-0.6-0.257-1.292-0.81-0.81
	c-1.984,1.729-4.116,4.222-6.974,4.125c0.686-1.547,1.627-3.037,2.915-4.46c0.494-0.546-0.314-1.358-0.81-0.81
	c-2.279,2.519-3.581,5.219-4.239,8.089c-2.117-2.613-4.385-5.16-7.384-6.746c-0.652-0.345-1.23,0.645-0.578,0.989
	c3.16,1.671,5.48,4.461,7.685,7.223c-0.208,1.356-0.264,2.757-0.251,4.185H224.72c0.298-0.677,0.585-1.309,0.653-1.304
	c3.009,0.198,5.596-1.15,7.853-3.032c0.567-0.473-0.248-1.279-0.81-0.81c-2.033,1.696-4.335,2.874-7.042,2.697
	c-0.014-0.001-0.023,0.005-0.037,0.005c0.581-2.932,0.476-6.049,0.017-9.037c-0.112-0.728-1.216-0.417-1.105,0.305
	c0.316,2.052,0.459,4.192,0.293,6.282c-2.946-1.158-4.715-4.339-5.776-7.159c-0.258-0.685-1.365-0.386-1.105,0.305
	c1.232,3.275,3.271,6.805,6.741,8.031c-0.178,1.279-0.479,2.53-0.945,3.719H211.55c-0.337-2.257-0.352-4.4,0.164-6.491
	c0.06,0.127,3.813,0.541,5.355-0.334c0.642-0.365,0.064-1.354-0.578-0.989c-1.293,0.734-4.431,0.478-4.54,0.534
	c0.363-1.164,0.872-2.319,1.601-3.474c0.395-0.626-0.597-1.201-0.99-0.578c-1.495,2.373-2.192,4.784-2.35,7.281
	c-2.774-1.198-4.111-3.73-4.91-6.572c-0.2-0.71-1.305-0.406-1.105,0.305c0.944,3.357,2.617,6.213,5.984,7.496
	c0.006,0.926,0.096,1.869,0.225,2.822h-8.707c-0.077-0.739-0.207-1.472-0.422-2.195c0.193,0.019,1.714-2.333,2.249-3.403
	c0.329-0.658-0.66-1.238-0.989-0.578c-0.501,1.002-1.005,2.006-1.604,2.954c-0.703-1.896-1.714-3.739-2.563-5.532
	c-0.316-0.667-1.303-0.085-0.989,0.578c1.232,2.601,2.904,5.32,3.197,8.176H187.71c0,0,0,0,0,0
	c1.125-7.812,7.8-14.598,15.662-15.637c3.076-0.406,6.197-0.023,9.299-0.113c2.268-0.066,4.621-0.44,6.618-1.454
	c0.733-0.372,1.421-0.824,2.034-1.388c1.637-1.503,2.635-3.629,4.382-5.002c0.27-0.212,0.562-0.374,0.851-0.542
	c3.027-1.761,7.011-1.231,10.534-0.497c3.858,0.804,8.185,1.618,11.493-0.525c1.544-1,2.687-2.549,3.841-4.046
	c1.383-1.793,2.78-3.512,4.899-4.117c3.754-1.071,7.334,2.01,9.874,4.976c2.54,2.965,5.523,6.377,9.423,6.206
	c3.19-0.14,6.067-2.757,9.214-2.214c2.754,0.475,4.502,3.168,5.679,5.703c0.596,1.282,1.178,2.638,1.921,3.845
	c0.726,1.18,1.605,2.217,2.805,2.9c2.636,1.501,5.967,0.805,8.888,1.619c1.399,0.39,2.635,1.177,3.64,2.204
	c2.048,2.093,3.115,5.199,2.519,8.08c0,0,0,0,0,0h-18.184c0.902-1.076,2.25-2.357,2.282-2.392c1.376-1.109,2.921-1.889,4.464-2.064
	c0.725-0.082,0.732-1.229,0-1.146c-1.728,0.196-3.436,0.994-4.953,2.154c-2.919-1.576-3.849-4.867-5.438-7.599
	c-0.371-0.638-1.361-0.06-0.989,0.578c1.63,2.804,2.643,6.074,5.489,7.804c-0.857,0.784-1.599,1.701-2.251,2.663h-10.527
	c-0.081-1.307-0.244-2.62-0.538-3.905c0.244,0.022,1.829-4.655,4.144-6.446c0.581-0.449-0.33-1.371-0.81-0.81
	c-1.553,1.816-2.974,3.648-3.686,5.926c-0.819-2.713-2.203-5.215-4.384-7.072c-0.559-0.476-1.372,0.332-0.81,0.81
	c1.126,0.959,2.007,2.108,2.718,3.358c-2.34,0.454-4.784,0.25-6.491-1.59c-0.503-0.542-1.311,0.27-0.81,0.81
	c2.013,2.169,4.953,2.428,7.718,1.866c0.051-0.01,0.085-0.034,0.125-0.053c1.027,2.198,1.53,4.662,1.682,7.107H259.18
	c0.41-3.894,1.306-7.745,2.846-11.332c0.005,0,0.008,0.002,0.012,0.002c3.324-0.088,6.204-1.48,8.712-3.605
	c0.564-0.478-0.251-1.284-0.81-0.81c-2.138,1.812-4.581,3.023-7.371,3.229c0.507-1.062,1.056-2.105,1.683-3.108
	c0.392-0.628-0.599-1.202-0.989-0.578c-1.422,2.274-2.519,4.719-3.361,7.253c-2.052-2.525-3.677-5.315-6.454-7.172
	c-0.615-0.411-1.188,0.581-0.578,0.989c2.846,1.903,4.451,4.921,6.619,7.475c-0.73,2.494-1.204,5.067-1.47,7.657h-17.539
	c-0.09-3.343,0.848-6.586,1.168-7.46C241.734,402.809,246.76,402.683,249.839,398.409z M119.442,397.685
	c-0.028-0.004-0.054-0.011-0.082-0.015c-2.463-0.326-4.963-0.018-7.447-0.09c-2.483-0.072-5.099-0.595-6.929-2.276
	c-1.311-1.204-2.111-2.906-3.509-4.006c-2.481-1.951-6.027-1.476-9.117-0.832c-3.09,0.644-6.555,1.296-9.204-0.42
	c-1.553-1.006-2.605-2.698-3.798-4.137c-0.895-1.079-1.867-2.02-3.201-2.4c-1.384-0.395-2.737-0.081-3.994,0.6
	c-1.474,0.798-2.816,2.103-3.914,3.384c-2.034,2.375-4.423,5.107-7.547,4.97c-2.555-0.112-4.859-2.208-7.379-1.773
	c-2.124,0.366-3.496,2.38-4.437,4.341c-0.036,0.076-0.076,0.151-0.111,0.227c-0.943,2.03-1.84,4.295-3.785,5.402
	c-2.111,1.202-4.778,0.645-7.118,1.297c-3.405,0.949-5.644,4.797-4.932,8.236h3.155H47.5c-0.722-0.861-1.802-1.887-1.828-1.915
	c-1.102-0.888-2.339-1.513-3.575-1.653c-0.581-0.066-0.586-0.984,0-0.918c1.384,0.157,2.752,0.796,3.966,1.725
	c2.338-1.262,3.083-3.898,4.355-6.086c0.297-0.511,1.09-0.048,0.792,0.463c-1.305,2.246-2.116,4.865-4.396,6.25
	c0.687,0.628,1.28,1.362,1.803,2.133h8.43c0.064-1.047,0.195-2.098,0.431-3.128c-0.196,0.017-1.465-3.728-3.319-5.163
	c-0.465-0.36,0.264-1.098,0.649-0.649c1.244,1.454,2.382,2.921,2.952,4.746c0.656-2.173,1.764-4.176,3.511-5.664
	c0.447-0.381,1.099,0.266,0.649,0.649c-0.902,0.768-1.607,1.688-2.177,2.689c1.874,0.364,3.831,0.2,5.199-1.273
	c0.403-0.434,1.05,0.216,0.649,0.649c-1.612,1.737-3.966,1.945-6.181,1.494c-0.041-0.008-0.068-0.028-0.1-0.043
	c-0.822,1.76-1.225,3.734-1.347,5.692h16.704c-0.328-3.119-1.046-6.203-2.279-9.075c-0.004,0-0.006,0.002-0.01,0.002
	c-2.662-0.071-4.968-1.185-6.977-2.887c-0.451-0.382,0.201-1.029,0.649-0.649c1.712,1.451,3.669,2.421,5.904,2.586
	c-0.406-0.85-0.846-1.686-1.348-2.489c-0.314-0.503,0.48-0.963,0.792-0.463c1.139,1.822,2.017,3.779,2.692,5.809
	c1.643-2.022,2.945-4.257,5.168-5.744c0.493-0.329,0.952,0.466,0.463,0.792c-2.279,1.524-3.565,3.941-5.301,5.986
	c0.585,1.997,0.964,4.058,1.177,6.132h14.046c0.072-2.677-0.679-5.274-0.935-5.975c-0.07,0.061-4.096-0.04-6.561-3.463
	c-0.346-0.48,0.205-1.035,0.649-0.649c1.589,1.384,3.297,3.382,5.585,3.303c-0.549-1.239-1.303-2.432-2.334-3.572
	c-0.395-0.437,0.252-1.088,0.649-0.649c1.825,2.017,2.868,4.179,3.394,6.478c1.695-2.092,3.511-4.133,5.914-5.403
	c0.522-0.276,0.985,0.516,0.463,0.792c-2.531,1.338-4.388,3.572-6.154,5.785c0.166,1.086,0.212,2.208,0.201,3.351h11.75
	c-0.238-0.542-0.468-1.048-0.523-1.045c-2.41,0.158-4.481-0.921-6.289-2.428c-0.454-0.379,0.198-1.025,0.649-0.649
	c1.628,1.358,3.472,2.302,5.64,2.16c0.011-0.001,0.019,0.004,0.03,0.004c-0.465-2.348-0.381-4.845-0.013-7.237
	c0.09-0.583,0.974-0.334,0.885,0.244c-0.253,1.643-0.367,3.357-0.234,5.031c2.359-0.928,3.776-3.475,4.626-5.734
	c0.206-0.548,1.093-0.309,0.885,0.244c-0.986,2.623-2.62,5.45-5.399,6.432c0.143,1.024,0.384,2.027,0.757,2.979h9.535
	c0.27-1.807,0.282-3.523-0.132-5.198c-0.048,0.102-3.054,0.434-4.288-0.268c-0.514-0.292-0.051-1.084,0.463-0.792
	c1.036,0.588,3.549,0.383,3.636,0.428c-0.291-0.932-0.699-1.857-1.282-2.782c-0.316-0.501,0.478-0.961,0.792-0.463
	c1.197,1.9,1.756,3.831,1.882,5.831c2.222-0.959,3.292-2.987,3.932-5.263c0.16-0.569,1.045-0.325,0.885,0.244
	c-0.756,2.689-2.096,4.976-4.792,6.003c-0.005,0.741-0.077,1.496-0.18,2.26h6.973c0.062-0.592,0.166-1.179,0.338-1.758
	c-0.155,0.015-1.373-1.869-1.801-2.725c-0.264-0.527,0.528-0.991,0.792-0.463c0.401,0.802,0.805,1.606,1.284,2.365
	c0.563-1.519,1.373-2.995,2.053-4.43c0.253-0.534,1.044-0.068,0.792,0.463c-0.987,2.083-2.326,4.261-2.56,6.548h10.304c0,0,0,0,0,0
	c-0.285-1.982-1.019-3.88-2.086-5.576C127.532,400.981,123.71,398.277,119.442,397.685z M528.567,411.815h12.866
	c-0.079-0.547-0.191-1.087-0.323-1.622c-1.749-7.11-8.028-13.049-15.339-14.015c-1.761-0.233-3.537-0.206-5.316-0.158
	c-1.328,0.036-2.657,0.083-3.983,0.045c-3.101-0.09-6.367-0.743-8.652-2.841c-1.636-1.503-2.635-3.629-4.382-5.002
	c-2.37-1.863-5.516-1.95-8.592-1.531c-0.946,0.129-1.885,0.303-2.792,0.491c-0.251,0.052-0.509,0.103-0.763,0.154
	c0.119,5.438,0.234,10.802,0.368,16.006c1.455-1.541,3.056-2.924,4.948-3.925c0.652-0.345,1.23,0.645,0.578,0.989
	c-2.139,1.131-3.889,2.778-5.483,4.579c0.062,2.312,0.127,4.594,0.2,6.829h12.522c-0.298-0.677-0.585-1.309-0.653-1.304
	c-3.009,0.198-5.596-1.15-7.853-3.032c-0.567-0.473,0.248-1.279,0.81-0.81c2.033,1.696,4.335,2.875,7.042,2.697
	c0.014-0.001,0.024,0.005,0.037,0.005c-0.581-2.932-0.476-6.049-0.017-9.037c0.112-0.728,1.216-0.417,1.105,0.305
	c-0.316,2.052-0.459,4.192-0.293,6.282c2.946-1.158,4.715-4.339,5.776-7.16c0.258-0.685,1.365-0.386,1.105,0.305
	c-1.232,3.275-3.271,6.805-6.741,8.031c0.178,1.279,0.479,2.531,0.945,3.719h11.906c0.337-2.257,0.352-4.4-0.164-6.491
	c-0.06,0.127-3.813,0.541-5.355-0.334c-0.642-0.365-0.064-1.354,0.578-0.989c1.293,0.734,4.431,0.478,4.54,0.534
	c-0.363-1.164-0.872-2.318-1.601-3.474c-0.395-0.626,0.597-1.201,0.99-0.578c1.495,2.373,2.192,4.784,2.349,7.281
	c2.774-1.198,4.111-3.73,4.91-6.572c0.2-0.71,1.305-0.406,1.105,0.305c-0.945,3.357-2.617,6.213-5.984,7.496
	c-0.006,0.925-0.096,1.869-0.225,2.822h8.707c0.077-0.739,0.207-1.472,0.422-2.195c-0.193,0.019-1.714-2.333-2.249-3.403
	c-0.329-0.658,0.659-1.238,0.989-0.578c0.501,1.001,1.005,2.006,1.604,2.954c0.703-1.896,1.714-3.739,2.563-5.532
	c0.316-0.667,1.303-0.085,0.99,0.578C530.532,406.24,528.86,408.959,528.567,411.815z M405.337,403.176
	c-0.002,0.054-0.004,0.108-0.006,0.162c0.03,0,0.059,0.008,0.089,0.007C405.395,403.288,405.363,403.233,405.337,403.176z
	 M408.084,411.815h0.187c0.093-1.667,0.185-3.357,0.275-5.07c-0.239,0.295-0.477,0.59-0.713,0.886
	C408.04,408.986,408.096,410.387,408.084,411.815z M405.843,387.939c-0.118,4.321-0.257,8.644-0.417,12.954
	c0.513,0.843,0.941,1.704,1.292,2.582c0.351,0.878,0.627,1.774,0.836,2.688c0.357-0.441,0.722-0.878,1.091-1.311
	c0.295-5.647,0.585-11.515,0.901-17.501C408.989,387.464,406.515,387.876,405.843,387.939z M405.292,404.349
	c-0.099,2.495-0.204,4.984-0.315,7.466h2.02c0.09-3.343-0.848-6.586-1.168-7.46C405.813,404.369,405.617,404.376,405.292,404.349z
	 M305.489,446.779c-4.234-0.112-7.902-1.884-11.096-4.592c-0.718-0.608,0.319-1.636,1.032-1.032c2.723,2.307,5.835,3.85,9.389,4.113
	c-0.645-1.353-1.345-2.681-2.143-3.958c-0.5-0.799,0.763-1.531,1.26-0.736c1.811,2.897,3.208,6.01,4.28,9.238
	c2.484-3.057,4.493-6.407,7.721-8.764c-0.428-6.669-0.827-13.495-1.185-20.419c-0.947-0.836-2-1.5-3.253-1.857
	c-4.782-1.364-9.341,2.56-12.576,6.337s-7.034,8.122-12.002,7.904c-4.063-0.178-7.727-3.511-11.735-2.82
	c-3.507,0.605-5.734,4.035-7.233,7.264c-1.499,3.228-2.927,6.83-6.02,8.591c-3.357,1.911-7.599,1.025-11.32,2.063
	c-5.415,1.51-8.976,7.628-7.844,13.098h23.16c-1.148-1.37-2.865-3.001-2.907-3.046c-1.753-1.413-3.72-2.406-5.685-2.628
	c-0.924-0.105-0.932-1.565,0-1.459c2.201,0.249,4.376,1.266,6.308,2.743c3.718-2.007,4.903-6.198,6.925-9.678
	c0.472-0.812,1.733-0.077,1.26,0.737c-2.076,3.572-3.366,7.736-6.991,9.94c1.092,0.999,2.036,2.166,2.867,3.392h13.407
	c0.103-1.665,0.31-3.337,0.685-4.974c-0.311,0.028-2.33-5.929-5.278-8.21c-0.739-0.572,0.421-1.747,1.032-1.032
	c1.979,2.313,3.788,4.646,4.695,7.548c1.043-3.456,2.806-6.642,5.583-9.007c0.711-0.606,1.748,0.422,1.032,1.032
	c-1.434,1.221-2.556,2.684-3.462,4.276c2.98,0.578,6.093,0.318,8.268-2.025c0.641-0.69,1.67,0.344,1.032,1.032
	c-2.564,2.763-6.308,3.093-9.83,2.376c-0.064-0.013-0.108-0.044-0.16-0.068c-1.308,2.799-1.949,5.938-2.142,9.052h26.566
	c-0.522-4.96-1.663-9.865-3.624-14.433C305.499,446.776,305.495,446.779,305.489,446.779z M354.229,456.106l-0.147,3.46
	c0.16,0.556,0.336,1.106,0.546,1.644h1.159l-0.113-5.91C355.217,455.606,354.736,455.873,354.229,456.106z M308.737,451.457
	c0.93,3.177,1.534,6.454,1.872,9.752h6.732c-0.449-5.963-0.885-12.12-1.296-18.427C313.096,445.197,311.197,448.558,308.737,451.457
	z M355.526,447.563c-0.012-0.603-0.907-0.614-0.933-0.011l-0.294,6.897c0.472-0.266,0.921-0.566,1.341-0.908L355.526,447.563z"></path>
<path id="color_x5F_8_36_" fill="#FAB49B" d="M451.936,242.051c5.628-2.726,10.055-5.398,12.111-8.03
	c4.273-5.469,7.746-11.001,10.219-15.296c-9.266,2.231-11.979,9.187-14.256,10.163c-3.299-0.388-5.822,1.358-4.657,2.911
	C456.282,233.038,450.543,237.246,451.936,242.051z M461.478,229.467c0.554-0.735,1.427-1.011,1.951-0.616
	c0.523,0.394,0.499,1.31-0.055,2.045c-0.554,0.735-1.427,1.011-1.95,0.617C460.899,231.117,460.924,230.202,461.478,229.467z
	 M334.291,132.1c1.536,7.223,5.125,14.371,10.56,19.168l-1.115,8.65l10.541,11.097c2.538,2.672,4.121,6.11,4.5,9.776l0.853,8.25
	l0.853-8.25c0.379-3.666,1.962-7.104,4.5-9.776l10.541-11.097l-1.002-7.772c-0.708,2.232-1.561,4.126-2.376,5.41
	c-3.697,5.824-13.042,6.522-18.49,2.951c-3.631-2.38-6.192-5.686-7.876-8.469c3.888,3.121,8.637,5.077,14.215,5.077
	c5.899,0,10.781-2.092,14.668-5.411c3.25-2.775,5.796-6.409,7.63-10.442c1.223-2.689,2.145-5.543,2.735-8.433
	c2.066,2.154,5.436,0.376,7.57-3.038c2.258-3.613,3.312-10.84,0-12.798c-1.446-0.855-2.789-0.565-3.846,0.028
	c-1.002,2.713-1.77,4.597-1.967,5.211l-2.368-22.813c-14.286,7.66-24.198-0.984-32.672-6.662
	c-7.753-5.195-13.099,2.308-14.442,4.506c-1.069,1.787,0.964,5.938,0.669,8.015l-4.598,15.892c-0.12-0.462-0.776-1.868-1.651-3.919
	c-0.261-0.24-0.563-0.486-0.903-0.706c-1.097-0.712-2.566-1.152-4.157-0.212c-0.103,0.061-0.189,0.141-0.284,0.212
	c-2.949,2.206-1.904,9.084,0.284,12.585C328.817,132.579,332.23,134.353,334.291,132.1z M348.108,121.838
	c-1.366,0-2.473-1.514-2.473-3.382c0-1.868,1.107-3.382,2.473-3.382s2.473,1.514,2.473,3.382
	C350.581,120.324,349.474,121.838,348.108,121.838z M367.989,141.206c-4.876,3.179-11.911,3.156-16.73-0.085
	c-1.504-1.012-0.853-2.686,0.643-1.68c3.484,2.343,11.908,2.39,15.444,0.085C368.86,138.54,369.512,140.213,367.989,141.206z
	 M371.151,121.838c-1.366,0-2.473-1.514-2.473-3.382c0-1.868,1.107-3.382,2.473-3.382c1.366,0,2.473,1.514,2.473,3.382
	C373.623,120.324,372.516,121.838,371.151,121.838z M379.347,109.753c0.357-0.502-13.044,0.521-14.929,1.071
	C357.35,103.858,382.276,105.635,379.347,109.753z M360.559,132.621c1.885-1.581,0.748-4.321,0.008-6.182
	c-0.392-0.984,1.235-1.641,1.696-0.715c1.078,2.169,2.36,4.84,1.286,7.256c-0.805,1.812-5.602,1.773-5.571,1.39
	C358.09,132.983,359.729,133.318,360.559,132.621z M354.89,110.673c-1.897-0.508-15.316-1.237-14.949-0.742
	C336.923,105.878,361.804,103.553,354.89,110.673z M382.752,314.156c-0.201-0.076-0.391-0.13-0.583-0.187
	c-1.355,2.612-2.584,4.182-2.584,4.182s0.04-0.8,0.01-2.07c-0.102-4.187-0.991-13.548-6.75-16.754
	c-6.107-3.4-9.107-7.599-10.594-11.076c-1.662,5.002-5.403,10.662-13.682,13.099c1.618,0.629,2.251,1.671,2.251,1.671l-14.216,3.673
	c0,0,0.027-0.158,0.111-0.416c-5.197,4.891-4.886,11.873-4.886,11.873l-0.001-0.001c-0.007-0.009-1.735-2.319-3.379-5.974
	c-0.253,0.068-0.51,0.148-0.779,0.249c-0.749,0.284-1.307,0.829-1.721,1.519l-14.488-36.35l3.323-23.633l-22.261-3.315
	c-2.386,16.319-3.572,28.501-3.572,28.501l38.664,67.743l-0.951,6.183c0,0-0.267,2.866,0.924,5.307
	c0.722,1.479,1.978,2.803,4.157,3.238c1.848,7.622,4.619,8.084,4.619,8.084l-0.924-8.315l3.695,6.929l1.575-0.434l2.079-0.573
	l3.737,0.083l0.462-8.315c1.848,4.619,5.312,5.312,5.312,5.312s-0.63-4.077-1.576-8.53c2.36,2.84,4.814,5.304,4.814,5.304
	s8.496-9.122,8.496-12.514l-0.266-1.58l-0.766-4.561c2.704-0.878,5.117-2.246,7.212-4.089c2.03-1.787,3.769-4.01,5.177-6.675
	c0.449-0.85,0.851-1.773,1.224-2.731c0.929,0.095,1.609-0.048,1.609-0.048C385.353,327.495,387.503,315.957,382.752,314.156z
	 M355.647,322.472c0.014-0.005,1.611-0.387,2.173-1.353c0.214-0.368-0.69-2.44-1.294-3.252c-0.204-0.275-0.147-0.663,0.127-0.867
	c0.276-0.201,0.663-0.147,0.867,0.127c1.467,1.974,1.762,3.941,1.371,4.615c-0.636,1.094-1.964,1.632-2.608,1.837
	c-0.206,0.066-0.342,0.097-0.364,0.102c-0.333,0.075-0.665-0.134-0.74-0.468C355.103,322.879,355.318,322.545,355.647,322.472z
	 M343.945,311.552c1.048,0,1.898,1.019,1.898,2.275c0,1.257-0.85,2.275-1.898,2.275c-1.048,0-1.898-1.018-1.898-2.275
	C342.047,312.571,342.897,311.552,343.945,311.552z M347.068,344.89c-2.44-2.907-8.065-5.889-11.498-7.535
	c-0.121-0.058-0.242-0.116-0.357-0.17l-4.097-10.279c0.348,0.131,0.702,0.251,1.078,0.328c0,0,0.81,0.162,1.866,0.009
	c0.463,1.297,0.986,2.535,1.584,3.67c1.513,2.87,3.139,5.156,4.893,6.97c2.109,2.18,4.408,3.662,6.939,4.578L347.068,344.89z
	 M357.903,346.869c-5.671-0.25-9.913-4.224-9.913-4.224l0.02-0.002c2.451,0.802,5.111,1.112,8.024,1.03
	c2.428-0.068,4.688-0.445,6.782-1.104C362.877,344.414,362.229,347.06,357.903,346.869z M355.237,331.972
	c-8.12,0-8.743-5.045-9.151-5.844c8.712,2.112,18.41,0,18.41,0S363.356,331.972,355.237,331.972z M365.756,316.102
	c-1.048,0-1.898-1.018-1.898-2.275c0-1.256,0.85-2.275,1.898-2.275c1.048,0,1.898,1.019,1.898,2.275
	C367.654,315.084,366.804,316.102,365.756,316.102z M359.653,303.021c0,0,1.939-3.213,7.754-1.764
	c5.816,1.449,6.462,5.436,6.462,5.436L359.653,303.021z M406.207,368.935c1.526-0.355,3.028-0.776,4.494-1.235
	c-0.232,3.465-0.444,6.927-0.643,10.369c-0.748,0.418-8.494,4.571-9.998,5.256c-1.309,0.538-7.716-2.995-14.675-7.681
	c2.713-2.32,6.312-5.885,7.726-9.465c3.022,2.282,5.339,3.895,5.908,3.859C401.424,369.887,403.841,369.486,406.207,368.935z
	 M332.224,418.085c0.072,0.53,0.087,1.354,0.064,2.361c0,0.021-0.001,0.043-0.002,0.064c-0.133,5.326-1.355,15.686-1.355,15.686
	s-0.181-0.243-0.457-0.647c-1.004-1.476-3.339-5.238-3.407-8.445c-0.088-4.086,1.257-5.433,0.372-6.501
	c-0.663-0.799-15.609-26.857-16.004-27.612c-0.757-1.449-1.395-2.727-1.856-3.738c-0.194-0.472,0.146-1.611,0.872-3.193
	c0.652-1.42,1.614-3.196,2.799-5.185c1.159-1.947,2.527-4.094,4.01-6.296c2.32,2.713,5.885,6.312,9.465,7.726
	c-2.282,3.022-3.895,5.339-3.859,5.909c0.748,11.928,7.563,24.197,9.066,28.766C332.074,417.409,332.186,417.797,332.224,418.085z
	 M424.822,461.771c7.781,1.344,15.368,2.218,22.739,2.585c-0.931,14.92-3.095,25.825-4.915,36.675
	c-1.888,11.254-3.395,22.476-2.763,38.079c0.016,0.392,0.026,0.773,0.045,1.171c0.413,8.809-3.954,15.189-13.178,5.357
	c-0.01-0.244-0.025-0.754-0.045-1.474C426.556,538.723,425.063,472.646,424.822,461.771z M455.208,464.546
	c7.81,0.035,15.379-0.482,22.701-1.544c-0.238,10.723-1.706,75.72-1.856,81.162c-0.02,0.721-0.035,1.23-0.045,1.474
	c-9.224,9.832-13.59,3.452-13.178-5.357v0c0.76-16.225-0.783-27.713-2.718-39.25C458.299,490.227,456.145,479.369,455.208,464.546z
	 M438.329,191.457v5.229c0,4.055-2.443,7.653-6.115,9.228c-0.284,0.122-0.559,0.259-0.857,0.355l8.147,11.947h20.422l8.089-12.122
	c-0.37-0.105-0.715-0.256-1.064-0.4c-3.74-1.537-6.253-5.171-6.253-9.288v-0.618c-2.08,3.418-5.105,6.516-9.25,6.516
	c-5.419,0-9.7-5.594-12.319-10.228c3.155,2.319,6.873,3.748,11.275,3.748c4.933,0,8.961-1.5,12.269-3.928
	c7.741-5.68,11.475-16.505,13.226-25.604c0.308-1.602,0.557-3.146,0.754-4.601c-1.696-1.082-6.344-4.249-10.661-8.978
	c-3.446-0.144-8.734-0.146-12.028,0.913c-1.903,0.198,0.956-3.826,7.245-4.165c0.773-0.042,1.478-0.02,2.123,0.049
	c-3.405-4.537-6.067-10.105-5.98-16.392c-1.315,7.805-6.546,13.864-12.518,18.381c1.538,1.11,1.908,2.232,0.882,2.126
	c-0.871-0.28-1.889-0.481-2.97-0.63c-8.176,5.579-17.025,8.426-18.935,9.001c0.419,2.013,0.945,4.225,1.6,6.534
	C427.743,176.756,431.716,186.111,438.329,191.457z M461.661,158.253c1.162,0,2.105,1.323,2.105,2.955
	c0,1.632-0.942,2.955-2.105,2.955c-1.162,0-2.105-1.323-2.105-2.955C459.556,159.576,460.498,158.253,461.661,158.253z
	 M449.433,172.686c1.885-1.581,0.748-4.321,0.008-6.182c-0.392-0.984,1.235-1.641,1.696-0.715c1.078,2.169,2.36,4.84,1.286,7.256
	c-0.805,1.812-5.602,1.773-5.571,1.39C446.964,173.049,448.602,173.383,449.433,172.686z M440.779,178.893
	c0.428-0.57,0.909-1.022,1.547-1.352c0.731-0.379,1.377,0.462,1.089,1.027c3.155,2.199,10.337,2.263,13.615,0.145
	c-0.059-0.12-0.118-0.24-0.177-0.36c-0.441-0.894,0.898-1.679,1.34-0.783c0.256,0.519,0.512,1.037,0.768,1.556
	c0.37,0.751-0.511,1.412-1.066,1.078c-0.017,0.013-0.026,0.028-0.043,0.041c-4.417,3.179-10.791,3.156-15.157-0.085
	c-0.229-0.17-0.385-0.36-0.509-0.551c-0.021,0.025-0.047,0.041-0.066,0.067C441.527,180.467,440.18,179.692,440.779,178.893z
	 M438.018,157.987c1.162,0,2.105,1.323,2.105,2.955c0,1.632-0.942,2.955-2.105,2.955c-1.162,0-2.105-1.323-2.105-2.955
	C435.913,159.31,436.855,157.987,438.018,157.987z M501.676,291.282c0,0-5.322,1.729-14.072,3.326
	c-9.374,1.711-22.69,3.263-37.67,2.381c-4.258,1.104-12.385,2.513-19.273-0.387c-0.495-0.208-0.964-0.447-1.429-0.69
	c7.526-0.095,16.405-1.484,26.652-4.612c-1.514-0.413-2.439-0.754-2.439-0.754l0-0.001c-25.797,1.458-47.887-4.223-53.731-5.894
	c-0.986-0.282-1.524-0.454-1.524-0.454c-0.241-1.026-0.428-2.2-0.569-3.496c-0.273-2.516-0.369-5.499-0.326-8.784
	c0.076-5.819,0.588-12.584,1.317-19.381l15.126,5.864c0,0,0.188-0.276,0.497-0.772c-0.027,0.284-0.054,0.567-0.081,0.848
	c-0.533,5.603-0.956,10.511-0.956,11.989c0,3.366,33.87,9.894,45.65,11.011c3.147-1.92,10.519-6.754,14.23-6.468
	c6.727,0.517,11.901-0.518,11.901-0.518s-5.175,3.622-10.349,4.657c0,0,9.58-0.057,14.346-3.31c5.416-3.809,9.68-7.796,12.946-11.8
	c0.355,4.71,0.585,9.251,0.642,13.382C502.64,283.039,502.396,287.892,501.676,291.282z"></path>
<path id="color_x5F_7_40_" fill="#1C354C" d="M354.89,110.673c-1.897-0.508-15.316-1.237-14.949-0.742
	C336.923,105.878,361.804,103.553,354.89,110.673z M379.347,109.753c2.929-4.118-21.997-5.895-14.929,1.071
	C366.303,110.274,379.704,109.251,379.347,109.753z M356.033,343.673c-2.914,0.082-5.573-0.228-8.024-1.03l-0.02,0.002
	c0,0,4.242,3.974,9.913,4.224c4.326,0.191,4.975-2.455,4.913-4.3C360.721,343.228,358.461,343.605,356.033,343.673z
	 M345.843,313.827c0-1.256-0.85-2.275-1.898-2.275c-1.048,0-1.898,1.019-1.898,2.275c0,1.257,0.85,2.275,1.898,2.275
	C344.993,316.102,345.843,315.084,345.843,313.827z M363.858,313.827c0,1.257,0.85,2.275,1.898,2.275
	c1.048,0,1.898-1.018,1.898-2.275c0-1.256-0.85-2.275-1.898-2.275C364.708,311.552,363.858,312.571,363.858,313.827z
	 M355.647,322.472c-0.329,0.073-0.543,0.407-0.468,0.74c0.075,0.334,0.407,0.543,0.74,0.468c0.022-0.004,0.158-0.036,0.364-0.102
	c0.644-0.205,1.972-0.743,2.608-1.837c0.392-0.674,0.096-2.641-1.371-4.615c-0.204-0.275-0.591-0.328-0.867-0.127
	c-0.275,0.204-0.332,0.592-0.127,0.867c0.604,0.812,1.508,2.884,1.294,3.252C357.258,322.085,355.661,322.468,355.647,322.472z
	 M331.828,318.15l0.001,0.001c0,0-0.311-6.983,4.886-11.873c-0.084,0.258-0.111,0.416-0.111,0.416l14.216-3.673
	c0,0-0.633-1.042-2.251-1.671c8.279-2.437,12.02-8.097,13.682-13.099c1.487,3.477,4.487,7.677,10.594,11.076
	c5.759,3.206,6.647,12.567,6.75,16.754c0.031,1.27-0.01,2.07-0.01,2.07s1.229-1.57,2.584-4.182
	c3.033-5.846,6.701-16.923-1.347-27.384c-8.261-10.739-16.885-12.325-24.249-11.649c-7.382-1.376-17.369-0.897-26.224,10.615
	c-7.412,9.636-4.786,20.209-1.899,26.625C330.093,315.831,331.822,318.141,331.828,318.15z M311.843,171.52c0,0-0.001,0-0.001,0
	c-2.233,0.001-4.308,1.153-5.487,3.049l-69.903,112.33H62.349v0l4.963,9.155h174.773l49.543-79.785
	c3.425-16.145,8.15-32.897,13.562-36.922c1.308-2.029,5.63-4.013,11.31-5.83C315.294,172.261,313.623,171.52,311.843,171.52z
	 M301.984,333.954v40.458h-30.989v-3.967h12.872v-32.524h-12.872v-3.967H301.984z M297.38,337.921h-10.552v13.007v19.517h10.552
	V337.921z M232.621,333.954v3.967h-12.872v32.524h12.872v3.967h-30.989v-40.458H232.621z M216.788,337.921h-10.552v32.524h10.552
	V337.921z M129.046,333.954v3.967h-12.872v32.524h12.872v3.967H98.058v-40.458H129.046z M113.213,337.921h-10.552v32.524h10.552
	V337.921z M209.836,154.643h-17.65v42.312l17.65-25.438V154.643z M151.046,327.484h33.199v82.709h-33.199V327.484z M161.445,362.133
	h13.198V338.07h-13.198V362.133z M214.542,154.643v-13.647h-21.779v0v13.647H214.542L214.542,154.643z M393.947,544.678
	l-0.745-0.851h1.088c0,0,4.051-38.647,4.435-42.796c1.485-16.053,3.106-35.559,4.464-56.647c0.249-3.863,0.489-7.778,0.717-11.735
	c0.395-6.842,0.756-13.805,1.071-20.834c0.111-2.482,0.216-4.971,0.315-7.466c0.013-0.336,0.026-0.673,0.039-1.01
	c0.002-0.054,0.004-0.108,0.006-0.162c0.03-0.761,0.06-1.521,0.089-2.283c0.16-4.31,0.299-8.633,0.417-12.954
	c0.07-2.553,0.131-5.105,0.185-7.654c-2.379,1.283-4.463,2.356-5.967,3.04c-1.309,0.538-7.716-2.995-14.675-7.681
	c-1.866,1.595-3.311,2.606-3.311,2.606l-2.587-2.597l0.527,45.873h-1.136l0.084,122.302l0.001,0.717l7.033,6.788
	c6.476,4.059,7.813,7.742,8.057,9.496h0.029v0.208c0.057,0.56,0,0.876,0,0.876v2.496c5.495,0,11.248,0,16.153,0
	c-0.1-7.863,1.843-12.626,4.397-15.509C406.122,543.598,393.947,544.678,393.947,544.678z M393.707,363.785
	c-0.061,0.788-0.277,1.591-0.594,2.393c3.022,2.282,5.339,3.895,5.908,3.859c2.403-0.151,4.82-0.551,7.186-1.102
	c0.128-12.14,0.041-24.106-0.326-35.6c-6.926,1.678-19.593,4.208-35.664,5.084c-2.095,1.844-4.507,3.212-7.212,4.089l0.766,4.561
	c5.498,0.013,15.447,5.073,15.447,5.073L393.707,363.785z M333.062,378.685l0.025-0.453l0.016-0.293l-3.984,4.958
	c-0.788-0.061-1.591-0.278-2.393-0.594c-2.282,3.022-3.895,5.339-3.859,5.909c0.748,11.928,7.563,24.197,9.066,28.766
	L333.062,378.685L333.062,378.685z M313.25,380.872c1.159-1.947,2.527-4.094,4.01-6.296c-1.595-1.866-2.606-3.311-2.606-3.311
	l12.935-12.885c-1.192-2.441-0.924-5.307-0.924-5.307l0.951-6.183l-6.792-11.901c-2.466-0.5-4.947-1.05-7.447-1.671
	C312.887,348.626,312.895,364.71,313.25,380.872z M335.57,337.356c3.432,1.645,9.058,4.628,11.498,7.535l0.408-2.429
	c-2.53-0.916-4.83-2.398-6.939-4.578C338.897,337.731,337.241,337.555,335.57,337.356z M327.439,420.602
	c-0.663-0.799-8.41-13.713-13.716-23.357c0.06,1.694,0.123,3.386,0.189,5.076c0.103,2.631,0.212,5.257,0.329,7.872
	c0.157,3.499,0.326,6.979,0.505,10.436c0.358,6.924,0.757,13.75,1.185,20.419c0.037,0.58,0.075,1.157,0.113,1.734
	c0.411,6.306,0.847,12.463,1.296,18.427c0.591,7.844,1.204,15.351,1.816,22.397c0.295,3.399,0.589,6.689,0.88,9.863
	c2.603,28.396,4.932,47.253,4.932,47.253l2.509,0.436l-3.469,3.52c0,0-16.609-2.595-16.355,19.729c0,0,2.448,0,6.109,0v-2.496
	c0,0-0.057-0.316,0-0.876v-0.208h0.029c0.244-1.754,1.582-5.437,8.057-9.496l7.033-6.788l0.046-3.133l1.546-105.863
	c-1.004-1.476-3.339-5.238-3.407-8.445C326.979,423.017,328.323,421.67,327.439,420.602z M353.655,160.506
	c5.448,3.57,14.792,2.873,18.49-2.951c0.815-1.283,1.668-3.177,2.376-5.41c0.047-0.148,0.095-0.291,0.141-0.442
	c-3.887,3.319-8.769,5.411-14.668,5.411c-5.578,0-10.327-1.956-14.215-5.077C347.463,154.821,350.024,158.127,353.655,160.506z
	 M348.108,121.838c1.366,0,2.473-1.514,2.473-3.382c0-1.868-1.107-3.382-2.473-3.382s-2.473,1.514-2.473,3.382
	C345.635,120.324,346.742,121.838,348.108,121.838z M371.151,121.838c1.366,0,2.473-1.514,2.473-3.382
	c0-1.868-1.107-3.382-2.473-3.382c-1.366,0-2.473,1.514-2.473,3.382C368.678,120.324,369.785,121.838,371.151,121.838z
	 M333.373,121.171l4.598-15.892c0.295-2.078-1.737-6.229-0.669-8.015c1.343-2.198,6.689-9.701,14.442-4.506
	c8.474,5.678,18.386,14.321,32.672,6.662l2.368,22.813c0.198-0.614,0.965-2.498,1.967-5.211c1.085-2.938,2.445-6.852,3.662-11.202
	c1.44-5.149,2.674-10.901,3.006-16.358c0.287-4.718-0.1-9.214-1.618-12.901c-0.211-0.513-0.515-0.837-0.884-1.051
	c-1.845-1.068-5.504,0.88-9.472-1.199c1.538-2.869,3.061-8.128-1.287-6.288c-10.09,4.269-11.789,0.789-15.988,0.916
	c-16.757,0.506-24.762,8.011-24.762,8.011c-0.018,0.006-6.789-2.53-11.975,4.924c-0.281,0.405-0.561,0.819-0.832,1.285
	c-5.971,10.266-0.423,25.66,2.822,33.388C331.524,116.787,333.253,120.71,333.373,121.171z M357.978,134.37
	c-0.031,0.383,4.766,0.422,5.571-1.39c1.074-2.416-0.208-5.087-1.286-7.256c-0.461-0.926-2.087-0.269-1.696,0.715
	c0.741,1.861,1.877,4.601-0.008,6.182C359.729,133.318,358.09,132.983,357.978,134.37z M351.259,141.122
	c4.819,3.241,11.854,3.264,16.73,0.085c1.523-0.993,0.871-2.667-0.643-1.68c-3.536,2.305-11.96,2.258-15.444-0.085
	C350.407,138.436,349.755,140.11,351.259,141.122z M367.408,301.257c-5.815-1.449-7.754,1.764-7.754,1.764l14.216,3.673
	C373.869,306.694,373.223,302.706,367.408,301.257z M494.135,444.384c-0.492-3.461-0.887-7.405-1.208-11.735
	c-0.465-6.253-0.781-13.299-1.024-20.834c-0.072-2.235-0.138-4.516-0.2-6.829c-0.014-0.547-0.029-1.094-0.043-1.644
	c-0.134-5.204-0.249-10.568-0.368-16.006c-0.473-21.623-1.014-44.369-3.054-62.516c-4.624,1.522-32.959,9.451-72.795-0.205
	c0-0.482,0.007-1.086,0.018-1.768c-2.302,13.86-3.722,29.37-4.758,44.852c-0.232,3.465-0.444,6.927-0.643,10.369
	c-0.18,3.116-0.35,6.214-0.512,9.282c-0.316,5.985-0.607,11.854-0.901,17.501c-0.033,0.634-0.066,1.263-0.1,1.892
	c-0.091,1.713-0.182,3.404-0.275,5.07c-0.421,7.545-0.876,14.584-1.446,20.834c-0.394,4.316-0.843,8.26-1.374,11.735
	c-0.809,5.285-1.808,9.493-3.093,12.3c7.67,2.149,15.152,3.822,22.466,5.086c7.781,1.344,15.368,2.218,22.739,2.585
	c2.577,0.129,5.12,0.179,7.646,0.19c7.81,0.035,15.379-0.482,22.701-1.544c7.069-1.026,13.917-2.537,20.523-4.556
	C496.475,456.229,495.112,451.263,494.135,444.384z M426.012,205.953l6.202-0.039c3.672-1.575,6.115-5.173,6.115-9.228v-5.229
	c-6.613-5.346-10.586-14.701-12.919-22.925c-4.249-5.333-6.795-12.084-6.797-19.433c-0.36,2.841-0.72,5.598-1.072,8.285
	c-0.607,4.64-1.188,9.048-1.696,13.204c-0.458,3.74-0.854,7.274-1.161,10.598c-1.119,12.124-1.006,21.402,1.965,27.27
	C421.833,206.513,426.012,205.953,426.012,205.953z M462.673,191.897c-3.308,2.427-7.336,3.928-12.269,3.928
	c-4.401,0-8.12-1.429-11.275-3.748c2.618,4.634,6.9,10.228,12.319,10.228c4.145,0,7.17-3.098,9.25-6.516v0.618
	c0,4.117,2.513,7.751,6.253,9.288l8.553-0.054c3.094,0.595,5.716,1.247,7.953,1.921c4.588-10.582,1.093-30.997-2.391-58.462
	c-0.001,6.355-1.905,12.262-5.166,17.194C474.148,175.392,470.413,186.217,462.673,191.897z M438.018,157.987
	c-1.162,0-2.105,1.323-2.105,2.955c0,1.632,0.942,2.955,2.105,2.955c1.162,0,2.105-1.323,2.105-2.955
	C440.122,159.31,439.18,157.987,438.018,157.987z M463.766,161.208c0-1.632-0.942-2.955-2.105-2.955
	c-1.162,0-2.105,1.323-2.105,2.955c0,1.632,0.942,2.955,2.105,2.955C462.823,164.163,463.766,162.84,463.766,161.208z
	 M423.81,161.998c1.911-0.575,10.759-3.422,18.935-9.001c1.08,0.149,2.098,0.349,2.97,0.63c1.027,0.107,0.656-1.016-0.882-2.126
	c5.973-4.517,11.203-10.576,12.518-18.381c-0.087,6.286,2.575,11.854,5.98,16.392c-0.645-0.069-1.35-0.091-2.123-0.049
	c-6.289,0.339-9.148,4.363-7.245,4.165c3.293-1.059,8.582-1.057,12.028-0.913c4.318,4.729,8.965,7.896,10.661,8.978
	c0.426,0.271,0.676,0.42,0.676,0.42c3.96-7.166,4.261-33.933-16.677-35.788c0.008-0.022,0.018-0.052,0.018-0.052
	c-8.981-8.343-23.192-2.645-23.192-2.645c-22.257,12.471-15.322,36.184-14.051,38.485
	C423.427,162.11,423.565,162.072,423.81,161.998z M446.851,174.436c-0.031,0.383,4.766,0.422,5.571-1.39
	c1.073-2.416-0.208-5.087-1.286-7.256c-0.46-0.927-2.087-0.269-1.696,0.715c0.741,1.861,1.877,4.601-0.008,6.182
	C448.602,173.383,446.964,173.049,446.851,174.436z M442.326,177.54c-0.638,0.33-1.119,0.782-1.547,1.352
	c-0.599,0.799,0.747,1.574,1.341,0.784c0.02-0.026,0.046-0.042,0.066-0.067c0.124,0.192,0.28,0.381,0.509,0.551
	c4.366,3.241,10.74,3.264,15.157,0.085c0.018-0.013,0.027-0.028,0.043-0.041c0.555,0.334,1.436-0.327,1.066-1.078
	c-0.256-0.519-0.512-1.037-0.768-1.556c-0.442-0.896-1.781-0.11-1.34,0.783c0.059,0.12,0.118,0.24,0.177,0.36
	c-3.279,2.118-10.46,2.053-13.615-0.145C443.703,178.002,443.057,177.162,442.326,177.54z M461.478,229.467
	c-0.554,0.735-0.578,1.65-0.055,2.045c0.523,0.394,1.397,0.118,1.95-0.617c0.554-0.735,0.579-1.65,0.055-2.045
	C462.905,228.456,462.032,228.732,461.478,229.467z"></path>
<path id="color_x5F_6_48_" fill="#00645B" d="M533.254,382.777c-1.937,6.141-6.514,11.177-12.798,13.243
	c-1.328,0.036-2.657,0.083-3.983,0.045c-3.101-0.09-6.367-0.743-8.652-2.841c-1.636-1.503-2.635-3.629-4.382-5.002
	c-2.37-1.863-5.516-1.95-8.592-1.531c-0.946,0.129-3.301,0.594-3.555,0.646c-0.473-21.623-1.014-44.369-3.054-62.516
	c0.283-0.093,0.487-0.165,0.59-0.205l-0.557-13.654l3.01-8.566c0.792-2.253,3.977-2.253,4.769,0l10.316,29.361l4.596-13.08
	c0.75-2.134,3.769-2.134,4.518,0l17.506,49.826C534.688,373.349,534.652,378.342,533.254,382.777z M127.081,182.88l-6.413-18.252
	c-1.964-5.591-9.871-5.591-11.835,0l-19.286,54.891l-8.144-23.18c-1.694-4.822-8.514-4.822-10.208,0l-39.55,112.566
	c-6.037,17.183-2.463,35.21,7.647,47.826c1.235,1.541,2.569,3,3.994,4.368l-4.034,11.483c-1.206,3.432-1.344,6.951-0.634,10.194
	c1.21,5.526,4.929,10.221,10.267,12.254c0.941-1.961,2.313-3.974,4.437-4.341c2.52-0.434,4.824,1.661,7.379,1.773
	c3.124,0.137,5.513-2.595,7.547-4.97c1.098-1.282,2.44-2.586,3.914-3.384c1.257-0.681,2.61-0.995,3.994-0.6
	c1.334,0.381,2.307,1.321,3.201,2.4v-89.855H67.312l-4.963-9.155h0L127.081,182.88z M414.465,180.846l-0.008,0.119
	c0.076,0.075,0.151,0.143,0.227,0.221c0.307-3.323,0.703-6.858,1.161-10.598l-2.094-5.96c-1.964-5.591-9.87-5.591-11.835,0
	l-2.745,7.814C408.081,174.965,414.853,177.889,414.465,180.846z M406.028,380.285c-0.053,2.549-0.115,5.101-0.185,7.654
	c0.672-0.064,3.146-0.475,3.704-0.588c0.162-3.068,0.332-6.167,0.512-9.282C409.31,378.487,406.621,379.965,406.028,380.285z
	 M411.723,331.767c0,0-2.092,0.659-5.842,1.568c0.367,11.493,0.455,23.46,0.326,35.6c1.526-0.355,3.028-0.776,4.494-1.235
	c1.036-15.482,2.456-30.992,4.758-44.852c0.111-6.928,0.739-23.134,0.94-28.221c-3.481-0.81-6.504-1.957-9.049-3.364
	L411.723,331.767z"></path>
<path id="color_x5F_5_46_" fill="#FFFFFF" d="M286.828,337.921h10.552l-10.552,13.007V337.921z M283.867,354.578v-16.657h-12.872
	v32.524L283.867,354.578z M219.749,353.788l12.872-15.867h-12.872V353.788z M206.236,370.445l10.552-13.007v-19.517h-10.552V370.445
	z M102.662,370.445l10.552-13.007v-19.517h-10.552V370.445z M116.174,353.788l12.872-15.867h-12.872V353.788z M161.445,362.133
	l13.198-24.062h-13.198V362.133z M382.292,141.262c-1.834,4.032-4.38,7.667-7.63,10.442c-0.046,0.151-0.094,0.294-0.141,0.442
	l0.676,5.239h42.346c0.352-2.687,0.711-5.444,1.072-8.285c0-0.002,0-0.003,0-0.005c0-2.705,0.345-5.329,0.991-7.832H382.292z
	 M244.808,132.668h70.6c2.373,0,4.297,1.924,4.297,4.297c0,2.373-1.924,4.297-4.297,4.297h-15.551c-3.723,0-6.741,3.018-6.741,6.741
	v2.64c0,3.723,3.018,6.741,6.741,6.741h44.205l0.789-6.117c-5.435-4.797-9.024-11.945-10.56-19.168
	c-2.061,2.253-5.474,0.479-7.629-2.968c-2.188-3.501-3.233-10.379-0.284-12.585h-81.569c-3.723,0-6.741,3.018-6.741,6.741v2.64
	C238.067,129.65,241.085,132.668,244.808,132.668z M330.818,116.546c0.34,0.221,0.642,0.466,0.903,0.706
	c-0.097-0.226-0.197-0.465-0.298-0.706H330.818z M277.453,517.14h-46.684c-2.723,0-4.931,2.208-4.931,4.931
	c0,2.724,2.208,4.931,4.931,4.931h46.684c2.724,0,4.931-2.208,4.931-4.931C282.385,519.348,280.177,517.14,277.453,517.14z
	 M319.156,483.607H282.56c-2.724,0-4.931,2.208-4.931,4.931c0,2.724,2.208,4.931,4.931,4.931h37.476
	C319.746,490.296,319.451,487.006,319.156,483.607z M244.753,437.909c0-2.724-2.208-4.931-4.931-4.931h-46.684
	c-2.724,0-4.931,2.208-4.931,4.931c0,2.723,2.208,4.931,4.931,4.931h46.684C242.545,442.84,244.753,440.632,244.753,437.909z
	 M255.534,81.873h73.9c5.186-7.455,11.957-4.919,11.975-4.924c0,0,8.005-7.505,24.762-8.011c4.199-0.127,5.897,3.354,15.988-0.916
	c4.348-1.84,2.825,3.419,1.287,6.288c3.968,2.078,7.626,0.131,9.472,1.199c0.1-0.569,0.156-1.173,0.156-1.816
	c0-5.356-3.657-8.179-8.168-8.179h-15.499c-1.808,0-3.274-1.468-3.274-3.279c0-1.811,1.466-3.279,3.274-3.279h74.692
	c4.511,0,8.168-3.662,8.168-8.179c0-4.517-3.657-8.179-8.168-8.179H314.728c-4.511,0-8.168,3.662-8.168,8.179
	c0,4.517,3.657,8.179,8.168,8.179h2.218c1.808,0,3.274,1.468,3.274,3.279c0,1.811-1.466,3.279-3.274,3.279h-61.412
	c-4.511,0-8.168,3.662-8.168,8.179S251.023,81.873,255.534,81.873z M480.526,89.462H395.42c-0.332,5.457-1.566,11.21-3.006,16.358
	h88.112c4.511,0,8.168-3.662,8.168-8.179C488.693,93.124,485.036,89.462,480.526,89.462z M414.685,181.185
	c-0.076-0.078-0.151-0.146-0.227-0.221l-1.91,29.253c1.401-0.69,2.78-1.268,4.102-1.763
	C413.679,202.587,413.566,193.31,414.685,181.185z M384.871,190.661l-3.4-22.332l-0.132-0.867l-1.125-6.296l-4.582-1.362
	l-0.109,0.114l-10.541,11.097c-2.538,2.672-4.121,6.11-4.5,9.776l-0.853,8.25l-0.853-8.25c-0.379-3.666-1.962-7.104-4.5-9.776
	l-10.541-11.097l-0.109-0.114l-4.582,1.362l-1.125,6.296l-0.132,0.867l-3.4,22.332c0,0,8.797-10.867,15.524-10.867
	c5.823,0,9.722,10.015,9.722,10.015s4.118-10.015,9.713-10.015C375.785,179.794,384.871,190.661,384.871,190.661z M314.785,253.961
	l-22.261-3.315l-6.677-0.995c0,0,2.168-16.35,5.781-33.381c3.425-16.145,8.15-32.897,13.562-36.922
	c0.212-0.157,0.424-0.302,0.638-0.419c0,0,15.207,14.319,17.794,42.262c0.862,9.307-1.294,33.894-1.294,33.894L314.785,253.961z
	 M318.453,249.374c1.999,0.063,1.996-3.042,0-3.105c-9.433-0.299-18.585-1.872-27.58-4.708c-1.91-0.602-2.727,2.394-0.825,2.994
	C299.315,247.477,308.746,249.067,318.453,249.374z M321.849,551.332c-6.475,4.059-7.813,7.742-8.057,9.496h-0.029v3.58
	c9.06,0,36.703,0,36.703,0v-19.864h-21.583L321.849,551.332z M394.083,560.828h-0.029c-0.244-1.754-1.582-5.437-8.057-9.496
	l-7.033-6.788H357.38v19.864c0,0,28.161,0,36.703,0V560.828z M364.496,326.129c0,0-9.698,2.112-18.41,0
	c0.408,0.799,1.031,5.844,9.151,5.844C363.356,331.972,364.496,326.129,364.496,326.129z M333.385,372.807l-0.323,5.878v0
	l46.383-0.186l0.018-5.869L333.385,372.807z M332.788,388.331h46.766l-0.064-5.692h-46.535L332.788,388.331z M449.827,233.351
	l10.1-15.136h-20.422L449.827,233.351z M169.691,98.601c3.569,0,6.154,0.615,6.154,4.308c0,3.939-2.831,4.308-6.154,4.308
	c-7.128,0-6.77,11.077,0.369,11.077c8.123,0,16.247,0,24.37,0c7.128,0,7.139-11.077,0-11.077c-3.446,0-1.6,0-5.046,0
	c-5.908,0-6.646-8.616,0-8.616c7.754,0,10.216,0,17.97,0c7.128,0,7.139-11.077,0-11.077c-0.78,0-1.559,0-2.339,0
	c-4.8,0-5.046-6.646,0-6.646c3.364,0,6.728,0,10.093,0c7.128,0,7.139-11.077,0-11.077c-9.518,0-19.036,0-28.555,0
	c-7.128,0-7.139,11.077,0,11.077c2.462,0,1.231,0,3.693,0c3.816,0,3.816,6.646,0,6.646c-10.339,0-16.985,0-27.324,0
	c-7.128,0-7.139,11.077,0,11.077C166.286,98.601,166.327,98.601,169.691,98.601z M169.814,80.877c7.128,0,7.14-11.077,0-11.077
	C162.686,69.8,162.674,80.877,169.814,80.877z M222.985,98.601c7.128,0,7.139-11.077,0-11.077
	C215.857,87.523,215.845,98.601,222.985,98.601z M193.568,121.617c-7.128,0-7.139,11.077,0,11.077
	C200.696,132.694,200.708,121.617,193.568,121.617z"></path>
<path id="color_x5F_4_45_" fill="#F05356" d="M407.35,291.262c-3.347-1.851-5.877-4.133-7.636-6.612
	c-0.986-0.282-1.524-0.454-1.524-0.454c-0.241-1.026-0.428-2.2-0.569-3.496c-1.07-2.937-1.178-5.971-0.326-8.784
	c0.076-5.819,0.588-12.584,1.317-19.381l15.126,5.864c0,0,0.188-0.276,0.497-0.772c-0.027,0.284-0.054,0.567-0.081,0.848
	c11.705-5.747,26.974-11.187,37.784-16.423c-1.394-4.806,4.346-9.013,3.416-10.252c-1.164-1.552,1.358-3.299,4.657-2.911
	c2.277-0.976,4.99-7.931,14.256-10.163c2.691-4.676,4.194-7.884,4.194-7.884s3.668,1.223,8.517,3.533
	c3.686,1.756,8.05,4.142,12.019,7.105c-0.986-2.039-2.075-3.84-3.237-5.297l0.16-1.496c0,0-1.469-3.816-12.464-7.126
	c-2.237-0.673-4.859-1.326-7.953-1.921l-8.553,0.054c0.349,0.144,0.695,0.295,1.064,0.4l-18.188,27.257l-10.322-15.136
	l-8.147-11.947c0.298-0.096,0.573-0.233,0.857-0.355l-6.202,0.039c0,0-4.179,0.561-9.363,2.502
	c-1.321,0.495-2.701,1.073-4.102,1.763l1.91-29.253l0.008-0.119c0.388-2.956-6.384-5.881-15.293-8.404
	c-5.481-1.552-11.768-2.952-17.701-4.113l3.4,22.332c0,0-9.086-10.867-15.524-10.867c-5.595,0-9.713,10.015-9.713,10.015
	s-3.899-10.015-9.722-10.015c-6.727,0-15.524,10.867-15.524,10.867l3.4-22.332c-7.276,1.424-15.089,3.207-21.288,5.189
	c-5.68,1.817-10.001,3.801-11.31,5.83c0.212-0.157,0.424-0.302,0.638-0.419c0,0,15.207,14.319,17.794,42.262
	c0.862,9.307-1.294,33.894-1.294,33.894l-7.543-1.124l-3.323,23.633l14.488,36.35c0.414-0.69,0.972-1.235,1.721-1.519
	c0.268-0.102,0.526-0.181,0.779-0.249c-2.887-6.417-5.513-16.99,1.899-26.625c8.855-11.512,18.843-11.991,26.224-10.615
	c7.364-0.676,15.989,0.91,24.249,11.649c8.047,10.461,4.38,21.538,1.347,27.384c0.192,0.057,0.383,0.111,0.583,0.187
	c4.751,1.802,2.602,13.34-4.525,14.81c0,0-0.68,0.143-1.609,0.048c-0.373,0.958-0.775,1.88-1.224,2.731
	c-1.408,2.665-3.147,4.888-5.177,6.675c16.071-0.877,28.739-3.407,35.664-5.084c3.75-0.909,5.842-1.568,5.842-1.568L407.35,291.262z
	 M495.055,215.204c0.02,0.056,0.045,0.147,0.066,0.213c-0.049-0.054-0.099-0.1-0.148-0.153
	C495.001,215.244,495.027,215.222,495.055,215.204z M320.824,334.989c-2.466-0.5-4.947-1.05-7.447-1.671
	c-1.94-0.482-3.886-0.991-5.842-1.551c-1.835-2.392-1.132-10.892,0.201-19.539c0.007-0.045,0.014-0.089,0.021-0.133L320.824,334.989
	z M335.214,337.185l-4.097-10.279c0.348,0.131,0.702,0.251,1.078,0.328c0,0,0.81,0.162,1.866,0.009
	c0.463,1.297,0.986,2.535,1.584,3.67c1.513,2.87,3.139,5.156,4.893,6.97c-1.641-0.152-3.297-0.329-4.967-0.528
	C335.449,337.298,335.329,337.24,335.214,337.185z M363.771,347.07l0.266,1.58c0,3.391-8.496,12.514-8.496,12.514
	s-2.454-2.463-4.814-5.304c0.946,4.453,1.576,8.53,1.576,8.53s-3.464-0.693-5.312-5.312l-0.462,8.315l-3.737-0.083l-2.079,0.573
	l-1.575,0.434l-3.695-6.929l0.924,8.315c0,0-2.772-0.462-4.619-8.084c-2.178-0.436-3.435-1.759-4.157-3.238l-12.935,12.885
	c0,0,1.011,1.446,2.606,3.311c2.32,2.713,5.885,6.312,9.465,7.726c0.802,0.317,1.604,0.534,2.393,0.594l3.984-4.958l0.282-5.133
	l46.078-0.177l-0.009,2.988l-0.009,2.881l-46.383,0.186l-1.13,38.292c0.142,0.432,0.254,0.82,0.291,1.107
	c0.072,0.53,0.087,1.418,0.064,2.425l47.728,1.016l-0.527-45.873l2.587,2.597c0,0,1.446-1.011,3.311-2.606
	c2.713-2.32,6.312-5.885,7.726-9.465c0.317-0.802,0.534-1.604,0.594-2.393l-14.489-11.643
	C379.218,352.142,369.269,347.083,363.771,347.07z M379.491,382.638l0.064,5.692h-46.766l0.168-5.692H379.491z M439.884,539.11
	c2.954,4.328,6.693,12.618,4.657,25.298c-1.545,0-9.764,0-9.764,0l-4-3.246l-1.436,3.246h-6.619c0,0-2.497,0-6.363,0
	c-1.783,0-3.865,0-6.122,0c-0.1-7.863,1.843-12.626,4.397-15.509c4.698-5.301,11.473-4.221,11.473-4.221l0.599-0.514
	c0.02,0.721,0.035,1.23,0.045,1.474c9.224,9.832,13.59,3.452,13.178-5.357C439.91,539.883,439.9,539.503,439.884,539.11z
	 M501.836,564.408H481.18l-9.198-3.246l-4.001,3.246c0,0-11.324,0-12.868,0c-1.364-7.529,4.054-18.071,7.717-24.127v0
	c-0.413,8.809,3.954,15.189,13.178,5.357c0.01-0.244,0.025-0.754,0.045-1.474l0.599,0.514
	C476.652,544.678,502.119,542.083,501.836,564.408z M488.237,324.82c-4.624,1.522-32.959,9.451-72.795-0.205
	c0-0.482,0.007-1.086,0.018-1.768c0.111-6.928,0.739-23.134,0.94-28.221c3.736,0.869,8,1.347,12.832,1.285
	c0.465,0.243,0.934,0.481,1.429,0.69c6.888,2.9,15.015,1.492,19.273,0.387c14.98,0.882,28.296-0.67,37.67-2.381l1.223,30.008
	C488.724,324.655,488.52,324.727,488.237,324.82z M418.614,149.099c0-0.002,0-0.003,0-0.005c0-2.705,0.345-5.329,0.991-7.832
	c3.001-11.617,12.523-20.606,24.427-22.846c1.883-0.354,3.822-0.548,5.808-0.548c9.706,0,18.377,4.428,24.104,11.375
	c4.449,5.396,7.121,12.311,7.121,19.851c0,0.002,0,0.003,0,0.005c-0.001,6.355-1.905,12.262-5.166,17.194
	c0.308-1.602,0.557-3.146,0.754-4.601c0.426,0.271,0.676,0.42,0.676,0.42c3.96-7.166,4.261-33.933-16.677-35.788
	c0.008-0.022,0.018-0.052,0.018-0.052c-8.981-8.343-23.192-2.645-23.192-2.645c-22.257,12.471-15.322,36.184-14.051,38.485
	c0,0,0.138-0.039,0.383-0.113c0.419,2.013,0.945,4.225,1.6,6.534C421.161,163.198,418.615,156.448,418.614,149.099z"></path>
<path id="color_x5F_3_48_" fill="#4FAFC2" d="M378.963,544.544H357.38l-1.706-89.245l-0.148-7.737
	c-0.012-0.603-0.907-0.614-0.933-0.011l-0.364,8.554l-0.147,3.46l-3.616,84.978h-21.583l1.591-108.996
	c0.275,0.405,0.457,0.647,0.457,0.647s1.222-10.36,1.355-15.686l46.593,1.016L378.963,544.544z M313.912,402.321
	c0.103,2.631,0.212,5.257,0.329,7.872h-2.956c0.597-2.882-0.471-5.987-2.519-8.08v-6.723h-15.333
	c-0.743-1.207-1.326-2.563-1.921-3.845c-1.177-2.535-2.925-5.228-5.679-5.703c-3.147-0.543-6.024,2.074-9.214,2.214
	c-3.9,0.171-6.884-3.241-9.423-6.206c-2.539-2.965-6.12-6.047-9.874-4.976c-2.119,0.605-3.517,2.323-4.899,4.117V279.405
	l39.204-63.135c-3.613,17.032-5.781,33.381-5.781,33.381l6.677,0.995c-2.386,16.319-3.572,28.501-3.572,28.501l14.925,26.15h-7.937
	v6.932h11.797c-1.332,8.648-2.036,17.147-0.201,19.539c1.956,0.56,3.902,1.069,5.842,1.551c-0.49,15.308-0.482,31.392-0.127,47.554
	c-1.185,1.99-2.147,3.765-2.799,5.185h-11.016v6.932h12c0.395,0.756,0.823,1.56,1.277,2.4h-1.279v6.932H313.912z M286.608,314.627
	v6.932h18.663v-6.932H286.608z M274.611,305.296v6.932h18.663v-6.932H274.611z M268.745,282.214h18.663v-6.932h-18.663V282.214z
	 M259.414,291.545h18.663v-6.932h-18.663V291.545z M283.942,321.559v-6.932h-18.663v6.932H283.942z M301.984,374.411v-40.458
	h-30.989v36.491v3.967H301.984z M311.842,171.52H209.835l-17.803,25.692h-22.418V171.52h-31.872c-2.233,0-4.309,1.153-5.489,3.049
	l-0.972,1.562L62.349,286.9h0v0h174.102l69.903-112.33C307.534,172.673,309.609,171.521,311.842,171.52z M143.602,397.685h-9.313
	v6.033h9.313v6.475h7.444v-82.709h33.199v-5.997h-40.643V397.685z M192.763,154.643v-13.647h-27.855v13.647L192.763,154.643z
	 M219.051,392.99h0.238c0.733-0.372,1.421-0.824,2.034-1.388c1.637-1.503,2.635-3.629,4.382-5.002
	c0.27-0.212,0.562-0.374,0.851-0.542h-7.505V392.99z M197.722,392.99h18.663v-6.932h-18.663V392.99z M129.817,404.617h1.805v-6.932
	h-12.181C123.71,398.277,127.532,400.981,129.817,404.617z M122.291,395.285h18.663v-6.932h-18.663V395.285z M90.238,316.299h18.663
	v-6.932H90.238V316.299z M111.567,316.299h18.663v-6.932h-18.663V316.299z M99.569,306.968h18.663v-6.932H99.569V306.968z
	 M120.898,306.968h18.663v-6.932h-18.663V306.968z M182.63,316.299h18.663v-6.932H182.63V316.299z M203.959,316.299h18.663v-6.932
	h-18.663V316.299z M191.962,306.968h18.663v-6.932h-18.663V306.968z M286.828,370.445h10.552v-32.524l-10.552,13.007V370.445z
	 M283.867,354.578l-12.872,15.867h12.872V354.578z M216.788,370.445v-13.007l-10.552,13.007H216.788z M219.749,370.445h12.872
	v-32.524l-12.872,15.867V370.445z M113.213,370.445v-13.007l-10.552,13.007H113.213z M129.046,337.921l-12.872,15.867v16.657h12.872
	V337.921z M174.642,362.133V338.07l-13.198,24.062H174.642z M509.135,233.143c-1.963-4.525-5.813-8.434-10.139-11.663
	c-3.969-2.963-8.333-5.349-12.019-7.105c-4.849-2.31-8.517-3.533-8.517-3.533s-1.503,3.208-4.194,7.884
	c-2.472,4.295-5.946,9.827-10.219,15.296c-2.055,2.631-6.483,5.303-12.111,8.03c-10.81,5.237-26.079,10.677-37.784,16.423
	c-0.533,5.603-0.956,10.511-0.956,11.989c0,3.366,33.87,9.894,45.65,11.011c3.147-1.92,10.519-6.754,14.23-6.468
	c6.727,0.517,11.901-0.518,11.901-0.518s-5.175,3.622-10.349,4.657c0,0,9.58-0.057,14.346-3.31c5.416-3.809,9.68-7.796,12.946-11.8
	c2.801-3.434,4.875-6.875,6.31-10.222C511.612,245.927,511.49,238.572,509.135,233.143z M397.294,271.917
	c-0.852,2.814-0.744,5.847,0.326,8.784C397.347,278.185,397.251,275.202,397.294,271.917z M453.445,290.545
	c-25.797,1.458-47.887-4.223-53.731-5.894c1.759,2.478,4.289,4.761,7.636,6.612c2.545,1.407,5.568,2.555,9.049,3.364
	c3.736,0.869,8,1.347,12.832,1.285c7.526-0.095,16.405-1.484,26.652-4.612C454.37,290.887,453.444,290.546,453.445,290.545
	L453.445,290.545z"></path>
<path id="color_x5F_2_46_" fill="#7BC0A1" d="M491.702,404.986c-0.014-0.547-0.029-1.094-0.043-1.644
	c1.455-1.541,3.056-2.924,4.948-3.925c0.652-0.345,1.23,0.645,0.578,0.989C495.047,401.538,493.296,403.185,491.702,404.986z
	 M355.787,461.209h-1.159c-0.211-0.537-0.386-1.088-0.546-1.644l-0.07,1.644l-1.695,39.822h4.231L355.787,461.209z M506.835,444.384
	h-12.7c0.978,6.879,2.34,11.845,4.297,14.062c-6.606,2.019-13.454,3.53-20.523,4.556c-0.238,10.723-0.548,24.657-0.849,38.029h24.13
	c5.98,0,11.202-4.513,11.588-10.481c0.423-6.539-4.755-11.975-11.204-11.975h-7.2c-3.065,0-5.801-2.241-6.092-5.291
	c-0.334-3.5,2.409-6.444,5.84-6.444h12.327c5.98,0,11.202-4.513,11.588-10.481C518.461,449.82,513.283,444.384,506.835,444.384z
	 M413.736,523.994c0-6.201-5.027-11.228-11.228-11.228h-4.901c-0.926,9.434-1.743,17.094-2.335,22.456h7.236
	C408.709,535.222,413.736,530.195,413.736,523.994z M416.358,564.408c-2.013,3.016-5.445,5.005-9.344,5.005h-66.475
	c-3.026,0-5.479,2.453-5.479,5.479c0,3.026,2.453,5.479,5.479,5.479h3.499c4.357,0,7.841,3.739,7.417,8.184
	c-0.37,3.874-3.845,6.72-7.737,6.72h-90.01c-4.357,0-7.841-3.739-7.417-8.184c0.369-3.874,3.845-6.72,7.737-6.72h24.25
	c3.026,0,5.479-2.453,5.479-5.479c0-3.026-2.453-5.479-5.479-5.479h-73.396c-6.448,0-11.627-5.436-11.204-11.975
	c0.387-5.968,5.608-10.48,11.588-10.48h18.464c3.431,0,6.174-2.944,5.84-6.444c-0.291-3.051-3.028-5.291-6.092-5.291h-86.949
	c-6.448,0-11.627-5.436-11.204-11.975c0.386-5.968,5.608-10.48,11.588-10.48h67.529c3.431,0,6.174-2.944,5.84-6.444
	c-0.291-3.051-3.028-5.291-6.092-5.291h-25.576c-6.448,0-11.627-5.436-11.204-11.975c0.386-5.968,5.608-10.48,11.588-10.48h28.526
	c3.431,0,6.174-2.944,5.84-6.444c-0.291-3.051-3.028-5.291-6.092-5.291H92.696c-6.448,0-11.627-5.436-11.204-11.975
	c0.387-5.968,5.608-10.48,11.588-10.48h57.885c3.431,0,6.174-2.944,5.84-6.444c-0.291-3.051-3.028-5.291-6.092-5.291H35.711
	c-6.448,0-11.627-5.436-11.204-11.975c0.386-5.966,5.606-10.478,11.585-10.48H47.5c-0.722-0.861-1.802-1.887-1.828-1.915
	c-1.102-0.888-2.339-1.513-3.575-1.653c-0.581-0.066-0.586-0.984,0-0.918c1.384,0.157,2.752,0.796,3.966,1.725
	c2.338-1.262,3.083-3.898,4.355-6.086c0.297-0.511,1.09-0.048,0.792,0.463c-1.305,2.246-2.116,4.865-4.396,6.25
	c0.687,0.628,1.28,1.362,1.803,2.133h8.43c0.064-1.047,0.195-2.098,0.431-3.128c-0.196,0.017-1.465-3.728-3.319-5.163
	c-0.465-0.36,0.264-1.098,0.649-0.649c1.244,1.454,2.382,2.921,2.952,4.746c0.656-2.173,1.764-4.176,3.511-5.664
	c0.447-0.381,1.099,0.266,0.649,0.649c-0.902,0.768-1.607,1.688-2.177,2.689c1.874,0.364,3.831,0.2,5.199-1.273
	c0.403-0.434,1.05,0.216,0.649,0.649c-1.612,1.737-3.966,1.945-6.181,1.494c-0.041-0.008-0.068-0.028-0.1-0.043
	c-0.822,1.76-1.225,3.734-1.347,5.692h16.704c-0.328-3.119-1.046-6.203-2.279-9.075c-0.004,0-0.006,0.002-0.01,0.002
	c-2.662-0.071-4.968-1.185-6.977-2.887c-0.451-0.382,0.201-1.029,0.649-0.649c1.712,1.451,3.669,2.421,5.904,2.586
	c-0.406-0.85-0.846-1.686-1.348-2.489c-0.314-0.503,0.48-0.963,0.792-0.463c1.139,1.822,2.017,3.779,2.692,5.809
	c1.643-2.022,2.945-4.257,5.168-5.744c0.493-0.329,0.952,0.466,0.463,0.792c-2.279,1.524-3.565,3.941-5.301,5.986
	c0.585,1.997,0.964,4.058,1.177,6.132h14.046c0.072-2.677-0.679-5.274-0.935-5.975c-0.07,0.061-4.096-0.04-6.561-3.463
	c-0.346-0.48,0.205-1.035,0.649-0.649c1.589,1.384,3.297,3.382,5.585,3.303c-0.549-1.239-1.303-2.432-2.334-3.572
	c-0.395-0.437,0.252-1.088,0.649-0.649c1.825,2.017,2.868,4.179,3.394,6.478c1.695-2.092,3.511-4.133,5.914-5.403
	c0.522-0.276,0.985,0.516,0.463,0.792c-2.531,1.338-4.388,3.572-6.154,5.785c0.166,1.086,0.212,2.208,0.201,3.351h11.75
	c-0.238-0.542-0.468-1.048-0.523-1.045c-2.41,0.158-4.481-0.921-6.289-2.428c-0.454-0.379,0.198-1.025,0.649-0.649
	c1.628,1.358,3.472,2.302,5.64,2.16c0.011-0.001,0.019,0.004,0.03,0.004c-0.465-2.348-0.381-4.845-0.013-7.237
	c0.09-0.583,0.974-0.334,0.885,0.244c-0.253,1.643-0.367,3.357-0.234,5.031c2.359-0.928,3.776-3.475,4.626-5.734
	c0.206-0.548,1.093-0.309,0.885,0.244c-0.986,2.623-2.62,5.45-5.399,6.432c0.143,1.024,0.384,2.027,0.757,2.979h9.535
	c0.27-1.807,0.282-3.523-0.132-5.198c-0.048,0.102-3.054,0.434-4.288-0.268c-0.514-0.292-0.051-1.084,0.463-0.792
	c1.036,0.588,3.549,0.383,3.636,0.428c-0.291-0.932-0.699-1.857-1.282-2.782c-0.316-0.501,0.478-0.961,0.792-0.463
	c1.197,1.9,1.756,3.831,1.882,5.831c2.222-0.959,3.292-2.987,3.932-5.263c0.16-0.569,1.045-0.325,0.885,0.244
	c-0.756,2.689-2.096,4.976-4.792,6.003c-0.005,0.741-0.077,1.496-0.18,2.26h6.973c0.062-0.592,0.166-1.179,0.338-1.758
	c-0.155,0.015-1.373-1.869-1.801-2.725c-0.264-0.527,0.528-0.991,0.792-0.463c0.401,0.802,0.805,1.606,1.284,2.365
	c0.563-1.519,1.373-2.995,2.053-4.43c0.253-0.534,1.044-0.068,0.792,0.463c-0.987,2.083-2.326,4.261-2.56,6.548h78.977
	c-0.292-2.856-1.965-5.575-3.197-8.176c-0.314-0.663,0.674-1.245,0.989-0.578c0.849,1.792,1.86,3.635,2.563,5.532
	c0.599-0.948,1.103-1.952,1.604-2.954c0.33-0.66,1.318-0.08,0.989,0.578c-0.535,1.07-2.056,3.422-2.249,3.403
	c0.216,0.723,0.346,1.456,0.422,2.195h8.707c-0.129-0.953-0.218-1.896-0.225-2.822c-3.367-1.283-5.039-4.139-5.984-7.496
	c-0.2-0.711,0.905-1.015,1.105-0.305c0.799,2.842,2.136,5.374,4.91,6.572c0.157-2.498,0.854-4.909,2.35-7.281
	c0.392-0.622,1.384-0.048,0.99,0.578c-0.729,1.156-1.238,2.31-1.601,3.474c0.109-0.056,3.247,0.2,4.54-0.534
	c0.642-0.365,1.22,0.625,0.578,0.989c-1.541,0.875-5.295,0.461-5.355,0.334c-0.516,2.091-0.501,4.234-0.164,6.491h11.906
	c0.466-1.189,0.767-2.44,0.945-3.719c-3.47-1.226-5.51-4.756-6.741-8.031c-0.26-0.691,0.847-0.99,1.105-0.305
	c1.061,2.82,2.83,6.001,5.776,7.159c0.166-2.09,0.023-4.23-0.293-6.282c-0.111-0.721,0.993-1.032,1.105-0.305
	c0.46,2.988,0.564,6.106-0.017,9.037c0.014,0,0.023-0.006,0.037-0.005c2.708,0.178,5.009-1.001,7.042-2.697
	c0.563-0.469,1.377,0.337,0.81,0.81c-2.257,1.882-4.843,3.23-7.853,3.032c-0.069-0.005-0.355,0.627-0.653,1.304h14.672
	c-0.013-1.428,0.043-2.829,0.251-4.185c-2.205-2.762-4.525-5.552-7.685-7.223c-0.652-0.345-0.074-1.334,0.578-0.989
	c3,1.586,5.267,4.133,7.384,6.746c0.658-2.87,1.96-5.57,4.239-8.089c0.496-0.548,1.304,0.264,0.81,0.81
	c-1.288,1.423-2.229,2.913-2.915,4.46c2.858,0.098,4.99-2.396,6.974-4.125c0.554-0.482,1.242,0.211,0.81,0.81
	c-3.079,4.273-8.105,4.4-8.193,4.324c-0.319,0.874-1.258,4.117-1.168,7.46h17.539c0.266-2.59,0.74-5.163,1.47-7.657
	c-2.168-2.554-3.773-5.572-6.619-7.475c-0.61-0.408-0.037-1.401,0.578-0.989c2.777,1.857,4.402,4.647,6.454,7.172
	c0.842-2.534,1.939-4.979,3.361-7.253c0.39-0.624,1.382-0.049,0.989,0.578c-0.627,1.003-1.177,2.046-1.683,3.108
	c2.79-0.206,5.234-1.418,7.371-3.229c0.559-0.474,1.374,0.333,0.81,0.81c-2.508,2.126-5.387,3.517-8.712,3.605
	c-0.005,0-0.008-0.002-0.012-0.002c-1.54,3.587-2.436,7.438-2.846,11.332h20.858c-0.152-2.445-0.655-4.909-1.682-7.107
	c-0.041,0.019-0.075,0.043-0.125,0.053c-2.766,0.562-5.705,0.303-7.718-1.866c-0.501-0.54,0.307-1.352,0.81-0.81
	c1.707,1.84,4.151,2.044,6.491,1.59c-0.711-1.25-1.592-2.399-2.718-3.358c-0.562-0.479,0.251-1.286,0.81-0.81
	c2.181,1.857,3.565,4.359,4.384,7.072c0.712-2.279,2.133-4.11,3.686-5.926c0.48-0.561,1.391,0.361,0.81,0.81
	c-2.315,1.791-3.9,6.468-4.144,6.446c0.294,1.285,0.457,2.598,0.538,3.905h10.527c0.652-0.963,1.394-1.879,2.251-2.663
	c-2.846-1.73-3.859-5-5.489-7.804c-0.371-0.639,0.618-1.216,0.989-0.578c1.588,2.732,2.518,6.023,5.438,7.599
	c1.517-1.16,3.224-1.958,4.953-2.154c0.732-0.083,0.725,1.064,0,1.146c-1.543,0.175-3.087,0.954-4.464,2.064
	c-0.032,0.035-1.38,1.316-2.282,2.392h18.184c0,0,0,0,0,0h2.956c0.157,3.499,0.326,6.979,0.505,10.436
	c-0.947-0.836-2-1.5-3.253-1.857c-4.782-1.364-9.341,2.56-12.576,6.337s-7.034,8.122-12.002,7.904
	c-4.063-0.178-7.727-3.511-11.735-2.82c-3.507,0.605-5.734,4.035-7.233,7.264c-1.499,3.228-2.927,6.83-6.02,8.591
	c-3.357,1.911-7.599,1.025-11.32,2.063c-5.415,1.51-8.976,7.628-7.844,13.098h23.16c-1.148-1.37-2.865-3.001-2.907-3.046
	c-1.753-1.413-3.72-2.406-5.685-2.628c-0.924-0.105-0.932-1.565,0-1.459c2.201,0.249,4.376,1.266,6.308,2.743
	c3.718-2.007,4.903-6.198,6.925-9.678c0.472-0.812,1.733-0.077,1.26,0.737c-2.076,3.572-3.366,7.736-6.991,9.94
	c1.092,0.999,2.036,2.166,2.867,3.392h13.407c0.103-1.665,0.31-3.337,0.685-4.974c-0.311,0.028-2.33-5.929-5.278-8.21
	c-0.739-0.572,0.421-1.747,1.032-1.032c1.979,2.313,3.788,4.646,4.695,7.548c1.043-3.456,2.806-6.642,5.583-9.007
	c0.711-0.606,1.748,0.422,1.032,1.032c-1.434,1.221-2.556,2.684-3.462,4.276c2.98,0.578,6.093,0.318,8.268-2.025
	c0.641-0.69,1.67,0.344,1.032,1.032c-2.564,2.763-6.308,3.093-9.83,2.376c-0.064-0.013-0.108-0.044-0.16-0.068
	c-1.308,2.799-1.949,5.938-2.142,9.052h26.566c-0.522-4.96-1.663-9.865-3.624-14.433c-0.006,0-0.009,0.003-0.015,0.003
	c-4.234-0.112-7.902-1.884-11.096-4.592c-0.718-0.608,0.319-1.636,1.032-1.032c2.723,2.307,5.835,3.85,9.389,4.113
	c-0.645-1.353-1.345-2.681-2.143-3.958c-0.5-0.799,0.763-1.531,1.26-0.736c1.811,2.897,3.208,6.01,4.28,9.238
	c2.484-3.057,4.493-6.407,7.721-8.764c0.037,0.58,0.075,1.157,0.113,1.734c-2.948,2.414-4.847,5.775-7.308,8.674
	c0.93,3.177,1.534,6.454,1.872,9.752h6.732c0.591,7.844,1.204,15.351,1.816,22.397H282.56c-2.724,0-4.931,2.208-4.931,4.931
	c0,2.724,2.208,4.931,4.931,4.931h37.476c2.603,28.396,4.932,47.253,4.932,47.253l2.509,0.436l-3.469,3.52
	c0,0-16.609-2.595-16.355,19.729h42.812v-3.58v-16.284l1.352-31.778h4.955l0.523,27.388c-0.049,0.307-0.094,0.615-0.094,0.935
	c0,0.425,0.05,0.837,0.136,1.236l0.042,2.218v16.284v3.58C357.38,564.408,414.575,564.408,416.358,564.408z M239.821,442.84
	c2.724,0,4.931-2.208,4.931-4.931c0-2.724-2.208-4.931-4.931-4.931h-46.684c-2.724,0-4.931,2.208-4.931,4.931
	c0,2.723,2.208,4.931,4.931,4.931H239.821z M282.385,522.072c0-2.724-2.208-4.931-4.931-4.931h-46.684
	c-2.723,0-4.931,2.208-4.931,4.931c0,2.724,2.208,4.931,4.931,4.931h46.684C280.177,527.003,282.385,524.795,282.385,522.072z
	 M408.271,411.815h-0.187c0.013-1.427-0.043-2.829-0.251-4.185c0.236-0.296,0.474-0.591,0.713-0.886
	c0.033-0.629,0.067-1.258,0.1-1.892c-0.369,0.433-0.733,0.87-1.091,1.311c-0.419-1.827-1.102-3.584-2.128-5.27
	c-0.028,0.762-0.059,1.522-0.089,2.283c0.026,0.057,0.058,0.112,0.083,0.169c-0.031,0.001-0.059-0.007-0.089-0.007
	c-0.013,0.337-0.026,0.674-0.039,1.01c0.325,0.027,0.521,0.02,0.537,0.006c0.319,0.874,1.258,4.117,1.168,7.46h-2.02
	c-0.315,7.029-0.676,13.992-1.071,20.834h2.918C407.395,426.399,407.849,419.36,408.271,411.815z M402.357,456.685
	c1.285-2.808,2.284-7.015,3.093-12.3h-2.261c-1.358,21.088-2.979,40.593-4.464,56.647h26.974
	c-0.313-13.893-0.635-28.385-0.876-39.26C417.509,460.507,410.027,458.833,402.357,456.685z M555.71,410.193h-14.599
	c0.132,0.535,0.244,1.075,0.323,1.622h-12.866c0.292-2.856,1.964-5.575,3.197-8.176c0.314-0.663-0.674-1.245-0.99-0.578
	c-0.849,1.792-1.86,3.635-2.563,5.532c-0.599-0.948-1.102-1.952-1.604-2.954c-0.33-0.66-1.318-0.08-0.989,0.578
	c0.535,1.07,2.056,3.422,2.249,3.403c-0.216,0.723-0.346,1.456-0.422,2.195h-8.707c0.128-0.953,0.218-1.896,0.225-2.822
	c3.367-1.283,5.039-4.139,5.984-7.496c0.2-0.711-0.905-1.014-1.105-0.305c-0.799,2.842-2.136,5.374-4.91,6.572
	c-0.157-2.498-0.854-4.909-2.349-7.281c-0.392-0.622-1.384-0.048-0.99,0.578c0.728,1.156,1.238,2.31,1.601,3.474
	c-0.11-0.056-3.247,0.2-4.54-0.534c-0.642-0.365-1.22,0.625-0.578,0.989c1.541,0.875,5.295,0.462,5.355,0.334
	c0.516,2.091,0.501,4.234,0.164,6.491h-11.906c-0.466-1.189-0.767-2.44-0.945-3.719c3.47-1.225,5.51-4.756,6.741-8.031
	c0.26-0.691-0.847-0.99-1.105-0.305c-1.061,2.82-2.83,6.001-5.776,7.16c-0.166-2.09-0.023-4.23,0.293-6.282
	c0.111-0.721-0.993-1.032-1.105-0.305c-0.459,2.988-0.564,6.106,0.017,9.037c-0.014,0-0.023-0.006-0.037-0.005
	c-2.707,0.178-5.009-1.001-7.042-2.697c-0.563-0.469-1.377,0.337-0.81,0.81c2.257,1.882,4.843,3.23,7.853,3.032
	c0.069-0.005,0.355,0.627,0.653,1.304h-12.522c0.243,7.535,0.559,14.581,1.024,20.834h62.399c5.98,0,11.202-4.513,11.588-10.481
	C567.337,415.629,562.159,410.193,555.71,410.193z M447.562,464.356c-0.931,14.92-3.095,25.825-4.915,36.675h17.465
	c-1.813-10.804-3.967-21.662-4.904-36.485C452.681,464.535,450.138,464.484,447.562,464.356z"></path>
<path id="color_x5F_1_45_" fill="#A2DADD" d="M39.291,356.732c1.235,1.541,2.569,3,3.994,4.368l-4.034,11.483
	c-1.206,3.432-1.344,6.951-0.634,10.194H22.837c-6.995,0-13.103-5.234-13.555-12.156c-0.495-7.585,5.562-13.89,13.105-13.89H39.291z
	 M124.71,176.132l2.371,6.748l4.199-6.748H124.71z M81.403,196.34l3.72,10.587h8.849l10.82-30.795H59.81
	c-8.568,0-15.449,7.455-14.887,16.422c0.514,8.184,7.452,14.373,15.398,14.372h7.154l3.72-10.587
	C72.889,191.517,79.708,191.517,81.403,196.34z M375.523,159.918l0.109-0.114l4.582,1.362l1.257,7.163
	c5.932,1.161,12.22,2.561,17.701,4.113l2.745-7.814c1.964-5.591,9.87-5.591,11.835,0l2.094,5.96
	c0.509-4.156,1.089-8.564,1.696-13.204h-42.346L375.523,159.918z M4.153,239.442c0.513,8.184,7.452,14.372,15.398,14.372h31.45
	l10.82-30.795H19.039C10.471,223.02,3.59,230.474,4.153,239.442z M591.127,368.888c-0.452-6.922-6.559-12.156-13.554-12.156H528.85
	l4.135,11.77c1.703,4.846,1.667,9.84,0.268,14.275h44.768C585.565,382.777,591.622,376.472,591.127,368.888z M573.409,329.231
	c-0.452-6.922-6.56-12.156-13.555-12.156h-14.419c-4.013,0-7.221-3.415-6.831-7.474c0.34-3.538,3.541-6.137,7.126-6.137h8.421
	c7.542,0,13.6-6.305,13.105-13.889c-0.452-6.922-6.56-12.156-13.555-12.156h-51.14c0.078,5.62-0.166,10.473-0.887,13.863
	c0,0-5.322,1.729-14.072,3.326l0.667,16.354l3.01-8.566c0.792-2.253,3.977-2.253,4.769,0l10.316,29.361l4.596-13.08
	c0.75-2.134,3.769-2.134,4.518,0l8.589,24.444h36.236C567.847,343.121,573.904,336.816,573.409,329.231z M524.067,113.15H451.34
	c-3.357,0-6.211,2.194-7.309,5.266c-11.904,2.24-21.426,11.229-24.427,22.846h-37.313c1.223-2.689,2.145-5.543,2.735-8.433
	c2.066,2.154,5.436,0.376,7.57-3.038c2.258-3.613,3.312-10.84,0-12.798c-1.446-0.855-2.789-0.565-3.846,0.028
	c1.085-2.938,2.445-6.852,3.662-11.202h88.112c4.511,0,8.168-3.662,8.168-8.179c0-4.517-3.657-8.179-8.168-8.179H395.42
	c0.287-4.718-0.1-9.214-1.618-12.901c-0.211-0.513-0.515-0.837-0.884-1.051c0.1-0.569,0.156-1.173,0.156-1.816
	c0-5.356-3.657-8.179-8.168-8.179h-15.499c-1.808,0-3.274-1.468-3.274-3.279c0-1.811,1.466-3.279,3.274-3.279h74.692
	c4.511,0,8.168-3.662,8.168-8.179c0-4.517-3.657-8.179-8.168-8.179H314.728c-4.511,0-8.168,3.662-8.168,8.179
	c0,4.517,3.657,8.179,8.168,8.179h2.218c1.808,0,3.274,1.468,3.274,3.279c0,1.811-1.466,3.279-3.274,3.279h-61.412
	c-4.511,0-8.168,3.662-8.168,8.179s3.657,8.179,8.168,8.179h73.9c-0.281,0.405-0.561,0.819-0.832,1.285
	c-5.971,10.266-0.423,25.66,2.822,33.388h-0.605c-1.097-0.712-2.566-1.152-4.157-0.212c-0.103,0.061-0.189,0.141-0.284,0.212
	h-81.569c-3.723,0-6.741,3.018-6.741,6.741v2.64c0,3.723,3.018,6.741,6.741,6.741h70.6c2.373,0,4.297,1.924,4.297,4.297
	c0,2.373-1.924,4.297-4.297,4.297h-15.551c-3.723,0-6.741,3.018-6.741,6.741v2.64c0,3.723,3.018,6.741,6.741,6.741h44.205
	l-0.327,2.534l-0.109-0.114l-4.582,1.362l-1.257,7.163c-7.276,1.424-15.089,3.207-21.288,5.189
	c-1.206-1.257-2.877-1.998-4.656-1.998c0,0-0.001,0-0.001,0H209.835l-17.803,25.692h-22.418v-37.174h-21.429
	c-7.946,0-14.884-6.189-15.398-14.372c-0.563-8.968,6.318-16.423,14.887-16.423h6.226c4.072,0,7.708-3.073,8.095-7.256
	c0.443-4.799-3.201-8.837-7.76-8.837h-61.97c-7.946,0-14.884-6.189-15.398-14.372c-0.563-8.968,6.318-16.423,14.887-16.423h62.929
	c4.072,0,7.708-3.072,8.095-7.256c0.443-4.799-3.201-8.837-7.76-8.837h-24.534c-7.946,0-14.884-6.189-15.398-14.372
	c-0.563-8.968,6.318-16.422,14.886-16.422h150.125c4.021,0,7.28-3.364,7.28-7.514c0-4.15-3.26-7.514-7.281-7.514h-32.222
	c-5.171,0-9.79-3.902-10.281-9.215C237.032,5.128,241.661,0,247.451,0h119.598c5.171,0,9.79,3.902,10.281,9.215
	c0.563,6.095-4.066,11.223-9.855,11.223h-4.65c-4.021,0-7.281,3.364-7.281,7.514c0,4.15,3.26,7.514,7.281,7.514h114.628
	c8.239,0,14.919,6.894,14.919,15.397s-6.679,15.397-14.919,15.397h-58.391c-4.306,0-7.797,3.603-7.797,8.047v0
	c0,4.444,3.491,8.047,7.797,8.047h105.005c8.24,0,14.919,6.894,14.919,15.397C538.986,106.256,532.307,113.15,524.067,113.15z
	 M169.814,80.877c7.128,0,7.14-11.077,0-11.077C162.686,69.8,162.674,80.877,169.814,80.877z M214.542,140.996l-49.635,0v13.647
	h27.279v42.312l17.65-25.438v-16.875h4.706v0h0V140.996z M193.568,132.694c7.128,0,7.139-11.077,0-11.077
	C186.441,121.617,186.429,132.694,193.568,132.694z M215.108,80.877c7.128,0,7.139-11.077,0-11.077c-9.518,0-19.036,0-28.555,0
	c-7.128,0-7.139,11.077,0,11.077c2.462,0,1.231,0,3.693,0c3.816,0,3.816,6.646,0,6.646c-10.339,0-16.985,0-27.324,0
	c-7.128,0-7.139,11.077,0,11.077c3.364,0,3.405,0,6.769,0c3.569,0,6.154,0.615,6.154,4.308c0,3.939-2.831,4.308-6.154,4.308
	c-7.128,0-6.77,11.077,0.369,11.077c8.123,0,16.247,0,24.37,0c7.128,0,7.139-11.077,0-11.077c-3.446,0-1.6,0-5.046,0
	c-5.908,0-6.646-8.616,0-8.616c7.754,0,10.216,0,17.97,0c7.128,0,7.139-11.077,0-11.077c-0.78,0-1.559,0-2.339,0
	c-4.8,0-5.046-6.646,0-6.646C208.379,80.877,211.743,80.877,215.108,80.877z M222.985,87.523c-7.128,0-7.14,11.077,0,11.077
	C230.113,98.601,230.124,87.523,222.985,87.523z M495.92,214.686l-0.16,1.496c1.162,1.457,2.25,3.258,3.237,5.297
	c4.325,3.229,8.175,7.138,10.139,11.663c2.355,5.429,2.477,12.784-0.905,20.672h65.172c8.568,0,15.449-7.454,14.886-16.422
	c-0.513-8.184-7.451-14.373-15.397-14.373H506.84c-4.559,0-8.203-4.038-7.76-8.837c0.387-4.184,4.023-7.256,8.095-7.256h40.736
	c8.568,0,15.449-7.454,14.887-16.422c-0.513-8.184-7.451-14.373-15.398-14.373h-16.38c-4.559,0-8.204-4.038-7.76-8.837
	c0.387-4.184,4.023-7.256,8.095-7.256h9.566c8.568,0,15.449-7.454,14.887-16.422c-0.513-8.184-7.452-14.373-15.398-14.373h-66.467
	c4.449,5.396,7.121,12.311,7.121,19.851c0,0.002,0,0.003,0,0.005c3.485,27.465,6.979,47.88,2.391,58.462
	C494.451,210.87,495.92,214.686,495.92,214.686z M242.085,296.055l10.339-16.65V380.99c-1.154,1.497-2.297,3.046-3.841,4.046
	c-3.308,2.143-7.634,1.328-11.493,0.525c-3.522-0.734-7.507-1.264-10.534,0.497h-7.505v6.932h0.238
	c-1.996,1.014-4.349,1.388-6.618,1.454c-3.101,0.09-6.223-0.294-9.299,0.113c-7.862,1.039-14.537,7.825-15.662,15.637h-3.466
	v-88.705h-40.643v76.197h-9.313v6.033h9.313v6.475h-11.699c-0.285-1.982-1.019-3.88-2.086-5.576h1.805v-6.932
	c0,0-12.235-0.011-12.263-0.015c-2.463-0.326-4.963-0.018-7.447-0.09c-2.483-0.072-5.099-0.595-6.929-2.276
	c-1.311-1.204-2.111-2.906-3.509-4.006c-2.481-1.951-6.027-1.476-9.117-0.832c-3.09,0.644-6.555,1.296-9.204-0.42
	c-1.553-1.006-2.605-2.698-3.798-4.137v-89.855H242.085z M120.898,306.968h18.663v-6.932h-18.663V306.968z M111.567,309.367v6.932
	h18.663v-6.932H111.567z M99.569,306.968h18.663v-6.932H99.569V306.968z M108.901,316.299v-6.932H90.238v6.932H108.901z
	 M129.046,374.411v-40.458H98.058v40.458H129.046z M140.954,388.353h-18.663v6.932h18.663V388.353z M191.962,306.968h18.663v-6.932
	h-18.663V306.968z M203.959,309.367v6.932h18.663v-6.932H203.959z M201.293,316.299v-6.932H182.63v6.932H201.293z M216.385,386.058
	h-18.663v6.932h18.663V386.058z M232.621,333.954h-30.989v40.458h30.989V333.954z M265.279,321.559h18.663v-6.932h-18.663V321.559z
	 M305.271,314.627h-18.663v6.932h18.663V314.627z M274.611,312.228h18.663v-6.932h-18.663V312.228z M295.939,305.296v6.932h11.797
	c0.007-0.045,0.014-0.089,0.021-0.133l-3.88-6.799H295.939z M259.414,291.545h18.663v-6.932h-18.663V291.545z M268.745,282.214
	h18.663v-6.932h-18.663V282.214z M296.239,398.289c2.636,1.501,5.967,0.805,8.888,1.619c1.399,0.39,2.635,1.177,3.64,2.204v-6.723
	h-15.333C294.159,396.569,295.039,397.606,296.239,398.289z M312.712,395.389h-1.279v6.932h2.48
	c-0.066-1.69-0.129-3.382-0.189-5.076C313.373,396.609,313.038,395.992,312.712,395.389z M299.435,386.058v6.932h12
	c-0.757-1.449-1.395-2.727-1.856-3.738c-0.194-0.472,0.146-1.611,0.872-3.193H299.435z M354.299,454.449l-0.07,1.657
	c0.507-0.233,0.989-0.5,1.445-0.807l-0.034-1.759C355.22,453.883,354.771,454.183,354.299,454.449z M318.453,246.269
	c-9.433-0.299-18.585-1.872-27.58-4.708c-1.91-0.602-2.727,2.394-0.825,2.994c9.267,2.922,18.698,4.511,28.405,4.818
	C320.452,249.437,320.449,246.332,318.453,246.269z"></path>
</svg>