<?xml version="1.0" standalone="no"?>
<svg version="1.1" id="Layer_1" xmlns="http://www.w3.org/2000/svg" xmlns:xlink="http://www.w3.org/1999/xlink" x="0px" y="0px" viewBox="0 0 595.276 595.276" enable-background="new 0 0 595.276 595.276" xml:space="preserve">
<path id="color_x5F_7_38_" fill="#0E3253" d="M333.5,294.749c4.863-5.23,8.552-11.906,10.689-17.614
	c3.354-8.958,3.465-18.787,4.554-28.241c0.113-0.982,0.233-1.961,0.372-2.933c0.426-2.981,0.896-5.956,1.385-8.929
	c0.888-5.402,1.848-10.794,2.804-16.184c-0.406,0.047-0.817,0.077-1.235,0.077c-1.176,0-2.304-0.198-3.361-0.549
	c-0.95,5.518-1.88,11.031-2.744,16.553c-0.504,3.225-0.981,6.453-1.428,9.688c-0.598,4.329-1.142,8.669-1.595,13.029
	c-0.782,7.53-3.893,19.429-9.586,28.183c-2.857,4.394-6.372,7.979-10.563,9.838c-3.202,1.42-6.795,1.841-10.809,0.802
	c-8.496-2.198-12.947-8.055-15.556-15.13c-0.269-0.73-0.515-1.475-0.747-2.228c-0.367-1.189-0.691-2.402-0.982-3.631
	c-0.773-3.273-1.312-6.65-1.791-9.938c-0.146-1.001-0.779-5.402-0.963-6.572c-1.701-10.764-2.878-23.074-7.028-33.644
	c-0.326-0.831-0.671-1.651-1.036-2.458c-0.47-1.042-0.962-2.07-1.503-3.067c0.324-0.057,2.587-0.571,3.375-0.812
	c6.974-2.133,12.638-7.013,15.022-15.595c0.133-0.48,0.157-0.926,0.094-1.331c-0.086-0.556-0.343-1.029-0.695-1.415
	c-0.513-0.564-1.239-0.928-2.004-1.044c-0.707-0.108-1.435,0.003-2.051,0.362c-0.596,0.348-1.087,0.92-1.326,1.78
	c-2.262,8.141-8.244,11.746-15.306,12.436c-0.876,0.086-1.765,0.137-2.67,0.136c-1.611-0.003-3.26-0.146-4.917-0.398
	c-1.761-0.268-3.529-0.666-5.275-1.176c-2.793-0.815-5.521-1.908-8.051-3.204c-1.37-0.702-2.68-1.46-3.91-2.264
	c-2.538-1.66-4.736-3.507-6.387-5.43c-0.901-1.049-2.01-1.196-2.972-0.831c-0.726,0.276-1.362,0.842-1.763,1.558
	c-0.022,0.039-0.049,0.076-0.07,0.116c-0.542,1.061-0.562,2.401,0.419,3.543c1.525,1.776,3.365,3.435,5.415,4.957
	c2.459,1.827,5.233,3.442,8.2,4.789c3.344,1.518,6.916,2.699,10.54,3.435c1.168,0.237,2.34,0.417,3.51,0.561
	c1.93,0.237,3.855,0.358,5.746,0.318c2.004,3.327,3.398,6.906,4.469,10.604c0.27,0.933,0.525,1.871,0.758,2.816
	c1.152,4.678,1.901,9.494,2.781,14.199c0.909,4.86,1.589,9.763,2.29,14.659c0.142,0.991,0.285,1.982,0.43,2.972
	c0.489,3.325,1.014,6.643,1.65,9.938c0.016,0.082,0.543,2.505,0.873,3.631c0.219,0.746,0.462,1.489,0.728,2.228
	c3.797,10.55,12.355,20.039,24.235,20.341c2.61,0.066,5.104-0.433,7.463-1.362C326.891,300.777,330.43,298.051,333.5,294.749z
	 M293.962,211.046c1.016-1.477,1.827-3.201,2.382-5.202c0.507-1.827,1.872-1.048,1.641-0.206c-0.647,2.356-2.101,5.053-2.755,6.088
	C294.576,212.76,293.591,211.582,293.962,211.046z M246.808,205.896c8.691,10.121,34.581,18.262,45.475,7.16
	c0.985-0.569,1.695,0.012,1.312,0.678C281.03,227.221,250.574,215.93,246.808,205.896z M286.223,244.926
	c-0.118-4.493-1.117-8.769-3.028-12.839c-0.422-0.899,0.915-1.686,1.339-0.783c2.025,4.314,3.114,8.856,3.24,13.621
	C287.8,245.926,286.249,245.922,286.223,244.926z M321.197,301.492c-5.506,2.59-10.902,0.267-15.943-2.288
	c-0.891-0.452-0.105-1.789,0.783-1.339c4.464,2.262,9.44,4.61,14.378,2.288C321.313,299.73,322.1,301.068,321.197,301.492z
	 M324.091,300.237c-0.999,0-0.998-1.551,0-1.551C325.09,298.686,325.089,300.237,324.091,300.237z"></path>
<path id="color_x5F_6_44_" fill="#F8B8A5" d="M247.23,137.774c3.085,0.063,6.162-0.049,9.24-0.349
	c0.244-2.328,1.304-3.36,3.68-3.703c3.377-0.487,6.899-0.505,10.302-0.754c2.099-0.154,5.65-1.102,7.494,0.42
	c0.792,0.654,1.15,1.683,1.3,2.82c0.497-0.084,1.036-0.106,1.381-0.031c0.18-2.071,0.969-3.337,3.228-3.705
	c3.01-0.49,6.186-0.485,9.225-0.723c0.14-0.011,0.298-0.031,0.45-0.048c-1.801-8.457-4.194-15.625-5.444-19.098
	c-0.185,0.084-0.372,0.167-0.57,0.24c-15.47,5.7-41.656,6.514-41.656,6.514s2.833,6.784,3.212,12.773
	C248.29,133.863,247.693,135.762,247.23,137.774z M282.723,125.452c3.888-2.081,5.862-0.952,6.749-0.137
	c0.495,0.455-0.156,1.76-0.744,1.434c-0.73-0.405-3.288,0.212-5.152,1.008C281.994,128.433,281.143,126.298,282.723,125.452z
	 M260.379,127.631c1.12-1.072,3.613-2.773,8.524-1.819c1.996,0.388,0.921,2.77-1.076,2.552c-2.355-0.256-5.586-0.132-6.508,0.485
	C260.576,129.346,259.754,128.229,260.379,127.631z M284.124,134.164c-2.405,0.741-1.817,3.356-1.817,5.354
	c0,2.507-0.564,5.676,3.481,6.169c3.048,0.371,6.649-0.465,9.765-0.756c-0.051-0.593-0.107-1.185-0.17-1.777
	c-0.921,0.586-2.149,0.923-3.738,0.923l3.109-5.761c-0.043-0.277-0.09-0.551-0.135-0.827c-0.112-0.686-0.229-1.367-0.351-2.043
	c-0.031-0.17-0.06-0.34-0.092-0.509c-0.096-0.516-0.195-1.027-0.296-1.536c-1.462,0.115-2.923,0.229-4.385,0.344
	C287.856,133.872,285.702,133.678,284.124,134.164z M288.436,136.4c-0.325-0.159-0.696-0.207-1.064-0.177
	c0.42,0.859,0.681,2.165,0.681,4.04c0,3.876-4.917,3.876-4.917,0c0-1.187,0.113-2.126,0.295-2.891
	c-0.009-0.132,1.416-5.129,6.044-2.749C290.653,135.23,289.621,136.98,288.436,136.4z M273.822,134.435
	c-4.187,0.307-9.278-0.128-13.322,0.975c-2.903,0.792-2.515,7.951-2.342,8.798c1.143,5.579,11.897,2.948,15.348,2.667
	C278.225,145.934,279.964,133.985,273.822,134.435z M267.519,138.172c-0.325-0.159-0.696-0.207-1.065-0.177
	c0.42,0.859,0.681,2.165,0.681,4.04c0,3.876-4.917,3.876-4.917,0c0-1.187,0.113-2.126,0.295-2.891
	c-0.009-0.132,1.416-5.129,6.044-2.749C269.736,137.001,268.704,138.751,267.519,138.172z M269.775,145.875l5.093-9.437
	C276.665,141.68,275.467,145.875,269.775,145.875z M281.126,144.854c-0.897-1.767-0.771-4.495-0.627-6.739
	c-0.363,0.206-0.766,0.31-1.164,0.27c-0.032,1.055-0.129,2.076-0.146,2.872c-0.077,3.678-1.258,6.533-5.261,7.283
	c-0.041,0.008-0.074-0.004-0.113-0.001c-0.04,0.008-0.071,0.029-0.115,0.032c-4.247,0.311-14.079,3.046-16.668-1.827
	c-1.016-1.912-0.905-5.045-0.718-7.508c-3.15,0.3-6.299,0.405-9.457,0.325c-0.391,2.103-0.652,4.309-0.828,6.569
	c-1.691-5.38-2.109-8.996-6.967-7.449c-4.928,1.569-7.5,7.307-5.746,12.815c0.719,2.257,2.058,4.116,3.721,5.428
	c0.258-1.242,0.534-2.478,0.833-3.708c-0.85-0.735-1.399-1.808-1.399-3.019c0-2.213,1.794-4.006,4.006-4.006
	s4.006,1.794,4.006,4.006s-1.794,4.006-4.006,4.006c-0.151,0-0.294-0.028-0.44-0.044c-0.322,1.343-0.622,2.693-0.895,4.052
	c1.964,0.883,4.162,1.09,6.272,0.418c0.087-0.028,0.154-0.065,0.236-0.094c-0.044,9.465,0.029,18.304-2.871,22.973
	c-0.226-0.535-0.47-1.072-0.723-1.61l0.258,4.907l0.127-0.075l0.221,0.917l18.642,12.127l5.878-6.91l0.168-0.904
	c0.288-2.295,1.081-4.963,2.701-7.997c2.139-4.007,10.435-0.287,16.81-5.643c5.022-4.219,7.543-10.481,8.506-17.493
	c0.236-1.717,0.381-3.479,0.443-5.267c0.026-0.747,0.034-1.499,0.033-2.253c-0.001-1.548-0.058-3.109-0.16-4.672
	C291.652,147.022,283.396,149.325,281.126,144.854z M281.722,161.685c-4.609,2.629-10.124,2.114-14.238-1.194
	c-1.032-0.83,0.432-2.277,1.455-1.455c3.387,2.723,7.996,3.011,11.745,0.872C281.837,159.251,282.872,161.029,281.722,161.685z
	 M281.111,156.873c-1.294,0.273-1.841-1.71-0.547-1.984c1.049-0.222,4.45-0.99,3.495-2.812c-0.317-0.605-2.951-1.568-3.364-2.084
	c-0.819-1.025,0.628-2.489,1.455-1.455c0.742,0.928,2.112,0.949,3.008,1.709c0.76,0.645,1.107,1.571,1.021,2.56
	C285.949,155.443,283.331,156.403,281.111,156.873z M364.629,221.299c-2.191,5.322-5.892,11.009-8.476,14.678
	c-1.574,0.486-3.477,0.902-5.652,1.054c0.888-5.402,1.848-10.794,2.804-16.184c5.306-0.613,9.427-5.115,9.427-10.585
	c0-5.888-4.773-10.662-10.662-10.662c-0.438,0-0.866,0.034-1.29,0.086c1.261-2.65,4.281-7.613,7.646-3.201
	c2.709,3.552,2.585,7.179,2.585,7.179s4.053,4.957,4.575,11.135C365.761,216.876,365.54,219.089,364.629,221.299z M348.709,220.376
	c-0.95,5.518-1.88,11.031-2.744,16.553c-1.017-0.111-2.068-0.288-3.154-0.543c-2.059-4.612-6.26-14.613-7.089-21.185
	c0,0,1.568-10.161,6.534-13.87c1.612-1.204,3.58-1.728,5.971-1.003c-3.987,1.544-6.818,5.405-6.818,9.936
	C341.408,214.976,344.469,218.967,348.709,220.376z M195.114,452.734c1.551,2.068,6.203,7.237,5.686,12.923
	c0,0-0.041,0.399-0.127,1.034c-0.356,2.626-1.511,9.406-4.009,9.822c-3.102,0.517-13.44,0-17.059-2.585
	c-1.549-1.106-3.598-3.784-5.372-7.237c-1.54-2.998-2.862-6.58-3.471-10.244l19.232-8.975
	C192.186,449.75,194.393,451.772,195.114,452.734z"></path>
<path id="color_x5F_5_43_" fill="#B3B3B3" d="M322.792,297.666l-2.873-72.188c1.784,11.225,4.029,27.351,6.779,50.499
	c2.939-10.498,8.217-29.181,11.115-39.429l0.29,0.365l0.015,0.008c-1.939,10.887-4.788,31.665-4.763,50.908
	C330.498,292.223,326.983,295.807,322.792,297.666z M322.977,302.317l0.445,11.183c5.395,6.039,11.711,9.554,17.382,11.593
	c-4.731-6.437-6.778-17.721-7.304-30.345C330.43,298.051,326.891,300.777,322.977,302.317z M218.424,354.276
	c2.81,1.993,4.781,5.527,4.654,9.201l-3.308,96.186c-0.141,4.104-2.908,7.029-6.652,7.029h-12.445
	c-0.356,2.626-1.511,9.406-4.009,9.822c-3.102,0.517-13.44,0-17.059-2.585c-1.549-1.106-3.598-3.784-5.372-7.237h-2.059l0.464,67.77
	l25.619,14.791l3.835-76.1c0,0,17.318-3.102,19.902-5.945c2.585-2.843,2.843-108.816,0.258-111.659
	C221.704,354.945,220.295,354.54,218.424,354.276z M183.257,352.613h15.007l1.632-55.801l7.625-9.24l-9.305,4.911
	C198.666,296.533,186.977,338.957,183.257,352.613z M296.428,283.338h14.61v-2.228h-15.357
	C295.913,281.864,296.159,282.609,296.428,283.338z M284.028,281.111v-14.314h-1.939v16.542h9.19
	c-0.266-0.738-0.509-1.482-0.728-2.228H284.028z M272.974,206.791l-0.031,0.458l4.521-4.45l9.75,5.031l-13.935-14.548l-1.658-1.731
	l-1.01-0.377l-3.264-1.217l0,0.001l-0.168,0.904l9.509,9.676L272.974,206.791z M242.66,185.644l-0.221-0.917l-0.127,0.075
	l-3.682,2.172c0.25,1.187,0.541,2.367,0.875,3.54L242.66,185.644z M281.77,232.894l-13.843,52.645l1.393-24.406l-1.807,26.869
	l-0.034,0.507l-0.598-2.479l-17.576-72.842c-2.049-1.523-3.889-3.182-5.415-4.957c-0.981-1.142-0.961-2.482-0.419-3.543
	l-8.661-6.927l3.05-4.708c-0.464-1.425-0.859-2.862-1.199-4.309l-0.159,0.307l-11.212,21.628l7.833-11.074l12.783,13.182
	l20.423,72.254l-34.404-64.264l5.193-6.591l-11.827-3.506l10.339,3.618l-6.074,7.108l37.921,67.136l15.051-52.83
	C282.295,234.765,282.04,233.827,281.77,232.894z M284.917,227.325l1.632-5.727l-0.795-0.61c-0.788,0.241-1.594,0.443-2.414,0.616
	l1.153,0.935l-0.612,2.328C284.245,225.674,284.59,226.494,284.917,227.325z M276.817,216.315c0.905,0.002,1.794-0.05,2.67-0.136
	l-1.275-0.978l9.002-7.371l-11.548,7.552L276.817,216.315z M362.732,210.264c0,5.47-4.121,9.971-9.427,10.585
	c-0.406,0.047-0.817,0.077-1.235,0.077c-1.176,0-2.304-0.198-3.361-0.549c-4.24-1.409-7.301-5.4-7.301-10.113
	c0-4.532,2.832-8.393,6.818-9.936c0.809-0.313,1.663-0.533,2.553-0.64c0.424-0.051,0.852-0.086,1.29-0.086
	C357.959,199.602,362.732,204.375,362.732,210.264z M359.553,210.264c0-4.132-3.35-7.482-7.483-7.482
	c-4.132,0-7.482,3.35-7.482,7.482s3.35,7.482,7.482,7.482C356.203,217.746,359.553,214.396,359.553,210.264z M352.07,205.902
	c-0.535,0-0.969,0.434-0.969,0.969c0,0.535,0.434,0.969,0.969,0.969c0.535,0,0.969-0.434,0.969-0.969
	C353.039,206.336,352.605,205.902,352.07,205.902z M352.07,212.687c-0.535,0-0.969,0.434-0.969,0.969
	c0,0.535,0.434,0.969,0.969,0.969c0.535,0,0.969-0.434,0.969-0.969C353.039,213.121,352.605,212.687,352.07,212.687z
	 M355.463,209.294c-0.535,0-0.969,0.434-0.969,0.969c0,0.535,0.434,0.969,0.969,0.969c0.535,0,0.969-0.434,0.969-0.969
	C356.432,209.728,355.998,209.294,355.463,209.294z M348.678,209.294c-0.535,0-0.969,0.434-0.969,0.969
	c0,0.535,0.434,0.969,0.969,0.969s0.969-0.434,0.969-0.969C349.647,209.728,349.213,209.294,348.678,209.294z M352.07,209.294
	c-0.535,0-0.969,0.434-0.969,0.969c0,0.535,0.434,0.969,0.969,0.969c0.535,0,0.969-0.434,0.969-0.969
	C353.039,209.728,352.605,209.294,352.07,209.294z M300.699,259.787h-3.489v8.53h3.489V259.787z M183.614,235.82
	c5.504,9.712,11.768,23.969,12.16,39.081c0,0,3.313-40.993-20.514-51.754c0,0,0.07,0.087,0.186,0.235
	C176.257,224.417,179.743,228.991,183.614,235.82z"></path>
<path id="color_x5F_4_41_" fill="#04334C" d="M294.62,137.488c-0.112-0.686-0.229-1.367-0.351-2.043
	c0.246-0.008,0.492-0.02,0.739-0.03c0.447-0.018,0.895-0.03,1.342-0.054l-1.135,2.103
	C295.016,137.473,294.818,137.481,294.62,137.488z M261.53,198.479l-6.093,9.581l3.262,2.74c0,0-0.044,0.263-0.123,0.738
	c2.53,1.296,5.257,2.389,8.051,3.204l-0.949-4.458l2.251-2.894L261.53,198.479z M267.479,288.509l3.359-53.971l-2.793-13.127
	c-3.624-0.736-7.196-1.917-10.54-3.435c-0.769,4.646-1.814,11-2.845,17.403L267.479,288.509z M200.77,579.141
	c14.54,5.003,29.593,8.9,45.052,11.617l1.138-14.738l0.419-5.424l-46.609,0V579.141z M259.42,570.597l1.02,13.207l0.714,9.244
	c11.957,1.464,24.131,2.227,36.484,2.227c3.674,0,7.332-0.072,10.974-0.205l0.199-5.452l0.239-6.553l0.258-7.068l0.197-5.401H259.42
	z M245.649,158.533c-0.082,0.03-0.149,0.067-0.236,0.094c-2.11,0.672-4.308,0.465-6.272-0.418c-0.898,4.48-1.5,9.032-1.685,13.58
	c1.753,2.718,3.336,5.425,4.598,8.106c0.253,0.538,0.497,1.075,0.723,1.61C245.678,176.837,245.605,167.998,245.649,158.533z
	 M260.379,127.631c-0.625,0.598,0.197,1.716,0.94,1.218c0.922-0.616,4.153-0.741,6.508-0.485c1.997,0.217,3.072-2.164,1.076-2.552
	C263.993,124.858,261.5,126.558,260.379,127.631z M282.723,125.452c-1.58,0.846-0.729,2.981,0.852,2.306
	c1.864-0.796,4.422-1.413,5.152-1.008c0.589,0.326,1.239-0.979,0.744-1.434C288.585,124.5,286.611,123.371,282.723,125.452z
	 M281.722,161.685c1.15-0.656,0.115-2.434-1.038-1.777c-3.749,2.139-8.358,1.851-11.745-0.872c-1.022-0.822-2.487,0.625-1.455,1.455
	C271.598,163.799,277.114,164.314,281.722,161.685z M286.179,152.807c0.086-0.989-0.26-1.915-1.021-2.56
	c-0.897-0.76-2.266-0.781-3.008-1.709c-0.827-1.034-2.274,0.43-1.455,1.455c0.413,0.516,3.047,1.478,3.364,2.084
	c0.955,1.822-2.446,2.59-3.495,2.812c-1.295,0.274-0.747,2.257,0.547,1.984C283.331,156.403,285.949,155.443,286.179,152.807z
	 M267.136,142.035c0-1.875-0.261-3.181-0.681-4.04c0.369-0.03,0.739,0.018,1.065,0.177c1.185,0.58,2.217-1.17,1.038-1.777
	c-4.628-2.38-6.053,2.617-6.044,2.749c-0.182,0.765-0.295,1.704-0.295,2.891C262.219,145.911,267.136,145.911,267.136,142.035z
	 M288.053,140.264c0-1.875-0.261-3.181-0.681-4.04c0.369-0.03,0.739,0.018,1.064,0.177c1.185,0.58,2.217-1.17,1.038-1.776
	c-4.628-2.38-6.053,2.617-6.044,2.749c-0.182,0.765-0.295,1.704-0.295,2.891C283.135,144.14,288.053,144.14,288.053,140.264z
	 M168.75,457.387l-1.401-5.405l-2.734,1.27c0,0-14.86-55.726-22.482-87.285l-3.09,89.862c-0.139,4.053,2.272,7.938,5.549,9.767
	c1.235,0.69,2.59,1.096,3.983,1.096h25.659c-1.54-2.998-2.862-6.58-3.471-10.244L168.75,457.387z M200.674,466.692h7.793
	c3.743,0,6.51-2.924,6.651-7.029l3.308-96.186c0.192-5.581-4.443-10.863-9.532-10.863h-25.637c-0.554,2.033-0.932,3.434-1.066,3.97
	c-1.034,4.135,11.373,83.227,11.373,83.227l-3.283,1.524l1.732,5.196l-2.019,0.942c2.192,2.277,4.399,4.299,5.12,5.261
	c1.551,2.068,6.203,7.237,5.686,12.923C200.801,465.658,200.76,466.057,200.674,466.692z M256.313,139.235
	c-3.15,0.3-6.299,0.405-9.457,0.325c-0.391,2.103-0.652,4.309-0.828,6.569c-1.691-5.38-2.109-8.996-6.967-7.449
	c-4.928,1.569-7.5,7.307-5.746,12.815c0.719,2.257,2.058,4.116,3.721,5.428c-0.801,3.855-1.395,7.759-1.705,11.674
	c-7.182-10.53-15.915-21.135-17.068-30.94c-1.628-13.842,1.776-38.788,12.627-37.656c0.641-0.465,1.278-0.911,1.911-1.348
	c1.688-1.161,3.347-2.214,4.98-3.177c2.042-1.204,4.04-2.257,5.992-3.172c36.588-17.137,57.079,14.476,44.313,20.298
	c-0.185,0.084-0.372,0.167-0.57,0.24c-15.47,5.7-41.656,6.514-41.656,6.514s2.833,6.784,3.212,12.773
	c-0.781,1.734-1.378,3.633-1.841,5.645c3.085,0.063,6.162-0.049,9.24-0.349c0.244-2.328,1.304-3.36,3.68-3.703
	c3.377-0.487,6.899-0.505,10.302-0.754c2.099-0.154,5.65-1.102,7.494,0.42c0.792,0.654,1.15,1.683,1.3,2.82
	c0.497-0.084,1.036-0.106,1.381-0.031c0.18-2.071,0.969-3.337,3.228-3.705c3.01-0.49,6.186-0.485,9.225-0.723
	c0.14-0.011,0.298-0.031,0.45-0.048c1.921-0.217,4.708-0.833,6.227,0.452c0.766,0.648,1.087,1.704,1.212,2.859
	c0.174,1.606-0.041,3.409-0.065,4.629c-0.017,0.874-0.099,1.708-0.269,2.483c-0.484,2.208-1.716,3.904-4.457,4.453
	c-0.043,0.009-0.079-0.003-0.12,0c-0.038,0.008-0.067,0.027-0.108,0.031c-0.084,0.007-0.182,0.019-0.27,0.028
	c-4.03,0.389-12.286,2.692-14.556-1.779c-0.897-1.767-0.771-4.495-0.627-6.739c-0.363,0.206-0.766,0.31-1.164,0.27
	c-0.032,1.055-0.129,2.076-0.146,2.872c-0.077,3.678-1.258,6.533-5.261,7.283c-0.041,0.008-0.074-0.004-0.113-0.001
	c-0.04,0.008-0.071,0.029-0.115,0.032c-4.247,0.311-14.079,3.046-16.668-1.827C256.015,144.831,256.126,141.699,256.313,139.235z
	 M282.307,139.518c0,2.507-0.564,5.676,3.481,6.169c3.048,0.371,6.649-0.465,9.765-0.756c0.066-0.006,0.135-0.015,0.2-0.021
	c0.647-0.139,1.234-0.551,1.741-1.14c1.32-1.531,2.095-4.266,1.968-6.57c-0.686,0.059-1.371,0.107-2.057,0.151
	c-0.091-0.647-0.246-1.325-0.453-2.024c0.7-0.042,1.4-0.097,2.1-0.154c-0.5-1.249-1.461-2.064-2.993-1.944
	c-0.727,0.057-1.453,0.114-2.179,0.171c-1.462,0.115-2.923,0.229-4.385,0.344c-1.64,0.128-3.794-0.065-5.372,0.421
	C281.719,134.906,282.307,137.52,282.307,139.518z M258.158,144.209c1.143,5.579,11.897,2.948,15.348,2.667
	c4.719-0.941,6.458-12.89,0.316-12.441c-4.187,0.307-9.278-0.128-13.322,0.975C257.596,136.203,257.984,143.361,258.158,144.209z"></path>
<path id="color_x5F_3_44_" fill="#4FAFC2" d="M332.026,352.586v2.397h41.661l13.196,13.196l-59.908,34.588l-3.553-89.267
	c5.395,6.039,11.711,9.554,17.382,11.593c8.648,3.109,15.78,2.8,15.78,2.8c21.711-18.351,7.754-91.24,7.754-91.24l-2.989,1.467
	l-0.297-4.31c0,0-1.813,1.214-4.898,2.167c2.584-3.669,6.285-9.357,8.476-14.678c0.91-2.21,1.132-4.423,0.956-6.499l37.766,21.804
	v35.366l-8.522,5.219l0.625,1.022l7.897-4.836v23.065h-26.584v2.397h26.584v59.835l-14.319,8.267l-14.353-14.353H332.026z
	 M300.028,176.95l-2.39-1.38l-27.027,15.604l1.01,0.377l1.658,1.731c5.181,1.704,13.326,4.588,22.84,8.682
	c0.616-0.359,1.343-0.469,2.051-0.362C301.067,194.284,301.308,185.617,300.028,176.95z M337.814,236.547l0.29,0.365l0.015,0.008
	l1.998,1.117v-2.418c0.92,0.318,1.814,0.559,2.695,0.766c-2.059-4.612-6.26-14.613-7.089-21.185c0,0,1.568-10.161,6.534-13.87
	l-39.788-22.971c1.044,8.56,0.591,17.038-2.293,24.287c0.352,0.386,0.609,0.859,0.695,1.415c5.914,2.678,12.215,5.782,18.569,9.33
	L337.814,236.547z M129.038,85.167l56.86,32.828v52.323l-48.884,28.223L83.15,167.443V111.66L129.038,85.167z M144.232,110.641
	l-32.273,32.172c-4.82,4.82-6.897,11.639-0.025,18.51s13.359,5.09,18.454,0.025l32.273-32.173c5.111-5.082,5.134-13.373,0.03-18.508
	C157.607,105.582,149.328,105.574,144.232,110.641z M173.579,190.764l12.319-7.112v-6.415l-16.386,9.46L173.579,190.764z
	 M157.891,128.004c3.261-3.404,4.104-8.336,1.245-12.279c-1.312-1.809-4.373-0.093-3.05,1.732c1.954,2.694,1.606,5.688-0.674,8.068
	C153.853,127.152,156.327,129.637,157.891,128.004z M171.431,192.005l-4.067-4.067l-30.349,17.522l-59.856-34.558V115.12
	l-4.98,2.875v65.657l56.86,32.828L171.431,192.005z M153.708,132.779c0.777-0.777,0.777-2.038,0-2.815
	c-0.777-0.777-2.038-0.777-2.815,0c-0.777,0.778-0.777,2.038,0,2.815C151.67,133.556,152.931,133.556,153.708,132.779z
	 M114.191,159.023c5.884,5.884,10.664,4.079,14.725,0.043l13.954-13.913l-14.679-14.762l-13.954,13.914
	C110.965,147.576,108.307,153.138,114.191,159.023z M458.434,198.62l-53.865-31.099V111.74l45.888-26.494l56.86,32.828v52.322
	L458.434,198.62z M439.605,147.364c11.052,10.198,18.753,14.185,19.236,14.426c0.048,0.034,0.097-0.007,0.097-0.007
	c0.486-0.239,8.068-4.32,19.21-14.419c14.275-12.941,9.887-28.17,1.955-32.595c-8.769-4.89-18.219,2.313-21.227,4.425
	c-3.005-2.112-12.64-8.908-21.225-4.425C429.745,118.9,425.892,134.708,439.605,147.364z M425.017,186.246l-26.44-15.265v-55.782
	l-4.98,2.875v65.657l21.791,12.581L425.017,186.246z M507.318,177.316l-48.884,28.223l-31.28-18.06l-9.629,10.066l32.932,19.014
	l56.86-32.828V177.316z M459.564,147.979c0.465,0,0.63-0.229,0.697-0.555l1.824-8.936h2.281l0.659,1.666
	c0.104,0.271,0.279,0.444,0.651,0.444c0.373,0,0.579-0.212,0.668-0.492l1.793-5.809l1.024,3.677
	c0.083,0.304,0.359,0.518,0.673,0.514h8.32c0.385,0,0.697-0.314,0.699-0.699c0-0.388-0.314-0.701-0.699-0.701l-7.79-0.002
	l-1.52-5.463c-0.08-0.285-0.159-0.513-0.656-0.513c-0.497,0-0.6,0.208-0.689,0.496l-1.895,6.599l-0.19-0.689
	c-0.108-0.266-0.284-0.428-0.573-0.431h-3.328c-0.334,0.002-0.619,0.238-0.686,0.561l-0.946,4.633l-1.276-16.152
	c-0.026-0.346-0.107-0.645-0.679-0.645c-0.573,0-0.67,0.264-0.712,0.618l-1.311,10.638h-2.43c-0.289,0-0.422,0.178-0.526,0.445
	l-0.286,0.929l-0.286-0.976c-0.103-0.266-0.276-0.398-0.564-0.398h-1.472l-1.256-3.083c-0.109-0.266-0.365-0.437-0.65-0.437
	c-0.284,0-0.567,0.201-0.66,0.474l-1.13,3.278h-6.157c-0.387,0-0.698,0.314-0.698,0.701c0,0.384,0.31,0.7,0.698,0.7h6.657
	c0.298,0,0.561-0.191,0.661-0.472l0.684-1.992l0.732,1.792c0.107,0.262,0.362,0.435,0.647,0.435h1.466l0.656,1.668
	c0.107,0.269,0.368,0.44,0.65,0.442c0.291,0,0.55-0.175,0.656-0.442l0.656-1.668h2.573c0.357,0,0.651-0.264,0.695-0.613l0.539-4.375
	l1.118,14.188C458.904,147.681,459.1,147.979,459.564,147.979z M139.042,455.829l0.207-6.026l-6.753,0.091l0.1,7.56l-7.551,0.098
	l0.11,8.311l7.554-0.103l0.104,7.554l8.305-0.112l-0.1-7.556l3.573-0.048C141.314,463.767,138.903,459.882,139.042,455.829z
	 M163.403,476.051l-0.081-5.909l-3.305,0.042c-4.295,0.06-7.721,3.583-7.662,7.871l0.071,5.285l3.94-0.053
	C160.301,483.232,163.461,479.986,163.403,476.051z M117.851,483.81l5.912-0.079l-0.046-3.309c-0.059-4.292-3.583-7.721-7.872-7.664
	l-5.281,0.072l0.052,3.937C110.667,480.706,113.915,483.864,117.851,483.81z M139.828,432.973l-8.033,0.109
	c-2.359,0.032-4.345,2.017-5.142,4.795l13.012-0.178L139.828,432.973z M82.941,434.169v55.782l53.864,31.099l35.602-20.555
	l-0.231-33.803h-6.026l0.14,10.272c0.067,4.878-3.866,8.898-8.766,8.966l-40.757,0.554c-4.899,0.064-8.939-3.847-9.008-8.723
	l-0.426-31.312c-0.068-4.875,3.866-8.898,8.765-8.966l7.093-0.095c0.934-3.72,4.28-6.504,8.308-6.561l8.409-0.114l0.561-16.319
	l-11.639-6.72L82.941,434.169z M121.261,445.038l-0.071-5.286l-3.94,0.056c-3.936,0.053-7.095,3.301-7.039,7.233l0.08,5.914
	l3.309-0.044C117.888,452.851,121.32,449.325,121.261,445.038z M136.804,527.968L76.949,493.41v-55.782l-4.981,2.875v51.16
	c10.931,12.7,22.907,24.473,35.81,35.171l21.05,12.153l43.669-25.212l-0.044-6.39L136.804,527.968z M448.311,439.283h17.236
	c0.057,1.515,0.442,4.866,2.687,6.664c2.387,1.908,3.88,5.009,4.091,8.496c0.005,0.125,0.012,1.454,0.014,3.453h-30.826
	c0.004-1.937,0.006-3.211,0.009-3.304c0.158-3.733,1.499-6.559,4.105-8.645C447.871,444.149,448.257,440.797,448.311,439.283z
	 M463.888,447.845c1.061,0.867,2.094,1.708,2.552,3.046c0.444,1.297,0.564,2.714,0.627,4.072c0.072,1.536,2.469,1.545,2.397,0
	c-0.082-1.743-0.257-3.597-0.904-5.233c-0.599-1.514-1.743-2.572-2.978-3.581C464.397,445.181,462.692,446.867,463.888,447.845z
	 M441.506,480.441c0,2.058,1.673,3.735,3.733,3.735h23.388c2.054,0,3.728-1.677,3.728-3.735c0-0.809,0-5.293,0-6.233h-30.849
	C441.506,475.148,441.506,479.632,441.506,480.441z M455.609,438.203v-7.841c0-0.236-1.035-0.236-1.035,0v7.841
	C454.574,438.44,455.609,438.44,455.609,438.203z M457.452,438.203v-7.841c0-0.236-1.04-0.236-1.04,0v7.841
	C456.412,438.44,457.452,438.44,457.452,438.203z M454.756,459.93v3.949h-3.948v4.346h3.948v3.952h4.349v-3.952h3.948v-4.346h-3.948
	v-3.949H454.756z M450.458,407.676l56.86,32.828v52.322l-48.884,28.224l-53.865-31.099v-55.781L450.458,407.676z M467.133,428.298
	h-20.406c-0.591,0-1.068,0.479-1.068,1.07v9.871h0.807c-0.064,1.448-0.432,3.375-2.406,4.953c-3.039,2.434-4.673,5.854-4.851,10.144
	c-0.012,0.096-0.016,11.973-0.022,27.717c0,2.889,2.353,5.243,5.242,5.243h25.01c2.886,0,5.236-2.353,5.236-5.243
	c-0.006-15.823-0.016-27.765-0.032-27.869c-0.252-4.088-2.012-7.727-4.842-9.991c-1.968-1.572-2.339-3.505-2.403-4.953h0.807v-9.871
	C468.205,428.777,467.728,428.298,467.133,428.298z M448.254,438.203v-7.841c0-0.236-1.035-0.236-1.035,0v7.841
	C447.219,438.44,448.254,438.44,448.254,438.203z M451.935,438.203v-7.841c0-0.236-1.038-0.236-1.038,0v7.841
	C450.897,438.44,451.935,438.44,451.935,438.203z M450.094,438.203v-7.841c0-0.236-1.038-0.236-1.038,0v7.841
	C449.057,438.44,450.094,438.44,450.094,438.203z M464.804,438.203v-7.841c0-0.236-1.035-0.236-1.035,0v7.841
	C463.769,438.44,464.804,438.44,464.804,438.203z M466.641,438.203v-7.841c0-0.236-1.035-0.236-1.035,0v7.841
	C465.606,438.44,466.641,438.44,466.641,438.203z M453.772,438.203v-7.841c0-0.236-1.035-0.236-1.035,0v7.841
	C452.737,438.44,453.772,438.44,453.772,438.203z M398.577,493.41v-55.781l-4.98,2.875v65.657l56.86,32.828l56.86-32.828v-6.416
	l-48.884,28.223L398.577,493.41z M459.286,438.203v-7.841c0-0.236-1.035-0.236-1.035,0v7.841
	C458.251,438.44,459.286,438.44,459.286,438.203z M461.126,438.203v-7.841c0-0.236-1.034-0.236-1.034,0v7.841
	C460.092,438.44,461.126,438.44,461.126,438.203z M462.967,438.203v-7.841c0-0.236-1.04-0.236-1.04,0v7.841
	C461.927,438.44,462.967,438.44,462.967,438.203z M533.229,292.71l-3.423,3.423l1.315,1.315l3.423-3.423L533.229,292.71z
	 M574.408,279.289v52.323l-48.884,28.223l-53.864-31.099v-55.782l45.888-26.493L574.408,279.289z M556.271,327.839l-8.32-8.32
	l1.263-1.263c0.492-0.492,0.492-1.29,0-1.782l-2.366-2.366c-0.004-0.004-0.029-0.028-0.068-0.065l2.069-2.069
	c1.634-1.634,1.634-4.284,0-5.918l-31.968-31.968l0.518-0.518c0.92-0.92,0.92-2.411,0-3.331c0,0-2.688-1.197-3.608-0.277
	l-6.525,6.525l-3.811-3.811l2.776-2.776c0.394-0.394,0.394-1.032,0-1.426l-2.18-2.184c-0.394-0.394-1.033-0.395-1.427,0
	l-9.115,9.116c-0.394,0.394-0.394,1.032,0,1.426l2.182,2.181c0.394,0.394,1.033,0.394,1.427,0l2.776-2.776l3.811,3.811l-6.525,6.525
	c-0.92,0.92,0.277,3.608,0.277,3.608c0.92,0.92,2.411,0.92,3.331,0l0.518-0.519l31.968,31.968c1.634,1.634,4.284,1.634,5.918,0
	l2.07-2.07c0.037,0.038,0.061,0.063,0.065,0.067l2.366,2.367c0.492,0.492,1.29,0.492,1.782,0l1.263-1.263l8.32,8.32
	c0.309,0.309,0.809,0.309,1.118,0l0.093-0.093C556.58,328.649,556.58,328.148,556.271,327.839z M541.379,307.706l1.315,1.315
	l3.423-3.423l-1.315-1.315L541.379,307.706z M502.445,288.523l15.563,15.563l4.869-4.869l-15.563-15.563L502.445,288.523z
	 M537.087,296.567l-3.423,3.423l1.315,1.315l3.423-3.423L537.087,296.567z M540.945,300.425l-3.423,3.423l1.315,1.315l3.423-3.423
	L540.945,300.425z M530.686,290.167l-3.423,3.423l-1.315-1.315l3.423-3.423l-2.543-2.543l-3.423,3.423l-1.315-1.315l3.423-3.423
	l-2.543-2.543l-3.423,3.423l-1.315-1.315l3.423-3.423l-5.912-5.912l-4.869,4.869l15.563,15.563l4.869-4.869L530.686,290.167z
	 M465.668,296.439v-20.026l-4.981,2.876v17.15H465.668z M465.668,332.196v-33.36h-4.981v46.11l56.86,32.828l56.86-32.828v-6.415
	l-48.884,28.223L465.668,332.196z M118.636,338.531l-48.884,28.223L9.895,332.196v-55.782l-4.98,2.875v65.657l56.86,32.828
	l56.86-32.828V338.531z M78.323,290.782v18.756l3.374-0.986c1.338-0.391,2.258-1.618,2.258-3.013v-17.617h-2.772
	C79.603,287.923,78.323,289.203,78.323,290.782z M69.752,359.835l-53.864-31.099v-55.782l45.888-26.494l56.86,32.828v52.323
	L69.752,359.835z M76.684,338.38c5.891,0.291,10.776-4.612,10.776-10.247s-1.546-11.42,8.261-11.42c0.354,0,0.62-0.332,0.62-0.685
	c0-0.408-0.351-0.688-0.759-0.688c-11.355,0-9.5,7.911-9.5,12.533c0,4.622-3.424,8.667-8.026,9.1
	c-5.28,0.496-9.735-3.661-9.735-8.84v-7.914c0.978-0.062,1.753-0.866,1.753-1.859v-3.437c1.493-0.145,13.067-3.366,13.067-3.366
	c2.352-0.688,3.968-2.844,3.968-5.294v-37.022c0-3.046-2.469-5.516-5.516-5.516H53.897c-3.046,0-5.516,2.47-5.516,5.516v37.022
	c0,2.45,1.617,4.607,3.968,5.295c0,0,11.423,3.19,12.839,3.341v3.461c0,0.993,0.776,1.797,1.753,1.859v7.617
	C66.942,333.353,71.173,338.108,76.684,338.38z M83.955,283.793h-32.42v-13.647c0-1.73,1.408-3.137,3.138-3.137h26.144
	c1.73,0,3.138,1.407,3.138,3.137V283.793z M79.956,273.14c2.3,0,2.304-3.575,0-3.575C77.655,269.564,77.652,273.14,79.956,273.14z
	 M81.744,277.112c0-2.301-3.575-2.304-3.575,0c0,1.192,0,2.383,0,3.575c0,2.301,3.575,2.304,3.575,0
	C81.744,279.496,81.744,278.304,81.744,277.112z M232.801,98.653c1.688-1.161,3.347-2.214,4.98-3.177V53.513l-4.98,2.875V98.653z
	 M296.739,134.64c0.08,0.232,0.146,0.46,0.214,0.688c0.7-0.042,1.4-0.097,2.1-0.154c-0.5-1.249-1.461-2.064-2.993-1.944
	c-0.727,0.057-1.453,0.114-2.179,0.171c0.101,0.509,0.201,1.02,0.296,1.536l0.83,0.479c0.447-0.018,0.895-0.03,1.342-0.054
	L296.739,134.64z M318.734,138.088v-6.415l-18.097,10.448c-0.484,2.208-1.716,3.904-4.457,4.453c-0.043,0.009-0.079-0.003-0.12,0
	c-0.038,0.008-0.067,0.027-0.108,0.031c-0.084,0.007-0.182,0.019-0.27,0.028c0.102,1.563,0.158,3.124,0.16,4.672L318.734,138.088z
	 M346.522,122.045v-6.415l-25.391,14.66v6.415L346.522,122.045z M295.754,144.91c0.647-0.139,1.234-0.551,1.741-1.14l-1.646-0.95
	c-0.144,0.12-0.301,0.23-0.465,0.335c0.063,0.592,0.119,1.184,0.17,1.777C295.619,144.925,295.688,144.916,295.754,144.91z
	 M291.655,66.967c0.254,0,0.455-0.204,0.455-0.457c0-0.253-0.201-0.457-0.455-0.457c-0.251,0-0.455,0.204-0.455,0.457
	C291.2,66.763,291.405,66.967,291.655,66.967z M243.773,92.304V50.053l45.888-26.493l40.726,23.513c-6.449,0-20.431,0-20.826,0
	c-0.506,0-2.032-0.082-2.544,1.447c-0.51,1.527-0.12,3.668-1.615,6.536c-1.569,3.016-3.908,4.499-4.584,4.924
	c-0.681,0.426-1.27,1.487-0.251,2.166c1.122,0.752,3.01-0.564,3.71-1.332l11.995-0.025c0,0,1.344-0.117,1.981-1.345
	c0.638-1.231,0.395-1.5,0.395-1.5s-7.844,0.015-11.73,0.025c0.213-0.281,0.423-0.578,0.631-0.9l13.022,0.092
	c0,0,1.346-0.112,1.981-1.343c0.639-1.232,0.398-1.498,0.398-1.498s-10.256,0.019-14.049,0.029c0.088-0.245,0.164-0.497,0.24-0.753
	h18.451c0,0,1.345-0.112,1.984-1.342c0.633-1.233,0.393-1.498,0.393-1.498s-16.676,0-20.375,0c0.011-0.277,0.021-0.553,0.011-0.838
	h21.609c0,0,1.267-0.117,1.926-1.257l13.381,7.725v52.323L300.97,135.01c-0.125-1.155-0.446-2.21-1.212-2.859
	c-1.519-1.285-4.307-0.669-6.227-0.452c-1.801-8.457-4.194-15.625-5.444-19.098C300.853,106.781,280.362,75.167,243.773,92.304z
	 M296.364,97.284l-3.419-1.572c-0.82,0.82-0.729,3.005-0.492,3.244C293.467,98.563,294.87,97.954,296.364,97.284z M298.273,98.169
	l-1.355-0.63c0.054,2.951,0.096,4.845,0.112,4.98c0.083,0.647,0.238,1.446,0.547,1.523c0,0,0.016,0.006,0.026,0.006
	c0.006,0,0.022-0.006,0.022-0.006c0.31-0.077,0.467-0.875,0.548-1.523C298.19,102.393,298.225,100.755,298.273,98.169z
	 M302.313,95.786c-0.812-0.522-7.981-3.397-7.807-3.739c0.043-0.085,0.735-0.519,1.69-0.936l0.01-0.473l-2.633-1.238
	c-1.191,0.583-2.128,1.079-2.408,1.318c-1.246,1.077-0.834,2.379-0.144,2.945c0.385,0.315,8.494,4.164,11.972,5.519
	C303.249,98.928,303.335,96.438,302.313,95.786z M296.826,92.284l1.537,0.717c0.013-0.441,0.017-0.892,0.024-1.35l-1.585-0.74
	C296.808,91.381,296.818,91.837,296.826,92.284z M304.284,90.491c-0.952-0.824-9.622-4.614-9.708-4.865
	c-0.022-0.064,0.627-0.396,1.513-0.831V84.36l-3.306-1.495c-1.419,0.596-2.457,1.037-2.596,1.118
	c-0.962,0.567-1.511,2.237,0.145,3.168c1.488,0.842,10.442,4.333,10.613,4.672c0.058,0.115-0.805,0.612-1.946,1.138l-0.006,0.335
	l3.001,1.376c1.352-0.652,2.307-1.136,2.434-1.237C305.122,92.873,305.531,91.566,304.284,90.491z M296.717,85.784l1.758,0.813
	c0.003-0.361,0.01-0.724,0.016-1.088l-1.793-0.834C296.706,85.046,296.709,85.415,296.717,85.784z M305.09,84.138
	c-0.492-0.289-12.452-5.151-12.031-5.321c0.125-0.049,1.285-0.564,2.85-1.238v-0.871l-3.037-1.388
	c-2.028,0.908-3.463,1.546-3.463,1.546c-1.868,0.932-1.561,2.89,0.026,3.621c1.983,0.908,11.354,5.04,11.268,5.297
	c-0.022,0.066-0.681,0.39-1.611,0.831l-0.006,0.276l3.383,1.548c1.152-0.492,2.083-0.904,2.478-1.13
	C306.604,86.375,306.052,84.702,305.09,84.138z M296.612,79.383l1.962,0.909c0.016-0.774,0.026-1.547,0.04-2.318l-2.04-0.943
	C296.585,77.809,296.599,78.594,296.612,79.383z M299.328,72.255l-0.006,0.805l3.247,1.493c2.208-0.957,4.122-1.79,4.841-2.116
	c1.898-0.865,2.576-2.098,2.576-4.091c0-2.238-1.38-3.335-2.378-3.609c-0.823-0.227-3.148-0.578-4.726,0.255
	c-1.556,0.822-1.47,3.757-1.47,3.757h4.528c0,0,0.337,0.118,0.056,0.407C305.872,69.274,302.805,70.685,299.328,72.255z
	 M294.204,54.182c0,1.4,0.849,2.603,2.063,3.119c0.016,0.887,0.107,6.981,0.227,14.434l2.202,1.023
	c0.128-7.904,0.224-14.522,0.24-15.451c1.213-0.52,2.063-1.724,2.063-3.125c0-1.877-1.52-3.396-3.395-3.396
	C295.727,50.786,294.204,52.305,294.204,54.182z M279.004,60.79l11.995,0.025c0.7,0.768,2.589,2.083,3.713,1.332
	c1.018-0.679,0.427-1.74-0.257-2.166c-0.677-0.426-3.01-1.909-4.581-4.924c-1.497-2.868-1.106-5.009-1.617-6.536
	c-0.508-1.529-2.034-1.447-2.547-1.447c-0.508,0-24.028,0-24.028,0s-0.241,0.271,0.399,1.503c0.634,1.229,1.977,1.344,1.977,1.344
	h21.612c-0.008,0.285-0.002,0.561,0.007,0.838c-3.694,0-20.372,0-20.372,0s-0.241,0.265,0.395,1.498
	c0.638,1.23,1.981,1.342,1.981,1.342h18.451c0.073,0.257,0.153,0.508,0.238,0.753c-3.79-0.01-14.046-0.029-14.046-0.029
	s-0.24,0.266,0.396,1.498c0.638,1.231,1.979,1.343,1.979,1.343l13.027-0.092c0.203,0.321,0.417,0.618,0.626,0.9
	c-3.883-0.009-11.726-0.025-11.726-0.025s-0.242,0.268,0.395,1.5C277.659,60.674,279.004,60.79,279.004,60.79z M287.698,72.38
	c2.08,0.948,14.098,6.114,14.519,6.285c0.147,0.054-1.195,0.67-3.013,1.467v0.478l2.972,1.371c1.614-0.729,3.026-1.355,3.665-1.649
	c1.59-0.729,1.898-2.688,0.029-3.624c0,0-16.473-7.331-16.756-7.614c-0.281-0.281,0.056-0.399,0.056-0.399h4.53
	c0,0,0.085-2.938-1.473-3.759c-1.579-0.832-3.905-0.482-4.725-0.258c-0.998,0.278-2.379,1.375-2.379,3.611
	C285.122,70.284,285.801,71.515,287.698,72.38z M303.45,66.109c-0.253,0-0.457,0.205-0.457,0.457c0,0.252,0.204,0.457,0.457,0.457
	c0.254,0,0.457-0.205,0.457-0.457C303.907,66.314,303.704,66.109,303.45,66.109z M333.318,562.136l13.204-7.623V502.19
	l-15.957-9.213L333.318,562.136z M318.663,570.597h-9.158l-0.197,5.401L318.663,570.597z M247.379,570.597l-0.419,5.424l13.48,7.783
	l-1.02-13.207H247.379z M333.654,570.597h-3.008l-21.597,12.469l-0.239,6.553l37.711-21.772v-6.415l-12.935,7.468L333.654,570.597z
	 M268.471,208.146l-0.544-0.757l-2.251,2.894l0.949,4.458c1.746,0.51,3.514,0.908,5.275,1.176l0.462-8.096
	C271.521,209.237,269.536,209.403,268.471,208.146z M258.698,210.799l-3.262-2.74l-0.772,1.213c1.23,0.804,2.54,1.563,3.91,2.264
	C258.654,211.063,258.698,210.799,258.698,210.799z M272.943,207.249l0.031-0.458l-0.612,1.03L272.943,207.249z M254.66,235.379
	c1.031-6.402,2.076-12.757,2.845-17.403c-2.966-1.347-5.741-2.962-8.2-4.789L254.66,235.379z M270.837,234.538l0.717-12.567
	c-1.171-0.144-2.342-0.324-3.51-0.561L270.837,234.538z M218.424,354.276c-1.459-1.035-3.139-1.662-4.878-1.662h-4.652
	c5.089,0,9.724,5.283,9.532,10.863l-3.308,96.186c-0.141,4.104-2.908,7.029-6.651,7.029h4.652c3.743,0,6.51-2.924,6.652-7.029
	l3.308-96.186C223.205,359.803,221.234,356.269,218.424,354.276z M286.354,267.541v9.938h3.324c-0.636-3.295-1.161-6.613-1.65-9.938
	H286.354z M294.699,277.479h0.386v-9.938h-2.177C293.387,270.829,293.926,274.207,294.699,277.479z"></path>
<path id="color_x5F_2_42_" fill="#FFFFFF" d="M385.688,437.7v-26.176l16.996-12.301l-0.702-0.971l-16.93,12.253l-22.596-13.046
	l-22.934,13.241l-0.3,0.172V437.7l22.634,13.066v20.676h1.198v-20.676l22.333-12.894L385.688,437.7z M384.489,437.007
	l-22.034,12.721l-22.035-12.721v-25.443l22.035-12.723l22.034,12.723V437.007z M515.934,211.44l-32.408,18.602l0.597,1.039
	l32.41-18.603l22.635,13.067l23.232-13.413v-26.827l-22.633-13.067v-24.367h-1.198v24.367l-22.634,13.067V211.44z M517.133,185.998
	l22.035-12.721l22.034,12.721v25.443l-22.034,12.721l-22.035-12.721V185.998z M387.204,144.23l-22.633-13.068v-20.042h-1.198v20.042
	l-22.634,13.068v26.161l-11.842,7.942l0.667,0.995l11.798-7.912l22.61,13.054l23.232-13.414V144.23z M386.006,170.365
	l-22.034,12.722l-22.035-12.722v-25.443l22.035-12.722l22.034,12.722V170.365z M180.032,75.991l22.633,13.068v20.265h1.198V89.058
	l22.633-13.068V49.164l-23.232-13.413L180.62,48.824l-18.883-10.135l-0.566,1.056l18.861,10.123V75.991z M181.23,49.856
	l22.034-12.721l22.034,12.721v25.443l-22.034,12.722L181.23,75.299V49.856z M368.92,527.915l-0.3,0.172v26.827l22.634,13.067v12.231
	c0.4-0.132,0.8-0.264,1.198-0.398v-11.833l22.333-12.895l0.3-0.172v-26.827l-23.232-13.413L368.92,527.915z M413.887,554.221
	l-22.033,12.723l-22.035-12.723v-25.441l22.035-12.722l22.033,12.722V554.221z M133.495,257.714l14.733-8.506v-16.403l10.637-9.792
	l-0.812-0.881l-10.506,9.672l-14.051-8.113l-14.153,8.171l-38.51-19.411l-0.54,1.07l38.47,19.391v16.297L133.495,257.714z
	 M119.961,232.888l13.534-7.814l13.534,7.814v15.628l-13.534,7.814l-13.534-7.814V232.888z M105.449,363.21v16.301l-25.761,13.301
	l0.55,1.065l25.794-13.318l14.15,8.168l14.732-8.505V363.21l-14.732-8.506L105.449,363.21z M133.715,379.53l-13.534,7.814
	l-13.534-7.814v-15.627l13.534-7.815l13.534,7.815V379.53z M434.246,237.237l-14.733,8.505v16.331l-24.683,15.116l0.625,1.022
	l24.666-15.105l14.125,8.155l14.134-8.16l12.375,7.13l0.599-1.038l-12.375-7.129v-16.32L434.246,237.237z M447.781,262.062
	l-13.535,7.814l-13.535-7.814v-15.628l13.535-7.814l13.535,7.814V262.062z M557.925,391.491l-14.732-8.505l-14.166,8.177
	l-23.982-10.947l-0.499,1.091l23.913,10.916v16.281l14.733,8.505l14.153-8.17l13.564,6.836c0.158-0.367,0.324-0.731,0.481-1.099
	l-13.466-6.786V391.491z M556.727,407.811l-13.534,7.814l-13.535-7.814v-15.627l13.535-7.814l13.534,7.814V407.811z M36.09,392.925
	l-22.493-13.167v1.389l21.892,12.816v19.7l17.059,9.848v29.755h1.198V423.51l17.059-9.848v-20.39l-17.658-10.195L36.09,392.925z
	 M69.607,412.97l-16.46,9.503l-16.459-9.503v-19.005l16.459-9.504l16.46,9.504V412.97z M131.795,433.082l8.033-0.109l0.078-2.258
	l-8.409,0.114c-4.028,0.056-7.373,2.841-8.308,6.561l-7.093,0.095c-4.9,0.068-8.833,4.091-8.765,8.966l0.426,31.312
	c0.069,4.876,4.109,8.787,9.008,8.723l40.757-0.554c4.9-0.068,8.833-4.088,8.766-8.966l-0.14-10.272h-17.574
	c-1.393,0-2.748-0.407-3.983-1.096l-3.573,0.048l0.1,7.556l-8.305,0.112l-0.104-7.554l-7.554,0.103l-0.11-8.311l7.551-0.098
	l-0.1-7.56l6.753-0.091l0.416-12.103l-13.012,0.178C127.45,435.099,129.436,433.113,131.795,433.082z M160.016,470.184l3.305-0.042
	l0.081,5.909c0.058,3.935-3.102,7.182-7.038,7.236l-3.94,0.053l-0.071-5.285C152.295,473.767,155.722,470.244,160.016,470.184z
	 M110.291,452.955l-0.08-5.914c-0.056-3.932,3.104-7.18,7.039-7.233l3.94-0.056l0.071,5.286c0.059,4.288-3.373,7.814-7.661,7.873
	L110.291,452.955z M117.851,483.81c-3.936,0.054-7.184-3.104-7.236-7.042l-0.052-3.937l5.281-0.072
	c4.289-0.057,7.814,3.372,7.872,7.664l0.046,3.309L117.851,483.81z M458.938,161.784c0.486-0.239,8.068-4.32,19.21-14.419
	c14.275-12.941,9.887-28.17,1.955-32.595c-8.769-4.89-18.219,2.313-21.227,4.425c-3.005-2.112-12.64-8.908-21.225-4.425
	c-7.906,4.131-11.758,19.939,1.954,32.595c11.052,10.198,18.753,14.185,19.236,14.426
	C458.89,161.825,458.938,161.784,458.938,161.784z M457.219,137.522c-0.044,0.349-0.339,0.613-0.695,0.613h-2.573l-0.656,1.668
	c-0.106,0.267-0.365,0.442-0.656,0.442c-0.282-0.002-0.542-0.173-0.65-0.442l-0.656-1.668h-1.466c-0.285,0-0.54-0.173-0.647-0.435
	l-0.732-1.792l-0.684,1.992c-0.1,0.281-0.363,0.472-0.661,0.472h-6.657c-0.388,0-0.698-0.316-0.698-0.7
	c0-0.387,0.311-0.701,0.698-0.701h6.157l1.13-3.278c0.093-0.273,0.376-0.474,0.66-0.474c0.284,0,0.54,0.171,0.65,0.437l1.256,3.083
	h1.472c0.288,0,0.461,0.132,0.564,0.398l0.286,0.976l0.286-0.929c0.104-0.267,0.238-0.445,0.526-0.445h2.43l1.311-10.638
	c0.042-0.354,0.14-0.618,0.712-0.618c0.572,0,0.653,0.299,0.679,0.645l1.276,16.152l0.946-4.633
	c0.066-0.323,0.352-0.558,0.686-0.561h3.328c0.289,0.002,0.465,0.165,0.573,0.431l0.19,0.689l1.895-6.599
	c0.089-0.288,0.191-0.496,0.689-0.496c0.497,0,0.576,0.227,0.656,0.513l1.52,5.463l7.79,0.002c0.385,0,0.699,0.313,0.699,0.701
	c-0.002,0.385-0.314,0.699-0.699,0.699h-8.32c-0.314,0.005-0.59-0.21-0.673-0.514l-1.024-3.677l-1.793,5.809
	c-0.088,0.28-0.295,0.492-0.668,0.492c-0.373,0-0.547-0.173-0.651-0.444l-0.659-1.666h-2.281l-1.824,8.936
	c-0.067,0.326-0.233,0.555-0.697,0.555c-0.464,0-0.661-0.297-0.687-0.644l-1.118-14.188L457.219,137.522z M167.364,187.938
	l17.758,17.758l1.695-1.695l-17.303-17.304l27.358-15.795v-69.116l-59.856-34.558l-59.856,34.558v69.116l59.856,34.558
	L167.364,187.938z M83.15,105.246l53.864-31.099l53.864,31.099v62.197l-53.864,31.099L83.15,167.443V105.246z M398.577,170.981
	l26.44,15.265L402.62,209.66h-29.048v2.397h30.074l23.509-24.577l31.28,18.06l59.856-34.558v-69.116l-59.856-34.558l-59.857,34.558
	V170.981z M404.569,105.325l53.865-31.099l53.864,31.099v62.197l-53.864,31.099l-53.865-31.099V105.325z M172.406,500.495
	l0.047,6.892l-35.649,20.582L76.949,493.41v-69.115l59.856-34.558l4.423,2.554l-0.233,6.784l-4.19-2.419l-53.864,31.099v62.196
	l53.864,31.099L172.406,500.495z M428.888,406.795l-54.209-54.209h-42.653v2.397h41.661l53.052,53.052l-28.162,16.259v69.115
	l59.857,34.558l59.856-34.558v-69.115l-59.856-34.558L428.888,406.795z M512.298,489.951l-53.864,31.099l-53.865-31.099v-62.196
	l53.865-31.099l53.864,31.099V489.951z M525.524,228.522l-59.856,34.558v33.359h-88.901v2.397h88.901v33.36l59.856,34.558
	l59.857-34.558V263.08L525.524,228.522z M579.389,328.736l-53.865,31.099l-53.864-31.099v-62.197l53.864-31.099l53.865,31.099
	V328.736z M129.608,332.196v-33.36h13.071v-2.397h-13.071V263.08l-59.856-34.558L9.895,263.08v69.116l59.856,34.558L129.608,332.196
	z M15.887,266.539l53.864-31.099l53.864,31.099v62.197l-53.864,31.099l-53.864-31.099V266.539z M243.773,92.304
	c-1.952,0.915-3.951,1.968-5.992,3.172V40.179l59.856-34.558l59.857,34.558v69.116l-36.364,20.995v48.644l17.281,17.281
	l-1.695,1.695l-17.983-17.983v-48.253l-18.097,10.448c0.17-0.774,0.252-1.609,0.269-2.483c0.023-1.219,0.239-3.023,0.065-4.629
	l50.533-29.175V43.638L297.638,12.54l-53.864,31.099V92.304z M294.269,135.445c-0.031-0.17-0.06-0.34-0.092-0.509l0.83,0.479
	C294.761,135.425,294.515,135.437,294.269,135.445z M299.463,137.2c0.127,2.304-0.648,5.039-1.968,6.57l-1.646-0.95
	c-0.144,0.12-0.301,0.23-0.465,0.335c-0.921,0.586-2.149,0.923-3.738,0.923l3.109-5.761c-0.043-0.277-0.09-0.551-0.135-0.827
	c0.198-0.007,0.396-0.016,0.594-0.024l1.135-2.103l0.389-0.722c0.08,0.232,0.146,0.46,0.214,0.688
	c0.208,0.699,0.362,1.377,0.453,2.024C298.091,137.307,298.777,137.259,299.463,137.2z M309.607,49.919
	c0.01,0.285,0,0.561-0.011,0.838c3.699,0,20.375,0,20.375,0s0.24,0.265-0.393,1.498c-0.639,1.23-1.984,1.342-1.984,1.342h-18.451
	c-0.075,0.257-0.152,0.508-0.24,0.753c3.793-0.01,14.049-0.029,14.049-0.029s0.241,0.266-0.398,1.498
	c-0.636,1.231-1.981,1.343-1.981,1.343L307.55,57.07c-0.208,0.321-0.419,0.618-0.631,0.9c3.886-0.009,11.73-0.025,11.73-0.025
	s0.243,0.268-0.395,1.5c-0.638,1.229-1.981,1.345-1.981,1.345l-11.995,0.025c-0.7,0.768-2.588,2.083-3.71,1.332
	c-1.019-0.679-0.43-1.74,0.251-2.166c0.676-0.426,3.015-1.909,4.584-4.924c1.496-2.868,1.106-5.009,1.615-6.536
	c0.511-1.529,2.037-1.447,2.544-1.447c0.394,0,14.377,0,20.826,0c1.939,0,3.205,0,3.205,0s0.241,0.271-0.395,1.503
	c-0.017,0.033-0.039,0.056-0.057,0.087c-0.659,1.139-1.926,1.257-1.926,1.257H309.607z M298.475,86.597l-1.758-0.813
	c-0.008-0.369-0.011-0.738-0.019-1.109l1.793,0.834C298.484,85.873,298.478,86.236,298.475,86.597z M298.574,80.292l-1.962-0.909
	c-0.013-0.789-0.027-1.574-0.038-2.353l2.04,0.943C298.599,78.746,298.59,79.518,298.574,80.292z M302.993,99.182
	c-3.478-1.355-11.587-5.204-11.972-5.519c-0.69-0.566-1.103-1.868,0.144-2.945c0.28-0.24,1.217-0.735,2.408-1.318l2.633,1.238
	l-0.01,0.473c-0.955,0.417-1.647,0.852-1.69,0.936c-0.174,0.342,6.995,3.216,7.807,3.739
	C303.335,96.438,303.249,98.928,302.993,99.182z M304.946,87.31c-0.395,0.225-1.326,0.638-2.478,1.13l-3.383-1.548l0.006-0.276
	c0.93-0.441,1.588-0.765,1.611-0.831c0.086-0.257-9.285-4.389-11.268-5.297c-1.587-0.73-1.893-2.688-0.026-3.621
	c0,0,1.435-0.638,3.463-1.546l3.037,1.388v0.871c-1.566,0.674-2.726,1.189-2.85,1.238c-0.42,0.17,11.539,5.032,12.031,5.321
	C306.052,84.702,306.604,86.375,304.946,87.31z M297.03,102.52c-0.016-0.136-0.057-2.029-0.112-4.98l1.355,0.63
	c-0.048,2.587-0.083,4.224-0.101,4.351c-0.081,0.647-0.238,1.446-0.548,1.523c0,0-0.016,0.006-0.022,0.006
	c-0.01,0-0.026-0.006-0.026-0.006C297.268,103.965,297.113,103.167,297.03,102.52z M298.363,93.001l-1.537-0.717
	c-0.008-0.447-0.018-0.903-0.024-1.373l1.585,0.74C298.38,92.11,298.376,92.56,298.363,93.001z M296.364,97.284
	c-1.494,0.671-2.897,1.28-3.911,1.671c-0.236-0.238-0.328-2.424,0.492-3.244L296.364,97.284z M304.427,93.436
	c-0.126,0.101-1.082,0.585-2.434,1.237l-3.001-1.376l0.006-0.335c1.141-0.526,2.004-1.023,1.946-1.138
	c-0.171-0.339-9.125-3.83-10.613-4.672c-1.657-0.931-1.107-2.601-0.145-3.168c0.139-0.081,1.178-0.523,2.596-1.118l3.306,1.495
	v0.435c-0.887,0.435-1.535,0.767-1.513,0.831c0.086,0.251,8.756,4.041,9.708,4.865C305.531,91.566,305.122,92.873,304.427,93.436z
	 M309.985,68.346c0-2.238-1.38-3.335-2.378-3.609c-0.823-0.227-3.148-0.578-4.726,0.255c-1.556,0.822-1.47,3.757-1.47,3.757h4.528
	c0,0,0.337,0.118,0.056,0.407c-0.123,0.118-3.191,1.529-6.668,3.1l-0.006,0.805l3.247,1.493c2.208-0.957,4.122-1.79,4.841-2.116
	C309.308,71.572,309.985,70.34,309.985,68.346z M303.45,67.023c-0.253,0-0.457-0.205-0.457-0.457c0-0.252,0.204-0.457,0.457-0.457
	c0.254,0,0.457,0.205,0.457,0.457C303.907,66.817,303.704,67.023,303.45,67.023z M300.998,54.182c0,1.4-0.85,2.604-2.063,3.125
	c-0.016,0.93-0.112,7.547-0.24,15.451l-2.202-1.023c-0.12-7.454-0.211-13.548-0.227-14.434c-1.214-0.516-2.063-1.719-2.063-3.119
	c0-1.877,1.523-3.396,3.399-3.396C299.478,50.786,300.998,52.305,300.998,54.182z M305.869,76.708c0,0-16.473-7.331-16.756-7.614
	c-0.281-0.281,0.056-0.399,0.056-0.399h4.53c0,0,0.085-2.938-1.473-3.759c-1.579-0.832-3.905-0.482-4.725-0.258
	c-0.998,0.278-2.379,1.375-2.379,3.611c0,1.995,0.679,3.226,2.576,4.091c2.08,0.948,14.098,6.114,14.519,6.285
	c0.147,0.054-1.195,0.67-3.013,1.467v0.478l2.972,1.371c1.614-0.729,3.026-1.355,3.665-1.649
	C307.431,79.604,307.739,77.644,305.869,76.708z M291.655,66.053c0.254,0,0.455,0.204,0.455,0.457c0,0.253-0.201,0.457-0.455,0.457
	c-0.251,0-0.455-0.204-0.455-0.457C291.2,66.256,291.405,66.053,291.655,66.053z M294.455,59.981
	c0.684,0.426,1.275,1.487,0.257,2.166c-1.125,0.752-3.014-0.564-3.713-1.332l-11.995-0.025c0,0-1.345-0.117-1.982-1.345
	c-0.637-1.231-0.395-1.5-0.395-1.5s7.843,0.015,11.726,0.025c-0.209-0.281-0.423-0.578-0.626-0.9l-13.027,0.092
	c0,0-1.341-0.112-1.979-1.343c-0.636-1.232-0.396-1.498-0.396-1.498s10.256,0.019,14.046,0.029
	c-0.085-0.245-0.165-0.497-0.238-0.753H267.68c0,0-1.342-0.112-1.981-1.342c-0.636-1.233-0.395-1.498-0.395-1.498s16.678,0,20.372,0
	c-0.008-0.277-0.014-0.553-0.007-0.838h-21.612c0,0-1.343-0.115-1.977-1.344c-0.639-1.232-0.399-1.503-0.399-1.503s23.52,0,24.028,0
	c0.513,0,2.039-0.082,2.547,1.447c0.511,1.527,0.12,3.668,1.617,6.536C291.444,58.072,293.777,59.555,294.455,59.981z
	 M517.4,273.569c0.92-0.92,0.92-2.411,0-3.331c0,0-2.688-1.197-3.608-0.277l-6.525,6.525l-3.811-3.811l2.776-2.776
	c0.394-0.394,0.394-1.032,0-1.426l-2.18-2.184c-0.394-0.394-1.033-0.395-1.427,0l-9.115,9.116c-0.394,0.394-0.394,1.032,0,1.426
	l2.182,2.181c0.394,0.394,1.033,0.394,1.427,0l2.776-2.776l3.811,3.811l-6.525,6.525c-0.92,0.92,0.277,3.608,0.277,3.608
	c0.92,0.92,2.411,0.92,3.331,0l0.518-0.519l31.968,31.968c1.634,1.634,4.284,1.634,5.918,0l2.07-2.07
	c0.037,0.038,0.061,0.063,0.065,0.067l2.366,2.367c0.492,0.492,1.29,0.492,1.782,0l1.263-1.263l8.32,8.32
	c0.309,0.309,0.809,0.309,1.118,0l0.093-0.093c0.309-0.309,0.309-0.809,0-1.118l-8.32-8.32l1.263-1.263
	c0.492-0.492,0.492-1.29,0-1.782l-2.366-2.366c-0.004-0.004-0.029-0.028-0.068-0.065l2.069-2.069c1.634-1.634,1.634-4.284,0-5.918
	l-31.968-31.968L517.4,273.569z M518.008,304.086l-15.563-15.563l4.869-4.869l15.563,15.563L518.008,304.086z M546.117,305.598
	l-3.423,3.423l-1.315-1.315l3.423-3.423L546.117,305.598z M542.26,301.74l-3.423,3.423l-1.315-1.315l3.423-3.423L542.26,301.74z
	 M538.402,297.882l-3.423,3.423l-1.315-1.315l3.423-3.423L538.402,297.882z M534.544,294.025l-3.423,3.423l-1.315-1.315l3.423-3.423
	L534.544,294.025z M521.656,281.136l-3.423,3.423l1.315,1.315l3.423-3.423l2.543,2.543l-3.423,3.423l1.315,1.315l3.423-3.423
	l2.543,2.543l-3.423,3.423l1.315,1.315l3.423-3.423l0.621,0.62l-4.869,4.869l-15.563-15.563l4.869-4.869L521.656,281.136z
	 M445.659,429.368v9.871h0.807c-0.064,1.448-0.432,3.375-2.406,4.953c-3.039,2.434-4.673,5.854-4.851,10.144
	c-0.012,0.096-0.016,11.973-0.022,27.717c0,2.889,2.353,5.243,5.242,5.243h25.01c2.886,0,5.236-2.353,5.236-5.243
	c-0.006-15.823-0.016-27.765-0.032-27.869c-0.252-4.088-2.012-7.727-4.842-9.991c-1.968-1.572-2.339-3.505-2.403-4.953h0.807v-9.871
	c0-0.591-0.477-1.07-1.072-1.07h-20.406C446.136,428.298,445.659,428.777,445.659,429.368z M472.355,480.441
	c0,2.058-1.674,3.735-3.728,3.735H445.24c-2.061,0-3.733-1.677-3.733-3.735c0-0.809,0-5.293,0-6.233h30.849
	C472.355,475.148,472.355,479.632,472.355,480.441z M463.053,463.879v4.346h-3.948v3.952h-4.349v-3.952h-3.948v-4.346h3.948v-3.949
	h4.349v3.949H463.053z M465.606,430.362c0-0.236,1.035-0.236,1.035,0v7.841c0,0.236-1.035,0.236-1.035,0V430.362z M463.769,430.362
	c0-0.236,1.035-0.236,1.035,0v7.841c0,0.236-1.035,0.236-1.035,0V430.362z M461.927,430.362c0-0.236,1.04-0.236,1.04,0v7.841
	c0,0.236-1.04,0.236-1.04,0V430.362z M460.092,430.362c0-0.236,1.034-0.236,1.034,0v7.841c0,0.236-1.034,0.236-1.034,0V430.362z
	 M458.251,430.362c0-0.236,1.035-0.236,1.035,0v7.841c0,0.236-1.035,0.236-1.035,0V430.362z M456.412,430.362
	c0-0.236,1.04-0.236,1.04,0v7.841c0,0.236-1.04,0.236-1.04,0V430.362z M454.574,430.362c0-0.236,1.035-0.236,1.035,0v7.841
	c0,0.236-1.035,0.236-1.035,0V430.362z M452.737,430.362c0-0.236,1.035-0.236,1.035,0v7.841c0,0.236-1.035,0.236-1.035,0V430.362z
	 M450.897,430.362c0-0.236,1.038-0.236,1.038,0v7.841c0,0.236-1.038,0.236-1.038,0V430.362z M449.057,430.362
	c0-0.236,1.038-0.236,1.038,0v7.841c0,0.236-1.038,0.236-1.038,0V430.362z M465.547,439.283c0.057,1.515,0.442,4.866,2.687,6.664
	c2.387,1.908,3.88,5.009,4.091,8.496c0.005,0.125,0.012,1.454,0.014,3.453h-30.826c0.004-1.937,0.006-3.211,0.009-3.304
	c0.158-3.733,1.499-6.559,4.105-8.645c2.242-1.798,2.629-5.15,2.682-6.664H465.547z M447.219,430.362c0-0.236,1.035-0.236,1.035,0
	v7.841c0,0.236-1.035,0.236-1.035,0V430.362z M463.888,447.845c-1.196-0.977,0.51-2.663,1.695-1.695
	c1.234,1.009,2.378,2.066,2.978,3.581c0.647,1.635,0.822,3.489,0.904,5.233c0.073,1.545-2.325,1.536-2.397,0
	c-0.064-1.358-0.184-2.775-0.627-4.072C465.982,449.553,464.948,448.711,463.888,447.845z M162.691,110.666
	c-5.084-5.084-13.363-5.092-18.458-0.025l-32.273,32.172c-4.82,4.82-6.897,11.639-0.025,18.51s13.359,5.09,18.454,0.025
	l32.273-32.173C167.771,124.092,167.795,115.802,162.691,110.666z M128.916,159.066c-4.06,4.036-8.841,5.841-14.725-0.043
	c-5.884-5.884-3.226-11.447,0.045-14.718l13.954-13.914l14.679,14.762L128.916,159.066z M153.708,132.779
	c-0.777,0.777-2.038,0.777-2.815,0c-0.777-0.777-0.777-2.038,0-2.815c0.777-0.777,2.038-0.777,2.815,0
	C154.486,130.741,154.486,132.001,153.708,132.779z M157.891,128.004c-1.564,1.633-4.038-0.852-2.479-2.479
	c2.28-2.38,2.628-5.374,0.674-8.068c-1.323-1.824,1.737-3.541,3.05-1.732C161.995,119.668,161.152,124.6,157.891,128.004z
	 M87.461,328.133c0-5.635-1.546-11.42,8.261-11.42c0.354,0,0.62-0.332,0.62-0.685c0-0.408-0.351-0.688-0.759-0.688
	c-11.355,0-9.5,7.911-9.5,12.533c0,4.622-3.424,8.667-8.026,9.1c-5.28,0.496-9.735-3.661-9.735-8.84v-7.914
	c0.978-0.062,1.753-0.866,1.753-1.859v-3.437c1.493-0.145,13.067-3.366,13.067-3.366c2.352-0.688,3.968-2.844,3.968-5.294v-37.022
	c0-3.046-2.469-5.516-5.516-5.516H53.897c-3.046,0-5.516,2.47-5.516,5.516v37.022c0,2.45,1.617,4.607,3.968,5.295
	c0,0,11.423,3.19,12.839,3.341v3.461c0,0.993,0.776,1.797,1.753,1.859v7.617c0,5.518,4.231,10.272,9.742,10.544
	C82.575,338.67,87.461,333.768,87.461,328.133z M83.955,305.54c0,1.394-0.92,2.621-2.258,3.013l-3.374,0.986v-18.756
	c0-1.579,1.28-2.86,2.86-2.86h2.772V305.54z M51.535,283.793v-13.647c0-1.73,1.408-3.137,3.138-3.137h26.144
	c1.73,0,3.138,1.407,3.138,3.137v13.647H51.535z M79.956,269.564c2.304,0,2.3,3.575,0,3.575
	C77.652,273.14,77.655,269.564,79.956,269.564z M81.744,277.112c0,1.192,0,2.383,0,3.575c0,2.304-3.575,2.301-3.575,0
	c0-1.192,0-2.384,0-3.575C78.168,274.808,81.744,274.812,81.744,277.112z M340.804,325.094c-4.731-6.437-6.778-17.721-7.304-30.345
	c4.863-5.23,8.552-11.906,10.689-17.614c3.354-8.958,3.465-18.787,4.554-28.241c1.006,0.294,1.918,0.309,2.59-0.178l10.234-7.409
	l-0.22-3.185l2.989-1.467c0,0,13.957,72.889-7.754,91.24C356.584,327.894,349.452,328.203,340.804,325.094z M342.941,259.646
	c-0.782,7.53-3.893,19.429-9.586,28.183c-0.025-19.243,2.824-40.021,4.763-50.908l1.998,1.117v4.82c0,0,2.015,2.016,4.421,3.76
	C343.939,250.946,343.394,255.286,342.941,259.646z M337.814,236.547l-18.375-23.156c-6.354-3.548-12.655-6.653-18.569-9.33
	c0.063,0.405,0.039,0.851-0.094,1.331c-2.384,8.582-8.048,13.462-15.022,15.595l0.795,0.61l-1.632,5.727
	c4.15,10.57,5.327,22.88,7.028,33.644c0.185,1.17,0.36,2.375,0.536,3.6c0.14,0.979,0.282,1.971,0.428,2.972h2.177v9.938h-0.386
	c0.29,1.229,0.615,2.443,0.982,3.631h15.357v2.228h-14.61c2.608,7.075,7.06,12.932,15.556,15.13
	c4.013,1.038,7.607,0.618,10.809-0.802l-2.873-72.188c1.784,11.225,4.029,27.351,6.779,50.499
	C329.638,265.479,334.916,246.796,337.814,236.547z M300.699,268.316h-3.489v-3.748v-4.782h3.489v4.782V268.316z M278.212,215.201
	l9.002-7.371l-13.935-14.548c5.181,1.704,13.326,4.588,22.84,8.682c-0.596,0.348-1.087,0.92-1.326,1.78
	c-2.262,8.141-8.244,11.746-15.306,12.436L278.212,215.201z M326.975,402.767l-3.553-89.267l-0.445-11.183
	c-2.359,0.928-4.853,1.428-7.463,1.362c-11.88-0.301-20.438-9.791-24.235-20.341h-9.19v-16.542h1.939v14.314h6.523
	c-0.33-1.126-0.608-2.257-0.827-3.384c-0.016-0.082-0.029-0.165-0.045-0.247h-3.324v-9.938h1.674
	c-0.146-0.99-0.289-1.981-0.43-2.972c-0.701-4.897-1.38-9.799-2.29-14.659c-0.88-4.705-1.629-9.521-2.781-14.199l-15.051,52.83
	l-37.921-67.136l6.074-7.108l-10.339-3.618l11.212-21.628c-12.599,3.771-41.003,13.643-63.617,31.579
	c-13.44,17.059-35.152,117.345-35.152,124.582c0,1.856,1.77,9.872,4.399,20.756c7.622,31.559,22.482,87.285,22.482,87.285
	l28.949-13.44c0,0-12.407-79.092-11.373-83.227c0.134-0.536,0.513-1.937,1.066-3.97c3.719-13.656,15.409-56.081,14.959-60.13
	l9.305-4.911l-7.625,9.24l-1.632,55.801h15.282c1.739,0,3.419,0.628,4.878,1.662c1.87,0.264,3.279,0.669,3.829,1.274
	c2.585,2.843,2.326,108.816-0.258,111.659c-2.585,2.843-19.902,5.945-19.902,5.945l-3.835,76.1l2.512,1.45v19.893l117.893,0
	l-9.355,5.401l-0.258,7.068l21.597-12.469h3.008l-0.068-1.697l23.908-13.803v-69.115l-27.848-16.078L326.975,402.767z
	 M175.445,223.382c-0.116-0.148-0.186-0.235-0.186-0.235c23.827,10.76,20.514,51.754,20.514,51.754
	c-0.391-15.112-6.655-29.369-12.16-39.081C179.743,228.991,176.257,224.417,175.445,223.382z M351.503,489.44v62.196l-18.185,10.499
	l-3.389-85.151L351.503,489.44z M283.88,224.867c-0.47-1.042-0.962-2.07-1.503-3.067c0.324-0.057,0.642-0.129,0.962-0.196
	l1.153,0.935L283.88,224.867z M277.464,202.799l9.75,5.031l-11.548,7.552l1.15,0.933c-1.611-0.003-3.26-0.146-4.917-0.398
	l0.462-8.096L277.464,202.799z M271.555,221.972c1.93,0.237,3.855,0.358,5.746,0.318c2.004,3.327,3.398,6.906,4.469,10.604
	l-13.843,52.645L271.555,221.972z M298.171,201.602c2.897-7.318,3.137-15.985,1.858-24.652c-0.917-6.211-2.607-12.419-4.663-18.125
	c0.236-1.717,0.381-3.479,0.443-5.267c3.078,7.561,5.613,16.218,6.66,24.801c1.044,8.56,0.591,17.038-2.293,24.287
	C299.661,202.082,298.936,201.718,298.171,201.602z M236.662,188.742c-1.547-6.584-1.867-13.375-1.331-20.147
	c0.31-3.914,0.903-7.819,1.705-11.674c0.258-1.242,0.534-2.478,0.833-3.708c-0.85-0.735-1.399-1.808-1.399-3.019
	c0-2.213,1.794-4.006,4.006-4.006s4.006,1.794,4.006,4.006s-1.794,4.006-4.006,4.006c-0.151,0-0.294-0.028-0.44-0.044
	c-0.322,1.343-0.622,2.693-0.895,4.052c-0.898,4.48-1.5,9.032-1.685,13.58c-0.207,5.106,0.127,10.203,1.174,15.184
	c0.25,1.187,0.541,2.367,0.875,3.54c0.654,2.293,1.452,4.559,2.458,6.778c0.948,2.093,2.078,3.984,3.342,5.721
	c-0.726,0.276-1.362,0.842-1.763,1.558c-1.357-1.85-2.568-3.869-3.588-6.105c-0.813-1.78-1.499-3.588-2.093-5.414
	C237.398,191.627,237.002,190.19,236.662,188.742z M293.962,211.046c1.016-1.477,1.827-3.201,2.382-5.202
	c0.507-1.827,1.872-1.048,1.641-0.206c-0.647,2.356-2.101,5.053-2.755,6.088C294.576,212.76,293.591,211.582,293.962,211.046z
	 M293.596,213.734c-12.566,13.487-43.022,2.196-46.787-7.838c8.691,10.121,34.581,18.262,45.475,7.16
	C293.268,212.487,293.979,213.068,293.596,213.734z M353.169,240.789c1.071,0,1.939,0.868,1.939,1.938s-0.868,1.939-1.939,1.939
	s-1.939-0.868-1.939-1.939S352.098,240.789,353.169,240.789z M283.195,232.088c-0.422-0.899,0.915-1.686,1.339-0.783
	c2.025,4.314,3.114,8.856,3.24,13.621c0.026,1-1.525,0.996-1.551,0C286.105,240.433,285.106,236.157,283.195,232.088z
	 M321.197,301.492c-5.506,2.59-10.902,0.267-15.943-2.288c-0.891-0.452-0.105-1.789,0.783-1.339c4.464,2.262,9.44,4.61,14.378,2.288
	C321.313,299.73,322.1,301.068,321.197,301.492z M324.091,298.686c1,0,0.998,1.551,0,1.551
	C323.091,300.237,323.093,298.686,324.091,298.686z M359.553,210.264c0-4.132-3.35-7.482-7.483-7.482
	c-4.132,0-7.482,3.35-7.482,7.482s3.35,7.482,7.482,7.482C356.203,217.746,359.553,214.396,359.553,210.264z M348.678,211.233
	c-0.535,0-0.969-0.434-0.969-0.969c0-0.535,0.434-0.969,0.969-0.969s0.969,0.434,0.969,0.969
	C349.647,210.799,349.213,211.233,348.678,211.233z M352.07,214.625c-0.535,0-0.969-0.434-0.969-0.969
	c0-0.535,0.434-0.969,0.969-0.969c0.535,0,0.969,0.434,0.969,0.969C353.039,214.191,352.605,214.625,352.07,214.625z
	 M352.07,211.233c-0.535,0-0.969-0.434-0.969-0.969c0-0.535,0.434-0.969,0.969-0.969c0.535,0,0.969,0.434,0.969,0.969
	C353.039,210.799,352.605,211.233,352.07,211.233z M352.07,207.84c-0.535,0-0.969-0.434-0.969-0.969
	c0-0.535,0.434-0.969,0.969-0.969c0.535,0,0.969,0.434,0.969,0.969C353.039,207.407,352.605,207.84,352.07,207.84z M355.463,211.233
	c-0.535,0-0.969-0.434-0.969-0.969c0-0.535,0.434-0.969,0.969-0.969c0.535,0,0.969,0.434,0.969,0.969
	C356.432,210.799,355.998,211.233,355.463,211.233z M237.118,214.184l-11.827-3.506l7.833-11.074l12.783,13.182l20.423,72.254
	l-34.404-64.264L237.118,214.184z M269.775,145.875l5.093-9.437C276.665,141.68,275.467,145.875,269.775,145.875z M42.803,232.16
	h1.198v-13.467l13.564-7.831l17.352,8.06l0.504-1.087l-17.287-8.03v-16.284l-14.133-8.16v-18.514h-1.198v18.514l-14.133,8.16v17.012
	l14.133,8.16V232.16z M29.868,209.841v-15.628l13.534-7.814l13.534,7.814v15.628l-13.534,7.814L29.868,209.841z M431.187,310.855
	v18.64l-22.334,12.895l-0.3,0.172v26.828l23.233,13.412l22.629-13.064l27.507,16.332l0.611-1.03l-27.514-16.337v-26.141
	l-22.633-13.067v-18.64H431.187z M453.82,343.255v25.443l-22.034,12.721l-22.035-12.721v-25.443l22.035-12.722L453.82,343.255z
	 M372.557,86.301l22.58,13.037l23.233-13.413V59.759l18.657-12.859l-0.681-0.987l-18.604,12.822l-22.006-12.705V22.839h-1.198
	v23.192l-22.633,13.067v26.189l-9.89,7.786l0.742,0.942L372.557,86.301z M373.104,59.79l22.033-12.721l22.035,12.721v25.443
	l-22.035,12.721l-22.033-12.721V59.79z"></path>
<path id="color_x5F_1_41_" fill="#B2DDE3" d="M53.147,422.473l-16.459-9.503v-19.005l16.459-9.504l16.46,9.504v19.005
	L53.147,422.473z M119.961,232.888v15.628l13.534,7.814l13.534-7.814v-15.628l-13.534-7.814L119.961,232.888z M351.503,551.637
	V489.44l-21.574-12.456l0.636,15.993l15.957,9.213v52.322L351.503,551.637z M83.15,105.246v6.415l45.888-26.493l56.86,32.828v52.323
	l4.98-2.875v-62.197l-53.864-31.099L83.15,105.246z M106.647,363.903v15.627l13.534,7.814l13.534-7.814v-15.627l-13.534-7.815
	L106.647,363.903z M15.887,266.539v6.415l45.888-26.494l56.86,32.828v52.323l4.98-2.875v-62.197l-53.864-31.099L15.887,266.539z
	 M351.503,105.835V43.638L297.638,12.54l-53.864,31.099v6.415l45.888-26.493l40.726,23.513c1.939,0,3.205,0,3.205,0
	s0.241,0.271-0.395,1.503c-0.017,0.033-0.039,0.056-0.057,0.087l13.381,7.725v52.323L351.503,105.835z M512.298,489.951v-62.196
	l-53.864-31.099l-53.865,31.099v6.415l45.888-26.494l56.86,32.828v52.322L512.298,489.951z M447.781,262.062v-15.628l-13.535-7.814
	l-13.535,7.814v15.628l13.535,7.814L447.781,262.062z M56.936,209.841v-15.628l-13.534-7.814l-13.534,7.814v15.628l13.534,7.814
	L56.936,209.841z M579.389,328.736v-62.197l-53.865-31.099l-53.864,31.099v6.415l45.888-26.493l56.86,32.828v52.323L579.389,328.736
	z M140.467,414.396l0.527-15.321l-4.19-2.419l-53.864,31.099v6.415l45.888-26.493L140.467,414.396z M286.858,176.318
	c-6.375,5.355-14.671,1.636-16.81,5.643c-1.62,3.034-2.413,5.702-2.701,7.997l0-0.001l3.264,1.217l27.027-15.604l2.39,1.38
	c-0.917-6.211-2.607-12.419-4.663-18.125C294.401,165.837,291.88,172.099,286.858,176.318z M128.828,538.989l-21.05-12.153
	c8.519,7.063,17.434,13.664,26.713,19.758l29.579-17.078l8.568,4.947l-0.142-20.685L128.828,538.989z M529.658,392.184v15.627
	l13.535,7.814l13.534-7.814v-15.627l-13.534-7.814L529.658,392.184z M413.887,528.779l-22.033-12.722l-22.035,12.722v25.441
	l22.035,12.723l22.033-12.723V528.779z M246.96,576.021l-1.138,14.738c5.068,0.891,10.178,1.658,15.332,2.289l-0.714-9.244
	L246.96,576.021z M567.031,357.96v42.376l8.239,4.757c-1.236,3.19-2.539,6.345-3.879,9.482l-13.466-6.786v-16.298l-14.732-8.505
	l-14.166,8.177l-23.982-10.947l-0.499,1.091l23.913,10.916v16.281l14.733,8.505l14.153-8.17l13.564,6.836
	c-0.747,1.729-1.485,3.464-2.264,5.176l-8.631-4.983l-36.699,21.188v42.376l6.867,3.965c-21.961,27.456-48.673,50.944-78.905,69.201
	l-12.649-7.303l-36.699,21.188v9.99c-3.131,1.172-6.296,2.273-9.476,3.342v-11.833l22.333-12.895l0.3-0.172v-26.827l-23.232-13.413
	l-23.233,13.413v26.827l22.634,13.067v12.231c-1.136,0.376-2.265,0.768-3.407,1.13l-30.435-17.572l-36.699,21.188v9.434
	c-4.012,0.308-8.047,0.531-12.102,0.679l0.199-5.452l37.711-21.772v-6.415l10.973-6.335v-69.115l-27.848-16.078l-2.672-67.136
	l59.908-34.588l39.856,39.856l-28.162,16.259v13.334l-4.98,2.875v65.657l56.86,32.828l56.86-32.828v-6.416l10.972-6.335v-69.115
	l-59.856-34.558l-29.546,17.058l-39.856-39.856l14.319-8.267v-59.835h57.336v46.11l56.86,32.828l56.86-32.828v-6.415l10.973-6.335
	V263.08l-59.857-34.558l-59.856,34.558v13.334l-4.981,2.876v17.15h-57.336v-23.065l16.77-10.27l14.125,8.155l14.134-8.16
	l12.375,7.13l0.599-1.038l-12.375-7.129v-16.32l-14.733-8.505l-14.733,8.505v16.331l-16.162,9.897v-35.366L365.586,214.8
	c-0.522-6.178-4.575-11.135-4.575-11.135s0.124-3.627-2.585-7.179c-3.365-4.412-6.385,0.551-7.646,3.201
	c-0.89,0.108-1.745,0.327-2.553,0.64c-2.391-0.725-4.359-0.201-5.971,1.003l-39.788-22.971c-1.047-8.582-3.582-17.239-6.66-24.801
	c0.026-0.747,0.034-1.499,0.033-2.253l22.892-13.217v41.838l17.983,17.983l1.695-1.695l-17.281-17.281v-42.229l25.391-14.66v-6.415
	l10.973-6.335V40.179L297.638,5.621l-59.856,34.558v13.334l-4.98,2.875v42.265c-0.634,0.436-1.27,0.882-1.911,1.348
	c-10.85-1.132-14.255,23.814-12.627,37.656c1.154,9.804,9.887,20.41,17.068,30.94c-0.536,6.771-0.216,13.562,1.331,20.147
	l-0.159,0.307c-12.599,3.771-41.003,13.643-63.617,31.579c-13.44,17.059-35.152,117.345-35.152,124.582
	c0,1.856,1.77,9.872,4.399,20.756l-0.905,26.324l-4.423-2.554l-59.856,34.558v13.334l-4.981,2.875v51.16
	c-10.406-12.089-19.868-25.014-28.247-38.68v-23.26l-17.701-10.219c-4.757-10.585-8.912-21.498-12.424-32.696v-5.663l21.892,12.816
	v19.7l17.059,9.848v29.755h1.198V423.51l17.059-9.848v-20.39l-17.658-10.195l-17.057,9.848l-22.493-13.167v-22.496l-8.566-4.946
	C1.738,334.59,0,316.318,0,297.638c0-14.031,0.993-27.827,2.872-41.341l13.263-7.657v-42.376l-1.535-0.886
	c4.309-13.229,9.514-26.052,15.554-38.394l35.692-20.607v-35.431c12.276-15.223,26.016-29.212,41.015-41.752l4.153,2.398
	l36.699-21.188v-9.921c18.737-10.948,38.776-19.906,59.831-26.586l30.5,17.609l36.699-21.188v-9.45
	C282.299,0.293,289.934,0,297.638,0c7.926,0,15.778,0.317,23.548,0.925v9.392l36.699,21.188l30.265-17.474
	c26.428,8.427,51.249,20.445,73.897,35.481v13.774l36.699,21.188l4.137-2.388c8.15,7.762,15.847,15.993,23.077,24.628v26.878
	l31.005,17.901c8.866,15.699,16.353,32.278,22.285,49.581l-8.345,4.818v42.376l22.13,12.777c1.47,11.992,2.241,24.202,2.241,36.591
	c0,15.669-1.219,31.051-3.552,46.066L567.031,357.96z M28.67,210.533l14.133,8.16v13.467h1.198v-13.467l13.564-7.831l17.352,8.06
	l0.504-1.087l-17.287-8.03v-16.284l-14.133-8.16v-18.514h-1.198v18.514l-14.133,8.16V210.533z M134.914,363.21l-14.732-8.506
	l-14.733,8.506v16.301l-25.761,13.301l0.55,1.065l25.794-13.318l14.15,8.168l14.732-8.505V363.21z M142.679,296.439h-13.071V263.08
	l-59.856-34.558L9.895,263.08v13.334l-4.98,2.875v65.657l56.86,32.828l56.86-32.828v-6.415l10.972-6.335v-33.36h13.071V296.439z
	 M158.864,223.013l-0.812-0.881l-10.506,9.672l-14.051-8.113l-14.153,8.171l-38.51-19.411l-0.54,1.07l38.47,19.391v16.297
	l14.732,8.506l14.733-8.506v-16.403L158.864,223.013z M196.871,101.786l-59.856-34.558l-59.856,34.558v13.334l-4.98,2.875v65.657
	l56.86,32.828l42.393-24.475l13.691,13.691l1.695-1.695l-13.237-13.237l12.319-7.112v-6.415l10.972-6.335V101.786z M226.497,49.164
	l-23.232-13.413L180.62,48.824l-18.883-10.135l-0.566,1.056l18.861,10.123v26.123l22.633,13.068v20.265h1.198V89.058l22.633-13.068
	V49.164z M362.016,93.074l0.742,0.942l9.8-7.715l22.58,13.037l23.233-13.413V59.759l18.657-12.859l-0.681-0.987l-18.604,12.822
	l-22.006-12.705V22.839h-1.198v23.192l-22.633,13.067v26.189L362.016,93.074z M387.204,171.056V144.23l-22.633-13.068v-20.042
	h-1.198v20.042l-22.634,13.068v26.161l-11.842,7.942l0.667,0.995l11.798-7.912l22.61,13.054L387.204,171.056z M507.318,183.731
	v-6.415l10.972-6.335v-69.116l-59.856-34.558l-59.857,34.558v13.334l-4.98,2.875v65.657l21.791,12.581L402.62,209.66h-29.048v2.397
	h30.074l13.88-14.511l32.932,19.014L507.318,183.731z M562.399,185.306l-22.633-13.067v-24.367h-1.198v24.367l-22.634,13.067v26.134
	l-32.408,18.602l0.597,1.039l32.41-18.603l22.635,13.067l23.232-13.413V185.306z M402.684,399.223l-0.702-0.971l-16.93,12.253
	l-22.596-13.046l-22.934,13.241l-0.3,0.172V437.7l22.634,13.066v20.676h1.198v-20.676l22.333-12.894l0.3-0.172v-26.176
	L402.684,399.223z M482.532,385.04l-27.514-16.337v-26.141l-22.633-13.067v-18.64h-1.198v18.64l-22.334,12.895l-0.3,0.172v26.828
	l23.233,13.412l22.629-13.064l27.507,16.332L482.532,385.04z M517.133,185.998v25.443l22.035,12.721l22.034-12.721v-25.443
	l-22.034-12.721L517.133,185.998z M242.312,184.802l-0.258-4.907c-1.262-2.681-2.846-5.388-4.598-8.106
	c-0.207,5.106,0.127,10.203,1.174,15.184L242.312,184.802z M507.318,170.397l4.98-2.875v-62.197l-53.864-31.099l-53.865,31.099
	v6.415l45.888-26.494l56.86,32.828V170.397z M341.938,144.922v25.443l22.035,12.722l22.034-12.722v-25.443L363.972,132.2
	L341.938,144.922z M409.751,343.255v25.443l22.035,12.721l22.034-12.721v-25.443l-22.034-12.722L409.751,343.255z M340.421,411.564
	v25.443l22.035,12.721l22.034-12.721v-25.443l-22.034-12.723L340.421,411.564z M181.23,49.856v25.443l22.034,12.722l22.034-12.722
	V49.856l-22.034-12.721L181.23,49.856z M417.172,85.233V59.79l-22.035-12.721L373.104,59.79v25.443l22.033,12.721L417.172,85.233z
	 M351.335,248.715c-0.673,0.487-1.584,0.472-2.59,0.178c0.113-0.982,0.233-1.961,0.372-2.933c0.426-2.981,0.896-5.956,1.385-8.929
	c2.175-0.152,4.077-0.568,5.652-1.054c3.086-0.953,4.898-2.167,4.898-2.167l0.297,4.31l0.22,3.185L351.335,248.715z M351.23,242.728
	c0,1.071,0.868,1.939,1.939,1.939s1.939-0.868,1.939-1.939s-0.868-1.938-1.939-1.938S351.23,241.657,351.23,242.728z
	 M342.811,236.386c-0.88-0.207-1.774-0.448-2.695-0.766v2.418v4.82c0,0,2.015,2.016,4.421,3.76c0.447-3.234,0.924-6.463,1.428-9.688
	C344.948,236.818,343.897,236.641,342.811,236.386z M167.349,451.982l1.401,5.405l23.262-10.856l-1.732-5.196L167.349,451.982z
	 M237.861,193.052l-3.05,4.708l8.661,6.927c0.021-0.04,0.048-0.076,0.07-0.116c-1.357-1.85-2.568-3.869-3.588-6.105
	C239.142,196.686,238.455,194.878,237.861,193.052z M261.301,197.772l-18.642-12.127l-3.155,4.87
	c0.654,2.293,1.452,4.559,2.458,6.778c0.948,2.093,2.078,3.984,3.342,5.721c0.963-0.365,2.071-0.219,2.972,0.831
	c1.651,1.923,3.849,3.77,6.387,5.43l6.865-10.794l6.398,8.91l0.544,0.757c1.064,1.257,3.05,1.091,3.891-0.325l4.326-7.284
	l-9.509-9.676L261.301,197.772z"></path>
</svg>