<?xml version="1.0" standalone="no"?>
<svg version="1.1" id="Layer_1" xmlns="http://www.w3.org/2000/svg" xmlns:xlink="http://www.w3.org/1999/xlink" x="0px" y="0px" viewBox="0 0 595.276 595.276" enable-background="new 0 0 595.276 595.276" xml:space="preserve">
<path id="color_x5F_8_30_" fill="#434343" d="M158.785,255.246l-33.528,33.52v-25.29l8.23-8.23H158.785z M155.45,292.826
	l19.337-19.337V261.96l-30.866,30.866H155.45z M167.113,292.826l7.674-7.674v-6.455l-14.129,14.129H167.113z M368.696,325.101
	v107.982h-142.04V325.101H368.696z M355.201,338.935h-0.697v-4.103H241.527v4.103h-0.697v80.314h114.372V338.935z M280.861,289.846
	c0.139,0.045,0.28,0.087,0.433,0.087h32.936c0.123,0,0.233-0.041,0.347-0.07c0.616-0.158,1.081-0.693,1.081-1.358h-35.793
	C279.866,289.14,280.288,289.66,280.861,289.846z M311.719,347.311l41.891,41.891v-19.86l-22.039-22.031H311.719z M285.621,347.311
	l67.99,67.99v-9.92l-58.061-58.07H285.621z"></path>
<path id="color_x5F_7_30_" fill="#0D0D0D" d="M0.294,284.786h110.312v4.631H0.118C0.16,287.869,0.228,286.328,0.294,284.786z
	 M46.844,457.988h63.761v-9.435H41.067C42.942,451.732,44.856,454.885,46.844,457.988z M12.321,297.577
	c-2.414,0-4.37,1.112-4.37,2.483v40.23c0,1.371,1.957,2.483,4.37,2.483c2.414,0,4.37-1.111,4.37-2.483v-40.23
	C16.691,298.688,14.735,297.577,12.321,297.577z M12.321,275.974c2.414,0,4.37-1.112,4.37-2.483v-40.226
	c0-1.371-1.957-2.483-4.37-2.483c-2.414,0-4.37,1.112-4.37,2.483v40.226c0,0.452,0.229,0.87,0.6,1.235
	C9.306,275.468,10.703,275.974,12.321,275.974z M175.982,262.355h17.171v-6.06h-17.171V262.355z M140.125,212.305
	c-0.428,0-0.775,0.347-0.775,0.776c0,0.428,0.347,0.775,0.775,0.775c0.429,0,0.776-0.347,0.776-0.775
	C140.9,212.652,140.554,212.305,140.125,212.305z M143.225,212.305c-0.428,0-0.775,0.347-0.775,0.776
	c0,0.428,0.347,0.775,0.775,0.775c0.429,0,0.776-0.347,0.776-0.775C144.001,212.652,143.654,212.305,143.225,212.305z
	 M164.4,212.305c-0.428,0-0.775,0.347-0.775,0.776c0,0.428,0.347,0.775,0.775,0.775c0.429,0,0.776-0.347,0.776-0.775
	C165.176,212.652,164.829,212.305,164.4,212.305z M167.501,212.305c-0.428,0-0.775,0.347-0.775,0.776
	c0,0.428,0.347,0.775,0.775,0.775c0.429,0,0.776-0.347,0.776-0.775C168.277,212.652,167.93,212.305,167.501,212.305z
	 M355.739,161.159h-12.146v2.536h12.146V161.159z M241.527,338.935v6.686h112.977v-6.686h0.697v80.314H240.829v-80.314H241.527z
	 M311.719,347.311l41.891,41.891v-19.86l-22.039-22.031H311.719z M285.621,347.311l67.99,67.99v-9.92l-58.061-58.07H285.621z
	 M350.066,318.762c2.534-0.388,4.605-2.46,4.993-4.993c0.623-4.066-2.829-7.518-6.896-6.895c-2.534,0.388-4.605,2.459-4.993,4.993
	C342.547,315.932,346,319.385,350.066,318.762z M314.769,306.873c-2.534,0.388-4.605,2.459-4.993,4.993
	c-0.623,4.066,2.829,7.518,6.896,6.896c2.534-0.388,4.605-2.459,4.993-4.993C322.288,309.702,318.836,306.25,314.769,306.873z
	 M283.278,318.762c2.534-0.388,4.605-2.459,4.993-4.993c0.623-4.067-2.83-7.519-6.896-6.896c-2.534,0.388-4.605,2.459-4.993,4.993
	C275.759,315.932,279.211,319.384,283.278,318.762z M249.884,318.762c2.534-0.388,4.605-2.459,4.993-4.993
	c0.623-4.066-2.829-7.518-6.896-6.896c-2.534,0.388-4.605,2.459-4.993,4.993C242.365,315.932,245.817,319.385,249.884,318.762z
	 M326.42,292.646h0.818v3.579h2.751v-3.579h6.812v3.579h2.751v-3.579h6.812v3.579h2.751v-3.579h6.812v3.579h2.751v-3.579h0.818
	c0.789,0,1.429-0.639,1.429-1.428c0-0.789-0.64-1.428-1.429-1.428H326.42c-0.789,0-1.428,0.639-1.428,1.428
	C324.992,292.007,325.631,292.646,326.42,292.646z M281.139,292.646h0.818v3.579h2.751v-3.579h6.812v3.579h2.751v-3.579h6.812v3.579
	h2.751v-3.579h6.812v3.579h2.751v-3.579h0.818c0.789,0,1.428-0.639,1.428-1.428c0-0.66-0.456-1.19-1.064-1.355
	c-0.114,0.029-0.224,0.07-0.347,0.07h-32.936c-0.154,0-0.294-0.043-0.433-0.087c-0.651,0.133-1.15,0.682-1.15,1.372
	C279.711,292.007,280.35,292.646,281.139,292.646z M235.858,292.646h0.818v3.579h2.751v-3.579h6.812v3.579h2.751v-3.579h6.811v3.579
	h2.751v-3.579h6.812v3.579h2.751v-3.579h0.818c0.789,0,1.428-0.639,1.428-1.428c0-0.789-0.64-1.428-1.428-1.428h-33.074
	c-0.789,0-1.428,0.639-1.428,1.428C234.429,292.007,235.069,292.646,235.858,292.646z M226.656,446.129v11.859h0.018h142.018h0.004
	v-11.859H226.656z"></path>
<path id="color_x5F_6_37_" fill="#C1C1C1" d="M580.14,203.725h-41.716v-4.073h40.324
	C579.219,201.005,579.687,202.361,580.14,203.725z M490.368,203.725h14.791v-4.073h-14.791c-1.124,0-2.036,0.912-2.036,2.036
	C488.332,202.813,489.245,203.725,490.368,203.725z M425.826,230.857c-3.145,0-5.686,3.468-5.686,7.734
	c0,1.467,0.296,2.839,0.822,4.009c0,0.007,0.01,0.014,0.01,0.014c1.202,1.785,2.934,2.906,4.854,2.906c1.927,0,3.65-1.115,4.86-2.9
	c0-0.006,0.006-0.013,0.006-0.02c0.528-1.17,0.826-2.542,0.826-4.009C431.519,234.325,428.969,230.857,425.826,230.857z
	 M54.556,240.163h5.46l12.986-8.721l-11.406-4.206l4.503-12.211l-26.152,17.84l-0.575,2.898l-2.847-0.564l-19.835,13.531v20.53
	l37.865-25.429V240.163z M80.862,218.351l-3.83,10.385l32.023-21.506v-21.508l-40.94,27.928L80.862,218.351z M7.951,273.491v-18.8
	l-5.366,3.661c-0.946,7.176-1.631,14.434-2.057,21.762l8.023-5.388C8.179,274.361,7.951,273.943,7.951,273.491z M55.35,216.531
	l53.705-36.066v-4.607L54.54,212.467L55.35,216.531z M52.356,218.542l-9.759,1.947l-0.713,0.479l0.407,0.081l-0.973,4.907
	L52.356,218.542z M24.658,232.845l0.071-0.357l-8.038,5.398v4.607l12.907-8.668L24.658,232.845z M7.951,243.755l-3.492,2.345
	c-0.301,1.723-0.588,3.451-0.859,5.184l4.351-2.922V243.755z M15.436,392.474l93.619-62.872v-21.508L10.301,375.46
	C11.852,381.2,13.556,386.877,15.436,392.474z M8.901,370.097l100.154-67.261v-4.607L7.935,366.139
	C8.246,367.462,8.571,368.78,8.901,370.097z M151.381,207.526v11.11c0,2.289-1.862,4.151-4.151,4.151h-11.11
	c-2.289,0-4.15-1.862-4.15-4.151v-11.11c0-2.289,1.862-4.151,4.15-4.151h11.11C149.519,203.374,151.381,205.237,151.381,207.526z
	 M149.428,207.526c0-1.214-0.984-2.198-2.198-2.198h-11.11c-1.213,0-2.197,0.984-2.197,2.198v11.11c0,1.214,0.984,2.198,2.197,2.198
	h11.11c1.214,0,2.198-0.984,2.198-2.198V207.526z M145.552,213.081c0,2.141-1.736,3.876-3.876,3.876
	c-2.142,0-3.877-1.735-3.877-3.876c0-2.141,1.735-3.877,3.877-3.877C143.816,209.204,145.552,210.939,145.552,213.081z
	 M140.9,213.081c0-0.428-0.347-0.776-0.776-0.776c-0.428,0-0.775,0.347-0.775,0.776c0,0.428,0.347,0.775,0.775,0.775
	C140.554,213.855,140.9,213.508,140.9,213.081z M144.001,213.081c0-0.428-0.347-0.776-0.776-0.776c-0.428,0-0.775,0.347-0.775,0.776
	c0,0.428,0.347,0.775,0.775,0.775C143.654,213.855,144.001,213.508,144.001,213.081z M175.656,207.526v11.11
	c0,2.289-1.862,4.151-4.151,4.151h-11.11c-2.289,0-4.15-1.862-4.15-4.151v-11.11c0-2.289,1.862-4.151,4.15-4.151h11.11
	C173.794,203.374,175.656,205.237,175.656,207.526z M173.704,207.526c0-1.214-0.984-2.198-2.198-2.198h-11.11
	c-1.213,0-2.197,0.984-2.197,2.198v11.11c0,1.214,0.984,2.198,2.197,2.198h11.11c1.214,0,2.198-0.984,2.198-2.198V207.526z
	 M169.827,213.081c0,2.141-1.736,3.876-3.876,3.876c-2.142,0-3.877-1.735-3.877-3.876c0-2.141,1.735-3.877,3.877-3.877
	C168.092,209.204,169.827,210.939,169.827,213.081z M165.176,213.081c0-0.428-0.347-0.776-0.776-0.776
	c-0.428,0-0.775,0.347-0.775,0.776c0,0.428,0.347,0.775,0.775,0.775C164.829,213.855,165.176,213.508,165.176,213.081z
	 M168.277,213.081c0-0.428-0.347-0.776-0.776-0.776c-0.428,0-0.775,0.347-0.775,0.776c0,0.428,0.347,0.775,0.775,0.775
	C167.93,213.855,168.277,213.508,168.277,213.081z M319.484,116.122h-43.616l-40.856,42.236H360.34L319.484,116.122z
	 M595.181,290.148h-50.91v-9.197c0-1.541-1.249-2.79-2.79-2.79h-0.287v-26.262c0-2.153-1.03-4.051-2.603-5.29
	c-1.15-0.906-2.582-1.469-4.156-1.469s-3.006,0.563-4.156,1.469c-1.573,1.239-2.603,3.137-2.603,5.29v3.967
	c0.024-0.003,0.044-0.014,0.069-0.014h2.419c0.024,0,0.045,0.011,0.068,0.014v-3.967c0-2.318,1.886-4.203,4.203-4.203
	c2.318,0,4.203,1.886,4.203,4.203v26.262h-0.287c-1.541,0-2.79,1.249-2.79,2.79v9.197h-57.713l1.902,6.077l1.425,4.551h0.387h0.038
	h113.635c0.011-1.047,0.04-2.089,0.04-3.139C595.276,295.134,595.242,292.637,595.181,290.148z M359.495,292.646h-0.818v3.579h6.958
	v-21.59h-45.88v9.773c0,2.262-1.834,4.097-4.096,4.097c0,0.666-0.465,1.2-1.081,1.358c0.608,0.164,1.064,0.695,1.064,1.355
	c0,0.789-0.639,1.428-1.428,1.428h-0.818v3.579h13.843v-3.579h-0.818c-0.789,0-1.428-0.639-1.428-1.428
	c0-0.789,0.639-1.428,1.428-1.428h33.074c0.789,0,1.429,0.639,1.429,1.428C360.923,292.007,360.284,292.646,359.495,292.646z
	 M248.989,292.646v3.579h6.811v-3.579H248.989z M355.926,292.646h-6.812v3.579h6.812V292.646z M246.238,292.646h-6.812v3.579h6.812
	V292.646z M236.676,292.646h-0.818c-0.789,0-1.428-0.639-1.428-1.428c0-0.789,0.639-1.428,1.428-1.428h33.074
	c0.789,0,1.428,0.639,1.428,1.428c0,0.789-0.64,1.428-1.428,1.428h-0.818v3.579h13.843v-3.579h-0.818
	c-0.789,0-1.428-0.639-1.428-1.428c0-0.69,0.499-1.239,1.15-1.372c-0.573-0.186-0.995-0.706-0.995-1.341
	c-2.263,0-4.097-1.834-4.097-4.097v-9.773h-46.052v21.59h6.958V292.646z M284.708,292.646v3.579h6.812v-3.579H284.708z
	 M294.27,292.646v3.579h6.812v-3.579H294.27z M303.833,292.646v3.579h6.812v-3.579H303.833z M258.552,292.646v3.579h6.812v-3.579
	H258.552z M329.989,292.646v3.579h6.812v-3.579H329.989z M339.552,292.646v3.579h6.812v-3.579H339.552z M226.656,446.129h142.04
	v-13.047h-142.04V446.129z M354.504,334.831H241.527v10.789h112.977V334.831z"></path>
<path id="color_x5F_5_36_" fill="#FFFFFF" d="M436.991,329.593c0,0.464-0.172,0.884-0.446,1.216
	c-0.352,0.425-0.877,0.702-1.472,0.702H415.22c-0.595,0-1.12-0.277-1.472-0.702c-0.274-0.332-0.446-0.752-0.446-1.216
	c0-1.059,0.859-1.918,1.918-1.918h19.854C436.133,327.676,436.991,328.534,436.991,329.593z M383.921,393.236
	c-0.935,0-1.692,0.758-1.692,1.692v17.518c0,0.935,0.758,1.692,1.692,1.692c0.934,0,1.692-0.757,1.692-1.692v-17.518
	C385.613,393.993,384.856,393.236,383.921,393.236z M180.146,327.676h-19.854c-1.059,0-1.918,0.859-1.918,1.918
	c0,0.401,0.124,0.773,0.335,1.081c0.345,0.505,0.925,0.837,1.583,0.837h19.854c0.658,0,1.238-0.332,1.583-0.837
	c0.21-0.308,0.334-0.68,0.334-1.081C182.064,328.534,181.206,327.676,180.146,327.676z M180.146,376.393h-19.854
	c-1.059,0-1.918,0.859-1.918,1.918c0,0.401,0.124,0.773,0.335,1.081c0.345,0.505,0.925,0.837,1.583,0.837h19.854
	c0.658,0,1.238-0.332,1.583-0.837c0.21-0.308,0.334-0.68,0.334-1.081C182.064,377.252,181.206,376.393,180.146,376.393z
	 M180.146,425.111h-19.854c-1.059,0-1.918,0.859-1.918,1.918c0,0.401,0.124,0.773,0.334,1.081c0.345,0.505,0.925,0.837,1.583,0.837
	h19.854c0.658,0,1.238-0.332,1.583-0.837c0.211-0.308,0.334-0.68,0.334-1.081C182.064,425.97,181.206,425.111,180.146,425.111z
	 M529.655,377.273c-0.935,0-1.692,0.757-1.692,1.692v2.594v14.925c0,0.935,0.758,1.692,1.692,1.692c0.935,0,1.692-0.758,1.692-1.692
	v-14.925v-2.594C531.348,378.03,530.59,377.273,529.655,377.273z M550.418,377.273c-0.935,0-1.692,0.757-1.692,1.692v2.594v14.925
	c0,0.935,0.758,1.692,1.692,1.692c0.935,0,1.692-0.758,1.692-1.692v-14.925v-2.594C552.11,378.03,551.353,377.273,550.418,377.273z
	 M389.266,259.117c0-0.757-0.613-1.37-1.37-1.37c-0.756,0-1.37,0.613-1.37,1.37v17.298c-1.647-0.005-3.8,0.17-6.145,0.847
	c-5.089,1.468-8.093-0.587-8.093-0.587v17.226c0,0.646,0.529,1.174,1.174,1.174h15.048c0.646,0,1.175-0.529,1.175-1.174v-17.226
	c0,0-0.147-0.031-0.42-0.071V259.117z M409.909,268.709c-0.756,0-1.37,0.613-1.37,1.37v22.245c0,0.757,0.613,1.37,1.37,1.37
	c0.756,0,1.37-0.613,1.37-1.37v-22.245C411.278,269.322,410.665,268.709,409.909,268.709z M505.159,227.024h33.265v-3.256h-33.265
	V227.024z M418.746,267.968v25.617c0,0.486,0.635,0.634,0.836,0.195l2.926-6.401v-13.204l-2.926-6.402
	C419.381,267.334,418.746,267.483,418.746,267.968z M426.84,293.285l2.764-6.878v-15.029l-2.928-7.288
	c-0.201-0.499-0.836-0.331-0.836,0.222v28.706C425.841,293.68,426.6,293.882,426.84,293.285z M433.772,293.715l2.928-8.016v-16.535
	l-2.928-8.018c-0.201-0.549-0.836-0.364-0.836,0.244v32.081C432.936,294.079,433.571,294.265,433.772,293.715z M440.868,293.692
	l2.926-8.554v-17.646l-2.926-8.556c-0.2-0.586-0.836-0.388-0.836,0.261v34.234C440.032,294.081,440.667,294.279,440.868,293.692z
	 M447.795,293.698l3.259-9.395v-18.939l-3.259-9.395c-0.201-0.579-0.835-0.383-0.835,0.257v37.215
	C446.959,294.081,447.594,294.277,447.795,293.698z M454.875,293.677l3.289-10.038v-20.19l-3.289-10.039
	c-0.2-0.612-0.836-0.406-0.836,0.272v39.722C454.04,294.082,454.675,294.289,454.875,293.677z M461.871,293.677l3.491-10.653
	v-21.178l-3.491-10.65c-0.201-0.612-0.836-0.405-0.836,0.272v41.936C461.035,294.082,461.671,294.289,461.871,293.677z
	 M468.966,293.644l3.49-11.582v-23.027l-3.49-11.578c-0.201-0.666-0.836-0.441-0.836,0.296v45.596
	C468.13,294.085,468.766,294.31,468.966,293.644z M221.462,284.168c0-0.757-0.613-1.37-1.37-1.37c-0.756,0-1.37,0.613-1.37,1.37
	v2.321c-0.88-0.011-1.888,0.083-2.933,0.42v8.548c0,0.215,0.176,0.391,0.392,0.391h4.959c0.215,0,0.392-0.176,0.392-0.391v-8.548
	c0,0-0.043-0.014-0.07-0.022V284.168z M209.402,282.797c-0.756,0-1.37,0.613-1.37,1.37v9.717c0,0.757,0.613,1.37,1.37,1.37
	c0.342,0,0.644-0.137,0.884-0.344c0.291-0.251,0.485-0.611,0.485-1.026v-9.717C210.771,283.411,210.158,282.797,209.402,282.797z
	 M319.484,0.801C312.269,0.278,304.986,0,297.638,0c-7.322,0-14.58,0.276-21.77,0.796v115.326h43.616V0.801z M530.761,260.783
	v-4.332c0-0.306-0.233-0.549-0.53-0.585c-0.023-0.003-0.044-0.014-0.068-0.014h-2.419c-0.024,0-0.045,0.011-0.069,0.014
	c-0.296,0.036-0.529,0.279-0.529,0.585v4.332c0,0.331,0.268,0.598,0.598,0.598h2.419
	C530.493,261.381,530.761,261.113,530.761,260.783z M563.681,279.177c-3.722,0-6.739,1.674-6.739,3.738
	c0,1.297,1.193,2.438,3.001,3.109c1.07,0.397,2.355,0.63,3.739,0.63c1.383,0,2.668-0.233,3.738-0.63c1.808-0.671,3-1.812,3-3.109
	C570.42,280.851,567.403,279.177,563.681,279.177z M516.151,279.177c-3.722,0-6.739,1.674-6.739,3.738
	c0,1.297,1.193,2.438,3.001,3.109c1.07,0.397,2.355,0.63,3.738,0.63c1.383,0,2.668-0.233,3.738-0.63c1.808-0.671,3-1.812,3-3.109
	C522.89,280.851,519.873,279.177,516.151,279.177z M304.751,284.408c0,2.262-1.834,4.097-4.096,4.097h9.407
	c2.262,0,4.096-1.834,4.096-4.097v-29.671h-9.407V284.408z M500.13,273.524c0,6.309,0,15.7,0,15.7s-0.204,0.528-0.577,0.924h-14.69
	c-0.373-0.396-0.577-0.924-0.577-0.924s0-9.391,0-15.7c0-4.771,3.118-7.468,4.643-8.504h6.557
	C497.012,266.056,500.13,268.753,500.13,273.524z M498.747,274.819h-13.078v10.629h13.078V274.819z M490.671,259.503
	c0.648,0.4,0.763,0.736,0.785,1.342h1.511c0.021-0.607,0.134-0.942,0.784-1.342c0.775-0.455-0.697-1.271-1.55-1.271
	C491.366,258.232,489.892,259.048,490.671,259.503z M390.884,252.567h-8.318c0.212-0.299,0.363-0.644,0.363-1.039
	c0-1.012-0.82-1.832-1.832-1.832c-1.012,0-1.832,0.82-1.832,1.832c0,0.394,0.151,0.74,0.363,1.039h-8.318
	c-0.646,0-1.174,0.528-1.174,1.174v0.675c0,0.646,0.528,1.174,1.174,1.174h0.731h18.112h0.731c0.646,0,1.174-0.528,1.174-1.174
	v-0.675C392.059,253.095,391.53,252.567,390.884,252.567z M414.071,265.378v-0.675c0-0.646-0.529-1.174-1.174-1.174h-8.318
	c0.212-0.299,0.363-0.644,0.363-1.039c0-1.012-0.82-1.832-1.832-1.832c-1.012,0-1.832,0.82-1.832,1.832
	c0,0.394,0.151,0.74,0.363,1.039h-8.318c-0.646,0-1.174,0.529-1.174,1.174v0.675c0,0.646,0.529,1.174,1.174,1.174h19.574
	C413.542,266.552,414.071,266.024,414.071,265.378z M27.575,218.13l-2.917,14.715l14.715,2.918l2.918-14.715L27.575,218.13z
	 M66.787,213.16l-5.191,14.075l14.075,5.191l5.191-14.075L66.787,213.16z M185.246,268.702c-1.305,0-2.367,1.061-2.367,2.367
	c0,1.305,1.062,2.367,2.367,2.367c1.305,0,2.367-1.061,2.367-2.367C187.613,269.763,186.551,268.702,185.246,268.702z
	 M119.654,249.571h74.856v46.654h-74.856V249.571z M189.84,284.51c0-2.534-2.06-4.594-4.594-4.594s-4.594,2.06-4.594,4.594
	s2.06,4.594,4.594,4.594S189.84,287.044,189.84,284.51z M189.84,271.068c0-2.534-2.06-4.594-4.594-4.594s-4.594,2.06-4.594,4.594
	c0,2.534,2.06,4.594,4.594,4.594S189.84,273.602,189.84,271.068z M175.982,262.355h17.171v-6.06h-17.171V262.355z M125.257,292.826
	h49.531v-37.581h-49.531V292.826z M185.246,282.143c-1.305,0-2.367,1.061-2.367,2.367c0,1.305,1.062,2.367,2.367,2.367
	c1.305,0,2.367-1.062,2.367-2.367C187.613,283.205,186.551,282.143,185.246,282.143z M133.922,218.635v-11.11
	c0-1.214,0.984-2.198,2.197-2.198h11.11c1.214,0,2.198,0.984,2.198,2.198v11.11c0,1.214-0.984,2.198-2.198,2.198h-11.11
	C134.906,220.833,133.922,219.849,133.922,218.635z M137.799,213.081c0,2.141,1.735,3.876,3.877,3.876
	c2.141,0,3.876-1.735,3.876-3.876c0-2.141-1.736-3.877-3.876-3.877C139.534,209.204,137.799,210.939,137.799,213.081z
	 M160.395,205.327h11.11c1.214,0,2.198,0.984,2.198,2.198v11.11c0,1.214-0.984,2.198-2.198,2.198h-11.11
	c-1.213,0-2.197-0.984-2.197-2.198v-11.11C158.198,206.311,159.182,205.327,160.395,205.327z M162.074,213.081
	c0,2.141,1.735,3.876,3.877,3.876c2.141,0,3.876-1.735,3.876-3.876c0-2.141-1.736-3.877-3.876-3.877
	C163.809,209.204,162.074,210.939,162.074,213.081z M222.274,278.199h-7.229c-0.617,0-1.123,0.505-1.123,1.123v0.778
	c0,0.617,0.505,1.123,1.123,1.123h0.462h6.305h0.462c0.618,0,1.123-0.505,1.123-1.123v-0.778
	C223.397,278.704,222.892,278.199,222.274,278.199z M176.094,117.135c0.907,0,1.642-0.735,1.642-1.642V98.49
	c0-0.907-0.735-1.642-1.642-1.642c-0.907,0-1.642,0.735-1.642,1.642v17.003C174.452,116.399,175.187,117.135,176.094,117.135z
	 M159.298,117.135c0.907,0,1.642-0.735,1.642-1.642V98.49c0-0.907-0.735-1.642-1.642-1.642c-0.907,0-1.642,0.735-1.642,1.642v17.003
	C157.656,116.399,158.391,117.135,159.298,117.135z M64.665,117.135c0.907,0,1.642-0.735,1.642-1.642v-5.121
	c-1.104,1.362-2.205,2.726-3.285,4.107v1.014C63.023,116.399,63.759,117.135,64.665,117.135z M530.803,117.135
	c0.907,0,1.642-0.735,1.642-1.642v-0.762c-1.081-1.385-2.18-2.754-3.285-4.119v4.882
	C529.161,116.399,529.896,117.135,530.803,117.135z M436.17,117.135c0.907,0,1.642-0.735,1.642-1.642V98.49
	c0-0.907-0.735-1.642-1.642-1.642c-0.907,0-1.642,0.735-1.642,1.642v17.003C434.528,116.399,435.263,117.135,436.17,117.135z
	 M419.375,117.135c0.907,0,1.642-0.735,1.642-1.642V98.49c0-0.907-0.735-1.642-1.642-1.642c-0.907,0-1.642,0.735-1.642,1.642v17.003
	C417.733,116.399,418.468,117.135,419.375,117.135z M313.497,186.069c4.292,0,8.585,0,12.877,0c9.094,0,9.109-13.668,0-13.668
	c-12.144,0-24.288,0-36.432,0c-9.094,0-9.109,13.668,0,13.668c3.141,0,1.57,0,4.711,0c4.868,0,4.868,8.201,0,8.201
	c-13.191,0-21.671,0-34.861,0c-9.094,0-9.109,13.668,0,13.668c4.292,0,4.344,0,8.637,0c4.554,0,7.852,0.759,7.852,5.315
	c0,4.86-3.612,5.316-7.852,5.316c-9.094,0-8.638,13.668,0.471,13.668c10.364,0,20.728,0,31.093,0c9.094,0,9.109-13.668,0-13.668
	c-4.397,0-2.042,0-6.439,0c-7.538,0-8.48-10.631,0-10.631c9.893,0,13.034,0,22.927,0c9.094,0,9.109-13.668,0-13.668
	c-0.995,0-1.989,0-2.984,0C307.372,194.27,307.058,186.069,313.497,186.069z M268.585,186.069c9.094,0,9.109-13.668,0-13.668
	C259.491,172.401,259.477,186.069,268.585,186.069z M336.424,194.27c-9.094,0-9.109,13.668,0,13.668
	C345.517,207.939,345.533,194.27,336.424,194.27z M304.875,246.609c2.15-4.048,0.165-10.271-5.983-10.271
	c-6.138,0-8.133,6.223-5.986,10.271c1.034,1.95,3.025,3.398,5.986,3.398C301.849,250.007,303.839,248.559,304.875,246.609z
	 M473.674,265.206c-0.408,0-0.736,0.336-0.736,0.754v29.142h-5.626V265.96c0-0.419-0.325-0.754-0.733-0.754
	c-0.407,0-0.735,0.336-0.735,0.754v29.142h-5.626V265.96c0-0.419-0.328-0.754-0.736-0.754c-0.405,0-0.734,0.336-0.734,0.754v29.142
	h-5.623V265.96c0-0.419-0.331-0.754-0.735-0.754c-0.407,0-0.736,0.336-0.736,0.754v29.142h-5.626V265.96
	c0-0.419-0.328-0.754-0.733-0.754c-0.408,0-0.737,0.336-0.737,0.754v29.142h-5.625V265.96c0-0.419-0.326-0.754-0.734-0.754
	c-0.405,0-0.735,0.336-0.735,0.754v29.142h-5.625V265.96c0-0.419-0.329-0.754-0.736-0.754c-0.407,0-0.734,0.336-0.734,0.754v29.142
	h-5.626V265.96c0-0.419-0.328-0.754-0.734-0.754c-0.405,0-0.735,0.336-0.735,0.754v29.142h-5.548V265.96
	c0-0.419-0.331-0.754-0.734-0.754c-0.405,0-0.736,0.336-0.736,0.754v30.265h58.155V265.96
	C474.41,265.541,474.08,265.206,473.674,265.206z"></path>
<path id="color_x5F_4_33_" fill="#626267" d="M479.751,296.225H111.867v4.551h114.79v24.324h142.04v-24.324h112.48L479.751,296.225z
	 M254.876,313.768c-0.388,2.534-2.459,4.605-4.993,4.993c-4.067,0.623-7.519-2.829-6.896-6.896c0.388-2.534,2.459-4.605,4.993-4.993
	C252.047,306.25,255.499,309.702,254.876,313.768z M288.271,313.769c-0.388,2.534-2.459,4.605-4.993,4.993
	c-4.066,0.623-7.518-2.829-6.896-6.896c0.388-2.534,2.459-4.605,4.993-4.993C285.441,306.25,288.893,309.702,288.271,313.769z
	 M321.665,313.769c-0.388,2.534-2.459,4.605-4.993,4.993c-4.066,0.623-7.519-2.829-6.896-6.896c0.388-2.534,2.459-4.605,4.993-4.993
	C318.836,306.25,322.288,309.702,321.665,313.769z M355.059,313.768c-0.388,2.534-2.459,4.605-4.993,4.993
	c-4.066,0.623-7.519-2.829-6.896-6.896c0.388-2.534,2.459-4.605,4.993-4.993C352.23,306.25,355.682,309.702,355.059,313.768z
	 M440.193,227.616c-2.563,0.062-4.618,2.144-4.618,4.722v9.254c0,2.617,2.116,4.732,4.733,4.732h4.056
	c2.617,0,4.732-2.115,4.732-4.732v-9.254c0-2.579-2.056-4.661-4.619-4.722v-18.32h-4.283V227.616z M438.921,242.363
	c0,0.534-0.434,0.96-0.96,0.96c-0.526,0-0.958-0.426-0.958-0.96v-6.815c0-0.527,0.432-0.96,0.958-0.96c0.526,0,0.96,0.433,0.96,0.96
	V242.363z M445.749,235.548c0-0.527,0.432-0.96,0.96-0.96c0.528,0,0.954,0.433,0.954,0.96v6.815c0,0.534-0.426,0.96-0.954,0.96
	c-0.528,0-0.96-0.426-0.96-0.96V235.548z M442.836,235.548c0-0.527,0.425-0.96,0.959-0.96c0.528,0,0.954,0.433,0.954,0.96v6.815
	c0,0.534-0.427,0.96-0.954,0.96c-0.534,0-0.959-0.426-0.959-0.96V235.548z M440.874,234.589c0.534,0,0.961,0.433,0.961,0.96v6.815
	c0,0.534-0.427,0.96-0.961,0.96c-0.528,0-0.954-0.426-0.954-0.96v-6.815C439.92,235.022,440.347,234.589,440.874,234.589z
	 M430.693,242.6c0.528-1.17,0.826-2.542,0.826-4.009c0-4.266-2.55-7.734-5.693-7.734c-3.145,0-5.686,3.468-5.686,7.734
	c0,1.467,0.296,2.839,0.822,4.009c-1.079-1.596-1.729-3.711-1.729-6.037c0-3.93,1.866-7.259,4.455-8.467v-18.8h4.282v18.802
	c2.588,1.209,4.447,4.537,4.447,8.465C432.417,238.889,431.768,241.004,430.693,242.6z M415.12,239.693v-3.834
	c0-0.48-0.385-0.872-0.871-0.872c-0.481,0-0.872,0.392-0.872,0.872v7.897c0,0.324-0.265,0.587-0.588,0.587
	c-0.333,0-0.596-0.263-0.596-0.587v-7.897c0-0.48-0.391-0.872-0.871-0.872c-0.481,0-0.872,0.392-0.872,0.872v9.073
	c0,0.325-0.271,0.588-0.595,0.588c-0.326,0-0.59-0.263-0.59-0.588v-9.073c0-0.48-0.391-0.872-0.871-0.872
	c-0.488,0-0.88,0.392-0.88,0.872v5.733c0-0.027-0.019-0.047-0.027-0.067c0.016,0.04,0.022,0.08,0.022,0.128v2.103
	c0,0.047-0.006,0.087-0.022,0.128c-0.006,0.027-0.012,0.054-0.019,0.08c-0.006,0.014-0.006,0.021-0.014,0.034
	c-0.006,0.013-0.013,0.027-0.02,0.041c-0.019,0.034-0.041,0.06-0.06,0.088c-0.007,0.007-0.007,0.007-0.014,0.013
	c-0.021,0.021-0.041,0.04-0.061,0.054c-0.008,0.021-0.021,0.028-0.034,0.035c-0.014,0.013-0.026,0.019-0.041,0.027
	c-0.02,0.02-0.047,0.034-0.074,0.039c-0.066,0.034-0.141,0.048-0.216,0.048c-0.075,0-0.142-0.013-0.203-0.033
	c-0.197-0.074-0.339-0.236-0.378-0.432c-0.007-0.042-0.015-0.082-0.015-0.122v-7.897c0-0.48-0.391-0.872-0.876-0.872
	c-0.482,0-0.875,0.392-0.875,0.872v3.759c-0.086,0.21-0.296,0.358-0.54,0.358c-0.115,0-0.216-0.027-0.304-0.088
	c-0.121-0.392-0.224-0.798-0.29-1.21c-0.123-0.677-0.191-1.387-0.191-2.116c0-3.928,1.865-7.256,4.452-8.465v-18.801h4.28
	c0.001,0,0.002-0.001,0.003-0.001v18.802c2.588,1.209,4.449,4.537,4.449,8.466c0,0.804-0.082,1.588-0.23,2.332
	c-0.06,0.331-0.135,0.649-0.236,0.96c-0.103,0.074-0.224,0.121-0.359,0.121C415.404,239.977,415.221,239.862,415.12,239.693z
	 M400.532,190.73v-1.548c0-1.315,1.066-2.381,2.381-2.381h45.833c1.315,0,2.38,1.066,2.38,2.381v1.548
	c0,1.315-1.066,2.381-2.38,2.381h-3.591v-4.665c0-0.371-0.304-0.675-0.676-0.675h-4.286c-0.372,0-0.677,0.304-0.677,0.675v4.665
	h-10.87v-4.665c0-0.371-0.306-0.675-0.676-0.675h-4.282c-0.372,0-0.674,0.304-0.674,0.675v4.665H412.67v-4.665
	c0-0.371-0.305-0.675-0.677-0.675h-4.28c-0.372,0-0.674,0.304-0.674,0.675v4.665h-4.125
	C401.598,193.111,400.532,192.045,400.532,190.73z M442.334,191.882c-0.655,0-1.183-0.528-1.183-1.184
	c0-0.656,0.528-1.183,1.183-1.183c0.656,0,1.184,0.527,1.184,1.183C443.518,191.354,442.99,191.882,442.334,191.882z
	 M425.826,191.882c-0.651,0-1.184-0.528-1.184-1.184c0-0.656,0.534-1.183,1.184-1.183c0.655,0,1.182,0.527,1.182,1.183
	C427.009,191.354,426.481,191.882,425.826,191.882z M409.857,191.882c-0.656,0-1.183-0.528-1.183-1.184
	c0-0.656,0.527-1.183,1.183-1.183c0.648,0,1.183,0.527,1.183,1.183C411.04,191.354,410.506,191.882,409.857,191.882z
	 M394.41,293.901v-22.707c0,0,3.004,2.056,8.093,0.587c2.293-0.661,4.403-0.844,6.036-0.848v21.39c0,0.757,0.613,1.37,1.37,1.37
	c0.756,0,1.37-0.613,1.37-1.37v-21.215c0.336,0.047,0.529,0.086,0.529,0.086v22.707c0,0.646-0.529,1.174-1.175,1.174h-15.048
	C394.939,295.076,394.41,294.547,394.41,293.901z M0,297.638c0,23.576,2.754,46.507,7.935,68.501l101.12-67.909v4.607L8.901,370.097
	c0.449,1.795,0.919,3.581,1.4,5.363l98.754-67.366v21.508l-93.619,62.872c6.617,19.697,15.249,38.465,25.632,56.078h69.538V289.417
	H0.118C0.044,292.149,0,294.888,0,297.638z M7.951,300.059c0-1.371,1.957-2.483,4.37-2.483c2.414,0,4.37,1.112,4.37,2.483v40.23
	c0,1.371-1.957,2.483-4.37,2.483c-2.414,0-4.37-1.111-4.37-2.483V300.059z M27.175,173.259h83.43v111.527H0.294
	c0.066-1.561,0.143-3.118,0.234-4.672l8.023-5.388c0.755,0.743,2.152,1.248,3.77,1.248c2.414,0,4.37-1.112,4.37-2.483v-4.232
	l37.865-25.429v5.972l-11.617,2.966l3.711,14.535l14.535-3.711l-2.152-8.427h10.524v-15.002h-9.542l12.986-8.721l2.669,0.984
	l1.361-3.69l32.023-21.506v-21.508l-40.94,27.928l-1.327-0.49l-0.688,1.864l-26.152,17.84l1.37-6.91l11.038-7.413l3.266-0.651
	l-0.271-1.36l53.705-36.066v-4.607L54.54,212.467l-1.853-9.289l-14.712,2.935l2.924,14.659l-13.324-2.642l-2.847,14.358
	l-8.038,5.398v-4.621c0-1.371-1.957-2.483-4.37-2.483c-2.414,0-4.37,1.112-4.37,2.483v10.491l-3.492,2.345
	C8.919,220.551,16.642,196.125,27.175,173.259z M29.599,233.825l6.928,1.374l-19.835,13.531v-6.236L29.599,233.825z M41.884,220.967
	l-0.846-0.168l1.559-0.311L41.884,220.967z M7.951,254.691l-5.366,3.661c0.312-2.364,0.648-4.721,1.015-7.067l4.351-2.922V254.691z
	 M174.787,278.698l-14.129,14.129h-5.209l19.337-19.337V278.698z M133.486,255.246l-8.23,8.23v-8.23H133.486z M143.921,292.826
	h-18.665v-4.061l33.528-33.52h16.002v6.715L143.921,292.826z M174.787,292.826h-7.674l7.674-7.674V292.826z M202.678,280.1v-0.778
	c0-0.617,0.505-1.123,1.123-1.123h7.229c0.618,0,1.123,0.505,1.123,1.123v0.778c0,0.618-0.505,1.123-1.123,1.123h-0.462h-6.304
	h-0.462C203.183,281.223,202.678,280.717,202.678,280.1z M208.032,286.511v7.374c0,0.757,0.613,1.37,1.37,1.37
	c0.342,0,0.644-0.137,0.884-0.344v0.546c0,0.215-0.176,0.391-0.391,0.391h-4.959c-0.215,0-0.392-0.176-0.392-0.391v-8.548
	C205.82,286.497,207.038,286.445,208.032,286.511z M365.701,158.358H229.652v8.138h136.049V158.358z M340.931,162.772
	c-0.11,0.419-0.459,0.768-0.878,0.878c-0.965,0.254-1.822-0.601-1.567-1.567c0.11-0.419,0.459-0.768,0.878-0.878
	C340.329,160.95,341.185,161.806,340.931,162.772z M355.739,163.695h-12.146v-2.536h12.146V163.695z M567.419,290.148h-7.477v-4.124
	c1.07,0.397,2.355,0.63,3.739,0.63c1.383,0,2.668-0.233,3.738-0.63V290.148z M519.889,290.148h-7.477v-4.124
	c1.07,0.397,2.355,0.63,3.738,0.63c1.383,0,2.668-0.233,3.738-0.63V290.148z M595.236,300.776c-0.058,5.6-0.27,11.163-0.633,16.684
	H481.601h-0.038v-13.765v-2.92h0.038h1.898H595.236z M319.755,270.036h46.179c0.389,0,0.705,0.315,0.705,0.705v3.19
	c0,0.389-0.315,0.705-0.705,0.705h-0.299h-45.88V270.036z M228.713,273.931v-3.19c0-0.389,0.316-0.705,0.705-0.705h46.351v4.599
	h-46.052h-0.3C229.029,274.635,228.713,274.32,228.713,273.931z M271.193,259.181h4.577v3.289h-4.577
	c-0.908,0-1.645-0.736-1.645-1.645C269.548,259.918,270.284,259.181,271.193,259.181z M324.332,262.471h-4.577v-3.289h4.577
	c0.908,0,1.645,0.736,1.645,1.645C325.977,261.734,325.24,262.471,324.332,262.471z"></path>
<path id="color_x5F_3_37_" fill="#D67853" d="M538.591,246.609h52.311c2.453,14.196,3.914,28.731,4.279,43.539h-27.762v-4.124
	c1.808-0.671,3-1.812,3-3.109c0-2.065-3.017-3.738-6.739-3.738c-3.722,0-6.739,1.674-6.739,3.738c0,1.297,1.193,2.438,3.001,3.109
	v4.124h-15.672v-9.197c0-1.541-1.249-2.79-2.79-2.79h-0.287v-26.262C541.194,249.746,540.164,247.848,538.591,246.609z
	 M444.478,187.771c0.372,0,0.676,0.304,0.676,0.675v20.175c0,0.371-0.304,0.675-0.676,0.675h-0.003h-4.283
	c-0.372,0-0.677-0.304-0.677-0.675v-20.175c0-0.371,0.305-0.675,0.677-0.675H444.478z M443.518,190.698
	c0-0.656-0.528-1.183-1.184-1.183c-0.655,0-1.183,0.527-1.183,1.183c0,0.656,0.528,1.184,1.183,1.184
	C442.99,191.882,443.518,191.354,443.518,190.698z M427.97,187.771c0.37,0,0.676,0.304,0.676,0.675v20.175
	c0,0.371-0.306,0.675-0.676,0.675h-4.282c-0.372,0-0.674-0.304-0.674-0.675v-20.175c0-0.371,0.302-0.675,0.674-0.675H427.97z
	 M427.009,190.698c0-0.656-0.528-1.183-1.182-1.183c-0.651,0-1.184,0.527-1.184,1.183c0,0.656,0.534,1.184,1.184,1.184
	C426.481,191.882,427.009,191.354,427.009,190.698z M411.993,187.771c0.372,0,0.677,0.304,0.677,0.675v20.175
	c0,0.37-0.304,0.673-0.674,0.674c-0.001,0-0.002,0.001-0.003,0.001h-4.28c-0.372,0-0.674-0.304-0.674-0.675v-20.175
	c0-0.371,0.302-0.675,0.674-0.675H411.993z M411.04,190.698c0-0.656-0.534-1.183-1.183-1.183c-0.656,0-1.183,0.527-1.183,1.183
	c0,0.656,0.527,1.184,1.183,1.184C410.506,191.882,411.04,191.354,411.04,190.698z M55.622,217.89l-2.935-14.712l-14.712,2.935
	l2.924,14.659l0.011,0.053l0.128-0.026L55.622,217.89z M59.034,255.165h-4.478v-5.363l-11.617,2.966l3.711,14.535l14.535-3.711
	L59.034,255.165z M340.052,163.65c0.419-0.11,0.768-0.46,0.878-0.878c0.255-0.966-0.602-1.822-1.568-1.567
	c-0.419,0.11-0.768,0.46-0.878,0.878C338.231,163.049,339.087,163.904,340.052,163.65z M538.424,206.318h41.858
	c0.231,0,0.45-0.053,0.653-0.141c-0.264-0.818-0.525-1.637-0.796-2.452h-41.716V206.318z M495.499,206.318h9.661v-2.593h-11.4
	c-0.046,0.178-0.078,0.362-0.078,0.557C493.682,205.406,494.496,206.318,495.499,206.318z M481.563,300.776h-0.387h-112.48v2.92
	h112.867V300.776z M415.22,333.942h19.854c1.059,0,1.918-0.859,1.918-1.918c0-0.464-0.172-0.884-0.446-1.216
	c-0.352,0.425-0.877,0.702-1.472,0.702H415.22c-0.595,0-1.12-0.277-1.472-0.702c-0.274,0.332-0.446,0.752-0.446,1.216
	C413.302,333.084,414.161,333.942,415.22,333.942z M383.921,414.138c-0.935,0-1.692-0.757-1.692-1.692v2.431
	c0,0.935,0.758,1.692,1.692,1.692c0.934,0,1.692-0.758,1.692-1.692v-2.431C385.613,413.38,384.856,414.138,383.921,414.138z
	 M475.398,352.207H374.895v-45.227h100.503V352.207z M473.037,309.341h-95.781v40.505h95.781V309.341z M374.895,355.589h100.503
	v96.196H374.895V355.589z M377.256,449.423h95.781v-91.474h-95.781V449.423z M160.292,333.672h19.854
	c1.059,0,1.918-0.859,1.918-1.918c0-0.401-0.124-0.773-0.334-1.081c-0.345,0.505-0.925,0.837-1.583,0.837h-19.854
	c-0.658,0-1.238-0.332-1.583-0.837c-0.211,0.308-0.335,0.68-0.335,1.081C158.375,332.814,159.233,333.672,160.292,333.672z
	 M160.292,382.39h19.854c1.059,0,1.918-0.859,1.918-1.918c0-0.401-0.124-0.773-0.334-1.081c-0.345,0.505-0.925,0.837-1.583,0.837
	h-19.854c-0.658,0-1.238-0.332-1.583-0.837c-0.211,0.308-0.335,0.679-0.335,1.081C158.375,381.531,159.233,382.39,160.292,382.39z
	 M180.146,428.946h-19.854c-0.658,0-1.238-0.332-1.583-0.837c-0.211,0.308-0.334,0.68-0.334,1.081c0,1.059,0.859,1.918,1.918,1.918
	h19.854c1.059,0,1.918-0.859,1.918-1.918c0-0.401-0.124-0.773-0.334-1.081C181.384,428.614,180.804,428.946,180.146,428.946z
	 M220.471,352.207H119.968v-45.227h100.503V352.207z M218.11,309.341h-95.781v40.505h95.781V309.341z M220.471,400.924H119.968
	v-45.227h100.503V400.924z M218.11,358.058h-95.781v40.505h95.781V358.058z M119.968,404.415h100.503v45.227H119.968V404.415z
	 M122.329,447.281h95.781v-40.505h-95.781V447.281z M594.603,317.461c-0.075,1.138-0.137,2.278-0.225,3.412H483.461v137.115h0.038
	h64.932c-1.408,2.197-2.848,4.372-4.312,6.529h-21.24l12.284,12.482c-0.625,0.827-1.258,1.647-1.892,2.467h-54.656l11.822,16.053
	h29.507c-0.309,0.347-0.615,0.698-0.926,1.044h-27.813l12.009,16.306c-0.757,0.724-1.53,1.431-2.295,2.147l-13.328-18.453h-59.597
	l9.057,18.531h63.784c-0.433,0.404-0.865,0.809-1.301,1.211h-61.892l10.571,21.63h25.051c-0.649,0.475-1.296,0.952-1.949,1.422
	h-22.407l5.52,11.295c-1.127,0.7-2.254,1.4-3.391,2.086l-6.35-13.381h-69.592l6.165,25.579h47.405
	c-1.163,0.571-2.328,1.137-3.499,1.693H381.67l3.732,15.487c-1.501,0.462-3.01,0.906-4.521,1.345l-3.818-16.831h-75.961
	l-0.192,28.605c-1.091,0.012-2.178,0.041-3.273,0.041c-0.582,0-1.159-0.019-1.74-0.022l0.597-28.625h-75.961l-4.413,17.345
	c-1.505-0.428-2.998-0.886-4.494-1.337l4.3-16.008h-45.82c-1.171-0.556-2.336-1.122-3.499-1.693h49.774l6.87-25.579H153.66
	l-7.338,14.614c-1.131-0.669-2.266-1.331-3.387-2.015l6.505-12.599h-25.48c-0.653-0.47-1.301-0.947-1.949-1.422h28.164l11.168-21.63
	H97.134l-0.573,0.764c-0.766-0.702-1.523-1.414-2.282-2.124l14.044-18.381H76.256c-0.311-0.346-0.617-0.696-0.926-1.044h33.79
	l12.265-16.053H65.78l-2.131,2.136c-0.497-0.631-0.979-1.273-1.471-1.909l0.23-0.228h-0.405c-0.233-0.302-0.464-0.606-0.697-0.909
	h2.021l14.205-14.041H51.156c-1.464-2.158-2.904-4.332-4.312-6.529h63.761V246.609h182.302c1.034,1.95,3.025,3.398,5.986,3.398
	c2.956,0,4.947-1.448,5.983-3.398h225.403c-1.573,1.239-2.603,3.137-2.603,5.29v3.967c-0.296,0.036-0.529,0.279-0.529,0.585v4.332
	c0,0.331,0.268,0.598,0.598,0.598h2.419c0.331,0,0.599-0.268,0.599-0.598v-4.332c0-0.306-0.233-0.549-0.53-0.585v-3.967
	c0-2.318,1.886-4.203,4.203-4.203c2.318,0,4.203,1.886,4.203,4.203v26.262h-0.287c-1.541,0-2.79,1.249-2.79,2.79v9.197h-15.672
	v-4.124c1.808-0.671,3-1.812,3-3.109c0-2.065-3.017-3.738-6.739-3.738c-3.722,0-6.739,1.674-6.739,3.738
	c0,1.297,1.193,2.438,3.001,3.109v4.124h-12.859c0.373-0.396,0.577-0.924,0.577-0.924s0-9.391,0-15.7
	c0-4.771-3.119-7.468-4.643-8.504h0v-4.176h-2.521c0.021-0.607,0.134-0.942,0.784-1.342c0.775-0.455-0.697-1.271-1.55-1.271
	c-0.834,0-2.308,0.816-1.53,1.271c0.648,0.4,0.763,0.736,0.785,1.342h-2.763v4.176h0.238c-1.525,1.036-4.643,3.732-4.643,8.504
	c0,6.309,0,15.7,0,15.7s0.204,0.528,0.577,0.924h-7.015l1.902,6.077h-5.341V265.96c0-0.419-0.331-0.754-0.736-0.754
	c-0.408,0-0.736,0.336-0.736,0.754v29.142h-5.626V265.96c0-0.419-0.325-0.754-0.733-0.754c-0.407,0-0.735,0.336-0.735,0.754v29.142
	h-5.626V265.96c0-0.419-0.328-0.754-0.736-0.754c-0.405,0-0.734,0.336-0.734,0.754v29.142h-5.623V265.96
	c0-0.419-0.331-0.754-0.735-0.754c-0.407,0-0.736,0.336-0.736,0.754v29.142h-5.626V265.96c0-0.419-0.328-0.754-0.733-0.754
	c-0.408,0-0.737,0.336-0.737,0.754v29.142h-5.625V265.96c0-0.419-0.326-0.754-0.734-0.754c-0.405,0-0.735,0.336-0.735,0.754v29.142
	h-5.625V265.96c0-0.419-0.329-0.754-0.736-0.754c-0.407,0-0.734,0.336-0.734,0.754v29.142h-5.626V265.96
	c0-0.419-0.328-0.754-0.734-0.754c-0.405,0-0.735,0.336-0.735,0.754v29.142h-5.548V265.96c0-0.419-0.331-0.754-0.734-0.754
	c-0.405,0-0.736,0.336-0.736,0.754v30.265h-4.004c0.575-0.047,1.036-0.518,1.036-1.105v-27.445c0-0.617-0.505-1.123-1.123-1.123
	h-18.112c-0.618,0-1.123,0.505-1.123,1.123v27.445c0,0.587,0.461,1.058,1.036,1.105h-3.726c0.575-0.047,1.036-0.518,1.036-1.105
	v-38.407c0-0.617-0.505-1.123-1.123-1.123h0.731c0.646,0,1.174-0.528,1.174-1.174v-0.675c0-0.646-0.529-1.174-1.174-1.174h-8.318
	c0.212-0.299,0.363-0.644,0.363-1.039c0-1.012-0.82-1.832-1.832-1.832c-1.012,0-1.832,0.82-1.832,1.832
	c0,0.394,0.151,0.74,0.363,1.039h-8.318c-0.646,0-1.174,0.528-1.174,1.174v0.675c0,0.646,0.528,1.174,1.174,1.174h0.731
	c-0.618,0-1.123,0.505-1.123,1.123v38.407c0,0.587,0.461,1.058,1.036,1.105h-6.32v-21.59h0.299c0.389,0,0.705-0.316,0.705-0.705
	v-3.19c0-0.389-0.315-0.705-0.705-0.705h-46.179v-7.565h4.577c0.908,0,1.645-0.736,1.645-1.645c0-0.908-0.736-1.645-1.645-1.645
	h-4.577v-4.444h-43.986v4.444h-4.577c-0.908,0-1.645,0.736-1.645,1.645c0,0.908,0.736,1.645,1.645,1.645h4.577v7.565h-46.351
	c-0.389,0-0.705,0.315-0.705,0.705v3.19c0,0.389,0.316,0.705,0.705,0.705h0.3v21.59h-3.044h-0.018h-3.789
	c0.034-0.107,0.068-0.215,0.068-0.333v-13.546c0-0.618-0.505-1.123-1.123-1.123h0.462c0.618,0,1.123-0.505,1.123-1.123v-0.778
	c0-0.618-0.505-1.123-1.123-1.123h-7.229c-0.617,0-1.123,0.505-1.123,1.123v0.778c0,0.617,0.505,1.123,1.123,1.123h0.462
	c-0.618,0-1.123,0.505-1.123,1.123v13.546c0,0.118,0.034,0.226,0.068,0.333h-2.83c0.034-0.107,0.068-0.215,0.068-0.333v-13.546
	c0-0.618-0.505-1.123-1.123-1.123h0.462c0.618,0,1.123-0.505,1.123-1.123v-0.778c0-0.617-0.505-1.123-1.123-1.123h-7.229
	c-0.618,0-1.123,0.505-1.123,1.123v0.778c0,0.617,0.505,1.123,1.123,1.123h0.462c-0.618,0-1.123,0.505-1.123,1.123v13.546
	c0,0.118,0.034,0.226,0.068,0.333h-8.698v-46.654h-74.856v46.654h-7.787v4.551h114.79v2.92H113.765v154.292h367.836V317.461H594.603
	z M468.13,293.348c0,0.737,0.635,0.961,0.836,0.296l3.49-11.582v-23.027l-3.49-11.578c-0.201-0.666-0.836-0.441-0.836,0.296V293.348
	z M461.035,293.405c0,0.678,0.635,0.884,0.836,0.272l3.491-10.653v-21.178l-3.491-10.65c-0.201-0.612-0.836-0.405-0.836,0.272
	V293.405z M454.04,293.405c0,0.677,0.635,0.884,0.836,0.272l3.289-10.038v-20.19l-3.289-10.039c-0.2-0.612-0.836-0.406-0.836,0.272
	V293.405z M446.959,293.441c0,0.64,0.635,0.836,0.835,0.257l3.259-9.395v-18.939l-3.259-9.395c-0.201-0.579-0.835-0.383-0.835,0.257
	V293.441z M440.032,293.432c0,0.649,0.635,0.847,0.836,0.261l2.926-8.554v-17.646l-2.926-8.556c-0.2-0.586-0.836-0.388-0.836,0.261
	V293.432z M432.936,293.471c0,0.608,0.635,0.794,0.836,0.244l2.928-8.016v-16.535l-2.928-8.018
	c-0.201-0.549-0.836-0.364-0.836,0.244V293.471z M425.841,293.019c0,0.661,0.76,0.863,1,0.266l2.764-6.878v-15.029l-2.928-7.288
	c-0.201-0.499-0.836-0.331-0.836,0.222V293.019z M418.746,293.585c0,0.486,0.635,0.634,0.836,0.195l2.926-6.401v-13.204
	l-2.926-6.402c-0.201-0.439-0.836-0.291-0.836,0.195V293.585z M392.147,265.378c0,0.646,0.529,1.174,1.174,1.174h19.574
	c0.646,0,1.174-0.528,1.174-1.174v-0.675c0-0.646-0.529-1.174-1.174-1.174h-8.318c0.212-0.299,0.363-0.644,0.363-1.039
	c0-1.012-0.82-1.832-1.832-1.832c-1.012,0-1.832,0.82-1.832,1.832c0,0.394,0.151,0.74,0.363,1.039h-8.318
	c-0.646,0-1.174,0.529-1.174,1.174V265.378z M191.24,464.517l-7.05,14.041h55.392l3.771-14.041H191.24z M235.026,495.519
	l4.311-16.053h-55.604l-8.061,16.053H235.026z M175.149,496.563l-9.305,18.531h63.925l4.977-18.531H175.149z M135.967,464.517
	l-10.529,14.041h55.392l7.249-14.041H135.967z M122.079,478.558l10.727-14.041H80.693l-14.007,14.041H122.079z M112.719,495.519
	h59.353l8.288-16.053h-55.604L112.719,495.519z M161.967,515.094l9.567-18.531h-59.597l-13.895,18.531H161.967z M223.634,537.935
	l5.81-21.63h-64.208l-10.861,21.63H223.634z M297.064,539.357h-69.592l-6.508,25.579h75.566L297.064,539.357z M297.545,516.304
	h-64.208l-5.503,21.63h69.26L297.545,516.304z M297.957,496.563H238.36l-4.715,18.531h63.925L297.957,496.563z M298.314,479.466
	H242.71l-4.084,16.053h59.353L298.314,479.466z M298.626,464.517h-52.113l-3.572,14.041h55.392L298.626,464.517z M412.333,464.517
	l6.862,14.041h55.392l-10.141-14.041H412.333z M416.267,479.466h-55.604l3.869,16.053h59.354L416.267,479.466z M357.06,464.517
	l3.384,14.041h55.392l-6.663-14.041H357.06z M301.693,478.558h55.392l-3.185-14.041h-52.113L301.693,478.558z M301.579,495.519
	h59.354l-3.642-16.053h-55.604L301.579,495.519z M301.448,515.094h63.925l-4.204-18.531h-59.597L301.448,515.094z M301.294,537.935
	h69.26l-4.907-21.63h-64.208L301.294,537.935z M370.877,539.357h-69.592l-0.172,25.579h75.566L370.877,539.357z M433.749,516.304
	h-64.208l5.213,21.63h69.26L433.749,516.304z M424.38,496.563h-59.597l4.466,18.531h63.925L424.38,496.563z M475.244,479.466
	h-55.604l7.845,16.053h59.353L475.244,479.466z M467.607,464.517l10.34,14.041h55.392l-13.62-14.041H467.607z M529.655,398.175
	c-0.935,0-1.692-0.758-1.692-1.692v2.594c0,0.935,0.758,1.692,1.692,1.692c0.935,0,1.692-0.758,1.692-1.692v-2.594
	C531.348,397.418,530.59,398.175,529.655,398.175z M548.726,396.483v2.594c0,0.935,0.758,1.692,1.692,1.692
	c0.935,0,1.692-0.758,1.692-1.692v-2.594c0,0.935-0.758,1.692-1.692,1.692C549.484,398.175,548.726,397.418,548.726,396.483z
	 M489.664,325.092h100.744v26.372c-0.71,3.889-1.501,7.749-2.361,11.584v-35.594h-46.951v120.543h13.441
	c-0.463,0.789-0.926,1.577-1.396,2.361h-63.477V325.092z M492.025,447.996h46.71V327.453h-46.71V447.996z M222.523,162.002
	c0,0-0.015,0-0.034,0c-1.422,0-55.253,0-109.586,0V64.269c-0.618,0.49-1.228,0.989-1.842,1.484v96.249c-28.726,0-57.423,0-78.428,0
	c-0.763,1.488-1.499,2.992-2.238,4.494h192.128V162.002z M176.094,117.135c-0.907,0-1.642-0.735-1.642-1.642v2.174
	c0,0.907,0.735,1.642,1.642,1.642c0.907,0,1.642-0.735,1.642-1.642v-2.174C177.736,116.399,177.001,117.135,176.094,117.135z
	 M159.298,117.135c-0.907,0-1.642-0.735-1.642-1.642v2.174c0,0.907,0.735,1.642,1.642,1.642c0.907,0,1.642-0.735,1.642-1.642v-2.174
	C160.941,116.399,160.205,117.135,159.298,117.135z M119.139,154.395V61.462h97.114v92.933H119.139z M168.626,152.535h45.767V63.322
	h-45.767V152.535z M120.999,152.535h45.766V63.322h-45.766V152.535z M64.665,119.512c0.907,0,1.642-0.735,1.642-1.642v-2.377
	c0,0.907-0.735,1.642-1.642,1.642c-0.907,0-1.642-0.735-1.642-1.642v2.377C63.023,118.777,63.759,119.512,64.665,119.512z
	 M104.825,154.395v-83.48c-0.618,0.526-1.246,1.042-1.861,1.573v80.046H57.198v-30.329c-0.621,0.85-1.248,1.695-1.861,2.551v27.778
	H37.73c-0.347,0.62-0.697,1.238-1.04,1.861H104.825z M562.643,162.002h-78.235V65.908c-0.613-0.495-1.225-0.993-1.842-1.484v97.577
	H372.98h-0.1l-0.127,4.494H564.88C564.141,164.994,563.406,163.49,562.643,162.002z M222.523,57.568v-4.494c0,0-45.012,0-94.531,0
	c-2.118,1.472-4.216,2.969-6.294,4.494h100.791H222.523z M530.803,119.404c0.907,0,1.642-0.735,1.642-1.642v-2.269
	c0,0.907-0.735,1.642-1.642,1.642c-0.907,0-1.642-0.735-1.642-1.642v2.269C529.161,118.669,529.896,119.404,530.803,119.404z
	 M558.586,154.395c-0.343-0.623-0.693-1.24-1.04-1.861h-17.415v-27.514c-0.611-0.857-1.24-1.701-1.861-2.551v30.065h-45.766v-79.88
	c-0.614-0.533-1.242-1.049-1.86-1.577v83.317H558.586z M436.17,119.891c0.907,0,1.642-0.735,1.642-1.642v-2.756
	c0,0.907-0.735,1.642-1.642,1.642c-0.907,0-1.642-0.735-1.642-1.642v2.756C434.528,119.155,435.263,119.891,436.17,119.891z
	 M419.375,119.891c0.907,0,1.642-0.735,1.642-1.642v-2.756c0,0.907-0.735,1.642-1.642,1.642c-0.907,0-1.642-0.735-1.642-1.642v2.756
	C417.733,119.155,418.468,119.891,419.375,119.891z M476.33,61.462v92.933h-97.114V61.462H476.33z M426.842,63.322h-45.766v89.212
	h45.766V63.322z M474.469,63.322h-45.767v89.212h45.767V63.322z M473.577,57.568c-2.077-1.525-4.176-3.022-6.294-4.494H372.88
	l-0.127,4.494h0.227H473.577z"></path>
<path id="color_x5F_2_36_" fill="#F89E51" d="M185.246,266.474c-2.534,0-4.594,2.06-4.594,4.594c0,2.534,2.06,4.594,4.594,4.594
	s4.594-2.06,4.594-4.594C189.84,268.534,187.78,266.474,185.246,266.474z M185.246,273.435c-1.305,0-2.367-1.061-2.367-2.367
	c0-1.305,1.062-2.367,2.367-2.367c1.305,0,2.367,1.061,2.367,2.367C187.613,272.373,186.551,273.435,185.246,273.435z
	 M185.246,279.916c-2.534,0-4.594,2.06-4.594,4.594s2.06,4.594,4.594,4.594s4.594-2.06,4.594-4.594S187.78,279.916,185.246,279.916z
	 M185.246,286.877c-1.305,0-2.367-1.062-2.367-2.367c0-1.305,1.062-2.367,2.367-2.367c1.305,0,2.367,1.061,2.367,2.367
	C187.613,285.815,186.551,286.877,185.246,286.877z M485.669,274.819h13.078v10.629h-13.078V274.819z M371.955,296.225h18.285
	c0.575-0.047,1.036-0.518,1.036-1.105v-38.407c0-0.617-0.505-1.123-1.123-1.123h-18.112c-0.618,0-1.123,0.505-1.123,1.123v38.407
	C370.919,295.707,371.379,296.178,371.955,296.225z M372.289,276.676c0,0,3.004,2.055,8.093,0.587
	c2.345-0.677,4.498-0.852,6.145-0.847v-17.298c0-0.757,0.613-1.37,1.37-1.37c0.756,0,1.37,0.613,1.37,1.37v17.487
	c0.272,0.04,0.42,0.071,0.42,0.071v17.226c0,0.646-0.529,1.174-1.175,1.174h-15.048c-0.646,0-1.174-0.529-1.174-1.174V276.676z
	 M412.252,296.225c0.575-0.047,1.036-0.518,1.036-1.105v-27.445c0-0.617-0.505-1.123-1.123-1.123h-18.112
	c-0.618,0-1.123,0.505-1.123,1.123v27.445c0,0.587,0.461,1.058,1.036,1.105H412.252z M394.41,271.195c0,0,3.004,2.056,8.093,0.587
	c2.293-0.661,4.403-0.844,6.036-0.848v-0.855c0-0.757,0.613-1.37,1.37-1.37c0.756,0,1.37,0.613,1.37,1.37v1.029
	c0.336,0.047,0.529,0.086,0.529,0.086v22.707c0,0.646-0.529,1.174-1.175,1.174h-15.048c-0.646,0-1.174-0.529-1.174-1.174V271.195z
	 M69.558,240.163v15.002H54.556v-15.002H69.558z M538.424,223.768h-33.265v-24.551c0-2.561,2.076-2.716,4.637-2.716h23.991
	c2.561,0,4.637,0.155,4.637,2.716V223.768z M533.99,235.201v-3.254h-2.218v3.254c0,0.613-0.496,1.109-1.108,1.109
	c-0.613,0-1.108-0.497-1.108-1.109v-3.254h-2.219v3.254c0,0.613-0.497,1.109-1.108,1.109c-0.613,0-1.111-0.497-1.111-1.109v-3.254
	h-2.216v3.254c0,0.613-0.497,1.109-1.111,1.109c-0.611,0-1.108-0.497-1.108-1.109v-3.254h-2.219v3.254
	c0,0.613-0.496,1.109-1.109,1.109s-1.11-0.497-1.11-1.109v-3.254h-2.217v3.254c0,0.613-0.496,1.109-1.109,1.109
	c-0.613,0-1.109-0.497-1.109-1.109v-3.254h-2.218v3.254c0,0.613-0.496,1.109-1.108,1.109c-0.614,0-1.11-0.497-1.11-1.109v-3.254
	h-2.215v-4.924h33.265v4.924h-2.215v3.254c0,0.613-0.497,1.109-1.11,1.109C534.487,236.311,533.99,235.814,533.99,235.201z
	 M215.508,281.223c-0.618,0-1.123,0.505-1.123,1.123v13.546c0,0.118,0.034,0.226,0.068,0.333h8.415
	c0.034-0.107,0.068-0.215,0.068-0.333v-13.546c0-0.618-0.505-1.123-1.123-1.123H215.508z M221.531,295.456
	c0,0.215-0.176,0.391-0.392,0.391h-4.959c-0.215,0-0.392-0.176-0.392-0.391v-8.548c1.045-0.337,2.053-0.43,2.933-0.42v-2.321
	c0-0.757,0.613-1.37,1.37-1.37c0.756,0,1.37,0.613,1.37,1.37v2.719c0.026,0.008,0.07,0.022,0.07,0.022V295.456z M204.263,281.223
	c-0.618,0-1.123,0.505-1.123,1.123v13.546c0,0.118,0.034,0.226,0.068,0.333h8.415c0.034-0.107,0.068-0.215,0.068-0.333v-13.546
	c0-0.618-0.505-1.123-1.123-1.123H204.263z M210.771,293.885c0,0.415-0.194,0.775-0.485,1.026v0.546
	c0,0.215-0.176,0.391-0.391,0.391h-4.959c-0.215,0-0.392-0.176-0.392-0.391v-8.548c1.276-0.411,2.494-0.464,3.488-0.397v-2.343
	c0-0.757,0.613-1.37,1.37-1.37c0.756,0,1.37,0.613,1.37,1.37V293.885z M473.037,357.949h-95.781v91.474h95.781V357.949z
	 M385.613,414.877c0,0.935-0.758,1.692-1.692,1.692c-0.935,0-1.692-0.758-1.692-1.692v-19.95c0-0.935,0.758-1.692,1.692-1.692
	c0.934,0,1.692,0.758,1.692,1.692V414.877z M481.563,303.696H368.696v154.292h112.905L481.563,303.696z M475.398,451.785H374.895
	v-96.196h100.503V451.785z M475.398,352.207H374.895v-45.227h100.503V352.207z M473.037,309.341h-95.781v40.505h95.781V309.341z
	 M436.991,332.025c0,1.059-0.859,1.918-1.918,1.918H415.22c-1.059,0-1.918-0.859-1.918-1.918c0-0.464,0.172-0.884,0.446-1.216
	c-0.274-0.332-0.446-0.752-0.446-1.216c0-1.059,0.859-1.918,1.918-1.918h19.854c1.059,0,1.918,0.859,1.918,1.918
	c0,0.464-0.172,0.884-0.446,1.216C436.82,331.141,436.991,331.56,436.991,332.025z M122.329,398.563h95.781v-40.505h-95.781V398.563
	z M158.375,378.311c0-1.059,0.859-1.918,1.918-1.918h19.854c1.059,0,1.918,0.859,1.918,1.918c0,0.401-0.124,0.773-0.334,1.081
	c0.21,0.308,0.334,0.679,0.334,1.081c0,1.059-0.858,1.918-1.918,1.918h-19.854c-1.059,0-1.918-0.859-1.918-1.918
	c0-0.401,0.124-0.773,0.335-1.081C158.499,379.084,158.375,378.712,158.375,378.311z M122.329,349.846h95.781v-40.505h-95.781
	V349.846z M158.375,329.593c0-1.059,0.859-1.918,1.918-1.918h19.854c1.059,0,1.918,0.859,1.918,1.918
	c0,0.401-0.124,0.773-0.334,1.081c0.21,0.308,0.334,0.68,0.334,1.081c0,1.059-0.858,1.918-1.918,1.918h-19.854
	c-1.059,0-1.918-0.859-1.918-1.918c0-0.401,0.124-0.773,0.335-1.081C158.499,330.366,158.375,329.994,158.375,329.593z
	 M122.329,447.281h95.781v-40.505h-95.781V447.281z M158.375,427.029c0-1.059,0.859-1.918,1.918-1.918h19.854
	c1.059,0,1.918,0.859,1.918,1.918c0,0.401-0.124,0.773-0.334,1.081c0.211,0.308,0.334,0.68,0.334,1.081
	c0,1.059-0.858,1.918-1.918,1.918h-19.854c-1.059,0-1.918-0.859-1.918-1.918c0-0.401,0.124-0.773,0.334-1.081
	C158.499,427.801,158.375,427.43,158.375,427.029z M113.765,457.988h112.891V303.696H113.765V457.988z M119.968,306.979h100.503
	v45.227H119.968V306.979z M119.968,355.697h100.503v45.227H119.968V355.697z M119.968,404.415h100.503v45.227H119.968V404.415z
	 M538.735,447.996V327.453h-46.71v120.543H538.735z M527.963,378.965c0-0.935,0.758-1.692,1.692-1.692
	c0.935,0,1.692,0.757,1.692,1.692v20.112c0,0.935-0.758,1.692-1.692,1.692c-0.935,0-1.692-0.758-1.692-1.692V378.965z
	 M541.096,447.996h13.441c15.279-26.048,26.709-54.621,33.51-84.948v-35.594h-46.951V447.996z M548.726,378.965
	c0-0.935,0.758-1.692,1.692-1.692c0.935,0,1.692,0.757,1.692,1.692v20.112c0,0.935-0.758,1.692-1.692,1.692
	c-0.935,0-1.692-0.758-1.692-1.692V378.965z M590.409,351.463v-26.372H489.664v125.265h63.477c-1.537,2.566-3.099,5.116-4.71,7.631
	h-64.932h-0.038V320.873h110.917C593.578,331.228,592.241,341.432,590.409,351.463z M314.157,254.738h5.598v29.671
	c0,2.262-1.834,4.097-4.096,4.097h-5.598c2.262,0,4.096-1.834,4.096-4.097V254.738z M275.769,254.738h28.982v29.671
	c0,2.262-1.834,4.097-4.096,4.097h-20.788c-2.263,0-4.097-1.834-4.097-4.097V254.738z M120.999,152.535h45.766V63.322h-45.766
	V152.535z M157.656,98.49c0-0.907,0.735-1.642,1.642-1.642c0.907,0,1.642,0.735,1.642,1.642v19.176c0,0.907-0.735,1.642-1.642,1.642
	c-0.907,0-1.642-0.735-1.642-1.642V98.49z M168.626,152.535h45.767V63.322h-45.767V152.535z M174.452,98.49
	c0-0.907,0.735-1.642,1.642-1.642c0.907,0,1.642,0.735,1.642,1.642v19.176c0,0.907-0.735,1.642-1.642,1.642
	c-0.907,0-1.642-0.735-1.642-1.642V98.49z M222.489,57.568H121.698c-2.973,2.182-5.908,4.412-8.796,6.701v97.733
	c54.333,0,108.164,0,109.586,0V57.568z M216.253,154.395h-97.114V61.462h97.114V154.395z M104.825,70.915
	c2.054-1.749,4.134-3.469,6.236-5.162v96.249c-28.726,0-57.423,0-78.428,0c1.313-2.56,2.673-5.091,4.057-7.607h68.135V70.915z
	 M102.964,152.535H57.198v-30.329c1.904-2.606,3.84-5.187,5.826-7.727v3.392c0,0.907,0.735,1.642,1.642,1.642
	c0.907,0,1.642-0.735,1.642-1.642v-7.499c11.087-13.679,23.349-26.367,36.657-37.883V152.535z M55.337,152.535H37.73
	c5.37-9.597,11.243-18.874,17.608-27.778V152.535z M562.643,162.002h-78.235V65.908c2.102,1.696,4.182,3.418,6.236,5.17v83.317
	h67.942C559.97,156.911,561.33,159.442,562.643,162.002z M538.27,152.535h-45.766v-79.88c13.311,11.539,25.572,24.252,36.656,37.956
	v7.151c0,0.907,0.735,1.642,1.642,1.642c0.907,0,1.642-0.735,1.642-1.642v-3.032c1.985,2.545,3.921,5.129,5.825,7.739V152.535z
	 M557.546,152.535h-17.415v-27.514C546.422,133.843,552.23,143.033,557.546,152.535z M381.076,152.535h45.766V63.322h-45.766
	V152.535z M417.733,98.49c0-0.907,0.735-1.642,1.642-1.642c0.907,0,1.642,0.735,1.642,1.642v19.758c0,0.907-0.735,1.642-1.642,1.642
	c-0.907,0-1.642-0.735-1.642-1.642V98.49z M428.703,152.535h45.767V63.322h-45.767V152.535z M434.528,98.49
	c0-0.907,0.735-1.642,1.642-1.642c0.907,0,1.642,0.735,1.642,1.642v19.758c0,0.907-0.735,1.642-1.642,1.642
	c-0.907,0-1.642-0.735-1.642-1.642V98.49z M372.98,57.568v104.434h109.586V64.424c-2.95-2.343-5.949-4.625-8.988-6.857H372.98z
	 M476.33,154.395h-97.114V61.462h97.114V154.395z M495.487,265.021h-6.557h-0.238v-4.176h6.794L495.487,265.021L495.487,265.021z"></path>
<path id="color_x5F_1_35_" fill="#FBBF9E" d="M304.875,246.609h225.403c1.15-0.906,2.582-1.469,4.156-1.469s3.006,0.563,4.156,1.469
	h52.311c-2.389-13.829-5.738-27.327-9.966-40.432c-0.203,0.088-0.422,0.141-0.653,0.141h-41.858v25.63h-2.215v3.254
	c0,0.613-0.497,1.109-1.11,1.109c-0.612,0-1.109-0.497-1.109-1.109v-3.254h-2.218v3.254c0,0.613-0.496,1.109-1.108,1.109
	c-0.613,0-1.108-0.497-1.108-1.109v-3.254h-2.219v3.254c0,0.613-0.497,1.109-1.108,1.109c-0.613,0-1.111-0.497-1.111-1.109v-3.254
	h-2.216v3.254c0,0.613-0.497,1.109-1.111,1.109c-0.611,0-1.108-0.497-1.108-1.109v-3.254h-2.219v3.254
	c0,0.613-0.496,1.109-1.109,1.109s-1.11-0.497-1.11-1.109v-3.254h-2.217v3.254c0,0.613-0.496,1.109-1.109,1.109
	c-0.613,0-1.109-0.497-1.109-1.109v-3.254h-2.218v3.254c0,0.613-0.496,1.109-1.108,1.109c-0.614,0-1.11-0.497-1.11-1.109v-3.254
	h-2.215v-25.63h-9.661c-1.002,0-1.817-0.912-1.817-2.037c0-0.194,0.032-0.379,0.078-0.557h-3.391c-1.124,0-2.036-0.912-2.036-2.037
	c0-1.124,0.913-2.036,2.036-2.036h14.791v-0.434c0-2.561,2.076-2.716,4.637-2.716h23.991c2.561,0,4.637,0.155,4.637,2.716v0.434
	h40.324c-3.967-11.383-8.604-22.45-13.867-33.155H372.753l0.127-4.494h0.1V57.568h-0.227l0.127-4.494h94.404
	C424.762,23.522,374.177,4.769,319.484,0.801v115.321l40.856,42.236h5.361v8.138H229.652v-8.138h5.361l40.856-42.236V0.796
	c-54.722,3.956-105.335,22.712-147.876,52.277c49.519,0,94.531,0,94.531,0v4.494h-0.034v104.434c0.019,0,0.034,0,0.034,0v4.494
	H30.396c-1.101,2.239-2.175,4.493-3.221,6.763h83.43v73.35h182.302c-2.147-4.048-0.152-10.271,5.986-10.271
	C305.04,236.338,307.026,242.561,304.875,246.609z M400.532,189.182c0-1.315,1.066-2.381,2.381-2.381h45.833
	c1.315,0,2.38,1.066,2.38,2.381v1.548c0,1.315-1.066,2.381-2.38,2.381h-3.591v15.51c0,0.371-0.304,0.675-0.676,0.675h-0.003v18.32
	c2.563,0.061,4.619,2.143,4.619,4.722v9.254c0,2.617-2.115,4.732-4.732,4.732h-4.056c-2.617,0-4.733-2.115-4.733-4.732v-9.254
	c0-2.578,2.056-4.66,4.618-4.722v-18.32c-0.372,0-0.677-0.304-0.677-0.675v-15.51h-10.87v15.51c0,0.371-0.306,0.675-0.676,0.675
	v18.802c2.588,1.209,4.447,4.537,4.447,8.465c0,2.326-0.649,4.441-1.724,6.037c0,0.007-0.006,0.014-0.006,0.02
	c-1.21,1.785-2.934,2.9-4.86,2.9c-1.92,0-3.652-1.121-4.854-2.906c0,0-0.01-0.007-0.01-0.014c-1.079-1.596-1.729-3.711-1.729-6.037
	c0-3.93,1.866-7.259,4.455-8.467v-18.8c-0.372,0-0.674-0.304-0.674-0.675v-15.51H412.67v15.51c0,0.37-0.304,0.673-0.674,0.674
	v18.802c2.588,1.209,4.449,4.537,4.449,8.466c0,0.804-0.082,1.588-0.23,2.332c-0.06,0.331-0.135,0.649-0.236,0.96
	c-0.103,0.074-0.224,0.121-0.359,0.121c-0.216,0-0.399-0.115-0.5-0.283v-3.834c0-0.48-0.385-0.872-0.871-0.872
	c-0.481,0-0.872,0.392-0.872,0.872v7.897c0,0.324-0.265,0.587-0.588,0.587c-0.333,0-0.596-0.263-0.596-0.587v-7.897
	c0-0.48-0.391-0.872-0.871-0.872c-0.481,0-0.872,0.392-0.872,0.872v9.073c0,0.325-0.271,0.588-0.595,0.588
	c-0.326,0-0.59-0.263-0.59-0.588v-9.073c0-0.48-0.391-0.872-0.871-0.872c-0.488,0-0.88,0.392-0.88,0.872v5.733
	c0-0.027-0.019-0.047-0.027-0.067c0.016,0.04,0.022,0.08,0.022,0.128v2.103c0,0.047-0.006,0.087-0.022,0.128
	c-0.006,0.027-0.012,0.054-0.019,0.08c-0.006,0.014-0.006,0.021-0.014,0.034c-0.006,0.013-0.013,0.027-0.02,0.041
	c-0.019,0.034-0.041,0.06-0.06,0.088c-0.007,0.007-0.007,0.007-0.014,0.013c-0.021,0.021-0.041,0.04-0.061,0.054
	c-0.008,0.021-0.021,0.028-0.034,0.035c-0.014,0.013-0.026,0.019-0.041,0.027c-0.02,0.02-0.047,0.034-0.074,0.039
	c-0.066,0.034-0.141,0.048-0.216,0.048c-0.075,0-0.142-0.013-0.203-0.033c-0.197-0.074-0.339-0.236-0.378-0.432
	c-0.007-0.042-0.015-0.082-0.015-0.122v-7.897c0-0.48-0.391-0.872-0.876-0.872c-0.482,0-0.875,0.392-0.875,0.872v3.759
	c-0.086,0.21-0.296,0.358-0.54,0.358c-0.115,0-0.216-0.027-0.304-0.088c-0.121-0.392-0.224-0.798-0.29-1.21
	c-0.123-0.677-0.191-1.387-0.191-2.116c0-3.928,1.865-7.256,4.452-8.465v-18.801c-0.372,0-0.674-0.304-0.674-0.675v-15.51h-4.125
	c-1.315,0-2.381-1.066-2.381-2.381V189.182z M151.381,218.635c0,2.289-1.862,4.151-4.151,4.151h-11.11
	c-2.289,0-4.15-1.862-4.15-4.151v-11.11c0-2.289,1.862-4.151,4.15-4.151h11.11c2.289,0,4.151,1.862,4.151,4.151V218.635z
	 M175.656,218.635c0,2.289-1.862,4.151-4.151,4.151h-11.11c-2.289,0-4.15-1.862-4.15-4.151v-11.11c0-2.289,1.862-4.151,4.15-4.151
	h11.11c2.289,0,4.151,1.862,4.151,4.151V218.635z M336.424,207.939c-9.109,0-9.094-13.668,0-13.668
	C345.533,194.27,345.517,207.939,336.424,207.939z M268.585,172.401c9.109,0,9.094,13.668,0,13.668
	C259.477,186.069,259.491,172.401,268.585,172.401z M268.899,232.238c-9.109,0-9.565-13.668-0.471-13.668
	c4.24,0,7.852-0.456,7.852-5.316c0-4.556-3.298-5.315-7.852-5.315c-4.292,0-4.344,0-8.637,0c-9.109,0-9.094-13.668,0-13.668
	c13.191,0,21.671,0,34.861,0c4.868,0,4.868-8.201,0-8.201c-3.141,0-1.57,0-4.711,0c-9.109,0-9.094-13.668,0-13.668
	c12.144,0,24.288,0,36.432,0c9.109,0,9.094,13.668,0,13.668c-4.292,0-8.585,0-12.877,0c-6.438,0-6.124,8.201,0,8.201
	c0.995,0,1.989,0,2.984,0c9.109,0,9.094,13.668,0,13.668c-9.893,0-13.034,0-22.927,0c-8.48,0-7.538,10.631,0,10.631
	c4.397,0,2.041,0,6.439,0c9.109,0,9.094,13.668,0,13.668C289.628,232.238,279.263,232.238,268.899,232.238z M442.836,242.363v-6.815
	c0-0.527,0.425-0.96,0.959-0.96c0.528,0,0.954,0.433,0.954,0.96v6.815c0,0.534-0.427,0.96-0.954,0.96
	C443.261,243.323,442.836,242.898,442.836,242.363z M445.749,242.363v-6.815c0-0.527,0.432-0.96,0.96-0.96
	c0.528,0,0.954,0.433,0.954,0.96v6.815c0,0.534-0.426,0.96-0.954,0.96C446.181,243.323,445.749,242.898,445.749,242.363z
	 M438.921,235.548v6.815c0,0.534-0.434,0.96-0.96,0.96c-0.526,0-0.958-0.426-0.958-0.96v-6.815c0-0.527,0.432-0.96,0.958-0.96
	C438.487,234.589,438.921,235.022,438.921,235.548z M439.92,235.548c0-0.527,0.426-0.96,0.954-0.96c0.534,0,0.961,0.433,0.961,0.96
	v6.815c0,0.534-0.427,0.96-0.961,0.96c-0.528,0-0.954-0.426-0.954-0.96V235.548z M216.382,564.936h-49.774
	c-6.918-3.398-13.683-7.058-20.286-10.965l7.338-14.614h69.592L216.382,564.936z M170.107,566.629h45.82l-4.3,16.008
	C197.302,578.32,183.432,572.958,170.107,566.629z M220.534,566.629h75.961l-0.597,28.625c-27.646-0.159-54.404-4.07-79.777-11.279
	L220.534,566.629z M377.063,566.629l3.818,16.831c-25.418,7.39-52.239,11.474-79.971,11.774l0.192-28.605H377.063z M150.174,537.935
	H122.01c-8.867-6.492-17.366-13.455-25.449-20.867l0.573-0.764h64.208L150.174,537.935z M487.592,496.563l13.328,18.453
	c-0.028,0.026-0.056,0.052-0.084,0.078h-63.784l-9.057-18.531H487.592z M149.44,539.357l-6.505,12.599
	c-6.495-3.959-12.82-8.169-18.975-12.599H149.44z M448.909,539.357h22.407c-5.491,3.952-11.124,7.717-16.886,11.295L448.909,539.357
	z M108.323,496.563l-14.044,18.381c-6.267-5.867-12.282-11.997-18.023-18.381H108.323z M437.643,516.304h61.892
	c-8.33,7.695-17.1,14.918-26.27,21.63h-25.051L437.643,516.304z M381.67,566.629h43.499c-12.782,6.071-26.061,11.263-39.766,15.487
	L381.67,566.629z M444.689,539.357l6.35,13.381c-7.26,4.375-14.725,8.442-22.372,12.198h-47.405l-6.165-25.579H444.689z
	 M80.693,464.517h52.113l-10.727,14.041H66.687L80.693,464.517z M109.12,495.519H75.33c-4.027-4.521-7.932-9.154-11.681-13.916
	l2.131-2.136h55.604L109.12,495.519z M246.513,464.517h52.113l-0.293,14.041h-55.392L246.513,464.517z M353.899,464.517
	l3.185,14.041h-55.392l0.094-14.041H353.899z M519.719,464.517l13.62,14.041h-55.392l-10.34-14.041H519.719z M464.446,464.517
	l10.141,14.041h-55.392l-6.862-14.041H464.446z M409.173,464.517l6.663,14.041h-55.392l-3.384-14.041H409.173z M77.533,464.517
	l-14.205,14.041h-2.021c-3.512-4.58-6.905-9.256-10.151-14.041H77.533z M62.003,479.466h0.405l-0.23,0.228
	C62.119,479.619,62.062,479.542,62.003,479.466z M135.967,464.517h52.113l-7.249,14.041h-55.392L135.967,464.517z M491.207,496.563
	h27.813c-5.064,5.631-10.33,11.076-15.804,16.306L491.207,496.563z M239.582,478.558H184.19l7.05-14.041h52.113L239.582,478.558z
	 M522.88,464.517h21.24c-2.878,4.242-5.869,8.4-8.956,12.482L522.88,464.517z M301.572,496.563h59.597l4.204,18.531h-63.925
	L301.572,496.563z M301.686,479.466h55.604l3.642,16.053h-59.354L301.686,479.466z M242.71,479.466h55.604l-0.335,16.053h-59.353
	L242.71,479.466z M301.439,516.304h64.208l4.907,21.63h-69.26L301.439,516.304z M364.532,495.519l-3.869-16.053h55.604l7.618,16.053
	H364.532z M478.616,479.466h54.656c-4.257,5.508-8.703,10.861-13.327,16.053h-29.507L478.616,479.466z M424.38,496.563l8.794,18.531
	H369.25l-4.466-18.531H424.38z M301.285,539.357h69.592l5.802,25.579h-75.566L301.285,539.357z M444.014,537.935h-69.26
	l-5.213-21.63h64.208L444.014,537.935z M486.838,495.519h-59.353l-7.845-16.053h55.604L486.838,495.519z M229.769,515.094h-63.925
	l9.305-18.531h59.597L229.769,515.094z M238.36,496.563h59.597l-0.387,18.531h-63.925L238.36,496.563z M235.026,495.519h-59.353
	l8.061-16.053h55.604L235.026,495.519z M111.937,496.563h59.597l-9.567,18.531H98.042L111.937,496.563z M172.073,495.519h-59.353
	l12.037-16.053h55.604L172.073,495.519z M154.374,537.935l10.861-21.63h64.208l-5.81,21.63H154.374z M227.473,539.357h69.592
	l-0.534,25.579h-75.566L227.473,539.357z M233.338,516.304h64.208l-0.451,21.63h-69.26L233.338,516.304z"></path>
</svg>