<?xml version="1.0" standalone="no"?>
<svg version="1.1" id="Layer_1" xmlns="http://www.w3.org/2000/svg" xmlns:xlink="http://www.w3.org/1999/xlink" x="0px" y="0px" viewBox="0 0 595.276 595.276" enable-background="new 0 0 595.276 595.276" xml:space="preserve">
<path id="color_x5F_9_25_" fill="#424041" d="M97.399,313.957H72.87v29.691h24.528V313.957z M95.631,342.138H74.638v-26.35h20.993
	V342.138z M139.806,428.254C139.806,428.254,139.806,428.254,139.806,428.254c-0.397,0.722-1.046,1.444-2.057,1.444
	c-0.218,0-0.785,0-1.594,0l0.722,7.651h-2.743l-4.619-7.651c-9.633,0-39.158,0-48.791,0l-4.619,7.651h-2.743l0.722-7.651
	c-0.809,0-1.376,0-1.594,0c-1.01,0-1.66-0.722-2.057-1.444c0,0,0,0,0,0H139.806z M298.48,63.915h-1.684v-2.603h1.684V63.915z
	 M322.391,87.826h2.603v1.684h-2.603V87.826z M296.796,113.422h1.684v2.603h-1.684V113.422z M270.282,87.826h2.603v1.684h-2.603
	V87.826z M309.977,67.193l-1.488-0.789l1.219-2.3l1.488,0.789L309.977,67.193z M319.902,99.52l2.3,1.219l-0.789,1.488l-2.3-1.219
	L319.902,99.52z M285.299,110.144l1.488,0.789l-1.219,2.3l-1.488-0.789L285.299,110.144z M275.374,77.817l-2.3-1.219l0.789-1.488
	l2.3,1.219L275.374,77.817z M319.801,77.613l-0.802-1.481l2.288-1.24l0.803,1.481L319.801,77.613z M310.173,110.029l1.24,2.288
	l-1.481,0.803l-1.24-2.288L310.173,110.029z M275.474,99.723l0.803,1.481l-2.288,1.24l-0.803-1.481L275.474,99.723z M285.102,67.307
	l-1.24-2.288l1.481-0.802l1.24,2.288L285.102,67.307z M312.435,75.819l0.533,0.652l-13.849,11.304
	c0.158,0.262,0.255,0.565,0.255,0.893c0,0.958-0.777,1.735-1.735,1.735c-0.924,0-1.672-0.724-1.725-1.634l-10.449-3.28l0.315-1.004
	l10.394,3.263c0.307-0.488,0.847-0.814,1.466-0.814c0.322,0,0.62,0.094,0.878,0.246L312.435,75.819z M32.266,350.679H19.703v-3.056
	h12.563V350.679z M32.266,373.053H19.703v-2.778h12.563V373.053z M32.266,396.348H19.703v-2.778h12.563V396.348z M39.312,419.743
	h5.857v17.605h-5.857V419.743z M29.55,419.743h5.578v0v17.499h-0.402c-1.784-3.353-3.519-6.736-5.177-10.164V419.743L29.55,419.743z
	 M186.027,431.991v5.357h-8.945v-5.357H186.027z M430.654,431.991v5.357h-8.946v-5.357H430.654z M566.208,426.07
	c-1.424,2.972-2.904,5.912-4.423,8.828h-97.942v-8.828H566.208z M407.886,21.099c0.82,0.327,1.633,0.667,2.45,1.001v62.613
	c-0.811-0.029-1.638-0.029-2.45,0V21.099z M184.941,22.1c0.816-0.334,1.63-0.674,2.45-1.001v63.615c-0.811-0.029-1.638-0.029-2.45,0
	V22.1z"></path>
<path id="color_x5F_8_31_" fill="#5E3125" d="M74.123,239.41h74.045v1.837H74.123V239.41z M516.12,239.41h-69.012v1.837h68.634
	C515.862,240.625,515.99,240.014,516.12,239.41z M576.869,194.39h-3.49v215.448c3.927-9.641,7.372-19.53,10.286-29.645v-165.11
	C581.646,208.075,579.378,201.174,576.869,194.39z M141.89,348.811v77.999h-1.543c0,0-0.145,0.722-0.541,1.443H70.433
	c-0.397-0.722-0.541-1.443-0.541-1.443h-1.543v-77.999C72.979,348.811,137.259,348.811,141.89,348.811z M72.693,419.789h64.852
	v-27.227H72.693V419.789z M137.546,358.468H72.693v27.227h64.852V358.468z M105.119,372.147c2.42,0,4.382-1.962,4.382-4.382
	s-1.962-4.382-4.382-4.382c-2.42,0-4.382,1.962-4.382,4.382S102.7,372.147,105.119,372.147z M105.119,396.234
	c-2.42,0-4.382,1.962-4.382,4.382c0,2.42,1.962,4.382,4.382,4.382c2.42,0,4.382-1.962,4.382-4.382
	C109.501,398.195,107.54,396.234,105.119,396.234z M86.234,271.909v5.241h7.534v-5.241H86.234z M109.378,341.481h-1.981v-33.866
	h-1.508v33.866h-5.028v2.167H64.124v1.408h81.991v-1.408h-36.737V341.481z M297.638,129.294c20.971,0,37.972-17.001,37.972-37.972
	c0-0.445-0.019-0.886-0.034-1.327c-0.701,20.356-17.412,36.645-37.939,36.645c-20.526,0-37.238-16.29-37.939-36.645
	c-0.015,0.441-0.034,0.882-0.034,1.327C259.666,112.294,276.666,129.294,297.638,129.294z M262.069,88.668
	c0-19.644,15.924-35.568,35.568-35.568c19.644,0,35.569,15.924,35.569,35.568s-15.925,35.569-35.569,35.569
	C277.994,124.237,262.069,108.312,262.069,88.668z M265.744,88.668c0,17.615,14.279,31.894,31.894,31.894
	c17.614,0,31.894-14.279,31.894-31.894c0-17.614-14.279-31.894-31.894-31.894C280.023,56.775,265.744,71.054,265.744,88.668z
	 M3.603,344.016c0.189,1.206,0.395,2.407,0.598,3.608h53.87v64.173H22.697c0.361,0.869,0.721,1.738,1.09,2.603
	c0.764,1.789,1.54,3.572,2.337,5.343h28.212v-4.607h6.044v-71.12H3.603z M58.071,370.275v-0.555H8.809
	c0.046,0.185,0.089,0.37,0.135,0.555H58.071z M58.071,393.569v-0.555h-42.46c0.063,0.186,0.13,0.369,0.193,0.555H58.071z
	 M173.516,259.262h248.243v-2.745H173.516V259.262z M569.489,282.867v136.103c-1.065,2.383-2.156,4.751-3.281,7.101H463.843V282.867
	H569.489z M468.117,323.081h97.099V287.14h-97.099V323.081z M514.53,327.354h-46.413v94.442h46.413V327.354z M565.216,327.354
	L565.216,327.354h-46.413h0v94.442h0h46.413h0V327.354z M525.678,366.799c-1.711,0-3.098,1.387-3.098,3.098
	c0,1.711,1.387,3.098,3.098,3.098c1.711,0,3.098-1.387,3.098-3.098C528.775,368.186,527.388,366.799,525.678,366.799z
	 M507.655,372.995c1.711,0,3.098-1.387,3.098-3.098c0-1.711-1.387-3.098-3.098-3.098c-1.711,0-3.098,1.387-3.098,3.098
	C504.558,371.608,505.945,372.995,507.655,372.995z"></path>
<path id="color_x5F_7_31_" fill="#961F12" d="M76.825,340.308h16.618v-22.691H76.825V340.308z M77.967,318.837l13.929,10.811v5.068
	l-13.929-11.149V318.837z M77.967,325.594l13.929,10.811v2.365l-13.929-10.811V325.594z M355.567,343.94
	c0.092,2.629,0.163,5.588,0.21,8.636c0.098,6.356,0.092,13.083-0.039,17.962h-41.107c-5.027,0-9.282,3.107-10.763,7.403
	c-1.481-4.296-5.737-7.403-10.763-7.403h-40.797c-0.248-5.069-0.395-12.332-0.414-19.095c-0.007-2.634,0.005-5.186,0.037-7.503
	H355.567z M435.575,332.091v-6.463c-7.837,8.171-17.806,14.07-28.945,16.729c-0.053,2.71-0.073,5.837-0.064,9.087
	c0.019,6.763,0.166,14.026,0.414,19.095h3.754v17.071H197.001v-17.071h4.064c0.131-4.879,0.137-11.607,0.04-17.962
	c-0.057-3.706-0.149-7.277-0.273-10.285c-11.029-2.69-20.9-8.56-28.672-16.663v6.463c-1.376-0.156-2.781-0.119-4.205,0.129
	c13.402,2.318,23.945,22.131,23.945,32.351v61.14c0,3.469-2.812,6.28-6.281,6.28h236.496c-3.469,0-6.28-2.812-6.28-6.28v-61.14
	c0-10.22,10.543-30.033,23.945-32.351C438.356,331.972,436.952,331.935,435.575,332.091z M197.001,395.262h213.733v12.617H197.001
	V395.262z M294.365,212.912h-6.29v-6.703h3.272v-4.872h5.072v8.174l3.599-2.851h2.454v8.254h3.436v-12.605h4.163v22.21H304.4v8.404
	l-3.49-4.402v-9.404h-6.544V212.912z M202.09,221.516v-6.003h-6.618v-10.054h3.109v4.352h3.763v11.705H202.09z M383.622,199.906
	v9.904h4.09v-7.053h5.726v2.151h-0.908v17.808h-4.145v-5.202h-7.635v-10.175h-5.672v5.773h-4.382v-9.154h3.436v-4.052H383.622z
	 M209.943,216.414h4.581v10.505h-4.581V216.414z M257.499,226.918h-6.762l0.036-18.158h7.199v6.753h2.618v-12.756h6.872v7.953h2.781
	v8.022l-0.526,0.381v11.005h-3.49v-8.004h-8.726V226.918z M250.105,216.514h-5.041v-5.502h2.108v3.301L250.105,216.514z
	 M229.176,204.558v6.453h4.982v12.105l-4.363-2.401v-4.002h-6.544v-3.602h-8.635v-11.775h3.109v-3.081h3.109v10.204h4.745v-3.902
	H229.176z M363.081,222.116h-9.38v-15.307h0.799v-4.802h6.053v9.304h3.763v6.593h3.782v9.814h-5.017V222.116z M329.923,208.51
	h-8.072v-6.203h1.89v-7.053h6.217v8.404h2.945v6.153h4.254v-8.474h5.399v5.473h3.945v9.104h-5.672v11.205h-5.89v-6.603h-5.017
	V208.51z M279.095,207.339l-4.763,4.16v-7.541l5.89-4.052v8.404h3.436v7.053h3.727v12.155h-3.709v-3.802l-4.581-3.201V207.339z
	 M530.264,261.665c0,4.864-3.538,8.806-7.902,8.806c-4.364,0-7.902-3.943-7.902-8.806c0-3.261,1.594-2.515,3.958-1.67
	c-0.219,0.425-0.448,0.845-0.689,1.259c-0.213,0.367-0.331,0.768-0.331,1.189c0,1.756,2.046,3.179,4.57,3.179
	c2.524,0,4.57-1.423,4.57-3.179c0-0.42-0.117-0.822-0.331-1.189c-0.197-0.339-0.385-0.684-0.568-1.03
	C528.366,259.317,530.264,258.107,530.264,261.665z M517.865,241.657c0-6.515,2.013-11.796,4.496-11.796
	c2.483,0,4.496,5.281,4.496,11.796c0,5.075-1.222,2.907-2.936,1.701c0.277-0.933,0.612-1.853,0.987-2.758
	c0.213-0.514,0.294-1.097,0.201-1.708c-0.211-1.38-1.366-2.492-2.753-2.657c-1.93-0.229-3.568,1.272-3.568,3.156
	c0,0.511,0.121,0.994,0.336,1.421c0.482,0.957,0.819,1.971,1.083,3.005C518.812,244.979,517.865,246.124,517.865,241.657z
	 M560.097,294.281v2.034h-0.115v26.766h-6.651v-28.8H560.097z M538.166,294.281h4.121v28.8h-4.121V294.281z M522.869,294.281h6.766
	v2.034h-0.115v26.766h-6.651V294.281z M491.8,294.281h6.766v2.034h-0.115v26.766H491.8V294.281z M476.636,294.281h4.121v28.8h-4.121
	V294.281z M422.221,105.119c-1.309-4.923-4.454-16.692-5.128-18.606c-0.381-1.083-3.425-1.682-6.758-1.8
	c-0.811-0.029-1.638-0.029-2.45,0c-3.333,0.118-6.377,0.717-6.759,1.8c-0.673,1.914-3.819,13.683-5.128,18.606
	C404.71,104.086,413.512,104.086,422.221,105.119z M405.731,102.902l-5.818,0.306l3.477-14.327c0.207-0.855,0.956-1.468,1.835-1.504
	l2.343-0.094L405.731,102.902z M450.502,125.636c-0.248,1.046-0.828,3.417-35.045,3.677c0.647-0.723,1.175-1.553,1.547-2.466
	c12.452-0.13,20.449-0.563,25.273-1.053c0.621-0.063,0.619-1.02-0.002-1.087c-5.125-0.552-13.323-0.991-24.644-1.138
	c0-0.001,0-0.001,0-0.002c-0.21-0.003-16.827-0.003-17.039,0c0,0.001,0,0.001,0,0.002c-11.321,0.147-19.519,0.585-24.645,1.138
	c-0.621,0.067-0.623,1.024-0.002,1.087c4.823,0.491,12.821,0.924,25.273,1.053c0.372,0.913,0.9,1.743,1.547,2.466
	c-34.218-0.259-34.798-2.63-35.046-3.677c-0.066-0.28-0.191-1.245,0.989-1.906c0.279-0.157,0.653-0.304,1.107-0.443
	c6.726-2.053,31.462-2.222,39.296-2.222c7.833,0,32.571,0.169,39.295,2.222c0.454,0.139,0.828,0.286,1.107,0.443
	C450.693,124.392,450.568,125.356,450.502,125.636z M409.979,118.853c-9.349,0-18.208,0.453-26.152,1.258
	c3.702-4.558,11.282-13.291,15.702-14.2c6.01-1.235,18.289-0.97,27.399,0.793c2.681,1.505,10.616,9.101,14.835,14.055
	C432.474,119.55,421.603,118.853,409.979,118.853z M199.276,105.119c-1.309-4.923-4.454-16.692-5.128-18.606
	c-0.381-1.083-3.425-1.682-6.758-1.8c-0.811-0.029-1.638-0.029-2.45,0c-3.333,0.118-6.377,0.717-6.758,1.8
	c-0.673,1.914-3.819,13.683-5.128,18.606C181.764,104.086,190.566,104.086,199.276,105.119z M182.785,102.902l-5.818,0.306
	l3.477-14.327c0.207-0.855,0.956-1.468,1.835-1.504l2.343-0.094L182.785,102.902z M179.819,129.313
	c-34.218-0.259-34.798-2.63-35.046-3.677c-0.066-0.28-0.191-1.245,0.99-1.906c0.279-0.157,0.653-0.304,1.107-0.443
	c6.725-2.053,31.462-2.222,39.296-2.222c7.834,0,32.571,0.169,39.295,2.222c0.454,0.139,0.828,0.286,1.107,0.443
	c1.18,0.661,1.055,1.626,0.989,1.906c-0.248,1.046-0.828,3.417-35.045,3.677c0.647-0.723,1.175-1.553,1.546-2.466
	c12.452-0.13,20.45-0.563,25.273-1.053c0.621-0.063,0.619-1.02-0.002-1.087c-5.125-0.552-13.323-0.991-24.644-1.138
	c0-0.001,0-0.001,0-0.002c-0.21-0.003-16.828-0.003-17.039,0c0,0.001,0,0.001,0,0.002c-11.321,0.147-19.519,0.585-24.645,1.138
	c-0.621,0.067-0.623,1.024-0.002,1.087c4.823,0.491,12.821,0.924,25.274,1.053C178.644,127.76,179.172,128.59,179.819,129.313z
	 M187.034,118.853c-9.349,0-18.207,0.453-26.152,1.258c3.702-4.558,11.282-13.291,15.702-14.2c6.01-1.235,18.289-0.97,27.399,0.793
	c2.68,1.505,10.616,9.101,14.835,14.055C209.529,119.55,198.658,118.853,187.034,118.853z"></path>
<path id="color_x5F_6_38_" fill="#FFFFFF" d="M95.631,315.787H74.638v26.35h20.993V315.787z M93.444,340.308H76.825v-22.691h16.618
	V340.308z M45.834,303.217H15.021v38.677h30.813V303.217z M42.624,339.208H18.231v-33.305h24.392V339.208z M145.384,135.706H76.907
	v100.979h68.477V135.706z M138.25,229.673H84.041v-86.954h54.209V229.673z M133.201,208.245L87.765,165.52v-18.126l45.436,41.431
	V208.245z M133.201,223.781l-45.436-41.431v-9.063l45.436,41.431V223.781z M518.369,231.484v-95.777h-68.477v100.979h66.865
	C517.249,234.749,517.789,232.984,518.369,231.484z M511.234,229.673h-54.208v-86.954h54.208V229.673z M506.185,208.245
	l-45.436-42.725v-18.126l45.436,41.431V208.245z M506.185,223.781l-45.436-41.431v-9.063l45.436,41.431V223.781z M35.128,419.743
	h4.184v4.311h-4.184V419.743z M573.247,410.161c-1.209,2.959-2.456,5.898-3.757,8.809v-8.809H573.247z M68.349,424.054h-23.18
	v-4.311h9.167v-4.607h6.044v-4.975h7.969V424.054z M26.124,419.743h3.425v4.311h-1.424
	C27.452,422.621,26.776,421.189,26.124,419.743z M141.89,410.161h16.766v13.893H141.89V410.161z M463.843,424.054h-14.764v-13.893
	h14.764V424.054z M86.234,307.615V277.15h7.534v30.465H86.234z M326.831,88.668c0-16.123-13.07-29.193-29.194-29.193
	s-29.194,13.07-29.194,29.193c0,16.123,13.07,29.194,29.194,29.194S326.831,104.792,326.831,88.668z M322.391,87.826h2.603v1.684
	h-2.603V87.826z M321.413,102.227l-2.3-1.219l0.789-1.488l2.3,1.219L321.413,102.227z M321.287,74.892l0.803,1.481l-2.288,1.24
	l-0.802-1.481L321.287,74.892z M272.884,89.51h-2.603v-1.684h2.603V89.51z M273.863,75.11l2.3,1.219l-0.789,1.488l-2.3-1.219
	L273.863,75.11z M273.988,102.444l-0.803-1.481l2.288-1.24l0.803,1.481L273.988,102.444z M309.933,113.12l-1.24-2.288l1.481-0.803
	l1.24,2.288L309.933,113.12z M309.708,64.104l1.488,0.789l-1.219,2.3l-1.488-0.789L309.708,64.104z M296.796,61.312h1.684v2.603
	h-1.684V61.312z M285.342,64.216l1.24,2.288l-1.481,0.802l-1.24-2.288L285.342,64.216z M285.567,113.232l-1.488-0.789l1.219-2.3
	l1.488,0.789L285.567,113.232z M295.913,88.769l-10.449-3.28l0.315-1.004l10.394,3.263c0.307-0.488,0.847-0.814,1.466-0.814
	c0.322,0,0.62,0.094,0.878,0.246l13.919-11.361l0.533,0.652l-13.849,11.304c0.158,0.262,0.255,0.565,0.255,0.893
	c0,0.958-0.777,1.735-1.735,1.735C296.714,90.404,295.966,89.68,295.913,88.769z M296.796,113.422h1.684v2.603h-1.684V113.422z
	 M110.21,528.838h374.855c-0.463,0.376-0.929,0.75-1.395,1.123H111.605C111.139,529.588,110.674,529.214,110.21,528.838z
	 M511.622,450.746L532.94,479.9c-0.253,0.327-0.5,0.659-0.754,0.984l-21.58-29.513c-1.023-1.399-2.73-2.234-4.567-2.234H89.238
	c-1.838,0-3.546,0.836-4.568,2.235L63.09,480.884c-0.255-0.326-0.501-0.658-0.755-0.984l21.317-29.153
	c1.25-1.711,3.339-2.733,5.586-2.733h416.801C508.285,448.014,510.372,449.036,511.622,450.746z M297.638,509.722l91.799-15.879
	l-28.073-4.856l28.073-4.856l-91.799-15.879l-91.033,15.746l28.839,4.988l-28.839,4.988L297.638,509.722z M297.638,479.776
	l53.253,9.211l-53.253,9.211l-53.253-9.211L297.638,479.776z M189.634,488.987l-40.282-13.649l-40.282,13.649l40.282,13.649
	L189.634,488.987z M123.895,488.987l25.15-8.522l25.15,8.522l-25.15,8.522L123.895,488.987z M405.642,488.987l40.282,13.649
	l40.282-13.649l-40.282-13.649L405.642,488.987z M445.473,497.509l-25.15-8.522l25.15-8.522l25.15,8.522L445.473,497.509z
	 M178.288,251.746h238.7V150.927h-238.7V251.746z M194.254,164.37h206.768v73.934H194.254V164.37z M260.743,191.928h-21.392
	l13.215-11.585l6.173,5.412h-4.875c-1,0-1.81,0.81-1.81,1.81c0,1,0.811,1.81,1.81,1.81h9.004l14.361,12.59l-2.897,1.993v7.541
	l-0.472,0.412v4.202l-3.618,2.62v-8.022h-2.781v-7.953h-6.872v12.756h-2.618v-6.753h-7.199v8.254l-0.036-0.027v-0.473h-0.631
	l-2.933-2.201v-3.301h-2.108v-8.904h-7.635v5.232h-3.272v3.672h-4.982v-6.453h-3.599v3.902h-4.745v-0.296l14.389-12.615h25.522
	c1,0,1.81-0.811,1.81-1.81C262.553,192.739,261.742,191.928,260.743,191.928z M211.421,216.414l3.103-2.72v2.72H211.421z
	 M329.959,195.254h-4.257l6.272-5.498h9.505c1,0,1.81-0.811,1.81-1.81c0-1-0.81-1.81-1.81-1.81h-5.375l6.607-5.793l13.092,11.477
	H341.84c-1,0-1.81,0.811-1.81,1.81c0,1,0.811,1.81,1.81,1.81h18.092l10.766,9.438v8.233h-2.599v4.792h-3.782v-6.593h-3.763v-9.304
	H354.5v4.802h-0.799v-2.301l-7.199-3.402v5.703h-3.945v-5.473h-5.399v8.474h-4.254v-6.153h-2.945V195.254z M280.222,204.589
	l7.853,6.885v1.438h-0.69v2.451h-3.727v-7.053h-3.436V204.589z M205.602,221.516l0.633-0.555v0.555H205.602z M303.277,214.913
	l2.631-2.306v2.306H303.277z M323.741,202.307h-1.89v-3.678l1.89-1.657V202.307z M199.196,185.955c0-1.3,1.054-2.353,2.353-2.353
	h26.067c1.3,0,2.353,1.054,2.353,2.353c0,0.842-0.446,1.575-1.111,1.991h5.275c1.3,0,2.353,1.054,2.353,2.353
	c0,1.3-1.054,2.353-2.353,2.353h-26.067c-1.3,0-2.353-1.054-2.353-2.353c0-0.842,0.446-1.575,1.111-1.991h-5.275
	C200.249,188.308,199.196,187.254,199.196,185.955z M267.621,179.8c0-1.3,1.054-2.353,2.353-2.353h26.067
	c1.3,0,2.353,1.054,2.353,2.353c0,0.468-0.14,0.901-0.376,1.267h15.4c1.3,0,2.353,1.054,2.353,2.353c0,1.3-1.054,2.353-2.353,2.353
	h-7.797c0.235,0.366,0.375,0.799,0.375,1.267c0,1.3-1.054,2.353-2.353,2.353h-26.067c-1.3,0-2.353-1.054-2.353-2.353
	c0-1.3,1.054-2.353,2.353-2.353h7.797c-0.235-0.366-0.376-0.799-0.376-1.267c0-0.467,0.14-0.901,0.376-1.267h-15.4
	C268.675,182.153,267.621,181.1,267.621,179.8z M328.806,175.095c0-1.3,1.053-2.353,2.353-2.353h47.427
	c1.3,0,2.353,1.054,2.353,2.353c0,1.3-1.054,2.353-2.353,2.353h-0.362c0.116,0.278,0.181,0.583,0.181,0.904
	c0,0.468-0.14,0.901-0.376,1.267h14.314c1.3,0,2.353,1.054,2.353,2.353c0,1.3-1.053,2.353-2.353,2.353h-7.358
	c0.407,0.423,0.66,0.996,0.66,1.629c0,1.3-1.053,2.353-2.353,2.353h-26.067c-1.3,0-2.353-1.054-2.353-2.353s1.054-2.353,2.353-2.353
	h7.358c-0.407-0.423-0.661-0.995-0.661-1.629c0-0.468,0.14-0.901,0.376-1.267h-4.539c-1.3,0-2.353-1.053-2.353-2.353
	c0-0.32,0.065-0.625,0.181-0.904h-26.429C329.86,177.448,328.806,176.395,328.806,175.095z M538.725,281.856h16.771v-21.051h-16.771
	V281.856z M540.472,262.266h13.276v18.127h-13.276V262.266z M496,252.74c-0.221-0.071-0.342-0.307-0.272-0.527
	c0.071-0.221,0.307-0.342,0.527-0.272c0.221,0.071,0.342,0.307,0.272,0.527C496.457,252.689,496.221,252.811,496,252.74z
	 M499.324,253.363c-0.071,0.221-0.307,0.342-0.527,0.272c-0.221-0.071-0.342-0.307-0.272-0.527c0.07-0.221,0.306-0.342,0.527-0.272
	S499.395,253.142,499.324,253.363z M502.121,254.257c-0.07,0.221-0.307,0.342-0.527,0.272c-0.221-0.071-0.342-0.307-0.272-0.527
	c0.07-0.221,0.307-0.342,0.527-0.272C502.069,253.801,502.191,254.037,502.121,254.257z M498.516,251.443
	c-0.071,0.221-0.307,0.342-0.527,0.272c-0.221-0.07-0.342-0.307-0.272-0.527c0.071-0.221,0.307-0.342,0.527-0.272
	C498.465,250.987,498.587,251.223,498.516,251.443z M501.313,252.338c-0.071,0.221-0.306,0.342-0.527,0.272
	s-0.342-0.307-0.272-0.527c0.071-0.221,0.307-0.342,0.527-0.272C501.262,251.881,501.383,252.117,501.313,252.338z M498.027,256.04
	c0.221,0.07,0.342,0.307,0.272,0.527c-0.071,0.221-0.307,0.342-0.527,0.272c-0.22-0.071-0.342-0.307-0.272-0.527
	C497.571,256.091,497.807,255.97,498.027,256.04z M500.824,256.935c0.221,0.071,0.342,0.307,0.272,0.527
	c-0.071,0.221-0.307,0.342-0.527,0.272c-0.221-0.071-0.342-0.307-0.272-0.527C500.367,256.986,500.603,256.864,500.824,256.935z
	 M503.093,258.101c0.071-0.221,0.307-0.342,0.527-0.272c0.221,0.071,0.342,0.307,0.272,0.527c-0.071,0.221-0.307,0.342-0.527,0.272
	C503.144,258.558,503.022,258.322,503.093,258.101z M497.491,254.648c-0.07,0.221-0.306,0.342-0.527,0.272s-0.342-0.307-0.272-0.527
	c0.071-0.221,0.307-0.342,0.527-0.272C497.44,254.191,497.562,254.428,497.491,254.648z M500.288,255.543
	c-0.071,0.221-0.307,0.342-0.527,0.272c-0.22-0.071-0.342-0.307-0.272-0.527c0.071-0.221,0.307-0.342,0.527-0.272
	C500.237,255.086,500.358,255.322,500.288,255.543z M503.084,256.437c-0.071,0.221-0.307,0.342-0.527,0.272
	c-0.221-0.071-0.342-0.307-0.272-0.527c0.071-0.221,0.307-0.342,0.527-0.272C503.033,255.981,503.155,256.217,503.084,256.437z
	 M499.263,258.747c-0.071,0.221-0.307,0.342-0.527,0.272c-0.221-0.071-0.342-0.307-0.272-0.527c0.07-0.221,0.307-0.342,0.527-0.272
	C499.211,258.291,499.333,258.527,499.263,258.747z M502.059,259.642c-0.07,0.221-0.307,0.342-0.527,0.272
	c-0.221-0.071-0.342-0.307-0.272-0.527c0.07-0.221,0.306-0.342,0.527-0.272C502.008,259.185,502.13,259.421,502.059,259.642z
	 M475.318,249.204c-0.221,0.071-0.457-0.051-0.527-0.272c-0.071-0.221,0.051-0.457,0.272-0.527c0.221-0.07,0.457,0.051,0.527,0.272
	C475.66,248.897,475.539,249.133,475.318,249.204z M472.793,249.571c0.071,0.221-0.051,0.457-0.272,0.527
	c-0.22,0.071-0.457-0.051-0.527-0.272c-0.071-0.221,0.051-0.457,0.272-0.527C472.487,249.229,472.723,249.35,472.793,249.571z
	 M469.997,250.465c0.071,0.221-0.051,0.457-0.272,0.527c-0.221,0.071-0.457-0.051-0.527-0.272c-0.07-0.221,0.051-0.457,0.272-0.527
	C469.69,250.123,469.926,250.245,469.997,250.465z M473.601,247.652c0.071,0.221-0.051,0.457-0.272,0.527
	c-0.221,0.071-0.457-0.051-0.527-0.272s0.051-0.457,0.272-0.527C473.295,247.309,473.531,247.431,473.601,247.652z M470.805,248.546
	c0.071,0.221-0.051,0.457-0.272,0.527s-0.457-0.051-0.527-0.272c-0.071-0.221,0.051-0.457,0.271-0.527
	C470.498,248.204,470.734,248.326,470.805,248.546z M476.592,251.84c-0.104,0.19-0.206,0.382-0.307,0.575
	c-0.202,0.034-0.404-0.077-0.469-0.278c-0.071-0.221,0.051-0.457,0.272-0.527C476.293,251.544,476.505,251.648,476.592,251.84z
	 M473.819,252.776c0.07,0.221-0.051,0.457-0.272,0.527c-0.221,0.071-0.457-0.051-0.527-0.272c-0.071-0.221,0.051-0.457,0.272-0.527
	C473.512,252.433,473.748,252.555,473.819,252.776z M471.022,253.67c0.071,0.221-0.051,0.457-0.272,0.527
	c-0.221,0.071-0.457-0.051-0.527-0.272c-0.071-0.221,0.051-0.457,0.272-0.527C470.716,253.328,470.952,253.45,471.022,253.67z
	 M468.226,254.565c0.071,0.221-0.051,0.457-0.272,0.527s-0.457-0.051-0.527-0.272c-0.071-0.221,0.051-0.457,0.272-0.527
	C467.919,254.223,468.155,254.344,468.226,254.565z M476.624,250.218c-0.07-0.221,0.051-0.457,0.272-0.527
	c0.22-0.071,0.457,0.051,0.527,0.272c0.071,0.221-0.051,0.457-0.272,0.527C476.931,250.56,476.694,250.438,476.624,250.218z
	 M474.627,250.857c0.071,0.221-0.051,0.457-0.272,0.527s-0.457-0.051-0.527-0.272c-0.071-0.221,0.051-0.457,0.272-0.527
	C474.32,250.514,474.556,250.636,474.627,250.857z M471.83,251.751c0.071,0.221-0.051,0.457-0.272,0.527
	c-0.221,0.07-0.457-0.051-0.527-0.272c-0.071-0.221,0.051-0.457,0.272-0.527C471.523,251.409,471.759,251.53,471.83,251.751z
	 M469.034,252.645c0.07,0.221-0.051,0.457-0.272,0.527c-0.221,0.071-0.457-0.051-0.527-0.272c-0.07-0.221,0.051-0.457,0.272-0.527
	C468.727,252.303,468.963,252.425,469.034,252.645z M474.316,255.709c0.159-0.051,0.324,0.001,0.431,0.115
	c-0.089,0.231-0.178,0.462-0.262,0.694c-0.193,0.019-0.38-0.089-0.441-0.281C473.974,256.015,474.096,255.779,474.316,255.709z
	 M472.047,256.875c0.071,0.221-0.051,0.457-0.272,0.527c-0.22,0.07-0.457-0.051-0.527-0.272c-0.071-0.221,0.051-0.457,0.272-0.527
	C471.741,256.533,471.977,256.654,472.047,256.875z M469.251,257.77c0.071,0.221-0.051,0.457-0.272,0.527
	c-0.221,0.071-0.457-0.051-0.527-0.272c-0.071-0.221,0.051-0.457,0.271-0.527C468.944,257.427,469.18,257.549,469.251,257.77z
	 M475.556,253.904c-0.106,0.231-0.208,0.465-0.309,0.699c-0.175-0.003-0.338-0.11-0.394-0.286c-0.071-0.221,0.051-0.457,0.272-0.527
	C475.283,253.739,475.448,253.79,475.556,253.904z M472.855,254.956c0.071,0.221-0.051,0.457-0.272,0.527
	c-0.221,0.071-0.457-0.051-0.527-0.272c-0.071-0.221,0.051-0.457,0.272-0.527C472.548,254.613,472.784,254.735,472.855,254.956z
	 M470.059,255.85c0.071,0.221-0.051,0.457-0.272,0.527c-0.22,0.07-0.457-0.051-0.527-0.272c-0.07-0.221,0.051-0.457,0.272-0.527
	S469.988,255.63,470.059,255.85z M505.021,262.794l-5.729,19.242c-0.089,0.297-0.22,0.57-0.37,0.831h-25.994
	c-0.15-0.26-0.281-0.533-0.37-0.831l-5.729-19.242l0.737,2.475h36.717L505.021,262.794z M505.021,262.794h-38.191h-1.27
	c-0.715,0-1.295-0.58-1.295-1.296c0-0.715,0.58-1.295,1.295-1.295h1.625h6.177h24.929h1.143c0.104-0.074,0.236-0.105,0.367-0.063
	c0.043,0.014,0.079,0.038,0.114,0.063h4.336h2.042c0.716,0,1.296,0.58,1.296,1.295c0,0.716-0.58,1.296-1.296,1.296H505.021z
	 M480.572,248.488c0-0.363,0.294-0.657,0.657-0.657c0.363,0,0.656,0.294,0.656,0.657c0,0.363-0.294,0.656-0.656,0.656
	C480.866,249.145,480.572,248.851,480.572,248.488z M485.168,248.488c0-0.363,0.294-0.657,0.657-0.657
	c0.363,0,0.656,0.294,0.656,0.657c0,0.363-0.294,0.656-0.656,0.656C485.462,249.145,485.168,248.851,485.168,248.488z
	 M489.765,248.488c0-0.363,0.294-0.657,0.657-0.657c0.362,0,0.657,0.294,0.657,0.657c0,0.363-0.294,0.656-0.657,0.656
	C490.059,249.145,489.765,248.851,489.765,248.488z M483.048,246.012c0-0.363,0.294-0.657,0.656-0.657
	c0.363,0,0.657,0.294,0.657,0.657c0,0.363-0.294,0.657-0.657,0.657C483.342,246.668,483.048,246.374,483.048,246.012z
	 M487.645,246.012c0-0.363,0.294-0.657,0.657-0.657c0.363,0,0.657,0.294,0.657,0.657c0,0.363-0.294,0.657-0.657,0.657
	C487.939,246.668,487.645,246.374,487.645,246.012z M476.632,253.099c0.363,0,0.657,0.294,0.657,0.656
	c0,0.363-0.294,0.657-0.657,0.657c-0.363,0-0.656-0.294-0.656-0.657C475.975,253.393,476.269,253.099,476.632,253.099z
	 M480.572,253.755c0-0.363,0.294-0.656,0.657-0.656c0.363,0,0.656,0.294,0.656,0.656c0,0.363-0.294,0.657-0.656,0.657
	C480.866,254.412,480.572,254.118,480.572,253.755z M485.168,253.755c0-0.363,0.294-0.656,0.657-0.656
	c0.363,0,0.656,0.294,0.656,0.656c0,0.363-0.294,0.657-0.656,0.657C485.462,254.412,485.168,254.118,485.168,253.755z
	 M489.765,253.755c0-0.363,0.294-0.656,0.657-0.656c0.362,0,0.657,0.294,0.657,0.656c0,0.363-0.294,0.657-0.657,0.657
	C490.059,254.412,489.765,254.118,489.765,253.755z M494.361,253.755c0-0.363,0.294-0.656,0.657-0.656
	c0.363,0,0.657,0.294,0.657,0.656c0,0.363-0.294,0.657-0.657,0.657C494.655,254.412,494.361,254.118,494.361,253.755z
	 M478.452,251.279c0-0.363,0.294-0.657,0.656-0.657c0.363,0,0.657,0.294,0.657,0.657c0,0.363-0.294,0.657-0.657,0.657
	C478.746,251.936,478.452,251.642,478.452,251.279z M483.048,251.279c0-0.363,0.294-0.657,0.656-0.657
	c0.363,0,0.657,0.294,0.657,0.657c0,0.363-0.294,0.657-0.657,0.657C483.342,251.936,483.048,251.642,483.048,251.279z
	 M487.645,251.279c0-0.363,0.294-0.657,0.657-0.657c0.363,0,0.657,0.294,0.657,0.657c0,0.363-0.294,0.657-0.657,0.657
	C487.939,251.936,487.645,251.642,487.645,251.279z M492.241,251.279c0-0.363,0.294-0.657,0.657-0.657s0.656,0.294,0.656,0.657
	c0,0.363-0.294,0.657-0.656,0.657S492.241,251.642,492.241,251.279z M477.289,259.023c0,0.363-0.294,0.657-0.657,0.657
	c-0.363,0-0.656-0.294-0.656-0.657c0-0.363,0.294-0.657,0.656-0.657C476.995,258.366,477.289,258.66,477.289,259.023z
	 M480.572,259.023c0-0.363,0.294-0.657,0.657-0.657c0.363,0,0.656,0.294,0.656,0.657c0,0.363-0.294,0.657-0.656,0.657
	C480.866,259.68,480.572,259.386,480.572,259.023z M485.168,259.023c0-0.363,0.294-0.657,0.657-0.657
	c0.363,0,0.656,0.294,0.656,0.657c0,0.363-0.294,0.657-0.656,0.657C485.462,259.68,485.168,259.386,485.168,259.023z
	 M489.765,259.023c0-0.363,0.294-0.657,0.657-0.657c0.362,0,0.657,0.294,0.657,0.657c0,0.363-0.294,0.657-0.657,0.657
	C490.059,259.68,489.765,259.386,489.765,259.023z M494.361,259.023c0-0.363,0.294-0.657,0.657-0.657
	c0.363,0,0.657,0.294,0.657,0.657c0,0.363-0.294,0.657-0.657,0.657C494.655,259.68,494.361,259.386,494.361,259.023z
	 M478.452,256.547c0-0.363,0.294-0.657,0.656-0.657c0.363,0,0.657,0.294,0.657,0.657s-0.294,0.657-0.657,0.657
	C478.746,257.203,478.452,256.909,478.452,256.547z M483.048,256.547c0-0.363,0.294-0.657,0.656-0.657
	c0.363,0,0.657,0.294,0.657,0.657s-0.294,0.657-0.657,0.657C483.342,257.203,483.048,256.909,483.048,256.547z M487.645,256.547
	c0-0.363,0.294-0.657,0.657-0.657c0.363,0,0.657,0.294,0.657,0.657s-0.294,0.657-0.657,0.657
	C487.939,257.203,487.645,256.909,487.645,256.547z M492.241,256.547c0-0.363,0.294-0.657,0.657-0.657s0.656,0.294,0.656,0.657
	s-0.294,0.657-0.656,0.657S492.241,256.909,492.241,256.547z M520.788,251.083v-2.626c0-1.566-0.195-3.128-0.58-4.639
	c-0.264-1.034-0.601-2.048-1.083-3.005c-0.215-0.427-0.336-0.91-0.336-1.421c0-1.884,1.638-3.385,3.568-3.156
	c1.387,0.164,2.542,1.276,2.753,2.657c0.093,0.61,0.012,1.193-0.201,1.708c-0.374,0.905-0.71,1.825-0.987,2.758
	c-0.476,1.605-0.774,3.251-0.774,4.936v2.79c0,3.224,0.99,6.296,2.492,9.141c0.183,0.346,0.37,0.691,0.568,1.03
	c0.213,0.367,0.331,0.768,0.331,1.189c0,1.756-2.046,3.179-4.57,3.179c-2.524,0-4.57-1.423-4.57-3.179
	c0-0.42,0.117-0.822,0.331-1.189c0.241-0.414,0.47-0.835,0.689-1.259C519.852,257.215,520.788,254.221,520.788,251.083z
	 M527.482,248.159c0.388,2.751,0.61,5.508,0.654,8.286c0.01,0.631-0.969,0.629-0.979,0c-0.043-2.689-0.619-8.026-0.619-8.026
	C526.451,247.803,527.394,247.538,527.482,248.159z M523.219,272.999l-1.815,9.133h-2.455l1.903-9.133H523.219z M526.675,245.844
	c0.631,0,0.63,0.979,0,0.979C526.044,246.823,526.045,245.844,526.675,245.844z M518.749,296.315h4.121v26.766h-4.121V296.315z
	 M529.521,323.081v-26.766h2.795v26.766H529.521z M501.246,296.315v26.766h-2.795v-26.766H501.246z M427.337,29.679h-17.001V22.1
	C416.094,24.458,421.767,26.978,427.337,29.679z M407.886,29.679H187.391v-8.58c1.748-0.698,3.508-1.371,5.272-2.036h209.949
	c1.765,0.665,3.525,1.339,5.274,2.036V29.679z M184.941,29.679h-17.003c5.571-2.701,11.245-5.221,17.003-7.579V29.679z
	 M417.63,123.567c0,0.001,0,0.001,0,0.002c0,0.023,0.003,0.046,0.003,0.069c0,1.136-0.227,2.218-0.63,3.209
	c-0.372,0.913-0.9,1.743-1.547,2.466c-1.561,1.744-3.822,2.848-6.347,2.848c-2.525,0-4.786-1.104-6.347-2.848
	c-0.647-0.723-1.175-1.553-1.547-2.466c-0.403-0.991-0.63-2.073-0.63-3.209c0-0.023,0.003-0.046,0.003-0.069
	c0-0.001,0-0.001,0-0.002C400.803,123.564,417.42,123.564,417.63,123.567z M382.873,120.209c-2.392,0.254-4.695,0.54-6.901,0.856
	c3.752-4.783,11.627-12.344,15.274-14.278c3.137-0.684,6.497-0.499,6.497-0.499S392.249,108.004,382.873,120.209z M194.685,123.567
	c0,0.001,0,0.001,0,0.002c0,0.023,0.003,0.046,0.003,0.069c0,1.136-0.227,2.218-0.63,3.209c-0.372,0.913-0.899,1.743-1.546,2.466
	c-1.561,1.744-3.822,2.848-6.347,2.848c-2.525,0-4.786-1.104-6.347-2.848c-0.647-0.723-1.175-1.553-1.546-2.466
	c-0.403-0.991-0.63-2.073-0.63-3.209c0-0.023,0.003-0.046,0.004-0.069c0-0.001,0-0.001,0-0.002
	C177.857,123.564,194.475,123.564,194.685,123.567z M159.928,120.209c-2.392,0.254-4.695,0.54-6.901,0.856
	c3.752-4.783,11.627-12.344,15.274-14.278c3.137-0.684,6.497-0.499,6.497-0.499S169.304,108.004,159.928,120.209z"></path>
<path id="color_x5F_5_37_" fill="#96644F" d="M48.429,300.531H12.426v43.484h36.002V300.531z M45.834,341.894H15.021v-38.677h30.813
	V341.894z M148.168,132.981H74.123V239.41h74.045V132.981z M145.384,236.685H76.907V135.706h68.477V236.685z M516.12,239.41h-69.012
	V132.981h74.045v93.911c-0.993,0.751-1.931,2.382-2.784,4.591v-95.777h-68.477v100.979h66.865
	C516.534,237.562,516.322,238.473,516.12,239.41z M218.453,584.606h158.37c-1.602,0.441-3.202,0.888-4.815,1.303h-148.74
	C221.655,585.494,220.055,585.047,218.453,584.606z M151.524,556.981h292.228c-0.775,0.437-1.551,0.872-2.33,1.303H153.854
	C153.075,557.853,152.298,557.418,151.524,556.981z M57.953,474.105h1.982l-0.952,1.302h-0.079
	C58.582,474.977,58.272,474.538,57.953,474.105z M535.341,474.105h1.982c-0.319,0.432-0.629,0.872-0.95,1.302h-0.079
	L535.341,474.105z M39.842,446.48h40.522c-0.419,0.406-0.814,0.836-1.167,1.303H40.612C40.357,447.347,40.095,446.917,39.842,446.48
	z M514.911,446.48h40.522c-0.253,0.437-0.515,0.867-0.77,1.303h-38.585C515.725,447.316,515.331,446.887,514.911,446.48z
	 M595.276,297.638c0,28.645-4.058,56.341-11.61,82.555v-165.11C591.218,241.297,595.276,268.992,595.276,297.638z M65.677,345.056
	h78.886c0,0,0.414,3.755-2.277,3.755c-0.092,0-74.238,0-74.331,0C65.263,348.811,65.677,345.056,65.677,345.056z M137.546,358.468
	H72.693v27.227h64.852V358.468z M105.119,372.147c-2.42,0-4.382-1.962-4.382-4.382s1.962-4.382,4.382-4.382
	c2.42,0,4.382,1.962,4.382,4.382S107.54,372.147,105.119,372.147z M72.693,419.789h64.852v-27.227H72.693V419.789z M105.119,396.234
	c2.42,0,4.382,1.962,4.382,4.382c0,2.42-1.962,4.382-4.382,4.382c-2.42,0-4.382-1.962-4.382-4.382
	C100.738,398.195,102.7,396.234,105.119,396.234z M102.842,341.481v-33.866h3.047v33.866H102.842z M80.551,277.15v-5.241h5.683
	v5.241H80.551z M129.688,277.15H93.769v-5.241h35.919V277.15z M297.638,126.641c20.526,0,37.238-16.29,37.939-36.645
	c0.015-0.441,0.034-0.882,0.034-1.327c0-20.971-17.001-37.972-37.972-37.972c-20.971,0-37.972,17.001-37.972,37.972
	c0,0.445,0.018,0.886,0.034,1.327C260.4,110.351,277.111,126.641,297.638,126.641z M297.638,53.1
	c19.644,0,35.569,15.924,35.569,35.568s-15.925,35.569-35.569,35.569c-19.644,0-35.568-15.925-35.568-35.569
	S277.994,53.1,297.638,53.1z M297.638,120.562c17.614,0,31.894-14.279,31.894-31.894c0-17.614-14.279-31.894-31.894-31.894
	c-17.615,0-31.894,14.279-31.894,31.894C265.744,106.283,280.023,120.562,297.638,120.562z M297.638,59.475
	c16.123,0,29.194,13.07,29.194,29.193c0,16.123-13.07,29.194-29.194,29.194s-29.194-13.07-29.194-29.194
	C268.444,72.545,281.515,59.475,297.638,59.475z M58.071,411.797H22.697c-2.486-5.982-4.793-12.056-6.893-18.228h3.899v2.778h12.563
	v-2.778h25.805v-0.555h-42.46c-2.519-7.45-4.735-15.038-6.667-22.739h10.759v2.778h12.563v-2.778h25.805v-0.555H8.809
	c-1.807-7.264-3.345-14.633-4.607-22.096h15.502v3.056h12.563v-3.056h25.805V411.797z M477.192,535.016
	c-1.25,0.947-2.51,1.881-3.775,2.808H121.859c-1.265-0.927-2.525-1.861-3.775-2.808H477.192z M421.759,146.156H173.516v110.362
	h248.243V146.156z M416.988,251.746h-238.7V150.927h238.7V251.746z M556.908,259.343h-19.595v23.524h19.595V259.343z
	 M555.495,281.856h-16.771v-21.051h16.771V281.856z M562.777,323.081v-26.766h-2.68v-2.034h-6.766v2.034h-4.121v-4.693h-6.923v2.658
	H531.4v2.034h-1.764v-2.034h-6.766v2.034h-4.121v-4.693h-6.923v2.658h-10.887v2.034h-2.373v-2.034H491.8v2.034h-4.121v-4.693h-6.923
	v2.658h-10.887v28.8h-1.752V287.14h97.099v35.941H562.777z M468.117,421.797h46.413v-94.442h-46.413V421.797z M507.655,366.799
	c1.711,0,3.098,1.387,3.098,3.098c0,1.711-1.387,3.098-3.098,3.098c-1.711,0-3.098-1.387-3.098-3.098
	C504.558,368.186,505.945,366.799,507.655,366.799z M518.803,327.354L518.803,327.354l0,94.442h0h46.413h0v-94.442h0H518.803z
	 M525.678,372.995c-1.711,0-3.098-1.387-3.098-3.098c0-1.711,1.387-3.098,3.098-3.098c1.711,0,3.098,1.387,3.098,3.098
	C528.775,371.608,527.388,372.995,525.678,372.995z"></path>
<path id="color_x5F_4_34_" fill="#36BFBE" d="M18.231,339.208h24.392v-33.305H18.231V339.208z M19.907,307.694l20.445,15.869v7.439
	l-20.445-16.365V307.694z M19.907,317.612l20.445,15.869v3.471l-20.445-15.869V317.612z M201.065,370.539
	c0.131-4.879,0.137-11.607,0.04-17.962c2.533,1.007,5.167,2.109,7.871,3.121c-0.518,1.177-0.303,2.598,0.661,3.562l14.625,14.625
	c1.254,1.254,3.286,1.254,4.54,0l14.625-14.625c1.202-1.202,1.239-3.114,0.135-4.375c2.88-1.126,5.66-2.33,8.333-3.44
	c0.019,6.763,0.166,14.026,0.414,19.095c0.138,2.828,0.308,4.981,0.505,5.962c0.581,2.894-1.933,5.457-4.838,4.933
	c-4.83-0.872-37.567-0.555-42.379,0.411c-2.894,0.581-5.458-1.933-4.933-4.838C200.85,375.964,200.982,373.618,201.065,370.539z
	 M398.233,354.884c2.88-1.126,5.66-2.33,8.333-3.44c0.019,6.763,0.166,14.026,0.414,19.095c0.138,2.828,0.308,4.981,0.505,5.962
	c0.581,2.894-1.933,5.457-4.838,4.933c-4.83-0.872-37.567-0.555-42.379,0.411c-2.895,0.581-5.458-1.933-4.933-4.838
	c0.188-1.042,0.321-3.388,0.404-6.468c0.131-4.879,0.137-11.607,0.039-17.962c2.534,1.007,5.167,2.109,7.871,3.121
	c-0.518,1.177-0.303,2.598,0.661,3.562l14.625,14.625c1.254,1.254,3.286,1.254,4.54,0l14.625-14.625
	C399.301,358.057,399.337,356.145,398.233,354.884z M536.293,475.408l0.04,0.054c-1.114,1.493-2.252,2.967-3.393,4.438
	l-21.318-29.154c-1.25-1.71-3.337-2.732-5.584-2.732H89.238c-2.247,0-4.336,1.021-5.586,2.733L62.335,479.9
	c-1.141-1.471-2.279-2.945-3.393-4.437l0.04-0.054l0.952-1.302l19.139-26.175c0.038-0.052,0.085-0.097,0.123-0.148
	c0.354-0.466,0.748-0.896,1.167-1.303c2.291-2.219,5.482-3.522,8.873-3.522h208.4h208.4c3.391,0,6.583,1.303,8.873,3.522
	c0.419,0.406,0.814,0.836,1.167,1.303c0.039,0.051,0.085,0.096,0.123,0.148l19.139,26.175L536.293,475.408z M111.605,529.961
	h372.065c-2.137,1.713-4.294,3.4-6.479,5.055H297.638H118.084C115.899,533.362,113.742,531.674,111.605,529.961z M506.038,449.138
	H89.238c-1.838,0-3.546,0.836-4.568,2.235L63.09,480.884c6.408,8.19,13.242,16.028,20.456,23.498l0.694-0.235l25.15,8.522
	l-12.87,4.361c4.44,4.073,9.008,8.008,13.691,11.808h374.855c4.682-3.8,9.25-7.735,13.691-11.808l-12.871-4.361l25.15-8.522
	l0.694,0.235c7.215-7.469,14.048-15.308,20.456-23.498l-21.58-29.513C509.583,449.973,507.876,449.138,506.038,449.138z
	 M488.152,455.248l22.453,7.608l-22.453,7.608l-22.453-7.608L488.152,455.248z M107.124,455.248l22.453,7.608l-22.453,7.608
	l-22.453-7.608L107.124,455.248z M422.439,519.362l-45.712-13.68l-79.088,13.68l-79.088-13.68l-45.712,13.68L71.338,488.987
	l101.498-30.375l45.712,13.68l79.088-13.68l79.088,13.68l45.712-13.68l101.499,30.375L422.439,519.362z M195.472,205.459h3.109
	v4.352h3.763v11.705h3.258l0.633-0.555v-18.853l3.709,3.602v10.705h1.478l3.103-2.72v-0.581h0.09v-11.775h3.109v-3.081h3.109v9.908
	l14.389-12.615h25.522c1,0,1.81-0.811,1.81-1.81c0-1-0.81-1.81-1.81-1.81h-21.392l13.215-11.585l6.173,5.412h-4.875
	c-1,0-1.81,0.81-1.81,1.81c0,1,0.811,1.81,1.81,1.81h9.004l14.361,12.59l2.993-2.059v4.682l7.853,6.885v-5.264h3.272v-4.872h5.072
	v8.174l3.599-2.851h2.454v8.254h0.805l2.631-2.306v-10.299h4.163v-1.201h2.836v-3.602h8.944v1.124l1.89-1.657v-1.718h1.96
	l6.272-5.498h9.505c1,0,1.81-0.811,1.81-1.81c0-1-0.81-1.81-1.81-1.81h-5.375l6.607-5.793l13.092,11.477H341.84
	c-1,0-1.81,0.811-1.81,1.81c0,1,0.811,1.81,1.81,1.81h18.092l10.766,9.438v-0.921h3.436v-4.052h9.489v9.904h4.09v-7.053h5.726v2.151
	h7.583V164.37H194.254v51.144h1.219V205.459z M331.159,172.742h47.427c1.3,0,2.353,1.054,2.353,2.353c0,1.3-1.054,2.353-2.353,2.353
	h-0.362c0.116,0.278,0.181,0.583,0.181,0.904c0,0.468-0.14,0.901-0.376,1.267h14.314c1.3,0,2.353,1.054,2.353,2.353
	c0,1.3-1.053,2.353-2.353,2.353h-7.358c0.407,0.423,0.66,0.996,0.66,1.629c0,1.3-1.053,2.353-2.353,2.353h-26.067
	c-1.3,0-2.353-1.054-2.353-2.353s1.054-2.353,2.353-2.353h7.358c-0.407-0.423-0.661-0.995-0.661-1.629
	c0-0.468,0.14-0.901,0.376-1.267h-4.539c-1.3,0-2.353-1.053-2.353-2.353c0-0.32,0.065-0.625,0.181-0.904h-26.429
	c-1.3,0-2.353-1.054-2.353-2.353C328.806,173.795,329.86,172.742,331.159,172.742z M269.975,177.447h26.067
	c1.3,0,2.353,1.054,2.353,2.353c0,0.468-0.14,0.901-0.376,1.267h15.4c1.3,0,2.353,1.054,2.353,2.353c0,1.3-1.054,2.353-2.353,2.353
	h-7.797c0.235,0.366,0.375,0.799,0.375,1.267c0,1.3-1.054,2.353-2.353,2.353h-26.067c-1.3,0-2.353-1.054-2.353-2.353
	c0-1.3,1.054-2.353,2.353-2.353h7.797c-0.235-0.366-0.376-0.799-0.376-1.267c0-0.467,0.14-0.901,0.376-1.267h-15.4
	c-1.3,0-2.353-1.054-2.353-2.353C267.621,178.5,268.675,177.447,269.975,177.447z M201.549,183.601h26.067
	c1.3,0,2.353,1.054,2.353,2.353c0,0.842-0.446,1.575-1.111,1.991h5.275c1.3,0,2.353,1.054,2.353,2.353
	c0,1.3-1.054,2.353-2.353,2.353h-26.067c-1.3,0-2.353-1.054-2.353-2.353c0-0.842,0.446-1.575,1.111-1.991h-5.275
	c-1.3,0-2.353-1.054-2.353-2.353S200.249,183.601,201.549,183.601z M540.472,262.266v18.127h13.276v-18.127H540.472z
	 M552.512,279.165l-11.128-8.637v-1.889l11.128,8.637V279.165z M552.512,275.927l-11.128-8.907v-3.779l11.128,8.637V275.927z
	 M467.566,265.268l-0.737-2.475h38.191l-0.737,2.475H467.566z M525.3,272.147h-0.081h-5.716h-0.081l-2.71,10.72h11.298
	L525.3,272.147z M521.404,282.132h-2.455l1.903-9.133h2.367L521.404,282.132z M542.287,291.623h6.923v31.458h-6.923V291.623z
	 M518.749,323.081h-6.923v-31.458h6.923V323.081z M480.756,291.623h6.923v31.458h-6.923V291.623z M86.234,307.615h-5.683V277.15
	h5.683V307.615z M93.769,307.615V277.15h35.919v30.465H93.769z M473.361,260.203h24.929h1.143c0.104-0.074,0.236-0.105,0.367-0.063
	c0.043,0.014,0.079,0.038,0.114,0.063h4.336c-0.194-4.312-1.582-8.693-4.476-9.618c-1.48-0.473-3.164,0.029-4.814,1.076
	c-2.38-4.275-5.594-7.529-9.133-7.529c-2.888,0-5.559,2.169-7.739,5.289c-2.158-1.881-4.537-3.013-6.54-2.372
	c-3.707,1.186-4.95,8.038-4.363,13.155H473.361z M502.059,259.642c-0.07,0.221-0.307,0.342-0.527,0.272
	c-0.221-0.071-0.342-0.307-0.272-0.527c0.07-0.221,0.306-0.342,0.527-0.272C502.008,259.185,502.13,259.421,502.059,259.642z
	 M503.62,257.829c0.221,0.071,0.342,0.307,0.272,0.527c-0.071,0.221-0.307,0.342-0.527,0.272c-0.221-0.071-0.342-0.307-0.272-0.527
	C503.164,257.88,503.4,257.759,503.62,257.829z M502.285,256.182c0.071-0.221,0.307-0.342,0.527-0.272
	c0.221,0.071,0.342,0.307,0.272,0.527c-0.071,0.221-0.307,0.342-0.527,0.272C502.336,256.638,502.215,256.402,502.285,256.182z
	 M501.849,253.73c0.221,0.071,0.342,0.307,0.272,0.527c-0.07,0.221-0.307,0.342-0.527,0.272c-0.221-0.071-0.342-0.307-0.272-0.527
	C501.392,253.781,501.628,253.659,501.849,253.73z M500.514,252.082c0.071-0.221,0.307-0.342,0.527-0.272
	c0.22,0.071,0.342,0.307,0.271,0.527c-0.071,0.221-0.306,0.342-0.527,0.272S500.443,252.303,500.514,252.082z M500.824,256.935
	c0.221,0.071,0.342,0.307,0.272,0.527c-0.071,0.221-0.307,0.342-0.527,0.272c-0.221-0.071-0.342-0.307-0.272-0.527
	C500.367,256.986,500.603,256.864,500.824,256.935z M499.488,255.287c0.071-0.221,0.307-0.342,0.527-0.272
	c0.221,0.07,0.342,0.307,0.272,0.527c-0.071,0.221-0.307,0.342-0.527,0.272C499.54,255.744,499.418,255.508,499.488,255.287z
	 M499.263,258.747c-0.071,0.221-0.307,0.342-0.527,0.272c-0.221-0.071-0.342-0.307-0.272-0.527c0.07-0.221,0.307-0.342,0.527-0.272
	C499.211,258.291,499.333,258.527,499.263,258.747z M499.052,252.835c0.221,0.071,0.342,0.307,0.272,0.527
	c-0.071,0.221-0.307,0.342-0.527,0.272c-0.221-0.071-0.342-0.307-0.272-0.527C498.596,252.887,498.832,252.765,499.052,252.835z
	 M497.717,251.188c0.071-0.221,0.307-0.342,0.527-0.272c0.22,0.07,0.342,0.307,0.272,0.527c-0.071,0.221-0.307,0.342-0.527,0.272
	C497.768,251.645,497.647,251.409,497.717,251.188z M498.027,256.04c0.221,0.07,0.342,0.307,0.272,0.527
	c-0.071,0.221-0.307,0.342-0.527,0.272c-0.22-0.071-0.342-0.307-0.272-0.527C497.571,256.091,497.807,255.97,498.027,256.04z
	 M496.692,254.393c0.071-0.221,0.307-0.342,0.527-0.272c0.221,0.071,0.342,0.307,0.272,0.527c-0.07,0.221-0.306,0.342-0.527,0.272
	S496.622,254.613,496.692,254.393z M495.729,252.213c0.071-0.221,0.307-0.342,0.527-0.272c0.221,0.071,0.342,0.307,0.272,0.527
	c-0.071,0.221-0.307,0.342-0.527,0.272C495.78,252.669,495.658,252.433,495.729,252.213z M495.018,253.099
	c0.363,0,0.657,0.294,0.657,0.656c0,0.363-0.294,0.657-0.657,0.657c-0.363,0-0.657-0.294-0.657-0.657
	C494.361,253.393,494.655,253.099,495.018,253.099z M495.018,258.366c0.363,0,0.657,0.294,0.657,0.657
	c0,0.363-0.294,0.657-0.657,0.657c-0.363,0-0.657-0.294-0.657-0.657C494.361,258.66,494.655,258.366,495.018,258.366z
	 M492.898,250.622c0.363,0,0.656,0.294,0.656,0.657c0,0.363-0.294,0.657-0.656,0.657s-0.657-0.294-0.657-0.657
	C492.241,250.916,492.535,250.622,492.898,250.622z M492.898,255.89c0.363,0,0.656,0.294,0.656,0.657s-0.294,0.657-0.656,0.657
	s-0.657-0.294-0.657-0.657S492.535,255.89,492.898,255.89z M490.422,247.831c0.362,0,0.657,0.294,0.657,0.657
	c0,0.363-0.294,0.656-0.657,0.656c-0.363,0-0.657-0.294-0.657-0.656C489.765,248.125,490.059,247.831,490.422,247.831z
	 M490.422,253.099c0.362,0,0.657,0.294,0.657,0.656c0,0.363-0.294,0.657-0.657,0.657c-0.363,0-0.657-0.294-0.657-0.657
	C489.765,253.393,490.059,253.099,490.422,253.099z M490.422,258.366c0.362,0,0.657,0.294,0.657,0.657
	c0,0.363-0.294,0.657-0.657,0.657c-0.363,0-0.657-0.294-0.657-0.657C489.765,258.66,490.059,258.366,490.422,258.366z
	 M488.301,245.355c0.363,0,0.657,0.294,0.657,0.657c0,0.363-0.294,0.657-0.657,0.657c-0.363,0-0.657-0.294-0.657-0.657
	C487.645,245.649,487.939,245.355,488.301,245.355z M488.301,250.622c0.363,0,0.657,0.294,0.657,0.657
	c0,0.363-0.294,0.657-0.657,0.657c-0.363,0-0.657-0.294-0.657-0.657C487.645,250.916,487.939,250.622,488.301,250.622z
	 M488.301,255.89c0.363,0,0.657,0.294,0.657,0.657s-0.294,0.657-0.657,0.657c-0.363,0-0.657-0.294-0.657-0.657
	S487.939,255.89,488.301,255.89z M485.825,247.831c0.363,0,0.656,0.294,0.656,0.657c0,0.363-0.294,0.656-0.656,0.656
	c-0.363,0-0.657-0.294-0.657-0.656C485.168,248.125,485.462,247.831,485.825,247.831z M485.825,253.099
	c0.363,0,0.656,0.294,0.656,0.656c0,0.363-0.294,0.657-0.656,0.657c-0.363,0-0.657-0.294-0.657-0.657
	C485.168,253.393,485.462,253.099,485.825,253.099z M485.825,258.366c0.363,0,0.656,0.294,0.656,0.657
	c0,0.363-0.294,0.657-0.656,0.657c-0.363,0-0.657-0.294-0.657-0.657C485.168,258.66,485.462,258.366,485.825,258.366z
	 M483.705,245.355c0.363,0,0.657,0.294,0.657,0.657c0,0.363-0.294,0.657-0.657,0.657c-0.363,0-0.656-0.294-0.656-0.657
	C483.048,245.649,483.342,245.355,483.705,245.355z M483.705,250.622c0.363,0,0.657,0.294,0.657,0.657
	c0,0.363-0.294,0.657-0.657,0.657c-0.363,0-0.656-0.294-0.656-0.657C483.048,250.916,483.342,250.622,483.705,250.622z
	 M483.705,255.89c0.363,0,0.657,0.294,0.657,0.657s-0.294,0.657-0.657,0.657c-0.363,0-0.656-0.294-0.656-0.657
	S483.342,255.89,483.705,255.89z M481.229,247.831c0.363,0,0.656,0.294,0.656,0.657c0,0.363-0.294,0.656-0.656,0.656
	c-0.363,0-0.657-0.294-0.657-0.656C480.572,248.125,480.866,247.831,481.229,247.831z M481.229,253.099
	c0.363,0,0.656,0.294,0.656,0.656c0,0.363-0.294,0.657-0.656,0.657c-0.363,0-0.657-0.294-0.657-0.657
	C480.572,253.393,480.866,253.099,481.229,253.099z M481.229,258.366c0.363,0,0.656,0.294,0.656,0.657
	c0,0.363-0.294,0.657-0.656,0.657c-0.363,0-0.657-0.294-0.657-0.657C480.572,258.66,480.866,258.366,481.229,258.366z
	 M479.108,250.622c0.363,0,0.657,0.294,0.657,0.657c0,0.363-0.294,0.657-0.657,0.657c-0.362,0-0.656-0.294-0.656-0.657
	C478.452,250.916,478.746,250.622,479.108,250.622z M479.108,255.89c0.363,0,0.657,0.294,0.657,0.657s-0.294,0.657-0.657,0.657
	c-0.362,0-0.656-0.294-0.656-0.657S478.746,255.89,479.108,255.89z M469.787,256.378c-0.22,0.07-0.457-0.051-0.527-0.272
	c-0.07-0.221,0.051-0.457,0.272-0.527s0.457,0.051,0.527,0.272C470.129,256.071,470.008,256.307,469.787,256.378z M472.583,255.483
	c-0.221,0.071-0.457-0.051-0.527-0.272c-0.071-0.221,0.051-0.457,0.272-0.527c0.221-0.071,0.457,0.051,0.527,0.272
	C472.926,255.176,472.804,255.413,472.583,255.483z M475.246,254.603c-0.175-0.003-0.338-0.11-0.394-0.286
	c-0.071-0.221,0.051-0.457,0.272-0.527c0.159-0.051,0.324,0.001,0.431,0.114C475.45,254.135,475.348,254.369,475.246,254.603z
	 M476.632,259.68c-0.363,0-0.656-0.294-0.656-0.657c0-0.363,0.294-0.657,0.656-0.657c0.363,0,0.657,0.294,0.657,0.657
	C477.289,259.386,476.995,259.68,476.632,259.68z M476.632,254.412c-0.363,0-0.656-0.294-0.656-0.657
	c0-0.363,0.294-0.656,0.656-0.656c0.363,0,0.657,0.294,0.657,0.656C477.289,254.118,476.995,254.412,476.632,254.412z
	 M476.896,249.69c0.22-0.071,0.457,0.051,0.527,0.272c0.071,0.221-0.051,0.457-0.272,0.527c-0.221,0.07-0.457-0.051-0.527-0.272
	C476.553,249.997,476.675,249.761,476.896,249.69z M476.088,251.609c0.205-0.066,0.417,0.039,0.504,0.23
	c-0.104,0.19-0.206,0.382-0.307,0.575c-0.202,0.034-0.404-0.077-0.469-0.278C475.746,251.916,475.867,251.68,476.088,251.609z
	 M475.063,248.405c0.221-0.07,0.457,0.051,0.527,0.272c0.071,0.221-0.051,0.457-0.272,0.527c-0.221,0.071-0.457-0.051-0.527-0.272
	C474.72,248.711,474.842,248.475,475.063,248.405z M474.486,256.517c-0.193,0.019-0.38-0.089-0.441-0.281
	c-0.07-0.221,0.051-0.457,0.272-0.527c0.159-0.051,0.324,0.001,0.431,0.115C474.659,256.054,474.57,256.285,474.486,256.517z
	 M474.099,250.585c0.221-0.07,0.457,0.051,0.527,0.272c0.071,0.221-0.051,0.457-0.272,0.527s-0.457-0.051-0.527-0.272
	C473.757,250.891,473.879,250.655,474.099,250.585z M473.819,252.776c0.07,0.221-0.051,0.457-0.272,0.527
	c-0.221,0.071-0.457-0.051-0.527-0.272c-0.071-0.221,0.051-0.457,0.272-0.527C473.512,252.433,473.748,252.555,473.819,252.776z
	 M473.074,247.38c0.22-0.071,0.457,0.051,0.527,0.272c0.071,0.221-0.051,0.457-0.272,0.527c-0.221,0.071-0.457-0.051-0.527-0.272
	S472.853,247.451,473.074,247.38z M472.266,249.299c0.221-0.071,0.457,0.051,0.527,0.272c0.071,0.221-0.051,0.457-0.272,0.527
	c-0.22,0.071-0.457-0.051-0.527-0.272C471.924,249.606,472.046,249.37,472.266,249.299z M472.047,256.875
	c0.071,0.221-0.051,0.457-0.272,0.527c-0.22,0.07-0.457-0.051-0.527-0.272c-0.071-0.221,0.051-0.457,0.272-0.527
	C471.741,256.533,471.977,256.654,472.047,256.875z M471.303,251.479c0.221-0.071,0.457,0.051,0.527,0.272
	c0.071,0.221-0.051,0.457-0.272,0.527c-0.221,0.07-0.457-0.051-0.527-0.272C470.961,251.786,471.082,251.55,471.303,251.479z
	 M471.022,253.67c0.071,0.221-0.051,0.457-0.272,0.527c-0.221,0.071-0.457-0.051-0.527-0.272c-0.071-0.221,0.051-0.457,0.272-0.527
	C470.716,253.328,470.952,253.45,471.022,253.67z M470.277,248.275c0.221-0.071,0.457,0.051,0.527,0.272
	c0.071,0.221-0.051,0.457-0.272,0.527s-0.457-0.051-0.527-0.272C469.935,248.581,470.057,248.345,470.277,248.275z M469.47,250.194
	c0.221-0.07,0.457,0.051,0.527,0.272c0.071,0.221-0.051,0.457-0.272,0.527c-0.221,0.071-0.457-0.051-0.527-0.272
	C469.127,250.5,469.249,250.264,469.47,250.194z M469.251,257.77c0.071,0.221-0.051,0.457-0.272,0.527
	c-0.221,0.071-0.457-0.051-0.527-0.272c-0.071-0.221,0.051-0.457,0.271-0.527C468.944,257.427,469.18,257.549,469.251,257.77z
	 M468.506,252.374c0.221-0.071,0.457,0.051,0.527,0.272c0.07,0.221-0.051,0.457-0.272,0.527c-0.221,0.071-0.457-0.051-0.527-0.272
	C468.164,252.68,468.285,252.444,468.506,252.374z M467.698,254.293c0.221-0.07,0.457,0.051,0.527,0.272
	c0.071,0.221-0.051,0.457-0.272,0.527s-0.457-0.051-0.527-0.272C467.356,254.6,467.478,254.364,467.698,254.293z M206.604,483.999
	l28.839,4.988l-28.839,4.988l-24.414,4.223l-13.069-2.261l20.512-6.951l-20.513-6.951l13.069-2.261L206.604,483.999z
	 M414.617,479.776l12.055,2.085l-21.03,7.126l21.03,7.126l-12.055,2.085l-25.179-4.355l-28.073-4.856l28.073-4.856L414.617,479.776z
	 M174.196,488.987l-25.15,8.522l-25.15-8.522l25.15-8.522L174.196,488.987z M420.323,488.987l25.15-8.522l25.15,8.522l-25.15,8.522
	L420.323,488.987z"></path>
<path id="color_x5F_3_38_" fill="#DE3E37" d="M538.166,294.281v28.8h-5.851v-26.766H531.4v-2.034H538.166z M507.705,323.081h4.121
	v-28.8h-4.121V323.081z M469.869,323.081h6.766v-28.8h-6.766V323.081z M77.967,323.567l13.929,11.149v-5.068l-13.929-10.811V323.567
	z M77.967,327.959l13.929,10.811v-2.365l-13.929-10.811V327.959z M84.041,142.719h54.209v86.954H84.041V142.719z M87.765,165.52
	l45.436,42.725v-19.421l-45.436-41.431V165.52z M87.765,182.351l45.436,41.431v-9.063l-45.436-41.431V182.351z M511.234,229.673
	h-54.208v-86.954h54.208V229.673z M506.185,214.719l-45.436-41.431v9.063l45.436,41.431V214.719z M506.185,188.824l-45.436-41.431
	v18.126l45.436,42.725V188.824z M406.63,342.357c11.14-2.659,21.109-8.559,28.945-16.729v-10.604
	c0-8.513-6.901-15.413-15.413-15.413H187.573c-8.513,0-15.413,6.901-15.413,15.413v10.604c7.772,8.103,17.643,13.973,28.672,16.663
	c-0.15-3.668-0.346-6.495-0.581-7.665c-0.581-2.894,1.933-5.457,4.838-4.933c4.83,0.872,37.567,0.555,42.379-0.411
	c2.894-0.581,5.458,1.933,4.933,4.838c-0.252,1.394-0.404,5.118-0.47,9.819h103.637c-0.157-4.465-0.375-7.974-0.644-9.314
	c-0.581-2.894,1.933-5.457,4.838-4.933c4.83,0.872,37.567,0.555,42.379-0.411c2.894-0.581,5.458,1.933,4.933,4.838
	C406.851,335.355,406.706,338.414,406.63,342.357z M407.484,376.501c0.581,2.894-1.933,5.457-4.838,4.933
	c-4.83-0.872-37.567-0.555-42.379,0.411c-2.895,0.581-5.458-1.933-4.933-4.838c0.188-1.042,0.321-3.388,0.404-6.468h-41.107
	c-5.027,0-9.282,3.107-10.763,7.403c-1.481-4.296-5.737-7.403-10.763-7.403h-40.797c0.138,2.828,0.308,4.981,0.505,5.962
	c0.581,2.894-1.933,5.457-4.838,4.933c-4.83-0.872-37.567-0.555-42.379,0.411c-2.894,0.581-5.458-1.933-4.933-4.838
	c0.188-1.042,0.321-3.388,0.404-6.468h-4.064v17.071h213.733v-17.071h-3.754C407.118,373.367,407.287,375.52,407.484,376.501z
	 M197.001,407.878h213.733v-12.617H197.001V407.878z M167.955,332.22c-4.891-0.846-10.162,0.637-15.441,5.768
	c-13.053,12.69,6.142,24.257,6.142,37.276v50.447c0,3.469,2.812,6.28,6.28,6.28h20.683c3.469,0,6.281-2.812,6.281-6.28v-61.14
	C191.9,354.351,181.357,334.537,167.955,332.22z M439.78,332.22c-13.402,2.318-23.945,22.131-23.945,32.351v61.14
	c0,3.469,2.812,6.28,6.28,6.28h20.683c3.469,0,6.28-2.812,6.28-6.28v-50.447c0-13.02,19.196-24.587,6.142-37.276
	C449.942,332.856,444.671,331.374,439.78,332.22z M228.801,340.095c-1.254-1.254-3.286-1.254-4.54,0l-14.625,14.625
	c-0.29,0.29-0.505,0.624-0.661,0.978c-0.518,1.177-0.303,2.598,0.661,3.562l14.625,14.625c1.254,1.254,3.286,1.254,4.54,0
	l14.625-14.625c1.202-1.202,1.239-3.114,0.135-4.375c-0.047-0.054-0.083-0.114-0.135-0.165L228.801,340.095z M383.474,340.095
	c-1.254-1.254-3.286-1.254-4.54,0l-14.625,14.625c-0.29,0.29-0.505,0.624-0.661,0.978c-0.518,1.177-0.303,2.598,0.661,3.562
	l14.625,14.625c1.254,1.254,3.286,1.254,4.54,0l14.625-14.625c1.202-1.202,1.239-3.114,0.135-4.375
	c-0.047-0.054-0.083-0.114-0.135-0.165L383.474,340.095z M223.25,216.714v-3.602h-8.635h-0.09v0.581v2.72v10.505h-4.581v-10.505
	v-10.705l-3.709-3.602v18.853v0.555h-0.633h-3.258h-0.254v-6.003h-6.618h-1.219v22.79h1.219h204.331h1.218v-33.395h-7.583h-0.908
	v17.808h-4.145v-5.202h-7.635v-10.175h-5.672v5.773h-4.382h-2.599v4.792v9.814h-5.017v-5.603h-9.38v-15.307v-2.301l-7.199-3.402
	v5.703v9.104h-5.672v11.205h-5.89v-6.603h-5.017V208.51h-8.072v-6.203v-3.678v-1.124h-8.944v3.602h-2.836v1.201v22.21H304.4v8.404
	l-3.49-4.402v-9.404h-6.544v-6.203h-6.29h-0.69v2.451v12.155h-3.709v-3.802l-4.581-3.201v-13.176l-4.763,4.16l-0.472,0.412v4.202
	l-3.618,2.62l-0.526,0.381v11.005h-3.49v-8.004h-8.726v4.802h-6.762v-9.931v-0.473h-0.631h-5.041v-5.502v-8.904h-7.635v5.232h-3.272
	v3.672v12.105l-4.363-2.401v-4.002H223.25z M530.943,260.269c0,9.964-2.389,11.622-5.723,11.878h-5.716
	c-3.334-0.256-5.723-1.914-5.723-11.878c0-5.491,0.726-12.599,1.935-18.883c0.009-0.046,0.017-0.092,0.026-0.138
	c0.121-0.623,0.248-1.233,0.378-1.837c0.202-0.938,0.414-1.848,0.637-2.725c0.492-1.936,1.032-3.701,1.611-5.202
	c0.853-2.209,1.791-3.84,2.784-4.591c0.395-0.299,0.798-0.468,1.209-0.468C527.101,226.424,530.943,247.632,530.943,260.269z
	 M526.538,248.419c0,0,0.577,5.337,0.619,8.026c0.01,0.629,0.989,0.631,0.979,0c-0.044-2.779-0.267-5.535-0.654-8.286
	C527.394,247.538,526.451,247.803,526.538,248.419z M526.675,245.844c-0.63,0-0.631,0.979,0,0.979
	C527.305,246.823,527.306,245.844,526.675,245.844z M522.362,229.861c-2.483,0-4.496,5.281-4.496,11.796
	c0,4.467,0.947,3.322,2.343,2.161c0.384,1.511,0.58,3.073,0.58,4.639v2.626c0,3.138-0.936,6.132-2.37,8.912
	c-2.363-0.845-3.958-1.591-3.958,1.67c0,4.864,3.538,8.806,7.902,8.806c4.364,0,7.902-3.943,7.902-8.806
	c0-3.558-1.898-2.348-4.623-1.441c-1.502-2.844-2.492-5.916-2.492-9.141v-2.79c0-1.685,0.298-3.331,0.774-4.936
	c1.714,1.206,2.936,3.374,2.936-1.701C526.858,235.142,524.845,229.861,522.362,229.861z M442.275,124.706
	c-5.125-0.552-13.323-0.991-24.644-1.138c0,0.023,0.003,0.046,0.003,0.069c0,1.136-0.227,2.218-0.63,3.209
	c12.452-0.13,20.449-0.563,25.273-1.053C442.898,125.73,442.896,124.773,442.275,124.706z M375.946,124.706
	c-0.621,0.067-0.623,1.024-0.002,1.087c4.823,0.491,12.821,0.924,25.273,1.053c-0.403-0.991-0.63-2.073-0.63-3.209
	c0-0.023,0.003-0.046,0.003-0.069C389.27,123.716,381.072,124.154,375.946,124.706z M409.111,121.065
	c-7.834,0-32.57,0.169-39.296,2.222c4.344-4.38,16.978-16.783,21.49-17.514c1.561-0.253,3.126-0.468,4.695-0.654
	c8.71-1.034,17.512-1.034,26.222,0c1.568,0.186,3.134,0.401,4.694,0.654c4.512,0.731,17.146,13.134,21.49,17.514
	C441.682,121.234,416.944,121.065,409.111,121.065z M382.873,120.209c9.376-12.205,14.87-13.921,14.87-13.921
	s-3.36-0.185-6.497,0.499c-3.647,1.934-11.522,9.496-15.274,14.278C378.179,120.749,380.481,120.463,382.873,120.209z
	 M383.827,120.112c7.944-0.806,16.803-1.258,26.152-1.258c11.624,0,22.495,0.697,31.784,1.907
	c-4.219-4.954-12.154-12.55-14.835-14.055c-9.11-1.764-21.389-2.029-27.399-0.793C395.109,106.821,387.529,115.554,383.827,120.112z
	 M407.568,87.284l-2.343,0.094c-0.879,0.035-1.628,0.649-1.835,1.504l-3.477,14.327l5.818-0.306L407.568,87.284z M219.331,125.793
	c0.621-0.063,0.619-1.02-0.002-1.087c-5.125-0.552-13.323-0.991-24.644-1.138c0,0.023,0.003,0.046,0.003,0.069
	c0,1.136-0.227,2.218-0.63,3.209C206.51,126.717,214.508,126.284,219.331,125.793z M153.001,124.706
	c-0.621,0.067-0.623,1.024-0.002,1.087c4.823,0.491,12.821,0.924,25.274,1.053c-0.403-0.991-0.63-2.073-0.63-3.209
	c0-0.023,0.003-0.046,0.004-0.069C166.324,123.716,158.127,124.154,153.001,124.706z M186.166,121.065
	c-7.833,0-32.57,0.169-39.296,2.222c4.344-4.38,16.978-16.783,21.49-17.514c1.561-0.253,3.126-0.468,4.695-0.654
	c8.71-1.034,17.512-1.034,26.222,0c1.568,0.186,3.133,0.401,4.695,0.654c4.512,0.731,17.146,13.134,21.49,17.514
	C218.737,121.234,193.999,121.065,186.166,121.065z M159.928,120.209c9.376-12.205,14.87-13.921,14.87-13.921
	s-3.36-0.185-6.497,0.499c-3.647,1.934-11.522,9.496-15.274,14.278C155.234,120.749,157.536,120.463,159.928,120.209z
	 M160.882,120.112c7.945-0.806,16.803-1.258,26.152-1.258c11.624,0,22.495,0.697,31.784,1.907
	c-4.219-4.954-12.154-12.55-14.835-14.055c-9.11-1.764-21.389-2.029-27.399-0.793C172.164,106.821,164.584,115.554,160.882,120.112z
	 M184.623,87.284l-2.343,0.094c-0.879,0.035-1.628,0.649-1.835,1.504l-3.477,14.327l5.818-0.306L184.623,87.284z"></path>
<path id="color_x5F_2_37_" fill="#D1A175" d="M223.268,585.909h148.74c-23.771,6.115-48.691,9.367-74.37,9.367
	C271.958,595.276,247.038,592.023,223.268,585.909z M218.453,584.606h158.37c22.74-6.261,44.387-15.149,64.599-26.323H153.854
	C174.066,569.457,195.713,578.345,218.453,584.606z M121.859,537.825c9.478,6.948,19.38,13.349,29.665,19.156h292.228
	c10.284-5.807,20.187-12.208,29.665-19.156H121.859z M29.55,427.078v-3.023h-1.424C28.6,425.063,29.065,426.076,29.55,427.078z
	 M57.953,474.105h1.982l19.139-26.175c0.038-0.052,0.085-0.097,0.123-0.148H40.612C45.936,456.876,51.725,465.661,57.953,474.105z
	 M463.843,434.898v-10.844h-14.764v1.657c0,3.469-2.812,6.28-6.28,6.28h-12.145v5.357h-8.946v-5.357H186.027v5.357h-8.945v-5.357
	h-12.145c-3.469,0-6.28-2.812-6.28-6.28v-1.657H141.89v2.756h-1.543c0,0-0.577,2.887-2.598,2.887c-0.218,0-0.785,0-1.594,0
	l0.722,7.651h-2.743l-4.619-7.651c-9.633,0-39.158,0-48.791,0l-4.619,7.651h-2.743l0.722-7.651c-0.809,0-1.376,0-1.594,0
	c-2.021,0-2.598-2.887-2.598-2.887h-1.543v-2.756h-23.18v13.294h-5.857v-13.294h-4.184v13.187h-0.402
	c1.655,3.111,3.354,6.195,5.116,9.239h40.522c2.291-2.219,5.482-3.522,8.873-3.522h416.8c3.391,0,6.583,1.303,8.873,3.522h40.522
	c2.203-3.807,4.316-7.671,6.352-11.582H463.843z M58.943,475.462l0.04-0.054h-0.079C58.916,475.426,58.929,475.444,58.943,475.462z
	 M516.202,447.931l19.139,26.175h1.982c6.228-8.445,12.018-17.23,17.341-26.323h-38.585
	C516.117,447.834,516.164,447.879,516.202,447.931z M536.333,475.462c0.013-0.018,0.026-0.036,0.04-0.054h-0.079L536.333,475.462z
	 M297.638,0c-36.955,0-72.327,6.754-104.975,19.063h209.949C369.964,6.754,334.592,0,297.638,0z"></path>
<path id="color_x5F_1_36_" fill="#BCE4E8" d="M376.726,472.293l-79.088-13.68l-79.088,13.68l-45.712-13.68L71.338,488.987
	l101.498,30.375l45.712-13.68l79.088,13.68l79.088-13.68l45.712,13.68l101.499-30.375l-101.499-30.375L376.726,472.293z
	 M445.924,475.338l40.282,13.649l-40.282,13.649l-19.252-6.523l-12.055,2.085l-25.179-4.355l-33.125,5.73l-58.674,10.149
	l-58.674-10.149l-32.36-5.597l-24.414,4.223l-13.069-2.261l-19.769,6.699l-40.282-13.649l40.282-13.649l19.769,6.699l13.069-2.261
	l24.414,4.223l32.359-5.597l58.674-10.149l58.674,10.149l33.125,5.73l25.18-4.355l12.055,2.085L445.924,475.338z M560.097,296.315
	h2.68v26.766h-2.68h-0.115v-26.766H560.097z M427.337,29.679h-17.001v55.035c3.332,0.118,6.376,0.717,6.758,1.8
	c0.673,1.914,3.819,13.683,5.128,18.606c1.568,0.186,3.134,0.401,4.694,0.654c4.512,0.731,17.146,13.134,21.49,17.514
	c0.454,0.139,0.828,0.286,1.107,0.443c1.18,0.661,1.055,1.626,0.989,1.906c-0.248,1.046-0.828,3.417-35.045,3.677
	c-1.561,1.744-3.822,2.848-6.347,2.848c-2.525,0-4.786-1.104-6.347-2.848c-34.218-0.259-34.798-2.63-35.046-3.677
	c-0.066-0.28-0.191-1.245,0.989-1.906c0.279-0.157,0.653-0.304,1.107-0.443c4.344-4.38,16.978-16.783,21.49-17.514
	c1.561-0.253,3.126-0.468,4.695-0.654c1.309-4.923,4.455-16.692,5.128-18.606c0.381-1.083,3.426-1.682,6.759-1.8V29.679H187.391
	v55.035c3.332,0.118,6.377,0.717,6.758,1.8c0.673,1.914,3.819,13.683,5.128,18.606c1.568,0.186,3.133,0.401,4.695,0.654
	c4.512,0.731,17.146,13.134,21.49,17.514c0.454,0.139,0.828,0.286,1.107,0.443c1.18,0.661,1.055,1.626,0.989,1.906
	c-0.248,1.046-0.828,3.417-35.045,3.677c-1.561,1.744-3.822,2.848-6.347,2.848c-2.525,0-4.786-1.104-6.347-2.848
	c-34.218-0.259-34.798-2.63-35.046-3.677c-0.066-0.28-0.191-1.245,0.99-1.906c0.279-0.157,0.653-0.304,1.107-0.443
	c4.344-4.38,16.978-16.783,21.49-17.514c1.561-0.253,3.126-0.468,4.695-0.654c1.309-4.923,4.454-16.692,5.128-18.606
	c0.381-1.083,3.426-1.682,6.758-1.8V29.679h-17.003C68.539,77.88,0,179.752,0,297.638c0,15.777,1.239,31.264,3.603,46.378h8.823
	v-43.484h36.002v43.484H60.38v66.145h7.969v-61.349c-0.165,0-0.302,0-0.394,0c-2.692,0-2.278-3.755-2.278-3.755h-1.553v-1.408h8.746
	v-29.691h24.528v29.691h3.462v-2.167h1.981v-33.866h-22.29v-35.706h49.137v35.706h-22.29v33.866h1.981v2.167h36.737v1.408h-1.553
	c0,0,0.414,3.755-2.277,3.755c-0.092,0-0.23,0-0.395,0v61.349h16.766v-34.896c0-13.02-19.196-24.587-6.142-37.276
	c5.279-5.132,10.55-6.614,15.441-5.768c1.424-0.248,2.829-0.284,4.205-0.129v-17.066c0-8.513,6.901-15.413,15.413-15.413h232.589
	c8.512,0,15.413,6.901,15.413,15.413v17.066c1.376-0.155,2.781-0.119,4.205,0.129c4.891-0.846,10.162,0.637,15.441,5.768
	c13.054,12.69-6.142,24.257-6.142,37.276v34.896h14.764V282.867h9.085c-0.15-0.26-0.281-0.533-0.37-0.831l-5.729-19.242h-1.27
	c-0.715,0-1.295-0.58-1.295-1.296c0-0.715,0.58-1.295,1.295-1.295h1.625c-0.587-5.116,0.656-11.969,4.363-13.155
	c2.004-0.641,4.382,0.491,6.54,2.372c2.18-3.12,4.85-5.289,7.739-5.289c3.539,0,6.753,3.254,9.133,7.529
	c1.65-1.047,3.334-1.549,4.814-1.076c2.893,0.926,4.281,5.307,4.476,9.618h2.042c0.716,0,1.296,0.58,1.296,1.295
	c0,0.716-0.58,1.296-1.296,1.296h-1.27l-5.729,19.242c-0.089,0.297-0.22,0.57-0.37,0.831h17.791l2.71-10.72h0.081
	c-3.334-0.256-5.723-1.914-5.723-11.878c0-5.491,0.726-12.599,1.935-18.883c0.009-0.046,0.017-0.092,0.026-0.138h-68.634V132.981
	h74.045v93.911c0.395-0.299,0.798-0.468,1.209-0.468c4.739,0,8.581,21.208,8.581,33.844c0,9.964-2.389,11.622-5.723,11.878h0.081
	l2.711,10.72h9.301v-23.524h19.595v23.524h12.582v127.294h3.757c0.044-0.108,0.088-0.215,0.132-0.323V194.39h3.49
	C550.13,122.101,496.127,63.037,427.337,29.679z M148.168,241.248H74.123V132.981h74.045V241.248z M259.666,88.668
	c0-20.971,17.001-37.972,37.972-37.972c20.971,0,37.972,17.001,37.972,37.972c0,0.445,0,2.209,0,2.654
	c0,20.971-17.001,37.972-37.972,37.972c-20.971,0-37.972-17.001-37.972-37.972C259.666,90.877,259.666,89.113,259.666,88.668z
	 M421.759,259.262H173.516V146.156h248.243V259.262z M19.907,307.694l20.445,15.869v7.439l-20.445-16.365V307.694z M19.907,317.612
	l20.445,15.869v3.471l-20.445-15.869V317.612z M251.931,343.94c-0.033,2.317-0.045,4.869-0.037,7.503
	c-2.673,1.111-5.453,2.314-8.333,3.44c-0.047-0.054-0.083-0.114-0.135-0.165l-14.625-14.625c-1.254-1.254-3.286-1.254-4.54,0
	l-14.625,14.625c-0.29,0.29-0.505,0.624-0.661,0.978c-2.704-1.012-5.338-2.114-7.871-3.121c-0.057-3.706-0.149-7.277-0.273-10.285
	c-0.15-3.668-0.346-6.495-0.581-7.665c-0.581-2.894,1.933-5.457,4.838-4.933c4.83,0.872,37.567,0.555,42.379-0.411
	c2.894-0.581,5.458,1.933,4.933,4.838C252.149,335.516,251.997,339.24,251.931,343.94z M406.63,342.357
	c-0.053,2.71-0.073,5.837-0.064,9.087c-2.673,1.111-5.453,2.314-8.333,3.44c-0.047-0.054-0.083-0.114-0.135-0.165l-14.625-14.625
	c-1.254-1.254-3.286-1.254-4.54,0l-14.625,14.625c-0.29,0.29-0.505,0.624-0.661,0.978c-2.704-1.012-5.338-2.114-7.871-3.121
	c-0.047-3.048-0.117-6.007-0.21-8.636c-0.157-4.465-0.375-7.974-0.644-9.314c-0.581-2.894,1.933-5.457,4.838-4.933
	c4.83,0.872,37.567,0.555,42.379-0.411c2.894-0.581,5.458,1.933,4.933,4.838C406.851,335.355,406.706,338.414,406.63,342.357z
	 M297.638,479.776l53.253,9.211l-53.253,9.211l-53.253-9.211L297.638,479.776z M84.24,504.147l25.15,8.522l-12.87,4.361
	c-4.452-4.084-8.777-8.303-12.974-12.648L84.24,504.147z M511.036,504.147l0.694,0.235c-4.197,4.345-8.521,8.564-12.973,12.648
	l-12.871-4.361L511.036,504.147z M129.577,462.856l-22.453,7.608l-22.453-7.608l22.453-7.608L129.577,462.856z M465.699,462.856
	l22.453-7.608l22.453,7.608l-22.453,7.608L465.699,462.856z M552.512,275.927l-11.128-8.907v-3.779l11.128,8.637V275.927z
	 M541.384,268.639l11.128,8.637v1.889l-11.128-8.637V268.639z M549.21,296.315h4.121v26.766h-4.121V296.315z M491.8,323.081h-4.121
	v-26.766h4.121V323.081z M501.246,323.081v-26.766h-0.307v-2.034h6.766v28.8H501.246z"></path>
</svg>