<?xml version="1.0" standalone="no"?>
<svg version="1.1" id="Layer_1" xmlns="http://www.w3.org/2000/svg" xmlns:xlink="http://www.w3.org/1999/xlink" x="0px" y="0px" viewBox="0 0 595.276 595.276" enable-background="new 0 0 595.276 595.276" xml:space="preserve">
<path id="color_x5F_8" fill="#4C1C10" d="M349.383,394.785v6.724c-2.42-0.249-4.856-0.481-7.306-0.695v-0.882l5.139-5.146
	H349.383z M445.122,412.323v-6.887c-2.256-0.871-4.536-1.726-6.859-2.553v9.44H445.122z M352.765,401.872
	c2.45,0.27,4.887,0.556,7.304,0.861v-7.947h-7.304V401.872z M374.139,404.733c2.455,0.388,4.891,0.795,7.306,1.219v-11.167h-7.306
	V404.733z M395.513,408.67c1.645,0.348,3.279,0.705,4.902,1.071c0.807,0.182,1.602,0.372,2.403,0.557v-15.512h-7.306V408.67z
	 M363.452,403.175c2.452,0.328,4.889,0.672,7.306,1.035v-9.425h-7.306V403.175z M384.827,406.56c0.501,0.092,1,0.186,1.499,0.279
	c1.951,0.367,3.884,0.747,5.806,1.137v-13.191h-7.305V406.56z M434.881,401.697c-2.401-0.822-4.84-1.616-7.306-2.391v13.017h7.306
	V401.697z M424.193,398.265c-2.409-0.728-4.839-1.438-7.304-2.122v16.179h7.304V398.265z M413.507,412.323v-17.095
	c-0.572-0.152-1.159-0.292-1.735-0.442h-5.571v16.309c1.658,0.4,3.302,0.81,4.934,1.228H413.507z M351.095,243.567h-6.796v-0.218
	l-0.079,0.218l-5.817,16.026v8.711h12.358L351.095,243.567z M412.982,268.303l0.335-24.736h-6.616l0.335,24.736H412.982z
	 M356.923,243.567l0.335,24.736h5.947l0.335-24.736H356.923z M375.649,268.303l0.335-24.736h-6.616l0.335,24.736H375.649z
	 M388.428,243.567h-6.616l0.335,24.736h5.947L388.428,243.567z M400.538,268.303l0.335-24.736h-6.616l0.335,24.736H400.538z
	 M445.122,268.303v-8.711l-4.962-13.67l-0.934-2.574v0.218h-7.636l0.335,24.736H445.122z M425.426,268.303l0.335-24.736h-6.616
	l0.335,24.736H425.426z M165.817,247.876l32.991-39.791l32.991,39.791h-13.503l-2.148-2.657h-34.679l-2.148,2.657H165.817z
	 M183.743,242.405h30.13l-15.065-18.632L183.743,242.405z M493.383,162.406h-21.42l-10.091,25.306v9.589h13.486v-22.122h18.025
	V162.406z M556.67,162.406h-21.42v12.773h18.025v22.122h13.486v-9.589L556.67,162.406z M505.645,195.501h7.714v-11.457h-7.714
	V195.501z M515.274,195.501h7.714v-11.457h-7.714V195.501z M505.645,209.254h7.714v-11.839h-7.714V209.254z M515.274,209.254h7.714
	v-11.839h-7.714V209.254z M488.227,227.722h-12.166v18.068h12.166V227.722z M503.412,227.722h-12.166v18.068h12.166V227.722z
	 M488.227,248.809h-12.166v18.671h12.166V248.809z M503.412,248.809h-12.166v18.671h12.166V248.809z M476.061,312.999h12.166
	v-18.068h-12.166V312.999z M503.412,294.931h-12.166v18.068h12.166V294.931z M488.227,316.018h-12.166v18.671h12.166V316.018z
	 M491.246,334.689h12.166v-18.671h-12.166V334.689z M525.221,245.79h12.166v-18.068h-12.166V245.79z M540.406,245.79h12.166v-18.068
	h-12.166V245.79z M525.221,267.48h12.166v-18.671h-12.166V267.48z M540.406,267.48h12.166v-18.671h-12.166V267.48z M525.221,312.999
	h12.166v-18.068h-12.166V312.999z M540.406,312.999h12.166v-18.068h-12.166V312.999z M525.221,334.689h12.166v-18.671h-12.166
	V334.689z M540.406,334.689h12.166v-18.671h-12.166V334.689z M525.221,383.813h12.166v-18.068h-12.166V383.813z M540.406,383.813
	h12.166v-18.068h-12.166V383.813z M525.221,403.384h12.166v-16.552h-12.166V403.384z M540.406,403.384h12.166v-16.552h-12.166
	V403.384z M483.095,403.384h24.569v-37.373h-24.569V403.384z M491.698,415.99h7.306v-5.842h-7.306V415.99z M502.386,415.99h5.278
	v-5.842h-5.278V415.99z M483.095,415.99h5.221v-5.842h-5.221V415.99z M122.672,140.612v-11.761H71.573v11.761H122.672z
	 M85.584,427.944h3.108v-17.796h-3.108V427.944z M74.897,427.944h7.305v-17.796h-7.305V427.944z M72.702,403.384h15.99v-6.342
	h-15.99V403.384z M57.88,250.298h-10.64v15.801h10.64V250.298z M71.16,250.298h-10.64v15.801h10.64V250.298z M57.88,268.739h-10.64
	v16.328h10.64V268.739z M71.16,268.739h-10.64v16.328h10.64V268.739z M57.88,309.074h-10.64v15.801h10.64V309.074z M71.16,309.074
	h-10.64v15.801h10.64V309.074z M47.241,343.844h10.64v-16.328h-10.64V343.844z M60.521,343.844h10.64v-16.328h-10.64V343.844z
	 M100.873,250.298h-10.64v15.801h10.64V250.298z M114.153,250.298h-10.64v15.801h10.64V250.298z M100.873,268.739h-10.64v16.328
	h10.64V268.739z M114.153,268.739h-10.64v16.328h10.64V268.739z M100.873,309.074h-10.64v15.801h10.64V309.074z M114.153,309.074
	h-10.64v15.801h10.64V309.074z M90.233,343.844h10.64v-16.328h-10.64V343.844z M103.513,343.844h10.64v-16.328h-10.64V343.844z
	 M42.835,411.216h5.497v-1.067h-5.497V411.216z M41.958,403.384h6.374v-1.635h-6.374V403.384z M53.522,411.216h2.766v-1.067h-2.766
	V411.216z M49.914,411.216h0.227v-1.067h-0.227V411.216z M49.914,403.384h6.374v-1.635h-6.374V403.384z M42.835,422.58h5.497v-9.782
	h-5.497V422.58z M49.914,422.58h0.227v-9.782h-0.227V422.58z M53.522,422.58h2.766v-9.782h-2.766V422.58z M106.959,411.216h4.521
	v-1.067h-4.521V411.216z M105.105,403.384h6.374v-1.635h-6.374V403.384z M113.062,403.384h6.374v-1.635h-6.374V403.384z
	 M113.062,411.216h1.202v-1.067h-1.202V411.216z M117.646,411.216h1.79v-1.067h-1.79V411.216z M106.959,422.58h4.521v-9.782h-4.521
	V422.58z M113.062,422.58h1.202v-9.782h-1.202V422.58z M117.646,422.58h1.79v-9.782h-1.79V422.58z M138.937,229.013v-19.75H22.457
	v19.75H138.937z M138.937,202.84H22.457v-0.726l11.206-25.079h94.067l11.207,25.079V202.84z M88.016,180.378H73.265v19.322h14.751
	V180.378z M22.826,368.898l-5.933,5.855v10.266h10.943v-8.044h-3.89L22.826,368.898z M135.667,366.035l-1.516,10.94h-3.887v8.044
	H144.5v-10.266L135.667,366.035z M122.066,364.35H36.03l-1.75,12.625h-3.887v8.044h97.313v-8.044h-3.891L122.066,364.35z
	 M80.048,182.229h-4.78v7.099h4.78V182.229z M86.014,182.229h-4.78v7.099h4.78V182.229z M80.048,190.514h-4.78v7.336h4.78V190.514z
	 M86.014,190.514h-4.78v7.336h4.78V190.514z M253.198,399.58c-1.797,0.093-3.587,0.196-5.372,0.307
	c-0.325,0.02-0.65,0.039-0.974,0.06c-0.319,0.021-0.641,0.038-0.96,0.059v1.503c2.42-0.249,4.856-0.481,7.306-0.695V399.58z
	 M146.325,418.108c-2.474,0.799-4.909,1.62-7.305,2.461v6.937c2.385-1.035,4.818-2.048,7.305-3.036V418.108z M285.259,398.917
	c-1.788-0.018-3.581-0.03-5.379-0.03c-0.644,0-1.283,0.008-1.926,0.011v0.369c2.425-0.092,4.859-0.171,7.306-0.229V398.917z
	 M297.638,413.168c-3.022,0-5.986,0.245-8.879,0.704c16.538,2.625,30.673,12.458,39.083,26.184h-78.167
	c-0.698,1.139-1.346,2.31-1.963,3.5h82.093c2.381,4.594,4.155,9.552,5.196,14.778c0.268,1.343,0.477,2.707,0.647,4.083
	c0.282,2.283,0.445,4.604,0.445,6.963c0,3.027-0.252,5.995-0.716,8.891c-0.001,0.009-0.002,0.018-0.004,0.026h17.758
	c0.011-0.066,0.018-0.133,0.028-0.198c0.1-0.635,0.191-1.273,0.27-1.914c0.083-0.678,0.153-1.359,0.211-2.044
	c0.002-0.02,0.004-0.039,0.006-0.058c0.119-1.418,0.185-2.852,0.196-4.299c0.001-0.135,0.008-0.268,0.008-0.403
	C353.851,438.336,328.684,413.168,297.638,413.168z M263.885,399.138c-1.823,0.056-3.64,0.122-5.451,0.197
	c-0.618,0.026-1.238,0.047-1.854,0.075v1.118c2.422-0.196,4.856-0.376,7.305-0.537V399.138z M274.572,398.917
	c-2.177,0.022-4.348,0.056-6.51,0.105c-0.266,0.006-0.53,0.016-0.795,0.022v0.74c2.424-0.143,4.857-0.276,7.305-0.385V398.917z
	 M288.642,398.969v0.004c0.038-0.001,0.077-0.001,0.115-0.002C288.718,398.97,288.68,398.969,288.642,398.969z M470.27,476.063
	c-0.031-0.54-0.079-1.075-0.129-1.609c-0.016-0.175-0.027-0.352-0.044-0.527c-0.071-0.677-0.155-1.35-0.254-2.018
	c-0.003-0.017-0.004-0.035-0.007-0.052c-0.104-0.697-0.222-1.388-0.355-2.075h0c-4.179-21.596-23.167-37.91-45.984-37.91
	c-3.037,0-6.003,0.299-8.879,0.85c0.973,0.187,1.938,0.397,2.889,0.643c0.445,0.115,0.883,0.246,1.323,0.374
	c0.854,0.248,1.699,0.516,2.532,0.81c1.393,0.493,2.754,1.05,4.083,1.667c2.361,1.096,4.614,2.382,6.742,3.84h-33.738v-0.918
	c-0.472,0.299-0.94,0.602-1.4,0.918c-1.57,1.076-3.07,2.246-4.494,3.5h44.126c4.664,4.108,8.507,9.123,11.245,14.778
	c0.643,1.328,1.227,2.689,1.744,4.083c1.839,4.953,2.868,10.299,2.919,15.88v0h17.758c0-0.017-0.001-0.034-0.002-0.052
	C470.337,477.515,470.31,476.787,470.27,476.063z M157.013,414.859c-2.108,0.602-4.19,1.22-6.249,1.852c0,0,0,0,0,0
	c-0.351,0.108-0.707,0.213-1.057,0.322v6.119c2.389-0.911,4.83-1.798,7.306-2.665V414.859z M171.082,411.152v4.778
	c2.4-0.715,4.84-1.406,7.305-2.082v-4.389c-0.221,0.049-0.444,0.096-0.665,0.145c-0.348,0.078-0.696,0.155-1.043,0.233
	C174.797,410.264,172.933,410.704,171.082,411.152z M167.7,411.983c-2.467,0.622-4.897,1.269-7.305,1.93v5.412
	c2.399-0.808,4.831-1.598,7.305-2.365V411.983z M236.621,400.714c-0.472,0.04-0.945,0.078-1.416,0.119v1.899
	c2.418-0.305,4.854-0.591,7.305-0.861v-1.624c-1.37,0.1-2.736,0.204-4.097,0.315C237.815,400.612,237.218,400.663,236.621,400.714z
	 M227.334,401.595c-0.941,0.099-1.88,0.198-2.816,0.302v2.313c2.416-0.363,4.853-0.707,7.305-1.035v-2.027
	c-0.881,0.084-1.765,0.164-2.643,0.253C228.563,401.462,227.95,401.53,227.334,401.595z M218.102,402.648
	c-1.431,0.178-2.852,0.367-4.271,0.558v2.747c2.415-0.425,4.85-0.831,7.306-1.219v-2.447c-0.415,0.049-0.829,0.098-1.242,0.148
	C219.297,402.507,218.696,402.573,218.102,402.648z M203.143,404.77v3.206c2.413-0.49,4.847-0.963,7.305-1.416v-2.885
	c-0.495,0.07-0.991,0.14-1.485,0.212c-0.597,0.087-1.197,0.17-1.792,0.259C205.822,404.348,204.481,404.557,203.143,404.77z
	 M181.769,412.939c2.407-0.634,4.842-1.249,7.306-1.844v-3.848c-0.141,0.027-0.282,0.054-0.422,0.081
	c-2.313,0.45-4.612,0.911-6.883,1.394V412.939z M192.456,406.602v3.695c2.412-0.559,4.842-1.106,7.305-1.628v-3.346
	c-0.01,0.002-0.02,0.003-0.03,0.005c-0.616,0.103-1.234,0.203-1.846,0.309C196.064,405.949,194.254,406.27,192.456,406.602z
	 M120.242,427.944h4.708v-2.004c-0.544,0.225-1.085,0.452-1.623,0.68C122.292,427.058,121.258,427.497,120.242,427.944z
	 M218.553,476.063c-0.031-0.54-0.079-1.075-0.128-1.609c-0.016-0.175-0.2-1.877-0.299-2.545c-0.003-0.017-0.005-0.035-0.007-0.052
	c-0.104-0.697-0.222-1.388-0.355-2.075h0c-4.179-21.596-23.167-37.91-45.984-37.91c-3.037,0-6.003,0.299-8.879,0.85
	c6.419,1.232,12.37,3.771,17.569,7.334h-35.138c-1.57,1.076-3.07,2.246-4.494,3.5h44.126c4.664,4.108,8.508,9.123,11.245,14.778
	c0.643,1.328,1.227,2.689,1.744,4.083c1.839,4.953,2.868,10.299,2.919,15.88h17.758c0-0.017-0.002-0.034-0.002-0.052
	C218.62,477.515,218.594,476.787,218.553,476.063z M128.333,424.562v3.382h7.306v-6.167c-0.336,0.123-0.666,0.248-1,0.371
	C132.505,422.938,130.398,423.74,128.333,424.562z"></path>
<path id="color_x5F_7" fill="#C7956C" d="M25.092,184.168c0.12-0.272,0.237-0.545,0.358-0.817v0.817H25.092z M15.338,265.057
	h10.111v-6.222H15.338V265.057z M22.457,228.501h-7.119v6.222h10.111v0v-5.71h-2.992V228.501z M15.338,254.946h10.111v-6.222H15.338
	V254.946z M15.338,244.835h10.111v-6.222H15.338V244.835z M22.457,218.39h-7.119v6.222h7.119V218.39z M21.586,359.946h-6.248v6.222
	h7.11L21.586,359.946z M15.338,275.168h10.111v-0.778v-5.444H15.338V275.168z M21.461,415.044c0.226,0.561,0.457,1.12,0.686,1.68
	h1.31v-4.721h1.992v-1.501h-3.989V415.044z M15.338,295.39h10.111v-6.222H15.338V295.39z M15.338,356.057h6.579
	c0.903-0.995,2.114-1.8,3.532-2.313v-3.91H15.338V356.057z M15.338,325.724h10.111v-6.222H15.338V325.724z M15.338,315.612h10.111
	v-6.222H15.338V315.612z M15.338,285.279h10.111v-6.222H15.338V285.279z M15.338,305.501h10.111v-6.222H15.338V305.501z
	 M22.457,209.263v-0.984h-6.758c-0.124,0.364-0.239,0.732-0.361,1.097v5.125h7.119V209.263z M15.338,335.835h10.111v-6.222H15.338
	V335.835z M15.338,345.946h10.111v-6.222H15.338V345.946z M17.051,403.384h8.398v-2.994h-9.452
	C16.34,401.392,16.698,402.387,17.051,403.384z M16.894,385.019v-4.851h-1.556v6.222h1.556V385.019z M16.894,390.279h-1.556v6.222
	h10.111v-2.053h-8.556V390.279z M20.848,194.279h4.601v-6.222H23.39C22.518,190.118,21.675,192.194,20.848,194.279z M16.894,374.753
	l4.758-4.696h-6.314v6.222h1.556V374.753z M22.457,202.84v-0.726l1.764-3.947h-4.865c-0.785,2.063-1.547,4.137-2.287,6.222h5.388
	V202.84z M580.109,209.905h-4.336v6.913h6.542C581.607,214.501,580.872,212.197,580.109,209.905z M575.773,232.018h10.739
	c-0.574-2.315-1.176-4.619-1.805-6.913h-8.935V232.018z M584.323,224.418v-0.737c-0.578-2.069-1.182-4.126-1.804-6.176h-10.681h0
	v6.913h0H584.323z M575.773,258.818h16.105c-0.352-2.314-0.735-4.617-1.139-6.913h-14.966V258.818z M575.773,274.018h18.013
	c-0.231-2.313-0.493-4.616-0.777-6.913h-17.237V274.018z M584.323,266.418v-6.913h-12.485h0v6.913h0H584.323z M585.409,266.418
	h7.523c-0.291-2.313-0.613-4.617-0.957-6.913h-6.566V266.418z M575.773,300.818h18.185v-6.913h-18.185V300.818z M575.773,316.018
	h18.185v-6.913h-18.185V316.018z M584.323,308.418v-6.913h-12.485h0v6.913h0H584.323z M595.245,301.505h-9.836v6.913h9.81
	c0.022-1.501,0.057-3,0.057-4.506C595.276,303.107,595.252,302.308,595.245,301.505z M575.773,342.818h16.971
	c0.3-2.296,0.569-4.601,0.816-6.913h-17.787V342.818z M575.773,358.018h14.581c0.422-2.295,0.814-4.6,1.182-6.913h-15.763V358.018z
	 M584.323,350.418v-6.913h-12.485h0v6.913h0H584.323z M585.409,350.418h6.242c0.36-2.295,0.69-4.601,0.998-6.913h-7.24V350.418z
	 M575.773,384.818h8.367c0.646-2.293,1.268-4.597,1.86-6.913h-10.227V384.818z M575.773,400.018h3.636
	c0.782-2.292,1.535-4.596,2.262-6.913h-5.899V400.018z M571.838,385.505v6.913h0h10.057c0.713-2.292,1.398-4.597,2.057-6.913
	H571.838L571.838,385.505z M268.099,277.501h-20.273v9.333h20.273V277.501z M268.099,245.612v-9.333l29.538-28.778l0.078,0.076
	l29.461,28.702v9.333l-3.193-3.111h-52.69L268.099,245.612z M274.286,239.585h2.994h40.715h2.994l-23.351-22.75L274.286,239.585z
	 M327.176,286.835h20.273v-9.333h-20.273V286.835z M246.852,284.603v9.096h-96.088l0-9.096l16.325-33.194h12.231l3.766-4.658h31.443
	l3.767,4.658h12.231L246.852,284.603z M208.964,261.481h-20.311v28.123h20.311V261.481z M246.852,340.319v34.961h-96.088v-34.961
	H246.852z M179.514,343.414h-20.311v28.123h20.311V343.414z M208.964,343.414h-20.311v28.123h20.311V343.414z M238.413,343.414
	h-20.311v28.123h20.311V343.414z M150.764,335.683v0.229h96.088v-0.229H150.764z M162.901,432.723
	c-4.283,0.822-8.355,2.229-12.137,4.131v3.203h29.706C175.271,436.494,169.32,433.954,162.901,432.723z M198.808,227.307
	L186.6,242.405h24.417L198.808,227.307z M525.949,136.018h-23.333v17.039h23.333V136.018z M523.76,427.944h7.306v-17.796h-7.306
	V427.944z M562.753,410.148h-6.931v17.796h2.552v-15.941h4.426c-0.016-0.09-0.047-0.167-0.047-0.253V410.148z M465.044,354.081
	c1.311-0.608,2.827-0.967,4.453-0.967c3.466,0,6.467,1.584,7.935,3.892l-2.767,19.968h-3.887v26.409h9.035v-40.651h31.135v40.651
	h11.344v-40.753h33.211v40.753h7.251v-26.409h-3.891l-2.767-19.968c1.401-2.209,4.218-3.738,7.494-3.867v-0.128h-98.545V354.081z
	 M534.448,427.944h7.306v-17.796h-7.306V427.944z M465.044,220.713h98.545v57.698h-98.545V220.713z M522.291,270.594h33.211v-45.985
	h-33.211V270.594z M473.131,270.594h33.211v-45.985h-33.211V270.594z M545.135,427.944h7.305v-17.796h-7.305V427.944z
	 M513.074,415.99h6.067v7.374h1.238v-13.216h-7.304V415.99z M465.044,284h98.545v63.422h-98.545V284z M522.291,337.803h33.211
	v-45.985h-24.498h-8.714V337.803z M473.131,337.803h33.211v-45.985h-33.211V337.803z M470.777,411.75
	c0,0.086-0.035,0.163-0.051,0.253h4.426v3.988h2.478v-5.842h-6.853V411.75z M465.044,412.003h1.898v-1.855h-1.898V412.003z
	 M465.044,403.384h3.176v-26.409h-3.176V403.384z M553.276,206.65h10.313v8.473h-98.545v-8.473h10.313v-22.122h18.025v-22.122
	h41.868v22.122h18.025V206.65z M524.846,182.07h-21.059v29.158h21.059V182.07z M436.68,443.557h-44.126
	c-4.664,4.108-8.508,9.123-11.246,14.778h66.617C445.188,452.68,441.344,447.664,436.68,443.557z M184.964,443.557h-44.126
	c-4.664,4.108-8.507,9.123-11.245,14.778h66.617C193.471,452.68,189.628,447.664,184.964,443.557z M247.712,443.557
	c-2.381,4.594-4.155,9.552-5.196,14.778h92.486c-1.041-5.225-2.815-10.184-5.196-14.778H247.712z"></path>
<path id="color_x5F_6" fill="#A44027" d="M25.092,184.168h0.358v3.889H23.39C23.942,186.752,24.522,185.463,25.092,184.168z
	 M19.356,198.168h4.865l1.229-2.75v-1.139h-4.601C20.337,195.569,19.849,196.87,19.356,198.168z M22.457,204.39h-5.388
	c-0.459,1.295-0.928,2.586-1.37,3.889h6.758V204.39z M22.457,214.501h-7.119v3.889h7.119V214.501z M22.457,224.612h-7.119v3.889
	h7.119V224.612z M15.338,238.612h10.111v-3.889H15.338V238.612z M15.338,248.724h10.111v-3.889H15.338V248.724z M15.338,258.835
	h10.111v-3.889H15.338V258.835z M15.338,268.946h10.111v-3.889H15.338V268.946z M15.338,279.057h10.111v-3.889H15.338V279.057z
	 M15.338,289.168h10.111v-3.889H15.338V289.168z M15.338,299.279h10.111v-3.889H15.338V299.279z M15.338,309.39h10.111v-3.889
	H15.338V309.39z M15.338,319.501h10.111v-3.889H15.338V319.501z M15.338,329.612h10.111v-3.889H15.338V329.612z M15.338,339.724
	h10.111v-3.889H15.338V339.724z M15.338,349.835h10.111v-3.889H15.338V349.835z M21.178,357.007c0.212-0.335,0.465-0.648,0.739-0.95
	h-6.579v3.889h6.248L21.178,357.007z M22.826,368.898l-0.378-2.73h-7.11v3.889h6.314L22.826,368.898z M16.894,376.279h-1.556v3.889
	h1.556V376.279z M16.894,386.39h-1.556v3.889h1.556V386.39z M15.338,398.448c0.217,0.649,0.437,1.296,0.659,1.942h9.452v-3.889
	H15.338V398.448z M21.461,410.501h3.989v-0.353h-3.989V410.501z M23.457,419.92v-3.197h-1.31
	C22.583,417.789,23.008,418.861,23.457,419.92z M571.838,403.384h6.386c0.398-1.121,0.802-2.239,1.186-3.366h-3.636v-6.913h5.899
	c0.072-0.23,0.151-0.457,0.223-0.687h-10.057V403.384z M585.409,308.418h9.81c-0.138,9.271-0.691,18.44-1.658,27.487h-17.787v6.913
	h16.971c-0.03,0.23-0.066,0.458-0.096,0.687h-7.24v6.913h6.242c-0.036,0.23-0.077,0.458-0.114,0.687h-15.763v6.913h14.581
	c-1.232,6.709-2.68,13.343-4.354,19.887h-10.227v6.913h8.367c-0.064,0.228-0.124,0.459-0.189,0.687h-12.113v-27.587l0.126-0.911
	c-0.037-0.059-0.087-0.111-0.126-0.169v-6.42h12.485v-6.913h-12.485v-35.087h12.485v-6.913h-12.485v-35.087h12.485v-6.913h-12.485
	v-35.087h12.485v-0.737c0.132,0.473,0.255,0.95,0.385,1.424h-8.935v6.913h10.739c1.624,6.548,3.044,13.176,4.227,19.887h-14.966
	v6.913h16.105c0.035,0.228,0.062,0.459,0.096,0.687h-6.566v6.913h7.523c0.029,0.228,0.05,0.459,0.078,0.687h-17.237v6.913h18.013
	c0.902,9.048,1.385,18.219,1.458,27.487h-9.836V308.418z M593.958,300.818v-6.913h-18.185v6.913H593.958z M575.773,309.105v6.913
	h18.185v-6.913H575.773z M571.838,419.875c0.678-1.6,1.326-3.216,1.977-4.831v-4.896h-1.977V419.875z M582.315,216.818h-6.542
	v-6.913h4.336c-2.479-7.452-5.232-14.779-8.271-21.956v29.556h10.681C582.45,217.277,582.385,217.046,582.315,216.818z
	 M438.263,420.323h6.859v-8h-6.859V420.323z M427.575,416.961c1.729,0.536,3.446,1.079,5.139,1.635
	c0.729,0.24,1.444,0.486,2.166,0.73v-7.003h-7.306V416.961z M416.889,413.849c0.811,0.222,1.628,0.441,2.432,0.667
	c1.64,0.462,3.262,0.935,4.872,1.414v-3.608h-7.304V413.849z M413.507,412.939v-0.616h-2.372
	C411.929,412.526,412.719,412.731,413.507,412.939z M344.298,233.557v0.389v9.403v0.218h94.927v-0.218v-9.312v-0.48H344.298z
	 M338.402,268.303L338.402,268.303l0,8h0h106.72v-8H338.402z M218.296,251.408h12.231l-1.737-3.533h-10.493l-2.148-2.657h-34.679
	l-2.148,2.657h-10.493l-1.534,3.119l-0.204,0.414h12.231l3.766-4.658h31.443L218.296,251.408z M198.808,227.307l12.208,15.099h2.857
	l-15.065-18.632l-15.065,18.632h2.857L198.808,227.307z M459.637,427.944h4.204v-15.941h1.203v-1.855h-5.407V427.944z
	 M565.31,403.384h3.868v-26.409h-3.868V403.384z M566.509,412.003h2.669v-1.855h-2.669V412.003z M569.179,206.65v147.795
	c-1.455-0.83-3.224-1.331-5.149-1.331c-0.15,0-0.293,0.019-0.441,0.025v-0.128h-98.545v1.07c-1.485,0.689-2.705,1.7-3.482,2.925
	l2.767,19.968h0.715v26.409h-5.589V206.65h5.589v8.473h98.545v-8.473H569.179z M465.044,220.713v57.698h98.545v-57.698H465.044z
	 M563.589,347.422V284h-98.545v63.422H563.589z M502.386,415.99v11.954h7.306V415.99h-2.027H502.386z M499.004,415.99h-7.306v11.954
	h7.306V415.99z M488.316,415.99h-5.221h-2.083v11.954h7.305V415.99z M513.074,415.99v11.954h7.304v-4.58h-1.238v-7.374H513.074z
	 M477.63,415.99h-2.478v11.954h2.478V415.99z M116.567,168.714H77.678v-28.102h38.889V168.714z M88.03,150.036h18.185v-6.913H88.03
	V150.036z M84.094,157.637h12.485v-6.913H84.094V157.637z M106.215,158.324H88.03v6.913h18.185V158.324z M110.15,150.724H97.665
	v6.913h12.485V150.724z M121.539,229.013h10.748v8.619H115.06v6.758h17.228v21.078h-15.572v-2.622h4.824v-6.758h-4.824v-8.513
	H87.671v40.216h16.641v2.89h17.228v-6.758h-4.824v-11.698h15.572v21.078H115.06v6.758h17.228v15.526v5.552h-15.572v-2.622h4.824
	v-6.758h-4.824v-5.407H87.671v40.216h16.641v2.043h17.228v-6.758h-4.824v-13.957h15.572v23.337H115.06v6.758h6.125l0.881,6.359
	H36.03l0.881-6.359h9.422v-6.758H29.106v-23.337h15.572v13.957h-5.541v6.758h17.228v-2.043h17.358v-40.216H44.678v5.407h-5.541
	v6.758h5.541v2.622H29.106V300.06h17.228v-6.758H29.106v-21.078h15.572v11.698h-5.541v6.758h17.228v-2.89h17.358v-40.216H44.678
	v8.513h-5.541v6.758h5.541v2.622H29.106V244.39h17.228v-6.758H29.106v-8.619h10.032v5.996h17.228v-5.996h47.946v5.996h17.228
	V229.013z M67.114,237.632H49.886v6.758h17.228V237.632z M67.114,293.303H49.886v6.758h17.228V293.303z M67.114,351.233H49.886
	v6.758h17.228V351.233z M94.28,357.991h17.228v-6.758H94.28V357.991z M94.28,300.06h17.228v-6.758H94.28V300.06z M111.508,237.632
	H94.28v6.758h17.228V237.632z M50.14,427.944v-3.733h-7.305v3.733H50.14z M30.394,403.384h10.028v-3.267h17.401v3.267h10.334v-8.936
	H30.394V403.384z M60.827,410.148h-3.004v14.063h-4.301v3.733h7.305V410.148z M39.453,427.944v-17.796h-7.306v1.855h2.621v15.941
	H39.453z M64.209,410.148v17.796h3.948v-17.796H64.209z M93.236,403.384h10.334v-3.267h17.401v3.267h6.735v-8.936h-34.47V403.384z
	 M130.264,403.384h2.024v-8.936h-2.024V403.384z M114.264,424.211h-7.305v3.733h7.305V424.211z M96.271,410.148v17.796h7.306v-3.733
	h-0.006v-14.063H96.271z M123.327,412.003h1.623v-1.855h-3.979v14.063h-3.326v3.733h2.597c1.016-0.447,2.05-0.886,3.085-1.324
	V412.003z M130.264,411.75c0,0.086-0.035,0.163-0.051,0.253h2.074v-1.855h-2.024V411.75z M82.281,457.946h17.857v-5.444H82.281
	V457.946z M73.672,464.946h17.857v-5.444H73.672V464.946z M93.441,464.946h17.857v-5.444H93.441V464.946z M65.786,441.224H47.929
	v5.444h17.857V441.224z M56.539,439.668h17.857v-5.444H56.539V439.668z M54.625,434.224H36.768v5.444h17.857V434.224z
	 M213.805,419.262h17.857v-5.444h-17.857V419.262z M223.052,420.818h-17.857v5.444h17.857V420.818z M224.965,426.262h17.857v-5.444
	h-17.857V426.262z M229.989,456.39h-14.5v5.444h14.5V456.39z M356.356,426.262h17.857v-5.444h-17.857V426.262z M364.965,419.262
	h17.857v-5.444h-17.857V419.262z M345.195,419.262h17.857v-5.444h-17.857V419.262z M361.529,454.835h17.857v-5.444h-17.857V454.835z
	 M482.356,456.596h17.857v-5.444h-17.857V456.596z M490.965,449.596h17.857v-5.444h-17.857V449.596z M471.195,449.596h17.857v-5.444
	h-17.857V449.596z M543.411,445.112h16.295c0.53-0.981,1.043-1.972,1.562-2.96v-2.485h-17.857V445.112z M552.021,438.112h11.339
	c0.914-1.806,1.819-3.617,2.697-5.444h-14.036V438.112z M550.108,432.668h-17.857v5.444h17.857V432.668z M513.418,463.439h17.857
	v-5.444h-17.857V463.439z M522.028,456.439h17.857v-5.444h-17.857V456.439z M502.258,456.439h17.857v-5.444h-17.857V456.439z
	 M50.475,469.782c1.935,2.878,3.929,5.711,5.96,8.517h68.494c0.007-0.75,0.034-1.496,0.077-2.237
	c0.031-0.534,0.078-1.064,0.127-1.593c0.017-0.181,0.027-0.363,0.046-0.543c0.07-0.674,0.155-1.344,0.253-2.009
	c0.003-0.02,0.005-0.041,0.008-0.061c0.104-0.695,0.222-1.386,0.354-2.072c0,0,0-0.001,0-0.001H50.475z M241.64,474.188
	c-0.003-0.036-0.008-0.071-0.011-0.107c-0.119-1.414-0.185-2.843-0.196-4.285c0-0.005,0-0.01,0-0.014h-23.669h0
	c0.133,0.687,0.251,1.379,0.355,2.075c0.003,0.017,0.005,0.035,0.007,0.052c0.099,0.668,0.184,1.341,0.254,2.018
	c0.018,0.175,0.028,0.352,0.045,0.527c0.05,0.534,0.097,1.07,0.128,1.609c0.042,0.723,0.067,1.451,0.075,2.184
	c0,0.017,0.001,0.034,0.002,0.052l0,0h23.288h0.226c-0.113-0.701-0.212-1.406-0.298-2.114
	C241.765,475.522,241.697,474.857,241.64,474.188z M469.48,469.782L469.48,469.782c0.133,0.687,0.251,1.379,0.355,2.075
	c0.003,0.017,0.005,0.035,0.007,0.052c0.099,0.668,0.184,1.341,0.254,2.018c0.018,0.175,0.028,0.352,0.044,0.527
	c0.05,0.534,0.097,1.07,0.129,1.609c0.042,0.723,0.067,1.451,0.075,2.184c0,0.017,0.002,0.034,0.002,0.052h0h68.495
	c2.031-2.805,4.025-5.639,5.96-8.517H469.48z M353.843,469.784c-0.011,1.447-0.077,2.881-0.196,4.299
	c-0.002,0.02-0.004,0.039-0.006,0.058c-0.058,0.685-0.128,1.367-0.211,2.044c-0.078,0.642-0.17,1.279-0.27,1.914
	c-0.01,0.066-0.017,0.133-0.028,0.198h0h23.514c0.007-0.75,0.034-1.496,0.077-2.237c0.031-0.534,0.078-1.064,0.127-1.593
	c0.017-0.181,0.027-0.363,0.046-0.543c0.07-0.674,0.155-1.344,0.253-2.009c0.003-0.02,0.005-0.041,0.008-0.061
	c0.104-0.695,0.222-1.386,0.354-2.072c0,0,0-0.001,0-0.001h-23.669C353.843,469.783,353.843,469.783,353.843,469.784z"></path>
<path id="color_x5F_5" fill="#FFD2BB" d="M317.321,381.47v17.797c-2.425-0.092-4.858-0.171-7.304-0.229v-17.795
	C312.459,381.3,314.893,381.378,317.321,381.47z M347.449,383.531c-1.786-0.179-3.572-0.359-5.371-0.517v16.917l5.139-5.146h0.232
	V383.531z M253.198,383.014c-1.8,0.158-3.585,0.338-5.372,0.517v16.356c1.784-0.111,3.574-0.214,5.372-0.307V383.014z
	 M285.259,381.242c-2.443,0.058-4.878,0.135-7.306,0.227v17.428c0.643-0.002,1.282-0.011,1.926-0.011
	c1.798,0,3.591,0.012,5.379,0.03V381.242z M297.638,374.327c-16.959,0-33.639,0.813-49.811,2.395v-86.971h20.273v-41.222
	l3.193-3.111h52.69l3.193,3.111v41.222h20.273v86.971C331.277,375.14,314.597,374.327,297.638,374.327z M317.641,325.951H338.7
	v-29.158h-21.059V325.951z M317.641,367.635H338.7v-29.158h-21.059V367.635z M287.108,282.687h21.059v-29.158h-21.059V282.687z
	 M287.108,325.951h21.059v-29.158h-21.059V325.951z M277.634,338.476h-21.059v29.158h21.059V338.476z M277.634,296.793h-21.059
	v29.158h21.059V296.793z M287.108,367.635h21.059v-29.158h-21.059V367.635z M282.678,434.195v-2.247h-15.491v2.247H282.678z
	 M310.095,434.195v-2.247h-15.491v2.247H310.095z M311.229,435.893v4.164h16.613c-8.41-13.726-22.545-23.559-39.083-26.184
	c-16.538,2.625-30.673,12.458-39.084,26.184h33.003v-4.164h-15.491v4.163h-1.133v-4.163h-2.828v-1.698h2.828v-2.247h-2.828v-4.264
	h23.553v4.264h-2.968v2.247h2.968v1.698h-2.968v4.164h26.282v-4.164h-15.491v4.163h-1.133v-4.163h-2.828v-1.698h2.828v-2.247h-2.828
	v-4.264h23.553v4.264h-2.968v2.247h2.968v1.698H311.229z M297.638,219.751l-20.358,19.833h40.715L297.638,219.751z M256.58,559.516
	c2.426,0.171,4.859,0.33,7.305,0.47v-14.749c-2.445-0.065-4.882-0.142-7.305-0.237V559.516z M285.259,545.43
	c-1.788,0.016-3.581,0.026-5.379,0.026c-0.644,0-1.283-0.007-1.926-0.009v2.473c0.466-0.626,1.199-1.063,2.218-1.063
	c1.696,0,3.392,0,5.088,0V545.43z M466.942,520.165h-7.306v6.615h7.306V520.165z M306.634,545.382
	c-2.426,0.036-4.861,0.059-7.306,0.066v1.409c2.435,0,4.87,0,7.306,0V545.382z M295.947,545.448
	c-2.405-0.007-4.801-0.029-7.188-0.064c-0.039,0.001-0.078,0.001-0.117,0.002v1.472c2.435,0,4.87,0,7.305,0V545.448z
	 M424.193,545.998v-15.376c-2.4,0.623-4.84,1.224-7.304,1.812v15.412C419.354,547.25,421.785,546.631,424.193,545.998z
	 M370.757,540.823c-2.416,0.316-4.853,0.616-7.306,0.901v15.488c2.451-0.286,4.884-0.593,7.306-0.911V540.823z M395.513,552.389
	c2.455-0.456,4.894-0.926,7.306-1.417v-15.447c-2.413,0.487-4.842,0.963-7.306,1.417V552.389z M434.881,543.011v-15.345
	c-2.399,0.704-4.832,1.392-7.306,2.059v15.367C430.041,544.417,432.48,543.726,434.881,543.011z M406.201,534.831v15.432
	c2.459-0.523,4.896-1.062,7.306-1.621v-15.417c-1.161,0.266-2.321,0.532-3.495,0.79
	C408.751,534.293,407.477,534.562,406.201,534.831z M129.283,532.078c-0.317,0-0.633,0-0.95,0v3.577h7.306v-10.122
	c-2.48-0.789-4.917-1.596-7.306-2.424v4.594c0.317,0,0.633,0,0.95,0C132.102,527.703,132.098,532.078,129.283,532.078z
	 M317.321,545.126c-2.425,0.08-4.858,0.149-7.305,0.2v1.532c2.435,0,4.87,0,7.305,0V545.126z M470.324,526.779h6.43
	c0.313,0,0.607,0.071,0.875,0.191v-6.806h-7.306V526.779z M381.445,539.306c-2.415,0.37-4.85,0.723-7.306,1.062v15.48
	c2.453-0.34,4.887-0.698,7.306-1.07V539.306z M384.827,538.778v15.467c2.454-0.396,4.889-0.809,7.305-1.239v-15.059
	c-0.373,0.188-0.809,0.304-1.321,0.304c-0.937,0-1.874,0-2.811,0C386.942,538.427,385.891,538.607,384.827,538.778z
	 M124.951,532.078c-2.435,0-4.87,0-7.305,0v3.577h7.305V532.078z M456.255,520.546c-2.385,0.901-4.817,1.783-7.304,2.642v3.591
	h7.304V520.546z M267.267,552.679v7.488c2.427,0.125,4.86,0.238,7.305,0.333v-15.068c-2.445-0.022-4.88-0.06-7.305-0.111v1.55
	C270.853,547.001,270.847,552.547,267.267,552.679z M181.769,548.642c2.41,0.559,4.846,1.098,7.306,1.621V538.18
	c-2.456-0.413-4.896-0.838-7.306-1.284V548.642z M194.782,545.154c1.66,0,3.319,0,4.979,0v-5.3
	c-2.454-0.356-4.893-0.725-7.305-1.113v12.231c2.411,0.491,4.85,0.961,7.305,1.417v-4.319c-1.66,0-3.32,0-4.979,0
	C192.902,548.071,192.906,545.154,194.782,545.154z M466.942,531.057h-7.306v4.598h7.306V531.057z M231.823,543.489
	c-2.449-0.203-4.886-0.419-7.305-0.652v13.465c2.421,0.318,4.854,0.624,7.305,0.911V543.489z M210.449,541.289
	c-2.453-0.303-4.89-0.619-7.305-0.953v4.818c1.88,0,3.759,0,5.639,0c1.88,0,1.877,2.917,0,2.917c-1.88,0-3.759,0-5.639,0v4.936
	c2.415,0.43,4.851,0.843,7.305,1.239V541.289z M448.95,538.45c2.358-0.829,4.686-1.675,6.964-2.547l0.34-0.13v-4.717h-7.304V538.45z
	 M360.07,557.242v-15.133c-2.418,0.266-4.854,0.514-7.305,0.749v15.492c3.507-0.337,6.988-0.707,10.44-1.108H360.07z
	 M221.136,542.497c-2.451-0.252-4.888-0.517-7.306-0.8v13.08c2.419,0.372,4.853,0.731,7.306,1.07V542.497z M242.51,544.272
	c-2.448-0.156-4.885-0.324-7.305-0.51v13.83c2.423,0.267,4.855,0.523,7.305,0.758V544.272z M106.959,532.439
	c1.298,1.084,2.608,2.153,3.925,3.216h3.38v-3.577c-2.435,0-4.87,0-7.305,0V532.439z M331.39,559.987
	c2.446-0.14,4.88-0.3,7.306-0.47v-15.489c-2.422,0.17-4.857,0.327-7.306,0.468V559.987z M277.954,551.631v8.986
	c2.428,0.08,4.862,0.147,7.306,0.198v-8.124c-1.696,0-3.392,0-5.088,0C279.152,552.691,278.42,552.256,277.954,551.631z
	 M288.641,560.874c2.429,0.036,4.863,0.059,7.305,0.066v-8.248c-2.435,0-4.87,0-7.305,0V560.874z M342.078,559.273
	c2.448-0.187,4.881-0.394,7.306-0.612v-15.487c-2.42,0.217-4.856,0.418-7.306,0.605V559.273z M299.328,560.939
	c2.442-0.007,4.877-0.029,7.306-0.066v-8.182c-2.435,0-4.87,0-7.306,0V560.939z M320.703,552.197v8.302
	c2.445-0.095,4.879-0.208,7.306-0.333v-15.49c-2.425,0.125-4.857,0.24-7.306,0.335v2.34
	C322.263,548.45,322.261,551.097,320.703,552.197z M310.016,560.815c2.443-0.05,4.877-0.118,7.305-0.198v-7.926
	c-2.435,0-4.87,0-7.305,0V560.815z M245.892,558.661c2.424,0.218,4.858,0.425,7.306,0.612v-14.419
	c-2.446-0.11-4.884-0.231-7.306-0.371V558.661z M171.082,545.998c2.409,0.633,4.84,1.252,7.305,1.847v-11.591
	c-2.461-0.475-4.896-0.966-7.305-1.473V545.998z M124.951,521.909c-1.589-0.574-3.164-1.153-4.708-1.744h-2.597v7.538
	c2.435,0,4.87,0,7.305,0V521.909z M491.698,520.165v9.415c2.472-2.128,4.905-4.3,7.306-6.506v-2.909H491.698z M297.638,566.835
	c-7.859,0-15.657-0.155-23.373-0.455c0.204,3.06-1.668,6.289-5.617,6.289c-4.19,0-6.038-3.622-5.558-6.83
	c-2.741-0.159-5.469-0.339-8.185-0.536c0.781,3.325-1.038,7.366-5.456,7.366c-13.239,0-26.479,0-39.718,0
	c-7.519,0-7.507-11.667,0-11.667c1.918,0,3.835,0,5.753,0c-28.925-4.282-55.499-10.848-78.192-19.459h-18.88
	c5.604,4.234,11.364,8.271,17.267,12.107h35.327c2.03,0,3.676,1.646,3.676,3.676c0,2.03-1.646,3.676-3.676,3.676h-23.405
	c20.065,11.735,41.625,21.184,64.328,28h67.588c0.899,0,1.627-0.729,1.627-1.627c0-0.899-0.729-1.627-1.627-1.627h-1.851
	c-2.62,0-4.727-2.192-4.588-4.842c0.13-2.485,2.36-4.348,4.848-4.348h98.035c0.899,0,1.627-0.729,1.627-1.627
	c0-0.899-0.729-1.627-1.627-1.627h-1.851c-2.62,0-4.727-2.192-4.588-4.842c0.13-2.485,2.36-4.348,4.848-4.348h67.848
	c12.09-6.733,23.666-14.276,34.646-22.57h-18.881C414.997,557.855,358.088,566.835,297.638,566.835z M470.324,531.057v4.598h7.306
	v-4.789c-0.268,0.121-0.563,0.191-0.875,0.191H470.324z M481.012,535.655h3.38c1.316-1.062,2.627-2.131,3.924-3.215v-12.275h-7.305
	V535.655z M96.271,523.073c1.701,1.563,3.42,3.106,5.157,4.63c0.716,0,1.433,0,2.149,0v-7.538h-7.306V523.073z M139.36,535.904
	c2.279,0.872,4.606,1.718,6.965,2.547v-9.725c-2.474-0.695-4.909-1.41-7.305-2.142v9.19L139.36,535.904z M106.959,527.703
	c2.435,0,4.87,0,7.305,0v-7.538h-7.305V527.703z M445.568,526.787v-2.451c-2.389,0.793-4.83,1.565-7.306,2.32v15.323
	c2.508-0.777,4.976-1.578,7.407-2.399h-0.101v-8.53c-1.146-0.041-2.064-0.976-2.064-2.131
	C443.505,527.763,444.423,526.827,445.568,526.787z M149.606,539.58c2.431,0.822,4.899,1.622,7.407,2.399v-10.425
	c-2.468-0.614-4.906-1.243-7.306-1.892v9.917H149.606z M160.395,543.011c2.401,0.715,4.84,1.406,7.305,2.081v-11.035
	c-2.467-0.541-4.898-1.104-7.305-1.68V543.011z M125.321,484.22c-0.028-0.119-0.283-2.127-0.402-4.124h0.011v-1.798
	c0.007-0.75,0.035-1.495,0.077-2.237c0.031-0.534,0.155-1.956,0.173-2.136c0.07-0.674,0.155-1.344,0.253-2.009
	c0.003-0.02,0.005-0.041,0.008-0.061c0.104-0.695,0.222-1.386,0.354-2.072c0.49-2.533,1.173-4.996,2.053-7.365h70.105
	c1.839,4.953,2.868,10.299,2.919,15.88v1.798h0.047c-0.357,2.002-0.915,3.963-1.465,5.862c-0.037,0.128-0.081,0.25-0.119,0.376
	h-30.191c-0.752,0-1.361,0.609-1.361,1.361c0,0.752,0.609,1.361,1.361,1.361h29.241c-2.594,6.447-7.043,11.412-12.512,14.924
	c-3.567,0-7.135,0-10.702,0c-2.815,0-2.82,4.375,0,4.375c0.405,0,0.809,0,1.214,0c-14.587,4.532-32.247,1.366-42.784-9.231h7.476
	c0.915,0,1.657-0.742,1.657-1.657c0-0.915-0.742-1.657-1.657-1.657h-10.346c-1.604-2.136-2.958-4.5-3.995-7.1h34.757
	c0.915,0,1.657-0.742,1.657-1.657c0-0.915-0.742-1.657-1.657-1.657h-35.864C125.523,485.008,125.415,484.619,125.321,484.22z
	 M171.671,470.932c0,0.752,0.609,1.361,1.361,1.361h21.389c0.752,0,1.361-0.609,1.361-1.361c0-0.752-0.609-1.361-1.361-1.361
	h-21.389C172.281,469.571,171.671,470.18,171.671,470.932z M165.644,503.98c-2.815,0-2.82,4.375,0,4.375
	C168.459,508.355,168.463,503.98,165.644,503.98z M151.449,476.267c4.667,0,9.333,0,14,0c1.877,0,1.88-2.917,0-2.917
	c-4.667,0-9.333,0-14,0C149.572,473.35,149.569,476.267,151.449,476.267z M144.838,476.267c1.877,0,1.88-2.917,0-2.917
	C142.961,473.35,142.958,476.267,144.838,476.267z M377.624,484.234c-0.038-0.162-0.643-2.056-0.978-4.138v-1.798
	c0.007-0.75,0.035-1.495,0.077-2.237c0.031-0.534,0.078-1.064,0.127-1.593c0.016-0.181,0.201-1.887,0.299-2.552
	c0.003-0.02,0.005-0.041,0.008-0.061c0.104-0.695,0.222-1.386,0.354-2.072c0.49-2.533,1.173-4.996,2.053-7.365h70.105
	c1.839,4.953,2.868,10.299,2.919,15.88c-0.047,0.613-0.134,1.197-0.212,1.81c-0.256,2.014-0.672,4.008-1.206,5.851
	c-0.868,2.998-2.112,5.712-3.651,8.154h-22.876c-1.181,0-2.139,0.958-2.139,2.139c0,1.181,0.958,2.139,2.139,2.139h19.63
	c-8.197,9.067-21.258,12.948-33.729,11.779c0.661-0.217,1.142-0.833,1.142-1.567c0-0.915-0.742-1.657-1.657-1.657h-12.484
	C387.983,502.904,380.247,495.306,377.624,484.234z M435.338,477.543c1.877,0,1.88-2.917,0-2.917
	C433.461,474.626,433.458,477.543,435.338,477.543z M413.949,477.543c4.843,0,9.686,0,14.528,0c1.877,0,1.88-2.917,0-2.917
	c-4.843,0-9.686,0-14.528,0C412.073,474.626,412.069,477.543,413.949,477.543z M398.981,469.471c3.434,0,6.868,0,10.302,0
	c1.877,0,1.88-2.917,0-2.917c-3.434,0-6.868,0-10.302,0C397.104,466.555,397.101,469.471,398.981,469.471z M394.116,469.471
	c1.877,0,1.88-2.917,0-2.917C392.239,466.555,392.236,469.471,394.116,469.471z M385.755,487.104c0,0.915,0.742,1.657,1.657,1.657
	h37.201c0.915,0,1.657-0.742,1.657-1.657s-0.742-1.657-1.657-1.657h-37.201C386.497,485.448,385.755,486.189,385.755,487.104z
	 M241.433,469.796c-0.001-0.139-0.008-0.276-0.008-0.415c0-2.36,0.162-4.68,0.445-6.963h93.779c0.282,2.283,0.445,4.604,0.445,6.963
	c0,3.027-0.252,5.995-0.716,8.891c-0.114,0.629-0.149,1.114-0.081,1.824c0.097,4.488-0.485,7.635-0.71,9.413
	c-0.517,4.091-1.61,7.828-3.156,11.227c-14.753,0-29.506,0-44.259,0c-1.877,0-1.88,2.917,0,2.917c14.262,0,28.524,0,42.786,0
	c-12.439,21.94-45.459,27.524-67.397,16.589c10.667,0,21.333,0,32,0c2.815,0,2.82-4.375,0-4.375c-12.444,0-24.889,0-37.333,0
	c-0.49,0-0.889,0.138-1.208,0.357c-3.821-2.865-7.073-6.379-9.508-10.55c2.729,0,5.459,0,8.188,0c1.877,0,1.88-2.917,0-2.917
	c-3.233,0-6.466,0-9.699,0c-1.802-3.916-2.944-8.326-3.236-13.248c-0.288-4.851,0.183-8.803,0.296-9.413l0.182-1.783l-0.324-0.016
	h0.226c-0.113-0.701-0.211-1.406-0.298-2.114c-0.081-0.662-0.148-1.327-0.206-1.996c-0.003-0.036-0.008-0.071-0.011-0.107
	C241.51,472.667,241.444,471.238,241.433,469.796z M260.727,476.989c-1.877,0-1.88,2.917,0,2.917
	C262.604,479.905,262.607,476.989,260.727,476.989z M265.592,479.905c3.434,0,6.868,0,10.302,0c1.877,0,1.88-2.917,0-2.917
	c-3.434,0-6.868,0-10.302,0C263.715,476.989,263.712,479.905,265.592,479.905z M277.06,500.736c-1.877,0-1.88,2.917,0,2.917
	C278.937,503.653,278.94,500.736,277.06,500.736z M293.005,490.71c-1.877,0-1.88,2.917,0,2.917
	C294.882,493.626,294.885,490.71,293.005,490.71z M308.172,490.71c-3.434,0-6.868,0-10.302,0c-1.877,0-1.88,2.917,0,2.917
	c3.434,0,6.868,0,10.302,0C310.048,493.626,310.051,490.71,308.172,490.71z M328.199,483.612h-53.278
	c-0.752,0-1.361,0.609-1.361,1.361c0,0.752,0.609,1.361,1.361,1.361h53.278c0.752,0,1.361-0.609,1.361-1.361
	C329.56,484.222,328.951,483.612,328.199,483.612z M286.783,473.751c0,0.752,0.609,1.361,1.361,1.361h21.389
	c0.752,0,1.361-0.609,1.361-1.361c0-0.752-0.609-1.361-1.361-1.361h-21.389C287.392,472.39,286.783,473,286.783,473.751z
	 M254.505,469.376c0,0.752,0.609,1.361,1.361,1.361h21.389c0.752,0,1.361-0.609,1.361-1.361c0-0.752-0.609-1.361-1.361-1.361
	h-21.389C255.114,468.015,254.505,468.625,254.505,469.376z"></path>
<path id="color_x5F_4" fill="#00CEC9" d="M136.689,362.253v4.791l-1.023-1.009l0.524-3.782H136.689z M139.36,409.862l-0.34,0.15
	v10.558c2.396-0.842,4.831-1.662,7.305-2.461v-11.172C143.967,407.888,141.639,408.861,139.36,409.862z M136.511,359.942h2.354v9.25
	l5.635,5.562v19.695h-12.212v8.936h5.004c3.708-1.617,7.527-3.166,11.435-4.656V279.804l-16.439-13.327v46.798h6.577v34.139h-6.577
	v6.222c-1.024-0.328-2.134-0.522-3.304-0.522c-3.466,0-6.471,1.584-7.935,3.892h15.869L136.511,359.942z M148.727,437.942
	c-1.163,0.659-2.297,1.362-3.395,2.115h3.395V437.942z M136.689,331.242h-4.402v13.861h4.402V331.242z M135.638,421.777v-11.629
	h-3.351v1.855h-2.074c0.016-0.09,0.051-1.855,0.051-1.855h-1.931v14.414c2.065-0.822,4.173-1.624,6.306-2.413
	C134.973,422.025,135.303,421.9,135.638,421.777z M136.689,315.587h-4.402v5.552v6.758V329h4.402V315.587z M457.278,315.587h-9.032
	V329h9.032V315.587z M457.278,363.735h-9.032v13.414h9.032V363.735z M445.122,420.323h-6.859v0.164
	c0.997,0.349,1.997,0.698,2.98,1.055c1.458,0.529,2.898,1.066,4.325,1.611v-17.513h0.101c-0.18-0.07-0.367-0.134-0.548-0.204
	V420.323z M448.95,424.47c0.16,0.064,0.325,0.125,0.484,0.189c2.321,0.927,4.589,1.879,6.82,2.847v-17.494l-0.34-0.15
	c-2.279-1.001-4.606-1.973-6.964-2.926V424.47z M448.246,345.103h9.032v-13.861h-9.032V345.103z M448.246,393.251h9.032V379.39
	h-9.032V393.251z M459.455,403.384v-7.822h-13.384v-34.139h13.384v-14.01h-13.384v-34.139h13.384v-21.457h-22.561v103.42
	c7.342,2.506,14.385,5.223,21.089,8.146H459.455z M268.099,286.835h-20.273v2.917h20.273V286.835z M297.638,219.751l20.358,19.833
	h2.994l-23.351-22.75l-23.351,22.75h2.994L297.638,219.751z M347.449,286.835h-20.273v2.917h20.273V286.835z M323.983,245.418
	l3.193,3.111v-2.917l-3.193-3.111h-52.69l-3.193,3.111v2.917l3.193-3.111H323.983z M296.681,255.503h-7.714v11.457h7.714V255.503z
	 M306.309,255.503h-7.714v11.457h7.714V255.503z M296.681,268.874h-7.714v11.839h7.714V268.874z M306.309,268.874h-7.714v11.839
	h7.714V268.874z M266.148,298.767h-7.714v11.457h7.714V298.767z M275.776,298.767h-7.714v11.457h7.714V298.767z M266.148,312.138
	h-7.714v11.839h7.714V312.138z M275.776,312.138h-7.714v11.839h7.714V312.138z M327.213,298.767h-7.714v11.457h7.714V298.767z
	 M336.842,298.767h-7.714v11.457h7.714V298.767z M327.213,312.138h-7.714v11.839h7.714V312.138z M336.842,312.138h-7.714v11.839
	h7.714V312.138z M296.681,298.767h-7.714v11.457h7.714V298.767z M306.309,298.767h-7.714v11.457h7.714V298.767z M296.681,312.138
	h-7.714v11.839h7.714V312.138z M306.309,312.138h-7.714v11.839h7.714V312.138z M266.148,340.451h-7.714v11.457h7.714V340.451z
	 M275.776,340.451h-7.714v11.457h7.714V340.451z M266.148,353.822h-7.714v11.839h7.714V353.822z M275.776,353.822h-7.714v11.839
	h7.714V353.822z M327.213,340.451h-7.714v11.457h7.714V340.451z M336.842,340.451h-7.714v11.457h7.714V340.451z M327.213,353.822
	h-7.714v11.839h7.714V353.822z M336.842,353.822h-7.714v11.839h7.714V353.822z M296.681,340.451h-7.714v11.457h7.714V340.451z
	 M306.309,340.451h-7.714v11.457h7.714V340.451z M296.681,353.822h-7.714v11.839h7.714V353.822z M306.309,353.822h-7.714v11.839
	h7.714V353.822z M263.885,382.194c-1.826,0.12-3.638,0.262-5.451,0.403v10.994h5.451V382.194z M274.572,382.135h-6.51v11.457h6.51
	V382.135z M258.434,399.336c1.811-0.075,3.628-0.141,5.451-0.197v-3.633h-5.451V399.336z M268.062,399.022
	c2.162-0.049,4.332-0.083,6.51-0.105v-3.411h-6.51V399.022z M327.213,382.135h-6.511v11.457h6.511V382.135z M336.842,382.598
	c-1.813-0.141-3.626-0.283-5.452-0.403v11.397h5.452V382.598z M320.703,399.399c2.18,0.097,4.349,0.212,6.511,0.336v-4.229h-6.511
	V399.399z M331.39,399.992c1.825,0.12,3.642,0.25,5.452,0.39v-4.876h-5.452V399.992z M295.947,382.135h-6.98v11.457h6.98V382.135z
	 M306.309,382.135h-6.981v11.457h6.981V382.135z M288.966,398.967c2.318-0.039,4.645-0.063,6.98-0.07v-3.391h-6.98V398.967z
	 M299.328,398.897c2.336,0.008,4.662,0.032,6.981,0.07v-3.461h-6.981V398.897z M372.68,298.015h-8.898v13.407h8.898V298.015z
	 M383.786,298.015h-8.898v13.407h8.898V298.015z M372.68,313.663h-8.898v13.854h8.898V313.663z M383.786,313.663h-8.898v13.854
	h8.898V313.663z M372.68,347.886h-8.898v13.407h8.898V347.886z M383.786,347.886h-8.898v13.407h8.898V347.886z M372.68,363.533
	h-8.898v13.854h8.898V363.533z M383.786,363.533h-8.898v13.854h8.898V363.533z M408.635,298.015h-8.898v13.407h8.898V298.015z
	 M419.742,298.015h-8.898v13.407h8.898V298.015z M408.635,313.663h-8.898v13.854h8.898V313.663z M419.742,313.663h-8.898v13.854
	h8.898V313.663z M408.635,347.886h-8.898v13.407h8.898V347.886z M419.742,347.886h-8.898v13.407h8.898V347.886z M408.635,363.533
	h-8.898v13.854h8.898V363.533z M419.742,363.533h-8.898v13.854h8.898V363.533z M417.506,433.365
	c-0.951-0.246-1.916-0.456-2.889-0.643c-0.822,0.158-1.636,0.334-2.442,0.534v1.293h5.331V433.365z M418.829,434.549h2.532
	c-0.833-0.295-1.678-0.562-2.532-0.81V434.549z M412.175,440.057h5.331v-4.165h-5.331V440.057z M418.829,440.057h5.331v-4.165
	h-5.331V440.057z M197.885,263.385h-7.44v11.05h7.44V263.385z M207.172,263.385h-7.441v11.05h7.441V263.385z M197.885,276.282h-7.44
	V287.7h7.44V276.282z M207.172,276.282h-7.441V287.7h7.441V276.282z M168.435,305.114h-7.44v11.05h7.44V305.114z M177.722,305.114
	h-7.44v11.05h7.44V305.114z M168.435,318.01h-7.44v11.418h7.44V318.01z M177.722,318.01h-7.44v11.418h7.44V318.01z M227.334,305.114
	h-7.44v11.05h7.44V305.114z M236.621,305.114h-7.44v11.05h7.44V305.114z M227.334,318.01h-7.44v11.418h7.44V318.01z M236.621,318.01
	h-7.44v11.418h7.44V318.01z M197.885,305.114h-7.44v11.05h7.44V305.114z M207.172,305.114h-7.441v11.05h7.441V305.114z
	 M197.885,318.01h-7.44v11.418h7.44V318.01z M207.172,318.01h-7.441v11.418h7.441V318.01z M168.435,345.318h-7.44v11.05h7.44
	V345.318z M177.722,345.318h-7.44v11.05h7.44V345.318z M168.435,358.215h-7.44v11.419h7.44V358.215z M177.722,358.215h-7.44v11.419
	h7.44V358.215z M227.334,345.318h-7.44v11.05h7.44V345.318z M236.621,345.318h-7.44v11.05h7.44V345.318z M227.334,358.215h-7.44
	v11.419h7.44V358.215z M236.621,358.215h-7.44v11.419h7.44V358.215z M197.885,345.318h-7.44v11.05h7.44V345.318z M207.172,345.318
	h-7.441v11.05h7.441V345.318z M197.885,358.215h-7.44v11.419h7.44V358.215z M207.172,358.215h-7.441v11.419h7.441V358.215z
	 M168.435,385.523h-7.44v8.845c2.449-0.811,4.928-1.602,7.44-2.366V385.523z M177.722,385.523h-7.44v5.924
	c2.453-0.731,4.932-1.441,7.44-2.128V385.523z M177.722,396.336c-0.275,0.077-0.542,0.159-0.816,0.237h0.816V396.336z
	 M167.7,399.306c-2.263,0.711-4.496,1.444-6.705,2.194v8.338h6.705V399.306z M171.082,409.838h5.597
	c0.347-0.078,0.695-0.156,1.043-0.233V398.42h-6.64V409.838z M227.334,386.024c-0.937,0.136-1.883,0.262-2.816,0.403v10.146h2.816
	V386.024z M221.136,386.949c-0.417,0.066-0.827,0.142-1.242,0.209v9.415h1.242V386.949z M231.823,385.523h-0.991
	c-0.553,0.076-1.1,0.159-1.652,0.237v10.814h2.643V385.523z M236.621,385.523h-1.416v11.05h1.416V385.523z M221.136,398.42h-1.242
	v4.015c0.413-0.05,0.828-0.099,1.242-0.148V398.42z M224.518,401.897c0.936-0.104,1.876-0.203,2.816-0.302v-3.175h-2.816V401.897z
	 M235.205,400.833c0.471-0.042,0.944-0.079,1.416-0.119v-2.294h-1.416V400.833z M231.823,398.42h-2.643v2.98
	c0.877-0.089,1.761-0.169,2.643-0.253V398.42z M197.885,391.341c-1.818,0.396-3.637,0.79-5.428,1.21v4.023h5.428V391.341z
	 M190.444,385.523v0.56c0.807-0.19,1.621-0.374,2.434-0.56H190.444z M199.762,390.922c-0.01,0.002-0.02,0.005-0.03,0.007v5.644h0.03
	V390.922z M207.172,389.429c-1.344,0.26-2.696,0.512-4.028,0.785v6.36h4.028V389.429z M192.456,406.602
	c1.797-0.332,3.608-0.653,5.428-0.965v-7.217h-5.428V406.602z M203.143,404.77c1.338-0.213,2.679-0.422,4.028-0.624v-5.726h-4.028
	V404.77z M199.762,398.42h-0.03v6.909c0.01-0.002,0.02-0.003,0.03-0.005V398.42z M530.684,480.096
	c0.193,0.571,0.321,1.173,0.321,1.809c0,3.143-2.548,5.691-5.691,5.691h-54.587c-3.938,0-7.116,3.251-6.997,7.215
	c0.115,3.831,3.458,6.785,7.29,6.785h27.068c2.071,0,3.75,1.679,3.75,3.75c0,2.071-1.679,3.75-3.75,3.75H486.18
	c-2.491,0-4.495,2.084-4.363,4.604c0.124,2.363,2.245,4.134,4.611,4.134h18.128c-1.828,1.769-3.678,3.517-5.551,5.239v-2.909h-7.306
	v9.415c-1.119,0.963-2.249,1.913-3.382,2.86v-12.275h-7.305v15.49h3.38c-2.479,2-4.985,3.966-7.528,5.888h-18.881
	c-42.986,16.313-99.895,25.292-160.346,25.292c-7.859,0-15.657-0.155-23.373-0.455c-0.184-2.757-2.053-5.378-5.617-5.378
	c-3.324,0-5.176,2.288-5.558,4.837c-2.741-0.159-5.469-0.339-8.185-0.536c-0.546-2.325-2.362-4.301-5.456-4.301
	c-11.322,0-22.644,0-33.966,0c-28.925-4.282-55.499-10.848-78.192-19.459h-18.88c-2.543-1.921-5.049-3.888-7.528-5.888h3.38v-3.577
	c1.127,0,2.255,0,3.382,0v3.577h7.305v-3.577c1.127,0,2.255,0,3.382,0v3.577h7.306v-10.122c-2.48-0.789-4.917-1.596-7.306-2.424
	v4.594c-1.127,0-2.255,0-3.382,0v-5.794c-1.589-0.574-3.164-1.153-4.708-1.744h-2.597v7.538c-1.127,0-2.255,0-3.382,0v-7.538h-7.305
	v7.538c-1.127,0-2.255,0-3.382,0v-7.538h-7.306v2.908c-1.873-1.722-3.722-3.469-5.55-5.238h44.887c2.491,0,4.495-2.084,4.363-4.604
	c-0.124-2.363-2.245-4.134-4.61-4.134H87.733c-2.182,0-3.95-1.769-3.95-3.95v-0.352c0-1.703,1.109-3.163,2.707-3.749
	c2.04-0.749,4.488-2.514,4.484-6.673c-0.003-3.778-3.218-6.775-6.996-6.775l-12.842,0c-3.11,0-5.631-2.521-5.631-5.631
	c0-0.659,0.134-1.281,0.342-1.869h59.071c0.119,1.997,0.374,4.004,0.402,4.124c0.094,0.399,0.202,0.788,0.31,1.178h-1.338
	c-0.915,0-1.657,0.742-1.657,1.657c0,0.915,0.742,1.657,1.657,1.657h2.444c1.036,2.6,2.39,4.964,3.995,7.1h-26.855
	c-0.915,0-1.657,0.742-1.657,1.657c0,0.915,0.742,1.657,1.657,1.657h29.725c10.537,10.597,28.197,13.762,42.784,9.231
	c10.743,0,21.487,0,32.23,0c2.815,0,2.82-4.375,0-4.375c-7.581,0-15.162,0-22.743,0c5.469-3.511,9.918-8.476,12.512-14.924h3.814
	c0.752,0,1.361-0.609,1.361-1.361c0-0.752-0.609-1.361-1.361-1.361h-2.864c0.038-0.126,0.082-0.249,0.119-0.376
	c0.55-1.899,1.108-3.86,1.465-5.862h41.142c-0.112,0.609-0.583,4.561-0.296,9.413c0.292,4.923,1.434,9.332,3.236,13.248
	c-1.434,0-2.868,0-4.301,0c-1.877,0-1.88,2.917,0,2.917c1.937,0,3.874,0,5.812,0c2.435,4.171,5.687,7.685,9.508,10.55
	c-1.518,1.039-1.121,4.018,1.208,4.018c1.778,0,3.556,0,5.334,0c21.939,10.935,54.959,5.351,67.397-16.589
	c8.034,0,16.068,0,24.102,0c1.877,0,1.88-2.917,0-2.917c-7.543,0-15.086,0-22.629,0c1.546-3.399,2.638-7.136,3.156-11.227
	c0.225-1.777,0.807-4.924,0.71-9.413h41.349v0c0.335,2.082,0.939,3.976,0.978,4.138c2.623,11.072,10.359,18.67,19.922,22.711
	h-24.717c-0.915,0-1.657,0.742-1.657,1.657c0,0.915,0.742,1.657,1.657,1.657h37.201c0.181,0,0.352-0.036,0.515-0.09
	c12.471,1.168,25.532-2.712,33.729-11.779h11.481c1.181,0,2.139-0.958,2.139-2.139c0-1.181-0.958-2.139-2.139-2.139h-8.235
	c1.539-2.441,2.783-5.156,3.651-8.154c0.534-1.843,1.212-5.862,1.212-5.862H530.684z M332.866,524.628c4.667,0,9.333,0,14,0
	c1.877,0,1.88-2.917,0-2.917c-4.667,0-9.333,0-14,0C330.989,521.711,330.986,524.628,332.866,524.628z M219.116,496.835
	c4.667,0,9.333,0,14,0c1.877,0,1.88-2.917,0-2.917c-4.667,0-9.333,0-14,0C217.239,493.918,217.236,496.835,219.116,496.835z
	 M217.56,508.355c2.815,0,2.82-4.375,0-4.375C214.745,503.98,214.741,508.355,217.56,508.355z M146.325,528.726
	c-2.474-0.695-4.909-1.41-7.305-2.142v9.19l0.34,0.13c2.279,0.872,4.606,1.718,6.965,2.547V528.726z M157.013,531.554
	c-2.468-0.614-4.906-1.243-7.306-1.892v9.917h-0.102c2.431,0.822,4.899,1.622,7.407,2.399V531.554z M167.7,534.057
	c-2.467-0.541-4.898-1.104-7.305-1.68v10.634c2.401,0.715,4.84,1.406,7.305,2.081V534.057z M178.387,536.254
	c-2.461-0.475-4.896-0.966-7.305-1.473v11.217c2.409,0.633,4.84,1.252,7.305,1.847V536.254z M180.421,519.091c-4.667,0-9.333,0-14,0
	c-1.877,0-1.88,2.917,0,2.917c4.667,0,9.333,0,14,0C182.298,522.007,182.301,519.091,180.421,519.091z M189.074,538.18
	c-2.456-0.413-4.896-0.838-7.306-1.284v11.746c2.41,0.559,4.846,1.098,7.306,1.621V538.18z M210.449,541.289
	c-2.453-0.303-4.89-0.619-7.305-0.953v4.818c-1.127,0-2.255,0-3.382,0v-5.3c-2.454-0.356-4.893-0.725-7.305-1.113v12.231
	c2.411,0.491,4.85,0.961,7.305,1.417v-4.319c1.127,0,2.255,0,3.382,0v4.936c2.415,0.43,4.851,0.843,7.305,1.239V541.289z
	 M221.136,542.497c-2.451-0.252-4.888-0.517-7.306-0.8v13.08c2.419,0.372,4.853,0.731,7.306,1.07V542.497z M231.823,543.489
	c-2.449-0.203-4.886-0.419-7.305-0.652v13.465c2.421,0.318,4.854,0.624,7.305,0.911V543.489z M242.51,544.272
	c-2.448-0.156-4.885-0.324-7.305-0.51v13.83c2.423,0.267,4.855,0.523,7.305,0.758V544.272z M253.198,544.853
	c-2.446-0.11-4.884-0.231-7.306-0.371v14.178c2.424,0.218,4.858,0.425,7.306,0.612V544.853z M260.144,531.251
	c3.753,0,3.76-5.833,0-5.833c-17.306,0-34.611,0-51.917,0c-3.753,0-3.76,5.833,0,5.833
	C225.533,531.251,242.838,531.251,260.144,531.251z M263.885,545.238c-2.445-0.065-4.882-0.142-7.305-0.237v14.515
	c2.426,0.171,4.859,0.33,7.305,0.47V545.238z M274.572,545.431c-2.445-0.022-4.88-0.06-7.305-0.111v1.55
	c-0.043-0.002-0.079-0.012-0.123-0.012c-3.754,0-3.76,5.833,0,5.833c0.044,0,0.08-0.011,0.123-0.012v7.488
	c2.427,0.125,4.86,0.238,7.305,0.333V545.431z M328.008,544.676c-2.425,0.125-4.857,0.24-7.306,0.335v2.34
	c-0.43-0.303-0.974-0.493-1.642-0.493c-0.58,0-1.16,0-1.74,0v-1.732c-2.425,0.08-4.858,0.149-7.305,0.2v1.532
	c-1.127,0-2.255,0-3.382,0v-1.475c-2.426,0.036-4.861,0.059-7.306,0.066v1.409c-1.127,0-2.255,0-3.382,0v-1.409
	c-2.405-0.007-4.801-0.029-7.188-0.064c-0.039,0.001-0.078,0.001-0.117,0.002v1.472c-1.127,0-2.255,0-3.382,0v-1.427
	c-1.788,0.016-3.581,0.026-5.379,0.026c-0.644,0-1.283-0.007-1.926-0.009v2.473c-0.786,1.056-0.787,2.656,0,3.711v8.986
	c2.428,0.08,4.862,0.147,7.306,0.198v-8.124c1.127,0,2.255,0,3.382,0v8.182c2.429,0.036,4.863,0.059,7.305,0.066v-8.248
	c1.127,0,2.255,0,3.382,0v8.248c2.442-0.007,4.877-0.029,7.306-0.066v-8.182c1.127,0,2.255,0,3.382,0v8.124
	c2.443-0.05,4.877-0.118,7.305-0.198v-7.926c0.58,0,1.16,0,1.74,0c0.668,0,1.212-0.191,1.642-0.495v8.302
	c2.445-0.095,4.879-0.208,7.306-0.333V544.676z M338.696,544.028c-2.422,0.17-4.857,0.327-7.306,0.468v15.492
	c2.446-0.14,4.88-0.3,7.306-0.47V544.028z M349.383,543.174c-2.42,0.217-4.856,0.418-7.306,0.605v15.493
	c2.448-0.187,4.881-0.394,7.306-0.612V543.174z M363.205,557.242h-3.135v-15.133c-2.418,0.266-4.854,0.514-7.305,0.749v15.492
	C356.272,558.013,359.753,557.644,363.205,557.242z M370.757,540.823c-2.416,0.316-4.853,0.616-7.306,0.901v15.488
	c2.451-0.286,4.884-0.593,7.306-0.911V540.823z M381.445,539.306c-2.415,0.37-4.85,0.723-7.306,1.062v15.48
	c2.453-0.34,4.887-0.698,7.306-1.07V539.306z M390.81,532.418c-25.667,0-51.333,0-77,0c-3.753,0-3.76,5.833,0,5.833
	c24.73,0,49.459,0,74.189,0c-1.057,0.176-2.108,0.356-3.172,0.527v15.467c2.454-0.396,4.889-0.809,7.305-1.239v-15.059
	C394.489,536.76,394.057,532.418,390.81,532.418z M402.819,535.525c-2.413,0.487-4.842,0.963-7.306,1.417v15.448
	c2.455-0.456,4.894-0.926,7.306-1.417V535.525z M413.507,533.226c-1.161,0.266-2.321,0.532-3.495,0.79
	c-1.261,0.277-2.535,0.547-3.811,0.815v15.432c2.459-0.523,4.896-1.062,7.306-1.621V533.226z M424.193,530.621
	c-2.4,0.623-4.84,1.224-7.304,1.812v15.412c2.465-0.595,4.896-1.214,7.304-1.847V530.621z M424.2,520.265c-4.843,0-9.686,0-14.528,0
	c-1.877,0-1.88,2.917,0,2.917c4.843,0,9.685,0,14.528,0C426.077,523.182,426.08,520.265,424.2,520.265z M434.881,527.666
	c-2.399,0.704-4.832,1.392-7.306,2.059v15.367c2.466-0.674,4.905-1.366,7.306-2.081V527.666z M459.637,520.165v6.615h-3.382v-6.233
	c-2.385,0.901-4.817,1.783-7.304,2.642v3.591h-3.307c-0.026,0-0.05,0.007-0.076,0.008v-2.451c-2.389,0.793-4.83,1.565-7.306,2.32
	v15.323c2.508-0.777,4.976-1.578,7.407-2.399h-0.101v-8.53c0.026,0.001,0.049,0.008,0.076,0.008h3.307v7.393
	c2.358-0.829,4.686-1.675,6.964-2.547l0.34-0.13v-4.717h3.382v4.598h7.306v-4.598h3.382v4.598h7.306v-4.789
	c0.744-0.335,1.264-1.079,1.264-1.948c0-0.869-0.52-1.613-1.264-1.948v-6.806h-7.306v6.615h-3.382v-6.615H459.637z M106.959,532.439
	v-0.361c-0.142,0-0.285,0-0.427,0C106.674,532.198,106.815,532.319,106.959,532.439z M124.951,425.94v-13.938h-1.623v14.617
	C123.866,426.392,124.407,426.166,124.951,425.94z M130.264,376.975h-2.557v26.409h2.557V376.975z M469.497,353.114
	c-1.625,0-3.141,0.359-4.453,0.967c-1.485,0.689-2.705,1.7-3.482,2.925h15.869C475.964,354.698,472.963,353.114,469.497,353.114z
	 M470.777,376.975h-2.557v26.409h2.557V376.975z M463.841,427.944h3.101v-15.941h-3.101V427.944z M475.152,412.003h-4.426
	c0.016-0.09,0.051-0.167,0.051-0.253v-1.602h-0.453v17.796h4.828V412.003z M571.838,356.838c-0.648-0.952-1.561-1.766-2.66-2.392
	c-1.455-0.83-3.224-1.331-5.149-1.331c-0.15,0-0.293,0.019-0.441,0.025c-3.276,0.129-6.094,1.659-7.494,3.867h15.869
	C571.927,356.948,571.878,356.895,571.838,356.838z M566.509,412.003v15.941h1.753c0.48-1.046,0.954-2.095,1.422-3.148v-12.793
	h-0.507H566.509z M562.753,411.75c0,0.086,0.031,0.163,0.047,0.253h-4.426v15.941h3.095h1.658v-17.796h-0.374V411.75z
	 M562.753,403.384h2.557v-26.409h-2.557V403.384z M29.113,353.114c-0.002,0-0.005,0-0.007,0c-1.304,0.001-2.541,0.226-3.657,0.629
	c-1.418,0.513-2.629,1.318-3.532,2.313c-0.274,0.301-0.527,0.615-0.739,0.95h15.869C35.581,354.698,32.579,353.114,29.113,353.114z
	 M27.836,411.75c0,0.086,0.031,0.163,0.047,0.253h-4.426v7.917c1.143,2.698,2.336,5.368,3.556,8.024h1.753v-17.796h-0.929V411.75z
	 M32.148,427.944h2.621v-15.941h-2.621V427.944z M27.836,403.384h2.557v-26.409h-2.557V403.384z"></path>
<path id="color_x5F_3" fill="#E84393" d="M0,303.912c0-33.048,5.396-64.834,15.338-94.536v189.072
	C5.396,368.746,0,336.96,0,303.912z M361.638,378.331c-4.301-0.552-8.642-1.05-13.024-1.489V276.303h2.037h84.257v118.274
	c-19.363-6.461-40.75-11.464-63.46-14.88h14.481v-34.122h-24.291V378.331z M397.594,329.827h24.291v-34.122h-24.291V329.827z
	 M397.594,379.697h24.291v-34.122h-24.291V379.697z M361.638,329.827h24.291v-34.122h-24.291V329.827z M381.445,394.785v-6.607
	c-2.419-0.428-4.853-0.84-7.306-1.23v7.836H381.445z M392.132,394.785v-4.572c-2.415-0.494-4.851-0.968-7.305-1.423v5.995H392.132z
	 M370.757,394.785v-8.358c-2.421-0.366-4.854-0.717-7.306-1.047v9.404H370.757z M360.07,394.785v-9.821
	c-2.427-0.307-4.851-0.62-7.304-0.891v10.712H360.07z M349.383,383.717c-0.255-0.026-0.513-0.048-0.768-0.074v11.142h0.768V383.717z
	 M402.819,394.785v-2.234c-2.411-0.565-4.851-1.104-7.306-1.628v3.863H402.819z M411.772,394.785
	c-1.847-0.482-3.696-0.962-5.571-1.42v1.42H411.772z M425.444,440.057h6.742c-2.128-1.458-4.381-2.744-6.742-3.84V440.057z
	 M394.256,243.567h-5.828l-0.335,24.736h6.498L394.256,243.567z M381.812,243.567h-5.829l-0.335,24.736h6.498L381.812,243.567z
	 M369.367,243.567h-5.828l-0.335,24.736h6.498L369.367,243.567z M356.923,243.567h-5.828l-0.335,24.736h6.498L356.923,243.567z
	 M431.59,243.567h-5.828l-0.335,24.736h6.498L431.59,243.567z M419.145,243.567h-5.828l-0.335,24.736h6.498L419.145,243.567z
	 M406.701,243.567h-5.829l-0.335,24.736h6.498L406.701,243.567z M246.852,335.683h-96.088v-37.577h96.088V335.683z M179.514,303.21
	h-20.311v28.123h20.311V303.21z M208.964,303.21h-20.311v28.123h20.311V303.21z M238.413,303.21h-20.311v28.123h20.311V303.21z
	 M246.852,399.947v-16.322c-0.319,0.032-0.641,0.059-0.96,0.092v16.289C246.211,399.985,246.533,399.968,246.852,399.947z
	 M242.51,400.248v-16.174c-1.374,0.152-2.733,0.324-4.097,0.489v16.001C239.774,400.452,241.141,400.348,242.51,400.248z
	 M210.449,403.675V388.79c-0.499,0.092-0.988,0.195-1.485,0.289v14.807C209.458,403.815,209.953,403.745,210.449,403.675z
	 M218.102,402.648V387.46c-1.425,0.238-2.857,0.469-4.271,0.719v15.027C215.25,403.015,216.671,402.826,218.102,402.648z
	 M159.203,383.619h20.311v5.217c3.008-0.806,6.055-1.58,9.138-2.322v-2.896h13.002c6.849-1.403,13.853-2.651,20.988-3.744h-71.877
	v18.085c2.767-1.03,5.58-2.03,8.439-2.997V383.619z M157.013,402.882c-2.116,0.753-4.188,1.536-6.249,2.326v11.503
	c2.059-0.632,4.141-1.25,6.249-1.852V402.882z M167.7,411.983v-0.241h-7.305v2.171C162.803,413.252,165.233,412.605,167.7,411.983z
	 M188.652,407.328v-13.855c-2.315,0.568-4.613,1.149-6.883,1.754v13.494C184.041,408.239,186.339,407.777,188.652,407.328z
	 M106.215,143.123H88.03v6.913h18.185V143.123z M88.03,165.237h18.185v-6.913H88.03V165.237z M96.579,150.724H84.094v6.913h12.485
	V150.724z M110.15,150.724H97.665v6.913h12.485V150.724z M125.153,168.714H36.24v8.322h88.913V168.714z M132.288,353.636v-2.403
	H115.06v6.758h6.125l-0.136-0.984c1.464-2.308,4.469-3.892,7.935-3.892C130.154,353.114,131.264,353.308,132.288,353.636z
	 M132.288,321.138h-15.572v6.758h15.572V321.138z M132.288,293.303H115.06v6.758h17.228V293.303z M132.288,266.477v-1.01h-15.572
	v6.758h15.572V266.477z M132.288,237.632H115.06v6.758h17.228V237.632z M94.28,357.991h17.228v-6.758H94.28V357.991z M94.28,300.06
	h17.228v-6.758H94.28V300.06z M94.28,244.39h17.228v-6.758H94.28V244.39z M116.715,346.567h-12.404v2.043h17.228v-6.758h-4.824
	V346.567z M116.715,311.758v6.758h4.824v-6.758H116.715z M121.539,283.923h-4.824v3.867h-12.404v2.89h17.228V283.923z
	 M116.715,256.087v6.758h4.824v-6.758H116.715z M104.311,235.01h17.228v-5.996h-17.228V235.01z M67.114,351.233H49.886v6.758h17.228
	V351.233z M67.114,293.303H49.886v6.758h17.228V293.303z M67.114,237.632H49.886v6.758h17.228V237.632z M29.106,353.115
	c0.002,0,0.005,0,0.007,0c3.466,0,6.467,1.584,7.934,3.892l-0.136,0.984h9.422v-6.758H29.106V353.115z M29.106,327.896h15.572
	v-6.758H29.106V327.896z M29.106,300.06h17.228v-6.758H29.106V300.06z M29.106,272.225h15.572v-6.758H29.106V272.225z
	 M29.106,244.39h17.228v-6.758H29.106V244.39z M39.137,341.853v6.758h17.228v-2.043H44.678v-4.714H39.137z M39.137,318.516h5.541
	v-6.758h-5.541V318.516z M39.137,283.923v6.758h17.228v-2.89H44.678v-3.867H39.137z M39.137,262.845h5.541v-6.758h-5.541V262.845z
	 M39.137,235.01h17.228v-5.996H39.137V235.01z M138.937,202.84H22.457v1.55v3.889v0.984h116.48V202.84z M16.894,386.39v3.889v4.169
	h8.556h2.387v-9.429H16.894V386.39z M144.5,394.448v-9.429h-14.236v9.429h2.024H144.5z M127.706,385.019H30.394v9.429h97.313
	V385.019z M552.021,432.668v5.444h11.339c-0.685,1.354-1.387,2.698-2.092,4.04v-2.485h-17.857v5.444h16.295
	c-4.578,8.479-9.554,16.711-14.906,24.669H469.48c-4.179-21.596-23.167-37.91-45.984-37.91c-3.037,0-6.003,0.299-8.879,0.85
	c-0.822,0.158-1.636,0.334-2.442,0.534c-0.431,0.107-0.857,0.226-1.284,0.345v6.455h-8.642v-3.085
	c-1.303,0.665-2.571,1.388-3.801,2.168c-0.472,0.299-0.94,0.602-1.4,0.918c-1.57,1.076-3.07,2.246-4.494,3.5
	c-4.664,4.108-8.508,9.123-11.246,14.778c-0.643,1.328-1.227,2.689-1.744,4.083c-0.88,2.369-1.563,4.833-2.053,7.365
	c0,0,0-0.001,0-0.001h-23.669c0,0.001,0,0.001,0,0.002c0.001-0.135,0.008-0.268,0.008-0.403c0-31.046-25.168-56.213-56.213-56.213
	c-3.022,0-5.986,0.245-8.879,0.704c-16.538,2.625-30.673,12.458-39.084,26.184c-0.698,1.139-1.346,2.31-1.963,3.5
	c-2.381,4.594-4.155,9.552-5.196,14.778c-0.268,1.343-0.477,2.707-0.647,4.083c-0.282,2.283-0.445,4.604-0.445,6.963
	c0,0.139,0.007,0.276,0.008,0.415c0-0.005,0-0.01,0-0.014h-23.669c-4.179-21.596-23.167-37.91-45.984-37.91
	c-3.037,0-6.003,0.299-8.879,0.85c-4.283,0.822-8.355,2.229-12.137,4.131c-0.689,0.347-1.368,0.71-2.037,1.089
	c-1.163,0.659-2.297,1.362-3.395,2.115c-1.57,1.076-3.07,2.246-4.494,3.5c-4.664,4.108-8.507,9.123-11.245,14.778
	c-0.643,1.328-1.227,2.689-1.744,4.083c-0.88,2.369-1.563,4.833-2.053,7.365c0,0,0-0.001,0-0.001H50.475
	c-8.421-12.524-15.903-25.729-22.373-39.504H138c40.855-17.953,97.296-29.057,159.638-29.057s118.782,11.104,159.638,29.057h109.898
	c-0.374,0.796-0.735,1.599-1.116,2.391H552.021z M82.281,457.946h17.857v-5.444H82.281V457.946z M56.539,439.668h17.857v-5.444
	H56.539V439.668z M36.768,439.668h17.857v-5.444H36.768V439.668z M65.786,441.224H47.929v5.444h17.857V441.224z M91.528,459.501
	H73.672v5.444h17.857V459.501z M111.298,459.501H93.441v5.444h17.857V459.501z M213.805,419.262h17.857v-5.444h-17.857V419.262z
	 M205.195,426.262h17.857v-5.444h-17.857V426.262z M229.989,456.39h-14.5v5.444h14.5V456.39z M242.822,420.818h-17.857v5.444h17.857
	V420.818z M363.052,419.262v-5.444h-17.857v5.444H363.052z M356.356,426.262h17.857v-5.444h-17.857V426.262z M379.385,449.39
	h-17.857v5.444h17.857V449.39z M382.822,413.818h-17.857v5.444h17.857V413.818z M490.965,449.596h17.857v-5.444h-17.857V449.596z
	 M471.195,449.596h17.857v-5.444h-17.857V449.596z M500.212,451.151h-17.857v5.444h17.857V451.151z M502.258,456.439h17.857v-5.444
	h-17.857V456.439z M531.275,457.994h-17.857v5.444h17.857V457.994z M539.885,450.994h-17.857v5.444h17.857V450.994z
	 M550.108,432.668h-17.857v5.444h17.857V432.668z"></path>
<path id="color_x5F_2" fill="#FBC02D" d="M464.33,376.975l-2.767-19.968h15.869l-2.767,19.968H464.33z M22.448,366.168
	l0.378,2.73l1.119,8.077h3.89h2.557h3.887l1.75-12.625l0.881-6.359l0.136-0.984H21.178l0.407,2.939L22.448,366.168z
	 M434.909,330.707h1.985V320.01h-1.985V330.707z M470.889,165.1h-43.871c-3.222,0-5.833,2.661-5.833,5.943v1.585
	c0,3.282,2.612,5.943,5.833,5.943h38.499L470.889,165.1z M314.783,221.112c0-2.363-1.915-4.278-4.278-4.278h-3.287l6.838,6.662
	C314.514,222.815,314.783,221.995,314.783,221.112z M569.179,354.445c1.098,0.626,2.012,1.44,2.66,2.392V209.389
	c-1.052-0.203-1.993-0.774-2.66-1.574V354.445z M166.227,221.112c0,2.363,1.915,4.278,4.278,4.278h13.955l7.094-8.556h-21.049
	C168.142,216.835,166.227,218.75,166.227,221.112z M459.455,234.037h-20.229v9.312l0.934,2.574h19.295V234.037z M344.219,243.567
	l0.079-0.218v-9.403h-19.517l2.395,2.333v7.288H344.219z M459.455,283.164h-7.423c-0.215-4.515-2.993-8.35-6.91-10.096v3.234
	h-10.213v19.087h1.985v-3.573h22.561V283.164z M138.937,209.263v3.683h9.023c3.222,0,5.833-2.612,5.833-5.833v-1.556
	c0-3.222-2.612-5.833-5.833-5.833h-10.091l1.068,2.391v0.726V209.263z M155.727,258.251c0,2.899,2.35,5.25,5.25,5.25h0.165
	l5.164-10.5h-5.329C158.077,253.001,155.727,255.352,155.727,258.251z M29.106,272.225v-6.758V244.39v-6.758v-2.909h-3.657v0v3.889
	v6.222v3.889v6.222v3.889v6.222v3.889v5.444h3.657V272.225z M167.765,140.019c0.332-3.479-2.395-6.406-5.806-6.406h-39.288v7h-6.105
	v4.667h45.142C164.755,145.279,167.476,143.052,167.765,140.019z M459.455,347.414h-13.384v-34.139h13.384V347.414z
	 M457.278,331.242h-9.032v13.861h9.032V331.242z M457.278,315.587h-9.032V329h9.032V315.587z M138.865,313.275h-6.577v2.312h4.402
	V329h-4.402v2.241h4.402v13.861h-4.402v2.311h6.577V313.275z M138.865,369.191v-9.25h-2.354l0.407-2.935h-15.869l0.136,0.984
	l0.881,6.359l1.75,12.625h3.891h2.557h3.887l1.516-10.94l0.524-3.782h0.499v4.791L138.865,369.191z M446.071,361.424h13.384v34.139
	h-13.384V361.424z M448.246,377.149h9.032v-13.414h-9.032V377.149z M448.246,393.251h9.032V379.39h-9.032V393.251z M308.167,282.687
	h-21.059v-29.158h21.059V282.687z M296.681,268.874h-7.714v11.839h7.714V268.874z M296.681,255.503h-7.714v11.457h7.714V255.503z
	 M306.309,268.874h-7.714v11.839h7.714V268.874z M306.309,255.503h-7.714v11.457h7.714V255.503z M277.634,325.951h-21.059v-29.158
	h21.059V325.951z M266.148,312.138h-7.714v11.839h7.714V312.138z M266.148,298.767h-7.714v11.457h7.714V298.767z M275.776,312.138
	h-7.714v11.839h7.714V312.138z M275.776,298.767h-7.714v11.457h7.714V298.767z M338.7,325.951h-21.059v-29.158H338.7V325.951z
	 M327.213,312.138h-7.714v11.839h7.714V312.138z M327.213,298.767h-7.714v11.457h7.714V298.767z M336.842,312.138h-7.714v11.839
	h7.714V312.138z M336.842,298.767h-7.714v11.457h7.714V298.767z M308.167,325.951h-21.059v-29.158h21.059V325.951z M296.681,312.138
	h-7.714v11.839h7.714V312.138z M296.681,298.767h-7.714v11.457h7.714V298.767z M306.309,312.138h-7.714v11.839h7.714V312.138z
	 M306.309,298.767h-7.714v11.457h7.714V298.767z M256.576,338.476h21.059v29.158h-21.059V338.476z M268.062,351.907h7.714v-11.457
	h-7.714V351.907z M268.062,365.66h7.714v-11.839h-7.714V365.66z M258.434,351.907h7.714v-11.457h-7.714V351.907z M258.434,365.66
	h7.714v-11.839h-7.714V365.66z M317.641,338.476H338.7v29.158h-21.059V338.476z M329.128,351.907h7.714v-11.457h-7.714V351.907z
	 M329.128,365.66h7.714v-11.839h-7.714V365.66z M319.499,351.907h7.714v-11.457h-7.714V351.907z M319.499,365.66h7.714v-11.839
	h-7.714V365.66z M287.108,338.476h21.059v29.158h-21.059V338.476z M298.595,351.907h7.714v-11.457h-7.714V351.907z M298.595,365.66
	h7.714v-11.839h-7.714V365.66z M288.966,351.907h7.714v-11.457h-7.714V351.907z M288.966,365.66h7.714v-11.839h-7.714V365.66z
	 M398.448,439.139v0.918h3.801v-3.085C400.945,437.636,399.678,438.359,398.448,439.139z M361.638,329.827v-34.122h24.291v34.122
	H361.638z M374.888,311.422h8.898v-13.407h-8.898V311.422z M374.888,327.516h8.898v-13.854h-8.898V327.516z M363.781,311.422h8.898
	v-13.407h-8.898V311.422z M363.781,327.516h8.898v-13.854h-8.898V327.516z M421.885,329.827h-24.291v-34.122h24.291V329.827z
	 M408.635,313.663h-8.898v13.854h8.898V313.663z M408.635,298.015h-8.898v13.407h8.898V298.015z M419.742,313.663h-8.898v13.854
	h8.898V313.663z M419.742,298.015h-8.898v13.407h8.898V298.015z M397.594,345.575h24.291v34.122h-24.291V345.575z M410.844,361.293
	h8.898v-13.407h-8.898V361.293z M410.844,377.387h8.898v-13.854h-8.898V377.387z M399.737,361.293h8.898v-13.407h-8.898V361.293z
	 M399.737,377.387h8.898v-13.854h-8.898V377.387z M410.891,433.602v6.455h1.284v-4.165h5.331v4.165h1.323v-4.165h5.331v4.165h1.284
	v-3.84c-1.329-0.617-2.69-1.175-4.083-1.667h-2.532v-0.81c-0.44-0.128-0.878-0.259-1.323-0.374v1.184h-5.331v-1.293
	C411.744,433.363,411.318,433.483,410.891,433.602z M188.652,289.604v-28.123h20.311v28.123H188.652z M199.731,274.435h7.441v-11.05
	h-7.441V274.435z M199.731,287.7h7.441v-11.419h-7.441V287.7z M190.444,274.435h7.44v-11.05h-7.44V274.435z M190.444,287.7h7.44
	v-11.419h-7.44V287.7z M179.514,303.21v28.123h-20.311V303.21H179.514z M168.435,318.01h-7.44v11.418h7.44V318.01z M168.435,305.114
	h-7.44v11.05h7.44V305.114z M177.722,318.01h-7.44v11.418h7.44V318.01z M177.722,305.114h-7.44v11.05h7.44V305.114z M238.413,303.21
	v28.123h-20.311V303.21H238.413z M227.334,318.01h-7.44v11.418h7.44V318.01z M227.334,305.114h-7.44v11.05h7.44V305.114z
	 M236.621,318.01h-7.44v11.418h7.44V318.01z M236.621,305.114h-7.44v11.05h7.44V305.114z M208.964,303.21v28.123h-20.311V303.21
	H208.964z M197.885,318.01h-7.44v11.418h7.44V318.01z M197.885,305.114h-7.44v11.05h7.44V305.114z M207.172,318.01h-7.441v11.418
	h7.441V318.01z M207.172,305.114h-7.441v11.05h7.441V305.114z M179.514,343.414v28.123h-20.311v-28.123H179.514z M168.435,358.215
	h-7.44v11.419h7.44V358.215z M168.435,345.318h-7.44v11.05h7.44V345.318z M177.722,358.215h-7.44v11.419h7.44V358.215z
	 M177.722,345.318h-7.44v11.05h7.44V345.318z M238.413,343.414v28.123h-20.311v-28.123H238.413z M227.334,358.215h-7.44v11.419h7.44
	V358.215z M227.334,345.318h-7.44v11.05h7.44V345.318z M236.621,358.215h-7.44v11.419h7.44V358.215z M236.621,345.318h-7.44v11.05
	h7.44V345.318z M208.964,343.414v28.123h-20.311v-28.123H208.964z M197.885,358.215h-7.44v11.419h7.44V358.215z M197.885,345.318
	h-7.44v11.05h7.44V345.318z M207.172,358.215h-7.441v11.419h7.441V358.215z M207.172,345.318h-7.441v11.05h7.441V345.318z
	 M553.276,206.65h15.567v-3.859c0.651-1.051,1.737-1.779,2.995-1.968v-11.952h-5.077v8.43h-13.486V206.65z M535.251,153.057h-9.301
	h-23.333h-9.233v9.349h41.868V153.057z M475.357,184.528h18.025v-9.349h-18.025V184.528z M535.251,184.528h18.025v-9.349h-18.025
	V184.528z M475.357,206.65v-9.349h-13.486h-2.082v9.349h5.254H475.357z M524.846,211.228h-21.059V182.07h21.059V211.228z
	 M513.359,197.416h-7.714v11.839h7.714V197.416z M513.359,184.044h-7.714v11.457h7.714V184.044z M522.988,197.416h-7.714v11.839
	h7.714V197.416z M522.988,184.044h-7.714v11.457h7.714V184.044z M506.342,270.594h-33.211v-45.985h33.211V270.594z M488.227,248.809
	h-12.166v18.671h12.166V248.809z M488.227,227.722h-12.166v18.068h12.166V227.722z M503.412,248.809h-12.166v18.671h12.166V248.809z
	 M503.412,227.722h-12.166v18.068h12.166V227.722z M506.342,337.803h-33.211v-45.985h33.211V337.803z M488.227,316.018h-12.166
	v18.671h12.166V316.018z M488.227,294.931h-12.166v18.068h12.166V294.931z M503.412,316.018h-12.166v18.671h12.166V316.018z
	 M503.412,294.931h-12.166v18.068h12.166V294.931z M555.502,270.594h-33.211v-45.985h33.211V270.594z M537.387,248.809h-12.166
	v18.671h12.166V248.809z M537.387,227.722h-12.166v18.068h12.166V227.722z M552.572,248.809h-12.166v18.671h12.166V248.809z
	 M552.572,227.722h-12.166v18.068h12.166V227.722z M555.502,337.803h-33.211v-45.985h8.714h24.498V337.803z M537.387,316.018
	h-12.166v18.671h12.166V316.018z M537.387,294.931h-12.166v18.068h12.166V294.931z M552.572,316.018h-12.166v18.671h12.166V316.018z
	 M552.572,294.931h-12.166v18.068h12.166V294.931z M56.365,287.79H44.678v-3.867v-11.698v-6.758v-2.622v-6.758v-8.513h29.045v40.216
	H56.365z M60.521,266.099h10.64v-15.801h-10.64V266.099z M60.521,285.067h10.64v-16.328h-10.64V285.067z M47.241,266.099h10.64
	v-15.801h-10.64V266.099z M47.241,285.067h10.64v-16.328h-10.64V285.067z M56.365,346.567H44.678v-4.714v-13.957v-6.758v-2.622
	v-6.758v-5.407h29.045v40.216H56.365z M60.521,324.876h10.64v-15.801h-10.64V324.876z M60.521,343.844h10.64v-16.328h-10.64V343.844
	z M47.241,324.876h10.64v-15.801h-10.64V324.876z M47.241,343.844h10.64v-16.328h-10.64V343.844z M116.715,287.79h-12.404H87.671
	v-40.216h29.045v8.513v6.758v2.622v6.758v11.698V287.79z M100.873,268.739h-10.64v16.328h10.64V268.739z M100.873,250.298h-10.64
	v15.801h10.64V250.298z M114.153,268.739h-10.64v16.328h10.64V268.739z M114.153,250.298h-10.64v15.801h10.64V250.298z
	 M87.671,306.351h29.045v5.407v6.758v2.622v6.758v13.957v4.714h-12.404H87.671V306.351z M103.513,324.876h10.64v-15.801h-10.64
	V324.876z M103.513,343.844h10.64v-16.328h-10.64V343.844z M90.233,324.876h10.64v-15.801h-10.64V324.876z M90.233,343.844h10.64
	v-16.328h-10.64V343.844z M88.016,199.701H73.265v-19.322h14.751V199.701z M80.048,190.514h-4.78v7.336h4.78V190.514z
	 M80.048,182.229h-4.78v7.099h4.78V182.229z M86.014,190.514h-4.78v7.336h4.78V190.514z M86.014,182.229h-4.78v7.099h4.78V182.229z
	 M266.054,434.195v-2.247h-2.828v-4.264h23.553v4.264h-2.968v2.247h2.968v1.698h-2.968v4.164h-1.134v-4.164h-15.491v4.163h-1.133
	v-4.163h-2.828v-1.698H266.054z M267.187,434.195h15.491v-2.247h-15.491V434.195z M293.471,434.195v-2.247h-2.828v-4.264h23.553
	v4.264h-2.968v2.247h2.968v1.698h-2.968v4.164h-1.134v-4.164h-15.491v4.163h-1.133v-4.163h-2.828v-1.698H293.471z M294.603,434.195
	h15.491v-2.247h-15.491V434.195z M129.592,458.335c-0.643,1.328-1.227,2.689-1.744,4.083h70.105
	c-0.518-1.394-1.101-2.756-1.744-4.083H129.592z M241.869,462.418h93.779c-0.17-1.376-0.379-2.74-0.647-4.083h-92.486
	C242.249,459.678,242.04,461.042,241.869,462.418z M379.564,462.418h70.105c-0.518-1.394-1.101-2.756-1.744-4.083h-66.617
	C380.666,459.662,380.082,461.024,379.564,462.418z M335.374,478.298c0.001-0.009,0.002-0.018,0.004-0.026
	c-0.114,0.629-0.149,1.114-0.081,1.824h41.349v0v-1.798h-23.514H335.374z M470.346,478.298h-17.758l-0.206,1.798h85.147
	c0.44-0.598,0.876-1.197,1.312-1.798H470.346L470.346,478.298z M124.929,480.096v-1.798H56.435c0.435,0.601,0.872,1.201,1.311,1.798
	h8.101h59.071H124.929z M200.872,480.096h0.047h41.142l0.182-1.783l-41.371-0.016V480.096z M578.224,403.384
	c-0.401,1.13-0.794,2.264-1.208,3.388c-1.023,2.779-2.098,5.533-3.201,8.272v-4.896h-1.977v9.727
	c-0.699,1.65-1.425,3.286-2.153,4.921v-12.793h-0.507v-1.855h-2.669v17.796h1.753c-0.358,0.78-0.725,1.556-1.09,2.333H457.276
	c-40.856-17.953-97.296-29.057-159.638-29.057S178.855,412.325,138,430.277H28.102c-0.365-0.777-0.731-1.553-1.09-2.333h1.753
	v-17.796h-7.305v4.896c-1.103-2.739-2.178-5.493-3.201-8.271c-0.414-1.124-0.807-2.258-1.208-3.388h23.371v-3.267h17.401v3.267
	h10.334v-8.936h25.079v8.936h10.334v-3.267h17.401v3.267h16.321c3.708-1.617,7.527-3.166,11.435-4.656
	c0.676-0.258,1.355-0.514,2.037-0.768h0c2.767-1.03,5.58-2.03,8.439-2.997v-11.345h20.311v5.217c3.008-0.806,6.055-1.58,9.138-2.322
	v-2.896h13.002c6.849-1.403,13.853-2.651,20.988-3.744h-71.877v-0.188v-4.407h96.088v-34.961h-96.088v-4.407h96.088v-0.229v-37.577
	h-96.088v-0.119v-4.288h96.088v-9.096l-6.17-12.546h4.49c2.363,0,4.278-1.915,4.278-4.278c0-2.362-1.915-4.278-4.278-4.278h-8.697
	l-5.534-11.253c1.306-0.839,2.176-2.296,2.176-3.964c0-2.605-2.112-4.717-4.717-4.717h-0.172l-7.977-9.621h33.477
	c2.363,0,4.278-1.915,4.278-4.278c0-2.362-1.915-4.278-4.278-4.278h-40.571l-7.093-8.556h41.053c3.436,0,6.222-2.786,6.222-6.222
	c0-3.436-2.786-6.222-6.222-6.222h-20.611c-3.651,0-6.611-2.96-6.611-6.611c0-3.651,2.96-6.611,6.611-6.611h41.611
	c3.007,0,5.444-2.438,5.444-5.444s-2.438-5.444-5.444-5.444H146.394c-3.222,0-5.833-2.612-5.833-5.833
	c0-3.222,2.612-5.833,5.833-5.833h110.444c2.792,0,5.055-2.263,5.055-5.056c0-2.792-2.263-5.055-5.055-5.055H238.56
	c-3.866,0-7-3.134-7-7s3.134-7,7-7h25.278c2.363,0,4.278-1.915,4.278-4.278c0-2.363-1.915-4.278-4.278-4.278h-55.222
	c-3.222,0-5.833-2.612-5.833-5.833c0-3.222,2.612-5.833,5.833-5.833h5.444c2.792,0,5.056-2.263,5.056-5.055
	c0-2.792-2.263-5.056-5.056-5.056h-53.667c-3.222,0-5.833-2.612-5.833-5.833v-1.556c0-3.222,2.612-5.833,5.833-5.833h110.444
	c3.651,0,6.611,2.96,6.611,6.611c0,3.651-2.96,6.611-6.611,6.611h-1.556c-2.792,0-5.056,2.263-5.056,5.056
	c0,2.792,2.263,5.055,5.056,5.055h39.667c3.222,0,5.833,2.612,5.833,5.833c0,3.222-2.612,5.833-5.833,5.833h-3.111
	c-2.363,0-4.278,1.915-4.278,4.278c0,2.363,1.915,4.278,4.278,4.278h43.167c3.866,0,7-3.134,7-7s-3.134-7-7-7h-0.778
	c-3.007,0-5.444-2.438-5.444-5.444s2.438-5.445,5.444-5.445h0.389c4.081,0,7.389-3.308,7.389-7.389c0-4.081-3.308-7.389-7.389-7.389
	h-41.611c-3.866,0-7-3.134-7-7c0-3.866,3.134-7,7-7h11.278c3.222,0,5.833-2.612,5.833-5.833c0-3.222-2.612-5.833-5.833-5.833
	h-86.333c-3.651,0-6.611-2.96-6.611-6.611c0-3.651,2.96-6.611,6.611-6.611h10.111c3.651,0,6.611-2.96,6.611-6.611
	c0-3.651-2.96-6.611-6.611-6.611h-56.778c-3.651,0-6.611-2.96-6.611-6.611c0-3.651,2.96-6.611,6.611-6.611h144.667
	c3.651,0,6.611,2.96,6.611,6.611c0,3.651-2.96,6.611-6.611,6.611h-21c-3.651,0-6.611,2.96-6.611,6.611
	c0,3.651,2.96,6.611,6.611,6.611h54.445c3.651,0,6.611,2.96,6.611,6.611c0,3.651-2.96,6.611-6.611,6.611h-6.611
	c-3.222,0-5.833,2.612-5.833,5.833c0,3.222,2.612,5.833,5.833,5.833h58.333c3.866,0,7,3.134,7,7c0,3.866-3.134,7-7,7h-17.5
	c-4.081,0-7.389,3.308-7.389,7.389c0,4.081,3.308,7.389,7.389,7.389h74.278c3.007,0,5.444,2.438,5.444,5.445
	s-2.438,5.444-5.444,5.444h-42.778c-3.866,0-7,3.134-7,7s3.134,7,7,7h4.667c3.866,0,7,3.134,7,7s-3.134,7-7,7h-98.389
	c-2.792,0-5.056,2.263-5.056,5.055c0,2.792,2.263,5.056,5.056,5.056h13.222c3.222,0,5.833,2.612,5.833,5.833
	c0,3.222-2.612,5.833-5.833,5.833h-3.5c-3.007,0-5.444,2.438-5.444,5.444s2.438,5.444,5.444,5.444h74.278
	c3.651,0,6.611,2.96,6.611,6.611c0,3.651-2.96,6.611-6.611,6.611H303.116c-2.328,0-4.333,1.294-5.4,3.187l-0.078-0.076
	l-29.538,28.778v2.917v6.417v2.917v28.972h-20.273v2.917v6.417v2.917v86.971c16.172-1.582,32.852-2.395,49.811-2.395
	c16.959,0,33.639,0.813,49.812,2.395v-86.971v-2.917v-6.417v-2.917h-20.273v-24.5h13.618l-2.393,6.591l0,16.711h0h10.213v100.538
	c4.381,0.439,8.723,0.938,13.024,1.489v-32.755h24.291v34.122h-14.481c22.711,3.416,44.098,8.418,63.46,14.88
	c0.209,0.07,1.918,0.638,1.985,0.661c7.342,2.506,14.385,5.223,21.089,8.146h21.829v-40.651h31.135v40.651h11.344v-40.753h33.211
	v40.753h13.676v-26.409h-10.316l-2.767-19.968h15.869l-0.126,0.911v45.467H578.224z M39.453,410.148h-7.306v1.855v15.941h2.621
	h4.685V410.148z M49.914,403.384h6.374v-1.635h-6.374V403.384z M56.288,411.216v-1.067h-2.766v1.067H56.288z M53.522,412.797v9.782
	h2.766v-9.782H53.522z M41.958,403.384h6.374v-1.635h-6.374V403.384z M48.332,411.216v-1.067h-5.497v1.067H48.332z M42.835,412.797
	v9.782h5.497v-9.782H42.835z M50.14,424.211h-7.305v3.733h7.305V424.211z M50.14,412.797h-0.227v9.782h0.227V412.797z
	 M50.14,410.148h-0.227v1.067h0.227V410.148z M60.827,410.148h-3.004v14.063h-4.301v3.733h7.305V410.148z M68.157,410.148h-3.948
	v17.796h3.948V410.148z M82.202,410.148h-7.305v17.796h7.305V410.148z M88.692,410.148h-3.108v17.796h3.108V410.148z
	 M88.692,397.042h-15.99v6.342h15.99V397.042z M113.062,403.384h6.374v-1.635h-6.374V403.384z M119.436,411.216v-1.067h-1.79v1.067
	H119.436z M117.646,412.797v9.782h1.79v-9.782H117.646z M103.577,427.944l-0.006-17.796h-7.299v17.796H103.577z M105.105,403.384
	h6.374v-1.635h-6.374V403.384z M111.48,411.216v-1.067h-4.521v1.067H111.48z M106.959,412.797v9.782h4.521v-9.782H106.959z
	 M114.264,424.211h-7.305v3.733h7.305V424.211z M114.264,412.797h-1.202v9.782h1.202V412.797z M114.264,410.148h-1.202v1.067h1.202
	V410.148z M124.951,410.148h-3.979v14.063h-3.326v3.733h7.305v-15.941V410.148z M135.638,410.148h-7.306v17.796h7.306V410.148z
	 M146.325,406.936c-2.359,0.952-4.686,1.925-6.965,2.926l-0.34,0.15v17.495c2.385-1.035,4.818-2.048,7.305-3.036V406.936z
	 M157.013,402.882c-2.116,0.753-4.188,1.536-6.249,2.326c0,0,0,0,0,0c-0.382,0.146-0.778,0.283-1.158,0.431h0.102v17.513
	c2.389-0.911,4.83-1.798,7.306-2.665V402.882z M167.7,411.742h-7.305v7.583c2.399-0.808,4.831-1.598,7.305-2.365v-4.978V411.742z
	 M167.7,399.306c-2.263,0.711-4.496,1.444-6.705,2.194v8.338h6.705V399.306z M168.435,385.523h-7.44v8.845
	c2.449-0.811,4.928-1.602,7.44-2.366V385.523z M170.282,391.447c2.453-0.731,4.932-1.441,7.44-2.128v-3.796h-7.44V391.447z
	 M178.387,409.46c-0.221,0.049-0.444,0.096-0.665,0.145V398.42h-6.64v11.418h5.597c-1.883,0.426-3.746,0.866-5.597,1.314v4.778
	c2.4-0.715,4.84-1.406,7.305-2.082V409.46z M189.074,407.246c-0.141,0.027-0.282,0.054-0.422,0.081v-13.855
	c-2.315,0.568-4.613,1.149-6.883,1.754v17.712c2.407-0.634,4.842-1.249,7.306-1.844V407.246z M190.444,386.083
	c0.807-0.19,1.621-0.374,2.434-0.56h-2.434V386.083z M192.456,392.551v4.023h5.428v-5.233
	C196.067,391.737,194.248,392.131,192.456,392.551z M199.762,405.324l-0.03,0.005c-0.616,0.103-1.234,0.203-1.846,0.309v-7.217
	h-5.428v11.878c2.412-0.559,4.842-1.106,7.305-1.628V405.324z M203.143,396.573h4.028v-7.145c-1.344,0.26-2.696,0.512-4.028,0.785
	V396.573z M210.449,388.79c-0.499,0.092-0.988,0.195-1.485,0.289v14.807c-0.597,0.087-1.197,0.17-1.792,0.259v-5.726h-4.028v6.35
	v3.206c2.413-0.49,4.847-0.963,7.305-1.416v-2.885V388.79z M221.136,398.42h-1.242v4.015c-0.596,0.072-1.198,0.139-1.792,0.213
	V387.46c-1.425,0.238-2.857,0.469-4.271,0.719v15.027v2.747c2.415-0.425,4.85-0.831,7.306-1.219V398.42z M221.136,386.949
	c-0.417,0.066-0.827,0.142-1.242,0.209v9.415h1.242V386.949z M235.205,396.573h1.416v-11.05h-1.416V396.573z M224.518,396.573h2.816
	v-10.549c-0.937,0.136-1.883,0.262-2.816,0.403V396.573z M231.823,398.42h-2.643v2.98c-0.618,0.062-1.231,0.13-1.846,0.195v-3.175
	h-2.816v5.79c2.416-0.363,4.853-0.707,7.305-1.035v-2.027V398.42z M231.823,385.523h-0.991c-0.553,0.076-1.1,0.159-1.652,0.237
	v10.814h2.643V385.523z M242.51,384.074c-1.374,0.152-2.733,0.324-4.097,0.489v16.001c-0.598,0.049-1.195,0.1-1.792,0.151v-2.294
	h-1.416v4.313c2.418-0.305,4.854-0.591,7.305-0.861V384.074z M253.198,383.014c-1.8,0.158-3.585,0.338-5.372,0.517v16.356
	c-0.325,0.02-0.65,0.039-0.974,0.06v-16.322c-0.319,0.032-0.641,0.059-0.96,0.092v17.792c2.42-0.249,4.856-0.481,7.306-0.695
	V383.014z M263.885,395.506h-5.451v3.83c-0.618,0.026-1.238,0.047-1.854,0.075v1.118c2.422-0.196,4.856-0.376,7.305-0.537v-0.853
	V395.506z M263.885,382.194c-1.826,0.12-3.638,0.262-5.451,0.403v10.994h5.451V382.194z M274.572,395.506h-6.51v3.516
	c-0.266,0.006-0.53,0.016-0.795,0.022v0.74c2.424-0.143,4.857-0.276,7.305-0.385V395.506z M274.572,382.135h-6.51v11.457h6.51
	V382.135z M285.259,381.242c-2.443,0.058-4.878,0.135-7.306,0.227v17.797c2.425-0.092,4.859-0.171,7.306-0.229v-0.12V381.242z
	 M295.947,395.506h-6.98v3.461c2.318-0.039,4.645-0.063,6.98-0.07V395.506z M295.947,382.135h-6.98v11.457h6.98V382.135z
	 M306.309,395.506h-6.981v3.391c2.336,0.008,4.662,0.032,6.981,0.07V395.506z M306.309,382.135h-6.981v11.457h6.981V382.135z
	 M317.321,381.47c-2.427-0.092-4.862-0.169-7.304-0.227v17.795c2.446,0.058,4.879,0.137,7.304,0.229V381.47z M327.213,395.506
	h-6.511v3.893c2.18,0.097,4.349,0.212,6.511,0.336V395.506z M327.213,382.135h-6.511v11.457h6.511V382.135z M336.842,395.506h-5.452
	v4.486c1.825,0.12,3.642,0.25,5.452,0.39V395.506z M336.842,382.598c-1.813-0.141-3.626-0.283-5.452-0.403v11.397h5.452V382.598z
	 M349.383,383.717c-0.255-0.026-0.513-0.048-0.768-0.074v11.142h-1.166v-11.254c-1.786-0.179-3.572-0.359-5.371-0.517v17.799
	c2.45,0.215,4.885,0.446,7.306,0.695V383.717z M360.07,384.965c-2.427-0.307-4.851-0.62-7.304-0.891v17.798
	c2.45,0.27,4.887,0.556,7.304,0.861V384.965z M374.888,361.293h8.898v-13.407h-8.898V361.293z M374.888,377.387h8.898v-13.854
	h-8.898V377.387z M363.781,361.293h8.898v-13.407h-8.898V361.293z M363.781,377.387h8.898v-13.854h-8.898V377.387z M370.757,386.428
	c-2.421-0.366-4.854-0.717-7.306-1.047v17.793c2.452,0.328,4.889,0.672,7.306,1.035V386.428z M381.445,388.179
	c-2.419-0.428-4.853-0.84-7.306-1.23v17.784c2.455,0.388,4.891,0.795,7.306,1.219V388.179z M392.132,390.213
	c-2.415-0.494-4.851-0.968-7.305-1.423v17.769c-0.029-0.005-0.059-0.01-0.089-0.016c0.53,0.097,1.059,0.196,1.587,0.295
	c1.951,0.367,3.884,0.747,5.806,1.137V390.213z M402.819,392.551c-2.411-0.565-4.851-1.104-7.306-1.628v17.757
	c1.643,0.347,3.283,0.697,4.902,1.061c0.807,0.182,1.602,0.372,2.403,0.557V392.551z M413.507,395.227
	c-0.572-0.152-1.159-0.292-1.735-0.442c-1.847-0.482-3.696-0.962-5.571-1.42v17.729c1.658,0.4,3.302,0.81,4.934,1.228
	c0.794,0.203,1.584,0.409,2.372,0.616V395.227z M424.193,398.265c-2.409-0.728-4.839-1.438-7.304-2.122v17.706
	c0.811,0.222,1.628,0.441,2.432,0.667c1.64,0.462,3.262,0.935,4.872,1.414V398.265z M434.881,401.697
	c-2.401-0.822-4.84-1.616-7.306-2.391v17.655c1.729,0.536,3.446,1.079,5.139,1.635c0.729,0.24,1.444,0.486,2.166,0.73V401.697z
	 M445.669,405.639c-0.18-0.07-0.367-0.134-0.548-0.204c-2.256-0.871-4.536-1.726-6.859-2.553v17.44v0.164
	c0.997,0.349,1.997,0.698,2.98,1.055c1.458,0.529,2.898,1.066,4.325,1.611v-17.513H445.669z M456.255,410.012l-0.34-0.15
	c-2.279-1.001-4.606-1.973-6.964-2.926v17.534c0.16,0.064,0.325,0.125,0.484,0.189c2.321,0.927,4.589,1.879,6.82,2.847V410.012z
	 M466.942,410.148h-7.306v17.796h7.306V410.148z M477.63,410.148h-6.853h-0.453v17.796h7.306V410.148z M483.095,403.384h24.569
	v-37.373h-24.569V403.384z M488.316,410.148h-5.221v5.842h-2.083v11.954h7.305V410.148z M499.004,410.148h-7.306v17.796h7.306
	V410.148z M509.692,415.99h-2.027v-5.842h-5.278v17.796h7.306V415.99z M520.378,410.148h-7.304v17.796h7.304V410.148z
	 M525.221,383.813h12.166v-18.068h-12.166V383.813z M525.221,403.384h12.166v-16.552h-12.166V403.384z M531.066,410.148h-7.306
	v17.796h7.306V410.148z M541.753,410.148h-7.306v17.796h7.306V410.148z M552.44,410.148h-7.305v17.796h7.305V410.148z
	 M552.572,386.832h-12.166v16.552h12.166V386.832z M552.572,365.745h-12.166v18.068h12.166V365.745z M563.127,410.148h-0.374h-6.931
	v17.796h2.552h3.095h1.658V410.148z M167.783,487.696c0,0.752,0.609,1.361,1.361,1.361h33.056c0.752,0,1.361-0.609,1.361-1.361
	c0-0.752-0.609-1.361-1.361-1.361h-33.056C168.392,486.335,167.783,486.944,167.783,487.696z M273.56,484.974
	c0,0.752,0.609,1.361,1.361,1.361h53.278c0.752,0,1.361-0.609,1.361-1.361c0-0.752-0.609-1.361-1.361-1.361h-53.278
	C274.17,483.612,273.56,484.222,273.56,484.974z M277.255,468.015h-21.389c-0.752,0-1.361,0.609-1.361,1.361
	c0,0.752,0.609,1.361,1.361,1.361h21.389c0.752,0,1.361-0.609,1.361-1.361C278.616,468.625,278.007,468.015,277.255,468.015z
	 M194.421,472.293c0.752,0,1.361-0.609,1.361-1.361c0-0.752-0.609-1.361-1.361-1.361h-21.389c-0.752,0-1.361,0.609-1.361,1.361
	c0,0.752,0.609,1.361,1.361,1.361H194.421z M309.533,475.112c0.752,0,1.361-0.609,1.361-1.361c0-0.752-0.609-1.361-1.361-1.361
	h-21.389c-0.752,0-1.361,0.609-1.361,1.361c0,0.752,0.609,1.361,1.361,1.361H309.533z M371.172,508.603
	c0,0.915,0.742,1.657,1.657,1.657c0,0,37.553-0.036,37.716-0.09c0.661-0.217,1.142-0.833,1.142-1.567
	c0-0.915-0.742-1.657-1.657-1.657h-37.201C371.913,506.946,371.172,507.688,371.172,508.603z M385.755,487.104
	c0,0.915,0.742,1.657,1.657,1.657h37.201c0.915,0,1.657-0.742,1.657-1.657s-0.742-1.657-1.657-1.657h-37.201
	C386.497,485.448,385.755,486.189,385.755,487.104z M142.734,497.468c0-0.915-0.742-1.657-1.657-1.657h-37.201
	c-0.915,0-1.657,0.742-1.657,1.657c0,0.915,0.742,1.657,1.657,1.657h37.201C141.993,499.125,142.734,498.383,142.734,497.468z
	 M122.636,487.055c0,0.915,0.742,1.657,1.657,1.657h37.201c0.915,0,1.657-0.742,1.657-1.657c0-0.915-0.742-1.657-1.657-1.657
	h-37.201C123.378,485.398,122.636,486.14,122.636,487.055z M424.644,498.39h31.111c1.181,0,2.139-0.958,2.139-2.139
	c0-1.181-0.958-2.139-2.139-2.139h-31.111c-1.181,0-2.139,0.958-2.139,2.139C422.505,497.433,423.462,498.39,424.644,498.39z
	 M477.63,526.97c-0.268-0.121-0.563-0.191-0.875-0.191h-31.111c-0.026,0-0.05,0.007-0.076,0.008
	c-1.146,0.041-2.064,0.976-2.064,2.131c0,1.155,0.918,2.091,2.064,2.131c0.026,0.001,0.049,0.008,0.076,0.008h31.111
	c0.313,0,0.607-0.071,0.875-0.191c0.744-0.335,1.264-1.079,1.264-1.948C478.894,528.049,478.374,527.305,477.63,526.97z
	 M260.144,525.418c-17.306,0-34.611,0-51.917,0c-3.753,0-3.76,5.833,0,5.833c17.305,0,34.611,0,51.917,0
	C263.897,531.251,263.903,525.418,260.144,525.418z M320.703,547.351c-0.43-0.303-0.974-0.493-1.642-0.493
	c-0.58,0-37.193,0-38.889,0c-1.019,0-1.751,0.436-2.218,1.063c-0.786,1.056-0.787,2.656,0,3.711c0.466,0.625,1.199,1.06,2.218,1.06
	c1.696,0,38.309,0,38.889,0c0.668,0,1.212-0.191,1.642-0.495C322.261,551.097,322.263,548.45,320.703,547.351z M267.144,546.858
	c-3.754,0-3.76,5.833,0,5.833c0.044,0,0.08-0.011,0.123-0.012c3.581-0.131,3.586-5.678,0-5.809
	C267.224,546.868,267.188,546.858,267.144,546.858z M268.648,561.001c-3.324,0-5.176,2.288-5.558,4.837
	c-0.481,3.208,1.368,6.83,5.558,6.83c3.949,0,5.821-3.228,5.617-6.289C274.08,563.622,272.211,561.001,268.648,561.001z
	 M249.449,561.001c-11.322,0-22.644,0-33.966,0c-1.918,0-3.835,0-5.753,0c-7.507,0-7.519,11.667,0,11.667c13.24,0,26.479,0,39.718,0
	c4.418,0,6.237-4.04,5.456-7.366C254.359,562.977,252.543,561.001,249.449,561.001z M294.56,515.867c-12.444,0-24.889,0-37.333,0
	c-0.49,0-0.889,0.138-1.208,0.357c-1.518,1.039-1.121,4.018,1.208,4.018c1.778,0,26.667,0,37.333,0
	C297.375,520.242,297.38,515.867,294.56,515.867z M217.56,508.355c2.815,0,2.82-4.375,0-4.375
	C214.745,503.98,214.741,508.355,217.56,508.355z M175.171,503.98c-2.815,0-2.82,4.375,0,4.375c0.405,0,22.701,0,33.444,0
	c2.815,0,2.82-4.375,0-4.375C201.035,503.98,178.739,503.98,175.171,503.98z M165.644,508.355c2.815,0,2.82-4.375,0-4.375
	C162.829,503.98,162.824,508.355,165.644,508.355z M390.81,532.418c-25.667,0-51.333,0-77,0c-3.753,0-3.76,5.833,0,5.833
	c24.73,0,76.063,0,77,0c0.513,0,0.948-0.116,1.321-0.304C394.489,536.76,394.057,532.418,390.81,532.418z M354.06,500.736
	c-7.543,0-52.136,0-66.889,0c-1.877,0-1.88,2.917,0,2.917c14.262,0,58.855,0,66.889,0
	C355.937,503.653,355.94,500.736,354.06,500.736z M277.06,503.653c1.877,0,1.88-2.917,0-2.917
	C275.184,500.736,275.181,503.653,277.06,503.653z M165.449,473.35c-4.667,0-9.333,0-14,0c-1.877,0-1.88,2.917,0,2.917
	c4.667,0,9.333,0,14,0C167.326,476.267,167.329,473.35,165.449,473.35z M233.116,493.918c-4.667,0-9.333,0-14,0
	c-1.877,0-1.88,2.917,0,2.917c4.667,0,9.333,0,14,0C234.993,496.835,234.996,493.918,233.116,493.918z M240.699,505.674
	c1.937,0,11.27,0,14,0c1.877,0,1.88-2.917,0-2.917c-3.233,0-12.566,0-14,0C238.822,502.757,238.819,505.674,240.699,505.674z
	 M180.421,519.091c-4.667,0-9.333,0-14,0c-1.877,0-1.88,2.917,0,2.917c4.667,0,9.333,0,14,0
	C182.298,522.007,182.301,519.091,180.421,519.091z M332.866,521.711c-1.877,0-1.88,2.917,0,2.917c4.667,0,9.333,0,14,0
	c1.877,0,1.88-2.917,0-2.917C342.199,521.711,337.533,521.711,332.866,521.711z M144.838,476.267c1.877,0,1.88-2.917,0-2.917
	C142.961,473.35,142.958,476.267,144.838,476.267z M409.283,469.471c1.877,0,1.88-2.917,0-2.917c-3.434,0-6.868,0-10.302,0
	c-1.877,0-1.88,2.917,0,2.917C402.415,469.471,405.849,469.471,409.283,469.471z M394.116,466.555c-1.877,0-1.88,2.917,0,2.917
	C395.993,469.471,395.996,466.555,394.116,466.555z M275.894,476.989c-3.434,0-6.868,0-10.302,0c-1.877,0-1.88,2.917,0,2.917
	c3.434,0,6.868,0,10.302,0C277.77,479.905,277.774,476.989,275.894,476.989z M260.727,479.905c1.877,0,1.88-2.917,0-2.917
	C258.85,476.989,258.847,479.905,260.727,479.905z M297.87,490.71c-1.877,0-1.88,2.917,0,2.917c3.434,0,6.868,0,10.302,0
	c1.877,0,1.88-2.917,0-2.917C304.737,490.71,301.304,490.71,297.87,490.71z M293.005,493.626c1.877,0,1.88-2.917,0-2.917
	C291.128,490.71,291.125,493.626,293.005,493.626z M428.478,477.543c1.877,0,1.88-2.917,0-2.917c-4.843,0-9.686,0-14.528,0
	c-1.877,0-1.88,2.917,0,2.917C418.792,477.543,423.635,477.543,428.478,477.543z M435.338,474.626c-1.877,0-1.88,2.917,0,2.917
	C437.215,477.543,437.218,474.626,435.338,474.626z M424.2,520.265c-4.843,0-9.686,0-14.528,0c-1.877,0-1.88,2.917,0,2.917
	c4.843,0,9.685,0,14.528,0C426.077,523.182,426.08,520.265,424.2,520.265z M171.006,553.649h-35.327
	c3.911,2.542,7.887,4.992,11.922,7.352h23.405c2.03,0,3.676-1.646,3.676-3.676C174.682,555.295,173.036,553.649,171.006,553.649z
	 M208.782,545.154c-1.88,0-12.34,0-14,0c-1.877,0-1.88,2.917,0,2.917c1.66,0,12.12,0,14,0
	C210.659,548.071,210.662,545.154,208.782,545.154z"></path>
<path id="color_x5F_1" fill="#0984E3" d="M440.159,245.923h19.295v37.242h-7.423c-0.215-4.515-2.993-8.35-6.91-10.096v-13.476
	L440.159,245.923z M245.171,263.501h-8.697l4.208,8.555h4.49c2.363,0,4.278-1.915,4.278-4.278
	C249.449,265.417,247.534,263.501,245.171,263.501z M434.909,320.01h1.985v-24.62h-1.985V320.01z M452.191,102.501h64.566
	c-2.19-2.382-4.422-4.724-6.688-7.033l-40.144,0c-3.866,0-6.956-3.38-6.58-7.397c0.328-3.502,3.411-6.074,6.864-6.074h6.327
	c3.411,0,6.138-2.982,5.806-6.527c-0.289-3.09-3.01-5.359-6.057-5.359h-65.083c-3.938,0-7.116-3.312-6.997-7.351
	c0.115-3.903,3.457-6.912,7.29-6.912h17.207c4.156,0,7.511-3.496,7.385-7.759c-0.121-4.12-3.649-7.296-7.695-7.296h-50.635
	c-3.183,0-5.729-2.783-5.419-6.092c0.27-2.884,2.809-5.002,5.653-5.002h35.582c-35.631-15.084-74.81-23.426-115.937-23.426
	c-57.199,0-110.62,16.149-155.979,44.116h5.718c3.07,0,5.524,2.634,5.225,5.766c-0.26,2.73-2.709,4.734-5.451,4.734h-8.862
	c-2.758,0-4.963,2.367-4.695,5.181c0.234,2.452,2.434,4.254,4.898,4.254h8.158c2.657,0,4.811,2.154,4.811,4.811
	c0,2.657-2.154,4.811-4.811,4.811H112.96c-2.439,0-4.401,2.041-4.272,4.508c0.121,2.313,2.197,4.048,4.514,4.048h24.647
	c2.439,0,4.401,2.041,4.272,4.508c-0.121,2.313-2.197,4.048-4.514,4.048H83.655c-3.909,4.042-7.712,8.186-11.389,12.444h9.582
	c3.865,0,6.956,3.317,6.58,7.261c-0.328,3.437-3.411,5.962-6.864,5.962H61.512c-2.741,3.567-5.405,7.196-7.986,10.889h18.046v-4.761
	h51.098v4.761h39.288c3.411,0,6.138,2.927,5.806,6.406c-0.289,3.033-3.01,5.26-6.057,5.26h-45.142v23.435h8.586v8.322h2.577
	l10.138,22.688h10.091c3.222,0,5.833,2.612,5.833,5.833v1.556c0,3.222-2.612,5.833-5.833,5.833h-9.023v16.068h-6.649v37.463
	l16.439,13.327v118.925c0.676-0.258,1.355-0.514,2.037-0.768V284.603l10.378-21.102h-0.165c-2.9,0-5.25-2.351-5.25-5.25
	c0-2.9,2.35-5.25,5.25-5.25h5.329l2.521-5.126h-3.01l18.643-22.485h-13.955c-2.363,0-4.278-1.915-4.278-4.278
	c0-2.363,1.915-4.278,4.278-4.278h21.049l7.255-8.75l7.255,8.75h41.053c3.436,0,6.222-2.786,6.222-6.222
	c0-3.436-2.786-6.222-6.222-6.222h-20.611c-3.651,0-6.611-2.96-6.611-6.611c0-3.651,2.96-6.611,6.611-6.611h41.611
	c3.007,0,5.444-2.438,5.444-5.444s-2.438-5.444-5.444-5.444H146.394c-3.222,0-5.833-2.612-5.833-5.833
	c0-3.222,2.612-5.833,5.833-5.833h110.444c2.792,0,5.055-2.263,5.055-5.056c0-2.792-2.263-5.055-5.055-5.055H238.56
	c-3.866,0-7-3.134-7-7s3.134-7,7-7h25.278c2.363,0,4.278-1.915,4.278-4.278c0-2.363-1.915-4.278-4.278-4.278h-55.222
	c-3.222,0-5.833-2.612-5.833-5.833c0-3.222,2.612-5.833,5.833-5.833h5.444c2.792,0,5.056-2.263,5.056-5.055
	c0-2.792-2.263-5.056-5.056-5.056h-53.667c-3.222,0-5.833-2.612-5.833-5.833v-1.556c0-3.222,2.612-5.833,5.833-5.833h110.444
	c3.651,0,6.611,2.96,6.611,6.611c0,3.651-2.96,6.611-6.611,6.611h-1.556c-2.792,0-5.056,2.263-5.056,5.056
	c0,2.792,2.263,5.055,5.056,5.055h39.667c3.222,0,5.833,2.612,5.833,5.833c0,3.222-2.612,5.833-5.833,5.833h-3.111
	c-2.363,0-4.278,1.915-4.278,4.278c0,2.363,1.915,4.278,4.278,4.278h43.167c3.866,0,7-3.134,7-7s-3.134-7-7-7h-0.778
	c-3.007,0-5.444-2.438-5.444-5.444s2.438-5.445,5.444-5.445h0.389c4.081,0,7.389-3.308,7.389-7.389c0-4.081-3.308-7.389-7.389-7.389
	h-41.611c-3.866,0-7-3.134-7-7c0-3.866,3.134-7,7-7h11.278c3.222,0,5.833-2.612,5.833-5.833c0-3.222-2.612-5.833-5.833-5.833
	h-86.333c-3.651,0-6.611-2.96-6.611-6.611c0-3.651,2.96-6.611,6.611-6.611h10.111c3.651,0,6.611-2.96,6.611-6.611
	c0-3.651-2.96-6.611-6.611-6.611h-56.778c-3.651,0-6.611-2.96-6.611-6.611c0-3.651,2.96-6.611,6.611-6.611h144.667
	c3.651,0,6.611,2.96,6.611,6.611c0,3.651-2.96,6.611-6.611,6.611h-21c-3.651,0-6.611,2.96-6.611,6.611
	c0,3.651,2.96,6.611,6.611,6.611h54.445c3.651,0,6.611,2.96,6.611,6.611c0,3.651-2.96,6.611-6.611,6.611h-6.611
	c-3.222,0-5.833,2.612-5.833,5.833c0,3.222,2.612,5.833,5.833,5.833h58.333c3.866,0,7,3.134,7,7c0,3.866-3.134,7-7,7h-17.5
	c-4.081,0-7.389,3.308-7.389,7.389c0,4.081,3.308,7.389,7.389,7.389h74.278c3.007,0,5.444,2.438,5.444,5.445
	s-2.438,5.444-5.444,5.444h-42.778c-3.866,0-7,3.134-7,7s3.134,7,7,7h4.667c3.866,0,7,3.134,7,7s-3.134,7-7,7h-98.389
	c-2.792,0-5.056,2.263-5.056,5.055c0,2.792,2.263,5.056,5.056,5.056h13.222c3.222,0,5.833,2.612,5.833,5.833
	c0,3.222-2.612,5.833-5.833,5.833h-3.5c-3.007,0-5.444,2.438-5.444,5.444s2.438,5.444,5.444,5.444h74.278
	c3.651,0,6.611,2.96,6.611,6.611c0,3.651-2.96,6.611-6.611,6.611H303.116c-2.328,0-4.333,1.294-5.4,3.187l9.502,9.258h3.287
	c2.363,0,4.278,1.915,4.278,4.278c0,0.883-0.268,1.703-0.727,2.384l10.725,10.449h19.517v-0.389h94.927v0.48h20.229V206.65h0.335
	v-9.349h2.082v-9.589l3.646-9.142h-38.499c-3.222,0-5.833-2.661-5.833-5.943v-1.585c0-3.282,2.612-5.943,5.833-5.943h43.871
	l1.074-2.693h21.42v-9.349h9.233v-10.144h-4.042c-3.865,0-6.956-3.38-6.58-7.397c0.328-3.502,3.411-6.074,6.864-6.074h9.827
	c3.865,0,6.58-2.481,6.58-6.577c0-4.096-4.814-6.894-6.864-6.894l-56.494,0c-3.866,0-6.956-3.38-6.58-7.397
	C445.655,105.073,448.739,102.501,452.191,102.501z M27.836,394.448h-2.387v8.936h2.387V394.448z M253.727,225.39h-40.571
	l7.094,8.556h33.477c2.363,0,4.278-1.915,4.278-4.278C258.005,227.305,256.09,225.39,253.727,225.39z M27.836,410.148h-2.387v1.855
	h2.434c-0.016-0.09-0.047-0.167-0.047-0.253V410.148z M548.006,142.913h-22.057v10.144h9.301v9.349h21.42l10.091,25.306v1.158h5.077
	v-0.922C565.168,172.196,557.174,157.14,548.006,142.913z M25.449,353.744c1.115-0.403,2.353-0.629,3.657-0.629V274.39h-3.657
	V353.744z M25.449,234.723h3.657v-5.71h-3.657V234.723z M228.399,243.567h-0.172l3.572,4.309h-3.01l2.15,4.372
	c1.306-0.839,2.176-2.296,2.176-3.964C233.116,245.679,231.004,243.567,228.399,243.567z M148.727,440.057h2.037v-3.203
	c-0.689,0.347-1.368,0.71-2.037,1.089V440.057z M46.483,150.831c0.251,2.628,2.609,4.559,5.249,4.559h18.061
	c3.938,0,7.116,3.251,6.997,7.215c-0.082,2.741-1.82,5.026-4.205,6.109h5.093v-23.435H51.515
	C48.559,145.279,46.196,147.816,46.483,150.831z M434.909,394.577c0.209,0.07,0.418,0.138,0.626,0.208
	c0.384,0.129,0.773,0.254,1.155,0.384c0.068,0.023,0.136,0.046,0.204,0.069v-64.53h-1.985V394.577z M568.843,202.791v3.859h0.335
	v1.165c0.667,0.8,1.608,1.371,2.66,1.574v-8.566C570.58,201.012,569.494,201.741,568.843,202.791z M149.707,405.639v11.394
	c0.35-0.109,0.706-0.214,1.057-0.322v-11.503c-0.382,0.146-0.778,0.283-1.158,0.431H149.707z M25.449,189.612v4.667v1.139
	l2.594-5.805H25.449z M327.176,253.001h13.618l3.425-9.434h-17.043V253.001z"></path>
</svg>