<?xml version="1.0" standalone="no"?>
<svg version="1.1" id="Layer_1" xmlns="http://www.w3.org/2000/svg" xmlns:xlink="http://www.w3.org/1999/xlink" x="0px" y="0px" viewBox="0 0 595.276 595.276" enable-background="new 0 0 595.276 595.276" xml:space="preserve">
<path id="color_x5F_9" fill="#32A160" d="M117.357,377.153v16.662v5.305c0,3.125-2.559,5.681-5.686,5.681H96.131
	c0,6.584,0,13.167,0,19.751c-1.892,0.174-3.787,0.351-5.686,0.531V351.97c2.843,0.001,5.686,1.832,5.686,5.488
	c0,1.198,0,5.084,0,9.963c0,8.664,0,20.473,0,26.018h6.254c1.989,0,3.601-1.611,3.601-3.598v-12.688
	C105.986,369.83,117.357,369.842,117.357,377.153z M185.665,395.072c0.002-5.134,0.004-10.02,0.005-15.153
	c0.574-2.489-0.237-4.204-1.574-5.157c-2.353-1.677-6.339-0.978-7.329,2.092c-0.146,0.454-0.232,0.956-0.232,1.514v11.643
	c0,0.943-0.765,1.708-1.709,1.708h-6.37c0-4.451,0-8.706,0-12.492c0-2.351,0-4.529,0-6.448c0-0.751-0.146-1.407-0.401-1.97
	c-0.382-0.844-1.01-1.476-1.762-1.898c-0.501-0.281-1.056-0.468-1.63-0.562c-0.287-0.047-0.578-0.07-0.869-0.07v51.495
	c1.561-0.069,3.116-0.135,4.661-0.197c0-5.738,0-12.264,0-18.789c3.776,0.003,7.446,0.006,11.296,0.01
	C183.293,401.966,186.715,398.592,185.665,395.072z"></path>
<path id="color_x5F_8" fill="#A5BE53" d="M90.445,351.97L90.445,351.97v73.113c-1.892,0.18-3.788,0.362-5.685,0.548
	c0-6.069,0-34.006,0-34.006s-8.804,0.007-13.78,0.012c-4.318,1.423-8.492-2.693-7.211-6.986c0-0.951-0.001-1.885-0.001-2.823
	c-0.002-5.245-0.004-10.349-0.006-15.661c-2.113-9.17,11.143-9.785,11.143-1.891v14.148v0.055c0,1.151,0.933,2.083,2.085,2.083h7.77
	c0-2.119,0-18.462,0-23.103c0-0.458,0.044-0.887,0.128-1.287C85.471,353.368,87.958,351.969,90.445,351.97z M159.134,372.78
	c0,1.058,0,25.149,0,29.497h-5.127c-1.63,0-2.952-1.321-2.952-2.95v-10.401c0-2.036-1.081-3.363-2.498-4.017
	c-2.151-0.993-5.072-0.396-6.269,1.79c-0.34,0.62-0.555,1.352-0.555,2.227v18.008c0,2.562,2.097,4.658,4.661,4.658h12.74
	c0,2.8,0,5.6,0,8.401c1.562-0.076,3.114-0.147,4.661-0.216V368.28C161.464,368.282,159.134,369.783,159.134,372.78z"></path>
<path id="color_x5F_7" fill="#993F16" d="M114.212,450.904c-0.759-1.036,0.534-2.328,1.571-1.57l15.535,11.368
	c0.882,0.645,2.074-0.22,1.732-1.257l-6.019-18.276c-0.402-1.22,1.228-2.049,1.98-1.008l11.259,15.608
	c0.639,0.886,2.04,0.431,2.036-0.661l-0.072-19.24c-0.005-1.284,1.802-1.57,2.194-0.347l5.881,18.321c0.334,1.04,1.807,1.04,2.141,0
	l5.881-18.321c0.393-1.223,2.199-0.937,2.195,0.347l-0.072,19.24c-0.004,1.092,1.397,1.547,2.036,0.661l11.259-15.608
	c0.751-1.042,2.381-0.212,1.98,1.008l-6.019,18.276c-0.342,1.038,0.85,1.903,1.732,1.257l15.536-11.368
	c1.037-0.759,2.33,0.534,1.571,1.57l-11.377,15.523c-0.646,0.881,0.22,2.072,1.258,1.731l18.29-6.014
	c1.221-0.401,2.051,1.227,1.009,1.978l-15.62,11.251c-0.887,0.639-0.432,2.038,0.661,2.034l19.255-0.072
	c1.285-0.005,1.571,1.801,0.348,2.193l-18.335,5.877c-0.836,0.268-0.989,1.262-0.482,1.819c-11.1,1.317-22.092,2.648-32.924,3.966
	l8.074-5.816c0.618-0.445,0.126-1.411-0.598-1.173l-15.798,5.195c-0.616,0.203-1.129-0.504-0.746-1.026l9.826-13.408
	c0.45-0.614-0.317-1.381-0.932-0.931l-13.418,9.818c-0.523,0.383-1.23-0.13-1.027-0.746l5.199-15.785
	c0.238-0.724-0.729-1.216-1.174-0.598l-9.725,13.481c-0.379,0.526-1.21,0.256-1.208-0.392l0.063-16.618
	c0.003-0.762-1.069-0.931-1.302-0.206l-5.08,15.824c-0.198,0.617-1.072,0.617-1.27,0l-0.603-1.877
	c0.321-0.465,0.291-1.16-0.263-1.559l-0.309-0.223l-2.98-9.283l6.968,2.291c1.038,0.341,1.904-0.849,1.258-1.731L114.212,450.904z
	 M388.5,467.333l-12.221,4.018c3.553-0.065,7.087-0.115,10.588-0.138l2.642-1.903C390.551,468.561,389.721,466.932,388.5,467.333z
	 M378.757,454.524l-15.535,11.368c-0.882,0.645-2.074-0.22-1.732-1.257l6.019-18.276c0.402-1.22-1.228-2.049-1.98-1.008
	l-11.259,15.608c-0.639,0.886-2.04,0.431-2.036-0.661l0.072-19.24c0.005-1.284-1.802-1.57-2.194-0.347l-5.881,18.321
	c-0.334,1.04-1.807,1.04-2.141,0l-5.881-18.321c-0.393-1.223-2.199-0.937-2.194,0.347l0.072,19.24
	c0.004,1.092-1.397,1.547-2.036,0.661L320.79,445.35c-0.751-1.042-2.381-0.212-1.98,1.008l6.019,18.276
	c0.342,1.038-0.85,1.903-1.732,1.257l-15.535-11.368c-1.037-0.759-2.33,0.534-1.571,1.57l11.377,15.523
	c0.646,0.881-0.22,2.072-1.258,1.73l-18.291-6.014c-1.221-0.401-2.051,1.227-1.009,1.978l7.793,5.613
	c21.984-1.667,43.596-2.872,64.424-3.412l11.3-15.419C381.087,455.058,379.794,453.766,378.757,454.524z M255.752,524.242
	c-5.182,0-9.383,4.197-9.383,9.375c0,5.178,4.201,9.375,9.383,9.375s9.383-4.198,9.383-9.375
	C265.134,528.44,260.934,524.242,255.752,524.242z M113.991,480.201c0.379,0.526,1.21,0.256,1.208-0.392l-0.009-2.42l-3.236-0.012
	L113.991,480.201z M532.732,414.148c0.004-10.493,0.008-20.48,0.011-30.973c3.541-15.366-18.671-16.396-18.671-3.169v23.799
	c0,1.928-1.564,3.491-3.493,3.491h-13.02c0-14.751-0.019-39.468-0.055-39.827c-0.144-1.438-0.568-2.684-1.196-3.738
	c-0.157-0.264-0.327-0.515-0.508-0.755c-1.27-1.677-3.11-2.765-5.121-3.267c-0.287-0.072-0.578-0.131-0.871-0.179
	c-0.586-0.095-1.181-0.143-1.777-0.143v0v118.047c3.163,0.375,6.34,0.764,9.527,1.166c0-11.468,0-52.765,0-52.765
	s15.22,0.013,23.09,0.02C527.885,428.238,534.879,421.342,532.732,414.148z M115.167,471.422l-0.024-6.285l-9.103-2.993
	c-1.221-0.401-2.051,1.227-1.009,1.978L115.167,471.422z M311.033,494.71h-90.624c-5.095,0-9.225,4.127-9.225,9.218
	c0,5.091,4.13,9.218,9.225,9.218h90.624c5.095,0,9.225-4.127,9.225-9.218C320.257,498.837,316.127,494.71,311.033,494.71z
	 M106.398,477.356l-5.663-0.021c-0.633-0.002-1.021,0.436-1.108,0.926l2.487,1.82l5.793,1.857L106.398,477.356z M225.416,525.729
	H106.444c7.799,6.544,15.93,12.707,24.379,18.435h94.592c5.095,0,9.225-4.127,9.225-9.218
	C234.641,529.856,230.51,525.729,225.416,525.729z"></path>
<path id="color_x5F_6" fill="#D26727" d="M245.954,400.648c-0.563-2.789,3.838-2.303,3.838-2.303s3.032-2.265,3.855-0.707
	c0.253,0.479,0.199,1.912,0.203,2.393c0.012,1.63-0.453,5.793,0.717,6.632c2.216,1.589,2.519-2.51,4.997-2.975
	c5.988-1.124,2.135-5.662,9.266-6.079c2.638-0.155,4.601,2.267,6.84,4.452c2.701,2.635,3.211,1.297,4.827,3.009
	c1.617,1.713,0.509,10.242,1.075,13.514c-0.219,0.581-0.508,1.405-0.837,2.284c-0.526-0.025-1.055-0.052-1.58-0.077
	c0.713-4.405,0.632-9.217-0.178-8.518c-0.522,1.619-1.037,5.389-1.989,8.416c-0.503-0.023-1.003-0.045-1.506-0.068
	c1.08-3.988,1.477-9.176-0.929-10.963c-4.762,3.112-7.36,2.026-9.706,1.37c-0.485,4.29,0.192,7.126,0.989,9.176
	c-0.466-0.019-0.933-0.039-1.399-0.058c-1.173-3.806-1.558-8.866-2.425-8.799c-1.045,0.08-1.15,4.696-1.133,8.66
	c-0.51-0.02-1.018-0.038-1.527-0.057c-0.021-3.289-0.467-7.919-1.298-8.785c-1.687-1.757-2.054,1.02-5.477-1.539
	c-2.848-2.129-0.591-9.243-2.891-8.949C248.987,400.767,247.164,400.961,245.954,400.648z M293.824,399.005
	c2.976-0.111-0.734,8.728,2.663,11.78c4.083,3.668,4.873,0.159,6.828,2.6c0.773,0.965,0.947,4.999,0.805,8.73
	c0.682,0.04,1.365,0.08,2.048,0.12c0.438-4.22,1.086-8.175,2.189-8.16c0.892,0.012,1.012,4.163,1.563,8.382
	c0.544,0.033,1.09,0.067,1.634,0.1c-0.28-2.27-0.257-5.052,0.465-8.564c2.925,1.11,6.123,2.799,12.573-0.632
	c2.136,1.907,2.07,6.047,1.138,10.092c0.727,0.048,1.455,0.097,2.182,0.145c0.822-2.603,1.479-5.076,2.035-6.383
	c0.822-0.589,0.796,2.595,0.159,6.529c0.805,0.054,1.608,0.106,2.414,0.161c0.165-4.911,1.863-13.619,0.205-15.728
	c-1.87-2.377-2.676-0.724-5.826-4.406c-2.612-3.053-4.842-6.376-8.235-6.483c-9.169-0.289-4.766,5.96-12.554,6.707
	c-3.223,0.309-4.085,5.516-6.736,3.228c-1.4-1.208-0.325-6.479-0.151-8.565c0.051-0.615,0.285-2.443,0.017-3.084
	c-0.873-2.088-5.012,0.459-5.012,0.459s-5.572-1.129-5.175,2.503C290.565,399.076,292.92,399.038,293.824,399.005z M339.261,510.153
	L339.261,510.153c0,8.4,6.815,15.209,15.221,15.209h43.387c5.069,0,9.178,4.106,9.178,9.171c0,5.065-4.109,9.171-9.178,9.171
	H280.025c-7.576,0-13.718,6.137-13.718,13.707c0,7.57,6.142,13.707,13.718,13.707h135.22
	c-36.078,15.536-75.833,24.157-117.607,24.157c-61.819,0-119.232-18.851-166.815-51.111h94.592c5.095,0,9.225-4.127,9.225-9.218
	c0-5.091-4.13-9.218-9.225-9.218H106.444c-9.641-8.09-18.761-16.78-27.304-26.012c2.332-0.263,4.669-0.528,7.031-0.799l-4.312-1.382
	c-0.726-0.233-0.556-1.303,0.206-1.301l16.631,0.062c0.648,0.003,0.918-0.828,0.392-1.207l-13.492-9.717
	c-0.618-0.445-0.126-1.411,0.598-1.173l15.798,5.195c0.616,0.203,1.13-0.504,0.746-1.026l-9.826-13.408
	c-0.45-0.614,0.317-1.381,0.932-0.931l13.418,9.818c0.523,0.383,1.23-0.13,1.027-0.746l-5.199-15.785
	c-0.238-0.724,0.728-1.216,1.174-0.598l9.725,13.481c0.379,0.526,1.21,0.256,1.208-0.392l-0.063-16.618
	c-0.003-0.762,1.069-0.931,1.302-0.206l5.08,15.824c0.198,0.617,1.072,0.617,1.27,0l5.08-15.824
	c0.233-0.725,1.305-0.556,1.302,0.206l-0.063,16.618c-0.002,0.648,0.828,0.918,1.208,0.392l9.725-13.481
	c0.446-0.618,1.412-0.126,1.174,0.598l-5.199,15.785c-0.203,0.615,0.504,1.129,1.027,0.746l13.418-9.818
	c0.615-0.45,1.382,0.317,0.932,0.931l-9.826,13.408c-0.383,0.523,0.13,1.229,0.746,1.026l15.798-5.195
	c0.724-0.238,1.217,0.728,0.598,1.173l-8.074,5.816c10.832-1.318,21.824-2.649,32.924-3.966
	c39.841-4.728,81.044-9.266,121.047-12.299c21.984-1.667,43.596-2.872,64.424-3.412c2.428-0.063,4.845-0.116,7.251-0.161
	c3.553-0.065,7.087-0.115,10.588-0.138c14.601-0.095,28.734,0.186,42.234,0.931c15.74,0.868,32.336,2.314,49.404,4.198
	c0-9.477,0-18.954,0-28.431h-26.041c-5.24,0-9.527-4.284-9.527-9.52v-36.809c0-12.251,19.054-12.271,19.054,0v21.26
	c0,3.33,2.702,6.029,6.034,6.029h10.48c0-0.252,0-54.813,0-60.291c0-6.125,4.764-9.193,9.527-9.196v118.047
	c3.163,0.375,6.34,0.764,9.527,1.166c10.849,1.367,21.828,2.889,32.842,4.525c-3.214,4.027-6.531,7.967-9.946,11.82H354.482
	C346.076,494.944,339.261,501.754,339.261,510.153z M265.134,533.617c0-5.178-4.201-9.375-9.383-9.375s-9.383,4.197-9.383,9.375
	c0,5.178,4.201,9.375,9.383,9.375S265.134,538.795,265.134,533.617z M320.257,503.927c0-5.091-4.13-9.218-9.225-9.218h-90.624
	c-5.095,0-9.225,4.127-9.225,9.218c0,5.091,4.13,9.218,9.225,9.218h90.624C316.127,513.145,320.257,509.018,320.257,503.927z
	 M349.895,404.593c2.494-0.093-0.615,7.315,2.232,9.872c3.422,3.073,4.084,0.133,5.722,2.179c0.776,0.969,0.831,5.62,0.573,9.113
	c0.548,0.041,1.096,0.082,1.645,0.124c0.366-4.124,0.925-8.673,2.008-8.659c0.882,0.012,0.863,4.862,1.602,8.93
	c0.474,0.036,0.949,0.072,1.423,0.108c-0.524-2.19-0.783-5.082,0.044-9.107c2.451,0.93,5.131,2.346,10.536-0.529
	c2.153,1.922,1.633,6.546,0.395,10.487c0.566,0.044,1.133,0.089,1.699,0.134c1.024-2.841,1.783-5.954,2.394-7.391
	c0.831-0.595,0.629,3.401-0.257,7.558c0.698,0.055,1.395,0.112,2.092,0.167c0.121-0.259,0.236-0.503,0.336-0.71
	c-0.29-3.562,1.724-12.597,0.157-14.589c-1.567-1.992-2.243-0.607-4.883-3.693c-2.189-2.559-4.058-5.344-6.901-5.433
	c-7.684-0.242-3.994,4.995-10.521,5.62c-2.701,0.259-3.423,4.622-5.645,2.705c-1.173-1.012-0.272-5.43-0.127-7.178
	c0.043-0.516,0.239-2.047,0.014-2.585c-0.732-1.75-4.201,0.385-4.201,0.385s-4.67-0.946-4.337,2.098
	C347.164,404.652,349.137,404.621,349.895,404.593z"></path>
<path id="color_x5F_5" fill="#FFD2BB" d="M354.482,494.944h165.974c-28.843,32.547-64.699,58.729-105.211,76.175h-135.22
	c-7.576,0-13.718-6.137-13.718-13.707c0-7.57,6.142-13.707,13.718-13.707h117.844c5.069,0,9.178-4.106,9.178-9.171
	c0-5.065-4.109-9.171-9.178-9.171h-43.387c-8.406,0-15.221-6.809-15.221-15.209v0C339.261,501.754,346.076,494.944,354.482,494.944z
	 M509.094,438.334c-3.806-0.313-7.654-0.633-11.535-0.96c0,15.181,0,29.756,0,41.224c10.849,1.367,21.828,2.889,32.842,4.525
	c10.27-12.871,19.492-26.613,27.544-41.097C542.65,441.01,526.28,439.747,509.094,438.334z M107.906,481.937l-5.793-1.857
	l5.149,3.768c0.523,0.383,1.23-0.13,1.027-0.746L107.906,481.937z M120.343,475.15l0.572,1.782c0.321-0.465,0.291-1.16-0.263-1.559
	L120.343,475.15z M296.811,469.311c-1.042-0.751-0.212-2.379,1.009-1.978l18.291,6.014c1.038,0.341,1.904-0.849,1.258-1.73
	l-11.377-15.523c-0.759-1.036,0.534-2.328,1.571-1.57l15.535,11.368c0.882,0.645,2.074-0.22,1.732-1.257l-6.019-18.276
	c-0.402-1.22,1.228-2.049,1.98-1.008l11.259,15.608c0.639,0.886,2.04,0.431,2.036-0.661l-0.072-19.24
	c-0.005-1.284,1.802-1.57,2.194-0.347l5.881,18.321c0.334,1.04,1.807,1.04,2.141,0l5.881-18.321
	c0.392-1.223,2.199-0.937,2.194,0.347l-0.072,19.24c-0.004,1.092,1.397,1.547,2.036,0.661l11.259-15.608
	c0.751-1.042,2.381-0.212,1.98,1.008l-6.019,18.276c-0.342,1.038,0.85,1.903,1.732,1.257l15.535-11.368
	c1.037-0.759,2.33,0.534,1.571,1.57l-11.3,15.419c2.428-0.063,4.845-0.116,7.251-0.161l12.221-4.018
	c1.221-0.401,2.051,1.227,1.009,1.978l-2.642,1.903c14.601-0.095,28.734,0.186,42.234,0.931c15.74,0.868,32.336,2.314,49.404,4.198
	c0-9.477,0-18.954,0-28.431h-26.041c-5.24,0-9.527-4.284-9.527-9.52v-5.712c-19.91-1.719-40.335-3.461-60.934-5.102
	c-0.698-0.056-1.394-0.112-2.092-0.167c-0.711-0.056-1.425-0.112-2.137-0.168c-0.566-0.045-1.133-0.089-1.699-0.134
	c-3.655-0.287-7.313-0.572-10.975-0.851c-0.475-0.036-0.949-0.072-1.423-0.108c-1.203-0.091-2.407-0.181-3.61-0.272
	c-0.548-0.041-1.096-0.083-1.645-0.124c-8.634-0.646-17.276-1.266-25.9-1.851c-0.805-0.055-1.609-0.107-2.414-0.161
	c-0.732-0.049-1.463-0.098-2.195-0.146c-0.727-0.048-1.455-0.098-2.182-0.145c-4.734-0.311-9.46-0.609-14.176-0.896
	c-0.544-0.033-1.09-0.067-1.634-0.1c-1.252-0.076-2.502-0.148-3.752-0.222c-0.683-0.04-1.366-0.08-2.048-0.12
	c-7.839-0.455-15.639-0.873-23.384-1.246c-0.526-0.025-1.055-0.052-1.58-0.077c-0.723-0.034-1.445-0.068-2.167-0.102
	c-0.503-0.023-1.003-0.045-1.506-0.068c-3.227-0.147-6.442-0.286-9.646-0.417c-0.466-0.019-0.933-0.039-1.399-0.058
	c-1.188-0.048-2.374-0.094-3.559-0.139c-0.51-0.02-1.018-0.038-1.527-0.057c-31.815-1.188-62.345-1.493-90.191-0.401
	c-0.234,0.009-0.47,0.019-0.705,0.029c-1.545,0.062-3.1,0.128-4.661,0.197c-1.547,0.069-3.099,0.14-4.661,0.216
	c-20.044,0.978-41.293,2.562-63.003,4.56c-1.892,0.174-3.787,0.351-5.686,0.531c-1.892,0.18-3.788,0.362-5.685,0.548
	c-17.596,1.721-35.403,3.691-53.043,5.807c12.596,24.983,28.608,47.944,47.423,68.279c2.332-0.263,4.669-0.528,7.031-0.799
	l-4.312-1.382c-0.726-0.233-0.556-1.303,0.206-1.301l16.631,0.062c0.648,0.003,0.918-0.828,0.392-1.207l-13.492-9.717
	c-0.618-0.445-0.126-1.411,0.598-1.173l15.798,5.195c0.616,0.203,1.13-0.504,0.746-1.026l-9.826-13.408
	c-0.45-0.614,0.317-1.381,0.932-0.931l5.782,4.231c0.087-0.491,0.475-0.929,1.108-0.926l5.663,0.021l-3.306-10.038
	c-0.238-0.724,0.728-1.216,1.174-0.598l7.688,10.657l3.236,0.012l-0.022-5.967l-10.136-7.3c-1.042-0.751-0.212-2.379,1.009-1.978
	l9.103,2.993l-0.007-1.947c-0.003-0.762,1.069-0.931,1.302-0.206l0.925,2.882l6.968,2.291c1.038,0.341,1.904-0.849,1.258-1.731
	l-11.377-15.523c-0.759-1.036,0.534-2.328,1.571-1.57l15.535,11.368c0.882,0.645,2.074-0.22,1.732-1.257l-6.019-18.276
	c-0.402-1.22,1.228-2.049,1.98-1.008l11.259,15.608c0.639,0.886,2.04,0.431,2.036-0.661l-0.072-19.24
	c-0.005-1.284,1.802-1.57,2.194-0.347l5.881,18.321c0.334,1.04,1.807,1.04,2.141,0l5.881-18.321
	c0.393-1.223,2.199-0.937,2.195,0.347l-0.072,19.24c-0.004,1.092,1.397,1.547,2.036,0.661l11.259-15.608
	c0.751-1.042,2.381-0.212,1.98,1.008l-6.019,18.276c-0.342,1.038,0.85,1.903,1.732,1.257l15.536-11.368
	c1.037-0.759,2.33,0.534,1.571,1.57l-11.377,15.523c-0.646,0.881,0.22,2.072,1.258,1.731l18.29-6.014
	c1.221-0.401,2.051,1.227,1.009,1.978l-15.62,11.251c-0.887,0.639-0.432,2.038,0.661,2.034l19.255-0.072
	c1.285-0.005,1.571,1.801,0.348,2.193l-18.335,5.877c-0.836,0.268-0.989,1.262-0.482,1.819
	c39.841-4.728,81.044-9.266,121.047-12.299L296.811,469.311z"></path>
<path id="color_x5F_4" fill="#00CEC9" d="M363.676,426.151c-1.203-0.091-2.407-0.181-3.61-0.272
	c0.366-4.124,0.925-8.673,2.008-8.659C362.956,417.232,362.937,422.083,363.676,426.151z M365.143,417.153
	c-0.827,4.025-0.568,6.917-0.044,9.107c3.662,0.279,7.32,0.564,10.975,0.851c1.238-3.941,1.758-8.565-0.395-10.487
	C370.275,419.498,367.595,418.083,365.143,417.153z M329.948,417.214c-0.556,1.307-1.213,3.78-2.035,6.383
	c0.731,0.049,1.463,0.097,2.195,0.146C330.744,419.81,330.77,416.626,329.948,417.214z M448.606,297.163
	c-14.133,1.086-51.5,15.195-91.128,29.047c-36.399,12.723-173.382,48.553-173.382,48.553c1.337,0.953,2.148,2.668,1.574,5.157
	c-0.002,5.134-0.004,10.02-0.005,15.153c1.05,3.52-2.372,6.893-5.912,5.727c-3.85-0.003-7.521-0.007-11.296-0.01
	c0,6.525,0,13.051,0,18.789c0.234-0.009,0.471-0.02,0.705-0.029c27.846-1.091,58.376-0.786,90.191,0.401
	c-0.021-3.289-0.467-7.919-1.298-8.785c-1.687-1.757-2.054,1.02-5.477-1.539c-2.848-2.129-0.591-9.243-2.891-8.949
	c-0.698,0.089-2.522,0.283-3.732-0.03c-0.563-2.789,3.838-2.303,3.838-2.303s3.032-2.265,3.855-0.707
	c0.253,0.479,0.199,1.912,0.203,2.393c0.012,1.63-0.453,5.793,0.717,6.632c2.216,1.589,2.519-2.51,4.997-2.975
	c5.988-1.124,2.135-5.662,9.266-6.079c2.638-0.155,4.601,2.267,6.84,4.452c2.701,2.635,3.211,1.297,4.827,3.009
	c1.617,1.713,0.509,10.242,1.075,13.514c-0.219,0.581-0.508,1.405-0.837,2.284c7.745,0.373,15.545,0.79,23.384,1.246
	c0.143-3.731-0.032-7.764-0.805-8.73c-1.954-2.441-2.744,1.068-6.828-2.6c-3.397-3.051,0.313-11.891-2.663-11.78
	c-0.904,0.034-3.258,0.071-4.77-0.469c-0.397-3.632,5.175-2.503,5.175-2.503s4.139-2.547,5.012-0.459
	c0.268,0.641,0.034,2.469-0.017,3.084c-0.173,2.086-1.248,7.357,0.151,8.565c2.65,2.288,3.513-2.919,6.736-3.228
	c7.788-0.746,3.384-6.995,12.554-6.707c3.392,0.107,5.623,3.43,8.235,6.483c3.15,3.683,3.957,2.029,5.826,4.406
	c1.658,2.108-0.04,10.817-0.205,15.728c8.625,0.585,17.266,1.206,25.9,1.851c0.258-3.492,0.203-8.144-0.573-9.113
	c-1.638-2.046-2.3,0.895-5.722-2.179c-2.847-2.557,0.262-9.965-2.232-9.872c-0.757,0.028-2.731,0.06-3.997-0.393
	c-0.333-3.044,4.337-2.098,4.337-2.098s3.469-2.135,4.201-0.385c0.225,0.538,0.029,2.069-0.014,2.585
	c-0.146,1.748-1.046,6.165,0.127,7.178c2.221,1.917,2.944-2.446,5.645-2.705c6.527-0.625,2.836-5.862,10.521-5.62
	c2.843,0.089,4.712,2.874,6.901,5.433c2.64,3.086,3.316,1.7,4.883,3.693c1.567,1.992-0.446,11.028-0.157,14.589
	c-0.1,0.207-0.215,0.451-0.336,0.71c20.6,1.641,41.024,3.382,60.934,5.102v-17.332c-41.314-15.491-71.02-29.694-65.245-36.907
	c16.686-20.841,95.942-18.757,114.714-33.345C511.178,330.508,456.949,315.919,448.606,297.163z M380.168,419.853
	c-0.611,1.436-1.37,4.549-2.394,7.391c0.712,0.056,1.425,0.111,2.137,0.168C380.797,423.255,380.998,419.258,380.168,419.853z
	 M96.131,367.421c19.844-15.264,15.391-34.121,22.934-43.166l0,0c20.639-1.875,41.691,5.868,63.741,13.903
	c3.927-5.162,9.718-10.183,15.979-14.856c16.691-12.455,3.459-36.076-10.556-52.08c-0.001-0.001-0.002-0.002-0.003-0.004
	c-0.049-0.004-0.873-9.965-185.671,65.504c2.887,22.008,8.169,43.262,15.593,63.484c9.533-6.526,23.122-12.919,42.517-17.597
	c1.058-0.255,2.088-0.517,3.102-0.782c-0.002-5.245-0.004-10.349-0.006-15.661c-2.113-9.17,11.143-9.785,11.143-1.891v14.148
	c3.634-1.293,6.907-2.661,9.855-4.091c0-6.395,0-12.233,0-16.874c0-0.458,0.044-0.887,0.128-1.287
	c0.583-2.803,3.07-4.202,5.558-4.201v0c2.843,0.001,5.686,1.832,5.686,5.488C96.131,358.657,96.131,362.542,96.131,367.421z
	 M31.717,431.438c17.64-2.115,35.447-4.086,53.043-5.807c0-6.069,0-14.006,0-22.51l-58.589,16.727
	C27.934,423.76,29.791,427.619,31.717,431.438z M312.02,413.992c-0.722,3.512-0.745,6.293-0.465,8.564
	c4.716,0.287,9.442,0.585,14.176,0.896c0.932-4.045,0.998-8.185-1.138-10.092C318.143,416.791,314.945,415.102,312.02,413.992z
	 M497.559,434.523c0,0.952,0,1.903,0,2.851c3.881,0.326,7.73,0.647,11.535,0.96C505.245,437.073,501.396,435.802,497.559,434.523z
	 M461.991,422.844c0,3.33,2.702,6.029,6.034,6.029h10.48c0-0.252,0-0.529,0-0.796c-5.596-1.925-11.115-3.853-16.514-5.775V422.844z
	 M308.357,414.073c-1.103-0.015-1.751,3.941-2.189,8.16c1.25,0.074,2.5,0.146,3.752,0.222
	C309.369,418.236,309.248,414.085,308.357,414.073z M363.227,199.992c18.563,0,33.611-15.036,33.611-33.585
	c0-18.548-15.048-33.585-33.611-33.585c-18.563,0-33.611,15.037-33.611,33.585C329.616,184.956,344.664,199.992,363.227,199.992z
	 M141.733,406.934v-18.008c0-0.875,0.216-1.607,0.555-2.227l-24.931,7.118v5.305c0,3.125-2.559,5.681-5.686,5.681H96.131
	c0,6.584,0,13.167,0,19.751c21.71-1.998,42.959-3.582,63.003-4.56c0-2.8,0-5.6,0-8.401h-12.74
	C143.83,411.591,141.733,409.495,141.733,406.934z M151.055,388.925v10.401c0,1.629,1.322,2.95,2.952,2.95h5.127
	c0-4.348,0-13.393,0-20.388l-10.577,3.02C149.974,385.562,151.055,386.889,151.055,388.925z M278.977,412.273
	c-0.522,1.619-1.037,5.389-1.989,8.416c0.722,0.034,1.444,0.067,2.167,0.102C279.868,416.386,279.787,411.574,278.977,412.273z
	 M174.826,391.72c0.944,0,1.709-0.764,1.709-1.708v-11.643c0-0.558,0.086-1.06,0.232-1.514l-8.311,2.373c0,3.786,0,8.041,0,12.492
	H174.826z M274.553,409.659c-4.762,3.112-7.36,2.026-9.706,1.37c-0.485,4.29,0.192,7.126,0.989,9.176
	c3.204,0.131,6.419,0.27,9.646,0.417C276.562,416.633,276.959,411.445,274.553,409.659z M262.012,411.347
	c-1.045,0.08-1.15,4.696-1.133,8.66c1.185,0.045,2.371,0.091,3.559,0.139C263.264,416.341,262.88,411.281,262.012,411.347z"></path>
<path id="color_x5F_3" fill="#E84393" d="M593.56,329.639c-4.323,40.438-16.748,78.447-35.615,112.388
	c-15.295-1.017-31.665-2.28-48.851-3.693c-3.849-1.261-7.698-2.533-11.535-3.811c0-2.886,0-5.788,0-8.69
	c7.717,0.007,15.22,0.013,23.09,0.02c7.236,2.384,14.23-4.512,12.084-11.706c0.004-10.493,0.008-20.48,0.011-30.973
	c3.541-15.366-18.671-16.396-18.671-3.169v23.799c0,1.928-1.564,3.491-3.493,3.491h-13.02c0-14.751-0.019-39.468-0.055-39.827
	c-0.144-1.438-0.568-2.684-1.196-3.738c-0.157-0.264-0.327-0.515-0.508-0.755c-1.27-1.677-3.11-2.765-5.121-3.267
	c-0.287-0.072-0.578-0.131-0.871-0.179c-0.586-0.095-1.181-0.143-1.777-0.143v0c-4.763,0.002-9.527,3.07-9.527,9.196
	c0,5.477,0,44.367,0,59.495c-5.596-1.925-11.115-3.853-16.514-5.775v-20.718c0-12.271-19.054-12.251-19.054,0v13.765
	c-41.314-15.491-71.02-29.694-65.245-36.907c16.686-20.841,95.942-18.757,114.714-33.345c18.771-14.589-35.457-29.177-43.8-47.934
	C461.31,294.582,542.866,315.832,593.56,329.639z M363.227,226.175c-8.916,0-17.368-1.964-24.97-5.459
	c-7.778-3.577-14.652-8.769-20.199-15.152h9.345c4.858,0,8.796-3.935,8.796-8.789c0-4.854-3.938-8.789-8.796-8.789h-19.956
	c-1.063-2.742-1.929-5.58-2.581-8.5c-0.941-4.211-1.454-8.584-1.454-13.078c0-3.418,0.303-6.764,0.854-10.025
	c4.774-28.233,29.346-49.743,58.96-49.743c17.336,0,32.941,7.377,43.866,19.151c2.977,3.208,5.6,6.745,7.82,10.547
	c5.159,8.835,8.129,19.103,8.129,30.069c0,8.025-1.594,15.675-4.465,22.667C409.64,210.84,388.231,226.175,363.227,226.175z
	 M396.839,166.407c0-18.548-15.048-33.585-33.611-33.585c-18.563,0-33.611,15.037-33.611,33.585
	c0,18.549,15.048,33.585,33.611,33.585C381.79,199.992,396.839,184.956,396.839,166.407z M198.786,323.303
	c-6.261,4.672-12.052,9.694-15.979,14.856c-22.05-8.034-43.102-15.778-63.741-13.903l0,0c-7.543,9.045-3.09,27.902-22.934,43.166
	c0,8.664,0,20.473,0,26.018h6.254c1.989,0,3.601-1.611,3.601-3.598v-12.688c0-7.323,11.371-7.311,11.371,0v16.662l24.931-7.118
	c1.197-2.185,4.118-2.782,6.269-1.79l10.577-3.02c0-4.437,0-8.051,0-9.109c0-2.997,2.33-4.498,4.661-4.499
	c0.291,0,0.583,0.023,0.869,0.07c0.574,0.094,1.129,0.281,1.63,0.562c0.751,0.421,1.379,1.054,1.762,1.898
	c0.255,0.563,0.401,1.219,0.401,1.97c0,1.919,0,4.097,0,6.448l8.311-2.373c0.99-3.07,4.975-3.769,7.329-2.092
	c0,0,136.983-35.83,173.382-48.553c-73.664-28.079-144.868-53.097-169.248-54.987C202.245,287.227,215.477,310.847,198.786,323.303z
	 M74.905,378.478c0,1.151,0.933,2.083,2.085,2.083h7.77c0-2.119,0-4.202,0-6.229c-2.948,1.43-6.22,2.798-9.855,4.091V378.478z
	 M63.769,384.651c0-0.951-0.001-1.885-0.001-2.823c-1.014,0.265-2.044,0.527-3.102,0.782c-19.396,4.678-32.984,11.071-42.517,17.597
	c2.446,6.662,5.123,13.212,8.022,19.642l58.589-16.727c0-3.76,0-7.63,0-11.496c-4.606,0.004-9.083,0.008-13.78,0.012
	C66.662,393.06,62.488,388.944,63.769,384.651z"></path>
<path id="color_x5F_2" fill="#FBC02D" d="M414.913,136.338h93.584c14.574,0,26.389,11.805,26.389,26.368l0,0
	c0,14.563-11.815,26.368-26.389,26.368h-89.92c2.871-6.992,4.465-14.642,4.465-22.667
	C423.042,155.44,420.072,145.173,414.913,136.338z M149.61,156.26h153.055c0.545,0,1.077,0.05,1.602,0.122
	c4.774-28.233,29.346-49.743,58.96-49.743c17.336,0,32.941,7.377,43.866,19.151h40.417c8.097,0,14.66-6.559,14.66-14.649l0,0
	c0-8.09-6.564-14.649-14.66-14.649H231.122c-5.83,0-10.555,4.722-10.555,10.547l0,0c0,5.825-4.726,10.547-10.556,10.547H149.61
	c-10.688,0-19.352,8.657-19.352,19.337v0C130.258,147.603,138.923,156.26,149.61,156.26z M205.906,76.937h119.629
	c4.858,0,8.796-3.935,8.796-8.789v0c0-4.854-3.938-8.789-8.796-8.789H205.906c-4.858,0-8.796,3.935-8.796,8.789v0
	C197.11,73.002,201.048,76.937,205.906,76.937z M277.449,50.692h79.753c4.858,0,8.796-3.935,8.796-8.789
	c0-4.854-3.938-8.789-8.796-8.789h-79.753c-4.858,0-8.796,3.935-8.796,8.789C268.653,46.757,272.591,50.692,277.449,50.692z
	 M362.773,73.592c0,4.854,3.938,8.789,8.796,8.789h31.08c4.858,0,8.796-3.935,8.796-8.789s-3.938-8.789-8.796-8.789h-31.08
	C366.711,64.803,362.773,68.738,362.773,73.592z M595.13,288.687H434.022c-3.239,0-5.864-2.623-5.864-5.86
	c0-3.236,2.625-5.86,5.864-5.86h45.74c10.364,0,18.765-8.395,18.765-18.751v0c0-10.356-8.402-18.751-18.765-18.751H336.677
	c-5.182,0-9.383-4.197-9.383-9.375v0c0-5.178,4.201-9.375,9.383-9.375h1.581c-7.778-3.577-14.652-8.769-20.199-15.152h9.345
	c4.858,0,8.796-3.935,8.796-8.789c0-4.854-3.938-8.789-8.796-8.789h-19.956c-1.063-2.742-1.929-5.58-2.581-8.5
	c-0.714,0.136-1.448,0.214-2.202,0.214H163.684c-9.392,0-17.006,7.608-17.006,16.993l0,0c0,9.385-7.614,16.993-17.006,16.993H93.314
	c-9.392,0-17.006,7.608-17.006,16.993v0c0,9.385,7.614,16.993,17.006,16.993h161.851c4.21,0,7.623,3.411,7.623,7.617l0,0
	c0,4.207-3.413,7.617-7.623,7.617H119.703c-5.83,0-10.556,4.722-10.556,10.547v0c0,5.825-4.726,10.547-10.555,10.547H0.324
	C0.119,288.521,0,293.065,0,297.638c0,13.25,0.878,26.293,2.556,39.085c184.799-75.469,185.623-65.507,185.671-65.504
	c0.001,0.001,0.002,0.002,0.003,0.004c24.379,1.89,95.583,26.908,169.248,54.987c39.628-13.851,76.996-27.96,91.128-29.047
	c12.704-2.581,94.26,18.67,144.953,32.477c1.124-10.515,1.716-21.189,1.716-32.002C595.276,294.642,595.218,291.661,595.13,288.687z
	 M427.572,201.965c-4.858,0-8.796,3.935-8.796,8.789l0,0c0,4.854,3.938,8.789,8.796,8.789h79.753c4.858,0,8.796-3.935,8.796-8.789
	l0,0c0-4.854-3.938-8.789-8.796-8.789H427.572z"></path>
<path id="color_x5F_1" fill="#0984E3" d="M297.638,0C137.829,0,7.454,125.951,0.324,283.999h98.268
	c5.83,0,10.555-4.722,10.555-10.547v0c0-5.825,4.726-10.547,10.556-10.547h135.462c4.21,0,7.623-3.41,7.623-7.617l0,0
	c0-4.207-3.413-7.617-7.623-7.617H93.314c-9.392,0-17.006-7.608-17.006-16.993v0c0-9.385,7.614-16.993,17.006-16.993h36.358
	c9.392,0,17.006-7.608,17.006-16.993l0,0c0-9.385,7.614-16.993,17.006-16.993h138.981c0.753,0,1.488-0.078,2.202-0.214
	c-0.941-4.211-1.454-8.584-1.454-13.078c0-3.418,0.303-6.764,0.854-10.025c-0.525-0.072-1.057-0.122-1.602-0.122H149.61
	c-10.688,0-19.352-8.657-19.352-19.337v0c0-10.679,8.664-19.337,19.352-19.337h60.401c5.83,0,10.556-4.722,10.556-10.547l0,0
	c0-5.825,4.726-10.547,10.555-10.547H447.51c8.097,0,14.66,6.559,14.66,14.649l0,0c0,8.09-6.564,14.649-14.66,14.649h-40.417
	c2.977,3.208,5.6,6.745,7.82,10.547h93.584c14.574,0,26.389,11.805,26.389,26.368l0,0c0,14.563-11.815,26.368-26.389,26.368h-89.92
	c-8.937,21.766-30.346,37.101-55.35,37.101c-8.916,0-17.368-1.964-24.97-5.459h-1.581c-5.182,0-9.383,4.197-9.383,9.375v0
	c0,5.178,4.201,9.375,9.383,9.375h143.086c10.364,0,18.765,8.395,18.765,18.751v0c0,10.356-8.402,18.751-18.765,18.751h-45.74
	c-3.239,0-5.864,2.623-5.864,5.86c0,3.236,2.625,5.86,5.864,5.86H595.13C590.396,128.448,459.023,0,297.638,0z M334.331,68.147
	c0,4.854-3.938,8.789-8.796,8.789H205.906c-4.858,0-8.796-3.935-8.796-8.789v0c0-4.854,3.938-8.789,8.796-8.789h119.629
	C330.393,59.358,334.331,63.293,334.331,68.147L334.331,68.147z M277.449,50.692c-4.858,0-8.796-3.935-8.796-8.789
	c0-4.854,3.938-8.789,8.796-8.789h79.753c4.858,0,8.796,3.935,8.796,8.789c0,4.854-3.938,8.789-8.796,8.789H277.449z
	 M402.649,82.382h-31.08c-4.858,0-8.796-3.935-8.796-8.789s3.938-8.789,8.796-8.789h31.08c4.858,0,8.796,3.935,8.796,8.789
	S407.507,82.382,402.649,82.382z M516.121,210.755c0,4.854-3.938,8.789-8.796,8.789h-79.753c-4.858,0-8.796-3.935-8.796-8.789l0,0
	c0-4.854,3.938-8.789,8.796-8.789h79.753C512.182,201.965,516.121,205.9,516.121,210.755L516.121,210.755z"></path>
</svg>