<?xml version="1.0" standalone="no"?>
<svg version="1.1" id="Layer_1" xmlns="http://www.w3.org/2000/svg" xmlns:xlink="http://www.w3.org/1999/xlink" x="0px" y="0px" viewBox="0 0 595.276 595.276" enable-background="new 0 0 595.276 595.276" xml:space="preserve">
<path id="color_x5F_9" fill="#438345" d="M417.804,439.532L407,442.997c-17.295-1.42-36.082-3.139-55.546-4.856
	c0.067-0.019,0.135-0.038,0.214-0.038l12.529,0.047c0.711,0.003,1.008-0.909,0.431-1.325l-10.164-7.327
	c-0.678-0.489-0.138-1.549,0.656-1.288l11.902,3.917c0.676,0.222,1.239-0.553,0.819-1.127l-7.132-9.739l-0.271-0.37
	c-0.494-0.674,0.348-1.516,1.022-1.022l1.905,1.395l8.204,6.008c0.574,0.42,1.349-0.143,1.127-0.819l-1.705-5.181l-2.212-6.721
	c-0.261-0.794,0.799-1.335,1.288-0.656l5.321,7.382l2.005,2.782c0.416,0.577,1.327,0.281,1.325-0.431l-0.009-2.348l-0.028-7.435
	l-0.01-2.746c-0.003-0.836,1.173-1.022,1.428-0.226l0.954,2.975l2.386,7.438l0.487,1.518c0.217,0.677,1.176,0.677,1.393,0
	l0.486-1.515l2.384-7.432l0.957-2.983c0.255-0.796,1.431-0.61,1.428,0.226l-0.01,2.759l-0.028,7.435l-0.009,2.335
	c-0.003,0.711,0.909,1.008,1.325,0.431l1.991-2.762l5.336-7.402c0.008-0.011,0.019-0.016,0.027-0.026
	c0.326-0.409,0.864-0.325,1.135,0.001c0.144,0.174,0.215,0.41,0.126,0.682l-2.222,6.751l-1.695,5.151
	c-0.222,0.676,0.553,1.239,1.127,0.819l8.14-5.961l1.969-1.442c0.674-0.494,1.516,0.348,1.022,1.022l-0.309,0.422l-7.093,9.686
	c-0.42,0.574,0.143,1.349,0.819,1.127l11.902-3.917c0.794-0.261,1.335,0.799,0.656,1.288l-10.164,7.327
	c-0.577,0.416-0.281,1.327,0.43,1.325l12.53-0.047C418.414,438.101,418.6,439.276,417.804,439.532z M193.001,428.947l10.164-7.327
	c0.678-0.489,0.138-1.549-0.656-1.288l-10.51,3.459l-1.391,0.458c-0.676,0.222-1.239-0.553-0.819-1.127l7.403-10.109
	c0.494-0.674-0.348-1.516-1.022-1.022l-10.109,7.403c-0.574,0.42-1.349-0.143-1.127-0.819l3.917-11.902
	c0.261-0.794-0.799-1.335-1.288-0.656l-7.327,10.164c-0.416,0.577-1.327,0.281-1.325-0.43l0.047-12.53
	c0.003-0.836-1.173-1.022-1.428-0.226l-3.827,11.931c-0.217,0.677-1.176,0.677-1.393,0l-3.827-11.931
	c-0.255-0.796-1.431-0.61-1.428,0.226l0.047,12.53c0.003,0.711-0.909,1.007-1.325,0.43l-7.326-10.164
	c-0.489-0.678-1.55-0.138-1.288,0.656l3.917,11.902c0.222,0.676-0.553,1.239-1.127,0.819l-10.109-7.403
	c-0.674-0.494-1.516,0.348-1.022,1.022l7.403,10.109c0.42,0.574-0.143,1.349-0.819,1.127l-11.902-3.917
	c-0.794-0.261-1.335,0.799-0.656,1.288l10.164,7.327c0.577,0.416,0.281,1.328-0.43,1.325l-12.53-0.047
	c-0.836-0.003-1.022,1.172-0.226,1.428l6.095,1.955c15.43-1.453,30.474-2.555,44.425-3.118c2.369-0.095,4.775-0.171,7.204-0.234
	l-4.118,0.016C192.72,430.274,192.424,429.363,193.001,428.947z M124.35,415.406c3.628,0,6.596-2.968,6.596-6.596v-10.643v-2.632
	v-12.11v-7.35v-2.179c0-8.488-13.191-8.502-13.191,0v2.179v7.35v12.11v2.503c0,2.307-1.87,4.177-4.177,4.177h-7.255
	c0-0.425,0-3.005,0-6.68c0-3.376,0-7.675,0-12.11c0-2.458,0-4.951,0-7.35c0-8.255,0-15.342,0-15.632c0-1.634-0.492-2.95-1.281-3.956
	c-1.261-1.606-3.286-2.414-5.314-2.415l0,0c-0.825,0-1.649,0.132-2.422,0.397c-0.193,0.066-0.383,0.141-0.569,0.224
	c-0.247,0.11-0.483,0.24-0.715,0.38c-1.16,0.7-2.097,1.764-2.564,3.204c-0.21,0.647-0.326,1.37-0.326,2.167c0,0.12,0,3.55,0,8.915
	c0,3.858,0,8.709,0,14.067c0,3.84,0,7.936,0,12.11c0,18.426,0,38.336,0,44.081c2.191-0.286,4.39-0.569,6.595-0.849
	c2.194-0.278,4.392-0.553,6.596-0.824c0-7.512,0-15.024,0-22.536H124.35z M273.159,374.349c0.031,0,22.145,0.019,22.19,0.019
	c0.085,0,0.146,0,0.156,0c7.003,2.309,13.772-4.37,11.695-11.338c0.004-10.163,0.007-19.836,0.011-29.999
	c0.201-0.872,0.309-1.692,0.348-2.468c0.453-9.006-9.33-11.6-14.819-7.817c-2.117,1.459-3.6,3.859-3.6,7.216v23.051
	c0,1.867-1.514,3.381-3.381,3.381h-12.601c0-0.192,0-28.499,0-37.496c0-0.743-0.001-8.907-9.22-8.907l0,0
	c-4.61,0.003-9.22,2.974-9.22,8.907c0,2.104,0,57.435,0,58.395h-10.142c-1.334,0-2.549-0.465-3.532-1.218
	c-0.87-0.666-1.542-1.561-1.929-2.607c-0.233-0.63-0.379-1.303-0.379-2.015v-20.592c0-7.518-7.376-10.266-12.798-8.272
	c-3.15,1.158-5.643,3.912-5.643,8.272v1.702v30.862v3.089c0,4.422,3.156,8.142,7.327,9.021c0.362,0.076,0.732,0.124,1.107,0.157
	c0.26,0.023,0.521,0.042,0.786,0.042h25.202c0,0.338,0,34.312,0,35.383c3.059,0.141,6.133,0.294,9.22,0.458
	c3.062,0.163,6.136,0.336,9.22,0.52C273.159,431.247,273.159,374.349,273.159,374.349z"></path>
<path id="color_x5F_8" fill="#FFFFFF" d="M387.876,253.108l0.057-51.149l2.532-3.608c-4.328-4.874-9.035-9.402-14.073-13.544
	c-3.187-2.621-6.503-5.09-9.944-7.388h-40.971c-2.255,0-4.083-1.828-4.083-4.083c0-2.255,1.828-4.083,4.083-4.083h26.782
	c-6.412-3.15-13.137-5.758-20.112-7.779c-10.955-3.174-22.53-4.888-34.51-4.888c-34.793,0-66.231,14.328-88.761,37.396
	c-4.996,5.115-9.559,10.654-13.618,16.568h73.635c3.866,0,7,3.134,7,7v0c0,3.866-3.134,7-7,7h-81.952
	c-1.46,2.874-2.803,5.818-4.041,8.815h38.937c1.933,0,3.5,1.567,3.5,3.5c0,1.933-1.567,3.5-3.5,3.5h-41.584
	c-0.447,1.303-0.86,2.621-1.265,3.943c-1.736,5.665-3.068,11.504-3.984,17.482h5.222v15.167l34.417,25.083l18.083-7.583l8.75,3.5
	v9.917l5.25,5.25v36.167l7.991,7.313v-37.704c0-5.933,4.61-8.904,9.22-8.907l0,0c9.219,0,9.22,8.164,9.22,8.907v36.922l6.091-6.091
	v-62.272l11.447-11.447v45.28l2.044,1.457c5.489-3.783,15.271-1.189,14.819,7.817l7.376-6.007l0.108-97.398l11.912-14.857
	l0.007-5.948l28.996,0.032l-0.052,46.723H387.876z M253.358,192.38c-2.898,0-5.818,4.05-5.818,4.05
	c-0.134-0.006-3.456-4.05-6.21-4.05c-2.853,0-5.439,1.067-7.369,2.931c1.016-1.563,2.45-5.153,8.305-5.153
	c1.399,0,4.193,1.135,5.078,2.02c0.091,0.092,5.725-4.307,10.51-0.082c1.144,0.887,2.087,2.004,2.873,3.215
	C258.797,193.447,256.212,192.38,253.358,192.38z M364.749,324.611l0.059-52.788l-2.822-4.715h25.875l-0.033,29.312l-9.852,7.952
	v11.725l-13.228,8.524V324.611z"></path>
<path id="color_x5F_7" fill="#893D26" d="M429.16,561.559l-3.568,4.872c-19.592,9.343-40.365,16.605-62.036,21.506l-7.839-2.515
	c-1.019-0.327-0.781-1.832,0.29-1.828l16.041,0.06c0.911,0.003,1.29-1.163,0.551-1.696l-13.013-9.38
	c-0.868-0.626-0.177-1.984,0.84-1.649l15.237,5.014c0.865,0.285,1.586-0.708,1.048-1.443l-9.477-12.942
	c-0.633-0.864,0.445-1.941,1.309-1.309l12.942,9.477c0.735,0.538,1.727-0.183,1.443-1.048l-5.014-15.237
	c-0.335-1.017,1.023-1.709,1.649-0.84l9.38,13.013c0.533,0.739,1.7,0.36,1.696-0.551l-0.06-16.041
	c-0.004-1.07,1.501-1.309,1.828-0.29l4.899,15.274c0.278,0.867,1.505,0.867,1.784,0l4.9-15.274c0.327-1.019,1.832-0.781,1.828,0.29
	l-0.06,16.041c-0.003,0.911,1.163,1.29,1.696,0.551l9.38-13.013c0.626-0.868,1.984-0.177,1.649,0.84l-5.014,15.237
	c-0.285,0.865,0.708,1.586,1.443,1.048l12.942-9.477C428.715,559.618,429.793,560.695,429.16,561.559z M516.591,499.227
	c-0.913,0.991-1.828,1.98-2.754,2.958c-8.51,8.992-17.569,17.458-27.134,25.334c-2.901,2.388-5.858,4.71-8.849,6.99
	c-0.127-0.736-0.207-1.488-0.207-2.26v0c0-8.434-6.838-15.272-15.272-15.272h-42.762c-8.435,0-15.272,6.837-15.272,15.272v0
	c0,7.31-5.926,13.236-13.236,13.236h-20.363c-7.31,0-13.236,5.926-13.236,13.236v2.036c0,3.479-1.353,6.635-3.548,8.997
	c-4.894-6.05-12.374-9.921-20.762-9.921H202.495c-6.056,0-10.966-4.91-10.966-10.966c0-6.056,4.91-10.966,10.966-10.966h29.648
	c10.632,0,19.25-8.618,19.25-19.25l0,0c0-10.631-8.618-19.25-19.25-19.25H78.846c-3.526-3.822-6.96-7.731-10.285-11.734
	l40.229-18.614h6.607l-9.814-21.03l15.294,12.745l0.85-15.011l4.815,13.878l11.329-4.249l-4.484,13.666h8.539l6.372-12.745h38.234
	l10.196,17.205h17.842l6.279,10.596c27.347-5.819,59.321-7.039,90.364-5.909c0-7.712,0-16.932,0-26.14
	c-4.595,0.004-9.063,0.008-13.749,0.012c-4.309,1.421-8.474-2.689-7.196-6.976c-0.001-4.036-0.006-16.241-0.007-18.458
	c-0.556-2.413-0.041-4.226,1.01-5.453c2.185-2.552,6.707-2.549,8.885,0.01c0.751,0.882,1.223,2.067,1.223,3.555v14.183
	c0,1.149,0.931,2.08,2.08,2.08h7.753c0-2.13,0-15.82,0-19.806c0-1.136,0-2.239,0-3.265c0-0.457,0.044-0.885,0.127-1.285
	c0.582-2.799,3.064-4.196,5.546-4.195v0c2.837,0.001,5.673,1.83,5.673,5.48c0,0.56,0,1.717,0,3.278c0,3.428,0,28.662,0,32.652h6.24
	c1.984,0,3.593-1.609,3.593-3.593v-12.67c0-0.393,0.039-0.76,0.101-1.111c1.084-6.13,11.094-5.799,11.238,0.967
	c0.001,0.049,0.007,0.095,0.007,0.144v21.936c0,3.12-2.553,5.673-5.673,5.673H322.56c0,4.5,0,8.999,0,13.499
	c26.554,1.445,51.905,4.44,72.464,7.542l-7.312-9.985c-0.755-1.031,0.532-2.318,1.563-1.563l15.454,11.317
	c0.878,0.643,2.063-0.219,1.723-1.252l-5.987-18.195c-0.4-1.214,1.222-2.04,1.969-1.003l11.2,15.538
	c0.636,0.882,2.029,0.429,2.025-0.658l-0.072-19.154c-0.005-1.278,1.793-1.563,2.183-0.346l5.85,18.239
	c0.332,1.035,1.797,1.035,2.129,0l5.85-18.239c0.391-1.217,2.188-0.932,2.183,0.346l-0.072,19.154
	c-0.004,1.087,1.389,1.54,2.025,0.658l11.2-15.538c0.747-1.037,2.369-0.211,1.969,1.003l-5.988,18.195
	c-0.34,1.033,0.845,1.894,1.723,1.252l15.454-11.317c1.031-0.755,2.318,0.531,1.563,1.563l-11.317,15.454
	c-0.643,0.877,0.219,2.063,1.252,1.723l18.195-5.987c1.214-0.4,2.04,1.222,1.003,1.969l-8.788,6.334
	c8.023,0.693,16.367,1.3,24.7,1.833c0-13.862,0-27.724,0-41.586H449.62c-6.533,0-12.025-4.68-13.292-10.853
	c-0.18-0.878-0.275-1.786-0.275-2.715v-71.819c0-1.746,0.281-3.31,0.77-4.708c4.397-12.575,26.364-11.032,26.364,4.708
	c0,0,0.031,50.391,0.077,50.749c0.536,4.23,4.14,7.503,8.516,7.503h14.924c0-2.133,0-79.5,0-85.925
	c0-8.73,6.783-13.102,13.567-13.106c1.272-0.001,2.544,0.152,3.771,0.459c0.409,0.102,0.813,0.221,1.211,0.358
	c3.18,1.091,5.935,3.274,7.419,6.552c0.109,0.241,0.197,0.501,0.292,0.755c0.551,1.466,0.874,3.119,0.874,4.983
	c0,9.781,0,140.573,0,156.145C514.76,499.142,515.679,499.185,516.591,499.227z M338.788,504.121c-21.876,0-43.753,0-65.629,0
	c-15.009,0-15.033,23.325,0,23.325c21.876,0,43.752,0,65.629,0C353.797,527.446,353.821,504.121,338.788,504.121z M371.961,504.121
	c-15.009,0-15.033,23.325,0,23.325C386.97,527.446,386.995,504.121,371.961,504.121z M208.474,175.644c0,0,3.684-5.109,7.34-5.109
	c3.6,0,6.861,1.346,9.296,3.698c-0.992-1.527-2.181-2.936-3.625-4.055c-6.036-5.33-13.143,0.219-13.258,0.104
	c-1.117-1.117-4.641-2.549-6.407-2.549c-7.386,0-9.195,4.529-10.477,6.501c2.435-2.352,5.697-3.698,9.296-3.698
	C204.114,170.535,208.305,175.637,208.474,175.644z M245.405,160.798c0,0,2.326-3.226,4.635-3.226c2.273,0,4.332,0.85,5.87,2.335
	c-0.626-0.964-1.377-1.854-2.289-2.561c-3.811-3.366-8.299,0.138-8.372,0.065c-0.705-0.705-2.931-1.609-4.045-1.609
	c-4.664,0-5.806,2.86-6.615,4.105c1.538-1.485,3.597-2.335,5.87-2.335C242.652,157.572,245.298,160.794,245.405,160.798z
	 M247.54,196.431c0,0,2.92-4.05,5.818-4.05c2.854,0,5.439,1.067,7.369,2.931c-0.786-1.21-1.729-2.328-2.873-3.215
	c-4.785-4.225-10.418,0.173-10.51,0.082c-0.885-0.885-3.679-2.02-5.078-2.02c-5.855,0-7.289,3.59-8.305,5.153
	c1.93-1.864,4.515-2.931,7.369-2.931C244.084,192.38,247.406,196.425,247.54,196.431z"></path>
<path id="color_x5F_6" fill="#FDBA54" d="M429.16,561.559c0.633-0.864-0.445-1.941-1.309-1.309l-12.942,9.477
	c-0.735,0.538-1.727-0.183-1.443-1.048l5.014-15.237c0.335-1.017-1.023-1.709-1.649-0.84l-9.38,13.013
	c-0.533,0.739-1.7,0.36-1.696-0.551l0.06-16.041c0.004-1.07-1.501-1.309-1.828-0.29l-4.9,15.274c-0.278,0.867-1.505,0.867-1.784,0
	l-4.899-15.274c-0.327-1.019-1.832-0.781-1.828,0.29l0.06,16.041c0.003,0.911-1.163,1.29-1.696,0.551l-9.38-13.013
	c-0.626-0.868-1.984-0.177-1.649,0.84l5.014,15.237c0.285,0.865-0.708,1.586-1.443,1.048l-12.942-9.477
	c-0.863-0.632-1.941,0.445-1.309,1.309l9.477,12.942c0.538,0.735-0.183,1.728-1.048,1.443l-15.237-5.014
	c-1.017-0.335-1.709,1.023-0.84,1.649l13.013,9.38c0.739,0.533,0.36,1.7-0.551,1.696l-16.041-0.06
	c-1.07-0.004-1.309,1.501-0.29,1.828l7.839,2.515c-21.205,4.795-43.264,7.339-65.918,7.339c-16.126,0-31.947-1.301-47.377-3.769
	c-0.46-1.344-0.721-2.78-0.721-4.279c0-7.31,5.926-13.236,13.236-13.236h81.496c3.831,0,7.271-1.637,9.688-4.239
	c2.195-2.362,3.548-5.518,3.548-8.997v-2.036c0-7.31,5.926-13.236,13.236-13.236h20.363c7.31,0,13.236-5.926,13.236-13.236v0
	c0-8.434,6.838-15.272,15.272-15.272h42.762c8.434,0,15.272,6.837,15.272,15.272v0c0,0.772,0.08,1.525,0.207,2.26
	c-16.2,12.344-33.697,23.069-52.262,31.923L429.16,561.559z M65.287,376.075v-15.033h-5.999l10.676-11.692v-14.699l-22.717,26.391
	v15.033H37.061v-16.228L25.368,369.87v5.538H10.286c-1.026-3.802-1.991-7.629-2.869-11.489l34.485-27.095h5.679v-44.598l9.02-6.061
	v37.798l11.859-10.022v-66.813l9.02-7.016v21.714l5.846-4.009v-36.489l5.178-3.766h6.848v55.956l9.688,10.022V241.78l9.02-7.015
	v32.405l9.688-10.022V217.56h12.026v37.917l7.015,4.009v59.13l7.684-6.013v-22.717l8.185-7.684l11.525,8.492v31.262l20.044,12.242
	v15.485L177.2,364.717v11.358h-46.254v-2.179c0-8.488-13.191-8.502-13.191,0v2.179h-11.432c0-8.011,0-14.927,0-15.632
	c0-1.634-0.492-2.95-1.281-3.956v-19.164l-9.02,8.018v9.731c-1.16,0.7-2.097,1.764-2.564,3.204c-0.21,0.647-0.326,1.37-0.326,2.167
	c0,0.56,0,3.898,0,8.915l-3.248,6.717H65.287z M116.399,331.978L126.756,342v-41.758l-10.356-7.015V331.978z M191.491,564.273
	h-6.064c-7.31,0-13.236-5.926-13.236-13.236v-2.036c0-7.31-5.926-13.236-13.236-13.236h-4.072c-7.31,0-13.236-5.926-13.236-13.236
	c0-8.434-6.837-15.272-15.272-15.272H86.354c32.67,32.927,72.983,58.25,118.057,73.105c0.202-0.92,0.317-1.873,0.317-2.854v0
	C204.727,570.199,198.801,564.273,191.491,564.273z M200.585,376.075h19.711v-23.512l-19.711-12.039V376.075z M241.044,376.075
	h2.566l-4.495-2.607C239.501,374.514,240.174,375.409,241.044,376.075z"></path>
<path id="color_x5F_5" fill="#FFD2BB" d="M108.79,469.052l-40.229,18.614c-10.502-12.646-19.971-26.177-28.291-40.462
	c16.198-2.518,34.232-5.157,52.861-7.589c2.191-0.286,4.39-0.569,6.595-0.849c2.194-0.278,4.392-0.553,6.596-0.824
	c13.194-1.622,26.534-3.104,39.598-4.334c15.43-1.453,30.474-2.555,44.425-3.118c2.369-0.095,4.775-0.171,7.204-0.234
	c17.786-0.459,37.135-0.063,57.169,0.86c3.059,0.141,6.133,0.294,9.22,0.458c3.062,0.163,6.136,0.336,9.22,0.52
	c5.677,0.338,11.384,0.708,17.106,1.105c0.001,3.947,0.003,7.861,0.004,11.897c-1.278,4.287,2.887,8.397,7.196,6.976
	c4.686-0.004,9.154-0.008,13.749-0.012c0,9.208,0,18.428,0,26.14c-31.042-1.13-63.016,0.09-90.364,5.909l-6.279-10.596h-17.842
	l-10.196-17.205h-38.234l-6.372,12.745h-8.539l4.484-13.666l-11.329,4.249l-4.815-13.878l-0.85,15.011l-15.294-12.745l9.814,21.03
	H108.79z M333.198,559.832H202.495c-6.056,0-10.966-4.91-10.966-10.966c0-6.056,4.91-10.966,10.966-10.966h29.648
	c10.632,0,19.25-8.618,19.25-19.25l0,0c0-10.631-8.618-19.25-19.25-19.25H78.846c2.457,2.663,4.957,5.285,7.508,7.857h40.022
	c8.435,0,15.272,6.838,15.272,15.272c0,7.31,5.926,13.236,13.236,13.236h4.072c7.31,0,13.236,5.926,13.236,13.236v2.036
	c0,7.31,5.926,13.236,13.236,13.236h6.064c7.31,0,13.236,5.926,13.236,13.236v0c0,0.981-0.114,1.934-0.317,2.854
	c14.805,4.879,30.121,8.628,45.85,11.144c-0.46-1.344-0.721-2.78-0.721-4.279c0-7.31,5.926-13.236,13.236-13.236h81.496
	c3.831,0,7.271-1.637,9.688-4.239C349.066,563.703,341.586,559.832,333.198,559.832z M371.961,504.121
	c-15.009,0-15.033,23.325,0,23.325C386.97,527.446,386.995,504.121,371.961,504.121z M273.159,527.446c21.876,0,43.752,0,65.629,0
	c15.009,0,15.033-23.325,0-23.325c-21.876,0-43.753,0-65.629,0C258.151,504.121,258.126,527.446,273.159,527.446z M513.838,443.634
	c0,20.396,0,39.892,0,55.465c0.923,0.044,1.841,0.087,2.754,0.129c17.26-18.738,32.141-39.696,44.175-62.398
	C547.021,439.278,530.776,441.8,513.838,443.634z M436.328,445.16c-9.124-0.569-18.955-1.311-29.328-2.163
	c-17.295-1.42-36.082-3.139-55.546-4.856c-2.564-0.226-5.136-0.452-7.721-0.677c0.001,0.049,0.007,0.095,0.007,0.144v21.936
	c0,3.12-2.553,5.673-5.673,5.673H322.56c0,4.5,0,8.999,0,13.499c26.554,1.445,51.905,4.44,72.464,7.542l-7.312-9.985
	c-0.755-1.031,0.532-2.318,1.563-1.563l15.454,11.317c0.878,0.643,2.063-0.219,1.723-1.252l-5.987-18.195
	c-0.4-1.214,1.222-2.04,1.969-1.003l11.2,15.538c0.636,0.882,2.029,0.429,2.025-0.658l-0.072-19.154
	c-0.005-1.278,1.793-1.563,2.183-0.346l5.85,18.239c0.332,1.035,1.797,1.035,2.129,0l5.85-18.239
	c0.391-1.217,2.188-0.932,2.183,0.346l-0.072,19.154c-0.004,1.087,1.389,1.54,2.025,0.658l11.2-15.538
	c0.747-1.037,2.369-0.211,1.969,1.003l-5.988,18.195c-0.34,1.033,0.845,1.894,1.723,1.252l15.454-11.317
	c1.031-0.755,2.318,0.531,1.563,1.563l-11.317,15.454c-0.643,0.877,0.219,2.063,1.252,1.723l18.195-5.987
	c1.214-0.4,2.04,1.222,1.003,1.969l-8.788,6.334c8.023,0.693,16.367,1.3,24.7,1.833c0-13.862,0-27.724,0-41.586H449.62
	C443.087,456.013,437.594,451.333,436.328,445.16z M303.461,441.013h7.753c0-2.13,0-4.222,0-6.259
	c-3.276-0.257-6.554-0.509-9.833-0.753v4.932C301.381,440.081,302.312,441.013,303.461,441.013z M332.394,450.279v-12.67
	c0-0.393,0.039-0.76,0.101-1.111c-3.301-0.28-6.614-0.557-9.934-0.831c0,6.973,0,14.214,0,18.204h6.24
	C330.785,453.871,332.394,452.263,332.394,450.279z"></path>
<path id="color_x5F_4" fill="#00CEC9" d="M589.352,356.978c-1.743,8.617-3.873,17.093-6.344,25.423l-2.615-1.328v-5.666h-6.778
	l-0.002,1.395l-0.001,0.604l-18.972,11.728l-0.026,23.42l17.645,0.02c-1.257,2.999-2.564,5.97-3.915,8.918
	c-2.381,5.196-4.913,10.308-7.579,15.338c-13.745,2.449-29.991,4.97-46.929,6.804c0-7.332,0-30.009,0-30.009l9.55,0.011
	l17.861-15.222l0.018-16.729l18.228-11.132c0,0,0.015-13.262,0.025-22.406l-18.578-8.47l0.001-0.562l-20.46,12.34l-0.023,20.778
	l-6.622,5.694c0-13.181,0-25.192,0-34.973c0-1.864-0.323-3.517-0.874-4.983l15.263-8.099l0.062-56.291L512.6,258.882l0.075-67.936
	l0.178,0l11.877,17.114l-0.057,52.045l16.341,14.888l-0.036,32.354l3.25,3.443h11.667v-11.667l8.167-5.833h15.167v16.917
	l6.417,5.833v37.23L589.352,356.978z M352.129,306.382l-0.029,26.456l12.649-8.216v-0.01l0.059-52.788l-8.906-14.88l0.056-50.558
	l-13.755-0.015c-0.027,24.685-0.098,88.105-0.098,88.105L352.129,306.382z M426.576,218.924l-0.024,21.148l9.654,10.75
	l-0.058,52.306l17.952-19.413l0.057-51.096l-14.2-11.885l0.02-18.473l0-0.245l0,0l0.017-14.87l-14.858-11.169l-8.922-0.01
	l-0.035,31.379L426.576,218.924z M463.263,421.375c0.536,4.23,4.14,7.503,8.516,7.503h14.924v-15.284l-23.471-0.026
	C463.233,413.569,463.263,420.929,463.263,421.375z M47.582,336.822V298.54h-9.105l-18.083,8.75v13.417l-18.56,9.959
	c1.246,11.285,3.112,22.383,5.584,33.252l34.485-27.095H47.582z M377.977,304.373v11.725l9.837-6.331l0.015-13.346L377.977,304.373z
	 M495.706,233.306l0.047-42.379l-13.383-0.015l-0.059,52.788L495.706,233.306z M242.717,412.953l-17.1-0.019l0.007-6.374h-9.813
	c-11.108,0-20.514,7.228-23.812,17.231l10.51-3.459c0.794-0.261,1.335,0.799,0.656,1.288l-10.164,7.327
	c-0.577,0.416-0.281,1.328,0.43,1.325l4.118-0.016c17.786-0.459,37.135-0.063,57.169,0.86c0-1.071,0-22.001,0-22.001
	L242.717,412.953z M130.946,395.535l97.784,0.157c-0.375-0.033-0.746-0.081-1.107-0.157c-4.171-0.88-7.327-4.599-7.327-9.021v-3.089
	h-89.35V395.535z M177.701,296.233v6.514l24.554,18.04v6.013l23.683,15.789c5.422-1.994,12.798,0.754,12.798,8.272v13.332
	l15.982,9.88c0-4.674,0-10.884,0-17.472l-7.991-7.313v-36.167l-5.25-5.25v-9.917l-8.75-3.5l-18.083,7.583l-34.417-25.083V261.79
	h-21.568v20.413l11.525,8.492l0,0L177.701,296.233z M278.468,356.394l0.002-2.138l10.671-8.691v-15.602
	c0-3.357,1.482-5.757,3.6-7.216l-2.044-1.457v-45.28l-11.447,11.447v62.272l-6.091,6.091c0,0.192,0,0.382,0,0.574H278.468z
	 M390.527,423.63c-0.003,0.711,0.909,1.008,1.325,0.431l1.991-2.762l5.336-7.402c0.008-0.011,0.019-0.016,0.027-0.026l-8.642-0.01
	l-0.028,7.435L390.527,423.63z M106.323,395.535h11.432v-12.11h-11.432C106.323,387.86,106.323,392.159,106.323,395.535z
	 M75.212,412.219c-10.02,0-10.037,15.573,0,15.573C85.232,427.792,85.248,412.219,75.212,412.219z M93.132,383.425h-80.56
	c1.224,4.074,2.533,8.111,3.925,12.11h76.635C93.132,391.361,93.132,387.264,93.132,383.425z M53.064,412.219
	c-10.065,0-20.129,0-30.194,0c2.2,5.269,4.546,10.462,7.035,15.573c7.72,0,15.44,0,23.159,0
	C63.084,427.792,63.101,412.219,53.064,412.219z M275.952,374.352c-0.43,0-0.821-0.001-1.166-0.001l-0.147,0
	c-0.388,0-0.706-0.001-0.949-0.001l-0.531,0c0,0,0,0.4,0,1.058h5.288l0.001-1.053c-0.854-0.001-1.641-0.001-2.336-0.002
	L275.952,374.352z M383.926,422.805c0.217,0.677,1.176,0.677,1.393,0l0.486-1.515l2.384-7.432l-7.136-0.008l2.386,7.438
	L383.926,422.805z M423.441,364.825l-0.023,21.19l-20.477,27.859l-2.6-0.003c0.144,0.174,0.215,0.41,0.126,0.682l-2.222,6.751
	l-1.695,5.151c-0.222,0.676,0.553,1.239,1.127,0.819l8.14-5.961l1.969-1.442c0.674-0.494,1.516,0.348,1.022,1.022l-0.309,0.422
	l-7.093,9.686c-0.42,0.574,0.143,1.349,0.819,1.127l11.902-3.917c0.794-0.261,1.335,0.799,0.656,1.288l-10.164,7.327
	c-0.577,0.416-0.281,1.327,0.43,1.325l12.53-0.047c0.836-0.003,1.022,1.173,0.226,1.428L407,442.997
	c10.372,0.852,20.204,1.594,29.328,2.163c-0.18-0.878-0.275-1.786-0.275-2.715v-71.819c0-1.746,0.281-3.31,0.77-4.708l0.016-14.462
	L423.441,364.825z M278.429,391.431l0.015-13.608c-0.221-0.014-5.285-0.14-5.285-0.14c0,3.347,0,8.903,0,15.226L278.429,391.431z
	 M364.197,438.151c0.711,0.003,1.008-0.909,0.431-1.325l-10.164-7.327c-0.678-0.489-0.138-1.549,0.656-1.288l11.902,3.917
	c0.676,0.222,1.239-0.553,0.819-1.127l-7.132-9.739l-0.271-0.37c-0.494-0.674,0.348-1.516,1.022-1.022l1.905,1.395l8.204,6.008
	c0.574,0.42,1.349-0.143,1.127-0.819l-1.705-5.181l-2.212-6.721c-0.261-0.794,0.799-1.335,1.288-0.656l5.321,7.382l2.005,2.782
	c0.416,0.577,1.327,0.281,1.325-0.431l-0.009-2.348l-0.028-7.435l-0.649-0.001l0.052-46.84l-14.884,12.251l-0.037,33.086
	l-60.223-0.067l0.021-18.588l-29.803,9.53c0,0,0,28.029,0,28.876c5.677,0.338,11.384,0.708,17.106,1.105
	c-0.001-2.168-0.002-4.344-0.002-6.561c-0.556-2.413-0.041-4.226,1.01-5.453c2.185-2.552,6.707-2.549,8.885,0.01
	c0.751,0.882,1.223,2.067,1.223,3.555V434c3.279,0.245,6.557,0.496,9.833,0.753c0-4.957,0-9.561,0-13.546c0-1.136,0-2.239,0-3.265
	c0-0.457,0.044-0.885,0.127-1.285c0.582-2.799,3.064-4.196,5.546-4.195v0c2.837,0.001,5.673,1.83,5.673,5.48c0,0.56,0,1.717,0,3.278
	c0,3.428,0,8.846,0,14.447c3.321,0.273,6.633,0.551,9.934,0.831c1.084-6.13,11.094-5.799,11.238,0.967
	c2.585,0.225,5.158,0.451,7.721,0.677c0.067-0.019,0.135-0.038,0.214-0.038L364.197,438.151z M465.553,305.454l0.515,72.873
	l14.998-12.208l-0.303-48.01L465.553,305.454z"></path>
<path id="color_x5F_3" fill="#E84393" d="M523.387,413.635l-9.55-0.011c0-12.325,0-24.438,0-35.698l6.622-5.694l0.023-20.778
	l20.46-12.34l-0.001,0.562l18.578,8.47c-0.01,9.144-0.025,22.406-0.025,22.406l-18.228,11.132l-0.018,16.729L523.387,413.635z
	 M158.659,246.624L144.628,235.6V217.56h-8.853v37.917l7.015,4.009v59.13l7.684-6.013v-22.717l8.185-7.684V261.79V246.624z
	 M278.468,356.394h7.292c1.867,0,3.381-1.514,3.381-3.381v-7.448l-10.671,8.691L278.468,356.394z M528.227,329.871l-15.263,8.099
	c-0.095-0.253-0.183-0.513-0.292-0.755c-1.484-3.278-4.24-5.461-7.419-6.552c-0.397-0.136-0.802-0.256-1.211-0.358
	c-1.227-0.307-2.499-0.46-3.771-0.459c-6.784,0.004-13.567,4.376-13.567,13.106c0,6.425,0,45.126,0,70.642l-23.471-0.026
	l-0.046-42.942c0-15.74-21.968-17.282-26.364-4.708l0.016-14.462l-13.398,13.368l-0.023,21.19l-20.477,27.859l-2.6-0.003
	c-0.27-0.326-0.809-0.41-1.135-0.001l-8.642-0.01l0.01-2.759c0.003-0.836-1.172-1.022-1.428-0.226l-0.957,2.983l-7.136-0.008
	l-0.954-2.975c-0.255-0.796-1.431-0.61-1.428,0.226l0.01,2.746l-0.649-0.001l0.052-46.84l-14.884,12.251l-0.037,33.086
	l-60.223-0.067l0.021-18.588l-29.803,9.53c0-3.507,0-7.011,0-10.31l5.27-1.478l0.015-13.608c-0.185-0.011-5.285-0.14-5.285-0.14
	c0-0.944,0-1.716,0-2.276h5.288l0.001-1.053c2.276,0.002,17.048,0.015,17.057,0.015c7.003,2.309,13.772-4.37,11.695-11.338
	c0.004-10.163,0.007-19.836,0.011-29.999c0.201-0.872,0.309-1.692,0.348-2.468l7.376-6.007l0.108-97.398l11.912-14.857l0.007-5.948
	l15.242,0.017c-0.027,24.685-0.098,88.105-0.098,88.105l10.024,11.907l-0.029,26.456l35.714-23.071l0.015-13.346l0.105-94.461
	l10.425-14.859l0.012-11.152l17.844,0.02l-0.035,31.379l10.396,11.577l-0.024,21.148l9.654,10.75l-0.058,52.306l17.952-19.413
	l0.057-51.096l-14.2-11.885l0.02-18.473l0-0.245l0,0l20.673-7.537l9.822-3.581l11.896,0.013l-0.059,52.788l13.395-10.394
	l0.047-42.379l16.922,0.019l-0.075,67.936l15.689,14.699L528.227,329.871z M481.067,366.119l-0.303-48.01l-15.211-12.655
	l0.515,72.873L481.067,366.119z M580.394,375.407h-6.778l-0.002,1.395l-0.001,0.604l-18.972,11.728l-0.026,23.42l17.645,0.02
	c4.107-9.801,7.693-19.873,10.748-30.173l-2.615-1.328V375.407z M116.399,331.978L126.756,342v-41.758l-10.356-7.015V331.978z
	 M68.461,278.193l-11.859,7.97v37.798l11.859-10.022V278.193z M83.327,221.326L83.327,221.326l-5.846,4.252v36.246l5.846-4.009
	V221.326z M93.132,369.358l-3.248,6.717H65.287v-15.033h-5.999l10.676-11.692v-14.699l-22.717,26.391v15.033H37.061v-16.228
	L25.368,369.87v5.538H10.286c0.726,2.688,1.487,5.361,2.285,8.018h80.56C93.132,378.067,93.132,373.216,93.132,369.358z
	 M105.041,241.78l9.02-7.015v32.405l9.688-10.022V217.56H95.353v55.956l9.688,10.022V241.78z M140.051,430.225l12.53,0.047
	c0.711,0.003,1.008-0.909,0.43-1.325l-10.164-7.327c-0.678-0.489-0.138-1.549,0.656-1.288l11.902,3.917
	c0.676,0.222,1.239-0.553,0.819-1.127l-7.403-10.109c-0.494-0.674,0.348-1.516,1.022-1.022l10.109,7.403
	c0.574,0.42,1.349-0.143,1.127-0.819l-3.917-11.902c-0.261-0.794,0.799-1.335,1.288-0.656l7.326,10.164
	c0.416,0.577,1.327,0.281,1.325-0.43l-0.047-12.53c-0.003-0.836,1.173-1.022,1.428-0.226l3.827,11.931
	c0.217,0.677,1.176,0.677,1.393,0l3.827-11.931c0.255-0.796,1.431-0.61,1.428,0.226l-0.047,12.53
	c-0.003,0.711,0.909,1.007,1.325,0.43l7.327-10.164c0.489-0.678,1.549-0.138,1.288,0.656l-3.917,11.902
	c-0.222,0.676,0.553,1.239,1.127,0.819l10.109-7.403c0.675-0.494,1.516,0.348,1.022,1.022l-7.403,10.109
	c-0.42,0.574,0.143,1.349,0.819,1.127l1.391-0.458c3.298-10.003,12.704-17.231,23.812-17.231h9.813l-0.007,6.374l17.1,0.019
	l12.001-3.838c0-7.01,0-13.043,0-13.382h-25.202c-0.265,0-0.526-0.019-0.786-0.042l-97.784-0.157v2.632v10.643
	c0,3.628-2.968,6.596-6.596,6.596h-18.028c0,7.512,0,15.024,0,22.536c13.194-1.622,26.534-3.104,39.598-4.334l-6.095-1.955
	C139.029,431.397,139.215,430.221,140.051,430.225z M97.305,354.469c0.773-0.265,1.597-0.397,2.422-0.397l0,0
	c2.028,0.001,4.053,0.809,5.314,2.415v-19.164l-9.02,8.018v9.731c0.231-0.139,0.467-0.27,0.715-0.38
	C96.922,354.609,97.112,354.535,97.305,354.469z M220.296,383.425v-7.35h-19.711v-35.551l19.711,12.039v-1.702
	c0-4.36,2.492-7.114,5.643-8.272L202.255,326.8v-6.013l-24.554-18.04v-6.514l-7.516-5.539l0,0v31.262l20.044,12.242v15.485
	L177.2,364.717v11.358h-46.254v7.35H220.296z M238.736,371.453c0,0.711,0.146,1.384,0.379,2.015l4.495,2.607h-2.566
	c0.983,0.753,2.198,1.218,3.532,1.218h10.142c0-0.96,0-2.046,0-3.219l-15.982-9.88V371.453z M106.323,402.215h7.255
	c2.307,0,4.177-1.87,4.177-4.177v-2.503h-11.432C106.323,399.209,106.323,401.789,106.323,402.215z M117.755,383.425v-7.35h-11.432
	c0,2.398,0,4.892,0,7.35H117.755z M93.132,395.535c0,18.426,0,38.336,0,44.081c-18.629,2.432-36.663,5.07-52.861,7.589
	c-3.685-6.327-7.145-12.8-10.365-19.412c7.72,0,15.44,0,23.159,0c10.02,0,10.037-15.573,0-15.573c-10.065,0-20.129,0-30.194,0
	c-2.288-5.48-4.41-11.045-6.374-16.685H93.132z M75.212,412.219c-10.02,0-10.037,15.573,0,15.573
	C85.232,427.792,85.248,412.219,75.212,412.219z"></path>
<path id="color_x5F_2" fill="#FBC02D" d="M282.18,38.31c-4.833,0-8.75-3.918-8.75-8.75c0-4.833,3.917-8.75,8.75-8.75h30.917
	c4.832,0,8.75,3.917,8.75,8.75c0,4.832-3.918,8.75-8.75,8.75H282.18z M376.578,58.099c0-4.833-3.918-8.75-8.75-8.75h-79.333
	c-4.833,0-8.75,3.917-8.75,8.75s3.917,8.75,8.75,8.75h79.333C372.66,66.849,376.578,62.932,376.578,58.099z M595.128,288.641h-54.13
	l-0.021,18.705l3.25,3.443h11.667v-11.667l8.167-5.833h15.167v16.917l6.417,5.833v34.435h4.955
	c3.072-17.148,4.677-34.805,4.677-52.837C595.276,294.627,595.217,291.63,595.128,288.641z M533.596,160.879H502.68
	c-4.832,0-8.75,3.918-8.75,8.75c0,4.832,3.918,8.75,8.75,8.75h30.917c4.832,0,8.75-3.918,8.75-8.75
	C542.346,164.796,538.429,160.879,533.596,160.879z M430.828,73.989h-119c-4.832,0-8.75,3.917-8.75,8.75
	c0,4.832,3.918,8.75,8.75,8.75h119c4.832,0,8.75-3.918,8.75-8.75C439.578,77.907,435.66,73.989,430.828,73.989z M0,297.638
	c0,11.166,0.636,22.181,1.833,33.028l18.56-9.959V307.29l18.083-8.75h9.105v-5.232H0.055C0.034,294.75,0,296.19,0,297.638z
	 M550.411,245.747c0,4.833,3.918,8.75,8.75,8.75h32.991c-0.855-5.89-1.872-11.727-3.067-17.5h-29.924
	C554.329,236.997,550.411,240.915,550.411,245.747z M390.465,198.351l7.894-11.25l0.003-2.293h-21.969
	C381.429,188.95,386.137,193.477,390.465,198.351z M445.382,184.808h-8.5l3.112,2.34l-0.017,14.87l20.673-7.537
	C457.935,188.767,452.128,184.808,445.382,184.808z M459.382,161.474H332.147c-10.955-3.174-22.53-4.888-34.51-4.888
	c-34.793,0-66.231,14.328-88.761,37.396c-9.816,0-106.495,0.159-106.495,0.159c-14.497,0-26.25-11.753-26.25-26.25v0
	c0-14.498,11.753-26.25,26.25-26.25h100.333c2.899,0,5.25-2.351,5.25-5.25c0-2.9-2.351-5.25-5.25-5.25h-39.667
	c-8.054,0-14.583-6.529-14.583-14.583c0-8.054,6.529-14.583,14.583-14.583h215.25c5.799,0,10.5,4.701,10.5,10.5
	c0,5.799,4.701,10.5,10.5,10.5h60.083c10.632,0,19.25,8.619,19.25,19.25v0C478.632,152.856,470.013,161.474,459.382,161.474z
	 M225.11,174.232c-0.992-1.527-2.181-2.936-3.625-4.055c-6.036-5.33-13.143,0.219-13.258,0.104
	c-1.117-1.117-4.641-2.549-6.407-2.549c-7.386,0-9.195,4.529-10.477,6.501c2.435-2.352,5.697-3.698,9.296-3.698
	c3.474,0,7.665,5.102,7.834,5.109c0,0,3.684-5.109,7.34-5.109C219.414,170.535,222.675,171.881,225.11,174.232z M255.909,159.907
	c-0.626-0.964-1.377-1.854-2.289-2.561c-3.811-3.366-8.299,0.138-8.372,0.065c-0.705-0.705-2.931-1.609-4.045-1.609
	c-4.664,0-5.806,2.86-6.615,4.105c1.538-1.485,3.597-2.335,5.87-2.335c2.194,0,4.84,3.222,4.947,3.226c0,0,2.326-3.226,4.635-3.226
	C252.312,157.572,254.372,158.422,255.909,159.907z M60.411,232.116L60.411,232.116c0-4.833-3.918-8.75-8.75-8.75H9.343
	c-1.481,5.765-2.773,11.605-3.912,17.5h46.23C56.494,240.866,60.411,236.949,60.411,232.116z M560.43,217.152
	c0,4.833,3.918,8.75,8.75,8.75h17.372c-1.461-5.903-3.086-11.742-4.893-17.5H569.18C564.347,208.402,560.43,212.319,560.43,217.152z
	 M247.37,49.669h-30.917c-4.832,0-8.75,3.917-8.75,8.75s3.918,8.75,8.75,8.75h30.917c4.832,0,8.75-3.917,8.75-8.75
	S252.202,49.669,247.37,49.669z M52.536,200.777c4.832,0,8.75-3.918,8.75-8.75c0-4.833-3.918-8.75-8.75-8.75H22.78
	c-2.185,5.246-4.219,10.571-6.107,15.964c1.408,0.967,3.11,1.536,4.948,1.536H52.536z M532.299,235.558
	c0-5.891-3.015-11.074-7.583-14.103l-0.031,28.225C529.269,246.654,532.299,241.462,532.299,235.558z M158.659,246.624v15.166
	h16.346c0.916-5.978,2.248-11.817,3.984-17.482h-23.278L158.659,246.624z"></path>
<path id="color_x5F_1" fill="#0984E3" d="M355.906,253.108h31.97l-0.015,14h-25.875l-6.084-10.165L355.906,253.108z
	 M595.128,288.641h-54.13l0.015-13.649l-16.341-14.888l0.011-10.424c4.585-3.026,7.615-8.218,7.615-14.122
	c0-5.891-3.015-11.074-7.583-14.103l0.015-13.395l-11.877-17.114l-0.178,0l-42.201-0.047l-9.822,3.581
	c-2.716-5.713-8.523-9.672-15.27-9.672h-8.5l-11.745-8.829l-26.766-0.03l-0.01,8.859h-21.969c-3.187-2.621-6.503-5.09-9.944-7.388
	h-40.971c-2.255,0-4.083-1.828-4.083-4.083c0-2.255,1.828-4.083,4.083-4.083h26.782c-6.412-3.15-13.137-5.758-20.112-7.779h127.234
	c10.632,0,19.25-8.618,19.25-19.25v0c0-10.632-8.618-19.25-19.25-19.25h-60.083c-5.799,0-10.5-4.701-10.5-10.5
	c0-5.799-4.701-10.5-10.5-10.5h-215.25c-8.054,0-14.583,6.529-14.583,14.583c0,8.054,6.529,14.583,14.583,14.583h39.667
	c2.899,0,5.25,2.35,5.25,5.25c0,2.899-2.351,5.25-5.25,5.25H102.382c-14.497,0-26.25,11.752-26.25,26.25v0
	c0,14.497,11.753,26.25,26.25,26.25c0,0,96.679-0.159,106.495-0.159c-4.996,5.115-9.559,10.654-13.618,16.568h73.635
	c3.866,0,7,3.134,7,7v0c0,3.866-3.134,7-7,7h-81.952c-1.46,2.874-2.803,5.818-4.041,8.815h38.937c1.933,0,3.5,1.567,3.5,3.5
	c0,1.933-1.567,3.5-3.5,3.5h-41.584c-0.447,1.303-0.86,2.621-1.265,3.943h-23.278l-11.083-8.708V217.56H88.505l-11.024,8.018v14.532
	l-9.02,7.016v31.068l-20.879,14.031v1.083H0.055c0.256-17.908,2.091-35.432,5.377-52.442h46.23c4.832,0,8.75-3.917,8.75-8.75v0
	c0-4.832-3.918-8.75-8.75-8.75H9.343c2.103-8.186,4.564-16.227,7.329-24.124c1.408,0.967,3.11,1.536,4.948,1.536h30.917
	c4.832,0,8.75-3.918,8.75-8.75c0-4.833-3.918-8.75-8.75-8.75H22.78C67.608,75.66,173.781,0,297.638,0
	c133.291,0,246.109,87.62,284.02,208.402H569.18c-4.832,0-8.75,3.917-8.75,8.75c0,4.833,3.918,8.75,8.75,8.75h17.372
	c0.909,3.674,1.763,7.369,2.534,11.095h-29.924c-4.832,0-8.75,3.918-8.75,8.75c0,4.833,3.918,8.75,8.75,8.75h32.991
	C593.778,265.69,594.785,277.081,595.128,288.641z M256.12,58.419c0-4.833-3.918-8.75-8.75-8.75h-30.917
	c-4.832,0-8.75,3.917-8.75,8.75s3.918,8.75,8.75,8.75h30.917C252.202,67.169,256.12,63.252,256.12,58.419z M282.18,38.31h30.917
	c4.832,0,8.75-3.918,8.75-8.75c0-4.833-3.918-8.75-8.75-8.75H282.18c-4.833,0-8.75,3.917-8.75,8.75
	C273.43,34.393,277.347,38.31,282.18,38.31z M288.495,66.849h79.333c4.832,0,8.75-3.917,8.75-8.75s-3.918-8.75-8.75-8.75h-79.333
	c-4.833,0-8.75,3.917-8.75,8.75S283.662,66.849,288.495,66.849z M439.578,82.739c0-4.833-3.918-8.75-8.75-8.75h-119
	c-4.832,0-8.75,3.917-8.75,8.75c0,4.832,3.918,8.75,8.75,8.75h119C435.66,91.489,439.578,87.572,439.578,82.739z M542.346,169.629
	c0-4.832-3.918-8.75-8.75-8.75H502.68c-4.832,0-8.75,3.918-8.75,8.75c0,4.832,3.918,8.75,8.75,8.75h30.917
	C538.429,178.379,542.346,174.461,542.346,169.629z M585.644,353.269l3.708,3.708c0.437-2.16,0.856-4.327,1.246-6.503h-4.955
	V353.269z"></path>
</svg>