<?xml version="1.0" standalone="no"?>
<svg version="1.1" id="Layer_1" xmlns="http://www.w3.org/2000/svg" xmlns:xlink="http://www.w3.org/1999/xlink" x="0px" y="0px" viewBox="0 0 595.276 595.276" enable-background="new 0 0 595.276 595.276" xml:space="preserve">
<path id="color_x5F_9" fill="#BF7A53" d="M494.658,342.21l0.899,5.332h-3.712l-0.363-2.156L494.658,342.21z M443.331,295.782
	v26.423c0.792-0.147,1.605-0.233,2.439-0.233v16.405l2.191-2.191c0.208-0.208,0.428-0.393,0.646-0.584V292.54
	C447.232,294.1,445.406,295.246,443.331,295.782z M489.11,309.288c-0.659,1.442-1.761,2.637-3.137,3.406l4.465,26.49
	c1.397,0.113,2.766,0.598,3.956,1.45L489.11,309.288z M398.988,323.856c-2.451-2.419-3.83-5.719-3.83-9.162v-10.529
	c-1.12,1.271-2.606,2.204-4.297,2.641v9.715c0,3.413,1.355,6.687,3.768,9.101l0.123,0.123c0.68,0.68,1.266,1.435,1.771,2.236
	c0.981-0.309,2.025-0.478,3.109-0.478v12.735l1.701-1.701c0.463-0.463,0.962-0.867,1.484-1.223v-4.296
	C402.818,329.575,401.439,326.275,398.988,323.856L398.988,323.856z M522.585,292.566v-16.285c-1.732,1.965-4.031,3.409-6.646,4.084
	v15.028c0,5.28,2.097,10.343,5.829,14.077l0.19,0.19c3.732,3.734,5.829,8.797,5.829,14.077v11.84
	c2.261,0.244,4.457,1.227,6.191,2.96l-6.191,6.191v2.835c1.292,0.051,2.526,0.328,3.654,0.811h2.992v-0.273v-27.192
	c0-5.326-2.134-10.43-5.924-14.171C524.719,302.996,522.585,297.892,522.585,292.566z M568.323,322.367
	c-2.567-2.534-4.012-5.991-4.012-9.598v-11.029c-1.173,1.331-2.73,2.309-4.501,2.766v10.177c0,3.576,1.42,7.005,3.948,9.534
	l0.129,0.129c2.528,2.529,3.948,5.958,3.948,9.534v20.477h4.501v-22.392C572.335,328.358,570.89,324.901,568.323,322.367z"></path>
<path id="color_x5F_8" fill="#529944" d="M351.773,379.866c0.03,0.05,0.068,0.094,0.098,0.145h-16.42l5.113-5.113h2.405
	C346.706,374.898,349.963,376.893,351.773,379.866z M361.046,347.091h-1.701l-3.651,3.651l3.615,3.615h9.037
	C368.327,350.341,365.067,347.091,361.046,347.091z M544.313,340.933v1.844l3.958,3.958l3.958-3.958v-9.759
	C547.857,333.017,544.313,336.561,544.313,340.933z M322.931,365.189v2.405l5.165,5.165l5.164-5.165V354.86
	C327.556,354.86,322.931,359.485,322.931,365.189z M245.514,480.133c-0.947,0.002-1.891,0.115-2.808,0.33
	c-0.385,0.09-0.766,0.193-1.138,0.321c-0.318,0.109-0.631,0.232-0.937,0.368c-0.424,0.189-0.829,0.414-1.224,0.655
	c-1.886,1.152-3.408,2.893-4.17,5.242c-0.109,0.335-0.2,0.685-0.276,1.045c-0.005,0.021-0.012,0.04-0.016,0.061
	c-0.159,0.765-0.244,1.584-0.244,2.459c0,14.294,0,84.521,0,97.972c3.595,0.774,7.209,1.498,10.852,2.141V480.131h0
	C245.54,480.131,245.527,480.133,245.514,480.133z M397.311,275.715v-10.606c-4.751,0-8.603,3.852-8.603,8.603v2.004l4.301,4.301
	L397.311,275.715z M380.622,290.4h2.004l4.301-4.301l-4.301-4.301h-10.606C372.019,286.548,375.871,290.4,380.622,290.4z
	 M219.267,418.874v1.825l3.918,3.918l3.918-3.918v-9.661C222.776,411.038,219.267,414.546,219.267,418.874z M414,290.4
	c0-4.751-3.851-8.603-8.603-8.603h-2.003l-4.301,4.301l4.301,4.301H414z M395.158,304.166c1.336-1.516,2.153-3.5,2.153-5.68v-2.003
	l-4.301-4.301l-4.301,4.301v10.606h0c0.745,0,1.464-0.105,2.153-0.283C392.552,306.37,394.038,305.437,395.158,304.166z
	 M138.295,428.46c0,0.159,0,0.327,0,0.487c0,10.39,0,45.489,0,49.442h-16.779c-2.486,0-4.502-2.016-4.502-4.502v-30.694
	c0-1.655-0.275-3.132-0.758-4.441c-3.64-9.876-19.386-9.883-23.028,0c-0.85,2.307-1.056,5.141-0.276,8.528
	c0,1.452,0.001,2.874,0.001,4.313c0.002,5.089,0.011,28.69,0.013,35.634c-2.766,9.278,6.247,18.172,15.572,15.097
	c10.145-0.009,19.807-0.017,29.756-0.026c0,16.153,0,32.322,0,46.76c4.028,2.558,8.121,5.022,12.278,7.389V416.6v0
	C144.434,416.597,138.295,420.547,138.295,428.46z M466.231,348.374h-4.039c-0.304-0.094-0.617-0.167-0.93-0.239
	c-0.961-0.22-1.956-0.348-2.984-0.348h-3.099l-6.571,6.571h22.708l2.025-2.025l-3.958-3.958H466.231z M389.304,337.832v2.406
	l5.165,5.165l5.164-5.164v-12.735c-1.084,0-2.127,0.169-3.109,0.478C392.339,329.301,389.304,333.212,389.304,337.832z
	 M302.893,374.898l0,0.056c0.014,2.421,1.795,4.392,4.081,4.912c0.383,0.087,13.767,0.145,13.767,0.145l-5.113-5.113H302.893z
	 M534.433,348.374h-2.992c-1.128-0.483-2.362-0.761-3.654-0.811c-0.137-0.005-2.814-0.021-2.814-0.021l-5.164,5.164l1.651,1.651
	h19.188l2.025-2.025l-3.958-3.958H534.433z M239.623,428.202c-1.377-1.214-3.172-1.962-5.154-1.962h-1.825l-3.879,3.879h12.457
	C240.797,429.393,240.249,428.754,239.623,428.202z M204.065,426.24l0,0.043c0.012,2.145,1.848,3.836,3.993,3.836h9.547
	l-3.879-3.879H204.065z M341.751,354.357l3.615-3.615l-3.651-3.651h-9.003c0,3.794,2.894,6.91,6.594,7.267H341.751z
	 M232.771,377.131h-7.174l0,0.032c0.007,1.287,0.904,2.342,2.087,2.704c0.281,0.086,0.573,0.145,0.878,0.145h7.09L232.771,377.131z
	 M291.553,376.109h-1.836l-3.903,3.902h12.533c-0.029-0.051-0.067-0.095-0.098-0.145
	C296.863,377.616,294.39,376.109,291.553,376.109z M276.258,368.698v1.836l3.942,3.942l3.942-3.942v-9.72
	C279.788,360.814,276.258,364.344,276.258,368.698z M248.175,377.131h-1.355l-2.88,2.88h9.25c-0.03-0.051-0.067-0.095-0.098-0.145
	C252.064,378.227,250.253,377.131,248.175,377.131z M242.705,373.016v-4.933v-2.242c-1.857,0-3.493,0.887-4.558,2.242
	c-0.778,0.99-1.261,2.221-1.261,3.577v1.355l2.91,2.91L242.705,373.016z M260.963,376.109l0,0.043c0.01,1.806,1.312,3.278,3,3.715
	c0.329,0.085,10.623,0.145,10.623,0.145l-3.903-3.902H260.963z M559.67,348.374h-1.844l-3.958,3.958l2.025,2.025h11.445
	C566.475,350.922,563.374,348.374,559.67,348.374z M500.101,254.988h3.099l6.653-6.653l-6.653-6.653h-16.405
	c0,1.881,0.395,3.668,1.099,5.29C489.94,251.687,494.633,254.988,500.101,254.988z M369.266,347.542c0,2.615,0.98,4.996,2.582,6.815
	h13.666l1.651-1.651L382,347.542H369.266z M551.729,254.988c0-7.349-5.957-13.306-13.306-13.306h-3.099l-6.653,6.653l6.653,6.653
	H551.729z M411.56,347.787c-0.715-0.157-1.456-0.245-2.218-0.245h-2.406l-0.245,0.245h-0.043c0,0.014,0.002,0.027,0.002,0.041
	l-4.879,4.879l1.651,1.651h26.202l-6.571-6.571H411.56z M507.341,337.832v2.406l5.164,5.164l5.165-5.165v-12.735
	C511.965,327.503,507.341,332.128,507.341,337.832z M489.11,309.288c0.429-0.94,0.675-1.981,0.675-3.081v-1.731l-3.715-3.715
	l-3.716,3.715v9.161c1.315,0,2.547-0.344,3.619-0.943C487.349,311.925,488.451,310.73,489.11,309.288z M551.182,287.32l4.506-4.506
	l-4.506-4.506h-11.111c0,0.049,0.007,0.097,0.007,0.147c0.079,4.909,4.077,8.865,9.004,8.865H551.182z M559.809,304.507
	c1.771-0.457,3.328-1.435,4.501-2.766c1.4-1.588,2.255-3.667,2.255-5.95v-2.099l-4.506-4.506l-4.506,4.506v11.111l0,0
	C558.334,304.803,559.087,304.693,559.809,304.507z M566.566,271.936v-11.111c-4.849,0-8.792,3.832-8.993,8.632
	c-0.005,0.127-0.019,0.252-0.019,0.38v2.099l4.506,4.506L566.566,271.936z M525.915,232.273v-16.405
	c-7.349,0-13.307,5.957-13.307,13.306v3.099l6.653,6.653L525.915,232.273z M475.369,299.222h1.731l3.715-3.715l-3.715-3.715h-9.161
	C467.938,295.895,471.265,299.222,475.369,299.222z M515.939,280.365c2.615-0.675,4.914-2.119,6.646-4.084
	c1.547-1.755,2.64-3.916,3.091-6.309c0.151-0.803,0.239-5.575,0.239-5.575l-6.653-6.653l-6.653,6.653v16.405h0
	C513.761,280.802,514.873,280.641,515.939,280.365z M351.678,333.374c-2.582,0.944-4.485,3.297-4.762,6.134
	c-0.023,0.236-0.036,0.476-0.036,0.718v1.701l3.651,3.651l3.651-3.651v-9.003c-0.199,0-0.394,0.014-0.589,0.03
	C352.924,333.007,352.283,333.152,351.678,333.374z M575.037,278.308h-2.099l-4.506,4.506l4.506,4.506h11.111
	C584.049,282.343,580.014,278.308,575.037,278.308z M491.845,347.542h-2.519l-4.79,4.79l2.025,2.025h16.989l1.651-1.651
	l-5.164-5.164H491.845z M451.25,283.105l-5.282-5.282l-5.282,5.282v13.024l0,0c0.915,0,1.797-0.128,2.644-0.347
	c2.076-0.536,3.901-1.682,5.276-3.242c1.64-1.861,2.644-4.298,2.644-6.974V283.105z M438.499,270.354l-5.282-5.282h-13.024
	c0,5.834,4.729,10.564,10.564,10.564h2.46L438.499,270.354z M471.744,275.635c0-5.834-4.73-10.564-10.564-10.564h-2.46l-5.282,5.282
	l5.282,5.282H471.744z M451.25,257.602v-13.024c-5.834,0-10.564,4.73-10.564,10.564v2.46l5.282,5.282L451.25,257.602z
	 M432.464,335.279v3.099l6.653,6.653l6.653-6.653v-16.405c-0.834,0-1.647,0.086-2.439,0.233
	C437.148,323.353,432.464,328.764,432.464,335.279z M474.98,340.933v1.844l3.958,3.958l3.958-3.958v-9.759
	C478.525,333.017,474.98,336.561,474.98,340.933z M496.77,291.791h-1.731l-3.715,3.716l3.715,3.715h9.162
	C504.201,295.118,500.874,291.791,496.77,291.791z M489.785,286.537v-9.161c-4.104,0-7.431,3.327-7.431,7.431v1.731l3.716,3.715
	L489.785,286.537z"></path>
<path id="color_x5F_7" fill="#6FBE44" d="M494.393,340.634c0.35,0.25,0.688,0.524,1.002,0.838l-10.859,10.859l2.025,2.025
	h-15.246l2.025-2.025l-5.262-5.262c-3.091-3.091-3.091-8.104,0-11.195l10.859,10.859l5.262-5.262
	c1.709-1.708,4.004-2.468,6.237-2.288C491.834,339.297,493.203,339.783,494.393,340.634z M448.607,335.603
	c-0.217,0.191-9.49,9.428-9.49,9.428l-18.254-18.253c-5.188,5.188-5.195,13.595-0.022,18.793c0.008,0.008,0.014,0.017,0.022,0.025
	l8.762,8.762h18.983l18.171-18.171C461.79,331.197,453.833,331.012,448.607,335.603z M402.818,337.314
	c-0.521,0.357-8.349,8.089-8.349,8.089l-14.169-14.169c-2.955,2.955-3.736,7.251-2.362,10.926c0.502,1.342,1.283,2.603,2.362,3.682
	l6.866,6.866l-1.651,1.651h17.91l-1.651-1.651c0,0,4.877-4.906,4.877-4.92l9.292-9.25
	C412.371,334.966,406.84,334.563,402.818,337.314z M355.875,340.281c-0.168,0.14-5.345,5.297-5.345,5.297l-10.018-10.017
	c-0.929,0.929-1.55,2.048-1.874,3.231c-0.67,2.447-0.049,5.174,1.874,7.097l4.854,4.854l-3.615,3.615h17.558l-3.615-3.615
	l9.649-9.649l0.369-0.369C363.017,338.03,358.744,337.885,355.875,340.281z M291.324,518.946
	c-5.916-2.887-14.568-0.503-15.918,7.172c-0.117,0.668-0.191,1.367-0.191,2.115v24.236c0,3.796-3.077,6.873-6.873,6.873h-11.937
	c0-3.362,0-63.583,0-67.047c0-0.708,0-1.277,0-1.682c0-6.983-5.426-10.48-10.852-10.483v110.595
	c3.594,0.634,7.215,1.188,10.852,1.693c0-3.791,0-7.582,0-11.373h29.662c5.969,0,10.852-4.883,10.852-10.852v-41.96
	C296.918,523.597,294.52,520.506,291.324,518.946z M424.008,284.845L424.008,284.845c4.125,4.125,10.814,4.125,14.939,0l7.021-7.022
	l14.491,14.491c4.125-4.125,4.125-10.814,0-14.939l-7.021-7.022l14.491-14.491c-4.125-4.126-10.814-4.126-14.939,0l-7.022,7.022
	l-14.491-14.491c-4.126,4.125-4.126,10.814,0,14.939l7.022,7.022L424.008,284.845z M270.683,376.109l3.903,3.902h11.228
	l10.776-10.776c-3.079-3.079-8.07-3.079-11.149,0l-5.24,5.24l-10.815-10.815c-3.079,3.079-3.079,8.071,0,11.149L270.683,376.109z
	 M519.371,338.537l-6.866,6.865l-14.169-14.169c-4.034,4.034-4.034,10.574,0,14.607l6.865,6.866l-1.651,1.651h17.91l-1.651-1.651
	l14.169-14.169c-1.733-1.733-3.93-2.717-6.191-2.96C524.786,335.253,521.671,336.237,519.371,338.537z M228.394,419.408
	l-5.208,5.208l-10.749-10.749c-3.06,3.06-3.06,8.022,0,11.082l5.169,5.169h11.16l10.71-10.71
	C236.415,416.348,231.454,416.348,228.394,419.408z M387.292,297.9l5.718-5.718l11.801,11.801c3.359-3.36,3.359-8.806,0-12.166
	l-5.718-5.718l11.801-11.801c-3.36-3.359-8.806-3.359-12.166,0l-5.718,5.718l-11.801-11.801c-3.359,3.359-3.359,8.806,0,12.166
	l5.718,5.718L375.126,297.9v0C378.485,301.259,383.932,301.259,387.292,297.9z M553.533,341.473l-5.262,5.262l-10.859-10.859
	c-3.091,3.091-3.091,8.104,0,11.195l5.261,5.262l-2.025,2.025h15.246l-2.025-2.025l3.958-3.958l2.217-2.217l4.685-4.684
	C561.636,338.381,556.624,338.381,553.533,341.473z M470.621,305.7L470.621,305.7c2.902,2.902,7.607,2.902,10.509,0l1.224-1.224
	l3.716-3.715l3.715,3.715l6.478,6.478c2.902-2.902,2.902-7.607,0-10.509l-1.224-1.224l-3.715-3.715l3.715-3.716l6.478-6.478
	c-2.902-2.902-7.607-2.902-10.509,0l-1.224,1.224l-3.715,3.716l-3.716-3.715l-6.478-6.478c-2.902,2.902-2.902,7.607,0,10.509
	l1.224,1.224l3.715,3.715l-3.715,3.715L470.621,305.7z M568.432,282.814l12.362-12.362c-3.519-3.519-9.225-3.519-12.745,0
	l-5.99,5.99l-12.362-12.362c-3.519,3.519-3.519,9.225,0,12.744l5.99,5.99l-12.362,12.362l0,0c3.519,3.519,9.225,3.519,12.745,0
	l5.99-5.99l12.362,12.362c0.883-0.883,1.544-1.905,1.984-2.995c1.313-3.252,0.652-7.114-1.984-9.75L568.432,282.814z
	 M184.131,471.023v27.42c0,0.079-0.01,0.155-0.012,0.233c-0.124,4.186-3.548,7.543-7.764,7.543H162.85c0-2.122,0-69.587,0-77.271
	c0-0.168,0-0.351,0-0.487c0-7.9-6.139-11.857-12.278-11.86v139.848c4.035,2.298,8.127,4.507,12.278,6.619c0-6.167,0-27.697,0-32.294
	h33.559c6.753,0,12.278-5.525,12.278-12.278v-47.473C208.686,455.223,184.131,455.197,184.131,471.023z M491.599,266.588
	L491.599,266.588c5.197,5.196,13.622,5.196,18.818,0l8.844-8.845l18.253,18.253c5.197-5.196,5.197-13.621,0-18.818l-8.844-8.844
	l18.253-18.254c-5.196-5.197-13.621-5.197-18.818,0l-8.844,8.844l-18.253-18.253c-5.196,5.196-5.196,13.622,0,18.818l8.844,8.844
	L491.599,266.588z M251.893,372.058c-2.273-2.273-5.957-2.273-8.23,0l-3.868,3.868l-7.842-7.842l-0.141-0.14
	c-0.044,0.044-0.073,0.096-0.115,0.14c-2.143,2.281-2.114,5.86,0.115,8.089l3.839,3.839h8.288L251.893,372.058z M334.961,365.894
	l-6.865,6.866l-14.169-14.169c-3.307,3.307-3.898,8.297-1.782,12.211c0.465,0.86,1.056,1.67,1.782,2.396l6.814,6.814h14.711
	l14.117-14.118C345.535,361.86,338.995,361.86,334.961,365.894z"></path>
<path id="color_x5F_6" fill="#FFD86B" d="M359.244,336.682c3.76,1.62,7.611,3.246,11.538,4.874
	c-1.808-0.153-3.617-0.307-5.439-0.462l0.369-0.369c-2.694-2.694-6.968-2.84-9.837-0.443c-0.564-0.048-1.128-0.097-1.693-0.146
	v-5.656C355.854,335.212,357.538,335.946,359.244,336.682z M450.386,497.712c-11.2,0-11.219,16.805,0,16.805
	C461.586,514.516,461.604,497.712,450.386,497.712z M183.508,352.457c-7.588,0-25.697,0-33.285,0c-5.215,0-5.206,8.091,0,8.091
	c7.588,0,25.697,0,33.285,0C188.723,360.548,188.715,352.457,183.508,352.457z M195.015,352.457c-5.215,0-5.206,8.091,0,8.091
	C200.23,360.548,200.221,352.457,195.015,352.457z M475.141,497.712c-11.2,0-11.219,16.805,0,16.805c8.772,0,17.544,0,26.315,0
	c5.729-5.386,11.256-10.984,16.543-16.805C503.714,497.712,489.427,497.712,475.141,497.712z M216.314,259.496
	c-15.418-8.812-26.707-13.547-36.658-12.23c1.364-0.031,23.405,10.655-8.162,20.276c-13.948,4.251-88.707,32.651-75.906,56.097
	c76.107,0.613,164.496,8.345,243.051,15.153c0.324-1.183,0.945-2.301,1.874-3.231l3.715,3.715c0.899,0.078,1.791,0.155,2.688,0.232
	c0.277-2.837,2.18-5.19,4.762-6.134c-37.364-16.526-66.277-32.462-89.239-46.048C243.492,276.116,228.593,266.514,216.314,259.496z
	 M73.089,438.753c-8.276,0-8.262,12.841,0,12.841C81.365,451.594,81.351,438.753,73.089,438.753z"></path>
<path id="color_x5F_5" fill="#FFD2BB" d="M78.928,412.817c-8.262,0-8.276-12.841,0-12.841
	C87.19,399.976,87.204,412.817,78.928,412.817z M92.966,487.228c-0.003-6.944-0.005-13.718-0.008-20.495H52.692
	c22.712,32.837,51.847,60.889,85.603,82.327c0-14.438,0-30.607,0-46.76c-9.949,0.009-19.611,0.017-29.756,0.026
	C99.213,505.4,90.2,496.506,92.966,487.228z M95.587,323.639c-12.801-23.445,61.958-51.846,75.906-56.097
	c31.567-9.621,9.526-20.307,8.162-20.276c-0.008,0-0.018-0.001-0.024,0c-6.18,0.824-20.37,5.381-39.323,12.23
	c-36.614,13.232-91.009,35.024-139.822,55.016c0.25,4.466,0.585,8.91,1.03,13.321c14.078-1.622,29.933-2.862,47.832-3.564
	C64.075,323.691,79.563,323.51,95.587,323.639z M60.666,399.976c-9.35,0-28.754,0-42.605,0c1.585,4.329,3.275,8.608,5.053,12.841
	c13.193,0,29.293,0,37.551,0C68.942,412.817,68.928,399.976,60.666,399.976z M117.014,473.888c0,2.486,2.015,4.502,4.502,4.502
	h16.779c0-3.954,0-7.846,0-11.656h-21.281V473.888z M291.324,518.946c0.194-3.971-2.047-8.111-6.743-8.111
	c-9.392,0-18.784,0-28.175,0c0,4.781,0,10.014,0,15.284c6.334,0,12.668,0,19.001,0C276.756,518.444,285.408,516.059,291.324,518.946
	z M305.696,526.119c9.835,0,9.851-15.284,0-15.284C295.862,510.835,295.846,526.119,305.696,526.119z M162.85,506.219h13.505
	c4.216,0,7.64-3.357,7.764-7.543H162.85C162.85,501.534,162.85,504.097,162.85,506.219z M275.215,552.47v-6.27h-18.81
	c0,5.2,0,9.78,0,13.142h11.937C272.138,559.342,275.215,556.265,275.215,552.47z M162.85,544.566c0,6.167,0,12.335,0,18.502
	c22.455,11.426,46.558,20.072,71.851,25.518c0-13.451,0-28.105,0-42.386h-66.96C165.904,546.2,164.215,545.588,162.85,544.566z
	 M362.123,574.247c-7.745,0-14.024-6.279-14.024-14.023S341.82,546.2,334.076,546.2h-37.157v23.994
	c0,5.969-4.883,10.852-10.852,10.852h-29.662c0,3.791,0,7.582,0,11.373c13.479,1.868,27.24,2.857,41.233,2.857
	c38.885,0,76.024-7.466,110.074-21.028H362.123z M158.986,207.16h9.034c2.261,0,4.094-1.833,4.094-4.094
	c0-2.261-1.833-4.094-4.094-4.094h-4.724c-1.739,0-3.149-1.41-3.149-3.149c0-1.403,0.924-2.578,2.192-2.985
	c-13.399-8.35-22.321-23.21-22.321-40.161c0-17.721,9.752-33.155,24.175-41.256h-0.582c-1.913,0-3.464-1.551-3.464-3.464
	s1.551-3.464,3.464-3.464h3.149c1.566,0,2.835-1.269,2.835-2.834c0-1.565-1.269-2.834-2.835-2.834h-8.973
	c-19.003,10.441-31.885,30.641-31.885,53.854c0,8.014,1.551,15.66,4.343,22.679C135.708,189.09,145.978,200.382,158.986,207.16z
	 M216.841,98.822h-4.731c-1.565,0-2.834,1.269-2.834,2.834v0.63c0,1.218,0.987,2.204,2.205,2.204c1.913,0,3.464,1.551,3.464,3.464
	s-1.551,3.464-3.464,3.464h-1.045c14.424,8.101,24.175,23.536,24.175,41.256c0,16.842-8.81,31.617-22.065,39.997h1.139
	c1.739,0,3.149,1.41,3.149,3.149c0,1.739-1.41,3.149-3.149,3.149c-2.087,0-3.779,1.692-3.779,3.779v0.315
	c0,2.261,1.833,4.094,4.094,4.094h1.643c13.008-6.777,23.277-18.069,28.741-31.805c2.463-6.193,3.956-12.874,4.272-19.867
	c0.042-0.933,0.071-1.869,0.071-2.812c0-8.542-1.748-16.675-4.899-24.066C238.415,115.916,228.851,105.421,216.841,98.822z"></path>
<path id="color_x5F_4" fill="#00CEC9" d="M113.984,377.138H95.285c-3.657,0-6.622,2.965-6.622,6.622
	c0,3.657-2.965,6.622-6.622,6.622H14.757c-3.329-10.159-6.13-20.556-8.362-31.163h107.589c4.948,0,8.96,4.011,8.96,8.959v0
	C122.943,373.127,118.932,377.138,113.984,377.138z M354.181,333.323v1.156c1.672,0.733,3.357,1.467,5.062,2.203
	C357.686,335.584,356.001,334.464,354.181,333.323z M475.141,514.516c8.772,0,17.544,0,26.315,0
	c-4.62,4.344-9.37,8.552-14.26,12.596H352.982c-8.29,0-15.011-6.495-15.011-14.507c0-8.012,6.721-14.507,15.011-14.507h54.441
	c1.658,0,3.002-1.299,3.002-2.901c0-1.602-1.344-2.901-3.002-2.901H256.405c0-0.708,0-1.277,0-1.682
	c0-6.983-5.426-10.48-10.852-10.483h0c-0.013,0-0.026,0.002-0.039,0.002c-0.947,0.002-1.891,0.115-2.808,0.33
	c-0.385,0.09-0.766,0.193-1.138,0.321c-0.318,0.109-0.631,0.232-0.937,0.368c-0.424,0.189-0.829,0.414-1.224,0.655
	c-1.886,1.152-3.408,2.893-4.17,5.242c-0.109,0.335-0.2,0.685-0.276,1.045c-3.487-5.418-0.337-14.154,8.935-14.154h29.216
	c2.259,0,4.09-1.831,4.09-4.09c0-2.259-1.831-4.09-4.09-4.09h-36.66c-6.217,0-12.128-2.249-17.155-5.908
	c-2.053-1.494-4.356-2.405-6.789-2.405h-40.001c-7.959,0-9.831-19.734,0.37-19.734h10.295c2.373,0,4.5-1.777,4.624-4.147
	c0.132-2.527-1.878-4.618-4.376-4.618h-20.57c0-0.168,0-0.351,0-0.487c0-7.9-6.139-11.857-12.278-11.86v0
	c-6.139-0.003-12.278,3.947-12.278,11.86c0,0.159,0,0.327,0,0.487h-7.756l-7.906,0.646c-5.637,0-10.208-4.417-10.208-9.865
	c0-5.448,4.57-9.865,10.208-9.865h27.97c7.959,0,14.411-6.235,14.411-13.927V382.01c0-7.692,6.452-13.927,14.411-13.927h52.273
	c-2.143,2.281-2.114,5.86,0.115,8.089l0.958,0.958h-7.174l0,0.032c0.007,1.287,0.904,2.342,2.087,2.704h-43.781
	c-7.343,0-13.953,4.998-15.412,12.194c-1.928,9.511,5.338,18.298,14.938,18.298h50.484c5.68,0,10.241,4.788,9.868,10.548
	c-0.196,3.033-1.815,5.633-4.158,7.296c-1.377-1.214-3.172-1.962-5.154-1.962h-1.825l6.831-6.831c-3.06-3.06-8.022-3.06-11.082,0
	l-1.29,1.29v-9.661c-4.328,0-7.836,3.508-7.836,7.836v1.825l-6.831-6.831c-3.06,3.06-3.06,8.022,0,11.082l1.29,1.29h-9.661l0,0.043
	c0.012,2.145,1.848,3.836,3.993,3.836l-0.93,0.019c-6.863,0-12.374,5.785-11.924,12.745c0.411,6.351,5.969,11.154,12.333,11.154
	h106.726c3.414,0,6.181,2.767,6.181,6.181v0c0,3.414-2.767,6.181-6.181,6.181h-16.07c-5.462,0-9.889,4.428-9.889,9.889
	c0,5.462,4.428,9.889,9.889,9.889h229.749c-3.219,3.928-6.53,7.778-9.942,11.534c-14.286,0-28.573,0-42.859,0
	C463.941,497.712,463.923,514.516,475.141,514.516z M450.386,497.712c-11.2,0-11.219,16.805,0,16.805
	C461.586,514.516,461.604,497.712,450.386,497.712z M91.351,438.753c-8.276,0-8.262,12.841,0,12.841c0.534,0,1.068,0,1.602,0
	c0-1.439-0.001-2.861-0.001-4.313c-0.78-3.387-0.574-6.221,0.276-8.528C92.602,438.753,91.977,438.753,91.351,438.753z
	 M353.592,332.954c-2.736-1.696-5.762-3.44-9.123-5.235c-54.801-29.268,58.644-72.56,77.643-78.351
	c37.72-11.496,11.379-24.264,9.752-24.227c-0.009,0-0.021-0.001-0.029,0c-18.076,2.41-93.479,31.536-169.397,62.185
	c22.962,13.585,51.875,29.522,89.239,46.048C352.283,333.152,352.924,333.007,353.592,332.954z M251.893,372.058l-5.073,5.073h1.355
	c2.078,0,3.89,1.096,4.917,2.736h10.871c-1.688-0.437-2.99-1.909-3-3.715l0-0.043h9.72l-1.298-1.298
	c-3.079-3.079-3.079-8.071,0-11.149l6.873,6.873v-1.836c0-4.354,3.53-7.884,7.884-7.884v9.72l1.298-1.298
	c3.079-3.079,8.071-3.079,11.149,0l-6.873,6.873h1.836c2.838,0,5.311,1.507,6.696,3.758h8.724c-2.286-0.52-4.067-2.491-4.081-4.912
	l0-0.056h12.735l-1.701-1.701c-0.727-0.727-1.317-1.536-1.782-2.396h-1.264c-4.502,0-8.428-3.469-8.563-7.969
	c-0.14-4.656,3.593-8.475,8.218-8.475h-51.942c-3.922,0-7.102,3.073-7.102,6.863c0,3.79-3.179,6.863-7.102,6.863h-1.686v4.933
	l0.958-0.958C245.936,369.785,249.62,369.785,251.893,372.058z M236.885,371.661c0-1.356,0.483-2.588,1.261-3.577h-6.193
	l4.933,4.933V371.661z M344.661,370.801l-4.097,4.097h2.405c3.737,0,6.994,1.994,8.803,4.968h0.968c2.454,0,4.654-1.838,4.783-4.289
	c0.137-2.614-1.942-4.776-4.526-4.776H344.661z M127.48,438.753c-3.742,0-7.483,0-11.225,0c0.482,1.309,0.758,2.786,0.758,4.441v8.4
	c3.489,0,6.978,0,10.467,0C135.757,451.594,135.743,438.753,127.48,438.753z"></path>
<path id="color_x5F_3" fill="#E84393" d="M346.879,340.226v1.701l-2.652-2.652c0.899,0.078,1.791,0.155,2.688,0.232
	C346.892,339.744,346.879,339.984,346.879,340.226z M354.181,340.135v1.792l1.203-1.203c0.158-0.158,0.323-0.303,0.491-0.443
	C355.311,340.233,354.746,340.184,354.181,340.135z M352.982,527.112h134.214c-23.689,19.59-50.464,35.576-79.484,47.135h-45.589
	c-7.745,0-14.024-6.279-14.024-14.023S341.82,546.2,334.076,546.2h-37.157v-17.966c0-4.637-2.398-7.728-5.595-9.288
	c0.194-3.971-2.047-8.111-6.743-8.111c-9.392,0-18.784,0-28.175,0c0-8.203,0-15.076,0-18.539h151.019
	c1.658,0,3.002,1.299,3.002,2.901c0,1.602-1.344,2.901-3.002,2.901h-54.441c-8.29,0-15.011,6.495-15.011,14.507
	C337.971,520.617,344.692,527.112,352.982,527.112z M305.696,510.835c-9.834,0-9.851,15.284,0,15.284
	C315.531,526.119,315.547,510.835,305.696,510.835z M489.326,347.542h2.519l-0.363-2.156L489.326,347.542z M576.406,298.554
	c-0.44,1.09-1.101,2.111-1.984,2.995l-7.856-7.856v2.099c0,2.283-0.856,4.362-2.255,5.95v11.029c0,3.607,1.445,7.064,4.012,9.598
	c2.567,2.534,4.012,5.991,4.012,9.598v22.392h17.519c2.902-15.04,4.672-30.481,5.218-46.236
	C588.597,304.888,582.371,301.695,576.406,298.554z M165.014,395.937c0,7.691-6.452,13.927-14.411,13.927h-27.97
	c-5.637,0-10.208,4.417-10.208,9.865c0,5.448,4.57,9.865,10.208,9.865l7.906-0.646h7.756c0,10.39,0,23.482,0,37.786h-21.281v-15.139
	c3.489,0,6.978,0,10.467,0c8.276,0,8.262-12.841,0-12.841c-3.742,0-7.483,0-11.225,0c-3.64-9.876-19.386-9.883-23.028,0
	c-0.626,0-1.251,0-1.877,0c-8.276,0-8.262,12.841,0,12.841c0.534,0,1.068,0,1.602,0c0.002,5.089,0.004,10.127,0.006,15.139H52.692
	c-11.622-16.803-21.569-34.85-29.578-53.916c13.193,0,29.293,0,37.551,0c8.276,0,8.262-12.841,0-12.841c-9.35,0-28.754,0-42.605,0
	c-1.161-3.17-2.249-6.374-3.304-9.593h67.284c3.657,0,6.622-2.965,6.622-6.622c0-3.657,2.965-6.622,6.622-6.622h18.698
	c4.948,0,8.96-4.011,8.96-8.959v0c0-4.948-4.011-8.959-8.96-8.959H6.395c-2.163-10.279-3.807-20.747-4.879-31.387
	c14.078-1.622,29.933-2.862,47.832-3.564c14.727-0.578,30.215-0.759,46.239-0.63c76.107,0.613,164.496,8.345,243.051,15.153
	c-0.67,2.447-0.049,5.174,1.874,7.097l1.203,1.203h-9.003c0,3.794,2.894,6.91,6.594,7.267h-80.712c-3.922,0-7.102,3.073-7.102,6.863
	c0,3.79-3.179,6.863-7.102,6.863h-1.686v-2.242c-1.857,0-3.493,0.887-4.558,2.242h-58.722c-7.959,0-14.411,6.235-14.411,13.927
	V395.937z M73.089,438.753c-8.276,0-8.262,12.841,0,12.841C81.365,451.594,81.351,438.753,73.089,438.753z M78.928,399.976
	c-8.276,0-8.262,12.841,0,12.841C87.204,412.817,87.19,399.976,78.928,399.976z M195.015,360.548c5.215,0,5.206-8.091,0-8.091
	C189.801,352.457,189.809,360.548,195.015,360.548z M183.508,360.548c5.215,0,5.206-8.091,0-8.091c-7.588,0-25.697,0-33.285,0
	c-5.215,0-5.206,8.091,0,8.091C157.811,360.548,175.92,360.548,183.508,360.548z M198.264,186.543
	c-1.31,0.423-2.215,1.618-2.215,2.995c0,1.731,1.403,3.134,3.134,3.134h13.363c13.255-8.38,22.065-23.155,22.065-39.997
	c0-17.721-9.752-33.155-24.175-41.256h-9.759c-2.208,0-3.998,1.79-3.998,3.998c0,1.682,1.052,3.187,2.635,3.754
	c13.749,4.924,23.588,18.062,23.588,33.505C222.902,168.51,212.56,181.925,198.264,186.543z M563.757,324.218
	c-2.528-2.529-3.948-5.958-3.948-9.534v-10.177c-0.722,0.186-1.475,0.296-2.255,0.296l0,0v-11.111l-1.484,1.484
	c-3.519,3.519-9.225,3.519-12.745,0l0,0l7.857-7.856h-2.099c-4.927,0-8.925-3.956-9.004-8.865c-5.021-2.91-9.81-5.738-14.403-8.483
	c-0.451,2.393-1.544,4.554-3.091,6.309v16.285c0,5.326,2.134,10.43,5.924,14.171c3.79,3.741,5.924,8.845,5.924,14.171v27.192v0.273
	h4.282l-1.303-1.304c-3.091-3.091-3.091-8.104,0-11.195l6.901,6.901v-1.844c0-4.372,3.544-7.916,7.916-7.916v9.759l1.304-1.303
	c3.092-3.091,8.104-3.091,11.195,0l-4.685,4.684l-2.217,2.217h1.844c3.704,0,6.805,2.548,7.669,5.983h0.495v-8.947v-11.53
	c0-3.576-1.42-7.005-3.948-9.534L563.757,324.218z M521.768,309.47c-3.733-3.734-5.829-8.797-5.829-14.077v-15.028
	c-1.066,0.275-2.178,0.437-3.33,0.437h0v-16.405l-2.191,2.191c-5.197,5.196-13.622,5.196-18.818,0l0,0l10.774-10.774
	c-0.453-0.278-0.898-0.551-1.346-0.826h-0.927c-5.468,0-10.161-3.301-12.207-8.016c-3.636-2.197-7.104-4.262-10.408-6.173
	c-6.419-3.713-12.242-6.856-17.611-9.349c-10.827-5.028-19.801-7.394-28.01-6.308c1.626-0.038,27.968,12.73-9.752,24.227
	c-18.999,5.79-132.445,49.082-77.643,78.351c3.361,1.795,6.387,3.538,9.123,5.235c0.195-0.016,0.391-0.03,0.589-0.03v0.399
	c1.819,1.141,3.505,2.261,5.062,3.359c3.76,1.62,7.611,3.246,11.538,4.874c-1.808-0.153-3.617-0.307-5.439-0.462l-5.997,5.998h1.701
	c4.021,0,7.281,3.25,7.301,7.267h3.501c-1.602-1.82-2.582-4.201-2.582-6.815H382l-1.701-1.701c-1.079-1.079-1.86-2.34-2.362-3.682
	c-1.374-3.674-0.593-7.971,2.362-10.926l9.005,9.005v-2.406c0-4.621,3.035-8.531,7.22-9.851c-0.505-0.801-1.091-1.555-1.771-2.236
	l-0.123-0.123c-2.413-2.414-3.768-5.688-3.768-9.101v-9.715c-0.689,0.178-1.408,0.283-2.153,0.283h0v-10.606l-1.417,1.417
	c-3.36,3.36-8.806,3.36-12.166,0v0l7.5-7.5h-2.004c-4.751,0-8.603-3.852-8.603-8.603h10.606l-1.417-1.417
	c-3.359-3.359-3.359-8.806,0-12.166l7.5,7.5v-2.004c0-4.751,3.852-8.603,8.603-8.603v10.606l1.417-1.417
	c3.36-3.359,8.806-3.359,12.166,0l-7.5,7.5h2.003c4.751,0,8.603,3.852,8.603,8.603h-10.606l1.417,1.417
	c3.359,3.359,3.359,8.806,0,12.166l-7.5-7.5v2.003c0,2.179-0.817,4.164-2.153,5.68v10.529c0,3.443,1.38,6.743,3.83,9.162h0
	c2.451,2.419,3.83,5.719,3.83,9.162v4.296c4.022-2.751,9.553-2.348,13.124,1.223l-6.196,6.196l-2.809,2.809h2.406
	c0.762,0,1.503,0.088,2.218,0.245h11.494l-2.191-2.191c-0.008-0.008-0.015-0.017-0.022-0.025
	c-5.172-5.198-5.166-13.605,0.022-18.793l11.6,11.6v-3.099c0-6.514,4.685-11.926,10.867-13.073v-26.423
	c-0.846,0.219-1.729,0.347-2.644,0.347l0,0v-13.024l-1.74,1.74c-4.125,4.125-10.814,4.125-14.939,0l0,0l9.209-9.209h-2.46
	c-5.834,0-10.564-4.73-10.564-10.564h13.024l-1.74-1.74c-4.126-4.125-4.126-10.814,0-14.939l9.209,9.209v-2.46
	c0-5.834,4.729-10.564,10.564-10.564v13.024l1.74-1.74c4.125-4.126,10.814-4.126,14.939,0l-9.209,9.209h2.46
	c5.834,0,10.564,4.729,10.564,10.564H458.72l1.74,1.74c4.125,4.125,4.125,10.814,0,14.939l-9.209-9.209v2.46
	c0,2.676-1.003,5.113-2.644,6.974v43.063c5.227-4.59,13.183-4.405,18.172,0.584l-11.6,11.6h3.099c1.027,0,2.023,0.128,2.984,0.348
	c0.313,0.072,0.626,0.146,0.93,0.239h4.039h3.152l-1.304-1.304c-3.091-3.091-3.091-8.104,0-11.195l6.901,6.901v-1.844
	c0-4.372,3.544-7.916,7.916-7.916v9.759l1.304-1.303c1.709-1.708,4.004-2.468,6.237-2.288l-4.465-26.49
	c-1.071,0.599-2.304,0.943-3.619,0.943v-9.161l-1.224,1.224c-2.902,2.902-7.607,2.902-10.509,0h0l6.478-6.478h-1.731
	c-4.104,0-7.431-3.327-7.431-7.431h9.161l-1.224-1.224c-2.902-2.902-2.902-7.607,0-10.509l6.478,6.478v-1.731
	c0-4.104,3.327-7.431,7.431-7.431v9.161l1.224-1.224c2.902-2.902,7.607-2.902,10.509,0l-6.478,6.478h1.731
	c4.104,0,7.431,3.327,7.431,7.431h-9.162l1.224,1.224c2.902,2.902,2.902,7.607,0,10.509l-6.478-6.478v1.731
	c0,1.1-0.246,2.141-0.675,3.081l5.283,31.346c0.35,0.25,0.688,0.524,1.002,0.838l-0.737,0.737l0.899,5.332h4.48l-1.701-1.701
	c-4.034-4.034-4.034-10.574,0-14.607l9.005,9.005v-2.406c0-5.704,4.624-10.329,10.329-10.329v12.735l1.701-1.701
	c2.301-2.301,5.416-3.284,8.417-2.96v-11.84c0-5.279-2.097-10.343-5.829-14.077L521.768,309.47z M527.787,347.563v-2.835
	l-2.814,2.814C524.973,347.542,527.651,347.557,527.787,347.563z M277.202,469.85c0-2.259-1.831-4.09-4.09-4.09h-36.66
	c-6.217,0-12.128-2.249-17.155-5.908c-2.053-1.494-4.356-2.405-6.789-2.405h-40.001c-7.959,0-9.831-19.734,0.37-19.734h10.295
	c2.373,0,4.5-1.777,4.624-4.147c0.132-2.527-1.878-4.618-4.376-4.618h-20.57c0,7.684,0,47.832,0,69.728h21.269
	c0.002-0.078,0.012-27.653,0.012-27.653c0-15.826,24.555-15.8,24.555,0v47.473c0,6.753-5.525,12.278-12.278,12.278H162.85
	c0,4.597,0,9.195,0,13.792c1.365,1.022,3.054,1.634,4.891,1.634h66.96c0-21.06,0-41.292,0-55.586c0-0.874,0.085-1.694,0.244-2.459
	c0.004-0.021,0.012-0.04,0.016-0.061c-3.487-5.418-0.337-14.154,8.935-14.154h29.216C275.371,473.94,277.202,472.109,277.202,469.85
	z M256.405,546.2h18.81v-17.966c0-0.748,0.074-1.447,0.191-2.115c-6.334,0-12.668,0-19.001,0
	C256.405,533.065,256.405,540.066,256.405,546.2z M162.338,192.837c0.303-0.097,0.621-0.164,0.957-0.164h10.723
	c1.731,0,3.134-1.403,3.134-3.134v-0.499c0-1.324-0.838-2.491-2.081-2.947c-13.622-4.991-23.345-18.066-23.345-33.417
	c0-15.386,9.768-28.483,23.438-33.449c1.574-0.572,2.618-2.073,2.618-3.748v-0.062c0-2.208-1.79-3.998-3.998-3.998h-9.592
	c-14.424,8.101-24.175,23.536-24.175,41.256C140.017,169.626,148.94,184.486,162.338,192.837z"></path>
<path id="color_x5F_2" fill="#FBC02D" d="M441.705,454.037h109.193c-2.832,4.576-5.786,9.069-8.854,13.475H441.705
	c-3.721,0-6.738-3.017-6.738-6.738C434.967,457.053,437.984,454.037,441.705,454.037z M431.836,225.141
	c-18.076,2.41-93.479,31.536-169.397,62.185c-18.947-11.21-33.845-20.812-46.125-27.83h4.794c5.163,0,9.349-4.186,9.349-9.349
	c0-1.652,0.432-3.202,1.184-4.549H128.969c-3.657,0-6.622-2.965-6.622-6.622c0-3.657,2.965-6.622,6.622-6.622h143.352
	c0.134-0.671,0.207-1.363,0.207-2.074c0-5.809,4.709-10.518,10.518-10.518h4.675c3.227,0,5.843-2.616,5.843-5.843
	c0-3.227-2.616-5.843-5.843-5.843h-59.218c0.574,0.57,0.929,1.36,0.929,2.232v0c0,1.739-1.41,3.149-3.149,3.149h-69.285
	c-1.739,0-3.149-1.41-3.149-3.149v0c0-0.873,0.355-1.662,0.929-2.232h-49.362c-9.036,0-16.361-7.325-16.361-16.361
	c0-9.036,7.325-16.361,16.361-16.361h24.831c5.464,13.735,15.733,25.027,28.741,31.805h9.034c2.261,0,4.094-1.833,4.094-4.094
	c0-2.261-1.833-4.094-4.094-4.094h-4.724c-1.739,0-3.149-1.41-3.149-3.149c0-1.403,0.924-2.578,2.192-2.985
	c0.303-0.097,0.621-0.164,0.957-0.164h10.723c1.731,0,3.134-1.403,3.134-3.134v-0.499c0-1.324-0.838-2.491-2.081-2.947
	c-13.622-4.991-23.345-18.066-23.345-33.417c0-15.386,9.768-28.483,23.438-33.449c1.574-0.572,2.618-2.073,2.618-3.748v-0.062
	c0-2.208-1.79-3.998-3.998-3.998h-9.592h-0.582c-1.913,0-3.464-1.551-3.464-3.464s1.551-3.464,3.464-3.464h3.149
	c1.566,0,2.835-1.269,2.835-2.834c0-1.565-1.269-2.834-2.835-2.834h-8.973h-24.725c-2.087,0-3.779-1.692-3.779-3.779
	c0-2.087,1.692-3.779,3.779-3.779h71.78c-3.615-2.891-5.938-7.332-5.938-12.321c0-8.713,7.063-15.777,15.776-15.777h21.035
	c4.841,0,8.765-3.924,8.765-8.765s3.924-8.765,8.765-8.765h46.745c4.841,0,8.765,3.924,8.765,8.765s3.924,8.765,8.765,8.765h17.53
	c7.422,0,13.439,6.017,13.439,13.439c0,7.422,6.017,13.439,13.439,13.439h37.981c7.1,0,12.855,5.755,12.855,12.855
	c0,7.1-5.755,12.855-12.855,12.855h-75.377c-3.55,0-6.428,2.878-6.428,6.427c0,3.55,2.878,6.428,6.428,6.428h16.361
	c4.841,0,8.765,3.924,8.765,8.765c0,4.841,3.924,8.765,8.765,8.765h74.208c11.618,0,21.035,9.418,21.035,21.035
	c0,11.618-9.418,21.035-21.035,21.035h-36.227c-3.227,0-5.843,2.616-5.843,5.843c0,3.227,2.616,5.843,5.843,5.843h78.883
	c8.713,0,15.776,7.063,15.776,15.777c0,8.713-7.063,15.777-15.776,15.777h-15.41c-10.827-5.028-19.801-7.394-28.01-6.308
	C431.855,225.142,431.843,225.14,431.836,225.141z M276.034,122.182c0-3.55-2.878-6.427-6.427-6.427h-5.259
	c-5.809,0-10.518-4.709-10.518-10.518c0-5.809-4.709-10.518-10.518-10.518h-15.173c0.009,0.108,0.033,0.213,0.033,0.324
	c0,2.087-1.692,3.779-3.779,3.779H212.11c-1.565,0-2.834,1.269-2.834,2.834v0.63c0,1.218,0.987,2.204,2.205,2.204
	c1.913,0,3.464,1.551,3.464,3.464s-1.551,3.464-3.464,3.464h-10.804c-2.208,0-3.998,1.79-3.998,3.998
	c0,1.682,1.052,3.187,2.635,3.754c13.749,4.924,23.588,18.062,23.588,33.505c0,15.834-10.342,29.249-24.638,33.867
	c-1.31,0.423-2.215,1.618-2.215,2.995c0,1.731,1.403,3.134,3.134,3.134h13.363h1.139c1.739,0,3.149,1.41,3.149,3.149
	c0,1.739-1.41,3.149-3.149,3.149c-2.087,0-3.779,1.692-3.779,3.779v0.315c0,2.261,1.833,4.094,4.094,4.094h1.643
	c13.008-6.777,23.277-18.069,28.741-31.805h13.537c5.486,0,9.933-4.447,9.933-9.933c0-5.486-4.447-9.933-9.933-9.933h-9.265
	c0.042-0.933,0.071-1.869,0.071-2.812c0-8.542-1.748-16.675-4.899-24.066h25.779C273.156,128.61,276.034,125.732,276.034,122.182z
	 M594.553,277.026h-20.332l-1.283,1.283h2.099c4.977,0,9.012,4.035,9.012,9.012h-11.111l1.484,1.484
	c2.636,2.636,3.297,6.498,1.984,9.75c5.965,3.141,12.191,6.335,18.666,9.568c0.121-3.482,0.204-6.973,0.204-10.484
	C595.276,290.707,595.019,283.838,594.553,277.026z M471.999,186.981c12.043,0,40.784,0,52.827,0c8.276,0,8.263-12.841,0-12.841
	c-12.043,0-40.784,0-52.827,0C463.723,174.14,463.736,186.981,471.999,186.981z M478.081,136.241c8.276,0,8.262-12.841,0-12.841
	C469.805,123.4,469.818,136.241,478.081,136.241z M537.515,257.179c5.197,5.196,5.197,13.621,0,18.818l-11.6-11.6v3.099
	c0,0.847-0.088,1.673-0.239,2.476c4.593,2.745,9.381,5.573,14.403,8.483c-0.001-0.049-0.007-0.097-0.007-0.147h11.111l-1.484-1.484
	c-3.519-3.519-3.519-9.225,0-12.744l7.856,7.856v-2.099c0-0.128,0.014-0.253,0.019-0.38c-2.135-2.972-3.406-6.606-3.406-10.545
	c0-9.954-8.032-18.027-17.967-18.106l-0.876,0.876h3.099c7.349,0,13.306,5.957,13.306,13.306h-16.405L537.515,257.179z
	 M431.254,417.897c-8.298,0-36.63,0-44.928,0c-5.703,0-5.693,8.848,0,8.848c8.298,0,36.63,0,44.928,0
	C436.956,426.745,436.947,417.897,431.254,417.897z M406.991,136.241c12.043,0,40.784,0,52.827,0c8.276,0,8.262-12.841,0-12.841
	c-12.043,0-40.784,0-52.827,0C398.715,123.4,398.729,136.241,406.991,136.241z M373.742,417.897c-5.702,0-5.693,8.848,0,8.848
	C379.445,426.745,379.435,417.897,373.742,417.897z M502.316,240.798h-24.831c3.304,1.911,6.772,3.977,10.408,6.173
	c-0.704-1.622-1.099-3.409-1.099-5.29H503.2L502.316,240.798z M384.755,457.095c-5.446,0-5.437,8.451,0,8.451
	C390.201,465.545,390.192,457.095,384.755,457.095z M372.736,457.095c-7.926,0-15.851,0-23.777,0c-5.446,0-5.438,8.451,0,8.451
	c7.926,0,15.851,0,23.777,0C378.183,465.545,378.174,457.095,372.736,457.095z M383.242,385.648c-3.195,0-3.19,4.958,0,4.958
	c4.65,0,60.559,0,65.208,0c3.195,0,3.19-4.958,0-4.958C443.801,385.648,387.892,385.648,383.242,385.648z M455.502,390.606
	c3.195,0,3.19-4.958,0-4.958C452.306,385.648,452.312,390.606,455.502,390.606z M483.241,423.864c4.84,0,21.335,0,26.175,0
	c3.326,0,3.32-5.16,0-5.16c-4.84,0-21.335,0-26.175,0C479.915,418.703,479.921,423.864,483.241,423.864z M510.928,391.925
	L510.928,391.925c0,3.721,3.016,6.738,6.738,6.738h60.011c1.604-4.444,3.107-8.936,4.502-13.476h-64.514
	C513.945,385.188,510.928,388.204,510.928,391.925z M323.302,41.384c12.043,0,28.344,0,40.387,0c8.276,0,8.262-12.841,0-12.841
	c-12.043,0-28.344,0-40.387,0C315.026,28.543,315.04,41.384,323.302,41.384z M312.072,403.227c-5.345,0-24.235,0-29.58,0
	c-3.673,0-3.667,5.699,0,5.699c5.345,0,24.235,0,29.58,0C315.745,408.926,315.739,403.227,312.072,403.227z M503.2,254.988h-2.172
	c0.448,0.275,0.894,0.548,1.346,0.826L503.2,254.988z M71.523,228.339c12.043,0,28.343,0,40.387,0c8.276,0,8.262-12.841,0-12.841
	c-12.043,0-28.343,0-40.387,0C63.247,215.499,63.261,228.339,71.523,228.339z M41.139,267.677c0,4.518-3.663,8.18-8.181,8.18H0.797
	C0.277,283.051,0,290.312,0,297.638c0,5.664,0.174,11.288,0.486,16.874c48.813-19.991,103.208-41.783,139.822-55.016H49.319
	C44.801,259.496,41.139,263.159,41.139,267.677z"></path>
<path id="color_x5F_1" fill="#0984E3" d="M269.606,128.61h-25.779c-5.413-12.694-14.976-23.189-26.986-29.788h7.551
	c2.087,0,3.779-1.692,3.779-3.779c0-0.111-0.023-0.215-0.033-0.324h15.173c5.809,0,10.518,4.709,10.518,10.518
	c0,5.809,4.709,10.518,10.518,10.518h5.259c3.55,0,6.427,2.878,6.427,6.427C276.034,125.732,273.156,128.61,269.606,128.61z
	 M179.631,247.266c-6.18,0.824-20.37,5.381-39.323,12.23H49.319c-4.518,0-8.18,3.663-8.18,8.18c0,4.518-3.663,8.18-8.181,8.18H0.797
	C11.952,121.647,140.583,0,297.638,0c157.45,0,286.326,122.263,296.915,277.026h-20.332l6.574-6.574
	c-3.519-3.519-9.225-3.519-12.745,0l-1.484,1.484v-11.111c-4.849,0-8.792,3.832-8.993,8.632c-2.135-2.972-3.406-6.606-3.406-10.545
	c0-9.954-8.032-18.027-17.967-18.106l10.724-10.724c-5.196-5.197-13.621-5.197-18.818,0l-2.191,2.191v-16.405
	c-7.349,0-13.307,5.957-13.307,13.306v3.099l-11.6-11.6c-5.196,5.196-5.196,13.622,0,18.818l1.308,1.308h-24.831
	c-6.419-3.713-12.242-6.856-17.611-9.349h15.41c8.713,0,15.776-7.063,15.776-15.777c0-8.713-7.063-15.777-15.776-15.777h-78.883
	c-3.227,0-5.843-2.616-5.843-5.843c0-3.227,2.616-5.843,5.843-5.843h36.227c11.618,0,21.035-9.418,21.035-21.035
	c0-11.617-9.418-21.035-21.035-21.035h-74.208c-4.841,0-8.765-3.924-8.765-8.765c0-4.841-3.924-8.765-8.765-8.765h-16.361
	c-3.55,0-6.428-2.878-6.428-6.428c0-3.55,2.878-6.427,6.428-6.427h75.377c7.1,0,12.855-5.755,12.855-12.855
	c0-7.1-5.755-12.855-12.855-12.855h-37.981c-7.422,0-13.439-6.017-13.439-13.439c0-7.422-6.017-13.439-13.439-13.439h-17.53
	c-4.841,0-8.765-3.924-8.765-8.765s-3.924-8.765-8.765-8.765h-46.745c-4.841,0-8.765,3.924-8.765,8.765s-3.924,8.765-8.765,8.765
	H214.68c-8.713,0-15.776,7.063-15.776,15.777c0,4.989,2.322,9.43,5.938,12.321h-71.78c-2.087,0-3.779,1.692-3.779,3.779
	c0,2.087,1.692,3.779,3.779,3.779h24.725c-19.003,10.441-31.885,30.641-31.885,53.854c0,8.014,1.551,15.66,4.343,22.679h-24.831
	c-9.036,0-16.361,7.325-16.361,16.361c0,9.036,7.325,16.361,16.361,16.361h49.362c-0.573,0.57-0.929,1.36-0.929,2.232v0
	c0,1.739,1.41,3.149,3.149,3.149h69.285c1.739,0,3.149-1.41,3.149-3.149v0c0-0.873-0.355-1.662-0.929-2.232h59.218
	c3.227,0,5.843,2.616,5.843,5.843c0,3.227-2.616,5.843-5.843,5.843h-4.675c-5.809,0-10.518,4.709-10.518,10.518
	c0,0.71-0.072,1.403-0.207,2.074H128.969c-3.657,0-6.622,2.965-6.622,6.622c0,3.657,2.965,6.622,6.622,6.622h102.673
	c-0.752,1.347-1.184,2.896-1.184,4.549c0,5.163-4.186,9.349-9.349,9.349h-4.794c-15.418-8.812-26.707-13.547-36.658-12.23
	C179.648,247.266,179.637,247.265,179.631,247.266z M478.081,136.241c8.276,0,8.262-12.841,0-12.841
	C469.805,123.4,469.818,136.241,478.081,136.241z M471.999,186.981c12.043,0,40.784,0,52.827,0c8.276,0,8.263-12.841,0-12.841
	c-12.043,0-40.784,0-52.827,0C463.723,174.14,463.736,186.981,471.999,186.981z M459.818,123.4c-12.043,0-40.784,0-52.827,0
	c-8.276,0-8.262,12.841,0,12.841c12.043,0,40.784,0,52.827,0C468.094,136.241,468.081,123.4,459.818,123.4z M323.302,41.384
	c12.043,0,28.344,0,40.387,0c8.276,0,8.262-12.841,0-12.841c-12.043,0-28.344,0-40.387,0
	C315.026,28.543,315.04,41.384,323.302,41.384z M111.91,215.499c-12.043,0-28.343,0-40.387,0c-8.276,0-8.262,12.841,0,12.841
	c12.043,0,28.343,0,40.387,0C120.186,228.339,120.172,215.499,111.91,215.499z M248.655,155.488
	c-0.315,6.993-1.809,13.674-4.272,19.867h13.537c5.486,0,9.933-4.447,9.933-9.933c0-5.486-4.447-9.933-9.933-9.933H248.655z
	 M589.854,354.357c-2.023,10.482-4.583,20.771-7.675,30.83h-64.514c-3.721,0-6.738,3.017-6.738,6.738v0
	c0,3.721,3.016,6.738,6.738,6.738h60.011c-7.03,19.484-16.04,38.02-26.779,55.374H441.705c-3.721,0-6.738,3.017-6.738,6.738
	c0,3.721,3.017,6.738,6.738,6.738h100.339c-4.462,6.408-9.161,12.638-14.101,18.665H298.193c-5.462,0-9.889-4.428-9.889-9.889
	c0-5.462,4.428-9.889,9.889-9.889h16.07c3.414,0,6.181-2.767,6.181-6.181v0c0-3.414-2.767-6.181-6.181-6.181H207.538
	c-6.365,0-11.922-4.803-12.333-11.154c-0.451-6.96,5.061-12.745,11.924-12.745l34.094-0.019c-0.425-0.725-0.973-1.364-1.599-1.917
	c2.342-1.662,3.961-4.263,4.158-7.296c0.373-5.76-4.188-10.548-9.868-10.548h-50.484c-9.6,0-16.866-8.787-14.938-18.298
	c1.459-7.196,8.07-12.194,15.412-12.194h168.838c2.454,0,4.654-1.838,4.783-4.289c0.137-2.614-1.942-4.776-4.526-4.776h-8.336
	l4.907-4.908c-4.034-4.034-10.574-4.034-14.607,0l-1.701,1.701V354.86c-5.704,0-10.329,4.624-10.329,10.329v2.405l-9.005-9.005
	c-3.307,3.307-3.898,8.297-1.782,12.211h-1.264c-4.502,0-8.428-3.469-8.563-7.969c-0.14-4.656,3.593-8.475,8.218-8.475H589.854z
	 M312.072,403.227c-5.345,0-24.235,0-29.58,0c-3.673,0-3.667,5.699,0,5.699c5.345,0,24.235,0,29.58,0
	C315.745,408.926,315.739,403.227,312.072,403.227z M372.736,457.095c-7.926,0-15.851,0-23.777,0c-5.446,0-5.438,8.451,0,8.451
	c7.926,0,15.851,0,23.777,0C378.183,465.545,378.174,457.095,372.736,457.095z M373.742,417.897c-5.702,0-5.693,8.848,0,8.848
	C379.445,426.745,379.435,417.897,373.742,417.897z M384.755,457.095c-5.446,0-5.437,8.451,0,8.451
	C390.201,465.545,390.192,457.095,384.755,457.095z M431.254,417.897c-8.298,0-36.63,0-44.928,0c-5.703,0-5.693,8.848,0,8.848
	c8.298,0,36.63,0,44.928,0C436.956,426.745,436.947,417.897,431.254,417.897z M448.451,385.648c-4.65,0-60.559,0-65.208,0
	c-3.195,0-3.19,4.958,0,4.958c4.65,0,60.559,0,65.208,0C451.646,390.606,451.641,385.648,448.451,385.648z M455.502,385.648
	c-3.195,0-3.19,4.958,0,4.958C458.697,390.606,458.692,385.648,455.502,385.648z M509.416,418.703c-4.84,0-21.335,0-26.175,0
	c-3.326,0-3.32,5.16,0,5.16c4.84,0,21.335,0,26.175,0C512.742,423.864,512.736,418.703,509.416,418.703z"></path>
</svg>