<?xml version="1.0" standalone="no"?>
<svg version="1.1" id="Layer_1" xmlns="http://www.w3.org/2000/svg" xmlns:xlink="http://www.w3.org/1999/xlink" x="0px" y="0px" viewBox="0 0 595.276 595.276" enable-background="new 0 0 595.276 595.276" xml:space="preserve">
<path id="color_x5F_9" fill="#00586E" d="M109.682,237.02h1.416l-1.416,1.516V237.02z M463.496,353.134l0.262-0.624h-0.816
	L463.496,353.134z M120.901,249.766v1.739l10.735-11.493h-1.624L120.901,249.766z M125.089,232.95v0.783h1.648l0.643-2.523h-10.856
	l41.109-44.013l-0.348-1.366L114.9,231.21h-2.769l0.594,2.329l-0.182,0.195h1.879v-0.273l0.477-0.51H125.089z M133.513,236.263
	l-0.61,2.392l36.648-39.236v-1.739L133.513,236.263z M100.546,377.063h2.338v-45.97h-2.338V377.063z M379.159,256.526v1.787
	l53.371,60.006c0.53,0,1.06,0,1.59,0L379.159,256.526z M259.188,365.068h2.337v-45.97h-2.337V365.068z M106.895,239.781
	l-3.237,3.466l0.772,0.912l3.874-4.147h-1.35L106.895,239.781z M171.882,196.923l9.086-9.728v-1.739l-9.086,9.728V196.923z
	 M437.642,322.702c-0.404,0-0.809,0-1.213,0l2.854,3.209c0.278-0.277,0.646-0.473,1.107-0.543l-2.402-2.701
	C437.876,322.683,437.765,322.702,437.642,322.702z M442.188,329.177l16.466,18.513l0.509-1.215l-16.359-18.393
	C442.708,328.5,442.502,328.884,442.188,329.177z M140.458,328.448h1.565v-30.777h-1.565V328.448z M479.554,317.785l1.262,3.012
	l32.944,34.061l0.499-1.191L479.554,317.785z M352.246,227.285l0.275,1.078l-29.894-33.61l-0.158-0.024v0.852h-0.652l0.632,6.888
	h2.741l0.169,0.584h-10.031l0.169-0.584h2.469l0.835-9.625l-1.278-0.87l-0.15-1.835l0.765-0.189l0.441,0.254l-25.933-29.156
	l0.887-0.789l28.294,31.811l1.57,0.902l0.005,0.869l28.479,32.019L352.246,227.285z M321.39,198.406l-2.318,1.607l2.686,1.236
	L321.39,198.406z M319.28,196.43l1.99,1.044l-0.211-1.631h-1.702L319.28,196.43z M318.881,199.505l2.207-1.531l-1.881-0.987
	L318.881,199.505z M318.759,200.449l-0.228,1.755h3.352l-0.044-0.337L318.759,200.449z M375.121,316.761l4.038,5.844v-27.663h-4.038
	V316.761z M115.523,257.262l3.087-3.305v-1.739l-3.859,4.132L115.523,257.262z M165.572,276.781h1.592V245.48h-1.592V276.781z
	 M394.903,231.117h-0.826l0.826,0.854V231.117z M291.484,259.595h1.466v-28.829h-1.466V259.595z M332.327,326.341h1.592V295.04
	h-1.592V326.341z M359.377,234.285v1.787l15.744,17.701v-1.787L359.377,234.285z M208.279,232.173h1.466v-28.829h-1.466V232.173z
	 M473.716,311.748l-0.499,1.191l-39.14-40.467v0.781h-0.775l0.752,8.195h3.261l0.201,0.695h-11.935l0.201-0.695h2.938l0.993-11.453
	l-1.521-1.035l-0.178-2.184l0.448-0.111l-29.283-30.275h0.535l0.233-0.913l31.404,32.469l3.831,2.201l0.011,1.772L473.716,311.748z
	 M432.793,276.616l-2.757,1.912l3.196,1.471L432.793,276.616z M430.282,274.265l2.367,1.242l-0.252-1.94h-2.025L430.282,274.265z
	 M429.808,277.924l2.626-1.821l-2.238-1.174L429.808,277.924z M429.662,279.047l-0.271,2.088h3.988l-0.052-0.401L429.662,279.047z
	 M302.187,153.138V152h15.502v1.139h2.395l0.935-3.667h-22.163l0.935,3.667H302.187z M165.289,181.027v-0.797h10.855v0.797h1.677
	l0.655-2.568h-15.518l0.655,2.568H165.289z M363.696,220.872l1.134,4.45h2.906v-1.381h18.808v1.381h3.579l-0.533-0.551l0.994-3.899
	h-4.765l-58.926-60.924l-0.854,0.825l58.128,60.099H363.696z"></path>
<path id="color_x5F_8_11_" fill="#903B1F" d="M421.769,350.966h5.022v12.039l-5.022-7.237V350.966z M278.448,412.95
	c0,0.581,0,1.161,0,1.742c-1.186-0.746-2.639-0.943-4.12-0.97c0-1.478,0-2.956,0-4.434c0-1.473-2.289-1.475-2.289,0
	c0,1.492,0,4.475,0,4.475l-5.493,0.186c0,0,0-4.736,0-7.103c0-1.473-2.289-1.475-2.289,0c0,2.385,0,4.769,0,7.154
	c-1.02-0.005-2.023-0.056-2.975-0.211c-4.202-0.686-2.823-7.963-2.823-11.062c0-1.473-2.289-1.475-2.289,0
	c0,2.951-0.475,6.285,0.101,9.191c0.358,1.808,1.305,2.827,2.534,3.405c1.49,0.702,3.394,0.755,5.182,0.755
	c3.628,0,7.544-0.434,11.146,0c2.517,0.303,3.315,1.958,3.315,4.224c0,1.372,0,2.744,0,4.116c0.232-0.071,0.472-0.121,0.727-0.121
	h1.561c0-2.288,0-6.309,0-8.974c0-1.093,0-1.956,0-2.373C280.737,411.477,278.448,411.475,278.448,412.95z M293.697,428.981
	c-0.139-0.028-0.283-0.043-0.43-0.043h-0.482c-0.088,0-0.673,0.011-0.673,0.011c-0.509,0-0.922,0.413-0.922,0.922v2.668
	c0,0.53,0.403,0.95,0.916,1.014c0.927-0.005,1.557-0.012,1.591-0.019c0.417-0.085,0.789-0.292,1.079-0.582
	c0.03-0.03,0.053-0.066,0.081-0.098c0.335-0.377,0.544-0.868,0.544-1.411v-0.371c0-0.59-0.239-1.123-0.625-1.509
	C294.487,429.273,294.114,429.066,293.697,428.981z M308.274,197.516l3.328,3.932v-19.09l-3.328-3.742V197.516z M282.263,426.53
	c-0.716,0-1.297,0.581-1.297,1.297c0,0.716,0.581,1.297,1.297,1.297c0.716,0,1.297-0.581,1.297-1.297
	C283.56,427.111,282.979,426.53,282.263,426.53z M404.534,378.221l5.118,8.242v33.212h-30.436L377,414.389v-25.797l16.907-27.483
	l8.508,13.702v7.08c0,0.455,0.474,0.824,1.059,0.824c0.585,0,1.059-0.369,1.059-0.824V378.221z M385.539,400.745h-4.538v13.988
	h4.538V400.745z M392.349,400.745h-5.536v13.988h5.536V400.745z M400.752,400.745h-4.538v13.988h4.538V400.745z M407.561,400.745
	h-5.536v13.988h5.536V400.745z M293.729,162.262l-1.083-1.217l0.887-0.789l1.764,1.983v-4.324h12.977v18.914l3.328,3.742v-22.656
	h12.977v4.347h2.901l-1.441-1.49l0.854-0.825l1.773,1.833l2.203-8.643h-41.863l2.326,9.124H293.729z M314.374,479.647
	c-1.457,0-2.638-1.181-2.638-2.638v-4.96h-6.51v4.96c0,1.457,1.181,2.638,2.639,2.638h1.716c1.495,0,2.691,1.196,2.731,2.67
	c0.001,0.056,0.013,0.109,0.011,0.166l-0.776,17.071h1.988l0.344-2.441h0l2.084-14.796l0.295-2.091c0.021-0.191,0.018-0.379,0-0.562
	c-0.056-0.004-0.109-0.017-0.166-0.017H314.374z M379.159,231.117h15.744v5.274h4.81l2.822-11.07h-50.79l2.822,11.07h4.81v-5.274
	h15.744v63.824h0h4.038V231.117z M170.174,459.456c-3.906,2.749-7.811,5.497-11.717,8.245c0-10.372,0-20.744,0-31.115
	c0-1.293-1.003-1.938-2.006-1.937c-1.003,0.001-2.005,0.647-2.005,1.937c0,7.023,0,14.046,0,21.069
	c-2.504-2.504-5.009-5.008-7.513-7.513c-1.828-1.828-4.664,1.009-2.836,2.836c3.387,3.387,6.774,6.774,10.162,10.161
	c0.061,0.061,0.125,0.103,0.188,0.154c0,2.78,0,32.342,0,34.796c0,2.585,4.011,2.581,4.011,0c0-2.961,0-25.501,0-25.501
	s9.161-6.447,13.742-9.67C174.296,461.444,172.29,457.967,170.174,459.456z M129.776,455.475c-1.251,0.881-2.503,1.761-3.754,2.642
	c0-13.447,0-26.894,0-40.341c0-1.676-1.3-2.512-2.6-2.512c-1.3,0.001-2.6,0.839-2.6,2.512c0,9.106,0,18.211,0,27.317
	c-3.247-3.247-6.494-6.493-9.74-9.74c-2.371-2.371-6.047,1.308-3.677,3.677c4.391,4.392,13.417,13.374,13.417,13.374
	s0,43.155,0,45.113c0,3.352,5.201,3.346,5.201,0c0-2.302,0-33.062,0-33.062s3.16-2.224,4.74-3.335
	c-0.07-0.245-0.145-0.488-0.209-0.735C130.145,458.8,129.886,457.158,129.776,455.475z M323.317,458.386v0.016
	c0.082-0.036,0.157-0.086,0.238-0.124c0.283-0.132,0.56-0.276,0.83-0.433c0.136-0.079,0.271-0.159,0.403-0.244
	c0.259-0.166,0.508-0.346,0.752-0.534c0.126-0.097,0.253-0.191,0.375-0.294c0.246-0.208,0.477-0.434,0.703-0.665
	c0.1-0.102,0.206-0.196,0.302-0.302c0.309-0.342,0.601-0.702,0.866-1.087c0.002-0.003,0.005-0.006,0.007-0.009l0.344-0.5h-4.82
	V458.386z M276.684,464.379v35.176h1.988l1.809-28.564C278.212,469.659,276.684,467.2,276.684,464.379z M456.946,399.039v17.4
	h-13.327v-1.706h5.536v-13.988h-5.536v-1.706H456.946z M454.966,400.745h-4.538v13.988h4.538V400.745z M416.061,298.015
	l-1.595-14.445h3.489l1.969,17.474h26.767l-0.723,6.419h-21.503L416.061,298.015z M415.299,284.64l1.869,14.265h1.634l-1.552-14.265
	H415.299z M157.689,187.416h2.776v-3.044h9.086v30.908l2.331-2.753v-28.155h9.086v3.044h2.776l1.629-6.389H156.06L157.689,187.416z
	 M106.954,240.012h2.728v-2.991h8.929v23.888l2.29,2.705V237.02h8.929v2.991h2.728l1.6-6.278h-28.804L106.954,240.012z
	 M307.459,411.918c0.576-2.906,0.101-6.24,0.101-9.191c0-1.475-2.289-1.473-2.289,0c0,3.099,1.38,10.376-2.823,11.062
	c-0.952,0.155-1.955,0.206-2.975,0.211c0-2.385,0-4.769,0-7.154c0-1.475-2.289-1.473-2.289,0c0,2.368,0,7.103,0,7.103l-5.493-0.186
	c0,0,0-2.984,0-4.475c0-1.475-2.289-1.473-2.289,0c0,1.478,0,2.956,0,4.434c-1.481,0.026-2.934,0.223-4.12,0.97
	c0-0.581,0-1.161,0-1.742c0-1.475-2.289-1.473-2.289,0c0,0.417,0,1.281,0,2.373c0,2.665,0,6.686,0,8.974h0.725h1.285
	c0.094,0,0.185,0.024,0.279,0.029c0-1.342,0-2.684,0-4.025c0-2.266,0.798-3.92,3.315-4.224c3.602-0.434,7.517,0,11.146,0
	c1.788,0,3.692-0.053,5.182-0.755C306.154,414.745,307.101,413.726,307.459,411.918z M429.05,400.142h9.446v23.533h2.118v0v-4
	v-21.238H429.05V400.142z M310.575,218.937h22.496l-0.608,5.395h-24.24l-2.235-20.081h2.932L310.575,218.937z M309.631,217.139
	l-1.305-11.989h-1.639l1.571,11.989H309.631z M426.002,399.039v17.4h-13.328v-1.706h5.536v-13.988h-5.536v-1.706H426.002z
	 M424.022,400.745h-4.538v13.988h4.538V400.745z M417.126,307.463h5.749l-6.583-7.402L417.126,307.463z"></path>
<path id="color_x5F_7_10_" fill="#F68945" d="M84.963,338.105l15.583-5.436v10.872L84.963,338.105z M291.484,231.755l-9.772,3.409
	l9.772,3.409V231.755z M458.893,391.2v28.474h-18.28v-21.238H429.05v1.706h9.446v23.533h-9.446v0v-4h-19.398v-33.212l2.942,4.737
	h12.002v3.206c0,0.699,0.566,1.265,1.265,1.265h1c0.699,0,1.265-0.566,1.265-1.265V391.2h23.188v2.643
	c0,0.484,0.392,0.876,0.877,0.876h0.365c0.484,0,0.877-0.392,0.877-0.876V391.2H458.893z M426.002,399.039h-13.328v17.4h13.328
	V399.039z M430.227,414.968h6.866V402.45h-6.866V414.968z M456.946,399.039h-13.327v17.4h13.327V399.039z M140.458,306.005v-7.279
	l-10.433,3.639L140.458,306.005z M332.327,303.516v-7.403l-10.61,3.701L332.327,303.516z M419.925,301.044l-1.969-17.474h26.854h0
	l3.448,3.565v0l-1.567,13.909H419.925z M439.306,298.905h4.756l1.55-14.265h-0.051h-5.628h0L439.306,298.905z M428.111,284.64
	l0.627,14.265h9.14l0.627-14.265h0H428.111L428.111,284.64z M421.005,284.64l1.367,14.265h4.938l-0.627-14.265h0h-5.627H421.005z
	 M279.886,434.819l-0.039,34.518c-0.001,0.813,0.44,1.577,1.168,1.938c-0.182-0.088-0.36-0.182-0.534-0.284
	c-2.269-1.332-3.797-3.791-3.797-6.612v-37.59c0-0.311,0.064-0.607,0.168-0.882c-1.433,0.04-2.879-0.478-3.973-1.573
	c-1.416-1.416-1.879-3.421-1.398-5.226c1.805-0.481,3.81-0.018,5.226,1.398c1.092,1.092,1.611,2.533,1.573,3.963
	c0.054-0.021,0.111-0.035,0.167-0.052c0.232-0.071,0.472-0.121,0.727-0.121h5.829c0.094,0,0.185,0.024,0.279,0.029
	c0.271,0.016,0.54,0.043,0.801,0.104c-0.027-1.417,0.494-2.842,1.576-3.924c1.416-1.416,3.421-1.879,5.226-1.398
	c0.481,1.805,0.018,3.81-1.398,5.226c-0.84,0.84-1.889,1.336-2.979,1.507c0.007,0.007,0.015,0.012,0.022,0.019l1.802,1.989
	c0.627,0.692,1.518,1.087,2.452,1.087c-0.088,0-0.673,0.011-0.673,0.011c-0.509,0-0.922,0.413-0.922,0.922v2.668
	c0,0.53,0.403,0.95,0.916,1.014c-2.817,0.016-10.978,0.025-10.978,0.025C280.442,433.578,279.886,434.134,279.886,434.819z
	 M280.966,427.827c0,0.716,0.581,1.297,1.297,1.297c0.716,0,1.297-0.581,1.297-1.297c0-0.716-0.581-1.297-1.297-1.297
	C281.546,426.53,280.966,427.111,280.966,427.827z M208.279,211.151v-6.818l-9.772,3.409L208.279,211.151z M165.572,253.956v-7.403
	l-10.61,3.701L165.572,253.956z M311.415,453.192h-23.614c-2.254,0-4.081-1.827-4.081-4.081v16.722c0,0.654,0.214,1.255,0.568,1.748
	v31.974h1.988l1.945-30.711h20.543c1.641,0,2.971,1.33,2.971,2.971v5.194c0,1.457,1.181,2.638,2.638,2.638
	c0,0,1.826,0.014,1.882,0.017c1.416,0.086,2.526,1.235,2.564,2.653c0.001,0.056-0.765,17.237-0.765,17.237h1.988l2.428-17.237
	l0.295-2.091c0.175-1.623-1.096-3.039-2.728-3.039h-0.954c0,0-0.057-17.393-0.163-17.902h0.178c1.476,0,2.904-0.325,4.218-0.9
	v-4.176h-8.095C314.099,453.565,312.802,453.192,311.415,453.192z M426.835,363.077h6.379v-7.31v-4.802h-6.423v12.039
	L426.835,363.077z M259.188,331.547v-10.872l-15.583,5.436L259.188,331.547z M332.132,205.439l2.184,2.455l-1.244,11.043h-22.496
	l-1.655-14.687h22.155l0.8,0.899h-4.484h0l-0.527,11.989h3.997L332.132,205.439z M316.782,217.139l-0.527-11.989h0h-4.73h-0.043
	l1.149,11.989H316.782z M326.19,205.15L326.19,205.15h-8.735h0l0.527,11.989h7.682L326.19,205.15z M332.664,204.25l1.83,2.058
	l0.232-2.058H332.664z M448.66,283.57h-2.199h0l1.97,2.036L448.66,283.57z"></path>
<path id="color_x5F_6_10_" fill="#7FB87A" d="M174.622,402.695l8.791,20.98h-18.977v-27.82l0,0v0l6.448-11.694l7.767,18.535H174.622
	z M134.278,468.652c-1.201-1.778-2.195-3.709-2.944-5.757c-0.213-0.582-0.399-1.176-0.572-1.776l0-0.001
	c-1.58,1.112-3.16,2.224-4.74,3.335c0,1.215,0,5.221,0,10.073c3.827-0.284,7.484-1.179,10.865-2.606
	c-0.367-0.394-0.727-0.795-1.07-1.211C135.272,470.05,134.758,469.363,134.278,468.652z M156.452,426.96v7.689
	c1.003,0,2.006,0.645,2.006,1.937c0,10.372,0,20.743,0,31.115c3.906-2.749,7.811-5.497,11.717-8.245
	c2.115-1.489,4.122,1.988,2.024,3.464c-4.58,3.223-9.161,6.447-13.742,9.67c0,0.967,0,4.033,0,7.769
	c13.362-0.992,23.992-11.795,24.697-25.235c0.025-0.471,0.038-0.946,0.038-1.423c0-1.899-0.201-3.75-0.577-5.537
	C180.064,436.052,169.321,426.96,156.452,426.96z M55.944,402.695l1.436-3.427l-5.606-13.378h7.257L45.043,352.51L33.43,373.57v0
	l0,0v50.105h17.752l8.213-19.599l-0.578-1.381H55.944z M500.971,385.891l-13.989-33.381L475.37,373.57v50.105h19.387l7.396-17.648
	l-8.438-20.136H500.971z M148.61,416.156c-0.265-0.281-0.531-0.561-0.805-0.832c-2.249-2.225-4.801-4.143-7.588-5.689
	c-4.976-2.762-10.7-4.339-16.795-4.339v9.969c1.3-0.001,2.6,0.836,2.6,2.512c0,13.447,0,26.894,0,40.341
	c1.251-0.881,2.503-1.761,3.754-2.642c-0.038-0.587-0.065-1.177-0.065-1.774c0-2.308,0.292-4.547,0.842-6.683
	c0.22-0.854,0.481-1.692,0.781-2.511c0.75-2.048,1.743-3.978,2.944-5.757c0.481-0.711,0.995-1.398,1.539-2.059
	c2.452-2.972,5.534-5.404,9.041-7.094c0.779-0.375,1.58-0.714,2.399-1.014c0.819-0.3,1.657-0.561,2.512-0.781
	c0.854-0.22,1.725-0.398,2.611-0.534c1.044-0.159,2.109-0.251,3.189-0.286c-0.458-1.133-0.97-2.237-1.541-3.307
	C152.561,420.926,150.733,418.401,148.61,416.156z M211.968,397.651h4.998l-9.635-22.991l-7.998,14.505v34.509h23.54
	L211.968,397.651z M530.68,397.832h4.964L526.076,375l-7.942,14.405v34.27h23.376L530.68,397.832z M345.099,405.708l-6.652-15.873
	l-5.522,10.015v0l0,0v23.826h16.252l-7.529-17.967H345.099z M84.374,402.695l-7.767-18.535l-6.448,11.694v27.82h18.977l-8.791-20.98
	H84.374z M371.127,400.372h4.476l-8.627-20.587l-7.162,12.988v30.901h21.078v0L371.127,400.372z"></path>
<path id="color_x5F_5_5_" fill="#157564" d="M155.568,426.982c0.294-0.01,0.587-0.022,0.883-0.022v7.689
	c-1.003,0.001-2.005,0.647-2.005,1.937c0,7.023,0,14.046,0,21.069c-2.504-2.504-5.009-5.008-7.513-7.513
	c-1.828-1.828-4.664,1.009-2.836,2.836c3.387,3.387,6.774,6.774,10.162,10.161c0.061,0.061,0.125,0.103,0.188,0.154
	c0,2.78,0,9.899,0,17.064c-0.696-0.052-1.387-0.121-2.067-0.225c-0.885-0.135-1.756-0.314-2.611-0.534
	c-0.855-0.22-1.692-0.481-2.512-0.781c-0.819-0.3-1.619-0.639-2.399-1.014c-3.016-1.454-5.714-3.461-7.971-5.884
	c-0.367-0.394-0.727-0.795-1.07-1.211c-0.545-0.66-1.059-1.347-1.539-2.059c-1.201-1.778-2.195-3.709-2.944-5.757
	c-0.213-0.582-0.399-1.176-0.572-1.776c-0.071-0.245-0.145-0.488-0.209-0.736c-0.407-1.584-0.667-3.226-0.777-4.909
	c-0.038-0.587-0.065-1.177-0.065-1.774c0-2.308,0.292-4.547,0.842-6.683c0.22-0.854,0.481-1.692,0.781-2.511
	c0.75-2.048,1.743-3.978,2.944-5.757c0.481-0.711,0.995-1.398,1.539-2.059c2.452-2.972,5.534-5.404,9.041-7.094
	c0.779-0.375,1.58-0.714,2.399-1.014c0.819-0.3,1.657-0.561,2.512-0.781c0.854-0.22,1.725-0.398,2.611-0.534
	C153.423,427.108,154.489,427.017,155.568,426.982z M11.046,378.214c0.722,2.573,1.471,5.133,2.259,7.677h1.781l-1.007,2.403
	c3.882,12.153,8.525,23.963,13.87,35.381h5.481V373.57L21.817,352.51L11.046,378.214z M510.19,375l-9.567,22.831h4.964
	l-10.83,25.843h23.377v-34.27L510.19,375z M320.751,405.708h3.451l-7.529,17.967h16.252v-23.826l-5.522-10.015L320.751,405.708z
	 M150.221,402.695h4.03l-5.641,13.46c2.123,2.245,3.951,4.77,5.417,7.519h10.409v-27.82l-6.448-11.694L150.221,402.695z
	 M344.025,400.372h4.476l-4.544,10.844l5.221,12.459h10.636v-30.901l-7.162-12.988L344.025,400.372z M114.757,406.386
	c-1.108,0.285-2.194,0.623-3.256,1.012c-1.593,0.583-3.131,1.28-4.605,2.081c-0.982,0.534-1.936,1.114-2.859,1.737
	c-0.922,0.623-1.813,1.289-2.669,1.996c-0.405,0.334-0.801,0.679-1.19,1.031c-0.383,0.347-0.757,0.703-1.125,1.066
	c-0.837,0.827-1.635,1.694-2.385,2.602c-3.507,4.249-6.018,9.35-7.184,14.943c-0.408,1.955-0.642,3.971-0.705,6.032
	c-0.011,0.359-0.027,0.717-0.027,1.078c0,8.377,2.971,16.06,7.917,22.053c1.413,1.712,2.987,3.287,4.7,4.7
	c0.856,0.707,1.747,1.373,2.669,1.996c0.922,0.623,1.876,1.203,2.859,1.737c1.474,0.801,3.012,1.497,4.605,2.081
	c1.062,0.389,2.148,0.727,3.256,1.012c1.662,0.427,3.371,0.735,5.12,0.912c0.313,0.032,0.63,0.048,0.945,0.072
	c0-9.303,0-18.6,0-22.124c-0.081-0.066-0.164-0.12-0.243-0.199c-4.392-4.392-8.783-8.783-13.174-13.174
	c-2.37-2.37,1.307-6.048,3.677-3.677c3.247,3.247,6.494,6.493,9.74,9.74c0-9.105,0-18.211,0-27.317c0-1.673,1.3-2.511,2.6-2.512
	v-9.969c-1.197,0-2.379,0.061-3.545,0.179C118.128,405.651,116.418,405.959,114.757,406.386z M181.7,397.651h4.998l-7.096,16.932
	l3.81,9.092h15.92v-34.509l-7.998-14.505L181.7,397.651z M454.711,374.098l9.021,14.497l-1.412,2.605h-3.427v32.475l16.476,0V373.57
	l-11.613-21.061L454.711,374.098z M55.944,402.695h4.029l-8.792,20.98h18.977v-27.82l-6.448-11.694L55.944,402.695z"></path>
<path id="color_x5F_4_13_" fill="#D1ECE9" d="M135.939,233.665c0.194-1.501,1.322-2.706,2.793-2.99L135.939,233.665z
	 M375.121,243.548h-7.504l7.504,8.437V243.548z M146.329,222.542l4.394-4.705c-0.374-0.136-0.773-0.223-1.194-0.223
	c-1.936,0-3.506,1.57-3.506,3.506C146.023,221.627,146.135,222.106,146.329,222.542z M142.022,203.912l-4.745,5.08
	c0.591,0.453,1.321,0.733,2.123,0.733c1.936,0,3.506-1.57,3.506-3.506C142.906,205.331,142.566,204.529,142.022,203.912z
	 M149.529,161.822c-1.936,0-3.506,1.57-3.506,3.506c0,1.936,1.57,3.506,3.506,3.506c1.936,0,3.506-1.57,3.506-3.506
	C153.035,163.392,151.465,161.822,149.529,161.822z M159.658,202.712c-1.936,0-3.506,1.57-3.506,3.506
	c0,1.528,0.983,2.814,2.347,3.294l4.376-4.685C162.336,203.584,161.1,202.712,159.658,202.712z M152.889,192.277l-4.087,4.376
	c0.235,0.05,0.477,0.078,0.727,0.078c1.936,0,3.506-1.57,3.506-3.506C153.035,192.894,152.975,192.58,152.889,192.277z
	 M129.271,217.614c-0.018,0-0.034,0.005-0.052,0.005l-3.436,3.679c0.094,1.852,1.613,3.328,3.488,3.328
	c1.936,0,3.506-1.57,3.506-3.506C132.777,219.184,131.207,217.614,129.271,217.614z M129.271,189.718
	c-1.936,0-3.506,1.57-3.506,3.506s1.57,3.506,3.506,3.506c1.936,0,3.506-1.57,3.506-3.506S131.207,189.718,129.271,189.718z
	 M139.4,174.816c-1.936,0-3.506,1.57-3.506,3.506s1.57,3.506,3.506,3.506s3.506-1.57,3.506-3.506S141.336,174.816,139.4,174.816z
	 M166.281,193.224c0,1.856,1.446,3.359,3.271,3.482v-6.965C167.727,189.865,166.281,191.368,166.281,193.224z M129.271,161.822
	c-1.936,0-3.506,1.57-3.506,3.506c0,1.936,1.57,3.506,3.506,3.506c1.936,0,3.506-1.57,3.506-3.506
	C132.777,163.392,131.207,161.822,129.271,161.822z M426.627,347.083L426.627,347.083l-6.197,0v0v3.883h6.197V347.083z
	 M412.593,391.2h12.002v-2.605h-10.399L412.593,391.2z M451.313,388.595h-23.188v2.605h23.188V388.595z M63.711,384.161
	l6.448,11.694v-36.519l-10.403,24.825H63.711z M453.43,391.2h8.89l1.412-2.605H453.43V391.2z M456.634,352.51h7.123l11.613,21.061v0
	v-65.77v0L456.634,352.51z M14.694,352.51h7.123L33.43,373.57l0,0v-65.77l0,0L14.694,352.51z M212.237,374.66h-4.906l9.635,22.991
	h-4.998l7.406,17.672h29.964l-39.723-46.92L212.237,374.66z M513.76,354.857L505.318,375h4.872l7.943,14.405v-44.984l-3.875,9.246
	L513.76,354.857z M186.539,165.328c0,1.936,1.57,3.506,3.506,3.506c1.936,0,3.506-1.57,3.506-3.506c0-1.936-1.57-3.506-3.506-3.506
	C188.108,161.822,186.539,163.392,186.539,165.328z M169.787,161.822c-1.936,0-3.506,1.57-3.506,3.506
	c0,1.936,1.57,3.506,3.506,3.506c1.936,0,3.506-1.57,3.506-3.506C173.293,163.392,171.723,161.822,169.787,161.822z M126.21,147.652
	h79.861c5.673,0,10.273-4.599,10.273-10.273c0-5.673-4.599-10.273-10.273-10.273h-4.673c0.452-1.158,0.703-2.417,0.703-3.736
	c0-5.674-4.599-10.273-10.273-10.273H163.15c-5.674,0-10.273,4.599-10.273,10.273c0,1.318,0.251,2.577,0.704,3.736H126.21
	c-5.674,0-10.273,4.599-10.273,10.273C115.937,143.053,120.537,147.652,126.21,147.652z M423.786,308.488l-55.047,65.023
	l-8.926-21.299v40.562l-7.162-12.988l-8.627,20.587h1.97h0.004l-2.097,2.477l-0.001-0.003l-5.453-13.012h3.387l-8.909-21.26v0
	v31.275l0,0l-5.522-10.015l-5.123,12.226l-44.181-48.068v-59.78l-31.663-38.069v-24.822l-35.039-16.046l-1.651,0.74v-12.672h-1.466
	v0.989l-9.772,3.409l9.772,3.409v5.522L175.651,231.3l-14.146-6.51l8.046-9.51l2.331-2.753l4.637-5.478
	c-0.065-0.268-0.11-0.543-0.11-0.831c0-1.937,1.57-3.506,3.506-3.506c0.087,0,0.168,0.019,0.254,0.025l6.744-7.966
	c-0.232-0.468-0.375-0.989-0.375-1.547c0-1.936,1.57-3.506,3.506-3.506c0.353,0,0.686,0.068,1.007,0.165l7.274-8.592
	c-0.993-0.619-1.659-1.713-1.659-2.969c0-1.936,1.57-3.506,3.506-3.506c1.048,0,1.978,0.469,2.62,1.198l6.276-7.414
	c-1.326-0.5-2.273-1.771-2.273-3.272c0-1.936,1.57-3.506,3.506-3.506c1.295,0,2.413,0.71,3.02,1.754l33.108-39.108l0,0v0
	l0.009,106.856l35.043-16.048l35.043,16.048l14.754-6.632l15.964,18.856h18.783l9.094,10.224l0,62.988l4.038,5.844v-64.291
	l37.132,41.749l0.834,7.402h5.749l0.909,1.022L423.786,308.488z M292.95,230.767h-1.466v0.988l-9.772,3.409l9.772,3.409v21.022
	h1.466V230.767z M333.919,295.04h-1.592v1.073l-10.61,3.701l10.61,3.701v22.825h1.592V295.04z M544.516,235.147h23.737
	c3.719,0,6.734-3.015,6.734-6.734s-3.015-6.734-6.734-6.734h-3.063c0.297-0.759,0.461-1.585,0.461-2.449
	c0-3.719-3.015-6.734-6.734-6.734h-18.801c-3.719,0-6.734,3.015-6.734,6.734c0,0.864,0.165,1.69,0.461,2.449h-0.729L544.516,235.147
	z M163.16,206.261l-3.207,3.434C161.734,209.544,163.137,208.077,163.16,206.261z M595.154,289.328h-4.769l-11.906-14.064
	l-11.004,4.946l-26.137-11.97l-26.137,11.97l-0.007-79.699l-63.345,74.824l0.003,0.001l10.551,4.856l26.661-11.952l26.134,11.968
	v18.513l23.616,28.394v44.587l34.715,37.769c14.011-34.53,21.747-72.276,21.747-111.834
	C595.276,294.858,595.23,292.089,595.154,289.328z M171.882,195.184l1.36-1.456c0.024-0.166,0.051-0.331,0.051-0.503
	c0-1.148-0.559-2.157-1.411-2.796V195.184z M139.4,237.62c1.936,0,3.506-1.57,3.506-3.506c0-1.624-1.11-2.977-2.609-3.376
	l-4.203,4.5C136.565,236.62,137.859,237.62,139.4,237.62z M195.86,352.155l3.473-8.288v45.299l-7.998-14.505l-9.634,22.991h4.998
	l-7.096,16.932l-4.981-11.888h4.029l-7.767-18.535h3.955l-10.403-24.825v0v36.518l0,0l-6.448-11.694l-7.767,18.535h4.03
	l-5.292,12.628h-1.154c-2.249-2.225-4.801-4.143-7.588-5.689l-29.071-31.629v-39.18l-20.752-24.95v-16.268L67.429,287.09
	l-23.428,10.503l-9.271-4.267l55.661-65.751l0.006,70.033l22.967-10.518l22.967,10.518l9.67-4.346L195.86,352.155z M142.022,297.671
	h-1.565v1.055l-10.433,3.639l10.433,3.639v22.443h1.565V297.671z M129.271,245.51c-1.936,0-3.506,1.57-3.506,3.506
	c0,1.936,1.57,3.506,3.506,3.506c1.936,0,3.506-1.57,3.506-3.506C132.777,247.08,131.207,245.51,129.271,245.51z M320.216,498.328
	l-0.173,1.227h-1.988l0.093-2.036l0,0c-0.992-0.248-2.161-0.405-3.557-0.405c-0.238,0-0.476,0-0.714,0h0l-0.344,2.441h-1.988
	l0.111-2.441c-8.409,0-16.817,0-25.226,0l-0.155,2.441h-1.988v-2.441c-1.438,0-2.876,0-4.314,0c-0.409,0-0.776,0.029-1.15,0.053
	l-0.151,2.388h-1.988v-2.108c-6.176,1.375-5.097,6.603,3.289,6.603c11.539,0,23.078,0,34.618,0
	C321.669,504.05,323.536,500.315,320.216,498.328z M153.035,221.12c0-1.077-0.496-2.028-1.259-2.671l-4.766,5.102
	c0.638,0.661,1.528,1.075,2.519,1.075C151.465,224.627,153.035,223.057,153.035,221.12z M440.614,423.675h0.578h17.702v-4h-18.28
	V423.675z M409.652,423.675h19.398v-4h-19.398V423.675z M182.122,181.027c0.787-0.643,1.301-1.609,1.301-2.705
	c0-1.936-1.57-3.506-3.506-3.506s-3.506,1.57-3.506,3.506c0,0.047,0.012,0.091,0.014,0.137h2.052l-0.655,2.568H182.122z
	 M159.658,174.816c-1.936,0-3.506,1.57-3.506,3.506c0,1.096,0.513,2.062,1.301,2.705h4.411c0.62-0.507,1.072-1.21,1.232-2.026
	l-0.138-0.542h0.193c0.002-0.047,0.014-0.09,0.014-0.137C163.164,176.386,161.594,174.816,159.658,174.816z M141.094,203.166
	c-0.504-0.281-1.076-0.454-1.694-0.454c-1.936,0-3.506,1.57-3.506,3.506c0,0.704,0.212,1.357,0.569,1.906L141.094,203.166z
	 M414.273,282.143h3.522h1.023l-2.14-2.528l-30.534-36.067h-6.985v12.977l36.902,41.489L414.273,282.143z M152.331,191.136
	c-0.639-0.856-1.651-1.418-2.802-1.418c-1.936,0-3.506,1.57-3.506,3.506c0,1.236,0.643,2.317,1.61,2.942L152.331,191.136z"></path>
<path id="color_x5F_3_13_" fill="#51AEB9" d="M573.528,409.472c-0.795,1.961-1.608,3.912-2.444,5.852H538.01l-7.33-17.492h4.964
	L526.076,375l0,0h4.872l-12.814-30.58l-3.875,9.246l-34.705-35.882l-4.184-9.984l-1.654,3.948l-25.285-26.142l0.39-3.463h-2.732
	l5.763-6.807l10.551,4.856l26.661-11.952l26.134,11.968v18.513l23.616,28.394v44.587L573.528,409.472z M319.084,467.231v9.957h0.954
	c1.632,0,2.903,1.416,2.728,3.039l-0.295,2.091h30.435c1.806-2.203,2.891-5.019,2.891-8.09v-0.854h182.059
	c1.359-1.854,2.697-3.724,4.014-5.611H322.714C321.452,467.762,320.236,467.572,319.084,467.231z M294.776,432.953
	c-0.29,0.29-0.662,0.496-1.079,0.582c-0.034,0.007-0.664,0.013-1.591,0.019c-2.817,0.016-8.387,0.025-8.387,0.025v5.309h275.961
	c1.079-1.998,2.14-4.007,3.174-6.032H294.857C294.829,432.886,294.806,432.923,294.776,432.953z M14.694,352.51h7.123
	l-10.771,25.704c-4.197-14.959-7.241-30.397-9.059-46.21l32.744-38.678l9.271,4.267l23.428-10.503l22.965,10.517v16.268
	l20.752,24.95v39.18l29.071,31.629c-4.976-2.762-10.7-4.339-16.795-4.339c-1.197,0-2.379,0.061-3.545,0.179
	c-1.748,0.178-3.458,0.485-5.12,0.913c-1.108,0.285-2.194,0.623-3.256,1.012c-1.593,0.583-3.131,1.28-4.605,2.081
	c-0.982,0.534-1.936,1.114-2.859,1.737c-0.922,0.623-1.813,1.289-2.669,1.996c-0.405,0.334-0.802,0.678-1.19,1.031
	c-0.383,0.347-0.757,0.703-1.125,1.066c-0.005,0.005-0.01,0.01-0.015,0.014H85.636l-5.292-12.628h4.029l-7.767-18.535h3.955
	l-10.403-24.825l-10.403,24.825h3.955l-6.331,15.108l-5.606-13.378h7.257L45.043,352.51v0h7.123L33.43,307.8v0l0,0L14.694,352.51z
	 M84.963,338.105l15.583,5.436v33.522h2.338v-45.97h-2.338v1.576L84.963,338.105z M187.032,471.863v2.364
	c0,3.071,1.085,5.887,2.891,8.09h86.761v-17.938v-5.287h-76.881C192.75,459.092,187.032,464.81,187.032,471.863z M531.544,459.967
	c5.196,0,10.392,0,15.587,0c2.809-4.308,5.514-8.689,8.102-13.148c-7.897,0-15.793,0-23.69,0
	C523.084,446.818,523.07,459.967,531.544,459.967z M471.606,496.258c8.46,0,8.474-13.148,0-13.148c-10.129,0-20.258,0-30.387,0
	c-8.46,0-8.474,13.148,0,13.148C451.348,496.258,461.477,496.258,471.606,496.258z M316.256,479.664
	c0.018,0.184,0.021,0.371,0,0.562l-0.295,2.091h2.859C318.782,480.9,317.671,479.75,316.256,479.664z M14.079,388.294l1.007-2.403
	h-1.781C13.555,386.696,13.822,387.492,14.079,388.294z M437.642,318.319c2.701,0,2.808,3.998,0.346,4.348l2.402,2.701
	c0.119-0.018,0.237-0.036,0.368-0.036c1.656,0,2.332,1.504,2.046,2.75l16.359,18.393l14.053-33.535l-24.958-25.804v0l-2.291,20.328
	h-21.314l-0.092,0.108l9.559,10.747C435.294,318.319,436.468,318.319,437.642,318.319z M353.945,562.513
	c-12.359,0-24.719,0-37.078,0c-10.323,0-10.34,16.043,0,16.043c12.359,0,24.719,0,37.078,0
	C364.268,578.556,364.285,562.513,353.945,562.513z M371.368,379.786L371.368,379.786l-2.629-6.275l55.047-65.023l8.744,9.831
	c-2.062,0-4.125,0-6.187,0c-2.82,0-2.825,4.383,0,4.383c0.974,0,0.487,0,1.461,0c1.51,0,1.51,2.63,0,2.63c-4.091,0-6.72,0-10.811,0
	c-2.82,0-2.824,4.383,0,4.383c1.331,0,1.347,0,2.679,0c1.412,0,2.435,0.243,2.435,1.704c0,1.558-1.12,1.704-2.435,1.704
	c-2.82,0-2.679,4.383,0.146,4.383c3.214,0,6.428,0,9.642,0c2.82,0,2.825-4.383,0-4.383c-1.364,0-0.633,0-1.997,0
	c-2.337,0-2.63-3.409,0-3.409c3.068,0,4.042,0,7.11,0c2.82,0,2.825-4.383,0-4.383c-0.309,0-0.617,0-0.925,0
	c-1.899,0-1.996-2.63,0-2.63c0.927,0,1.854,0,2.78,0l2.854,3.209c-1.194,1.188-0.71,3.803,1.475,3.803
	c0.612,0,1.083-0.214,1.43-0.537l16.466,18.513l-2.02,4.82h6.307l0.555,0.624l-8.785,20.964l-10.868-17.463
	c-0.335-0.539-0.926-0.867-1.562-0.867h-9.068v-4.802h1.339v-3.883h-1.339h-6.423h-0.164v0h-6.197v0v3.883v0h1.339v4.801
	l0.001,0.001h-29.023l-0.001,0c-0.477,0-0.928,0.185-1.266,0.504c-0.021,0.02-0.035,0.046-0.054,0.067
	c-0.088,0.091-0.173,0.186-0.242,0.296l-19.889,31.96l2.016,2.58l1.534-2.58l17.676-29.721l1.387,2.234L377,388.592v25.797l0,0
	l-5.874-14.017h4.476l-8.627-20.587H371.368z M429.12,343.203c2.82,0,2.825-4.383,0-4.383
	C426.3,338.82,426.295,343.203,429.12,343.203z M419.721,322.702c2.82,0,2.825-4.383,0-4.383
	C416.901,318.319,416.896,322.702,419.721,322.702z M288.018,472.048l-0.65,10.269h24.943c-0.04-1.474-1.236-2.67-2.731-2.67h-1.716
	c-1.457,0-2.639-1.181-2.639-2.638v-4.96H288.018z M480.816,320.797l13.29,31.713h-7.123l13.989,33.381h-7.257l8.438,20.136v0
	l3.434-8.195h-4.964L510.19,375h-4.872l8.441-20.143L480.816,320.797z M229.216,522.415h263.52
	c-10.698,9.293-22.068,17.833-34.024,25.542H229.216c-7.053,0-12.771-5.718-12.771-12.771
	C216.445,528.133,222.162,522.415,229.216,522.415z M330.19,541.546c8.46,0,8.474-13.148,0-13.148
	C321.73,528.398,321.716,541.546,330.19,541.546z M259.676,541.546c10.129,0,20.258,0,30.387,0c8.46,0,8.474-13.148,0-13.148
	c-10.129,0-20.258,0-30.387,0C251.216,528.398,251.202,541.546,259.676,541.546z M237.471,541.546c8.46,0,8.474-13.148,0-13.148
	C229.01,528.398,228.996,541.546,237.471,541.546z M381.041,562.513c-10.323,0-10.34,16.043,0,16.043
	C391.364,578.556,391.382,562.513,381.041,562.513z M480.956,459.967c8.46,0,8.474-13.148,0-13.148c-10.129,0-20.258,0-30.387,0
	c-8.46,0-8.474,13.148,0,13.148C460.698,459.967,470.827,459.967,480.956,459.967z M89.484,432.854H32.421
	c1.034,2.025,2.095,4.034,3.174,6.032h53.184C88.842,436.826,89.077,434.809,89.484,432.854z M276.684,432.854h-17.51
	c0.001,0.059,0.009,2.538,0.009,2.538c0,1.213-0.18,2.382-0.496,3.494c-1.521,5.353-6.435,9.277-12.275,9.277h-63.796
	c0.376,1.787,0.577,3.638,0.577,5.537c0,0.478-0.013,0.952-0.038,1.423h63.258c7.053,0,12.771-5.718,12.771-12.771v-3.467h17.501
	V432.854z M413.765,502.369c0-1.266-0.19-2.486-0.533-3.64c-1.568,5.278-6.45,9.131-12.237,9.131H86.942
	c2.469,2.475,4.993,4.894,7.548,7.281h306.505C408.048,515.14,413.765,509.422,413.765,502.369z M282.478,471.808
	c-0.206-0.052-0.711-0.216-0.763-0.235c-0.218-0.08-0.43-0.169-0.638-0.267c-0.016-0.007-0.032-0.012-0.048-0.02
	c-0.005-0.003-0.009-0.007-0.015-0.01c-0.182-0.088-0.36-0.182-0.534-0.284l-0.717,11.326h4.524v-10.272
	c-0.262-0.002-0.919-0.068-0.992-0.078C283.089,471.939,282.547,471.825,282.478,471.808z M343.956,411.216l4.544-10.844h-2.502
	l-2.097,2.477l1.198,2.858h-3.451L343.956,411.216z M146.001,293.262l-21.232-25.079l36.736-43.393l14.146,6.51l32.629-14.627v15.5
	h1.466v-16.157l1.651-0.74l35.039,16.046v24.822l31.663,38.069v59.78l44.181,48.068l-1.528,3.647h3.451l-4.03,9.616h-15.247
	c1.229-0.579,2.176-1.598,2.534-3.405c0.576-2.906,0.101-6.24,0.101-9.191c0-1.475-2.289-1.473-2.289,0
	c0,3.099,1.38,10.376-2.823,11.062c-0.952,0.155-1.955,0.206-2.975,0.211c0-2.385,0-4.769,0-7.154c0-1.475-2.289-1.473-2.289,0
	c0,2.368,0,7.103,0,7.103l-5.493-0.186c0,0,0-2.984,0-4.475c0-1.475-2.289-1.473-2.289,0c0,1.478,0,2.956,0,4.434
	c-1.481,0.026-2.934,0.223-4.12,0.97c0-0.581,0-1.161,0-1.742c0-1.475-2.289-1.473-2.289,0c0,0.417,0,1.281,0,2.373h-2.258
	c0-1.093,0-1.956,0-2.373c0-1.473-2.289-1.475-2.289,0c0,0.581,0,1.161,0,1.742c-1.186-0.746-2.639-0.943-4.12-0.97
	c0-1.478,0-2.956,0-4.434c0-1.473-2.289-1.475-2.289,0c0,1.492,0,4.475,0,4.475l-5.493,0.186c0,0,0-4.736,0-7.103
	c0-1.473-2.289-1.475-2.289,0c0,2.385,0,4.769,0,7.154c-1.02-0.005-2.023-0.056-2.975-0.211c-4.202-0.686-2.823-7.963-2.823-11.062
	c0-1.473-2.289-1.475-2.289,0c0,2.951-0.475,6.285,0.101,9.191c0.358,1.808,1.305,2.827,2.534,3.405h-9.468l-39.723-46.92
	l-10.282-24.536l-3.473,8.288L146.001,293.262L146.001,293.262z M243.605,326.111l15.583,5.436v33.522h2.337v-45.97h-2.337v1.576
	L243.605,326.111z M154.961,250.255l10.61,3.701v22.825h1.592V245.48h-1.592v1.074L154.961,250.255z M59.973,402.695h-1.157
	l0.578,1.381L59.973,402.695z"></path>
<path id="color_x5F_2_13_" fill="#FFFFFF" d="M421.769,355.767L421.769,355.767L421.769,355.767L421.769,355.767z M454.711,374.098
	l-10.868-17.463c-0.335-0.539-0.926-0.867-1.562-0.867h-9.068v7.31h-6.379l-0.044-0.073l-5.021-7.237h-29.023
	c0.635,0,1.225,0.328,1.561,0.867l8.109,13.03v12.225c0,0.455,0.474,0.824,1.059,0.824c0.585,0,1.059-0.369,1.059-0.824v-8.822
	l9.662,15.527h10.399v5.811c0,0.699,0.566,1.265,1.265,1.265h1c0.699,0,1.265-0.566,1.265-1.265v-5.811h23.188v5.248
	c0,0.484,0.392,0.876,0.877,0.876h0.365c0.484,0,0.877-0.392,0.877-0.876v-5.248h10.302L454.711,374.098z M429.12,338.82
	c-2.82,0-2.825,4.383,0,4.383C431.94,343.203,431.944,338.82,429.12,338.82z M419.721,322.702c2.82,0,2.825-4.383,0-4.383
	C416.901,318.319,416.896,322.702,419.721,322.702z M475.37,307.8L475.37,307.8v65.77v0l11.612-21.061h7.123L475.37,307.8z
	 M445.082,282.143l1.38,1.426h2.199l0.161-1.426 M90.393,227.579v-0.003l-0.001,0.002l-0.001-0.002l0.006,70.033l22.967-10.518
	l22.967,10.518l9.67-4.346h0 M284.288,467.581c-0.354-0.494-0.568-1.094-0.568-1.748v-32.255h-2.592
	c-0.686,0-1.242,0.556-1.242,1.242l-0.039,34.518c-0.001,0.813,0.44,1.577,1.168,1.938c0.005,0.003,0.009,0.007,0.015,0.01
	c0.016,0.008,0.032,0.013,0.048,0.02c0.208,0.099,0.42,0.187,0.638,0.267c0.052,0.019,0.557,0.183,0.763,0.235
	c0.069,0.017,0.612,0.131,0.818,0.159c0.072,0.01,0.73,0.075,0.992,0.077V467.581z M420.649,256.882
	c0.323-0.53,0.519-1.147,0.519-1.813c0-1.936-1.57-3.506-3.506-3.506c-0.624,0-1.202,0.177-1.71,0.463L420.649,256.882z
	 M278.823,497.167c0.374-0.024,0.741-0.053,1.15-0.053c1.438,0,2.876,0,4.314,0v-14.796h-4.524L278.823,497.167z M286.43,497.114
	c8.409,0,16.817,0,25.226,0l0.665-14.63c0.002-0.057-0.01-0.11-0.011-0.166h-24.943L286.43,497.114z M311.736,471.815
	c0-1.641-1.33-2.971-2.971-2.971h-20.543l-0.203,3.205h23.718V471.815z M318.148,497.519c0,0,0.674-15.146,0.672-15.202h-2.859
	l-2.084,14.796c0.238,0,0.476,0,0.714,0C315.987,497.114,317.156,497.271,318.148,497.519z M312.464,153.138h2.013
	c-0.312-0.124-0.65-0.197-1.006-0.197C313.114,152.942,312.776,153.015,312.464,153.138z M330.008,203.052H312.96l-1.358-1.604
	l-65.167-76.975v-0.005l-0.002,0.003l-0.002-0.003l0.009,106.856l35.043-16.048l35.043,16.048l14.754-6.632h0l-0.305-0.361h-22.754
	l-2.235-20.081h25.087 M332.925,368.574v31.275v0l5.522-10.015h3.387L332.925,368.574L332.925,368.574z M415.299,284.64
	l1.869,14.265h1.634l-1.552-14.265H415.299z M433.648,322.702c0.927,0,4.227-0.018,4.34-0.034c2.462-0.35,2.355-4.348-0.346-4.348
	c-1.174,0-9.236,0-11.298,0c-2.82,0-2.825,4.383,0,4.383c0.974,0,0.487,0,1.461,0c1.51,0,1.51,2.63,0,2.63c-4.091,0-6.72,0-10.811,0
	c-2.82,0-2.824,4.383,0,4.383c1.331,0,1.347,0,2.679,0c1.412,0,2.435,0.243,2.435,1.704c0,1.558-1.12,1.704-2.435,1.704
	c-2.82,0-2.679,4.383,0.146,4.383c3.214,0,6.428,0,9.642,0c2.82,0,2.825-4.383,0-4.383c-1.364,0-0.633,0-1.997,0
	c-2.337,0-2.63-3.409,0-3.409c3.068,0,4.042,0,7.11,0c2.82,0,2.825-4.383,0-4.383c-0.309,0-0.617,0-0.925,0
	C431.749,325.331,431.652,322.702,433.648,322.702z M419.925,301.044l-1.969-17.474l2.139,18.979L419.925,301.044z M440.758,329.714
	c0.612,0,1.083-0.214,1.43-0.537c0.314-0.293,0.52-0.677,0.616-1.095c0.286-1.246-0.39-2.75-2.046-2.75
	c-0.131,0-0.249,0.018-0.368,0.036c-0.461,0.07-0.829,0.266-1.107,0.543C438.089,327.099,438.573,329.714,440.758,329.714z
	 M154.027,423.675c0.57,1.07,1.083,2.174,1.541,3.307c0.294-0.01,0.587-0.022,0.883-0.022c12.87,0,23.613,9.093,26.164,21.204
	h63.796c5.84,0,10.754-3.925,12.275-9.277c0.316-1.112,0.496-2.281,0.496-3.494c0,0-0.008-2.48-0.009-2.538h17.51v-6.066
	c0-0.311,0.064-0.607,0.168-0.882c-1.433,0.04-2.879-0.478-3.973-1.573c-1.416-1.416-1.879-3.421-1.398-5.226
	c1.805-0.481,3.81-0.018,5.226,1.398c1.092,1.092,1.611,2.533,1.573,3.963c0.054-0.021,0.111-0.035,0.167-0.052
	c0-1.372,0-2.744,0-4.116c0-2.266-0.798-3.92-3.315-4.224c-3.602-0.434-7.517,0-11.146,0c-1.788,0-3.692-0.053-5.182-0.755h-39.433
	l3.5,8.352H154.027z M212.237,374.66l-12.904-30.793v45.299l7.998-14.505H212.237z M439.933,284.64l-0.156,3.558l5.784-3.558
	H439.933z M402.025,407.909l5.536,6.824v-13.988h-5.536V407.909z M326.19,205.15L326.19,205.15h-8.735h0l0.386,8.784l8.184-5.035
	L326.19,205.15z M311.602,179.479c0.49,0.459,1.144,0.745,1.868,0.745c1.513,0,2.74-1.227,2.74-2.74c0-1.513-1.227-2.74-2.74-2.74
	c-0.724,0-1.378,0.286-1.868,0.745V179.479z M334.861,203.052h-3.264l1.066,1.199h2.062L334.861,203.052z M438.505,284.64
	L438.505,284.64h-10.393h0l0.459,10.452l9.738-5.991L438.505,284.64z M306.687,205.15l1.571,11.989h1.373l-1.305-11.989H306.687z
	 M311.525,205.15h-0.043l1.149,11.989l4.041-2.486l-0.417-9.503h0H311.525z M297.638,158.422c0.59,0,1.132-0.19,1.579-0.507h-3.158
	C296.505,158.232,297.048,158.422,297.638,158.422z M308.274,165.637c-0.104-1.418-1.275-2.54-2.72-2.54
	c-1.513,0-2.74,1.227-2.74,2.74s1.227,2.74,2.74,2.74c1.445,0,2.616-1.122,2.72-2.54V165.637z M311.602,197.291v3.99
	c0.49,0.459,1.144,0.745,1.868,0.745c1.513,0,2.74-1.227,2.74-2.74s-1.227-2.74-2.74-2.74
	C312.746,196.546,312.092,196.832,311.602,197.291z M331.874,205.15h-4.484l-0.131,2.991l4.702-2.893 M164.436,359.336
	L164.436,359.336v36.518v0l6.448-11.694h3.955L164.436,359.336z M296.631,153.138h2.013c-0.312-0.124-0.65-0.197-1.006-0.197
	C297.281,152.942,296.944,153.015,296.631,153.138z M426.627,347.083v3.883l7.926,0v-3.883h-7.762H426.627z M428.102,264.588
	l3.175,3.283C431.181,266.131,429.826,264.742,428.102,264.588z M400.752,400.745h-4.538l4.538,5.594V400.745z M385.539,400.745
	h-4.538l4.538,5.594V400.745z M541.338,268.24l26.137,11.97l11.004-4.946l-33.963-40.117l-11.403-13.469l-17.917-21.163v-0.004
	l-0.001,0.002l-0.002-0.002l0.007,79.699L541.338,268.24z M76.607,384.161h3.955l-10.403-24.825v36.519L76.607,384.161z
	 M392.349,414.733v-13.988h-5.536v7.164L392.349,414.733z M33.43,307.801v65.77v0l11.613-21.061v0h7.123L33.43,307.801
	L33.43,307.801z M305.554,184.899c-1.513,0-2.74,1.227-2.74,2.74c0,1.513,1.227,2.74,2.74,2.74c1.445,0,2.616-1.122,2.72-2.54
	v-0.401C308.17,186.021,306.999,184.899,305.554,184.899z M421.06,282.143c-0.371-1.538-1.747-2.685-3.399-2.685
	c-0.344,0-0.669,0.065-0.983,0.157l2.14,2.528h-4.546l1.788,15.871l-1.595-14.445h30.343l-1.38-1.426h-2.112
	c-0.371-1.538-1.747-2.685-3.399-2.685c-1.391,0-2.582,0.816-3.148,1.99h2.543l0.201,0.695H421.06z M147.805,415.323
	c0.274,0.272,0.54,0.552,0.805,0.832l0.349-0.832H147.805z M427.31,298.905l-0.627-14.265h0h-5.627h-0.051l1.367,14.265l4.808-2.958
	L427.31,298.905z M426.627,264.77c-1.361,0.482-2.343,1.767-2.343,3.293c0,1.936,1.57,3.506,3.506,3.506
	c0.674,0,1.296-0.199,1.831-0.528l0.091-1.045l-1.521-1.035l-0.178-2.184l0.448-0.111L426.627,264.77z M526.076,375L526.076,375
	h4.872l-12.814-30.58v44.984L526.076,375z M359.813,392.774l7.162-12.988h4.393h0l-11.555-27.574V392.774z M415.027,252.777
	c-0.536,0.616-0.872,1.411-0.872,2.292c0,1.936,1.57,3.506,3.506,3.506c0.839,0,1.599-0.307,2.202-0.798L415.027,252.777z
	 M282.994,415.323h-2.258c0,2.665,0,6.686,0,8.974h2.258C282.994,422.009,282.994,417.988,282.994,415.323z M313.47,158.422
	c0.59,0,1.132-0.19,1.579-0.507h-3.159C312.338,158.232,312.881,158.422,313.47,158.422z M478.435,230.679
	c1.936,0,3.506-1.57,3.506-3.506s-1.57-3.506-3.506-3.506c-1.937,0-3.506,1.57-3.506,3.506S476.499,230.679,478.435,230.679z
	 M492.07,212.271c0-1.937-1.57-3.506-3.506-3.506s-3.506,1.57-3.506,3.506c0,1.936,1.57,3.506,3.506,3.506
	S492.07,214.207,492.07,212.271z M468.306,215.777c1.937,0,3.506-1.57,3.506-3.506c0-1.937-1.57-3.506-3.506-3.506
	c-1.936,0-3.506,1.57-3.506,3.506C464.8,214.207,466.37,215.777,468.306,215.777z M458.177,202.783c1.937,0,3.506-1.57,3.506-3.506
	s-1.57-3.506-3.506-3.506c-1.936,0-3.506,1.57-3.506,3.506S456.241,202.783,458.177,202.783z M468.306,243.673
	c1.937,0,3.506-1.57,3.506-3.506c0-1.936-1.57-3.506-3.506-3.506c-1.936,0-3.506,1.57-3.506,3.506
	C464.8,242.103,466.37,243.673,468.306,243.673z M502.199,199.277c0-1.936-1.57-3.506-3.506-3.506c-1.936,0-3.506,1.57-3.506,3.506
	s1.57,3.506,3.506,3.506C500.63,202.783,502.199,201.213,502.199,199.277z M458.177,230.679c1.937,0,3.506-1.57,3.506-3.506
	s-1.57-3.506-3.506-3.506c-1.936,0-3.506,1.57-3.506,3.506S456.241,230.679,458.177,230.679z M281.805,152.942
	c-1.513,0-2.74,1.227-2.74,2.74c0,1.513,1.227,2.74,2.74,2.74c1.513,0,2.74-1.227,2.74-2.74
	C284.546,154.169,283.319,152.942,281.805,152.942z M360.903,97.329c0-23.022,18.663-41.685,41.685-41.685
	c23.022,0,41.685,18.663,41.685,41.685s-18.663,41.685-41.685,41.685C379.566,139.014,360.903,120.351,360.903,97.329z
	 M416.412,130.196c13.264-5.616,21.527-18.622,21.881-32.867c0.094-3.762-5.75-3.76-5.844,0c-0.339,13.6-9.371,25.621-22.727,28.992
	c-12.954,3.269-26.864-2.983-33.276-14.644c-6.488-11.798-4.145-26.676,5.61-35.956c11.073-10.534,27.51-10.504,39.47-1.524
	c3.008,2.258,5.924-2.813,2.949-5.046c-22.059-16.562-54.85-2.915-57.443,24.945C364.585,120.394,392.13,140.476,416.412,130.196z
	 M402.587,74.223c-12.76,0-23.105,10.345-23.105,23.106c0,12.761,10.345,23.105,23.105,23.105c12.761,0,23.106-10.345,23.106-23.105
	C425.693,84.568,415.349,74.223,402.587,74.223z M402.587,79.346c-9.932,0-17.983,8.051-17.983,17.983s8.051,17.983,17.983,17.983
	c9.932,0,17.983-8.051,17.983-17.983S412.519,79.346,402.587,79.346z M444.024,166.486h-27.371c-5.674,0-10.273,4.599-10.273,10.273
	c0,5.673,4.599,10.273,10.273,10.273h79.861c5.674,0,10.273-4.599,10.273-10.273c0-5.674-4.599-10.273-10.273-10.273h-4.672
	c0.452-1.158,0.704-2.417,0.704-3.736c0-5.673-4.599-10.273-10.273-10.273h-28.679c-5.673,0-10.273,4.599-10.273,10.273
	C443.321,164.069,443.572,165.328,444.024,166.486z M437.919,258.575c1.936,0,3.506-1.57,3.506-3.506
	c0-1.936-1.57-3.506-3.506-3.506c-1.936,0-3.506,1.57-3.506,3.506C434.413,257.005,435.983,258.575,437.919,258.575z
	 M437.919,230.679c1.936,0,3.506-1.57,3.506-3.506s-1.57-3.506-3.506-3.506c-1.936,0-3.506,1.57-3.506,3.506
	S435.983,230.679,437.919,230.679z M281.805,131.14c-1.513,0-2.74,1.227-2.74,2.74c0,1.513,1.227,2.74,2.74,2.74
	c1.513,0,2.74-1.227,2.74-2.74C284.546,132.367,283.319,131.14,281.805,131.14z M427.79,215.777c1.937,0,3.506-1.57,3.506-3.506
	c0-1.937-1.57-3.506-3.506-3.506c-1.936,0-3.506,1.57-3.506,3.506C424.284,214.207,425.854,215.777,427.79,215.777z M427.79,243.673
	c1.937,0,3.506-1.57,3.506-3.506c0-1.936-1.57-3.506-3.506-3.506c-1.936,0-3.506,1.57-3.506,3.506
	C424.284,242.103,425.854,243.673,427.79,243.673z M417.661,202.783c1.936,0,3.506-1.57,3.506-3.506s-1.57-3.506-3.506-3.506
	s-3.506,1.57-3.506,3.506S415.725,202.783,417.661,202.783z M448.048,243.673c1.936,0,3.506-1.57,3.506-3.506
	c0-1.936-1.57-3.506-3.506-3.506c-1.936,0-3.506,1.57-3.506,3.506C444.542,242.103,446.112,243.673,448.048,243.673z
	 M448.048,215.777c1.936,0,3.506-1.57,3.506-3.506c0-1.937-1.57-3.506-3.506-3.506c-1.936,0-3.506,1.57-3.506,3.506
	C444.542,214.207,446.112,215.777,448.048,215.777z M458.177,258.575c1.937,0,3.506-1.57,3.506-3.506
	c0-1.936-1.57-3.506-3.506-3.506c-1.936,0-3.506,1.57-3.506,3.506C454.671,257.005,456.241,258.575,458.177,258.575z
	 M437.919,202.783c1.936,0,3.506-1.57,3.506-3.506s-1.57-3.506-3.506-3.506c-1.936,0-3.506,1.57-3.506,3.506
	S435.983,202.783,437.919,202.783z M417.661,230.679c1.936,0,3.506-1.57,3.506-3.506s-1.57-3.506-3.506-3.506
	s-3.506,1.57-3.506,3.506S415.725,230.679,417.661,230.679z M448.048,271.569c1.936,0,3.506-1.57,3.506-3.506
	s-1.57-3.506-3.506-3.506c-1.936,0-3.506,1.57-3.506,3.506S446.112,271.569,448.048,271.569z M264.192,555.232H148.455
	c18.942,10.994,39.203,19.967,60.496,26.604h55.241c7.347,0,13.302-5.956,13.302-13.302v0
	C277.494,561.188,271.539,555.232,264.192,555.232z M277.559,98.966h40.157c4.797,0,8.687-3.889,8.687-8.687
	c0-4.797-3.889-8.686-8.687-8.686h-3.951c0.383-0.979,0.595-2.044,0.595-3.159c0-4.798-3.889-8.687-8.686-8.687h-10.661
	c-4.797,0-8.686,3.889-8.686,8.687c0,1.115,0.212,2.179,0.595,3.159h-9.362c-4.798,0-8.687,3.889-8.687,8.686
	C268.873,95.076,272.762,98.966,277.559,98.966z M96.668,417.911c0.75-0.908,1.548-1.775,2.385-2.602
	c-0.005,0.005-0.01,0.01-0.015,0.014H85.636l3.5,8.352H27.949l4.472,9.18h57.064C90.65,427.261,93.162,422.161,96.668,417.911z
	 M36.386,213.683h76.522c5.436,0,9.843-4.407,9.843-9.843v0c0-5.436-4.407-9.843-9.843-9.843h-4.477
	c0.434-1.11,0.674-2.316,0.674-3.579c0-5.436-4.407-9.843-9.843-9.843h-27.48c-5.436,0-9.843,4.407-9.843,9.843
	c0,1.263,0.241,2.47,0.674,3.579H36.386c-5.436,0-9.843,4.407-9.843,9.843v0C26.543,209.276,30.95,213.683,36.386,213.683z
	 M400.995,482.318h-48.088h-30.435l-2.256,16.011c3.321,1.987,1.454,5.722-5.625,5.722c-11.539,0-23.078,0-34.618,0
	c-8.386,0-9.465-5.228-3.289-6.603v-15.129H158.457c0,5.919,0,12.812,0,15.773c0,2.581-4.011,2.585-4.011,0
	c0-2.454,0-8.957,0-15.773h-28.425c0,6.552,0,12.896,0,15.198c0,3.346-5.201,3.352-5.201,0c0-1.958,0-8.046,0-15.198H64.225
	c7.086,8.943,14.668,17.475,22.717,25.542h314.053c5.787,0,10.669-3.852,12.237-9.131c0.343-1.154,0.533-2.375,0.533-3.64
	C413.765,488.035,408.048,482.318,400.995,482.318z M541.51,423.675H316.673l3.5-8.352h-15.247c-1.49,0.702-3.394,0.755-5.182,0.755
	c-3.628,0-7.544-0.434-11.146,0c-2.517,0.303-3.315,1.958-3.315,4.224c0,1.342,0,2.683,0,4.025c0.271,0.016,0.54,0.043,0.801,0.104
	c-0.027-1.417,0.494-2.842,1.576-3.924c1.416-1.416,3.421-1.879,5.226-1.398c0.481,1.805,0.018,3.81-1.398,5.226
	c-0.84,0.84-1.889,1.336-2.979,1.507c0.007,0.007,0.015,0.012,0.022,0.019l1.802,1.989c0.627,0.692,1.518,1.087,2.452,1.087h0.482h0
	c0.147,0,0.291,0.015,0.43,0.043c0.417,0.085,0.789,0.292,1.079,0.582c0.386,0.386,0.625,0.92,0.625,1.509v0.371
	c0,0.544-0.21,1.034-0.544,1.411h267.998c2.93-5.736,5.668-11.587,8.229-17.531H538.01L541.51,423.675z M281.805,109.338
	c-1.513,0-2.74,1.227-2.74,2.74c0,1.513,1.227,2.74,2.74,2.74c1.513,0,2.74-1.227,2.74-2.74
	C284.546,110.565,283.319,109.338,281.805,109.338z M322.714,442.22h235.123c-0.857,1.54-1.72,3.076-2.604,4.598
	c-7.897,0-15.793,0-23.69,0c-8.46,0-8.474,13.148,0,13.148c5.196,0,10.392,0,15.587,0c-1.713,2.628-3.468,5.226-5.261,7.795H322.714
	c-1.262,0-2.479-0.19-3.63-0.531v9.957c0,0-0.057-17.393-0.163-17.902h0.178c1.476,0,2.904-0.325,4.218-0.9v0.016
	c0.082-0.036,0.157-0.086,0.238-0.124c0.283-0.132,0.56-0.276,0.83-0.433c0.136-0.079,0.271-0.159,0.403-0.244
	c0.259-0.166,0.508-0.346,0.752-0.534c0.126-0.097,0.253-0.191,0.375-0.294c0.246-0.208,0.477-0.434,0.703-0.665
	c0.1-0.102,0.206-0.196,0.302-0.302c0.309-0.342,0.601-0.702,0.866-1.087c0.002-0.003,0.005-0.006,0.007-0.009l0.344-0.5h-4.82
	h-8.095c-1.123-0.644-2.42-1.018-3.807-1.018h-1.331C310.961,446.993,316.273,442.22,322.714,442.22z M450.569,459.967
	c10.129,0,20.258,0,30.387,0c8.46,0,8.474-13.148,0-13.148c-10.129,0-20.258,0-30.387,0
	C442.109,446.818,442.095,459.967,450.569,459.967z M290.064,528.398c-10.129,0-20.258,0-30.387,0c-8.46,0-8.474,13.148,0,13.148
	c10.129,0,20.258,0,30.387,0C298.524,541.546,298.538,528.398,290.064,528.398z M237.471,528.398c-8.46,0-8.474,13.148,0,13.148
	C245.931,541.546,245.945,528.398,237.471,528.398z M330.19,528.398c-8.46,0-8.474,13.148,0,13.148
	C338.65,541.546,338.664,528.398,330.19,528.398z M289.722,119.493c-1.513,0-2.74,1.227-2.74,2.74s1.227,2.74,2.74,2.74
	c1.513,0,2.74-1.227,2.74-2.74S291.235,119.493,289.722,119.493z M289.722,141.295c-1.513,0-2.74,1.227-2.74,2.74
	c0,1.513,1.227,2.74,2.74,2.74c1.513,0,2.74-1.227,2.74-2.74C292.462,142.522,291.235,141.295,289.722,141.295z M297.638,131.14
	c-1.513,0-2.74,1.227-2.74,2.74c0,1.513,1.227,2.74,2.74,2.74c1.513,0,2.74-1.227,2.74-2.74
	C300.378,132.367,299.151,131.14,297.638,131.14z M294.897,177.484c0,1.513,1.227,2.74,2.74,2.74c1.513,0,2.74-1.227,2.74-2.74
	c0-1.513-1.227-2.74-2.74-2.74C296.124,174.744,294.897,175.971,294.897,177.484z M289.722,163.097c-1.513,0-2.74,1.227-2.74,2.74
	s1.227,2.74,2.74,2.74c1.513,0,2.74-1.227,2.74-2.74S291.235,163.097,289.722,163.097z M305.554,141.295
	c-1.513,0-2.74,1.227-2.74,2.74c0,1.513,1.227,2.74,2.74,2.74c1.513,0,2.74-1.227,2.74-2.74
	C308.294,142.522,307.067,141.295,305.554,141.295z M297.638,109.338c-1.513,0-2.74,1.227-2.74,2.74c0,1.513,1.227,2.74,2.74,2.74
	c1.513,0,2.74-1.227,2.74-2.74C300.378,110.565,299.151,109.338,297.638,109.338z M305.554,119.493c-1.513,0-2.74,1.227-2.74,2.74
	s1.227,2.74,2.74,2.74c1.513,0,2.74-1.227,2.74-2.74S307.067,119.493,305.554,119.493z M313.47,136.62c1.513,0,2.74-1.227,2.74-2.74
	c0-1.513-1.227-2.74-2.74-2.74c-1.513,0-2.74,1.227-2.74,2.74C310.73,135.393,311.957,136.62,313.47,136.62z M313.47,114.818
	c1.513,0,2.74-1.227,2.74-2.74c0-1.513-1.227-2.74-2.74-2.74c-1.513,0-2.74,1.227-2.74,2.74
	C310.73,113.591,311.957,114.818,313.47,114.818z M478.435,202.783c1.936,0,3.506-1.57,3.506-3.506s-1.57-3.506-3.506-3.506
	c-1.937,0-3.506,1.57-3.506,3.506S476.499,202.783,478.435,202.783z M418.21,407.569v-6.824h-5.536L418.21,407.569z
	 M449.155,400.745h-5.536l5.536,6.824V400.745z M450.428,409.139l4.538,5.594v-13.988h-4.538V409.139z M437.093,402.45h-6.866
	l6.866,12.518V402.45z M424.022,414.733v-13.988h-4.538v8.394L424.022,414.733z"></path>
<path id="color_x5F_1_14_" fill="#92D7E7" d="M367.617,243.548l-8.24-9.264v-3.167h15.744v12.431H367.617z M427.18,295.947
	l-4.808,2.958h4.938L427.18,295.947z M439.776,288.198l-0.471,10.707h4.756l1.55-14.265h-0.051L439.776,288.198z M438.309,289.101
	l-9.738,5.991l0.168,3.813h9.14L438.309,289.101z M347.245,243.548h18.783l-6.65-7.477v0.32h-4.81l-2.047-8.029l0,0l-18.205-20.468
	l-1.244,11.043l-0.608,5.395h-1.487l0.305,0.361L347.245,243.548z M325.663,217.139l0.362-8.24l-8.184,5.035l0.141,3.205H325.663z
	 M316.782,217.139l-0.109-2.486l-4.041,2.486H316.782z M409.652,423.675v-4h-30.436l1.676,4H409.652z M392.349,414.733l-5.536-6.824
	v6.824H392.349z M400.752,414.733v-8.394l-4.538-5.594v13.988H400.752z M385.539,414.733v-8.394l-4.538-5.594v13.988H385.539z
	 M434.076,273.253h-0.775l0.752,8.195h0.718c0.567-1.174,1.758-1.99,3.148-1.99c1.652,0,3.028,1.147,3.399,2.685h2.112l-9.354-9.672
	V273.253z M392.521,358.875l9.895,15.936v-5.145l-8.109-13.03c-0.336-0.539-0.926-0.867-1.561-0.867l-0.001,0
	c-0.477,0-0.928,0.185-1.266,0.504c-0.021,0.02-0.035,0.046-0.054,0.067c-0.088,0.091-0.173,0.186-0.242,0.296l-19.889,31.96
	l2.016,2.58L392.521,358.875z M394.077,231.117h-14.918v12.431h6.985l30.534,36.067c0.314-0.092,0.639-0.157,0.983-0.157
	c1.652,0,3.028,1.147,3.399,2.685h4.519l0.201-0.695h2.938l0.902-10.408c-0.534,0.329-1.157,0.528-1.831,0.528
	c-1.936,0-3.506-1.57-3.506-3.506c0-1.526,0.981-2.811,2.343-3.293l-6.764-6.993c-0.603,0.491-1.363,0.798-2.202,0.798
	c-1.936,0-3.506-1.57-3.506-3.506c0-0.881,0.336-1.676,0.872-2.292l0,0l-15.849-16.386h-4.275v-4.42L394.077,231.117z
	 M443.618,414.733h5.536v-7.164l-5.536-6.824V414.733z M355.798,473.373h182.059c-13.18,17.985-28.317,34.445-45.121,49.042h-263.52
	c-7.053,0-12.771,5.718-12.771,12.771c0,7.053,5.718,12.771,12.771,12.771h229.497c-46.43,29.939-101.721,47.319-161.075,47.319
	c-30.887,0-60.675-4.707-88.687-13.439h55.241c7.347,0,13.302-5.956,13.302-13.302v0c0-7.346-5.956-13.302-13.302-13.302H148.455
	c-19.503-11.319-37.595-24.795-53.966-40.092h306.505c7.053,0,12.771-5.718,12.771-12.771c0-1.266-0.19-2.486-0.533-3.64
	c0.343-1.154,0.533-2.375,0.533-3.64c0-7.053-5.718-12.771-12.771-12.771h-48.088c1.806-2.203,2.891-5.019,2.891-8.09V473.373z
	 M381.041,578.556c10.323,0,10.341-16.043,0-16.043C370.718,562.513,370.701,578.556,381.041,578.556z M316.867,578.556
	c12.359,0,24.719,0,37.078,0c10.323,0,10.34-16.043,0-16.043c-12.359,0-24.719,0-37.078,0
	C306.544,562.513,306.526,578.556,316.867,578.556z M441.219,496.258c10.129,0,20.258,0,30.387,0c8.46,0,8.474-13.148,0-13.148
	c-10.129,0-20.258,0-30.387,0C432.759,483.11,432.745,496.258,441.219,496.258z M595.154,289.328h-4.769l-11.906-14.064
	l-33.963-40.117h23.737c3.719,0,6.734-3.015,6.734-6.734s-3.015-6.734-6.734-6.734h-3.063c0.297-0.759,0.461-1.585,0.461-2.449
	c0-3.719-3.015-6.734-6.734-6.734h-18.801c-3.719,0-6.734,3.015-6.734,6.734c0,0.864,0.165,1.69,0.461,2.449h-0.729l-17.917-21.163
	v-0.004l-0.001,0.002l-0.002-0.002l-69.109,81.632h-0.787h-0.217l-9.889-10.224l-0.011-1.772l-3.831-2.201l-0.074-0.076
	c-0.096-1.74-1.451-3.128-3.175-3.283l-7.453-7.706c0.323-0.53,0.519-1.147,0.519-1.813c0-1.936-1.57-3.506-3.506-3.506
	c-0.624,0-1.202,0.177-1.71,0.463l-16.005-16.548l2.589-10.156h-12.412l-0.533-0.551l0.994-3.899h-4.765l-57.153-59.091l2.203-8.643
	h-10.785l0.935-3.667h-22.163l0.935,3.667h-1.148c-0.312-0.124-0.65-0.197-1.006-0.197c-0.356,0-0.694,0.073-1.007,0.197h-7.624
	l2.326,9.124h2.397l14.545,16.353v8.824c-0.104-1.418-1.275-2.54-2.72-2.54c-1.513,0-2.74,1.227-2.74,2.74
	c0,1.513,1.227,2.74,2.74,2.74c1.445,0,2.616-1.122,2.72-2.54v9.677l-61.838-73.043v-0.005l-0.002,0.003l-0.002-0.003v0l0,0
	l-33.108,39.108c-0.607-1.044-1.726-1.754-3.02-1.754c-1.936,0-3.506,1.57-3.506,3.506c0,1.501,0.947,2.771,2.273,3.272
	l-6.276,7.414c-0.643-0.729-1.572-1.198-2.62-1.198c-1.936,0-3.506,1.57-3.506,3.506c0,1.256,0.666,2.349,1.659,2.969l-7.274,8.592
	c-0.321-0.097-0.655-0.165-1.007-0.165c-1.937,0-3.506,1.57-3.506,3.506c0,0.558,0.142,1.079,0.375,1.547l-6.744,7.966
	c-0.085-0.006-0.167-0.025-0.254-0.025c-1.936,0-3.506,1.57-3.506,3.506c0,0.288,0.044,0.563,0.11,0.831l-4.637,5.478v-15.604
	l9.086-9.728v0.221h2.776l1.629-6.389h-3.251c0.787-0.643,1.301-1.609,1.301-2.705c0-1.936-1.57-3.506-3.506-3.506
	s-3.506,1.57-3.506,3.506c0,0.047,0.012,0.091,0.014,0.137H163.15c0.002-0.047,0.014-0.09,0.014-0.137
	c0-1.936-1.57-3.506-3.506-3.506c-1.936,0-3.506,1.57-3.506,3.506c0,1.096,0.513,2.062,1.301,2.705h-1.392l1.225,4.805l-4.954,5.304
	c-0.639-0.856-1.651-1.418-2.802-1.418c-1.936,0-3.506,1.57-3.506,3.506c0,1.236,0.643,2.317,1.61,2.942l-3.683,3.943l-2.855,3.057
	c-0.504-0.281-1.076-0.454-1.694-0.454c-1.936,0-3.506,1.57-3.506,3.506c0,0.704,0.212,1.357,0.569,1.906L114.9,231.21h-2.769
	l0.594,2.329l-0.182,0.195h-7.189l1.541,6.047l-3.237,3.466l-13.265-15.668v-0.003l-0.001,0.002l-0.001-0.002L1.986,332
	C0.689,320.723,0,309.262,0,297.638C0,133.257,133.257,0,297.638,0C459.239,0,590.753,128.79,595.154,289.328z M122.752,203.839
	c0-5.436-4.407-9.843-9.843-9.843h-4.477c0.434-1.11,0.674-2.316,0.674-3.579c0-5.436-4.407-9.843-9.843-9.843h-27.48
	c-5.436,0-9.843,4.407-9.843,9.843c0,1.263,0.241,2.47,0.674,3.579H36.386c-5.436,0-9.843,4.407-9.843,9.843v0
	c0,5.436,4.407,9.843,9.843,9.843h76.522C118.345,213.683,122.752,209.276,122.752,203.839L122.752,203.839z M132.777,193.224
	c0-1.936-1.57-3.506-3.506-3.506c-1.936,0-3.506,1.57-3.506,3.506s1.57,3.506,3.506,3.506
	C131.207,196.73,132.777,195.161,132.777,193.224z M132.777,165.328c0-1.936-1.57-3.506-3.506-3.506
	c-1.936,0-3.506,1.57-3.506,3.506c0,1.936,1.57,3.506,3.506,3.506C131.207,168.834,132.777,167.264,132.777,165.328z
	 M142.906,178.322c0-1.936-1.57-3.506-3.506-3.506s-3.506,1.57-3.506,3.506s1.57,3.506,3.506,3.506S142.906,180.258,142.906,178.322
	z M153.035,165.328c0-1.936-1.57-3.506-3.506-3.506c-1.936,0-3.506,1.57-3.506,3.506c0,1.936,1.57,3.506,3.506,3.506
	C151.465,168.834,153.035,167.264,153.035,165.328z M173.293,165.328c0-1.936-1.57-3.506-3.506-3.506
	c-1.936,0-3.506,1.57-3.506,3.506c0,1.936,1.57,3.506,3.506,3.506C171.723,168.834,173.293,167.264,173.293,165.328z
	 M193.551,165.328c0-1.936-1.57-3.506-3.506-3.506c-1.937,0-3.506,1.57-3.506,3.506c0,1.936,1.57,3.506,3.506,3.506
	C191.981,168.834,193.551,167.264,193.551,165.328z M216.344,137.38c0-5.673-4.599-10.273-10.273-10.273h-4.673
	c0.452-1.158,0.703-2.417,0.703-3.736c0-5.674-4.599-10.273-10.273-10.273H163.15c-5.674,0-10.273,4.599-10.273,10.273
	c0,1.318,0.251,2.577,0.704,3.736H126.21c-5.674,0-10.273,4.599-10.273,10.273c0,5.674,4.599,10.273,10.273,10.273h79.861
	C211.745,147.652,216.344,143.053,216.344,137.38z M294.897,177.484c0,1.513,1.227,2.74,2.74,2.74c1.513,0,2.74-1.227,2.74-2.74
	c0-1.513-1.227-2.74-2.74-2.74C296.124,174.744,294.897,175.971,294.897,177.484z M284.546,155.682c0-1.513-1.227-2.74-2.74-2.74
	c-1.513,0-2.74,1.227-2.74,2.74c0,1.513,1.227,2.74,2.74,2.74C283.319,158.422,284.546,157.195,284.546,155.682z M284.546,133.88
	c0-1.513-1.227-2.74-2.74-2.74c-1.513,0-2.74,1.227-2.74,2.74c0,1.513,1.227,2.74,2.74,2.74
	C283.319,136.62,284.546,135.393,284.546,133.88z M284.546,112.078c0-1.513-1.227-2.74-2.74-2.74c-1.513,0-2.74,1.227-2.74,2.74
	c0,1.513,1.227,2.74,2.74,2.74C283.319,114.818,284.546,113.591,284.546,112.078z M286.981,165.837c0,1.513,1.227,2.74,2.74,2.74
	c1.513,0,2.74-1.227,2.74-2.74s-1.227-2.74-2.74-2.74C288.208,163.097,286.981,164.324,286.981,165.837z M292.462,144.035
	c0-1.513-1.227-2.74-2.74-2.74c-1.513,0-2.74,1.227-2.74,2.74c0,1.513,1.227,2.74,2.74,2.74
	C291.235,146.775,292.462,145.549,292.462,144.035z M292.462,122.233c0-1.513-1.227-2.74-2.74-2.74c-1.513,0-2.74,1.227-2.74,2.74
	s1.227,2.74,2.74,2.74C291.235,124.974,292.462,123.747,292.462,122.233z M300.378,133.88c0-1.513-1.227-2.74-2.74-2.74
	c-1.513,0-2.74,1.227-2.74,2.74c0,1.513,1.227,2.74,2.74,2.74C299.151,136.62,300.378,135.393,300.378,133.88z M300.378,112.078
	c0-1.513-1.227-2.74-2.74-2.74c-1.513,0-2.74,1.227-2.74,2.74c0,1.513,1.227,2.74,2.74,2.74
	C299.151,114.818,300.378,113.591,300.378,112.078z M308.294,144.035c0-1.513-1.227-2.74-2.74-2.74c-1.513,0-2.74,1.227-2.74,2.74
	c0,1.513,1.227,2.74,2.74,2.74C307.067,146.775,308.294,145.549,308.294,144.035z M308.294,122.233c0-1.513-1.227-2.74-2.74-2.74
	c-1.513,0-2.74,1.227-2.74,2.74s1.227,2.74,2.74,2.74C307.067,124.974,308.294,123.747,308.294,122.233z M316.211,133.88
	c0-1.513-1.227-2.74-2.74-2.74c-1.513,0-2.74,1.227-2.74,2.74c0,1.513,1.227,2.74,2.74,2.74
	C314.984,136.62,316.211,135.393,316.211,133.88z M316.211,112.078c0-1.513-1.227-2.74-2.74-2.74c-1.513,0-2.74,1.227-2.74,2.74
	c0,1.513,1.227,2.74,2.74,2.74C314.984,114.818,316.211,113.591,316.211,112.078z M326.403,90.279c0-4.797-3.889-8.686-8.687-8.686
	h-3.951c0.383-0.979,0.595-2.044,0.595-3.159c0-4.798-3.889-8.687-8.686-8.687h-10.661c-4.797,0-8.686,3.889-8.686,8.687
	c0,1.115,0.212,2.179,0.595,3.159h-9.362c-4.798,0-8.687,3.889-8.687,8.686c0,4.798,3.889,8.687,8.687,8.687h40.157
	C322.514,98.966,326.403,95.076,326.403,90.279z M402.587,139.014c23.022,0,41.685-18.663,41.685-41.685
	s-18.663-41.685-41.685-41.685c-23.022,0-41.685,18.663-41.685,41.685S379.566,139.014,402.587,139.014z M421.167,227.173
	c0-1.936-1.57-3.506-3.506-3.506s-3.506,1.57-3.506,3.506s1.57,3.506,3.506,3.506S421.167,229.109,421.167,227.173z
	 M421.167,199.277c0-1.936-1.57-3.506-3.506-3.506s-3.506,1.57-3.506,3.506s1.57,3.506,3.506,3.506S421.167,201.213,421.167,199.277
	z M431.296,240.167c0-1.936-1.57-3.506-3.506-3.506c-1.936,0-3.506,1.57-3.506,3.506c0,1.936,1.57,3.506,3.506,3.506
	C429.727,243.673,431.296,242.103,431.296,240.167z M431.296,212.271c0-1.937-1.57-3.506-3.506-3.506
	c-1.936,0-3.506,1.57-3.506,3.506c0,1.936,1.57,3.506,3.506,3.506C429.727,215.777,431.296,214.207,431.296,212.271z
	 M441.425,255.069c0-1.936-1.57-3.506-3.506-3.506c-1.936,0-3.506,1.57-3.506,3.506c0,1.936,1.57,3.506,3.506,3.506
	C439.856,258.575,441.425,257.005,441.425,255.069z M441.425,227.173c0-1.936-1.57-3.506-3.506-3.506
	c-1.936,0-3.506,1.57-3.506,3.506s1.57,3.506,3.506,3.506C439.856,230.679,441.425,229.109,441.425,227.173z M441.425,199.277
	c0-1.936-1.57-3.506-3.506-3.506c-1.936,0-3.506,1.57-3.506,3.506s1.57,3.506,3.506,3.506
	C439.856,202.783,441.425,201.213,441.425,199.277z M451.554,268.063c0-1.936-1.57-3.506-3.506-3.506
	c-1.936,0-3.506,1.57-3.506,3.506s1.57,3.506,3.506,3.506C449.984,271.569,451.554,269.999,451.554,268.063z M451.554,240.167
	c0-1.936-1.57-3.506-3.506-3.506c-1.936,0-3.506,1.57-3.506,3.506c0,1.936,1.57,3.506,3.506,3.506
	C449.984,243.673,451.554,242.103,451.554,240.167z M451.554,212.271c0-1.937-1.57-3.506-3.506-3.506
	c-1.936,0-3.506,1.57-3.506,3.506c0,1.936,1.57,3.506,3.506,3.506C449.984,215.777,451.554,214.207,451.554,212.271z
	 M461.683,255.069c0-1.936-1.57-3.506-3.506-3.506c-1.936,0-3.506,1.57-3.506,3.506c0,1.936,1.57,3.506,3.506,3.506
	C460.114,258.575,461.683,257.005,461.683,255.069z M461.683,227.173c0-1.936-1.57-3.506-3.506-3.506
	c-1.936,0-3.506,1.57-3.506,3.506s1.57,3.506,3.506,3.506C460.114,230.679,461.683,229.109,461.683,227.173z M461.683,199.277
	c0-1.936-1.57-3.506-3.506-3.506c-1.936,0-3.506,1.57-3.506,3.506s1.57,3.506,3.506,3.506
	C460.114,202.783,461.683,201.213,461.683,199.277z M471.812,240.167c0-1.936-1.57-3.506-3.506-3.506
	c-1.936,0-3.506,1.57-3.506,3.506c0,1.936,1.57,3.506,3.506,3.506C470.243,243.673,471.812,242.103,471.812,240.167z
	 M471.812,212.271c0-1.937-1.57-3.506-3.506-3.506c-1.936,0-3.506,1.57-3.506,3.506c0,1.936,1.57,3.506,3.506,3.506
	C470.243,215.777,471.812,214.207,471.812,212.271z M481.941,227.173c0-1.936-1.57-3.506-3.506-3.506
	c-1.937,0-3.506,1.57-3.506,3.506s1.569,3.506,3.506,3.506C480.372,230.679,481.941,229.109,481.941,227.173z M481.941,199.277
	c0-1.936-1.57-3.506-3.506-3.506c-1.937,0-3.506,1.57-3.506,3.506s1.569,3.506,3.506,3.506
	C480.372,202.783,481.941,201.213,481.941,199.277z M492.07,212.271c0-1.937-1.57-3.506-3.506-3.506s-3.506,1.57-3.506,3.506
	c0,1.936,1.57,3.506,3.506,3.506S492.07,214.207,492.07,212.271z M502.199,199.277c0-1.936-1.57-3.506-3.506-3.506
	c-1.936,0-3.506,1.57-3.506,3.506s1.57,3.506,3.506,3.506C500.63,202.783,502.199,201.213,502.199,199.277z M506.788,176.759
	c0-5.674-4.599-10.273-10.273-10.273h-4.672c0.452-1.158,0.704-2.417,0.704-3.736c0-5.673-4.599-10.273-10.273-10.273h-28.679
	c-5.673,0-10.273,4.599-10.273,10.273c0,1.318,0.251,2.577,0.704,3.736h-27.371c-5.674,0-10.273,4.599-10.273,10.273
	c0,5.673,4.599,10.273,10.273,10.273h79.861C502.188,187.032,506.788,182.432,506.788,176.759z M425.693,97.329
	c0,12.761-10.345,23.105-23.106,23.105c-12.76,0-23.105-10.345-23.105-23.105c0-12.761,10.345-23.106,23.105-23.106
	C415.349,74.223,425.693,84.568,425.693,97.329z M420.571,97.329c0-9.932-8.051-17.983-17.983-17.983
	c-9.932,0-17.983,8.051-17.983,17.983s8.051,17.983,17.983,17.983C412.519,115.312,420.571,107.261,420.571,97.329z
	 M437.093,414.968l-6.866-12.518v12.518H437.093z M432.45,97.329c-0.339,13.6-9.371,25.621-22.727,28.992
	c-12.954,3.269-26.864-2.983-33.276-14.644c-6.488-11.798-4.145-26.676,5.61-35.956c11.073-10.534,27.51-10.504,39.47-1.524
	c3.008,2.258,5.924-2.813,2.949-5.046c-22.059-16.562-54.85-2.915-57.443,24.945c-2.448,26.298,25.097,46.38,49.379,36.1
	c13.264-5.616,21.527-18.622,21.881-32.867C438.387,93.567,432.543,93.569,432.45,97.329z M283.72,449.111
	c0,2.254,1.827,4.081,4.081,4.081h22.284c0.876-6.199,6.189-10.972,12.63-10.972h235.123c0.618-1.109,1.24-2.216,1.844-3.334H283.72
	V449.111z M199.803,459.092h76.881v-20.206h-17.501v3.467c0,7.053-5.718,12.771-12.771,12.771h-63.258
	c-0.705,13.44-11.335,24.243-24.697,25.235c0,0.636,0,1.291,0,1.959h31.466c-1.806-2.203-2.891-5.019-2.891-8.09v-2.364
	C187.032,464.81,192.75,459.092,199.803,459.092z M315.049,157.915c-0.447,0.317-0.99,0.507-1.579,0.507s-1.132-0.19-1.579-0.507
	h-0.289v17.574c0.49-0.459,1.144-0.745,1.868-0.745c1.513,0,2.74,1.227,2.74,2.74c0,1.513-1.227,2.74-2.74,2.74
	c-0.724,0-1.378-0.286-1.868-0.745v1.092l10.225,11.496l1.57,0.902l0.005,0.869l8.194,9.213l0,0h0.303h2.96l-0.367,3.257
	l17.388,19.55l-0.137-0.536h13.085l-1.134-4.45h20.472l-56.688-58.61h-2.901v-4.347H315.049z M120.821,474.527
	c-0.315-0.023-0.632-0.04-0.945-0.072c-1.748-0.178-3.458-0.485-5.12-0.912c-1.108-0.285-2.194-0.623-3.256-1.012
	c-1.593-0.583-3.131-1.28-4.605-2.081c-0.982-0.534-1.936-1.114-2.859-1.737c-0.922-0.623-1.813-1.289-2.669-1.996
	c-1.712-1.413-3.287-2.987-4.7-4.7c-4.946-5.993-7.917-13.676-7.917-22.053c0-0.361,0.016-0.719,0.027-1.078H35.594
	c8.285,15.338,17.88,29.863,28.63,43.431h56.596C120.821,479.807,120.821,477.169,120.821,474.527z M322.626,194.752l-0.158-0.024
	v0.852h-0.652l0.632,6.888h2.741l0.169,0.584h4.65L322.626,194.752z M297.638,158.422c-0.589,0-1.132-0.19-1.579-0.507h-0.761v4.324
	l12.977,14.59v-10.792c-0.104,1.418-1.275,2.54-2.72,2.54c-1.513,0-2.74-1.227-2.74-2.74s1.227-2.74,2.74-2.74
	c1.445,0,2.616,1.122,2.72,2.54v-7.722h-9.057C298.77,158.232,298.227,158.422,297.638,158.422z M367.736,225.322h18.808v-1.381
	h-18.808V225.322z M450.428,414.733h4.538l-4.538-5.594V414.733z M418.21,407.569l-5.536-6.824v13.988h5.536V407.569z
	 M318.8,192.842l-1.278-0.87l-0.15-1.835l0.765-0.189l0.441,0.254l-6.977-7.844v14.933c0.49-0.459,1.144-0.745,1.868-0.745
	c1.513,0,2.74,1.227,2.74,2.74s-1.227,2.74-2.74,2.74c-0.724,0-1.378-0.286-1.868-0.745v0.167l1.358,1.604h2.367l0.169-0.584h2.469
	L318.8,192.842z M419.484,414.733h4.538l-4.538-5.594V414.733z M332.132,205.439l-0.17-0.192l-4.702,2.893l-0.396,8.998h3.997
	L332.132,205.439z M318.531,202.204h3.352l-0.044-0.337l-3.08-1.418L318.531,202.204z M321.759,201.25l-0.369-2.844l-2.318,1.607
	L321.759,201.25z M321.058,195.844h-1.702l-0.076,0.587l1.99,1.044L321.058,195.844z M318.881,199.505l2.207-1.531l-1.881-0.987
	L318.881,199.505z M147.257,478.819c-0.819-0.3-1.619-0.639-2.399-1.014c-3.016-1.454-5.714-3.461-7.971-5.884
	c-3.381,1.426-7.038,2.322-10.865,2.606c0,2.464,0,5.142,0,7.791h28.425c0-0.651,0-1.305,0-1.959
	c-0.696-0.052-1.387-0.121-2.067-0.225c-0.885-0.135-1.756-0.314-2.611-0.534C148.914,479.38,148.076,479.119,147.257,478.819z
	 M429.808,277.924l2.626-1.821l-2.238-1.174L429.808,277.924z M432.398,273.567h-2.025l-0.091,0.698l2.367,1.242L432.398,273.567z
	 M302.187,153.138h10.277c0.312-0.124,0.65-0.197,1.006-0.197c0.356,0,0.694,0.073,1.006,0.197h3.213V152h-15.502V153.138z
	 M169.551,215.28l-44.785,52.9l-3.866-4.566v-12.109l10.735-11.493h0.922l0.346-1.357h0l3.191-3.416
	c0.47,1.382,1.764,2.382,3.305,2.382c1.936,0,3.506-1.57,3.506-3.506c0-1.624-1.11-2.977-2.609-3.376l6.713-7.187
	c0.638,0.661,1.528,1.075,2.519,1.075c1.936,0,3.506-1.57,3.506-3.506c0-1.077-0.496-2.028-1.259-2.671l8.177-8.755
	c1.782-0.151,3.185-1.618,3.207-3.434l6.392-6.843V215.28z M132.777,249.016c0-1.936-1.57-3.506-3.506-3.506
	c-1.936,0-3.506,1.57-3.506,3.506c0,1.936,1.57,3.506,3.506,3.506C131.207,252.523,132.777,250.953,132.777,249.016z
	 M109.682,238.536v1.476h-1.378l-3.874,4.147l10.321,12.191l3.859-4.132V237.02h-7.513L109.682,238.536z M114.423,233.46v0.273
	h10.666v-0.783h-10.19L114.423,233.46z M129.271,224.627c-1.875,0-3.394-1.476-3.488-3.328l-9.258,9.912h10.856l-0.643,2.523h7.421
	l-0.645,2.529l2.426-2.597c0.194-1.501,1.322-2.706,2.793-2.99l3.941-4.22l3.656-3.914c-0.194-0.435-0.306-0.914-0.306-1.421
	c0-1.937,1.57-3.506,3.506-3.506c0.421,0,0.82,0.086,1.194,0.223l4.167-4.462l3.608-3.863c-1.363-0.48-2.347-1.767-2.347-3.294
	c0-1.937,1.57-3.506,3.506-3.506c1.442,0,2.678,0.872,3.217,2.115l6.677-7.149v-0.972c-1.824-0.123-3.271-1.627-3.271-3.482
	c0-1.856,1.446-3.359,3.271-3.482v-5.37h-9.086v3.044h-2.776l-0.056-0.218l-4.744,5.079c0.085,0.303,0.146,0.617,0.146,0.947
	c0,1.936-1.57,3.506-3.506,3.506c-0.249,0-0.492-0.028-0.727-0.078l-6.78,7.259c0.544,0.618,0.884,1.419,0.884,2.306
	c0,1.936-1.57,3.506-3.506,3.506c-0.802,0-1.532-0.28-2.123-0.733l-8.059,8.628c0.018,0,0.034-0.005,0.052-0.005
	c1.936,0,3.506,1.57,3.506,3.506C132.777,223.057,131.207,224.627,129.271,224.627z M118.611,253.957l-3.087,3.305l3.087,3.647
	V253.957z M120.901,237.02v12.745l9.111-9.754h-0.182v-2.991H120.901z M180.968,185.456v-1.084h-9.086v6.056
	c0.852,0.64,1.411,1.649,1.411,2.796c0,0.172-0.027,0.337-0.051,0.503L180.968,185.456z M161.864,181.027h1.749l-0.517-2.026
	C162.935,179.817,162.484,180.521,161.864,181.027z M429.391,281.135h3.988l-0.052-0.401l-3.665-1.687L429.391,281.135z
	 M414.196,388.595l-9.662-15.527v5.152l8.059,12.979L414.196,388.595z M402.025,414.733h5.536l-5.536-6.824V414.733z
	 M165.289,181.027h10.855v-0.797h-10.855V181.027z M433.232,280l-0.439-3.384l-2.757,1.912L433.232,280z"></path>
</svg>