<?xml version="1.0" standalone="no"?>
<svg version="1.1" id="Layer_1" xmlns="http://www.w3.org/2000/svg" xmlns:xlink="http://www.w3.org/1999/xlink" x="0px" y="0px" viewBox="0 0 595.276 595.276" enable-background="new 0 0 595.276 595.276" xml:space="preserve">
<path id="color_x5F_6_2_" fill="#13AB9C" d="M97.958,358.49l9.401,5.031v80.198H96.995h0h0h-15.92L97.958,358.49z M125.332,401.751
	l7.895,39.855v-47.342l-5.797-3.103L125.332,401.751z M64.575,443.72h16.21v-49.456l-5.797-3.103L64.575,443.72z M504.173,426.309
	l-14.832,74.868l0.198,1h0h23.002v-71.39L504.173,426.309z M456.009,502.148l-0.006,0.029h16.768v-51.159l-5.997-3.21
	L456.009,502.148z"></path>
<path id="color_x5F_5_3_" fill="#006758" d="M196.638,493.807h5.351c0,2.452-1.232,4.896-1.232,4.896l-0.006-0.007L196.638,493.807z
	 M520.91,426.309l-8.368,4.479l0,0v71.39h1.304c6.299-6.656,12.302-13.596,17.971-20.812L520.91,426.309z M188.414,495.367
	c-0.629,0-1.14,0.51-1.14,1.14c0,0.629,0.51,1.14,1.14,1.14c0.63,0,1.14-0.51,1.14-1.14
	C189.554,495.878,189.044,495.367,188.414,495.367z M328.506,468.041c0,0,2.284-4.531,2.284-9.078h-9.92L328.506,468.041z
	 M472.771,451.018L472.771,451.018l0,51.159h16.372h0.396l-10.77-54.369L472.771,451.018z M80.785,394.263L80.785,394.263l0,49.456
	h0.289l0,0l7.96-40.182l-2.452-12.377L80.785,394.263z M133.227,394.263L133.227,394.263l0,47.342l0,0.001l-16.466-83.117
	l-9.401,5.031l0,0v80.198h25.867h0.418h0.001h15.791h0l-10.412-52.559L133.227,394.263z M305.383,461.857
	c-1.035,0-1.874,0.839-1.874,1.874c0,1.035,0.839,1.874,1.874,1.874c1.035,0,1.874-0.839,1.874-1.874
	C307.256,462.695,306.418,461.857,305.383,461.857z"></path>
<path id="color_x5F_4_3_" fill="#B4E1E5" d="M482.681,351.017c2.198,1.864,4.302,3.835,6.305,5.904H461.15
	c-4.042-8.121-8.908-14.793-14.249-19.564h13.687c2.689,1.146,5.307,2.425,7.848,3.827c1.27,0.701,2.521,1.433,3.751,2.195
	C475.878,345.666,479.384,348.221,482.681,351.017z M472.771,417.535L472.771,417.535L472.771,417.535L472.771,417.535l0,0.001
	v33.481l0,0l5.997-3.21L472.771,417.535z M512.541,384.064L512.541,384.064L512.541,384.064L512.541,384.064l0,0.001v0v46.721l0,0
	l8.368-4.479L512.541,384.064L512.541,384.064z M508.205,387.501c-0.367-1.002-0.768-1.986-1.17-2.97
	c-0.91-2.228-1.91-4.41-2.995-6.54c-3.256-6.392-7.279-12.325-11.949-17.685h-7.575c2.26,3.031,4.324,6.208,6.187,9.523
	c1.863,3.315,3.524,6.767,4.979,10.347c0.97,2.387,1.848,4.829,2.633,7.326H508.205z M324.959,512.888h178.236
	c-15.143,14.465-31.817,27.338-49.743,38.375c-21.316,0-63.899,0-82.567,0c-1.547,0-2.95,0.124-4.208,0.348
	c-3.773,0.672-6.242,2.249-7.405,4.104c-0.129,0.206-0.242,0.416-0.339,0.628c-1.455,3.182,0.718,6.943,6.528,8.386
	c0.387,0.096,0.791,0.182,1.211,0.257c0.839,0.149,1.743,0.254,2.712,0.307c0.484,0.027,0.985,0.04,1.501,0.04
	c12.678,0,36.391,0,56.982,0c-39.338,19.173-83.524,29.943-130.23,29.943c-47.118,0-91.669-10.966-131.267-30.458
	c44.508,0,90.576,0,98.441,0c11.597,0,12.548-16.546,2.824-19.238c10.437,0,19.799,0,27.488,0
	c-9.714,2.693-8.796,19.238,2.82,19.238c11.597,0,12.548-16.546,2.824-19.238c6.027,0,10.612,0,13.28,0
	c1.122,0,2.18-0.047,3.172-0.136c0.992-0.089,1.92-0.22,2.782-0.387c0.431-0.084,0.846-0.176,1.245-0.277
	c1.196-0.303,2.246-0.681,3.149-1.117c0.602-0.29,1.139-0.606,1.611-0.941c0.472-0.336,0.879-0.691,1.221-1.061
	c0.684-0.74,1.108-1.536,1.271-2.347c0.204-1.013,0.001-2.048-0.609-3.019c-0.122-0.194-0.26-0.386-0.415-0.574
	c-0.309-0.377-0.683-0.74-1.123-1.086c-1.757-1.381-4.557-2.466-8.4-2.906c-0.218-0.869-0.586-1.587-1.04-2.18
	c-0.454-0.593-0.994-1.062-1.556-1.431c-1.874-1.232-3.994-1.366-3.994-1.366s-0.152-0.521-0.424-1.451
	c-0.38-1.302-0.993-3.406-1.749-6.007c-0.648-2.229-1.4-4.823-2.199-7.59c-0.266-0.922-0.538-1.863-0.813-2.817
	c-1.649-5.72-3.41-11.873-4.824-16.919c8.376-5.894,19.489-13.964,23.648-18.124c1.932-1.932,2.986-3.926,3.503-5.802
	c0,0,2.284-4.531,2.284-9.078h-9.92h-21.08l-4.705-2.492l-5.83,5.125l4.465,2.74l-6.744,2.48l-32.241-3.307
	c-38.854-8.68-42.161,29.347-41.334,41.334c0.827,11.987-8.68,20.254-8.68,20.254l3.066,6.411c-4.547,0-9.095,0-13.611,0
	c-1.089-1.038-2.665-1.14-2.665-1.14s-0.328-1.123-0.842-2.89c-0.154-0.53-0.325-1.117-0.509-1.75
	c-0.123-0.422-0.251-0.863-0.383-1.321c-0.133-0.458-0.27-0.932-0.41-1.418c-0.352-1.215-0.724-2.507-1.1-3.815
	c-0.752-2.617-1.518-5.299-2.153-7.567c4.518-3.179,10.511-7.531,12.755-9.775c1.045-1.045,1.605-2.122,1.883-3.137l0.006,0.007
	c0,0,1.232-2.444,1.232-4.896h-5.351h-11.37l-2.538-1.344l-3.145,2.764l2.408,1.478l-3.637,1.338l-17.389-1.783
	c-20.956-4.682-22.74,15.829-22.294,22.294c0.446,6.465-4.682,10.924-4.682,10.924l0.972,2.032c-8.334,0-15.604,0-21.437,0
	c-17.303-13.64-33.044-29.166-46.939-46.257h8.592c5.04,0,9.133-4.071,9.161-9.11v0c0.028-5.079-4.082-9.211-9.161-9.211H52.829
	c-10.982-15.851-20.463-32.817-28.24-50.699h24.447c0.011-7.069,5.744-12.796,12.816-12.796h10.704l-6.575,33.189
	c-1.496,0-2.702,0-3.56,0c-0.849,0-1.618,0.124-2.308,0.348c-0.23,0.075-0.451,0.161-0.663,0.257
	c-0.849,0.385-1.557,0.934-2.123,1.594c-0.142,0.165-0.274,0.337-0.398,0.514c-0.868,1.244-1.302,2.783-1.303,4.322
	c0,0.44,0.035,0.879,0.106,1.312c0.176,1.082,0.574,2.121,1.193,3.01c0.248,0.355,0.531,0.687,0.849,0.988
	c0.319,0.301,0.673,0.57,1.062,0.802c0.195,0.116,0.398,0.222,0.611,0.319c0.425,0.192,0.885,0.344,1.381,0.447
	c0.496,0.103,1.027,0.158,1.594,0.158c10.839,0,77.027,0,87.867,0l0,0c0.849,0,1.618-0.124,2.308-0.348
	c0.23-0.075,0.451-0.161,0.663-0.257c0.849-0.385,1.557-0.934,2.123-1.594c0.425-0.495,0.77-1.051,1.036-1.646
	c0.177-0.397,0.319-0.811,0.425-1.235c0.319-1.273,0.32-2.638,0.002-3.911c-0.212-0.848-0.566-1.656-1.061-2.367
	c-0.248-0.355-0.531-0.687-0.849-0.988c-0.319-0.3-0.673-0.57-1.062-0.802c-0.974-0.58-2.169-0.923-3.586-0.923l0,0
	c-0.591,0-1.355,0-2.256,0l-6.575-33.189h168.337c7.158,0,12.946,5.868,12.814,13.057c-0.129,7.056-6.183,12.576-13.24,12.576
	h-104.5c-6.672,0-12.081,5.409-12.081,12.082c0,6.672,5.409,12.082,12.081,12.082h121.066c9.155,0,16.577,7.421,16.577,16.576v0
	c0,9.155-7.422,16.577-16.577,16.577h-0.975c-7.318,0-13.251,5.933-13.251,13.251l0,0
	C311.708,506.955,317.641,512.888,324.959,512.888z M116.552,480.436c-0.039-0.489-0.138-0.973-0.296-1.433
	c-0.053-0.153-0.112-0.305-0.178-0.452c-0.132-0.296-0.29-0.578-0.474-0.843c-0.83-1.191-2.194-2.02-4.093-2.02l0,0
	c-2.317,0-3.839,1.238-4.564,2.863c-0.132,0.295-0.238,0.604-0.317,0.919c-0.079,0.316-0.132,0.639-0.159,0.965
	c-0.026,0.326-0.027,0.655,0,0.981c0.039,0.489,0.138,0.973,0.296,1.433c0.053,0.154,0.112,0.304,0.178,0.452
	c0.724,1.625,2.246,2.863,4.567,2.863l0,0c1.685,0,2.95-0.655,3.793-1.637c0.316-0.368,0.573-0.783,0.771-1.226
	c0.132-0.295,0.237-0.604,0.317-0.919c0.079-0.316,0.132-0.639,0.159-0.966C116.578,481.091,116.578,480.763,116.552,480.436z
	 M157.508,477.709c-0.369-0.529-0.843-0.987-1.423-1.333c-0.145-0.086-0.297-0.166-0.455-0.237
	c-0.316-0.143-0.659-0.256-1.028-0.332c-0.369-0.077-0.765-0.118-1.187-0.118c-8.071,0-16.141,0-24.212,0
	c-6.741,0-6.752,10.476,0,10.476c8.07,0,16.141,0,24.212,0c1.053,0,1.942-0.256,2.667-0.687c0.29-0.173,0.553-0.374,0.791-0.597
	c0.712-0.671,1.186-1.55,1.424-2.497c0.079-0.316,0.132-0.639,0.159-0.966C158.562,480.113,158.246,478.768,157.508,477.709z
	 M133.227,361.895L133.227,361.895L133.227,361.895L133.227,361.895L133.227,361.895L133.227,361.895l0,32.367l0,0l5.797-3.103
	L133.227,361.895z M536.238,138.142c-0.342,5.285-4.966,9.281-10.262,9.281h-89.142c-2.584,0-4.679-2.095-4.679-4.679v-2.339
	c0-2.584-2.095-4.679-4.679-4.679H327.466c-4.247,0-7.681-3.483-7.602-7.748c0.077-4.142-3.461-7.458-7.605-7.458h-71.938
	c-5.742,0-10.411,4.598-10.525,10.313c-0.118,5.897-4.629,10.742-10.528,10.742H187.1c-6.382,0-11.507,5.38-11.088,11.852
	c0.383,5.906,5.55,10.373,11.469,10.373h29.447c4.606,0,8.323,3.803,8.184,8.44c-0.134,4.481-4.044,7.936-8.528,7.936H77.731
	c-4.606,0-8.323-3.803-8.184-8.44c0.135-4.481,4.044-7.936,8.528-7.936h16.617c6.382,0,11.507-5.38,11.088-11.852
	c-0.382-5.906-5.55-10.373-11.469-10.373H44.169c4.771-7.733,9.877-15.237,15.315-22.479h130.379c6.382,0,11.507-5.38,11.088-11.852
	c-0.382-5.906-5.55-10.373-11.469-10.373h-45.814c-2.546,0-4.458-2.374-3.856-4.899c0.433-1.816,2.156-3.035,4.023-3.035h192.403
	c5.104,0,9.254,4.087,9.356,9.167c0.105,5.242,4.115,9.548,9.358,9.548h16.963c4.901,0,8.863-4.019,8.771-8.94
	c-0.089-4.78,3.994-8.605,8.775-8.605h8.773c6.046,0,10.902-5.097,10.505-11.228c-0.362-5.595-5.258-9.827-10.865-9.827h-73.916
	c-5.71,0-10.296-4.814-9.921-10.605c0.342-5.285,4.966-9.281,10.262-9.281h123.488c3.509,0,6.362,2.81,6.432,6.302
	c0.072,3.591,4.577,6.565,8.168,6.565h17.121c4.341,3.356,8.598,6.817,12.744,10.403h-50.314c-2.584,0-4.679,2.095-4.679,4.679
	c0,2.584,2.095,4.679,4.679,4.679h60.631c5.57,5.29,10.933,10.797,16.081,16.501h-57.049c-2.444,0-4.626,1.787-4.858,4.219
	c-0.266,2.791,1.921,5.139,4.657,5.139h2.34c2.584,0,4.679,2.095,4.679,4.679v10.528c0,2.584,2.095,4.679,4.679,4.679h53.222
	C532.027,127.537,536.613,132.351,536.238,138.142z M136.641,152.432c0-2.261-1.833-4.094-4.094-4.094
	c-2.261,0-4.094,1.833-4.094,4.094c0,2.261,1.833,4.094,4.094,4.094C134.808,156.526,136.641,154.693,136.641,152.432z
	 M285.195,102.134c0-2.261-1.833-4.094-4.094-4.094c-2.261,0-4.094,1.833-4.094,4.094c0,2.261,1.833,4.094,4.094,4.094
	C283.362,106.228,285.195,104.395,285.195,102.134z M425.56,113.246c0-1.292-1.047-2.339-2.339-2.339
	c-1.292,0-2.339,1.047-2.339,2.339s1.047,2.339,2.339,2.339C424.513,115.586,425.56,114.538,425.56,113.246z M427.9,60.025
	c0-1.615-1.309-2.924-2.924-2.924c-1.615,0-2.924,1.309-2.924,2.924c0,1.615,1.31,2.924,2.924,2.924
	C426.591,62.949,427.9,61.64,427.9,60.025z M80.785,361.895L80.785,361.895L80.785,361.895L80.785,361.895L80.785,361.895l0,32.367
	l0,0l5.797-3.103L80.785,361.895z M107.36,311.033L107.36,311.033L107.36,311.033L107.36,311.033l0,0.002v52.486l0,0l9.401-5.031
	L107.36,311.033z M392.425,375.692c-2.9-3.116-7.024-5.077-11.616-5.077c0,0-21.023,0.007-29.241,0.01
	c-0.721,0.005-1.573,0.012-2.361,0.021c6.896,0.201,13.444,2.743,17.484,7.478h28.293
	C394.195,377.25,393.341,376.434,392.425,375.692z M538.847,396.229c-6.741,0-6.752,10.476,0,10.476
	C545.588,406.705,545.599,396.229,538.847,396.229z M556.54,396.229c-6.741,0-6.752,10.476,0,10.476c6.039,0,12.078,0,18.117,0
	c1.362-3.458,2.643-6.957,3.878-10.476C571.203,396.229,563.872,396.229,556.54,396.229z M426.688,417.143h43.906
	c-0.005-3.367-0.112-6.712-0.32-10.025c-0.347-5.52-0.975-10.948-1.875-16.234h-41.71V417.143z M363.495,417.143l0.033-25.124
	c0.003-1.841-0.394-3.484-1.063-4.947l-27.234,30.071H363.495z M544.371,429.94c-0.565,0.533-1.036,1.148-1.413,1.818
	c-0.377,0.67-0.66,1.395-0.848,2.147c-0.189,0.752-0.283,1.532-0.284,2.312c-0.001,1.559,0.375,3.119,1.128,4.459
	c0.251,0.447,0.544,0.869,0.878,1.259c0.167,0.195,0.345,0.382,0.533,0.559c0.565,0.533,1.224,0.984,1.978,1.325
	c1.005,0.455,2.177,0.715,3.517,0.715c2.228,0,4.456,0,6.683,0c3.093-5.44,6.02-10.987,8.774-16.635c-5.152,0-10.305,0-15.457,0
	C547.519,427.9,545.689,428.696,544.371,429.94z M400.074,387.501c-0.655-2.471-1.715-4.775-3.108-6.84h-28.509
	c1.473,2.549,2.344,5.552,2.344,9.029v12.403h30.035h0v-8.774c0-0.823-0.049-1.634-0.134-2.434
	C400.579,389.728,400.365,388.599,400.074,387.501z M428.209,360.305v27.196h68.329c-3.213-10.024-7.961-19.156-14.144-27.196
	H428.209z M471.829,390.885c1.057,6.353,1.729,12.902,2.005,19.563c0.092,2.22,0.14,4.453,0.143,6.695h32.011l4.46-22.513
	c-0.341-1.259-0.703-2.509-1.098-3.745H471.829z M524.271,428.241c-0.757-0.221-1.592-0.341-2.505-0.341
	c-0.184,0-0.358,0.017-0.535,0.026l3.211,16.211C531.637,441.854,531.59,430.373,524.271,428.241z M426.688,356.921h30.665
	c-0.837-1.601-1.707-3.138-2.606-4.605c-0.599-0.978-1.212-1.926-1.837-2.842c-0.312-0.458-0.628-0.908-0.946-1.35
	c-1.273-1.768-2.593-3.406-3.953-4.904c-2.039-2.247-4.166-4.18-6.357-5.765h-14.967V356.921z M437.593,331.142
	c-1.118-0.143-2.242-0.264-3.373-0.363c-2.262-0.199-4.548-0.311-6.857-0.334v4.375h26.451c-3.125-1.033-6.327-1.894-9.596-2.571
	C442.038,331.797,439.829,331.427,437.593,331.142z M177.108,520.801c-1.234,2.621-2.393,6.199-2.726,10.708
	c3.334,0,6.711,0,10.122,0c-1.596-1.729-3.699-4.267-5.595-7.394C178.277,523.073,177.668,521.966,177.108,520.801z
	 M380.349,463.008c10.839,0,36.39,0,47.23,0c9.054,0,9.069-14.07,0-14.07c-10.84,0-36.39,0-47.23,0
	C371.295,448.938,371.28,463.008,380.349,463.008z M227.454,434.216c-7.502,0-7.514,11.659,0,11.659c8.982,0,17.964,0,26.946,0
	c7.502,0,7.514-11.659,0-11.659C245.418,434.216,236.436,434.216,227.454,434.216z M400.837,404.631L400.837,404.631h-30.035v12.512
	h30.035V404.631z M248.885,530.397c0.301,0.326,0.579,0.695,0.804,1.112c5.425,0,10.682,0,15.712,0h0
	c-1.094-2.919-2.788-9.05-2.81-19.033c-0.06,0.094-0.142,0.221-0.246,0.38c-0.208,0.317-0.504,0.755-0.88,1.287
	c-0.564,0.797-1.308,1.804-2.211,2.923c-1.203,1.492-2.687,3.184-4.398,4.845c-1.283,1.246-2.693,2.475-4.208,3.59
	c-1.01,0.743-2.066,1.435-3.162,2.048c-0.548,0.306-1.106,0.593-1.673,0.856c0,0,0.668,0.22,1.486,0.718
	c0.205,0.125,0.419,0.266,0.634,0.427C248.257,529.79,248.583,530.071,248.885,530.397z M300.911,531.509
	c-1.826-1.809-4.6-4.75-7.562-8.58c-2.592-3.351-5.329-7.382-7.699-11.93c-0.339-0.65-0.67-1.31-0.992-1.981
	c-2.359,5.011-4.587,11.891-5.121,20.626c0,0,2.376,0.009,3.429,1.865C289.806,531.509,295.873,531.509,300.911,531.509z
	 M237.762,516.568c-3.642,3.775-9.676,9.088-16.922,11.837c0,0,3.268,0.881,4.739,3.105c3.214,0,6.402,0,9.561,0l-2.507-6.411
	c0,0,0.954-1.016,2.165-2.852C235.741,520.818,236.838,518.895,237.762,516.568z M274.091,445.875c7.502,0,7.514-11.659,0-11.659
	C266.589,434.216,266.576,445.875,274.091,445.875z M156.156,531.261c0,0,0.059,0.02,0.159,0.061c0.099,0.041,0.239,0.103,0.4,0.188
	c3.115,0,6.303,0,9.546,0c-0.515-1.844-1.048-4.735-1.057-8.84C164.701,523.461,161.059,528.986,156.156,531.261z M356.371,504.66
	c6.741,0,6.752-10.476,0-10.476C349.631,494.184,349.62,504.66,356.371,504.66z M142.687,531.261c0,0,0.29,0.079,0.684,0.249
	c2.11,0,4.268,0,6.472,0l-0.795-2.032c0,0,0.407-0.433,0.957-1.226c0.137-0.198,0.284-0.419,0.435-0.66
	c0.453-0.726,0.949-1.642,1.376-2.719C149.852,526.908,146.6,529.776,142.687,531.261z M374.065,494.184
	c-6.741,0-6.752,10.476,0,10.476c8.07,0,16.141,0,24.211,0c6.741,0,6.752-10.476,0-10.476
	C390.206,494.184,382.135,494.184,374.065,494.184z"></path>
<path id="color_x5F_3_3_" fill="#5AB9C3" d="M157.508,477.709c0.738,1.059,1.053,2.404,0.947,3.708
	c-0.027,0.326-0.079,0.65-0.159,0.966c-0.238,0.948-0.712,1.826-1.424,2.497c-0.237,0.224-0.501,0.425-0.791,0.597
	c-0.724,0.432-1.613,0.687-2.667,0.687c-8.071,0-16.141,0-24.212,0c-6.752,0-6.741-10.476,0-10.476c8.07,0,16.141,0,24.212,0
	c0.422,0,0.817,0.041,1.187,0.118c0.369,0.077,0.712,0.189,1.028,0.332c0.158,0.072,0.31,0.151,0.455,0.237
	C156.665,476.721,157.14,477.179,157.508,477.709z M115.305,484.528c0.316-0.368,0.573-0.783,0.771-1.226
	c0.132-0.295,0.237-0.604,0.317-0.919c0.079-0.316,0.132-0.639,0.159-0.966c0.027-0.326,0.027-0.655,0.001-0.981
	c-0.039-0.489-0.138-0.973-0.296-1.433c-0.053-0.153-0.112-0.305-0.178-0.452c-0.132-0.296-0.29-0.578-0.474-0.843
	c-0.83-1.191-2.194-2.02-4.093-2.02l0,0c-2.317,0-3.839,1.238-4.564,2.863c-0.132,0.295-0.238,0.604-0.317,0.919
	c-0.079,0.316-0.132,0.639-0.159,0.965c-0.026,0.326-0.027,0.655,0,0.981c0.039,0.489,0.138,0.973,0.296,1.433
	c0.053,0.154,0.112,0.304,0.178,0.452c0.724,1.625,2.246,2.863,4.567,2.863C113.197,486.165,114.461,485.51,115.305,484.528z
	 M394.985,378.124C394.985,378.124,394.985,378.124,394.985,378.124l-28.294-0.001c0.667,0.782,1.245,1.638,1.766,2.538h0h28.509h0
	c0,0-0.001-0.001-0.001-0.001C396.364,379.769,395.704,378.92,394.985,378.124z M403.407,194.546L403.407,194.546l-60.423,72.254
	h-28.513l-89.986,54.353l52.235-61.698V147.077l69.952,84.835L403.407,194.546z M298.061,250.688c0-1.615-1.309-2.924-2.924-2.924
	c-1.615,0-2.924,1.309-2.924,2.924c0,1.615,1.309,2.924,2.924,2.924C296.752,253.612,298.061,252.303,298.061,250.688z
	 M299.231,217.936c0-2.261-1.833-4.094-4.094-4.094c-2.261,0-4.094,1.833-4.094,4.094c0,2.261,1.833,4.094,4.094,4.094
	C297.398,222.03,299.231,220.197,299.231,217.936z M331.983,255.952c0-1.938-1.571-3.509-3.509-3.509
	c-1.938,0-3.509,1.571-3.509,3.509c0,1.938,1.571,3.509,3.509,3.509C330.412,259.461,331.983,257.89,331.983,255.952z
	 M482.966,468.995l6.375,32.182l6.442-32.518c-0.944,0.213-1.922,0.336-2.931,0.336H482.966z M370.801,402.093v2.538h0h30.035
	v-2.538H370.801L370.801,402.093z M80.558,321.778l-15.656-18.823v-65.104l49.845,58.876h19.234l75.4,89.063h-71.42l-4.734-23.896
	l0,0v0v0l0,0v0l0,0v0.001v0.001l-4.734,23.894h-6.324l-14.81-74.758l0,0.001l0,0l0,0v0.001l0-0.001v0.001v0.001l-11.321,57.145
	l-15.481-16.843V321.778z M137.811,339.586c0,2.261,1.833,4.094,4.094,4.094c2.261,0,4.094-1.833,4.094-4.094
	c0-2.261-1.833-4.094-4.094-4.094C139.644,335.492,137.811,337.325,137.811,339.586z M81.664,300.401
	c1.292,0,2.339-1.047,2.339-2.34c0-1.292-1.047-2.339-2.339-2.339c-1.292,0-2.339,1.047-2.339,2.339
	C79.325,299.353,80.372,300.401,81.664,300.401z M595.276,297.638c0,30.162-4.503,59.269-12.845,86.704l-69.8,0.175l-0.09-0.453l0,0
	v0.001v0.001l-0.089,0.452l-5.417,0.014c-0.91-2.228-1.91-4.41-2.995-6.54c-3.256-6.392-7.279-12.325-11.949-17.685h-7.575
	c2.26,3.031,4.324,6.208,6.187,9.523c1.863,3.315,3.524,6.767,4.979,10.347c0.97,2.387,1.848,4.829,2.633,7.326h9.889
	c0.408,1.116,0.782,2.247,1.145,3.384h-37.521c1.057,6.353,1.729,12.902,2.005,19.563c0.092,2.22,0.14,4.453,0.143,6.695h32.011
	l-5.503,27.78c-2.159-1.526-4.788-2.431-7.633-2.431h-15.137l-4.944-24.958v0l0,0l0,0l0,0v0v0.001l-4.944,24.957H354.826
	c-13.92,0-25.215-11.221-25.343-25.111c-0.001-0.08-0.006-0.158-0.006-0.238v0h5.582l0.037-25.124
	c0.001-0.45,0.015-2.642,1.026-5.082c0.325-0.784,2.196-3.571,2.784-4.165c2.349-2.375,6.507-3.849,10.095-3.849
	c11.075,0,13.414,7.992,13.479,8.134l-0.014,0.015l-27.234,30.071h135.363c-0.005-3.367-0.112-6.712-0.32-10.025
	c-0.347-5.52-0.975-10.948-1.875-16.234h-67.695c-0.124-1.157-0.338-2.286-0.629-3.384h24.751v-27.196H370.64
	c-2.506,3.258-4.764,6.705-6.792,10.31h-1.937c1.974-3.597,4.171-7.043,6.607-10.31h-7.575c-2.819,3.236-5.4,6.68-7.721,10.31
	c0,0-0.712,0.003-1.654,0.01c-0.721,0.005-1.573,0.012-2.361,0.021c-1.153,0.013-2.155,0.029-2.344,0.049
	c-8.987,0.584-15.097,6.493-16.85,14.28l-5.49,0.014l16.55-53.551l62.335-22.035V194.547l149.715,151.87v-26.392l-15.656-18.823
	v-65.104l49.845,58.877h7.93C595.25,295.862,595.276,296.747,595.276,297.638z M474.688,313.853c0,1.615,1.309,2.924,2.924,2.924
	c1.615,0,2.924-1.309,2.924-2.924c0-1.615-1.309-2.924-2.924-2.924C475.998,310.928,474.688,312.238,474.688,313.853z
	 M438.427,269.403c0,2.261,1.833,4.094,4.094,4.094c2.261,0,4.094-1.833,4.094-4.094c0-2.261-1.833-4.094-4.094-4.094
	C440.26,265.309,438.427,267.142,438.427,269.403z M433.748,305.08c0,1.938,1.571,3.509,3.509,3.509
	c1.938,0,3.509-1.571,3.509-3.509c0-1.938-1.571-3.509-3.509-3.509C435.319,301.571,433.748,303.142,433.748,305.08z
	 M427.363,334.82h26.451c-3.125-1.033-6.327-1.894-9.596-2.571c-2.179-0.451-4.388-0.822-6.624-1.107
	c-1.118-0.143-2.242-0.264-3.373-0.363c-2.262-0.199-4.548-0.311-6.857-0.334V334.82z M399.22,334.82h26.451v-4.375
	C416.437,330.533,407.552,332.066,399.22,334.82z M391.582,356.921c4.042-8.121,8.908-14.793,14.249-19.564h-13.384
	c-10.756,4.585-20.386,11.286-28.399,19.564H391.582z M457.352,356.921c-0.837-1.601-1.707-3.138-2.606-4.605
	c-0.599-0.978-1.212-1.926-1.837-2.842c-0.312-0.458-0.628-0.908-0.946-1.35c-1.273-1.768-2.593-3.406-3.953-4.904
	c-2.039-2.247-4.166-4.18-6.357-5.765h-30.576c-5.842,4.226-11.234,10.927-15.698,19.466H457.352z M482.394,360.305h-54.185h0
	v27.196h0h68.329C493.325,377.477,488.578,368.345,482.394,360.305z M488.986,356.921c-2.003-2.069-4.108-4.04-6.305-5.904
	c-3.297-2.796-6.803-5.351-10.494-7.637c-1.23-0.762-2.481-1.494-3.751-2.195c-2.541-1.402-5.159-2.681-7.848-3.827h-13.687
	c5.341,4.771,10.208,11.443,14.249,19.564H488.986z M517.968,361.226c0-1.938-1.571-3.509-3.509-3.509
	c-1.938,0-3.509,1.571-3.509,3.509c0,1.938,1.571,3.509,3.509,3.509C516.397,364.735,517.968,363.164,517.968,361.226z
	 M561.247,285.779c0-1.615-1.309-2.924-2.924-2.924c-1.615,0-2.924,1.309-2.924,2.924c0,1.615,1.309,2.924,2.924,2.924
	C559.938,288.704,561.247,287.395,561.247,285.779z M571.482,365.759c0-0.291-0.048-0.569-0.118-0.839
	c-0.3-1.163-1.201-2.073-2.357-2.391c-0.285-0.078-0.578-0.134-0.888-0.134c-1.857,0-3.363,1.506-3.363,3.363
	s1.506,3.363,3.363,3.363C569.977,369.122,571.482,367.616,571.482,365.759z M152.596,450.348c0.23-0.075,0.451-0.161,0.663-0.257
	c0.849-0.385,1.557-0.934,2.123-1.594c0.425-0.495,0.77-1.051,1.036-1.646c0.177-0.397,0.319-0.811,0.425-1.235
	c0.319-1.273,0.32-2.638,0.002-3.911c-0.212-0.848-0.566-1.656-1.061-2.367c-0.248-0.355-0.531-0.687-0.849-0.988
	c-0.319-0.3-0.673-0.57-1.062-0.802c-0.974-0.58-2.169-0.923-3.586-0.923c-0.591,0-1.355,0-2.256,0l1.406,7.095h0h0H64.575
	l1.406-7.095c-1.496,0-2.702,0-3.56,0c-0.849,0-1.618,0.124-2.308,0.348c-0.23,0.075-0.451,0.161-0.663,0.257
	c-0.849,0.385-1.557,0.934-2.123,1.594c-0.142,0.165-0.274,0.337-0.398,0.514c-0.868,1.244-1.302,2.783-1.303,4.322
	c0,0.44,0.035,0.879,0.106,1.312c0.176,1.082,0.574,2.121,1.193,3.01c0.248,0.355,0.531,0.687,0.849,0.988
	c0.319,0.301,0.673,0.57,1.062,0.802c0.195,0.116,0.398,0.222,0.611,0.319c0.425,0.192,0.885,0.344,1.381,0.447
	c0.496,0.103,1.027,0.158,1.594,0.158c10.839,0,77.027,0,87.867,0C151.136,450.695,151.906,450.572,152.596,450.348z
	 M427.732,485.572L427.732,485.572c0,9.155,7.422,16.577,16.577,16.577h11.7l6.568-33.153h-18.268
	C435.154,468.995,427.732,476.417,427.732,485.572z M327.475,535.72c-0.309-0.377-0.683-0.74-1.123-1.086
	c-1.757-1.381-4.557-2.466-8.4-2.906c-0.218-0.869-0.586-1.587-1.04-2.18c-0.454-0.593-0.994-1.062-1.556-1.431
	c-1.874-1.232-3.994-1.366-3.994-1.366s-0.152-0.521-0.424-1.451c-0.38-1.302-0.993-3.406-1.749-6.007
	c-0.648-2.229-1.4-4.823-2.199-7.59c-0.266-0.922-0.538-1.863-0.813-2.817c-1.649-5.72-3.41-11.873-4.824-16.919
	c-5.772,4.061-10.246,7.09-10.246,7.09s-3.341,3.353-6.452,9.961c0.322,0.671,0.654,1.331,0.992,1.981
	c2.371,4.548,5.107,8.58,7.699,11.93c2.962,3.83,5.737,6.77,7.562,8.58c-5.038,0-11.104,0-17.946,0
	c0.299,0.527,0.497,1.194,0.497,2.062h-17.154c0,0-0.386-0.671-0.907-2.062c-5.03,0-10.287,0-15.712,0h0
	c-0.226-0.417-0.503-0.787-0.804-1.112c-0.302-0.326-0.628-0.607-0.95-0.847c-0.215-0.16-0.429-0.302-0.634-0.427
	c-0.818-0.498-1.486-0.718-1.486-0.718c0.567-0.263,1.125-0.549,1.673-0.856c1.096-0.613,2.152-1.305,3.162-2.048
	c1.515-1.115,2.925-2.344,4.208-3.59c1.71-1.661,3.194-3.353,4.398-4.845c0.902-1.119,1.647-2.126,2.211-2.923
	c0.376-0.531,0.671-0.97,0.88-1.287c0.104-0.158,0.187-0.286,0.246-0.38c0-0.066-0.003-0.126-0.003-0.192h-21.081
	c0,0-1.362,1.813-3.746,4.284c-0.924,2.327-2.021,4.251-2.963,5.678c-1.211,1.836-2.165,2.852-2.165,2.852l2.507,6.411
	c-3.159,0-6.348,0-9.561,0c0.553,0.835,0.86,1.854,0.634,3.095h-16.947l-1.48-3.095c-4.547,0-9.095,0-13.611,0
	c-1.089-1.038-2.665-1.14-2.665-1.14s-0.328-1.123-0.842-2.89c-0.154-0.53-0.325-1.117-0.509-1.75
	c-0.123-0.422-0.251-0.863-0.383-1.321c-0.133-0.458-0.27-0.932-0.41-1.418c-0.352-1.215-0.724-2.507-1.1-3.815
	c-0.752-2.617-1.518-5.299-2.153-7.567c-3.113,2.191-5.526,3.824-5.526,3.824s-1.801,1.807-3.478,5.369
	c0.56,1.165,1.169,2.273,1.801,3.315c1.896,3.127,3.999,5.665,5.595,7.394c-3.411,0-6.788,0-10.122,0
	c-0.011,0.143-0.029,0.276-0.038,0.42c0,0,2.118,0,2.118,2.118h-9.252c0,0-0.466-0.811-0.948-2.538c-3.243,0-6.432,0-9.546,0l0,0
	c-0.161-0.085-0.301-0.147-0.4-0.188c-0.1-0.041-0.159-0.061-0.159-0.061c4.903-2.274,8.545-7.8,9.049-8.591
	c0-0.035-0.002-0.068-0.002-0.103h-11.37c0,0-0.738,0.978-2.018,2.306c0,0,0,0,0,0c-0.427,1.077-0.923,1.994-1.376,2.719
	c-0.151,0.242-0.297,0.462-0.435,0.66c-0.55,0.792-0.957,1.226-0.957,1.226l0.795,2.032c-2.204,0-4.362,0-6.472,0
	c0.952,0.41,2.53,1.361,2.214,3.095h-9.141l-1.48-3.095c-8.334,0-15.604,0-21.437,0c6.274,4.945,12.758,9.634,19.424,14.07
	c36.274,0,93.676,0,134.685,0h0c10.437,0,19.799,0,27.488,0c1.999,0,3.884,0,5.644,0c6.027,0,10.612,0,13.28,0
	c1.122,0,2.18-0.047,3.172-0.136c0.992-0.089,1.92-0.22,2.782-0.387c0.431-0.084,0.846-0.176,1.245-0.277
	c1.196-0.303,2.246-0.681,3.149-1.117c0.602-0.29,1.139-0.606,1.611-0.941c0.472-0.336,0.879-0.691,1.221-1.061
	c0.684-0.74,1.108-1.536,1.271-2.347c0.204-1.013,0.001-2.048-0.609-3.019C327.767,536.1,327.629,535.908,327.475,535.72z
	 M521.231,427.926c0.178-0.01,0.351-0.026,0.535-0.026c0.913,0,1.748,0.121,2.505,0.341c7.319,2.133,7.365,13.613,0.171,15.896
	l7.375,37.228c9.122-11.61,17.387-23.922,24.726-36.83c-2.228,0-4.455,0-6.683,0c-1.34,0-2.512-0.26-3.517-0.715
	c-0.753-0.341-1.413-0.792-1.978-1.325c-0.188-0.178-0.366-0.365-0.533-0.559c-0.335-0.39-0.627-0.812-0.878-1.259
	c-0.753-1.34-1.128-2.9-1.128-4.459c0-0.78,0.095-1.56,0.284-2.312c0.189-0.752,0.471-1.477,0.848-2.147
	c0.377-0.67,0.848-1.285,1.413-1.818c1.318-1.244,3.148-2.04,5.49-2.04c5.152,0,10.305,0,15.457,0
	c1.728-3.545,3.381-7.134,4.971-10.756h-51.193L521.231,427.926z M366.678,551.61c-3.773,0.672-6.242,2.249-7.405,4.104
	c-0.129,0.206-0.242,0.416-0.339,0.628c-1.455,3.182,0.718,6.943,6.528,8.386c0.387,0.096,0.791,0.182,1.211,0.257
	c0.839,0.149,1.743,0.254,2.712,0.307c0.484,0.027,0.985,0.04,1.501,0.04c12.678,0,36.391,0,56.982,0
	c8.78-4.279,17.315-8.979,25.585-14.07c-21.316,0-63.899,0-82.567,0C369.338,551.263,367.936,551.386,366.678,551.61z"></path>
<path id="color_x5F_2_3_" fill="#86D1D8" d="M518.648,98.295h-57.049c-2.444,0-4.626,1.787-4.858,4.219
	c-0.266,2.791,1.921,5.139,4.657,5.139h2.34c2.584,0,4.679,2.095,4.679,4.679v10.528c0,2.584,2.095,4.679,4.679,4.679h53.222
	c5.71,0,10.296,4.813,9.921,10.604c-0.342,5.285-4.966,9.281-10.262,9.281h-89.142c-2.584,0-4.679-2.095-4.679-4.679v-2.339
	c0-2.584-2.095-4.679-4.679-4.679H327.466c-4.247,0-7.681-3.483-7.602-7.748c0.077-4.142-3.461-7.458-7.605-7.458h-71.938
	c-5.742,0-10.411,4.598-10.525,10.313c-0.118,5.897-4.629,10.742-10.528,10.742H187.1c-6.382,0-11.507,5.38-11.088,11.852
	c0.383,5.906,5.55,10.373,11.469,10.373h29.447c4.606,0,8.323,3.803,8.184,8.44c-0.134,4.481-4.044,7.936-8.528,7.936H77.731
	c-4.606,0-8.323-3.803-8.184-8.44c0.135-4.481,4.044-7.936,8.528-7.936h16.617c6.382,0,11.507-5.38,11.088-11.852
	c-0.382-5.906-5.55-10.373-11.469-10.373H44.169C16.17,186.951,0,240.403,0,297.638c0,5.483,0.159,10.928,0.452,16.338L64.9,237.849
	l0.001,0.001l0.001-0.001v0.002l47.83,56.497l55.045-65.742l0,0h42.423l66.519-81.53v0l69.952,84.835l56.735-37.365v0l91.045,92.355
	l43.013-50.807l0.001,0.001l0.001-0.001v0.002l49.845,58.877h7.93C594.577,219.343,565.719,150.449,518.648,98.295z M55.346,215.012
	c-2.907,0-5.264-2.357-5.264-5.264s2.357-5.264,5.264-5.264c2.907,0,5.264,2.357,5.264,5.264S58.253,215.012,55.346,215.012z
	 M109.737,250.103c-1.292,0-2.339-1.047-2.339-2.339c0-1.292,1.047-2.339,2.339-2.339c1.292,0,2.34,1.047,2.34,2.339
	C112.077,249.056,111.03,250.103,109.737,250.103z M136.641,205.654c-1.938,0-3.509-1.571-3.509-3.509
	c0-1.938,1.571-3.509,3.509-3.509c1.938,0,3.509,1.571,3.509,3.509C140.15,204.083,138.579,205.654,136.641,205.654z
	 M193.957,209.163c-1.292,0-2.339-1.047-2.339-2.339s1.047-2.339,2.339-2.339c1.292,0,2.339,1.047,2.339,2.339
	S195.249,209.163,193.957,209.163z M347.774,203.314c-1.615,0-2.924-1.309-2.924-2.924c0-1.615,1.31-2.924,2.924-2.924
	c1.615,0,2.924,1.309,2.924,2.924C350.699,202.005,349.389,203.314,347.774,203.314z M365.905,169.393
	c-2.584,0-4.679-2.095-4.679-4.679c0-2.584,2.095-4.679,4.679-4.679c2.584,0,4.679,2.095,4.679,4.679
	C370.584,167.298,368.489,169.393,365.905,169.393z M443.691,176.411c-2.261,0-4.094-1.833-4.094-4.094
	c0-2.261,1.833-4.094,4.094-4.094c2.261,0,4.094,1.833,4.094,4.094C447.785,174.578,445.952,176.411,443.691,176.411z
	 M471.179,240.745c-1.292,0-2.339-1.047-2.339-2.339c0-1.292,1.047-2.339,2.339-2.339c1.292,0,2.34,1.047,2.34,2.339
	C473.519,239.698,472.471,240.745,471.179,240.745z M491.064,220.86c-1.938,0-3.509-1.571-3.509-3.509
	c0-1.938,1.571-3.509,3.509-3.509c1.938,0,3.509,1.571,3.509,3.509C494.574,219.289,493.003,220.86,491.064,220.86z
	 M492.819,178.751c-2.261,0-4.094-1.833-4.094-4.094c0-2.261,1.833-4.094,4.094-4.094c2.261,0,4.094,1.833,4.094,4.094
	C496.913,176.918,495.08,178.751,492.819,178.751z M543.702,188.108c-1.938,0-3.509-1.571-3.509-3.509
	c0-1.938,1.571-3.509,3.509-3.509c1.938,0,3.509,1.571,3.509,3.509C547.211,186.537,545.64,188.108,543.702,188.108z
	 M561.247,236.067c-1.292,0-2.339-1.048-2.339-2.34c0-1.292,1.048-2.339,2.339-2.339c1.292,0,2.339,1.047,2.339,2.339
	C563.587,235.019,562.539,236.067,561.247,236.067z M200.951,107.243c-0.382-5.906-5.55-10.373-11.469-10.373h-45.814
	c-2.546,0-4.458-2.374-3.856-4.899c0.433-1.816,2.156-3.035,4.023-3.035h192.403c5.104,0,9.254,4.087,9.356,9.167
	c0.105,5.242,4.115,9.548,9.358,9.548h16.963c4.901,0,8.863-4.019,8.771-8.94c-0.089-4.78,3.994-8.605,8.775-8.605h8.773
	c6.046,0,10.902-5.097,10.505-11.228c-0.362-5.595-5.258-9.827-10.865-9.827h-73.916c-5.71,0-10.296-4.814-9.921-10.605
	c0.342-5.285,4.966-9.281,10.262-9.281h123.488c3.509,0,6.362,2.81,6.432,6.302c0.072,3.591,4.577,6.565,8.168,6.565h17.121
	C429.209,23.15,366.131,0,297.638,0C200.245,0,113.784,46.782,59.484,119.095h130.379
	C196.245,119.095,201.37,113.715,200.951,107.243z M382.866,26.688c2.261,0,4.094,1.833,4.094,4.094
	c0,2.261-1.833,4.094-4.094,4.094c-2.261,0-4.094-1.833-4.094-4.094C378.772,28.521,380.605,26.688,382.866,26.688z M312.683,9.142
	c1.615,0,2.924,1.309,2.924,2.924c0,1.615-1.309,2.924-2.924,2.924c-1.615,0-2.924-1.309-2.924-2.924
	C309.759,10.451,311.068,9.142,312.683,9.142z M278.761,60.609c0.969,0,1.754,0.785,1.754,1.754c0,0.969-0.785,1.755-1.754,1.755
	c-0.969,0-1.755-0.786-1.755-1.755C277.007,61.395,277.792,60.609,278.761,60.609z M235.482,37.215c1.615,0,2.924,1.309,2.924,2.924
	c0,1.615-1.309,2.924-2.924,2.924c-1.615,0-2.924-1.309-2.924-2.924C232.557,38.524,233.867,37.215,235.482,37.215z M219.691,60.609
	c2.584,0,4.679,2.095,4.679,4.679c0,2.584-2.095,4.679-4.679,4.679c-2.584,0-4.679-2.095-4.679-4.679
	C215.012,62.704,217.107,60.609,219.691,60.609z M137.811,68.213c0-1.615,1.309-2.924,2.924-2.924c1.615,0,2.924,1.309,2.924,2.924
	c0,1.615-1.309,2.924-2.924,2.924C139.12,71.137,137.811,69.828,137.811,68.213z M441.936,72.436h50.314
	c3.513,3.039,6.951,6.161,10.318,9.358h-60.631c-2.584,0-4.679-2.095-4.679-4.679C437.257,74.531,439.352,72.436,441.936,72.436z"></path>
<path id="color_x5F_1_3_" fill="#FFFFFF" d="M291.109,499.057c0,0,4.473-3.028,10.246-7.09c8.376-5.894,19.489-13.964,23.648-18.124
	c1.932-1.932,2.986-3.926,3.503-5.802l-7.637-9.078h-21.08l-4.705-2.492l-5.83,5.125l4.465,2.74l-6.744,2.48l-32.241-3.307
	c-38.854-8.68-42.161,29.347-41.334,41.334c0.827,11.987-8.68,20.254-8.68,20.254l4.547,9.507h16.947
	c0.226-1.241-0.081-2.26-0.634-3.095c-1.472-2.224-4.739-3.105-4.739-3.105c7.246-2.748,13.279-8.062,16.922-11.837
	c2.383-2.47,3.746-4.284,3.746-4.284h21.081c0,0.066,0.003,0.126,0.003,0.192c0.022,9.983,1.716,16.114,2.81,19.033h0
	c0.521,1.391,0.907,2.062,0.907,2.062h17.154c0-0.868-0.198-1.535-0.497-2.062c-1.053-1.856-3.429-1.865-3.429-1.865
	c0.535-8.735,2.762-15.614,5.121-20.626C287.767,502.41,291.109,499.057,291.109,499.057z M305.383,461.857
	c1.035,0,1.874,0.839,1.874,1.874c0,1.035-0.839,1.874-1.874,1.874c-1.035,0-1.874-0.839-1.874-1.874
	C303.509,462.695,304.348,461.857,305.383,461.857z M264.812,564.818c-7.865,0-53.934,0-98.441,0
	c-11.585-5.703-22.744-12.133-33.419-19.238c36.274,0,93.676,0,134.685,0h0C277.361,548.272,276.409,564.818,264.812,564.818z
	 M196.638,493.807h-11.37l-2.538-1.344l-3.145,2.764l2.408,1.478l-3.637,1.338l-17.389-1.783
	c-20.956-4.682-22.74,15.829-22.294,22.294c0.446,6.465-4.682,10.924-4.682,10.924l2.452,5.128h9.141
	c0.315-1.734-1.262-2.686-2.214-3.095c-0.394-0.169-0.684-0.249-0.684-0.249c3.914-1.485,7.165-4.352,9.129-6.389c0,0,0,0,0,0
	c1.28-1.328,2.018-2.306,2.018-2.306h11.37c0,0.036,0.002,0.068,0.002,0.103c0.009,4.104,0.542,6.996,1.057,8.84
	c0.482,1.727,0.948,2.538,0.948,2.538h9.252c0-2.118-2.118-2.118-2.118-2.118c0.009-0.145,0.028-0.278,0.038-0.42
	c0.333-4.51,1.492-8.088,2.726-10.708c1.677-3.562,3.478-5.369,3.478-5.369s2.413-1.633,5.526-3.824
	c0.001,0.002,0,0.001,0.001,0.003l0,0c-0.001-0.002,0-0.001-0.001-0.003c4.518-3.179,10.511-7.531,12.755-9.775
	c1.045-1.045,1.605-2.122,1.883-3.137L196.638,493.807z M188.414,497.647c-0.629,0-1.14-0.51-1.14-1.14c0-0.629,0.51-1.14,1.14-1.14
	c0.63,0,1.14,0.51,1.14,1.14C189.554,497.137,189.044,497.647,188.414,497.647z M291.043,217.936c0-2.261,1.833-4.094,4.094-4.094
	c2.261,0,4.094,1.833,4.094,4.094c0,2.261-1.833,4.094-4.094,4.094C292.876,222.03,291.043,220.197,291.043,217.936z
	 M298.061,250.688c0,1.615-1.309,2.924-2.924,2.924c-1.615,0-2.924-1.309-2.924-2.924c0-1.615,1.309-2.924,2.924-2.924
	C296.752,247.764,298.061,249.073,298.061,250.688z M84.341,476.142L84.341,476.142c-0.028,5.04-4.121,9.11-9.161,9.11h-8.592
	c-4.815-5.922-9.404-12.035-13.759-18.322H75.18C80.26,466.931,84.369,471.063,84.341,476.142z M79.325,298.061
	c0-1.292,1.047-2.339,2.339-2.339c1.292,0,2.339,1.047,2.339,2.339c0,1.292-1.047,2.34-2.339,2.34
	C80.372,300.401,79.325,299.353,79.325,298.061z M137.811,339.586c0-2.261,1.833-4.094,4.094-4.094c2.261,0,4.094,1.833,4.094,4.094
	c0,2.261-1.833,4.094-4.094,4.094C139.644,343.68,137.811,341.847,137.811,339.586z M297.944,564.818
	c-11.616,0-12.534-16.546-2.82-19.238c1.999,0,3.884,0,5.644,0C310.492,548.272,309.541,564.818,297.944,564.818z M324.965,255.952
	c0-1.938,1.571-3.509,3.509-3.509c1.938,0,3.509,1.571,3.509,3.509c0,1.938-1.571,3.509-3.509,3.509
	C326.536,259.461,324.965,257.89,324.965,255.952z M309.759,12.066c0-1.615,1.309-2.924,2.924-2.924
	c1.615,0,2.924,1.309,2.924,2.924c0,1.615-1.309,2.924-2.924,2.924C311.068,14.991,309.759,13.681,309.759,12.066z M277.007,62.364
	c0-0.969,0.786-1.754,1.755-1.754c0.969,0,1.754,0.785,1.754,1.754c0,0.969-0.785,1.755-1.754,1.755
	C277.792,64.118,277.007,63.333,277.007,62.364z M137.811,68.213c0-1.615,1.309-2.924,2.924-2.924c1.615,0,2.924,1.309,2.924,2.924
	c0,1.615-1.309,2.924-2.924,2.924C139.12,71.137,137.811,69.828,137.811,68.213z M422.051,60.025c0-1.615,1.31-2.924,2.924-2.924
	c1.615,0,2.924,1.309,2.924,2.924c0,1.615-1.309,2.924-2.924,2.924C423.361,62.949,422.051,61.64,422.051,60.025z M232.557,40.139
	c0-1.615,1.309-2.924,2.924-2.924c1.615,0,2.924,1.309,2.924,2.924c0,1.615-1.309,2.924-2.924,2.924
	C233.867,43.064,232.557,41.754,232.557,40.139z M420.881,113.246c0-1.292,1.047-2.339,2.339-2.339c1.292,0,2.339,1.047,2.339,2.339
	s-1.047,2.339-2.339,2.339C421.929,115.586,420.881,114.538,420.881,113.246z M378.772,30.782c0-2.261,1.833-4.094,4.094-4.094
	c2.261,0,4.094,1.833,4.094,4.094c0,2.261-1.833,4.094-4.094,4.094C380.605,34.876,378.772,33.043,378.772,30.782z M215.012,65.288
	c0-2.584,2.095-4.679,4.679-4.679c2.584,0,4.679,2.095,4.679,4.679c0,2.584-2.095,4.679-4.679,4.679
	C217.107,69.967,215.012,67.872,215.012,65.288z M437.257,301.571c1.938,0,3.509,1.571,3.509,3.509c0,1.938-1.571,3.509-3.509,3.509
	c-1.938,0-3.509-1.571-3.509-3.509C433.748,303.142,435.319,301.571,437.257,301.571z M426.688,356.921h-31.308
	c4.464-8.539,9.857-15.241,15.698-19.466h15.61V356.921z M564.756,365.759c0-1.857,1.506-3.363,3.363-3.363
	c0.31,0,0.603,0.055,0.888,0.134c1.155,0.318,2.057,1.228,2.357,2.391c0.07,0.27,0.118,0.547,0.118,0.839
	c0,1.857-1.505,3.363-3.363,3.363C566.262,369.122,564.756,367.616,564.756,365.759z M555.399,285.779
	c0-1.615,1.309-2.924,2.924-2.924c1.615,0,2.924,1.309,2.924,2.924c0,1.615-1.309,2.924-2.924,2.924
	C556.708,288.704,555.399,287.395,555.399,285.779z M392.447,337.358h13.384c-5.342,4.771-10.208,11.443-14.249,19.564h-27.534
	C372.061,348.643,381.691,341.943,392.447,337.358z M277.007,102.134c0-2.261,1.833-4.094,4.094-4.094
	c2.261,0,4.094,1.833,4.094,4.094c0,2.261-1.833,4.094-4.094,4.094C278.84,106.228,277.007,104.395,277.007,102.134z
	 M477.613,316.777c-1.615,0-2.924-1.309-2.924-2.924c0-1.615,1.309-2.924,2.924-2.924c1.615,0,2.924,1.309,2.924,2.924
	C480.537,315.468,479.228,316.777,477.613,316.777z M442.521,273.497c-2.261,0-4.094-1.833-4.094-4.094
	c0-2.261,1.833-4.094,4.094-4.094c2.261,0,4.094,1.833,4.094,4.094C446.615,271.664,444.782,273.497,442.521,273.497z
	 M504.173,426.309l6.276-31.678c-0.341-1.259-0.703-2.509-1.098-3.745c-0.363-1.137-0.737-2.268-1.145-3.384
	c-0.367-1.002-0.768-1.986-1.17-2.97l5.417-0.014l0.089-0.452v46.721l0,0L504.173,426.309z M556.54,396.229h21.995
	c1.378-3.926,2.68-7.888,3.896-11.887l-69.8,0.175l-0.083-0.415l6.546,33.041h51.193c1.514-3.449,2.983-6.922,4.369-10.438H556.54
	C549.788,406.705,549.799,396.229,556.54,396.229z M538.847,406.705c-6.752,0-6.741-10.476,0-10.476
	C545.599,396.229,545.588,406.705,538.847,406.705z M512.542,384.064l0.007,0.038L512.542,384.064L512.542,384.064z M399.22,334.82
	c8.332-2.754,17.217-4.286,26.451-4.375v4.375H399.22z M80.558,351.336l15.481,16.843l-6.985,35.257l-0.02,0.101l0,0.001
	l-8.249-41.643l0,0v0l0,0l0,32.367l-5.798-3.102l-2.432,12.276H61.851c-7.071,0-12.804,5.727-12.816,12.796H24.589
	C10.839,384.619,2.41,350.16,0.452,313.976L64.9,237.849l0.001,0.001l0.001-0.001v0.002l0,0v65.104l15.656,18.823V351.336z
	 M107.359,363.52L107.359,363.52l0,0.001l0,0l-9.401-5.031l9.401-47.455V363.52z M492.852,442.493c2.845,0,5.474,0.905,7.633,2.431
	l-4.702,23.736c-0.944,0.213-1.922,0.336-2.931,0.336h-9.887l-5.25-26.503H492.852z M133.227,394.263l-5.797-3.102l-2.098,10.59
	l-3.162-15.96h6.324l4.734-23.894V394.263z M456.003,502.177l-11.694-0.029c-9.155,0-16.577-7.422-16.577-16.577v0
	c0-9.155,7.422-16.576,16.577-16.576h18.268l4.197-21.187l5.997,3.209v-33.481l-4.944,24.957H354.826
	c-13.92,0-25.215-11.221-25.343-25.111c-0.001-0.08-0.006-0.158-0.006-0.238v0h5.582l0.037-25.124
	c0.001-0.45,0.015-2.642,1.026-5.082c0.325-0.784,2.196-3.571,2.784-4.165c2.349-2.375,6.507-3.849,10.095-3.849
	c11.075,0,13.414,7.992,13.479,8.134l-0.014,0.015c0.668,1.463,1.066,3.105,1.063,4.947l-0.033,25.124h7.306v-27.453
	c0-3.477-0.871-6.481-2.344-9.029h0c-0.521-0.9-1.099-1.756-1.766-2.538c-4.04-4.735-10.588-7.277-17.484-7.478
	c-1.153,0.013-2.155,0.029-2.344,0.049c-8.987,0.584-15.097,6.493-16.85,14.28l-5.49,0.014l16.55-53.551l62.335-22.035V194.547
	l-60.423,72.254h-28.513l-89.986,54.353l52.235-61.698V147.077l-66.519,81.53h-42.423l-55.045,65.742l2.014,2.379h19.234
	l74.967,88.551l0.434,0.512h-71.42l3.496,17.646h168.337c7.158,0,12.946,5.868,12.814,13.057
	c-0.129,7.056-6.183,12.576-13.24,12.576h-104.5c-6.672,0-12.081,5.409-12.081,12.082c0,6.672,5.409,12.082,12.081,12.082h121.066
	c9.155,0,16.577,7.421,16.577,16.576v0c0,9.155-7.422,16.577-16.577,16.577h-0.975c-7.318,0-13.251,5.933-13.251,13.251l0,0
	c0,7.319,5.933,13.251,13.251,13.251h178.236c3.641-3.478,7.189-7.053,10.65-10.711H456.003z M254.4,445.875h-26.946
	c-7.514,0-7.502-11.659,0-11.659H254.4C261.914,434.216,261.902,445.875,254.4,445.875z M274.091,445.875
	c-7.514,0-7.502-11.659,0-11.659C281.605,434.216,281.593,445.875,274.091,445.875z M356.371,504.66c-6.752,0-6.741-10.476,0-10.476
	C363.124,494.184,363.112,504.66,356.371,504.66z M398.276,504.66h-24.211c-6.752,0-6.741-10.476,0-10.476h24.211
	C405.028,494.184,405.017,504.66,398.276,504.66z M380.349,463.008c-9.069,0-9.054-14.07,0-14.07h47.23c9.069,0,9.054,14.07,0,14.07
	H380.349z M468.84,238.406c0-1.292,1.047-2.339,2.339-2.339c1.292,0,2.34,1.047,2.34,2.339c0,1.292-1.047,2.339-2.34,2.339
	C469.887,240.745,468.84,239.698,468.84,238.406z M439.597,172.317c0-2.261,1.833-4.094,4.094-4.094
	c2.261,0,4.094,1.833,4.094,4.094c0,2.261-1.833,4.094-4.094,4.094C441.43,176.411,439.597,174.578,439.597,172.317z
	 M488.725,174.656c0-2.261,1.833-4.094,4.094-4.094c2.261,0,4.094,1.833,4.094,4.094c0,2.261-1.833,4.094-4.094,4.094
	C490.558,178.751,488.725,176.918,488.725,174.656z M136.641,198.636c1.938,0,3.509,1.571,3.509,3.509
	c0,1.938-1.571,3.509-3.509,3.509c-1.938,0-3.509-1.571-3.509-3.509C133.132,200.207,134.703,198.636,136.641,198.636z
	 M487.555,217.351c0-1.938,1.571-3.509,3.509-3.509c1.938,0,3.509,1.571,3.509,3.509c0,1.938-1.571,3.509-3.509,3.509
	C489.126,220.86,487.555,219.289,487.555,217.351z M344.85,200.39c0-1.615,1.31-2.924,2.924-2.924c1.615,0,2.924,1.309,2.924,2.924
	c0,1.615-1.309,2.924-2.924,2.924C346.159,203.314,344.85,202.005,344.85,200.39z M353.222,370.615
	c2.321-3.63,4.902-7.074,7.721-10.31h7.575c-2.436,3.267-4.633,6.713-6.607,10.31H353.222z M424.825,360.305v27.196h-24.751
	c-0.655-2.471-1.715-4.775-3.108-6.84h0c0,0-0.001-0.001-0.001-0.001c-0.602-0.892-1.261-1.741-1.98-2.536c0,0,0,0-0.001-0.001
	c-0.79-0.874-1.644-1.689-2.559-2.432c-2.9-3.116-7.024-5.077-11.616-5.077h-16.961c2.028-3.604,4.285-7.051,6.792-10.31H424.825z
	 M191.617,206.824c0-1.292,1.047-2.339,2.339-2.339c1.292,0,2.339,1.047,2.339,2.339s-1.047,2.339-2.339,2.339
	C192.665,209.163,191.617,208.116,191.617,206.824z M128.453,152.432c0-2.261,1.833-4.094,4.094-4.094
	c2.261,0,4.094,1.833,4.094,4.094c0,2.261-1.833,4.094-4.094,4.094C130.286,156.526,128.453,154.693,128.453,152.432z
	 M361.226,164.714c0-2.584,2.095-4.679,4.679-4.679c2.584,0,4.679,2.095,4.679,4.679c0,2.584-2.094,4.679-4.679,4.679
	C363.321,169.393,361.226,167.298,361.226,164.714z M112.077,247.764c0,1.292-1.047,2.339-2.34,2.339
	c-1.292,0-2.339-1.047-2.339-2.339c0-1.292,1.047-2.339,2.339-2.339C111.03,245.424,112.077,246.472,112.077,247.764z
	 M400.837,417.143v-23.824c0-0.823-0.049-1.634-0.134-2.434h25.985v26.258H400.837z M540.192,184.599
	c0-1.938,1.571-3.509,3.509-3.509c1.938,0,3.509,1.571,3.509,3.509c0,1.938-1.571,3.509-3.509,3.509
	C541.764,188.108,540.192,186.537,540.192,184.599z M558.908,233.727c0-1.292,1.048-2.339,2.339-2.339
	c1.292,0,2.339,1.047,2.339,2.339c0,1.292-1.047,2.34-2.339,2.34C559.955,236.067,558.908,235.019,558.908,233.727z M50.082,209.748
	c0-2.907,2.357-5.264,5.264-5.264c2.907,0,5.264,2.357,5.264,5.264s-2.357,5.264-5.264,5.264
	C52.439,215.012,50.082,212.655,50.082,209.748z M553.122,346.416l-58.67-59.515l43.013-50.807l0.001,0.001l0.001-0.001v65.107
	l15.656,18.823V346.416z M514.458,364.735c-1.938,0-3.509-1.571-3.509-3.509c0-1.938,1.571-3.509,3.509-3.509
	c1.938,0,3.509,1.571,3.509,3.509C517.968,363.164,516.397,364.735,514.458,364.735z"></path>
</svg>