<?xml version="1.0" standalone="no"?>
<svg version="1.1" id="Layer_1" xmlns="http://www.w3.org/2000/svg" xmlns:xlink="http://www.w3.org/1999/xlink" x="0px" y="0px" viewBox="0 0 595.276 595.276" enable-background="new 0 0 595.276 595.276" xml:space="preserve">
<path id="color_x5F_8_38_" fill="#612F24" d="M292.756,562.151l0.065,8.863h-2.791l0.027,3.639h-45.534l0.462-12.502H292.756z
	 M339.485,562.151l0.065,8.863h2.57l0.027,3.639h23.54l-0.462-12.502H339.485z M342.274,591.943
	c4.459-0.671,8.882-1.451,13.274-2.317h-13.291L342.274,591.943z M243.969,589.626l-0.03,0.807
	c15.059,2.744,30.511,4.363,46.269,4.749l-0.041-5.556H243.969z M284.663,335.21h-86.831c-0.258,0.778-0.403,1.607-0.403,2.469
	c0,4.349,3.558,7.907,7.907,7.907h62.266C272.329,340.884,278.156,337.289,284.663,335.21z M310.613,335.21
	c6.506,2.079,12.333,5.674,17.062,10.376h62.266c4.349,0,7.907-3.558,7.907-7.907c0-0.862-0.145-1.691-0.403-2.469H310.613z
	 M277.906,533.28l0.478,18.477h14.501v-4.406C290.062,545.466,284,541.615,277.906,533.28z M280.123,505.813
	c0,0,5.026,9.226,6.507,2.991c-0.026-1.732-0.087-3.679-0.173-5.767c-3.23-0.648-6.355-1.581-9.36-2.753
	C278.633,503.143,280.123,505.813,280.123,505.813z M252.479,413.546c3.3-4.37,7.22-8.244,11.629-11.496
	c-5.676-7.237-9.07-16.349-9.07-26.26c0-6.596,1.5-12.841,4.176-18.415h-11.77l1.863,32.533c3.005,1.011,4.991,4.013,4.593,7.281
	C253.901,397.19,253.242,404.22,252.479,413.546z M268.876,551.757l-0.975-37.658l-9.642-23.302c0,0-1.081-1.867-0.732-3.339
	c-0.976-0.981-1.907-2.006-2.808-3.057l3.857,67.357H268.876z M353.769,419.976h5.112c-0.657-13.141-2.105-30.34-2.875-39.057
	L353.769,419.976z M356.588,370.747c1.067-1.607,2.803-2.756,4.871-3.008c3.742-0.447,7.144,2.217,7.594,5.963l1.016,11.349
	l1.896-27.676h-14.612L356.588,370.747z M346.223,551.757h12.429c0,0,0,0,0,0l4.019-58.682l-0.068-1.829h0.193l1.099-16.04h-13.289
	L346.223,551.757z M246.798,513.106l-1.429,38.651h3.684l-3.625-63.309c-1.349,0.916-2.34,1.529-2.814,1.953
	c0,0-0.014-0.044-0.037-0.116l-0.256,7.645h1.796l-0.553,15.176H246.798z M223.31,357.376l1.328,19.397
	c1.033-0.611,2.236-0.964,3.524-0.952c3.77,0.037,6.803,3.123,6.766,6.889l-0.412,37.266h3.645l2.04-22.785l-2.28-39.815H223.31z
	 M336.007,406.053c2.74,0.409,6.15,1.746,8.738,5.212l3.086-53.889h-11.77c2.676,5.574,4.176,11.819,4.176,18.415
	c0,9.911-3.394,19.023-9.07,26.26C332.855,403.295,334.47,404.632,336.007,406.053z M330.83,494.497
	c0.497,0.251,0.981,0.521,1.455,0.808l0.257-3.232c-0.547,0.43-1.099,0.852-1.662,1.261L330.83,494.497z M265.146,464.958
	c-0.989,2.03-2.008,3.903-3.045,5.626c5.428,8.372,13.728,14.703,23.51,17.597c-0.134-1.971-0.275-3.953-0.42-5.915
	c-4.965-1.778-9.626-4.65-13.602-8.626C268.959,471.009,266.815,468.077,265.146,464.958z M299.248,484.39l0.491,5.481
	c0.909-0.044,1.809-0.125,2.702-0.226l-0.061-5.53C301.339,484.249,300.294,484.345,299.248,484.39z M316.055,485.717
	c0.513-0.249,1.019-0.51,1.52-0.779l0.287-6.551c-0.616,0.405-1.243,0.783-1.876,1.148L316.055,485.717z M255.379,450.017
	c0.781-1.116,1.325-2.112,1.325-2.112s3.693-6.613,5.445-10.175c1.641-5.928,4.782-11.527,9.441-16.187
	c2.749-2.749,5.825-4.967,9.101-6.666c-1.993-0.865-3.904-1.881-5.725-3.028c-11.815,7.51-19.661,20.706-19.661,35.742
	C255.305,448.406,255.333,449.214,255.379,450.017z M332.335,459.978l-0.55,12.627c5.143-7.009,8.187-15.654,8.187-25.014
	c0-15.036-7.846-28.232-19.661-35.742c-1.821,1.147-3.732,2.163-5.725,3.028c3.276,1.698,6.353,3.917,9.101,6.666
	C334.08,431.936,336.96,446.995,332.335,459.978z M514.764,406.983c-0.94-0.231-3.881-0.306-6.966,1.047
	c-0.956,0.419-1.923,0.968-2.852,1.703c-1.82,1.441-3.483,3.558-4.57,6.652c-0.963,2.75-4.813,10.995-5.205,11.834
	c-0.021,0.045-0.039,0.083-0.039,0.083s-4.362,9.558-6.279,3.443c-0.06-1.09-0.238-5.799-0.27-7.016
	c-0.477-18.382,0.168-46.818,0.168-46.818c0.189-3.765-2.712-6.961-6.481-7.15c-3.764-0.181-6.969,2.717-7.154,6.485l-0.765,41.271
	c-0.504-0.204-2.101-0.734-2.388-0.82l-3.161-52.888c-0.201-3.285-2.703-5.886-5.843-6.337c-0.453-0.065-0.919-0.086-1.394-0.057
	c-0.282,0.018-0.556,0.057-0.827,0.107c-3.341,0.62-5.775,3.644-5.563,7.125l3.078,51.59l-1.129,0.08l-5.16-44.847
	c-0.413-3.742-3.789-6.445-7.531-6.032c-3.747,0.414-6.449,3.789-6.036,7.532l5.354,46.629c-0.478,0.285-0.941,0.59-1.395,0.909
	l-3.529-23.336c-0.408-3.024-3.199-5.135-6.218-4.716c-3.02,0.411-5.131,3.199-4.719,6.222l5.413,37.037
	c-0.152,1.318,0.985,19.362,0.985,19.362c0.304,4.293,3.548,15.669,6.228,18.884l0.075,2.017l0.096,2.565l0.103,2.758l43.533-3.086
	l-0.023-0.606l-0.263-7.037c0.028,0.07,0.045,0.113,0.045,0.113c1.157-1.191,5.727-3.909,10.842-10.089
	c4.13-4.991,8.615-12.237,11.948-22.781l9.008-27.041C515.88,411.777,517.851,407.751,514.764,406.983z"></path>
<path id="color_x5F_7_42_" fill="#00203D" d="M236.644,241.316c-1.097,1.097-1.916,2.36-2.516,3.698l2.423-35.152l2.713,28.828
	L236.644,241.316z M361.147,245.014l-2.423-35.152l-2.714,28.828l2.621,2.625C359.728,242.413,360.547,243.676,361.147,245.014z
	 M284.539,272.716c-0.081-0.594-0.134-1.196-0.134-1.812v-12.04c0-4.113,1.043-8.708,3.721-11.944l-9.938-49.383l-0.006-0.029
	l-0.009-0.044l-10.628,2.588l-0.214,0.653l-8.748,26.702l11.853-3.031l-6.235,7.789c3.447,3.816,3.593,8.105,2.627,11.523
	L284.539,272.716z M327.944,200.706l8.748,26.702l-11.853-3.031l6.235,7.789c-1.376,1.523-2.246,3.12-2.706,4.711
	c-0.311,1.075-0.433,2.143-0.434,3.182c0,1.275,0.193,2.499,0.512,3.631l-17.709,29.026c0.081-0.593,0.134-1.196,0.134-1.812v-12.04
	c0-4.091-1.044-8.69-3.724-11.933l9.94-49.394l0.006-0.029l0.009-0.044l10.628,2.588L327.944,200.706z M327.092,237.402
	c0-3.711-3.008-6.719-6.719-6.719c-3.711,0-6.719,3.008-6.719,6.719c0,3.711,3.008,6.719,6.719,6.719
	C324.084,244.121,327.092,241.113,327.092,237.402z M295.886,168.084c-0.033,0.55,5.056,0.607,5.91-1.999
	c1.139-3.474-0.221-7.315-1.365-10.435c-0.489-1.332-2.215-0.387-1.799,1.028c0.786,2.677,1.992,6.617-0.008,8.891
	C297.743,166.57,296.005,166.09,295.886,168.084z M292.61,142.327c7.334-7.552-19.061-5.086-15.858-0.787
	C276.362,141.016,290.599,141.788,292.61,142.327z M318.555,141.352c3.107-4.368-23.336-6.253-15.837,1.136
	C304.718,141.905,318.934,140.819,318.555,141.352z M261.952,125.119c-0.052-1.624,0.031-2.955,0.308-3.823
	c1.248-3.929,5.58-12.091,15.341-13.472c23.256-20.474,54.489-0.479,53.992,13.062c0.096,1.091,0.131,2.426,0.118,3.918
	c-0.006,0.667-0.021,1.364-0.045,2.088c-0.246,7.307-1.383,17.186-2.357,22.508c-0.176,0.962-0.347,1.779-0.506,2.4
	c-0.799,3.118-4.331,7.211-4.331,7.211s0.43-1.503,0.827-3.779c-1.939,4.03-6.846,6.127-11.546,6.13
	c-0.16,0.002-0.319,0.004-0.478-0.001c-1.082-0.033-2.147-0.178-3.176-0.435c-4.359-1.082-7.837-4.064-9.539-8.188
	c-0.235-0.572-0.699-2.584-2.673-2.584c-1.974,0-2.434,2.012-2.669,2.584c-1.703,4.125-5.18,7.106-9.539,8.188
	c-1.029,0.257-2.094,0.402-3.176,0.435c-0.159,0.005-0.318,0.003-0.478,0.001c-5.076-0.003-10.394-2.449-11.953-7.134
	c0.432,2.83,0.991,4.783,0.991,4.783s-3.533-4.093-4.331-7.211c-0.19-0.744-0.453-1.81-0.756-3.092
	c-1.293-5.464-3.343-14.975-3.896-21.508C262.015,126.464,261.973,125.769,261.952,125.119z M281.973,146.554
	c-10.805,0-9.864,4.245-9.777,5.378c0.358,4.58,3.906,6.998,9.832,6.998c5.925,0,9.409-3.693,10.802-7.084
	C293.134,151.12,292.778,146.554,281.973,146.554z M313.801,146.554c-10.805,0-11.16,4.566-10.857,5.292
	c1.393,3.391,4.877,7.084,10.802,7.084c5.925,0,9.474-2.418,9.832-6.998C323.665,150.799,324.606,146.554,313.801,146.554z
	 M269.645,150.28c0.365-2.366,2.45-6.164,12.334-6.164c9.329,0,12.543,3.926,12.543,3.926c1.318,0.643,5.411,0.643,6.729,0
	c0,0,3.214-3.926,12.543-3.926c8.753,0,11.39,2.979,12.133,5.304c0.158-4.204-0.387-8.917-2.887-12.198
	c-2.06-2.703-0.105-11.102-2.993-13.341c-0.128-0.099-20.953-9.765-34.921-1.664c-4.222-1.525-6.511-0.667-9.264,1.375
	c-0.126,0.093-0.252,0.189-0.381,0.289c-2.887,2.239-0.933,10.638-2.993,13.341C269.818,140.729,269.379,145.871,269.645,150.28z
	 M305.421,306.961h-4.381v-18.352l4.202-6.887c-1.259,0.884-2.673,1.56-4.202,1.963v-0.136c3.949-1.402,6.782-5.16,6.782-9.589
	c0-5.625-4.56-10.184-10.184-10.184c-5.625,0-10.184,4.56-10.184,10.184c0,4.429,2.833,8.188,6.782,9.589v0.136
	c-1.529-0.402-2.943-1.079-4.202-1.963l4.202,6.887v18.351h-4.381c-2.319,0-4.411,0.934-5.947,2.469
	c-1.236,1.236-2.087,2.881-2.355,4.713h32.171C313.131,310.084,309.643,306.961,305.421,306.961z M367.454,306.961
	c-4.236,0-7.725,3.124-8.317,7.182h32.171c-0.268-1.832-1.119-3.477-2.355-4.713c-1.536-1.536-3.628-2.469-5.947-2.469h-4.682
	v-32.313c0-1.438-0.578-2.301-2.529-4.339c-0.001,0-0.002,0-0.004,0l-4.191-4.195l-9.665-9.675l-0.156-2.26
	c1.196-3.189,0.389-5.758,0.27-6.375c-0.873-0.241-5.225-1.102-9.403,3.663c-4.178,4.765-3.062,9.571-2.249,11.016
	c0.442-0.016,1.686,0.116,3.42-0.485c1.041-0.361,2.257-0.992,3.589-2.08l14.715,14.729v32.313H367.454z M233.227,247.805
	c-0.119,0.617-0.926,3.185,0.27,6.375l-0.156,2.26l-9.665,9.675l-4.191,4.195c-0.001,0-0.002,0-0.004,0
	c-1.952,2.038-2.529,2.901-2.529,4.339v32.313h-4.682c-2.318,0-4.411,0.934-5.947,2.469c-1.236,1.236-2.087,2.881-2.355,4.713
	h32.171c-0.592-4.059-4.082-7.182-8.317-7.182h-4.667v-32.313l14.715-14.729c1.332,1.087,2.549,1.719,3.589,2.08
	c1.734,0.601,2.978,0.469,3.42,0.485c0.813-1.445,1.929-6.251-2.249-11.016C238.452,246.703,234.1,247.564,233.227,247.805z
	 M504.656,402.291c-2.066,0-3.738,1.672-3.738,3.738c0,2.061,1.672,3.734,3.738,3.734c0.099,0,0.193-0.022,0.29-0.029
	c0.928-0.735,1.896-1.284,2.852-1.703c0.37-0.579,0.591-1.263,0.591-2.002C508.389,403.963,506.717,402.291,504.656,402.291z
	 M203.949,520.028c-2.066,0-3.738,1.672-3.738,3.738c0,2.061,1.672,3.734,3.738,3.734c2.061,0,3.734-1.672,3.734-3.734
	C207.683,521.7,206.011,520.028,203.949,520.028z M203.949,532.831c-2.066,0-3.738,1.672-3.738,3.733
	c0,2.066,1.672,3.738,3.738,3.738c2.061,0,3.734-1.672,3.734-3.738C207.683,534.503,206.011,532.831,203.949,532.831z
	 M203.949,545.635c-2.066,0-3.738,1.672-3.738,3.738c0,2.061,1.672,3.733,3.738,3.733c2.061,0,3.734-1.672,3.734-3.733
	C207.683,547.307,206.011,545.635,203.949,545.635z M417.608,570.085c-16.427,7.244-33.628,13.052-51.452,17.252l-3.552-96.091
	h52.09L417.608,570.085z M409.19,527.512c0-2.066-1.672-3.738-3.738-3.738c-2.061,0-3.733,1.672-3.733,3.738
	c0,2.061,1.672,3.733,3.733,3.733C407.517,531.246,409.19,529.574,409.19,527.512z M409.19,514.705c0-2.061-1.672-3.733-3.738-3.733
	c-2.061,0-3.733,1.672-3.733,3.733c0,2.066,1.672,3.738,3.733,3.738C407.517,518.443,409.19,516.77,409.19,514.705z M409.19,501.905
	c0-2.066-1.672-3.738-3.738-3.738c-2.061,0-3.733,1.672-3.733,3.738c0,2.062,1.672,3.734,3.733,3.734
	C407.517,505.639,409.19,503.967,409.19,501.905z M100.914,520.973c-20.162-17.773-37.895-38.23-52.646-60.818l-0.353-38.624
	l52.09-0.09L100.914,520.973z M87.049,432.122c0.004,2.061,1.678,3.731,3.74,3.727c2.066-0.004,3.735-1.679,3.732-3.74
	c-0.004-2.066-1.679-3.735-3.745-3.731C88.714,428.382,87.045,430.056,87.049,432.122z M87.071,444.921
	c0.004,2.066,1.678,3.735,3.74,3.732c2.066-0.004,3.735-1.679,3.731-3.745c-0.004-2.061-1.679-3.731-3.744-3.727
	C88.736,441.185,87.067,442.86,87.071,444.921z M94.564,457.716c-0.004-2.066-1.679-3.735-3.744-3.731
	c-2.061,0.004-3.731,1.678-3.727,3.744c0.004,2.061,1.678,3.73,3.74,3.727C92.899,461.452,94.568,459.777,94.564,457.716z
	 M332.877,577.936c-2.061,0-3.733,1.672-3.733,3.738c0,2.061,1.672,3.734,3.733,3.734c2.066,0,3.738-1.672,3.738-3.734
	C336.616,579.608,334.943,577.936,332.877,577.936z M332.877,590.739c-1.761,0-3.228,1.224-3.621,2.864
	c2.322-0.245,4.637-0.512,6.943-0.81C335.582,591.579,334.334,590.739,332.877,590.739z"></path>
<path id="color_x5F_6_50_" fill="#FABBAF" d="M138.33,207.787c0.099,0.117,0.473,0.557,0.978,1.153l-9.484,11.65
	c-1.487-1.414-2.714-2.59-2.854-2.756c-0.379-0.447-7.324-2.428-8.215-3.478c-1.284-1.514-12.658-7.988-15.963-21.522
	c-0.365-1.494,2.078-3.457,2.885-2.506c0,0-3.042-5.513-1.869-6.509c1.173-0.995,2.778-1.031,3.585-0.08c0,0-2.79-2.95-0.845-5.302
	c1.945-2.352,5.526,2.208,5.526,2.208c-1.2-5.274,3.295-5.431,4.038-4.084c7.201,13.054,14.557,17.085,15.365,16.565
	c0.736-0.474,0.766-1.404,0.456-2.603c-0.31-1.199-3.481-4.794-3.659-5.958c-0.495-3.242,1.604-5.193,2.091-4.618
	c0.487,0.574,8.796,11.735,8.943,12.651C140.635,200.847,137.904,207.284,138.33,207.787z M489.598,190.328
	c0,0,3.042-5.513,1.869-6.509c-1.173-0.995-2.778-1.031-3.585-0.08c0,0,2.79-2.95,0.845-5.302c-1.945-2.352-5.526,2.208-5.526,2.208
	c1.2-5.274-3.295-5.431-4.038-4.084c-7.201,13.054-14.557,17.085-15.365,16.565c-0.736-0.474-0.766-1.404-0.456-2.603
	c0.31-1.199,3.481-4.794,3.659-5.958c0.495-3.242-1.604-5.193-2.091-4.618c-0.487,0.574-8.796,11.735-8.943,12.651
	c-1.327,8.249,1.404,14.686,0.978,15.189c-0.099,0.117-0.473,0.557-0.978,1.153l9.483,11.65c1.487-1.414,2.714-2.59,2.854-2.756
	c0.379-0.447,7.324-2.428,8.215-3.478c1.284-1.514,12.658-7.988,15.963-21.522C492.848,191.34,490.405,189.377,489.598,190.328z
	 M297.638,194.254L297.638,194.254L297.638,194.254L297.638,194.254z M269.645,150.28c-0.266-4.409,0.173-9.551,2.845-13.057
	c2.06-2.703,0.105-11.102,2.993-13.341c0.128-0.099,0.255-0.196,0.381-0.289c2.753-2.042,5.042-2.9,9.264-1.375
	c13.968-8.102,34.793,1.564,34.921,1.664c2.887,2.239,0.933,10.638,2.993,13.341c2.5,3.281,3.044,7.993,2.887,12.198
	c-0.743-2.325-3.381-5.304-12.133-5.304c-9.329,0-12.543,3.926-12.543,3.926c-1.318,0.643-5.411,0.643-6.729,0
	c0,0-3.214-3.926-12.543-3.926C272.095,144.116,270.01,147.914,269.645,150.28z M302.718,142.488
	c1.999-0.583,16.216-1.669,15.837-1.136C321.663,136.983,295.22,135.098,302.718,142.488z M276.752,141.54
	c-0.39-0.524,13.846,0.249,15.858,0.787C299.945,134.775,273.55,137.241,276.752,141.54z M262.664,162.607
	c-2.396-3.833-3.514-11.5,0-13.576c1.201-0.71,2.334-0.672,3.308-0.323c0.303,1.282,0.566,2.348,0.756,3.092
	c0.799,3.118,4.331,7.211,4.331,7.211s-0.559-1.953-0.991-4.783c1.559,4.685,6.877,7.131,11.953,7.134
	c0.16,0.002,0.319,0.004,0.478-0.001c1.082-0.033,2.147-0.178,3.176-0.435c4.359-1.082,7.837-4.064,9.539-8.188
	c0.235-0.572,0.695-2.584,2.669-2.584c1.974,0,2.438,2.012,2.673,2.584c1.703,4.125,5.18,7.106,9.539,8.188
	c1.029,0.257,2.094,0.402,3.176,0.435c0.159,0.005,0.318,0.003,0.478,0.001c4.7-0.003,9.607-2.1,11.546-6.13
	c-0.397,2.276-0.827,3.779-0.827,3.779s3.532-4.093,4.331-7.211c0.159-0.622,0.33-1.439,0.506-2.4
	c0.973-0.347,2.105-0.376,3.303,0.331c3.514,2.076,2.396,9.743,0,13.577c-2.264,3.622-5.838,5.507-8.031,3.222
	c-1.565,7.66-5.235,15.125-10.979,20.033l0.118,2.94l-16.082,4.751l-16.082-4.751l0.145-3.625
	c-5.625-5.086-9.338-12.571-10.944-20.122C268.571,168.146,264.95,166.264,262.664,162.607z M295.886,168.084
	c-0.033,0.55,5.056,0.607,5.91-1.999c1.139-3.474-0.221-7.315-1.365-10.435c-0.489-1.332-2.215-0.387-1.799,1.028
	c0.786,2.677,1.992,6.617-0.008,8.891C297.743,166.57,296.005,166.09,295.886,168.084z M285.72,173.225
	c1.804,4.028,6.422,6.896,11.843,6.896c5.421,0,10.039-2.868,11.843-6.896c0.255-0.569-0.437-1.115-1.187-0.939
	c-3.196,0.747-6.817,1.169-10.656,1.169c-3.839,0-7.46-0.422-10.656-1.169C286.156,172.11,285.464,172.656,285.72,173.225z
	 M265.146,464.958c0.87-1.786,1.716-3.69,2.525-5.733l10.897-26.336c0,0,2.25-3.877-0.774-4.861
	c-1.766-0.57-10.902-1.139-15.017,8.361c-0.156,0.361-6.617,12.513-7.398,13.629c-1.596,2.282-4.188,5.065-5.182,0.878
	c0.093-6.136,0.607-14.888,1.223-23.55c0.34-4.779,2.481-30.156,2.481-30.156c0.397-3.268-1.588-6.27-4.593-7.281
	c-0.435-0.146-0.892-0.252-1.366-0.309c-3.742-0.447-7.144,2.217-7.594,5.963l-3.681,41.114c-0.488-0.239-0.982-0.466-1.484-0.67
	c-0.274-0.117-0.56-0.211-0.84-0.317l0.586-52.979c0.037-3.767-2.996-6.852-6.766-6.889c-1.288-0.011-2.491,0.341-3.524,0.952
	c-1.989,1.176-3.337,3.328-3.361,5.81l-0.577,51.679h-1.131l-1.976-45.1c-0.104-2.65-1.714-4.884-3.97-5.925
	c-0.947-0.436-2.004-0.668-3.116-0.624c-3.767,0.148-6.701,3.324-6.554,7.086l2.043,46.891c-0.497,0.251-0.981,0.522-1.455,0.808
	l-1.871-23.527c-0.193-3.045-2.828-5.348-5.869-5.143c-3.041,0.197-5.344,2.828-5.147,5.873l1.663,22.331l1.117,14.996
	c-0.245,1.304-0.387,19.383-0.387,19.383c0,4.304,2.431,15.88,4.877,19.277l-0.246,7.342h43.642l0.256-7.645
	c0.023,0.072,0.037,0.116,0.037,0.116c0.474-0.423,1.465-1.036,2.814-1.953c1.929-1.31,4.595-3.252,7.557-6.169
	c1.34-1.319,2.738-2.836,4.156-4.589c1.65-2.038,3.324-4.388,4.96-7.107C263.138,468.861,264.158,466.987,265.146,464.958z
	 M417.747,392.741c0.197-3.045-2.106-5.676-5.147-5.873c-3.041-0.205-5.676,2.098-5.869,5.143l-1.871,23.527
	c-0.474-0.287-0.958-0.558-1.455-0.808l2.043-46.891c0.147-3.762-2.787-6.939-6.554-7.086c-3.762-0.147-6.938,2.787-7.086,6.549
	l-1.976,45.1h-1.131l-0.577-51.679c-0.028-2.887-1.844-5.331-4.383-6.306c-0.777-0.298-1.619-0.464-2.502-0.457
	c-3.77,0.037-6.803,3.123-6.766,6.889l0.586,52.979c-0.28,0.106-1.836,0.748-2.324,0.987l-3.681-41.114
	c-0.451-3.746-3.853-6.41-7.594-5.963c-2.068,0.251-3.804,1.401-4.871,3.008c-0.865,1.303-1.292,2.907-1.088,4.583
	c0,0,2.724,31.506,3.381,44.647c0.168,3.355,0.284,6.446,0.324,9.06c-1.481,6.235-6.507-2.991-6.507-2.991
	s-5.573-10.357-6.073-11.517c-0.546-1.261-1.185-2.334-1.879-3.263c-2.588-3.466-5.997-4.803-8.738-5.212
	c-2.061-0.308-3.742-0.097-4.4,0.115c-1.509,0.491-1.705,1.702-1.522,2.793c0.183,1.095,0.748,2.068,0.748,2.068l10.897,26.336
	c1.944,4.912,4.099,9.05,6.306,12.55c1.772,2.81,3.576,5.202,5.336,7.245c6.319,7.337,12.039,10.15,13.416,11.381
	c0,0,0.014-0.044,0.037-0.116l0.256,7.645h43.642l-0.246-7.342c2.446-3.397,4.877-14.974,4.877-19.277
	c0,0-0.142-18.079-0.387-19.383L417.747,392.741z M97.73,317.065c-3.041-0.199-5.673,2.108-5.86,5.154l-1.83,23.53
	c-0.475-0.286-0.959-0.556-1.457-0.806l1.962-46.894c0.141-3.763-2.799-6.934-6.566-7.075c-3.762-0.141-6.934,2.799-7.074,6.562
	l-1.898,45.103l-1.131,0.002l-0.667-51.678c-0.034-2.981-1.975-5.486-4.646-6.387c-0.643-0.217-1.328-0.34-2.04-0.355
	c-0.071-0.001-0.14-0.009-0.211-0.008c-3.77,0.043-6.798,3.135-6.754,6.901l0.678,52.978c-0.28,0.107-0.565,0.201-0.839,0.319
	c-0.502,0.205-0.995,0.433-1.483,0.673l-3.752-41.107c-0.457-3.745-3.864-6.403-7.605-5.95c-3.745,0.461-6.407,3.859-5.946,7.6
	c0,0,2.523,26.437,3.466,44.792c0.148,2.88,0.326,8.584,0.332,8.908c-1.47,6.238-6.512-2.979-6.512-2.979s-4.872-8.688-6.094-11.506
	c-4.131-9.493-13.266-8.907-15.031-8.335c-3.023,0.989-0.766,4.862-0.766,4.862l10.943,26.317
	c9.15,22.998,22.87,29.137,25.112,31.133c0,0,0.014-0.044,0.037-0.116l0.064,7.645l43.65-0.076l-0.062-7.342
	c2.44-3.402,4.851-14.982,4.844-19.286c0,0-0.174-18.079-0.42-19.382l2.715-37.332C103.079,319.884,100.771,317.257,97.73,317.065z
	 M340.025,466.635c-3.041-0.205-5.677,2.098-5.869,5.143l-1.871,23.527c-0.475-0.287-0.958-0.558-1.455-0.808l0.954-21.892
	l0.55-12.627l0.539-12.372c0.147-3.762-2.787-6.939-6.554-7.086c-3.762-0.147-6.938,2.787-7.086,6.549l-1.976,45.1h-1.131
	l-0.578-51.679c-0.037-3.77-3.119-6.795-6.885-6.762c-3.77,0.037-6.803,3.123-6.766,6.889l0.586,52.979
	c-0.28,0.106-0.566,0.2-0.84,0.317c-0.502,0.204-0.996,0.431-1.484,0.67l-3.681-41.114c-0.451-3.746-3.853-6.41-7.594-5.963
	c-3.746,0.455-6.414,3.848-5.959,7.59c0,0,1.222,13.044,2.265,27.168c0.145,1.962,0.799,11.697,0.954,14.452
	c0.124,2.206,0.459,10.355,0.485,12.086c-1.48,6.235-6.507-2.991-6.507-2.991s-5.531-10.259-6.074-11.517
	c-0.506-1.168-1.089-2.181-1.724-3.064c-2.088-2.902-4.742-4.349-7.155-5.029c-2.818-0.793-5.303-0.538-6.138-0.269
	c-0.925,0.301-1.353,0.873-1.507,1.521c-0.349,1.472,0.732,3.339,0.732,3.339l9.642,23.302l1.255,3.034
	c2.658,6.715,5.708,11.986,8.75,16.147c6.094,8.335,12.156,12.186,14.98,14.071c0.598,0.399,1.051,0.711,1.328,0.958
	c0,0,0.014-0.044,0.037-0.116l0.051,7.645h43.65l-0.049-7.342c2.446-3.397,4.877-14.974,4.877-19.278c0,0-0.142-18.079-0.387-19.383
	l2.299-30.866l0.481-6.461c0.104-1.612-0.505-3.095-1.541-4.176C342.711,467.372,341.456,466.728,340.025,466.635z"></path>
<path id="color_x5F_5_48_" fill="#16415F" d="M460.952,231.641c3.088-3.81,4.926-6.217,4.926-6.217l-14.057-16.937
	c0,0-2.456,2.237-3.061,2.785c-9.843,8.922-40.379,36.303-44.538,36.436c-10.477,0.334-45.015-37.382-45.492-37.903l0.002-0.024
	l-30.787-9.073l8.748,26.702l-11.853-3.031l6.235,7.789c0.137-0.151,0.251-0.306,0.398-0.456c4.808-4.887,12.722-4.848,17.569,0
	l6.969,6.98l2.714-28.828l2.423,35.152c0.404,0.902,0.726,1.832,0.902,2.79c0.119,0.617,0.926,3.185-0.27,6.375l0.156,2.26
	l9.665,9.675c10.701,6.641,22.073,12.742,29.93,14.395c7.113-12.834,20.49-21.714,36.007-22.5
	c8.633-8.717,16.648-18.102,21.935-24.552C459.992,232.822,460.486,232.215,460.952,231.641z M450.227,240.108
	c-1.541,0-2.79-1.249-2.79-2.79c0-1.541,1.249-2.79,2.79-2.79c1.541,0,2.79,1.249,2.79,2.79
	C453.017,238.859,451.768,240.108,450.227,240.108z M454.761,235.226c-1.541,0-2.79-1.249-2.79-2.79c0-1.541,1.249-2.79,2.79-2.79
	c1.541,0,2.79,1.249,2.79,2.79C457.551,233.977,456.302,235.226,454.761,235.226z M456.156,227.553c0-1.541,1.249-2.79,2.79-2.79
	c1.541,0,2.79,1.249,2.79,2.79c0,1.541-1.249,2.79-2.79,2.79C457.405,230.343,456.156,229.094,456.156,227.553z M353.816,261.999
	l-4.908,52.144h-35.184c-0.592-4.059-4.081-7.182-8.302-7.182h-4.381v-18.352l4.202-6.887c2.934-2.06,4.985-5.282,5.495-9.007
	l17.709-29.026c0.714,2.529,2.018,4.582,3.026,5.59l9.59,9.59c2.575,2.574,5.977,3.779,9.334,3.613
	C350.838,262.467,352.082,262.599,353.816,261.999z M294.235,306.961h-4.381c-2.319,0-4.411,0.934-5.947,2.469
	c-1.236,1.236-2.087,2.881-2.355,4.713h-35.185l-4.908-52.144c1.734,0.601,2.978,0.469,3.42,0.485
	c3.357,0.166,6.76-1.039,9.334-3.613l9.59-9.59c1.008-1.008,2.311-3.061,3.026-5.59l17.709,29.026
	c0.51,3.725,2.561,6.946,5.495,9.006l4.202,6.887V306.961z M263.804,231.711c0.147,0.15,0.261,0.305,0.398,0.456l6.235-7.789
	l-11.853,3.031l8.748-26.702l-30.787,9.073l0.002,0.024c-0.477,0.522-35.016,38.238-45.493,37.903
	c-4.158-0.133-34.693-27.513-44.537-36.435c-0.605-0.549-3.062-2.786-3.062-2.786l-14.057,16.937c0,0,1.838,2.408,4.926,6.217
	c0.466,0.575,0.96,1.182,1.481,1.817c3.005,3.666,6.892,8.28,11.272,13.182c5.224-3.423,11.467-5.421,18.179-5.421
	c18.346,0,33.218,14.872,33.218,33.218c0,1.642-0.124,3.255-0.354,4.833c7.403-2.547,16.707-7.664,25.556-13.156l9.665-9.675
	l0.156-2.26c-1.196-3.189-0.389-5.758-0.27-6.375c0.176-0.958,0.498-1.888,0.902-2.79l2.423-35.152l2.713,28.828l6.969-6.98
	C251.082,226.863,258.996,226.824,263.804,231.711z M133.539,227.553c0-1.541,1.249-2.79,2.79-2.79c1.541,0,2.79,1.249,2.79,2.79
	c0,1.541-1.249,2.79-2.79,2.79C134.788,230.343,133.539,229.094,133.539,227.553z M137.725,232.436c0-1.541,1.249-2.79,2.79-2.79
	c1.541,0,2.79,1.249,2.79,2.79c0,1.541-1.249,2.79-2.79,2.79C138.974,235.226,137.725,233.977,137.725,232.436z M145.049,240.108
	c-1.541,0-2.79-1.249-2.79-2.79c0-1.541,1.249-2.79,2.79-2.79c1.541,0,2.79,1.249,2.79,2.79
	C147.839,238.859,146.589,240.108,145.049,240.108z M116.04,457.223l-2.739,74.104c15.752,12.443,32.797,23.316,50.892,32.409
	l3.938-106.513H116.04z M126.902,494.793c-2.066,0-3.738-1.672-3.738-3.733c0-2.066,1.672-3.738,3.738-3.738
	c2.061,0,3.733,1.672,3.733,3.738C130.635,493.121,128.963,494.793,126.902,494.793z M126.902,481.99
	c-2.066,0-3.738-1.672-3.738-3.738c0-2.061,1.672-3.733,3.738-3.733c2.061,0,3.733,1.672,3.733,3.733
	C130.635,480.318,128.963,481.99,126.902,481.99z M126.902,469.187c-2.066,0-3.738-1.673-3.738-3.734
	c0-2.066,1.672-3.738,3.738-3.738c2.061,0,3.733,1.672,3.733,3.738C130.635,467.514,128.963,469.187,126.902,469.187z
	 M489.861,494.04l-51.96,3.683l2.076,61.368c18.204-9.932,35.248-21.717,50.897-35.089L489.861,494.04z M447.609,503.975
	c2.056-0.146,3.842,1.404,3.988,3.464c0.146,2.056-1.404,3.843-3.46,3.988c-2.061,0.146-3.847-1.404-3.993-3.46
	C443.999,505.907,445.549,504.121,447.609,503.975z M448.515,516.746c2.056-0.146,3.842,1.404,3.988,3.46
	c0.146,2.06-1.404,3.847-3.46,3.993c-2.06,0.146-3.847-1.404-3.993-3.464C444.904,518.678,446.454,516.892,448.515,516.746z
	 M449.948,536.97c-2.06,0.146-3.847-1.404-3.993-3.46c-0.146-2.06,1.404-3.846,3.464-3.993c2.056-0.146,3.842,1.404,3.988,3.464
	C453.554,535.038,452.005,536.824,449.948,536.97z M339.55,571.014H292.82l-0.111-15.176h46.729L339.55,571.014z"></path>
<path id="color_x5F_4_47_" fill="#975042" d="M277.097,500.284c-1.237-2.303-2.504-4.73-3.047-5.988
	c-0.506-1.168-1.089-2.181-1.724-3.064c4.252,2.472,8.896,4.337,13.819,5.484c0.124,2.206,0.23,4.329,0.312,6.32
	C283.227,502.389,280.102,501.456,277.097,500.284z M327.04,406.599c1.045,0.751,2.062,1.536,3.045,2.362
	c-0.183-1.091,0.013-2.302,1.522-2.793c0.658-0.212,2.339-0.423,4.4-0.115c-1.537-1.421-3.152-2.758-4.84-4.003
	C329.901,403.664,328.522,405.184,327.04,406.599z M330.881,493.335c0.563-0.41,1.115-0.832,1.662-1.261l0.694-8.728
	c-0.649,0.646-1.319,1.27-2.002,1.88L330.881,493.335z M252.479,413.546c-0.349,4.27-0.72,9.021-1.06,13.8
	c3.658-8.339,9.505-15.494,16.816-20.747c-1.482-1.415-2.861-2.934-4.127-4.548C259.699,405.302,255.779,409.176,252.479,413.546z
	 M294.25,548.193c-0.023,0.072-0.037,0.116-0.037,0.116c-0.277-0.247-0.73-0.559-1.328-0.958v4.406h-14.501l-0.478-18.477
	c-3.042-4.161-6.092-9.433-8.75-16.147l-1.255-3.034l0.975,37.658h-10.3l-3.857-67.357c0.902,1.051,1.833,2.076,2.808,3.057
	c0.154-0.648,0.582-1.22,1.507-1.521c0.835-0.269,3.319-0.525,6.138,0.269c-2.992-2.518-5.691-5.373-8.03-8.514
	c-1.419,1.753-2.817,3.269-4.156,4.589c-2.962,2.917-5.628,4.859-7.557,6.169l3.625,63.309h-3.684l-0.384,10.394h47.771
	l-0.046-6.314h1.592L294.25,548.193z M213.623,383.237c2.256,1.041,3.866,3.275,3.97,5.925l1.976,45.1h1.131l0.577-51.679
	c0.024-2.482,1.372-4.633,3.361-5.81l-1.328-19.397h14.611l2.28,39.815l0.146-1.628c0.451-3.746,3.853-6.41,7.594-5.963
	c0.474,0.057,0.93,0.163,1.366,0.309l-1.863-32.533h11.77c2.114-4.402,4.962-8.384,8.386-11.789h-56.645L213.623,383.237z
	 M336.061,357.376h11.77l-3.086,53.889c0.694,0.93,1.333,2.002,1.879,3.263c0.5,1.16,1.617,3.313,2.758,5.448
	c1.633,3.055,3.315,6.069,3.315,6.069s5.026,9.226,6.507,2.991c-0.04-2.614-0.156-5.705-0.324-9.06h-5.112l2.237-39.057
	c-0.305-3.456-0.505-5.59-0.505-5.59c-0.204-1.676,0.223-3.279,1.088-4.583l0.766-13.371h14.612l-1.896,27.676l2.665,29.765
	c0.488-0.239,0.982-0.466,1.484-0.67c0.274-0.117,0.56-0.211,0.84-0.317l-0.586-52.979c-0.037-3.767,2.996-6.853,6.766-6.889
	c0.883-0.008,1.725,0.158,2.502,0.457l0.586-8.83h-56.652C331.098,348.991,333.947,352.973,336.061,357.376z M244.522,574.653
	l-0.554,14.973h46.198l-0.111-14.973H244.522z M342.146,574.653l0.111,14.973h13.291c3.559-0.702,7.096-1.462,10.607-2.289
	l-0.469-12.684H342.146z M397.887,314.143H192.709c-0.914,0-1.655,0.741-1.655,1.655v17.757c0,0.914,0.741,1.655,1.655,1.655h91.953
	c4.092-1.307,8.45-2.019,12.975-2.019c4.526,0,8.883,0.712,12.975,2.019h91.953c0.914,0,1.655-0.741,1.655-1.655v-6.485
	C401.441,323.186,399.281,318.831,397.887,314.143z M366.825,468.425c-0.023,0.072-0.037,0.116-0.037,0.116
	c-1.377-1.23-7.097-4.044-13.416-11.381c-1.76-2.043-3.564-4.436-5.336-7.245c-0.297,6.543-1.847,12.756-4.404,18.418
	c1.036,1.08,1.645,2.563,1.541,4.176l-0.481,6.461l-2.299,30.866c0.245,1.304,0.387,19.383,0.387,19.383
	c0,4.304-2.431,15.88-4.877,19.278l0.049,7.342h1.488l0.046,6.314h25.74l-2.554-69.076l-4.019,58.682c0,0,0,0,0,0h-12.429
	l4.384-76.551h13.289l-1.099,16.04h3.04l-0.553-15.176h1.796L366.825,468.425z M234.343,435.689c0.28,0.106,0.566,0.2,0.84,0.317
	c0.502,0.204,0.996,0.431,1.484,0.67l1.495-16.7h-3.645L234.343,435.689z M578.5,310.291c-1.766-0.569-10.902-1.139-15.017,8.361
	c-1.217,2.82-6.074,11.517-6.074,11.517s-0.744,1.363-1.742,2.687c-0.546,0.724-1.167,1.436-1.787,1.908
	c-1.195,0.91-2.378,0.924-2.978-1.604c0.257-16.915,3.704-53.706,3.704-53.706c0.455-3.742-2.213-7.135-5.959-7.59
	c-3.742-0.447-7.144,2.217-7.594,5.963l-3.681,41.114c-0.488-0.239-0.982-0.466-1.484-0.67c-0.274-0.117-0.56-0.211-0.84-0.317
	l0.586-52.979c0.037-3.767-2.996-6.853-6.766-6.889c-1.076-0.009-2.092,0.238-3,0.673c-0.695,0.333-1.328,0.775-1.869,1.312
	c-1.229,1.221-1.998,2.907-2.016,4.777l-0.578,51.679h-1.131l-1.976-45.1c-0.147-3.762-3.324-6.697-7.086-6.549
	c-3.767,0.148-6.701,3.324-6.554,7.086l2.043,46.891c-0.497,0.251-0.981,0.522-1.455,0.808l-1.871-23.527
	c-0.193-3.045-2.828-5.348-5.869-5.144c-3.041,0.197-5.344,2.828-5.147,5.873l2.78,37.327c-0.244,1.304-0.387,19.383-0.387,19.383
	c0,4.304,2.431,15.88,4.877,19.278l-0.049,7.342h43.65l0.004-0.677l0.047-6.967c0.023,0.072,0.037,0.116,0.037,0.116
	c0.516-0.461,1.648-1.149,3.189-2.21c0.449-0.309,0.933-0.652,1.448-1.029c5.369-3.937,14.026-11.782,20.42-27.937l10.897-26.336
	C579.275,315.151,581.525,311.275,578.5,310.291z M200.746,369.715c-1.766-0.569-10.902-1.139-15.017,8.361
	c-1.217,2.82-6.073,11.517-6.073,11.517s-5.026,9.226-6.507,2.991c0.257-16.915,3.704-53.706,3.704-53.706
	c0.455-3.742-2.213-7.135-5.959-7.59c-3.742-0.447-7.144,2.217-7.594,5.963l-3.681,41.114c-0.488-0.239-0.982-0.466-1.484-0.67
	c-0.274-0.117-0.56-0.211-0.84-0.317l0.586-52.979c0.037-3.766-2.996-6.852-6.766-6.889c-3.766-0.033-6.848,2.992-6.885,6.762
	l-0.577,51.679h-1.131l-1.976-45.1c-0.147-3.762-3.324-6.697-7.086-6.549c-3.767,0.148-6.701,3.324-6.554,7.086l0.02,0.459
	l2.023,46.432c-0.497,0.251-0.981,0.521-1.455,0.808l-1.871-23.527c-0.193-3.045-2.828-5.348-5.869-5.143
	c-3.041,0.197-5.344,2.828-5.147,5.873l2.78,37.327c-0.244,1.304-0.387,19.383-0.387,19.383c0,4.304,2.431,15.88,4.877,19.277
	l-0.246,7.342h43.642l0.256-7.645c0.023,0.072,0.037,0.116,0.037,0.116c1.115-0.997,5.082-3.029,9.908-7.667
	c0.476-0.457,0.962-0.947,1.453-1.457c4.516-4.689,9.576-11.643,13.697-22.053l10.897-26.336
	C201.52,374.576,203.771,370.699,200.746,369.715z M197.388,497.93l-0.217,5.965l-0.082,2.258l-0.253,6.953h46.729l0.553-15.176
	H197.388z"></path>
<path id="color_x5F_3_50_" fill="#EA4747" d="M287.146,242.053l6.896-34.622l-2.171-7.179l5.766-5.998h0.001l5.766,5.998
	l-2.172,7.179l3.633,18.239h-9.687v1.918h10.069l2.88,14.458l0.002,0.008l-0.982,4.878c-2.086-2.524-5.162-4.225-9.51-4.225
	c-4.349,0-7.426,1.695-9.512,4.215L287.146,242.053z M320.373,231.818c-3.084,0-5.584,2.5-5.584,5.584
	c0,3.084,2.5,5.584,5.583,5.584c3.084,0,5.584-2.5,5.584-5.584C325.957,234.318,323.457,231.818,320.373,231.818z M495.414,395.369
	l-0.138,18.711l-0.105,14.139c0.392-0.838,4.242-9.083,5.205-11.834c1.088-3.094,2.75-5.211,4.57-6.652
	c-0.097,0.008-0.191,0.029-0.29,0.029c-2.066,0-3.738-1.672-3.738-3.734c0-2.066,1.672-3.738,3.738-3.738
	c2.061,0,3.733,1.672,3.733,3.738c0,0.738-0.221,1.422-0.591,2.002c3.085-1.353,6.026-1.278,6.966-1.047
	c3.087,0.767,1.116,4.794,1.116,4.794l-9.008,27.041c-3.333,10.543-7.818,17.79-11.948,22.781l-0.438,59.264
	c20.118-17.755,37.815-38.183,52.539-60.734l0.479-64.759H495.414z M120.34,439.617l-0.641,17.606h46.729l0.641-17.606H120.34z
	 M246.798,513.106l-2.859,77.327c-17.791-3.242-35.024-8.074-51.56-14.328l2.329-62.999H246.798z M207.683,549.372
	c0-2.066-1.672-3.738-3.734-3.738c-2.066,0-3.738,1.672-3.738,3.738c0,2.061,1.672,3.733,3.738,3.733
	C206.011,553.106,207.683,551.434,207.683,549.372z M207.683,536.565c0-2.061-1.672-3.733-3.734-3.733
	c-2.066,0-3.738,1.672-3.738,3.733c0,2.066,1.672,3.738,3.738,3.738C206.011,540.303,207.683,538.63,207.683,536.565z
	 M207.683,523.766c0-2.066-1.672-3.738-3.734-3.738c-2.066,0-3.738,1.672-3.738,3.738c0,2.061,1.672,3.734,3.738,3.734
	C206.011,527.499,207.683,525.827,207.683,523.766z M446.494,281.35l9.093,8.001v32.628h-31.61V281.35H446.494z M453.461,290.172
	h-7.486v-6.587l-0.209-0.184h-19.946v36.527h27.927v-29.505L453.461,290.172z M427.946,295.815h14.968v-1.665h-14.968V295.815z
	 M427.946,302.196h14.968v-1.665h-14.968V302.196z M427.946,308.484h14.968v-1.665h-14.968V308.484z M427.946,314.588h14.968v-1.665
	h-14.968V314.588z M451.312,297.804h-5.317v-5.317h5.317V297.804z M450.757,293.041h-4.208v4.208h4.208V293.041z M451.312,310.311
	h-5.317v-5.317h5.317V310.311z M450.757,305.548h-4.208v4.208h4.208V305.548z M451.312,317.062h-5.317v-5.317h5.317V317.062z
	 M450.757,312.299h-4.208v4.208h4.208V312.299z M451.312,304.023h-5.317v-5.318h4.688l0.713-0.975l0.671,0.492l-0.755,1.031V304.023
	z M450.757,300.011l-2.49,3.402l-1.57-3.691l0.766-0.326l0.998,2.345l1.815-2.481h-3.726v4.207h4.208V300.011z M281.822,368.715
	h9.967v19.921h-9.967V368.715z M282.889,387.57h7.833v-17.788h-7.833V387.57z M286.806,372.353c-0.715,0-1.295,0.579-1.295,1.295
	c0,0.715,0.58,1.295,1.295,1.295c0.715,0,1.294-0.58,1.294-1.295C288.1,372.932,287.52,372.353,286.806,372.353z M312.97,369.918
	l-9.122,0.006c-0.184,0.001-0.358-0.085-0.471-0.231c-0.113-0.146-0.15-0.336-0.102-0.514c0.458-1.704,1.519-5.932,1.519-8.637
	c0-3.452-4.423-5.987-4.909-0.755c-0.486,5.232-1.672,6.202-1.672,6.202c-3.077,3.554-5.609,5.178-5.609,5.178v17.31h18.188
	c1.236,0,2.238-0.92,2.238-2.056c0-0.785-0.484-1.458-1.188-1.806h0.551c1.236,0,2.237-1.09,2.237-2.435
	c0-1.009-0.564-1.875-1.368-2.244c1.09-0.114,1.946-1.09,1.946-2.293v-0.46c0-1.103-0.718-2.021-1.677-2.254
	c0.963-0.259,1.677-1.157,1.677-2.234v-0.461C315.207,370.955,314.206,369.918,312.97,369.918z M546.354,208.81h-8.676v-17.341
	h8.676V208.81z M545.425,192.398h-6.819v15.484h6.819V192.398z M542.016,205.644c0.622,0,1.127-0.505,1.127-1.127
	c0-0.622-0.504-1.127-1.127-1.127c-0.622,0-1.127,0.505-1.127,1.127C540.889,205.139,541.394,205.644,542.016,205.644z
	 M519.241,207.764h7.94v-0.005c0.161,0,0.312,0.074,0.41,0.201s0.13,0.293,0.089,0.448c-0.399,1.483-1.322,5.163-1.322,7.518
	c0,3.005,3.85,5.212,4.273,0.657c0.423-4.554,1.456-5.399,1.456-5.399c2.678-3.094,4.882-4.507,4.882-4.507v-15.068h-15.832
	c-1.076,0-1.948,0.801-1.948,1.79c0,0.683,0.421,1.27,1.034,1.572h-0.479c-1.076,0-1.947,0.949-1.947,2.12
	c0,0.878,0.491,1.632,1.19,1.954c-0.949,0.099-1.694,0.949-1.694,1.996v0.4c0,0.96,0.625,1.759,1.46,1.962
	c-0.838,0.225-1.46,1.007-1.46,1.944v0.402C517.293,206.861,518.165,207.764,519.241,207.764z M230.409,54.303h2.438V42.132h-2.438
	c-1.536,0-2.792,1.256-2.792,2.792v6.587C227.617,53.045,228.873,54.303,230.409,54.303z M237.985,70.679h1.474
	c0.922,0,1.675-0.754,1.675-1.675V56.746h-4.825v12.257C236.31,69.925,237.064,70.679,237.985,70.679z M235.081,55.629h7.016
	c0.615,0,1.117-0.501,1.117-1.116V41.711c0-0.616-0.501-1.117-1.117-1.117h-7.016c-0.615,0-1.117,0.501-1.117,1.117v12.802
	C233.964,55.128,234.465,55.629,235.081,55.629z M244.319,41.591c0.002,0.04,0.012,0.078,0.012,0.119v12.802
	c0,0.096-0.017,0.187-0.028,0.28c9.948,0.68,17.254,4.257,17.254,4.257c2.306-2.586,3.832-5.907,4.172-9.623
	c0.419-4.589-1.053-8.916-3.774-12.208C261.931,37.23,254.342,40.904,244.319,41.591z M358.844,32.509v19.276l12.413-14.747
	C367.904,34.212,363.573,32.509,358.844,32.509z M376.184,54.905c0.178,1.079,0.272,2.179,0.272,3.281
	c0,6.338-3.005,12.282-8.066,16.062l-1.268,0.867c-3.205,2.031-6.887,3.114-10.709,3.114c-11.052,0-20.044-8.992-20.044-20.043
	c0-11.053,8.992-20.044,20.044-20.044h0.768v17.94l11.553-13.726c0,0,3.095,2.902,4.09,4.32c1.441,2.05,2.463,4.31,3.053,6.725
	L376.184,54.905z M358.425,56.989l15.951-3.28c-0.547-2.207-1.49-4.273-2.809-6.15c-0.772-1.101-1.665-2.115-2.658-3.025
	L358.425,56.989z M366.258,73.861l-10.614-15.436V39.694c-9.85,0.404-17.74,8.544-17.74,18.493c0,10.205,8.302,18.508,18.508,18.508
	C359.923,76.694,363.31,75.717,366.258,73.861z M374.92,58.186c0-0.998-0.079-1.995-0.237-2.972l-16.981,3.492l9.822,14.283
	C372.169,69.496,374.92,64.019,374.92,58.186z M149.52,147.755h39.816v-14.59H149.52V147.755z M185.215,121.951l4.121,10.257H149.52
	l4.121-10.257h8.18v-4.231c-0.473,0.24-0.918,0.21-0.834-0.364c0.06,0.146,0.918-3.497,1.156-4.145l3.151-2.304l-0.084-0.309
	c-1.183,0.529-2.371,0.807-3.596,1.142l-1.142,1.756c-0.967,0.975-1.662,1.205-2.493,0.398l2.662-4.189l4.122-1.375l0.02-0.217
	l-2.352-0.412l-1.801,0.936c-1.274,1.41-2.447,2.096-3.246,0.974l1.917-2.173l2.406-1.89l4.417-0.189
	c-0.529-0.366-0.981-0.788-1.537-1.195l-1.097,0.192c-1.281,0.689-1.818,0.017-1.908-0.298l1.651-0.89
	c1.098-0.485,1.772-0.631,2.263-0.429c1.157,0.791,2.29,1.238,3.381,1.312c0.937,0.064,1.841-0.146,2.702-0.649
	c0.219-0.128,0.381-0.312,0.514-0.516l-1.424-0.542l1.71-4.49l8.641,3.291l-1.71,4.49l-1.412-0.538l-0.192,1.105
	c0.339,5.649-2.108,3.61,0.747,12.649c0.088,0.533-0.748,0.392-1.417-0.069l-0.002,3.169H185.215z M178.756,104.402l1.029-2.704
	l-6.854-2.61l-1.029,2.704L178.756,104.402z M162.514,117.157h13.479c-0.369-0.831-0.909-1.909-1.217-2.348
	c-2.053-2.931-5.736-3.046-7.334-2.413c-0.986,0.308-3.041,1.027-3.737,1.835c-0.023,0.027-1.049,2.625-1.157,2.889
	C162.538,117.133,162.525,117.144,162.514,117.157z M162.777,118.113v8.336h13.295l0.004-8.336H162.777z M178.693,126.065h-1.665
	l-0.001,1.339h-15.207v-1.339h-1.658v1.724h18.531V126.065z M178.493,268.091c-0.451-0.146-2.786-0.291-3.838,2.137
	c-0.311,0.721-1.552,2.943-1.552,2.943s-1.285,2.358-1.663,0.764c0.066-4.323,0.947-13.726,0.947-13.726
	c0.116-0.956-0.566-1.824-1.523-1.94c-0.956-0.114-1.826,0.567-1.941,1.524l-0.941,10.508c-0.125-0.061-0.251-0.119-0.379-0.171
	c-0.07-0.03-0.143-0.054-0.215-0.081l0.15-13.54c0.01-0.963-0.766-1.751-1.729-1.761c-0.963-0.008-1.75,0.765-1.76,1.728
	l-0.147,13.208h-0.289l-0.505-11.526c-0.038-0.962-0.85-1.712-1.811-1.674c-0.963,0.038-1.713,0.849-1.675,1.811l0.522,11.984
	c-0.127,0.064-0.251,0.133-0.372,0.207l-0.478-6.013c-0.049-0.778-0.723-1.367-1.5-1.315c-0.777,0.05-1.366,0.723-1.315,1.501
	l0.711,9.54c-0.063,0.333-0.099,4.954-0.099,4.954c0,1.1,0.932,4.059,1.557,4.927l-0.621,5.975h12.398l-0.931-6.053
	c0.006,0.018,0.01,0.03,0.01,0.03c0.572-0.511,4.076-2.086,6.404-7.968l2.785-6.731
	C178.691,269.333,179.266,268.342,178.493,268.091z M89.4,216.225h0.216c-0.118,4.592-3.876,8.282-8.498,8.282
	c-4.621,0-8.379-3.689-8.497-8.282h0.217l6.622-8.273l-14.525,2.756c-0.103,0.295-0.262,0.562-0.47,0.787v24.605h6.928v3.32h4.137
	v3.32H50.083v-3.32h4.136v-3.32h6.929v-24.623c-0.02-0.016-0.029-0.024-0.048-0.04l-15.051,2.856
	c-0.083,0.182-0.195,0.347-0.327,0.495l6.798,8.492h0.216c-0.118,4.593-3.874,8.283-8.497,8.283c-4.622,0-8.38-3.689-8.498-8.283
	h0.218l6.797-8.492c-0.399-0.447-0.608-1.068-0.465-1.744c0.162-0.768,0.799-1.391,1.571-1.532c0.702-0.129,1.353,0.112,1.794,0.56
	l15.022-2.851c0.103-0.295,0.262-0.561,0.47-0.786v-3.082c0-0.916,0.743-1.659,1.659-1.659l0,0c0.916,0,1.659,0.743,1.659,1.659v3.1
	c0.02,0.016,0.029,0.024,0.048,0.04l14.772-2.804c0.357-0.833,1.265-1.375,2.264-1.164c0.741,0.156,1.345,0.757,1.511,1.496
	c0.152,0.673-0.049,1.291-0.438,1.743L89.4,216.225z M45.2,215.202c-0.286,0.159-0.611,0.257-0.961,0.257
	c-0.35,0-0.675-0.098-0.961-0.257l-6.465,8.077h14.852L45.2,215.202z M88.546,216.225l-6.434-8.038
	c-0.294,0.17-0.63,0.274-0.993,0.274c-0.363,0-0.699-0.105-0.993-0.275l-6.432,8.039H88.546z M425.054,134.053h-0.031
	c0.544-0.997,1.074-1.97,1.582-2.901c0.816-1.498,0.266-3.376-1.237-4.195c-1.498-0.816-3.377-0.264-4.191,1.236
	c0,0-11.897,21.849-13.202,24.25c-1.481-3.204-3.321-7.21-4.688-10.194c-0.713-1.552-2.547-2.235-4.098-1.523
	c-1.555,0.71-2.236,2.545-1.524,4.098c0.017,0.039,6.799,14.724,6.999,15.141c0.113,0.238,0.203,0.426,0.268,0.553
	c0.652,1.295,1.623,1.718,2.365,1.835c0.399,0.063,0.735,0.039,0.916,0.014c1.059-0.146,1.949-0.823,2.384-1.759
	c0.512-0.995,6.141-11.348,11.496-21.177v24.265h-26.68v-26.684H413.6c0.482-0.99,0.97-1.977,1.463-2.96h-22.618v32.602h32.61
	V134.053z"></path>
<path id="color_x5F_2_48_" fill="#FFFFFF" d="M488.583,424.729c2.326-3.483,4.556-7.036,6.693-10.65l-0.03,4.061
	c-2.097,3.426-4.286,6.79-6.553,10.097C488.651,427.119,488.614,425.946,488.583,424.729z M440.591,476.981
	c-8.155,6.513-16.761,12.482-25.765,17.853l0.086,2.34c8.995-5.307,17.609-11.193,25.774-17.628L440.591,476.981z M166.969,488.644
	c9.553,6.556,19.613,12.422,30.12,17.509l0.082-2.258c-10.512-5.141-20.572-11.066-30.112-17.693L166.969,488.644z M439.415,402.056
	c0.641-0.868,1.281-1.738,1.907-2.618l-0.355-3.096c-0.655,0.948-1.316,1.89-1.989,2.824L439.415,402.056z M415.28,425.852
	l-0.221,2.975c5.258-4.711,10.232-9.733,14.894-15.036l-0.391-2.676C425.093,416.302,420.322,421.222,415.28,425.852z
	 M127.411,342.979l-0.485-11.134c-2.213-11.064-3.383-22.501-3.383-34.207c0-22.655,4.354-44.311,12.262-64.181
	c-0.521-0.635-1.015-1.242-1.481-1.817c-8.271,20.394-12.84,42.671-12.84,65.997C121.484,313.31,123.552,328.506,127.411,342.979z
	 M460.738,358.524c2.803-7.484,5.102-15.21,6.862-23.138c-6.647,5.49-14.948,9.04-24.04,9.819l-3.778,19.553l-3.778-19.553
	c-13.099-1.122-24.542-8.017-31.783-18.134c-2.78-3.884-4.94-8.239-6.335-12.927c-1.176-3.955-1.817-8.141-1.817-12.478
	c0-7.676,1.985-14.886,5.46-21.156c7.113-12.834,20.49-21.714,36.007-22.5c0.744-0.038,1.493-0.057,2.246-0.057
	c11.46,0,21.884,4.415,29.679,11.63c-2.04-12.538-5.416-24.632-9.99-36.126c0.52-0.635,1.015-1.242,1.48-1.816
	c5.19,12.797,8.918,26.335,10.975,40.41c7.179,7.788,11.568,18.187,11.568,29.614c0,12.306-5.092,23.416-13.275,31.36
	c-1.788,8.734-4.228,17.234-7.26,25.449c-0.453-0.065-0.919-0.086-1.394-0.057C461.284,358.434,461.009,358.473,460.738,358.524z
	 M455.587,289.351l-9.093-8.001h-22.517v40.629h31.61V289.351z M193.318,436.931c-5.75-4.318-11.222-8.986-16.391-13.967
	c-0.491,0.51-0.977,0.999-1.453,1.457c5.665,5.46,11.694,10.542,18.046,15.212L193.318,436.931z M452.917,380.744
	c0.976-1.816,1.918-3.652,2.831-5.505l-0.253-4.234c-0.962,2.061-1.955,4.105-2.994,6.122L452.917,380.744z M111.735,118.041
	l-1.085-1.046c-2.096,2.155-4.184,4.377-6.205,6.604l1.12,1.008C107.574,122.394,109.649,120.185,111.735,118.041z M124.745,105.565
	l-1.008-1.12c-2.257,2.019-4.495,4.093-6.652,6.163l1.047,1.084C120.275,109.634,122.501,107.572,124.745,105.565z M42.67,350.71
	c0.529,2.532,1.109,5.083,1.716,7.61c-0.054-2.349-0.162-5.021-0.31-7.901L42.67,350.71z M298.07,39.605
	c2.979,0.005,6.016,0.062,9.026,0.169l0.053-1.504c-3.026-0.108-6.081-0.165-9.076-0.169L298.07,39.605z M412.044,64.423
	c-2.685-1.311-5.446-2.598-8.202-3.827l-0.616,1.372c2.741,1.222,5.485,2.504,8.155,3.807L412.044,64.423z M201.081,58.146
	l-0.563-1.396c-2.822,1.131-5.643,2.32-8.384,3.532l0.614,1.375C195.471,60.453,198.275,59.27,201.081,58.146z M184.542,65.458
	l-0.661-1.352c-2.702,1.309-5.431,2.69-8.111,4.108l0.708,1.328C179.143,68.135,181.856,66.76,184.542,65.458z M73.688,168.073
	c1.495-2.563,3.065-5.149,4.666-7.684l-1.276-0.802c-1.611,2.551-3.19,5.151-4.695,7.731L73.688,168.073z M543.436,378.933
	c-0.065,0.194-0.135,0.388-0.2,0.582l-0.004,0.677h-43.65h-1.488l-0.111,15.176h46.729l0.111-15.176h-0.224
	c0.088-0.262,0.182-0.525,0.27-0.786L543.436,378.933z M100.423,467.141c1.02,1.178,2.049,2.346,3.081,3.494l1.123-1.002
	c-1.421-1.582-2.83-3.207-4.226-4.841L100.423,467.141z M109.674,477.274c1.771,1.841,3.592,3.666,5.423,5.459l0.076-2.042
	c-1.487-1.472-2.965-2.958-4.407-4.457L109.674,477.274z M416.022,527.173l0.061,1.66c0.888-0.453,1.779-0.904,2.66-1.365
	l-0.702-1.331C417.372,526.488,416.695,526.828,416.022,527.173z M555.668,332.855c0.289-2.128,0.563-4.268,0.799-6.403
	l-1.501-0.164c-0.312,2.828-0.679,5.675-1.085,8.476C554.501,334.291,555.122,333.579,555.668,332.855z M434.993,78.871
	c2.537,1.585,5.078,3.235,7.553,4.904l0.846-1.246c-2.49-1.679-5.046-3.339-7.598-4.934L434.993,78.871z M484.222,476.521
	l0.078,2.092c1.999-2.047,3.999-4.161,5.951-6.295l-1.117-1.014C487.521,473.069,485.873,474.81,484.222,476.521z M547.575,370.766
	c0.131-0.443,0.253-0.895,0.382-1.341c-0.515,0.378-0.999,0.72-1.448,1.029L547.575,370.766z M427.272,74.231l0.758-1.302
	c-2.599-1.501-5.263-2.979-7.919-4.393l-0.711,1.328C422.04,71.269,424.69,72.738,427.272,74.231z M37.22,297.641
	c0,2.709,0.043,5.464,0.127,8.188l1.51-0.047c-0.084-2.708-0.127-5.446-0.127-8.141l0.002-0.854l-1.51-0.009L37.22,297.641z
	 M557.433,279.556c-0.206-2.994-0.469-6.027-0.78-9.017l-1.5,0.156c0.308,2.971,0.569,5.987,0.774,8.964L557.433,279.556z
	 M552.664,252.873c0.517,2.957,0.987,5.949,1.399,8.89l1.495-0.209c-0.413-2.957-0.886-5.965-1.408-8.94L552.664,252.873z
	 M458.055,93.175c-2.369-1.85-4.804-3.683-7.24-5.451l-0.888,1.216c2.419,1.757,4.84,3.58,7.195,5.419L458.055,93.175z
	 M557.834,308.407l-1.51-0.062c-0.12,2.966-0.295,5.988-0.522,8.983l1.507,0.112C557.536,314.429,557.712,311.391,557.834,308.407z
	 M501.692,138.802c1.835,2.337,3.666,4.754,5.441,7.186l1.221-0.885c-1.785-2.446-3.627-4.878-5.474-7.23L501.692,138.802z
	 M518.531,160.115c-1.595-2.54-3.263-5.095-4.958-7.594l-1.25,0.843c1.685,2.483,3.342,5.023,4.928,7.55L518.531,160.115z
	 M558.055,297.641c0-3.015-0.052-6.058-0.155-9.047l-1.51,0.053c0.103,2.971,0.155,5.997,0.155,8.996l-0.005,1.712l1.51,0.012
	L558.055,297.641z M550.397,234.907l-1.465,0.364c0.716,2.871,1.396,5.821,2.021,8.768l1.477-0.311
	C551.802,240.764,551.118,237.796,550.397,234.907z M166.504,521.922c2.593,1.51,5.252,2.997,7.904,4.419l0.716-1.325
	c-2.637-1.413-5.282-2.891-7.86-4.393L166.504,521.922z M182.46,530.48c2.71,1.332,5.467,2.631,8.191,3.857l0.622-1.372
	c-2.711-1.218-5.45-2.508-8.143-3.833L182.46,530.48z M37.785,314.866c0.197,3.007,0.449,6.041,0.75,9.018l1.5-0.15
	c-0.298-2.96-0.548-5.977-0.744-8.965L37.785,314.866z M425.969,521.8l0.749,1.305c2.618-1.491,5.248-3.052,7.815-4.635
	l-0.796-1.278C431.186,518.765,428.573,520.316,425.969,521.8z M37.407,287.733l1.51,0.056c0.111-2.981,0.276-6.005,0.492-8.984
	l-1.507-0.109C37.686,281.693,37.52,284.734,37.407,287.733z M38.714,269.682l1.501,0.159c0.317-2.952,0.693-5.956,1.117-8.927
	l-1.495-0.212C39.409,263.691,39.032,266.711,38.714,269.682z M42.465,341.563c-0.507-2.941-0.969-5.933-1.371-8.892l-1.495,0.203
	c0.404,2.975,0.868,5.984,1.377,8.945L42.465,341.563z M471.949,104.812c-2.232-2.004-4.535-4.004-6.845-5.94l-0.973,1.152
	c2.298,1.926,4.588,3.912,6.806,5.905L471.949,104.812z M139.309,208.94l-9.484,11.65l-1.555,1.91l2.152,1.69l12.055-14.525
	l-2.201-1.913L139.309,208.94z M136.329,224.763c-1.541,0-2.79,1.249-2.79,2.79c0,1.541,1.249,2.79,2.79,2.79
	c1.541,0,2.79-1.249,2.79-2.79C139.12,226.012,137.87,224.763,136.329,224.763z M140.515,229.645c-1.541,0-2.79,1.249-2.79,2.79
	c0,1.541,1.249,2.79,2.79,2.79c1.541,0,2.79-1.249,2.79-2.79C143.305,230.895,142.056,229.645,140.515,229.645z M145.049,240.108
	c1.541,0,2.79-1.249,2.79-2.79c0-1.541-1.249-2.79-2.79-2.79c-1.541,0-2.79,1.249-2.79,2.79
	C142.258,238.859,143.508,240.108,145.049,240.108z M467.005,222.5l-1.555-1.91l-9.483-11.65l-0.968-1.189l-2.201,1.913
	l12.055,14.525L467.005,222.5z M456.156,227.553c0,1.541,1.249,2.79,2.79,2.79c1.541,0,2.79-1.249,2.79-2.79
	c0-1.541-1.249-2.79-2.79-2.79C457.405,224.763,456.156,226.012,456.156,227.553z M451.971,232.436c0,1.541,1.249,2.79,2.79,2.79
	c1.541,0,2.79-1.249,2.79-2.79c0-1.541-1.249-2.79-2.79-2.79C453.22,229.645,451.971,230.895,451.971,232.436z M447.437,237.318
	c0,1.541,1.249,2.79,2.79,2.79c1.541,0,2.79-1.249,2.79-2.79c0-1.541-1.249-2.79-2.79-2.79
	C448.686,234.528,447.437,235.777,447.437,237.318z M281.438,189.468l-3.236,8.035l-0.014,0.035l0.397,1.974l8.561,42.542
	l6.896-34.622l-2.171-7.179l5.766-5.998l0,0l-16.082-4.751L281.438,189.468z M313.654,237.402c0-3.711,3.008-6.719,6.719-6.719
	c3.711,0,6.719,3.008,6.719,6.719c0,3.711-3.008,6.719-6.719,6.719C316.663,244.121,313.654,241.113,313.654,237.402z
	 M314.79,237.402c0,3.084,2.5,5.584,5.583,5.584c3.084,0,5.584-2.5,5.584-5.584c0-3.084-2.5-5.584-5.583-5.584
	C317.289,231.818,314.79,234.318,314.79,237.402z M295.179,227.588h10.069l2.88,14.458l8.511-42.304l0.052-0.231l0.397-1.974
	l-0.004-0.01l0.004-0.021l0.032-0.161l-0.117-0.019l-3.165-7.859l-0.118,0.035l-16.082,4.751l0,0l5.766,5.998l-2.172,7.179
	l3.633,18.239h-9.687V227.588z M281.973,146.554c-10.805,0-9.864,4.245-9.777,5.378c0.358,4.58,3.906,6.998,9.832,6.998
	c5.925,0,9.409-3.693,10.802-7.084C293.134,151.12,292.778,146.554,281.973,146.554z M313.801,146.554
	c-10.805,0-11.16,4.566-10.857,5.292c1.393,3.391,4.877,7.084,10.802,7.084c5.925,0,9.474-2.418,9.832-6.998
	C323.665,150.799,324.606,146.554,313.801,146.554z M286.907,172.286c-0.75-0.175-1.442,0.37-1.187,0.939
	c1.804,4.028,6.422,6.896,11.843,6.896c5.421,0,10.039-2.868,11.843-6.896c0.255-0.569-0.437-1.115-1.187-0.939
	c-3.196,0.747-6.817,1.169-10.656,1.169C293.723,173.455,290.102,173.032,286.907,172.286z M126.902,461.715
	c-2.066,0-3.738,1.672-3.738,3.738c0,2.061,1.672,3.734,3.738,3.734c2.061,0,3.733-1.673,3.733-3.734
	C130.635,463.387,128.963,461.715,126.902,461.715z M126.902,474.518c-2.066,0-3.738,1.672-3.738,3.733
	c0,2.066,1.672,3.738,3.738,3.738c2.061,0,3.733-1.672,3.733-3.738C130.635,476.19,128.963,474.518,126.902,474.518z
	 M126.902,487.322c-2.066,0-3.738,1.672-3.738,3.738c0,2.061,1.672,3.733,3.738,3.733c2.061,0,3.733-1.672,3.733-3.733
	C130.635,488.994,128.963,487.322,126.902,487.322z M484.322,479.219l-43.533,3.086l-1.288,0.091l0.522,15.177l46.612-3.304
	l-0.522-15.177L484.322,479.219z M448.138,511.427c2.056-0.146,3.606-1.932,3.46-3.988c-0.146-2.06-1.932-3.61-3.988-3.464
	c-2.06,0.146-3.61,1.932-3.464,3.992C444.291,510.023,446.077,511.573,448.138,511.427z M449.043,524.199
	c2.056-0.146,3.606-1.932,3.46-3.993c-0.146-2.056-1.932-3.606-3.988-3.46c-2.06,0.146-3.61,1.932-3.465,3.988
	C445.196,522.795,446.983,524.345,449.043,524.199z M449.42,529.517c-2.06,0.146-3.61,1.932-3.464,3.993
	c0.146,2.056,1.932,3.606,3.993,3.46c2.056-0.146,3.606-1.932,3.46-3.988C453.263,530.921,451.476,529.372,449.42,529.517z
	 M410.722,476.07H367.08h-1.796l0.553,15.176h46.729l-0.553-15.176H410.722z M405.452,498.168c-2.061,0-3.733,1.672-3.733,3.738
	c0,2.062,1.672,3.734,3.733,3.734c2.066,0,3.738-1.672,3.738-3.734C409.19,499.84,407.517,498.168,405.452,498.168z
	 M405.452,510.971c-2.061,0-3.733,1.672-3.733,3.733c0,2.066,1.672,3.738,3.733,3.738c2.066,0,3.738-1.672,3.738-3.738
	C409.19,512.643,407.517,510.971,405.452,510.971z M405.452,523.775c-2.061,0-3.733,1.672-3.733,3.738
	c0,2.061,1.672,3.733,3.733,3.733c2.066,0,3.738-1.672,3.738-3.733C409.19,525.447,407.517,523.775,405.452,523.775z
	 M97.299,406.268l-1.488,0.003l-43.65,0.076l-1.592,0.003l0.137,15.176l46.729-0.081l-0.07-7.776
	c6.662,11.454,14.28,22.284,22.74,32.388l0.112-3.078c-8.577-10.451-16.241-21.674-22.89-33.54L97.299,406.268z M90.788,435.849
	c2.066-0.004,3.735-1.679,3.732-3.74c-0.004-2.066-1.679-3.735-3.745-3.731c-2.061,0.004-3.731,1.678-3.727,3.744
	C87.052,434.184,88.727,435.853,90.788,435.849z M90.811,448.653c2.066-0.004,3.735-1.679,3.731-3.745
	c-0.004-2.061-1.679-3.731-3.744-3.727c-2.061,0.004-3.73,1.678-3.727,3.74C87.074,446.987,88.749,448.656,90.811,448.653z
	 M90.82,453.985c-2.061,0.004-3.731,1.678-3.727,3.744c0.004,2.061,1.678,3.73,3.74,3.727c2.066-0.004,3.735-1.678,3.732-3.74
	C94.561,455.65,92.886,453.981,90.82,453.985z M211.12,172.996c-1.724,11.856-11.118,21.25-22.974,22.974
	c11.827,1.514,21.057,10.743,22.571,22.571c1.724-11.856,11.118-21.25,22.974-22.974
	C221.863,194.053,212.634,184.824,211.12,172.996z M101.431,297.911c1.294-8.904,8.35-15.96,17.254-17.254l0,0h0
	c-8.883-1.137-15.815-8.069-16.952-16.952c-1.294,8.904-8.35,15.96-17.254,17.254C93.362,282.097,100.294,289.028,101.431,297.911z
	 M565.023,365.865c-1.045,7.189-6.741,12.884-13.929,13.929c7.171,0.918,12.767,6.514,13.685,13.685
	c1.045-7.189,6.741-12.884,13.929-13.929l0,0C571.537,378.632,565.941,373.036,565.023,365.865z M573.969,266.248
	c-1.045,7.188-6.741,12.884-13.929,13.929c7.171,0.918,12.767,6.514,13.685,13.685c1.045-7.188,6.741-12.884,13.929-13.929v0
	C580.483,279.015,574.887,273.419,573.969,266.248z M310.752,30.564c-4.422-5.72-4.422-13.634,0-19.353
	c-5.822,4.344-13.877,4.344-19.699,0c4.422,5.72,4.422,13.634,0,19.353C296.875,26.22,304.93,26.22,310.752,30.564z M99.025,159.601
	L99.025,159.601c-5.395-6.98-6.372-16.147-2.942-23.924c1.17-1.445,2.351-2.883,3.545-4.294l-0.67-0.564
	c0.023-0.031,0.043-0.063,0.067-0.094c-0.032,0.024-0.066,0.044-0.098,0.067l-0.451-0.38c-0.432,0.511-0.858,1.033-1.289,1.549
	c-8.487,5.207-19.464,4.799-27.553-1.237c6.597,8.534,6.597,20.342,0,28.876C78.32,153.12,90.338,153.12,99.025,159.601z
	 M31.61,294.265c-7.212,5.381-17.19,5.381-24.402,0c5.477,7.085,5.477,16.888,0,23.973c7.212-5.381,17.19-5.381,24.402,0
	C26.132,311.153,26.132,301.35,31.61,294.265z M486.78,134.695c0.501-3.446,1.697-6.669,3.439-9.523
	c1.946,2.156,3.893,4.385,5.786,6.633l1.156-0.967c-1.95-2.315-3.955-4.613-5.961-6.832l-0.515,0.463
	c3.905-5.947,10.22-10.173,17.563-11.241c-11.051-1.415-19.675-10.038-21.09-21.09c-1.611,11.078-10.389,19.856-21.467,21.466
	C476.741,115.02,485.365,123.644,486.78,134.695z M485.486,243.306c4.157,5.572,4.157,13.281,0,18.852l0,0
	c5.474-4.232,13.048-4.232,18.522,0c-4.157-5.572-4.157-13.281,0-18.852C498.534,247.538,490.96,247.538,485.486,243.306z
	 M189.767,480.021c-4.157-5.572-4.157-13.281,0-18.853c-5.474,4.232-13.048,4.232-18.522,0c4.157,5.572,4.157,13.281,0,18.853
	C176.719,475.79,184.293,475.79,189.767,480.021z M432.056,360.246c-6.863-0.879-12.218-6.234-13.097-13.097
	c-1,6.88-6.451,12.331-13.331,13.331c6.863,0.878,12.218,6.234,13.097,13.097C419.725,366.697,425.176,361.246,432.056,360.246z
	 M362.994,124.391c-3.568-4.615-3.568-11,0-15.616c-4.698,3.505-11.197,3.505-15.895,0c3.568,4.615,3.568,11.001,0,15.616
	C351.797,120.886,358.297,120.886,362.994,124.391z M441.299,66.578c-4.971-6.43-4.971-15.327,0-21.757
	c-6.545,4.883-15.6,4.883-22.146,0c4.971,6.43,4.971,15.327,0,21.757C425.698,61.694,434.754,61.694,441.299,66.578z
	 M241.211,100.583c-0.741,5.786-5.256,10.301-11.042,11.042c5.8,0.843,10.396,5.439,11.239,11.239
	c0.741-5.786,5.256-10.301,11.042-11.042C246.65,110.979,242.054,106.383,241.211,100.583z M33.719,390.582
	c-0.741,5.786-5.256,10.301-11.042,11.042c5.8,0.843,10.396,5.439,11.239,11.239c0.741-5.786,5.256-10.301,11.042-11.042
	C39.158,400.978,34.562,396.382,33.719,390.582z M160.906,66.592L160.906,66.592c0.741-5.786,5.256-10.301,11.042-11.042
	c-5.8-0.843-10.396-5.439-11.239-11.239c-0.741,5.786-5.256,10.301-11.042,11.042C155.467,56.196,160.063,60.792,160.906,66.592z
	 M416.768,229.503c-5.068-6.792-5.068-16.19,0-22.983c-6.673,5.159-15.906,5.159-22.58,0c5.068,6.793,5.068,16.19,0,22.983
	C400.862,224.344,410.095,224.344,416.768,229.503z M162.777,126.448h13.295l0.004-8.336h-13.299V126.448z M177.028,127.404h-15.207
	v-1.339h-1.658v1.724h18.531v-1.724h-1.665L177.028,127.404z M174.777,114.809c-2.053-2.931-5.736-3.046-7.334-2.413
	c-0.986,0.308-3.041,1.027-3.737,1.835c-0.023,0.027-1.049,2.625-1.157,2.889c-0.01,0.013-0.023,0.024-0.034,0.037h13.479
	C175.624,116.326,175.085,115.248,174.777,114.809z M179.785,101.698l-6.854-2.61l-1.029,2.704l6.854,2.61L179.785,101.698z
	 M81.118,208.461c-0.363,0-0.699-0.105-0.993-0.275l-6.432,8.039h14.852l-6.434-8.038C81.818,208.356,81.482,208.461,81.118,208.461
	z M44.238,215.459c-0.35,0-0.675-0.098-0.961-0.257l-6.465,8.077h14.852l-6.464-8.077C44.913,215.361,44.589,215.459,44.238,215.459
	z M446.55,316.507h4.208v-4.208h-4.208V316.507z M445.975,290.172h7.486l0.285,0.251v29.505h-27.927v-36.527h19.946l0.209,0.184
	V290.172z M442.914,312.923h-14.968v1.665h14.968V312.923z M442.914,306.819h-14.968v1.665h14.968V306.819z M442.914,300.531
	h-14.968v1.665h14.968V300.531z M442.914,294.151h-14.968v1.665h14.968V294.151z M445.995,297.804h5.317v-5.317h-5.317V297.804z
	 M445.995,304.023h5.317v-4.77l0.755-1.031l-0.671-0.492l-0.713,0.975h-4.688V304.023z M445.995,310.311h5.317v-5.317h-5.317
	V310.311z M445.995,317.062h5.317v-5.317h-5.317V317.062z M446.55,309.756h4.208v-4.208h-4.208V309.756z M446.55,297.249h4.208
	v-4.208h-4.208V297.249z M446.697,299.722l0.766-0.326l0.998,2.345l1.815-2.481h-3.726v4.207h4.208v-3.456l-2.49,3.402
	L446.697,299.722z M538.607,192.398h6.819v15.484h-6.819V192.398z M540.889,204.517c0,0.622,0.505,1.127,1.127,1.127
	c0.622,0,1.127-0.505,1.127-1.127c0-0.622-0.504-1.127-1.127-1.127C541.394,203.39,540.889,203.895,540.889,204.517z
	 M336.061,357.376c2.676,5.574,4.176,11.819,4.176,18.415c0,9.911-3.394,19.023-9.07,26.26c-1.266,1.614-2.645,3.134-4.127,4.548
	c-2.059,1.965-4.311,3.726-6.731,5.25c-1.821,1.147-3.732,2.163-5.725,3.028c-3.643,1.582-7.551,2.663-11.638,3.172l-5.309,24.638
	l-5.309-24.638c-4.087-0.509-7.995-1.59-11.638-3.172c-1.993-0.865-3.904-1.881-5.725-3.028c-2.419-1.524-4.672-3.285-6.731-5.25
	c-1.482-1.415-2.861-2.934-4.127-4.548c-5.676-7.237-9.07-16.349-9.07-26.26c0-6.596,1.5-12.841,4.176-18.415
	c2.114-4.402,4.962-8.384,8.386-11.789c4.728-4.703,10.556-8.298,17.062-10.376c4.092-1.307,8.45-2.019,12.975-2.019
	c4.526,0,8.883,0.712,12.975,2.019c6.506,2.079,12.333,5.674,17.062,10.376C331.098,348.991,333.947,352.973,336.061,357.376z
	 M281.822,388.636h9.967v-19.921h-9.967V388.636z M315.207,372.233c0-1.278-1.002-2.316-2.238-2.316h-9.122v0.006
	c-0.184,0.001-0.358-0.085-0.471-0.231c-0.113-0.146-0.15-0.336-0.102-0.514c0.458-1.704,1.519-5.932,1.519-8.637
	c0-3.452-4.423-5.987-4.909-0.755c-0.486,5.232-1.672,6.202-1.672,6.202c-3.077,3.554-5.609,5.178-5.609,5.178v17.31h18.188
	c1.236,0,2.238-0.92,2.238-2.056c0-0.785-0.484-1.458-1.188-1.806h0.551c1.236,0,2.237-1.09,2.237-2.435
	c0-1.009-0.564-1.875-1.368-2.244c1.09-0.114,1.946-1.09,1.946-2.293v-0.46c0-1.103-0.718-2.021-1.677-2.254
	c0.963-0.259,1.677-1.157,1.677-2.234V372.233z M282.889,369.782h7.833v17.788h-7.833V369.782z M285.511,373.648
	c0,0.715,0.58,1.295,1.295,1.295c0.715,0,1.294-0.58,1.294-1.295c0-0.715-0.58-1.295-1.294-1.295
	C286.091,372.353,285.511,372.932,285.511,373.648z M198.474,274.437c0,1.642-0.124,3.255-0.354,4.833
	c-2.21,15.157-14.653,26.985-30.094,28.261l-2.77,17.473l-2.77-17.473c-17.048-1.409-30.448-15.682-30.448-33.094
	c0-11.634,5.985-21.864,15.039-27.798c5.224-3.423,11.467-5.421,18.179-5.421C183.602,241.218,198.474,256.091,198.474,274.437z
	 M178.493,268.091c-0.451-0.146-2.786-0.291-3.838,2.137c-0.311,0.721-1.552,2.943-1.552,2.943s-1.285,2.358-1.663,0.764
	c0.066-4.323,0.947-13.726,0.947-13.726c0.116-0.956-0.566-1.824-1.523-1.94c-0.956-0.114-1.826,0.567-1.941,1.524l-0.941,10.508
	c-0.125-0.061-0.251-0.119-0.379-0.171c-0.07-0.03-0.143-0.054-0.215-0.081l0.15-13.54c0.01-0.963-0.766-1.751-1.729-1.761
	c-0.963-0.008-1.75,0.765-1.76,1.728l-0.147,13.208h-0.289l-0.505-11.526c-0.038-0.962-0.85-1.712-1.811-1.674
	c-0.963,0.038-1.713,0.849-1.675,1.811l0.522,11.984c-0.127,0.064-0.251,0.133-0.372,0.207l-0.478-6.013
	c-0.049-0.778-0.723-1.367-1.5-1.315c-0.777,0.05-1.366,0.723-1.315,1.501l0.711,9.54c-0.063,0.333-0.099,4.954-0.099,4.954
	c0,1.1,0.932,4.059,1.557,4.927l-0.621,5.975h12.398l-0.931-6.053c0.006,0.018,0.01,0.03,0.01,0.03
	c0.572-0.511,4.076-2.086,6.404-7.968l2.785-6.731C178.691,269.333,179.266,268.342,178.493,268.091z M357.701,58.706l9.822,14.283
	c4.645-3.493,7.396-8.97,7.396-14.803c0-0.998-0.079-1.995-0.237-2.972L357.701,58.706z M371.566,47.558
	c-0.772-1.101-1.665-2.115-2.658-3.025l-10.484,12.456l15.951-3.28C373.828,51.501,372.886,49.436,371.566,47.558z M355.644,39.694
	c-9.85,0.404-17.74,8.544-17.74,18.493c0,10.205,8.302,18.508,18.508,18.508c3.511,0,6.898-0.977,9.846-2.833l-10.614-15.436V39.694
	z M346.045,185.446l23.195-15.229c-2.972-6.017-4.65-12.789-4.65-19.954c0-4.361,0.631-8.573,1.786-12.563
	c-11.031-4.759-22.647-8.409-34.71-10.809c0.024-0.724,0.04-1.421,0.045-2.088c12.263,2.413,24.073,6.1,35.286,10.921
	c6.052-17.785,22.884-30.586,42.716-30.586c6.654,0,12.965,1.452,18.651,4.038c-13.204-9.187-27.409-17.027-42.424-23.312
	c-7.401,7.85-17.889,12.757-29.529,12.757c-7.708,0-14.914-2.149-21.052-5.88l-9.851,11.793l5.709-14.692
	c-6.599-5.234-11.528-12.475-13.87-20.804c-6.499-0.556-13.07-0.856-19.71-0.856c-5.052,0-10.063,0.182-15.035,0.506
	c-3.605,7.962-9.869,14.458-17.665,18.355l3.594,16.068l-8.513-14.03c-3.788,1.266-7.838,1.962-12.052,1.962
	c-9.956,0-19.015-3.833-25.792-10.097c-7.027,2.454-13.899,5.24-20.598,8.341c10.558,9.061,17.256,22.492,17.256,37.496
	c0,5.024-0.755,9.87-2.149,14.438c14.091-7.322,29.286-12.801,45.269-16.103c0.021,0.65,0.063,1.345,0.125,2.08
	c-16.413,3.42-31.983,9.162-46.356,16.859c-0.173,0.465-0.358,0.924-0.545,1.382l26.153,18.505l-29.388-11.998
	c-8.004,13.494-22.246,22.841-38.755,24.085c-10.302,10.541-19.286,22.373-26.669,35.241c-0.605-0.549-1.123-1.018-1.56-1.417
	c7.057-12.227,15.538-23.533,25.219-33.686c-0.25,0.004-0.496,0.019-0.747,0.019c-19.978,0-37.174-11.866-44.958-28.928
	c-12.685,14.589-23.551,30.795-32.266,48.256c6.798,7.243,10.969,16.981,10.969,27.699c0,19.579-13.896,35.913-32.363,39.677
	c-1.087,7.125-1.834,14.36-2.247,21.683c-0.643-0.217-1.328-0.34-2.04-0.355c0.406-7.074,1.126-14.065,2.156-20.957
	c-1.272,0.189-2.562,0.321-3.87,0.389l-2.132,13.755l-2.132-13.755c-21.374-1.109-38.363-18.789-38.363-40.439
	c0-22.365,18.13-40.495,40.495-40.495c0.465,0,0.925,0.02,1.385,0.035c1.246-2.514,2.552-5.05,3.897-7.552l1.33,0.711
	c-1.233,2.296-2.431,4.621-3.584,6.93c9.662,0.715,18.376,4.816,24.966,11.127c8.89-17.676,19.975-34.063,32.9-48.802
	c-2.282-5.685-3.55-11.886-3.55-18.386c0-24.266,17.501-44.432,40.566-48.6l-0.577-0.921c2.559-1.591,5.182-3.159,7.797-4.662
	l0.755,1.305c-2.292,1.316-4.583,2.687-6.838,4.075c2.51-0.393,5.081-0.601,7.701-0.601c11.46,0,22.001,3.913,30.382,10.462
	c6.742-3.156,13.659-5.996,20.733-8.502c-6.181-6.441-10.118-15.048-10.546-24.575c-0.152,0.054-0.306,0.106-0.458,0.16
	l-0.513-1.415c0.309-0.111,0.621-0.216,0.931-0.326c0-0.051-0.004-0.102-0.004-0.154c0-20.994,17.019-38.013,38.013-38.013
	c15.849,0,29.427,9.702,35.133,23.489c1.967-0.107,3.936-0.201,5.891-0.265l0.05,1.504c-1.78,0.058-3.572,0.14-5.362,0.234
	c1.488,4.07,2.3,8.466,2.3,13.051c0,4.771-0.887,9.332-2.492,13.539c4.682-0.284,9.397-0.445,14.15-0.445
	c6.458,0,12.851,0.279,19.176,0.8c-0.64-2.863-0.989-5.835-0.989-8.89c0-6.265,1.422-12.197,3.956-17.495
	c-1.227-0.104-2.454-0.204-3.669-0.289l0.106-1.502c1.424,0.1,2.861,0.215,4.301,0.34c6.807-12.869,20.322-21.641,35.893-21.641
	c22.416,0,40.587,18.171,40.587,40.587c0,9.99-3.616,19.131-9.602,26.202c47.283,19.963,86.592,55.202,111.73,99.495
	c6.344-11.53,18.606-19.345,32.696-19.345c20.599,0,37.297,16.699,37.297,37.297c0,19.6-15.122,35.658-34.334,37.169l-2.905,17.165
	l-2.904-17.156c-2.683-0.203-5.287-0.686-7.782-1.426c1.882,6.984,3.446,14.096,4.673,21.322c-0.695,0.333-1.328,0.775-1.869,1.312
	c-1.314-7.947-3.036-15.758-5.148-23.41c-14.203-5.27-24.326-18.939-24.326-34.976c0-5.625,1.253-10.955,3.482-15.737
	c-13.813-24.681-32.046-46.564-53.63-64.564c6.527,7.826,10.458,17.893,10.458,28.881c0,15.518-7.835,29.203-19.763,37.323
	c5.623,7.008,10.729,14.447,15.245,22.269c-0.438,0.398-0.955,0.868-1.56,1.416c-4.553-7.935-9.719-15.473-15.422-22.563
	c-6.872,4.232-14.961,6.677-23.624,6.677c-15.475,0-29.126-7.794-37.255-19.666L346.045,185.446z M537.678,208.81h8.676v-17.341
	h-8.676V208.81z M517.293,205.748c0,1.113,0.872,2.016,1.948,2.016h7.94c0,0,0.312,0.069,0.41,0.196s0.13,0.293,0.089,0.448
	c-0.399,1.483-1.322,5.163-1.322,7.518c0,3.005,3.85,5.212,4.273,0.657c0.423-4.554,1.456-5.399,1.456-5.399
	c2.678-3.094,4.882-4.507,4.882-4.507v-15.068h-15.832c-1.076,0-1.948,0.801-1.948,1.79c0,0.683,0.421,1.27,1.034,1.572h-0.479
	c-1.076,0-1.947,0.949-1.947,2.12c0,0.878,0.491,1.632,1.19,1.954c-0.949,0.099-1.694,0.949-1.694,1.996v0.4
	c0,0.96,0.625,1.759,1.46,1.962c-0.838,0.225-1.46,1.007-1.46,1.944V205.748z M89.616,216.225H89.4l-6.776-8.463
	c0.389-0.452,0.59-1.07,0.438-1.743c-0.167-0.739-0.77-1.34-1.511-1.496c-1-0.211-1.908,0.331-2.264,1.164l-14.772,2.804
	c-0.02-0.016-0.029-0.024-0.048-0.04v-3.1c0-0.916-0.743-1.659-1.659-1.659l0,0c-0.916,0-1.659,0.743-1.659,1.659v3.082
	c-0.208,0.225-0.367,0.492-0.47,0.786l-15.022,2.851c-0.442-0.447-1.092-0.688-1.794-0.56c-0.772,0.142-1.409,0.764-1.571,1.532
	c-0.143,0.676,0.066,1.297,0.465,1.744l-6.797,8.492h-0.218c0.118,4.593,3.875,8.283,8.498,8.283c4.623,0,8.378-3.689,8.497-8.283
	h-0.216l-6.798-8.492c0.132-0.148,0.244-0.313,0.327-0.495l15.051-2.856c0.02,0.016,0.029,0.024,0.048,0.04v24.623h-6.929v3.32
	h-4.136v3.32h25.449v-3.32h-4.137v-3.32h-6.928v-24.605c0.208-0.225,0.367-0.492,0.47-0.787l14.525-2.756l-6.622,8.273h-0.217
	c0.118,4.592,3.875,8.282,8.497,8.282C85.741,224.506,89.498,220.817,89.616,216.225z M189.336,133.165H149.52v14.59h39.816V133.165
	z M189.336,132.209l-4.121-10.257h-8.184l0.002-3.169c0.669,0.461,1.505,0.602,1.417,0.069c-2.854-9.038-0.408-6.999-0.747-12.649
	l0.192-1.105l1.412,0.538l1.71-4.49l-8.641-3.291l-1.71,4.49l1.424,0.542c-0.133,0.204-0.295,0.388-0.514,0.516
	c-0.861,0.502-1.765,0.713-2.702,0.649c-1.09-0.075-2.223-0.521-3.381-1.312c-0.491-0.202-1.166-0.056-2.263,0.429l-1.651,0.89
	c0.089,0.314,0.627,0.987,1.908,0.298l1.097-0.192c0.556,0.407,1.008,0.829,1.537,1.195l-4.417,0.189l-2.406,1.89l-1.917,2.173
	c0.799,1.122,1.972,0.436,3.246-0.974l1.801-0.936l2.352,0.412l-0.02,0.217l-4.122,1.375l-2.662,4.189
	c0.831,0.807,1.526,0.577,2.493-0.398l1.142-1.756c1.226-0.336,2.414-0.613,3.596-1.142l0.084,0.309l-3.151,2.304
	c-0.237,0.648-1.096,4.291-1.156,4.145c-0.084,0.575,0.361,0.604,0.834,0.364v4.231h-8.18l-4.121,10.257H189.336z M232.847,42.132
	h-2.438c-1.536,0-2.792,1.256-2.792,2.792v6.587c0,1.535,1.257,2.792,2.792,2.792h2.438V42.132z M241.135,56.746h-4.825v12.257
	c0,0.922,0.754,1.675,1.675,1.675h1.474c0.922,0,1.675-0.754,1.675-1.675V56.746z M243.214,41.711c0-0.616-0.501-1.117-1.117-1.117
	h-7.016c-0.615,0-1.117,0.501-1.117,1.117v12.802c0,0.615,0.501,1.116,1.117,1.116h7.016c0.615,0,1.117-0.501,1.117-1.116V41.711z
	 M261.955,37.219c-0.023,0.011-7.613,3.685-17.636,4.372c0.002,0.04,0.012,0.078,0.012,0.119v12.802c0,0.096-0.017,0.187-0.028,0.28
	c9.948,0.68,17.254,4.257,17.254,4.257c2.306-2.586,3.832-5.907,4.172-9.623C266.148,44.839,264.676,40.512,261.955,37.219z
	 M358.844,51.785l12.413-14.747c-3.353-2.826-7.684-4.529-12.413-4.529V51.785z M376.456,58.186c0-1.102-0.094-2.202-0.272-3.281
	l-0.308-1.505c-0.59-2.414-1.612-4.674-3.053-6.725c-0.996-1.418-4.09-4.32-4.09-4.32L357.18,56.082v-17.94h-0.768
	c-11.052,0-20.044,8.992-20.044,20.044c0,11.052,8.992,20.043,20.044,20.043c3.822,0,7.504-1.083,10.709-3.114l1.268-0.867
	C373.451,70.468,376.456,64.524,376.456,58.186z M392.445,166.655h32.61v-32.602h-0.031c0.544-0.997,1.074-1.97,1.582-2.901
	c0.816-1.498,0.266-3.376-1.237-4.195c-1.498-0.816-3.377-0.264-4.191,1.236c0,0-4.021,7.37-8.042,14.759
	c-2.123,3.904-3.855,7.09-5.16,9.491c-1.481-3.204-3.321-7.21-4.688-10.194c-0.713-1.552-2.547-2.235-4.098-1.523
	c-1.555,0.71-2.236,2.545-1.524,4.098c0.017,0.039,1.829,3.993,3.625,7.895c1.058,2.294,1.907,4.124,2.519,5.435
	c0.365,0.785,0.654,1.395,0.854,1.811c0.113,0.238,0.203,0.426,0.268,0.553c0.652,1.295,1.623,1.718,2.365,1.835
	c0.399,0.063,0.735,0.039,0.916,0.014c1.059-0.146,1.949-0.823,2.384-1.759c0.512-0.995,6.141-11.348,11.496-21.177v24.265h-26.68
	v-26.684H413.6c0.482-0.99,0.97-1.977,1.463-2.96h-22.618V166.655z"></path>
<path id="color_x5F_1_47_" fill="#00BED2" d="M307.822,273.96c0-5.625-4.56-10.184-10.184-10.184
	c-5.625,0-10.184,4.56-10.184,10.184c0,4.429,2.833,8.188,6.782,9.589v0.136c-1.529-0.402-2.943-1.079-4.202-1.963
	c-2.934-2.06-4.985-5.281-5.495-9.006c-0.081-0.594-0.134-1.196-0.134-1.812v-12.04c0-4.113,1.043-8.708,3.721-11.944
	c2.086-2.52,5.163-4.215,9.512-4.215c4.348,0,7.424,1.702,9.51,4.225c2.68,3.243,3.724,7.842,3.724,11.933v12.04
	c0,0.616-0.053,1.219-0.134,1.812c-0.51,3.725-2.561,6.946-5.495,9.007c-1.259,0.884-2.673,1.56-4.202,1.963v-0.136
	C304.989,282.148,307.822,278.39,307.822,273.96z M362.049,247.805c-0.176-0.958-0.498-1.888-0.902-2.79
	c-0.6-1.338-1.418-2.601-2.516-3.698l-2.621-2.625l-6.969-6.98c-4.848-4.848-12.761-4.887-17.569,0
	c-0.147,0.15-0.261,0.305-0.398,0.456c-1.376,1.523-2.246,3.12-2.706,4.711c-0.311,1.075-0.433,2.143-0.434,3.182
	c0,1.275,0.193,2.499,0.512,3.631c0.714,2.529,2.018,4.582,3.026,5.59l9.59,9.59c2.575,2.574,5.977,3.779,9.334,3.613
	c-0.813-1.445-1.929-6.251,2.249-11.016C356.824,246.703,361.176,247.564,362.049,247.805z M254.214,258.87l9.59-9.59
	c1.008-1.008,2.311-3.061,3.026-5.59c0.965-3.418,0.82-7.708-2.627-11.523c-0.137-0.151-0.251-0.306-0.398-0.456
	c-4.808-4.887-12.722-4.848-17.569,0l-6.969,6.98l-2.621,2.625c-1.097,1.097-1.916,2.36-2.516,3.698
	c-0.404,0.902-0.726,1.832-0.902,2.79c0.873-0.241,5.225-1.102,9.404,3.663c4.178,4.765,3.062,9.571,2.249,11.016
	C248.237,262.649,251.639,261.445,254.214,258.87z M166.969,488.644c9.553,6.556,19.613,12.422,30.12,17.509l-0.253,6.953h-2.128
	l-2.329,62.999c-9.644-3.647-19.05-7.778-28.186-12.369L166.969,488.644z M182.46,530.48c2.71,1.332,5.467,2.631,8.191,3.857
	l0.622-1.372c-2.711-1.218-5.45-2.508-8.143-3.833L182.46,530.48z M167.265,520.623l-0.761,1.299
	c2.593,1.51,5.252,2.997,7.904,4.419l0.716-1.325C172.488,523.603,169.843,522.125,167.265,520.623z M440.789,482.304l-1.288,0.091
	l0.522,15.177l-2.122,0.15l2.076,61.368c-7.276,3.969-14.742,7.63-22.369,10.994l-1.525-41.252c0.888-0.453,1.779-0.904,2.66-1.365
	l-0.702-1.331c-0.669,0.351-1.346,0.691-2.019,1.036l-1.109-30c8.995-5.307,17.609-11.193,25.774-17.628L440.789,482.304z
	 M434.533,518.469l-0.796-1.278c-2.551,1.573-5.164,3.125-7.767,4.609l0.749,1.305C429.336,521.613,431.966,520.053,434.533,518.469
	z M97.436,421.444l2.57-0.004l0.396,43.352c1.395,1.634,2.805,3.258,4.226,4.841l-1.123,1.002c-1.032-1.148-2.061-2.316-3.081-3.494
	l0.492,53.832c4.036,3.558,8.161,7.016,12.386,10.354l1.796-48.594c-1.831-1.793-3.652-3.618-5.423-5.459l1.091-1.04
	c1.441,1.499,2.92,2.985,4.407,4.457l0.868-23.468h3.659l0.407-11.166c-8.46-10.103-16.078-20.934-22.74-32.388L97.436,421.444z
	 M433.337,188.709c5.703,7.09,10.869,14.628,15.422,22.563c-9.843,8.922-40.379,36.303-44.538,36.436
	c-10.477,0.334-45.015-37.382-45.492-37.903l0.002-0.024l-30.787-9.073l-0.214-0.653l-10.628-2.588l-0.009,0.044l-0.005-0.002
	l0.032-0.161l-0.117-0.019l-3.165-7.859l-0.118,0.035l-0.118-2.94c5.744-4.907,9.413-12.373,10.979-20.033
	c2.192,2.285,5.767,0.399,8.031-3.222c2.396-3.833,3.514-11.5,0-13.577c-1.198-0.708-2.33-0.678-3.303-0.331
	c0.974-5.323,2.111-15.201,2.357-22.508c12.063,2.4,23.679,6.049,34.71,10.809c-1.154,3.989-1.786,8.201-1.786,12.563
	c0,7.166,1.678,13.937,4.65,19.954l-23.195,15.229l26.414-9.726c8.129,11.872,21.78,19.666,37.255,19.666
	C418.376,195.386,426.465,192.94,433.337,188.709z M416.768,206.52c-6.673,5.159-15.906,5.159-22.58,0
	c5.068,6.793,5.068,16.19,0,22.983c6.673-5.159,15.906-5.159,22.58,0C411.7,222.71,411.7,213.313,416.768,206.52z M194.048,471.31
	c0,4.304,2.431,15.88,4.877,19.277l-0.246,7.342h-1.291l-0.217,5.965c-10.512-5.141-20.572-11.066-30.112-17.693l1.071-28.979
	h-1.702l0.641-17.606h-1.796l0.256-7.645c0.023,0.072,0.037,0.116,0.037,0.116c1.115-0.997,5.082-3.029,9.908-7.667
	c5.665,5.46,11.694,10.542,18.046,15.212l0.916,12.294C194.19,453.231,194.048,471.31,194.048,471.31z M189.767,461.169
	c-5.474,4.232-13.048,4.232-18.522,0c4.157,5.572,4.157,13.281,0,18.853c5.474-4.232,13.048-4.232,18.522,0
	C185.61,474.449,185.61,466.741,189.767,461.169z M467.6,335.385c-1.76,7.928-4.059,15.655-6.862,23.138
	c-3.341,0.62-5.775,3.644-5.563,7.125l0.32,5.357c-0.962,2.061-1.955,4.105-2.994,6.122l-0.535-4.655
	c-0.413-3.742-3.789-6.445-7.531-6.032c-3.747,0.414-6.449,3.789-6.036,7.532l2.568,22.37c-0.655,0.948-1.316,1.89-1.989,2.824
	l-0.15-0.992c-0.408-3.024-3.199-5.135-6.218-4.716c-3.02,0.411-5.131,3.199-4.719,6.222l1.671,11.434
	c-4.469,5.188-9.24,10.108-14.281,14.738l2.466-33.111c0.197-3.045-2.106-5.676-5.147-5.873c-3.041-0.205-5.676,2.098-5.869,5.143
	l-1.871,23.527c-0.474-0.287-0.958-0.558-1.455-0.808l2.043-46.891c0.147-3.762-2.787-6.939-6.554-7.086
	c-3.762-0.147-6.938,2.787-7.086,6.549l-1.976,45.1h-1.131l-0.577-51.679c-0.028-2.887-1.844-5.331-4.383-6.306l0.586-8.83h5.613
	c4.349,0,7.907-3.558,7.907-7.907c0-0.862-0.145-1.691-0.403-2.469h5.122c0.914,0,1.655-0.741,1.655-1.655v-6.485
	c7.241,10.117,18.684,17.012,31.783,18.134l3.778,19.553l3.778-19.553C452.652,344.425,460.953,340.875,467.6,335.385z
	 M432.056,360.246c-6.863-0.879-12.218-6.234-13.097-13.097c-1,6.88-6.451,12.331-13.331,13.331
	c6.863,0.878,12.218,6.234,13.097,13.097C419.725,366.697,425.176,361.246,432.056,360.246z M391.307,314.143h6.58
	c-1.176-3.955-1.817-8.141-1.817-12.478c0-7.676,1.985-14.886,5.46-21.156c-7.857-1.653-19.229-7.754-29.93-14.395l4.191,4.195
	c0.001,0,0.002,0,0.004,0c1.952,2.038,2.529,2.901,2.529,4.339v32.313h4.682c2.318,0,4.411,0.934,5.947,2.469
	C390.189,310.666,391.039,312.311,391.307,314.143z M260.018,89.082l8.513,14.03l-3.594-16.068
	c7.796-3.897,14.06-10.393,17.665-18.355c4.972-0.323,9.983-0.506,15.035-0.506c6.64,0,13.211,0.3,19.71,0.856
	c2.342,8.329,7.27,15.569,13.87,20.804l-5.709,14.692l9.851-11.793c6.138,3.731,13.344,5.88,21.052,5.88
	c11.64,0,22.128-4.908,29.529-12.757c15.015,6.284,29.22,14.125,42.424,23.312c-5.686-2.586-11.997-4.038-18.651-4.038
	c-19.833,0-36.665,12.801-42.716,30.586c-11.213-4.822-23.023-8.508-35.286-10.921c0.013-1.492-0.022-2.827-0.118-3.918
	c0.497-13.541-30.736-33.537-53.992-13.062c-9.761,1.382-14.093,9.543-15.341,13.472c-0.276,0.868-0.36,2.2-0.308,3.823
	c-15.983,3.301-31.178,8.78-45.269,16.103c1.394-4.568,2.149-9.414,2.149-14.438c0-15.004-6.697-28.436-17.256-37.496
	c6.699-3.101,13.571-5.887,20.598-8.341c6.777,6.264,15.835,10.097,25.792,10.097C252.18,91.044,256.23,90.348,260.018,89.082z
	 M252.45,111.822c-5.8-0.843-10.396-5.439-11.239-11.239c-0.741,5.786-5.256,10.301-11.042,11.042
	c5.8,0.843,10.396,5.439,11.239,11.239C242.149,117.078,246.664,112.563,252.45,111.822z M347.1,124.391
	c4.698-3.505,11.197-3.505,15.895,0c-3.568-4.615-3.568-11,0-15.616c-4.698,3.505-11.197,3.505-15.895,0
	C350.667,113.391,350.667,119.776,347.1,124.391z M198.12,279.27c-2.21,15.157-14.653,26.985-30.094,28.261l-2.77,17.473
	l-2.77-17.473c-17.048-1.409-30.448-15.682-30.448-33.094c0-11.634,5.985-21.864,15.039-27.798
	c-4.38-4.902-8.267-9.516-11.272-13.182c-7.908,19.87-12.262,41.526-12.262,64.181c0,11.706,1.169,23.143,3.383,34.207l-0.02-0.459
	c-0.147-3.762,2.787-6.938,6.554-7.086c3.762-0.147,6.938,2.787,7.086,6.549l1.976,45.1h1.131l0.577-51.679
	c0.037-3.77,3.119-6.795,6.885-6.762c3.77,0.037,6.803,3.123,6.766,6.889l-0.586,52.979c0.28,0.106,0.566,0.2,0.84,0.317
	c0.502,0.204,0.996,0.431,1.484,0.67l3.681-41.114c0.451-3.746,3.853-6.41,7.594-5.963c3.746,0.455,6.414,3.848,5.959,7.59
	c0,0-3.447,36.792-3.704,53.706c1.481,6.235,6.507-2.991,6.507-2.991s4.856-8.697,6.073-11.517c4.115-9.5,13.25-8.93,15.017-8.361
	c3.025,0.984,0.774,4.861,0.774,4.861l-10.897,26.336c-4.121,10.41-9.181,17.364-13.697,22.053
	c5.169,4.981,10.641,9.649,16.391,13.967l-1.663-22.331c-0.197-3.045,2.106-5.676,5.147-5.873c3.041-0.205,5.676,2.098,5.869,5.143
	l1.871,23.527c0.474-0.287,0.958-0.558,1.455-0.808l-2.043-46.891c-0.147-3.762,2.787-6.939,6.554-7.086
	c1.112-0.043,2.169,0.188,3.116,0.624l-2.667-37.65h-5.621c-4.349,0-7.907-3.558-7.907-7.907c0-0.862,0.145-1.691,0.403-2.469
	h-5.122c-0.914,0-1.655-0.741-1.655-1.655v-17.757c0-0.914,0.741-1.655,1.655-1.655h11.259c0.268-1.832,1.119-3.477,2.355-4.713
	c1.536-1.536,3.628-2.469,5.947-2.469h4.682v-32.313c0-1.438,0.578-2.301,2.529-4.339c0.001,0,0.002,0,0.004,0l4.191-4.195
	C214.827,271.605,205.523,276.723,198.12,279.27z M127.411,342.979l1.538,35.298c-0.497,0.251-0.981,0.521-1.455,0.808
	l-1.871-23.527c-0.193-3.045-2.828-5.348-5.869-5.143c-3.041,0.197-5.344,2.828-5.147,5.873l2.78,37.327
	c-0.244,1.304-0.387,19.383-0.387,19.383c0,4.304,2.431,15.88,4.877,19.277l-0.246,7.342h-1.291l-0.122,3.361
	c-8.577-10.451-16.241-21.674-22.89-33.54l-0.029-3.169l-1.488,0.003l-0.062-7.342c2.44-3.402,4.851-14.982,4.844-19.286
	c0,0-0.174-18.079-0.42-19.382l2.715-37.332c0.191-3.046-2.116-5.672-5.158-5.864c-3.041-0.199-5.673,2.108-5.86,5.154l-1.83,23.53
	c-0.475-0.286-0.959-0.556-1.457-0.806l1.962-46.894c0.141-3.763-2.799-6.934-6.566-7.075c-3.762-0.141-6.934,2.799-7.074,6.562
	l-1.898,45.103l-1.131,0.002l-0.667-51.678c-0.034-2.981-1.975-5.486-4.646-6.387c0.413-7.323,1.16-14.558,2.247-21.683
	c18.467-3.765,32.363-20.098,32.363-39.677c0-10.718-4.171-20.456-10.969-27.699c8.715-17.461,19.581-33.667,32.266-48.256
	c7.784,17.062,24.98,28.928,44.958,28.928c0.251,0,0.497-0.015,0.747-0.019c-9.68,10.153-18.162,21.459-25.219,33.686
	c-0.947-0.862-1.501-1.369-1.501-1.369l-0.978,1.178l-2.201-1.913l-0.968,1.189c-0.506-0.596-0.879-1.036-0.978-1.153
	c-0.427-0.503,2.305-6.94,0.978-15.189c-0.147-0.916-8.456-12.076-8.943-12.651c-0.488-0.575-2.586,1.376-2.091,4.618
	c0.178,1.164,3.349,4.76,3.659,5.958c0.31,1.199,0.28,2.129-0.456,2.603c-0.808,0.52-8.164-3.511-15.365-16.565
	c-0.743-1.347-5.238-1.19-4.038,4.084c0,0-3.581-4.56-5.526-2.208c-1.945,2.352,0.845,5.302,0.845,5.302
	c-0.807-0.951-2.412-0.915-3.585,0.08c-1.173,0.995,1.869,6.509,1.869,6.509c-0.807-0.951-3.25,1.012-2.885,2.506
	c3.305,13.534,14.679,20.008,15.963,21.522c0.89,1.049,7.836,3.031,8.215,3.478c0.14,0.165,1.367,1.342,2.854,2.756l-1.555,1.91
	l2.152,1.69l-1.024,1.234c0,0,1.838,2.408,4.926,6.217c-8.271,20.394-12.84,42.671-12.84,65.997
	C121.484,313.31,123.552,328.506,127.411,342.979z M118.685,280.657L118.685,280.657c-8.883-1.137-15.815-8.069-16.952-16.952
	c-1.294,8.904-8.35,15.96-17.254,17.254c8.883,1.137,15.815,8.069,16.952,16.952C102.725,289.007,109.781,281.951,118.685,280.657
	L118.685,280.657z M173.186,176.031c16.51-1.243,30.751-10.59,38.755-24.085l29.388,11.998l-26.153-18.505
	c0.187-0.458,0.371-0.917,0.545-1.382c14.373-7.697,29.943-13.439,46.356-16.859c0.552,6.534,2.603,16.044,3.896,21.508
	c-0.975-0.35-2.107-0.387-3.308,0.323c-3.514,2.076-2.396,9.743,0,13.576c2.286,3.657,5.907,5.539,8.093,3.149
	c1.606,7.551,5.319,15.036,10.944,20.122l-0.145,3.625l-0.118-0.035l-3.236,8.035l-0.02,0.006l-0.009-0.044l-10.628,2.588
	l-0.214,0.653l-30.787,9.073l0.002,0.024c-0.477,0.522-35.016,38.238-45.493,37.903c-4.158-0.133-34.693-27.513-44.537-36.435
	C153.899,198.405,162.884,186.572,173.186,176.031z M188.146,195.97c11.827,1.514,21.057,10.743,22.571,22.571
	c1.724-11.856,11.118-21.25,22.974-22.974c-11.827-1.514-21.057-10.743-22.571-22.571
	C209.396,184.853,200.002,194.247,188.146,195.97z M469.462,269.582c-2.04-12.538-5.416-24.632-9.99-36.126
	c-5.288,6.45-13.302,15.835-21.935,24.552c0.744-0.038,1.493-0.057,2.246-0.057C451.242,257.952,461.666,262.367,469.462,269.582z
	 M452.917,380.744l4.208,36.575l1.129-0.08l-2.506-42C454.835,377.092,453.893,378.928,452.917,380.744z M439.415,402.056
	l2.942,19.454c0.453-0.32,0.916-0.624,1.395-0.909l-2.43-21.163C440.697,400.318,440.056,401.187,439.415,402.056z M353.816,261.999
	l-4.908,52.144h10.228c0.592-4.059,4.082-7.182,8.317-7.182h4.667v-32.313l-14.715-14.729
	C356.074,261.007,354.857,261.638,353.816,261.999z M237.87,259.919l-14.715,14.729v32.313h4.667c4.236,0,7.725,3.124,8.317,7.182
	h10.228l-4.908-52.144C240.419,261.638,239.202,261.007,237.87,259.919z M488.853,431.746c1.918,6.115,6.279-3.443,6.279-3.443
	s0.018-0.038,0.039-0.083l0.075-10.079c-2.097,3.426-4.286,6.79-6.553,10.097C488.739,429.479,488.792,430.655,488.853,431.746z
	 M518.852,236.659c2.112,7.652,3.833,15.462,5.148,23.41c-1.229,1.221-1.998,2.907-2.016,4.777l-0.578,51.679h-1.131l-1.976-45.1
	c-0.147-3.762-3.324-6.697-7.086-6.549c-3.767,0.148-6.701,3.324-6.554,7.086l2.043,46.891c-0.497,0.251-0.981,0.522-1.455,0.808
	l-1.871-23.527c-0.193-3.045-2.828-5.348-5.869-5.144c-3.041,0.197-5.344,2.828-5.147,5.873l2.78,37.327
	c-0.244,1.304-0.387,19.383-0.387,19.383c0,4.304,2.431,15.88,4.877,19.278l-0.049,7.342h-1.488l-0.111,15.176h-2.57l-0.138,18.711
	c-2.137,3.614-4.367,7.166-6.693,10.65c-0.477-18.382,0.168-46.818,0.168-46.818c0.189-3.765-2.712-6.961-6.481-7.15
	c-3.764-0.181-6.969,2.717-7.154,6.485l-0.765,41.271c-0.504-0.204-1.012-0.396-1.528-0.564c-0.282-0.098-0.573-0.171-0.86-0.257
	l-3.161-52.888c-0.201-3.285-2.703-5.886-5.843-6.337c3.033-8.215,5.472-16.714,7.26-25.449c8.183-7.944,13.275-19.054,13.275-31.36
	c0-11.427-4.389-21.826-11.568-29.614c-2.057-14.075-5.785-27.613-10.975-40.41c3.088-3.81,4.926-6.217,4.926-6.217l-1.024-1.234
	l2.152-1.69l-1.555-1.91c1.487-1.414,2.714-2.59,2.854-2.756c0.379-0.447,7.324-2.428,8.215-3.478
	c1.284-1.514,12.658-7.988,15.963-21.522c0.365-1.494-2.078-3.457-2.885-2.506c0,0,3.042-5.513,1.869-6.509
	c-1.173-0.995-2.778-1.031-3.585-0.08c0,0,2.79-2.95,0.845-5.302c-1.945-2.352-5.526,2.208-5.526,2.208
	c1.2-5.274-3.295-5.431-4.038-4.084c-7.201,13.054-14.557,17.085-15.365,16.565c-0.736-0.474-0.766-1.404-0.456-2.603
	c0.31-1.199,3.481-4.794,3.659-5.958c0.495-3.242-1.604-5.193-2.091-4.618c-0.487,0.574-8.796,11.735-8.943,12.651
	c-1.327,8.249,1.404,14.686,0.978,15.189c-0.099,0.117-0.473,0.557-0.978,1.153l-0.968-1.189l-2.201,1.913l-0.978-1.178
	c0,0-0.554,0.507-1.501,1.369c-4.515-7.823-9.622-15.261-15.245-22.269c11.928-8.12,19.763-21.806,19.763-37.323
	c0-10.988-3.931-21.055-10.458-28.881c21.585,18,39.818,39.884,53.63,64.564c-2.23,4.783-3.482,10.113-3.482,15.737
	C494.526,217.72,504.649,231.389,518.852,236.659z M504.008,243.306c-5.474,4.232-13.048,4.232-18.522,0
	c4.157,5.572,4.157,13.281,0,18.852l0,0c5.474-4.232,13.048-4.232,18.522,0C499.85,256.587,499.85,248.878,504.008,243.306z
	 M440.516,474.964c-2.68-3.216-5.924-14.591-6.228-18.884c0,0-1.136-18.044-0.985-19.362l-3.351-22.927
	c-4.661,5.304-9.635,10.325-14.894,15.036l-0.092,1.241c0.245,1.304,0.387,19.383,0.387,19.383c0,4.304-2.431,15.88-4.877,19.277
	l0.246,7.342h1.291l0.553,15.176h2.128l0.133,3.588c9.004-5.371,17.61-11.339,25.765-17.853L440.516,474.964z M547.025,460.128
	l0.479-64.759h-2.791l0.111-15.176h-0.224c0.088-0.262,0.182-0.525,0.27-0.786l-1.433-0.473c-0.065,0.194-0.135,0.388-0.2,0.582
	l0.047-6.967c0.023,0.072,0.037,0.116,0.037,0.116c0.516-0.461,1.648-1.149,3.189-2.21l1.067,0.312
	c0.131-0.443,0.253-0.895,0.382-1.341c5.369-3.937,14.026-11.782,20.42-27.937l10.897-26.336c0,0,2.25-3.877-0.774-4.861
	c-1.766-0.569-10.902-1.139-15.017,8.361c-1.217,2.82-6.074,11.517-6.074,11.517s-0.744,1.363-1.742,2.687
	c0.289-2.128,0.563-4.268,0.799-6.403l-1.501-0.164c-0.312,2.828-0.679,5.675-1.085,8.476c-1.195,0.91-2.378,0.924-2.978-1.604
	c0.257-16.915,3.704-53.706,3.704-53.706c0.455-3.742-2.213-7.135-5.959-7.59c-3.742-0.447-7.144,2.217-7.594,5.963l-3.681,41.114
	c-0.488-0.239-0.982-0.466-1.484-0.67c-0.274-0.117-0.56-0.211-0.84-0.317l0.586-52.979c0.037-3.767-2.996-6.853-6.766-6.889
	c-1.076-0.009-2.092,0.238-3,0.673c-1.227-7.226-2.791-14.338-4.673-21.322c2.495,0.74,5.099,1.224,7.782,1.426l2.904,17.156
	l2.905-17.165c19.212-1.512,34.334-17.569,34.334-37.169c0-20.599-16.698-37.297-37.297-37.297c-14.09,0-26.351,7.815-32.696,19.345
	c-25.138-44.292-64.447-79.532-111.73-99.495c5.986-7.071,9.602-16.212,9.602-26.202c0-22.416-18.171-40.587-40.587-40.587
	c-15.571,0-29.087,8.773-35.893,21.641c-1.439-0.125-2.877-0.239-4.301-0.34l-0.106,1.502c1.215,0.085,2.442,0.185,3.669,0.289
	c-2.535,5.298-3.956,11.23-3.956,17.495c0,3.056,0.349,6.028,0.989,8.89c-6.326-0.521-12.719-0.8-19.176-0.8
	c-4.753,0-9.467,0.161-14.15,0.445c1.605-4.207,2.492-8.768,2.492-13.539c0-4.585-0.812-8.981-2.3-13.051
	c1.79-0.094,3.582-0.177,5.362-0.234l-0.05-1.504c-1.955,0.064-3.924,0.158-5.891,0.265c-5.706-13.787-19.284-23.489-35.133-23.489
	c-20.994,0-38.013,17.019-38.013,38.013c0,0.052,0.004,0.102,0.004,0.154c-0.31,0.11-0.622,0.215-0.931,0.326l0.513,1.415
	c0.152-0.055,0.306-0.106,0.458-0.16c0.428,9.526,4.365,18.134,10.546,24.575c-7.075,2.506-13.992,5.346-20.733,8.502
	c-8.381-6.548-18.922-10.462-30.382-10.462c-2.62,0-5.191,0.208-7.701,0.601c2.255-1.388,4.546-2.759,6.838-4.075l-0.755-1.305
	c-2.615,1.503-5.238,3.071-7.797,4.662l0.577,0.921c-23.065,4.168-40.566,24.333-40.566,48.6c0,6.5,1.268,12.701,3.55,18.386
	c-12.926,14.738-24.011,31.126-32.9,48.802c-6.59-6.311-15.304-10.412-24.966-11.127c1.153-2.31,2.35-4.635,3.584-6.93l-1.33-0.711
	c-1.346,2.502-2.651,5.039-3.897,7.552c-0.461-0.016-0.921-0.035-1.385-0.035c-22.365,0-40.495,18.13-40.495,40.495
	c0,21.65,16.989,39.33,38.363,40.439l2.132,13.755l2.132-13.755c1.308-0.068,2.598-0.2,3.87-0.389
	c-1.03,6.892-1.75,13.883-2.156,20.957c-0.071-0.001-0.14-0.009-0.211-0.008c-3.77,0.043-6.798,3.135-6.754,6.901l0.678,52.978
	c-0.28,0.107-0.565,0.201-0.839,0.319c-0.502,0.205-0.995,0.433-1.483,0.673l-3.752-41.107c-0.457-3.745-3.864-6.403-7.605-5.95
	c-3.745,0.461-6.407,3.859-5.946,7.6c0,0,2.523,26.437,3.466,44.792l-1.407,0.291c0.529,2.532,1.109,5.083,1.716,7.61
	c0.008,0.338,0.017,0.682,0.022,1.006c-1.47,6.238-6.512-2.979-6.512-2.979s-4.872-8.688-6.094-11.506
	c-4.131-9.493-13.266-8.907-15.031-8.335c-3.023,0.989-0.766,4.862-0.766,4.862l10.943,26.317
	c9.15,22.998,22.87,29.137,25.112,31.133c0,0,0.014-0.044,0.037-0.116l0.064,7.645l-1.592,0.003l0.137,15.176l-2.791,0.005
	l0.353,38.624C17.753,413.428,0,357.61,0,297.638C0,133.257,133.257,0,297.638,0s297.638,133.257,297.638,297.638
	C595.276,357.598,577.529,413.406,547.025,460.128z M22.677,401.624c5.8,0.843,10.396,5.439,11.239,11.239
	c0.741-5.786,5.256-10.301,11.042-11.042c-5.8-0.843-10.396-5.439-11.239-11.239C32.978,396.368,28.463,400.883,22.677,401.624z
	 M38.535,323.884l1.5-0.15c-0.298-2.96-0.548-5.977-0.744-8.965l-1.507,0.097C37.982,317.873,38.234,320.907,38.535,323.884z
	 M39.6,332.874c0.404,2.975,0.868,5.984,1.377,8.945l1.489-0.256c-0.507-2.941-0.969-5.933-1.371-8.892L39.6,332.874z
	 M38.714,269.682l1.501,0.159c0.317-2.952,0.693-5.956,1.117-8.927l-1.495-0.212C39.409,263.691,39.032,266.711,38.714,269.682z
	 M37.407,287.733l1.51,0.056c0.111-2.981,0.276-6.005,0.492-8.984l-1.507-0.109C37.686,281.693,37.52,284.734,37.407,287.733z
	 M37.22,297.641c0,2.709,0.043,5.464,0.127,8.188l1.51-0.047c-0.084-2.708-0.127-5.446-0.127-8.141l0.002-0.854l-1.51-0.009
	L37.22,297.641z M7.208,294.265c5.477,7.085,5.477,16.888,0,23.973c7.212-5.381,17.19-5.381,24.402,0
	c-5.477-7.085-5.477-16.888,0-23.973C24.398,299.646,14.42,299.646,7.208,294.265z M78.354,160.389l-1.276-0.802
	c-1.611,2.551-3.19,5.151-4.695,7.731l1.306,0.755C75.183,165.51,76.753,162.924,78.354,160.389z M96.083,135.677
	c1.17-1.445,2.351-2.883,3.545-4.294l-0.67-0.564c0.023-0.031,0.043-0.063,0.067-0.094c-0.032,0.024-0.066,0.044-0.098,0.067
	l-0.451-0.38c-0.432,0.511-0.858,1.033-1.289,1.549c-8.487,5.207-19.464,4.799-27.553-1.237c6.597,8.534,6.597,20.342,0,28.876
	c8.687-6.481,20.705-6.481,29.391,0h0C93.629,152.622,92.653,143.454,96.083,135.677z M111.735,118.041l-1.085-1.046
	c-2.096,2.155-4.184,4.377-6.205,6.604l1.12,1.008C107.574,122.394,109.649,120.185,111.735,118.041z M124.745,105.565l-1.008-1.12
	c-2.257,2.019-4.495,4.093-6.652,6.163l1.047,1.084C120.275,109.634,122.501,107.572,124.745,105.565z M171.948,55.55
	c-5.8-0.843-10.396-5.439-11.239-11.239c-0.741,5.786-5.256,10.301-11.042,11.042c5.8,0.843,10.396,5.439,11.239,11.239h0
	C161.646,60.806,166.161,56.291,171.948,55.55z M184.542,65.458l-0.661-1.352c-2.702,1.309-5.431,2.69-8.111,4.108l0.708,1.328
	C179.143,68.135,181.856,66.76,184.542,65.458z M201.081,58.146l-0.563-1.396c-2.822,1.131-5.643,2.32-8.384,3.532l0.614,1.375
	C195.471,60.453,198.275,59.27,201.081,58.146z M307.149,38.269c-3.026-0.108-6.081-0.165-9.076-0.169l-0.003,1.504
	c2.979,0.005,6.016,0.062,9.026,0.169L307.149,38.269z M310.752,11.21c-5.822,4.344-13.877,4.344-19.699,0
	c4.422,5.72,4.422,13.634,0,19.353c5.822-4.344,13.877-4.344,19.699,0C306.33,24.844,306.33,16.93,310.752,11.21z M412.044,64.423
	c-2.685-1.311-5.446-2.598-8.202-3.827l-0.616,1.372c2.741,1.222,5.485,2.504,8.155,3.807L412.044,64.423z M428.03,72.929
	c-2.599-1.501-5.263-2.979-7.919-4.393l-0.711,1.328c2.64,1.405,5.289,2.873,7.872,4.366L428.03,72.929z M441.299,66.578
	c-4.971-6.43-4.971-15.327,0-21.757c-6.545,4.883-15.6,4.883-22.146,0c4.971,6.43,4.971,15.327,0,21.757
	C425.698,61.694,434.754,61.694,441.299,66.578z M443.392,82.529c-2.49-1.679-5.046-3.339-7.598-4.934l-0.802,1.275
	c2.537,1.585,5.078,3.235,7.553,4.904L443.392,82.529z M458.055,93.175c-2.369-1.85-4.804-3.683-7.24-5.451l-0.888,1.216
	c2.419,1.757,4.84,3.58,7.195,5.419L458.055,93.175z M464.131,100.024c2.298,1.926,4.588,3.912,6.806,5.905l1.012-1.117
	c-2.232-2.004-4.535-4.004-6.845-5.94L464.131,100.024z M490.684,124.469c3.905-5.947,10.22-10.173,17.563-11.241
	c-11.051-1.415-19.675-10.038-21.09-21.09c-1.611,11.078-10.389,19.856-21.467,21.466c11.051,1.415,19.675,10.038,21.09,21.09
	c0.501-3.446,1.697-6.669,3.439-9.523c1.946,2.156,3.893,4.385,5.786,6.633l1.156-0.967c-1.95-2.315-3.955-4.613-5.961-6.832
	L490.684,124.469z M508.353,145.104c-1.785-2.446-3.627-4.878-5.474-7.23l-1.188,0.928c1.835,2.337,3.666,4.754,5.441,7.186
	L508.353,145.104z M518.531,160.115c-1.595-2.54-3.263-5.095-4.958-7.594l-1.25,0.843c1.685,2.483,3.342,5.023,4.928,7.55
	L518.531,160.115z M552.43,243.729c-0.628-2.965-1.312-5.933-2.033-8.821l-1.465,0.364c0.716,2.871,1.396,5.821,2.021,8.768
	L552.43,243.729z M555.558,261.554c-0.413-2.957-0.886-5.965-1.408-8.94l-1.486,0.258c0.517,2.957,0.987,5.949,1.399,8.89
	L555.558,261.554z M555.153,270.696c0.308,2.971,0.569,5.987,0.774,8.964l1.507-0.103c-0.206-2.994-0.469-6.027-0.78-9.017
	L555.153,270.696z M557.834,308.407l-1.51-0.062c-0.12,2.966-0.295,5.988-0.522,8.983l1.507,0.112
	C557.536,314.429,557.712,311.391,557.834,308.407z M558.055,297.641c0-3.015-0.052-6.058-0.155-9.047l-1.51,0.053
	c0.103,2.971,0.155,5.997,0.155,8.996l-0.005,1.712l1.51,0.012L558.055,297.641z M587.654,279.933L587.654,279.933
	c-7.171-0.918-12.767-6.514-13.685-13.685c-1.045,7.188-6.741,12.884-13.929,13.929c7.171,0.918,12.767,6.514,13.685,13.685
	C574.77,286.673,580.466,280.978,587.654,279.933z M551.094,379.794c7.171,0.918,12.767,6.514,13.685,13.685
	c1.045-7.189,6.741-12.884,13.929-13.929l0,0c-7.171-0.918-12.767-6.514-13.685-13.685
	C563.978,373.054,558.282,378.749,551.094,379.794z M484.082,471.688c0,0-0.017-0.043-0.045-0.113l0.185,4.945
	c1.651-1.71,3.3-3.452,4.912-5.217l1.117,1.014c-1.951,2.134-3.951,4.248-5.951,6.295l0.023,0.606l1.792-0.127l0.522,15.177
	l3.225-0.229l1.014,29.962c1.213-1.036,2.415-2.084,3.612-3.14l0.438-59.264C489.809,467.779,485.239,470.497,484.082,471.688z
	 M300.16,494.584c0.488-0.239,0.982-0.466,1.484-0.67c0.274-0.117,0.56-0.211,0.84-0.317l-0.044-3.951
	c-0.893,0.101-1.793,0.181-2.702,0.226L300.16,494.584z M330.833,411.029c0,0-0.564-0.973-0.748-2.068
	c-0.983-0.826-2-1.611-3.045-2.362c-2.059,1.965-4.311,3.726-6.731,5.25c11.815,7.51,19.661,20.706,19.661,35.742
	c0,9.36-3.043,18.005-8.187,25.014l-0.55,12.62c0.683-0.61,1.353-1.234,2.002-1.88l0.92-11.567c0.193-3.045,2.828-5.348,5.869-5.143
	c1.431,0.093,2.686,0.737,3.606,1.697c2.557-5.662,4.108-11.875,4.404-18.418c-2.207-3.5-4.361-7.638-6.306-12.55L330.833,411.029z
	 M262.101,470.583c-1.636,2.719-3.31,5.069-4.96,7.107c2.339,3.141,5.038,5.995,8.03,8.514c2.412,0.679,5.067,2.126,7.155,5.029
	c4.252,2.472,8.896,4.337,13.819,5.484c-0.155-2.755-0.336-5.631-0.534-8.537C275.829,485.286,267.529,478.956,262.101,470.583z
	 M317.258,492.169l0.317-7.231c-0.501,0.268-1.007,0.53-1.52,0.779l0.072,6.453H317.258z M274.966,411.849
	c-2.419-1.524-4.672-3.285-6.731-5.25c-7.311,5.253-13.157,12.408-16.816,20.747c-0.616,8.662-1.13,17.414-1.223,23.55
	c0.994,4.187,3.586,1.403,5.182-0.878c-0.045-0.804-0.074-1.612-0.074-2.427C255.305,432.555,263.151,419.359,274.966,411.849z
	 M296.479,453.47l2.768,30.92c1.047-0.046,2.091-0.141,3.132-0.275l-0.481-43.497c-0.037-3.767,2.996-6.853,6.766-6.889
	c3.767-0.033,6.848,2.992,6.885,6.762l0.436,39.045c0.633-0.364,1.261-0.743,1.876-1.148l1.372-31.318
	c0.147-3.762,3.324-6.697,7.086-6.549c3.767,0.148,6.701,3.324,6.554,7.086l-0.539,12.372c4.625-12.983,1.745-28.042-8.649-38.435
	c-2.748-2.748-5.825-4.967-9.101-6.666c-3.643,1.582-7.551,2.663-11.638,3.172l-5.309,24.638l-5.309-24.638
	c-4.087-0.509-7.995-1.59-11.638-3.172c-3.276,1.698-6.353,3.917-9.101,6.666c-4.66,4.66-7.8,10.259-9.441,16.187
	c0.257-0.522,0.473-0.981,0.629-1.341c4.115-9.5,13.25-8.93,15.017-8.361c3.025,0.984,0.774,4.861,0.774,4.861l-10.897,26.336
	c-0.809,2.043-1.655,3.947-2.525,5.733c1.669,3.119,3.813,6.051,6.443,8.682c3.976,3.976,8.637,6.848,13.602,8.626
	c-1.043-14.125-2.265-27.168-2.265-27.168c-0.455-3.742,2.213-7.135,5.959-7.59C292.627,447.06,296.029,449.724,296.479,453.47z
	 M342.257,589.626l0.017,2.317c-2.019,0.304-4.044,0.587-6.075,0.85c-0.617-1.214-1.864-2.054-3.321-2.054
	c-1.761,0-3.228,1.224-3.621,2.864c-10.391,1.097-20.937,1.672-31.618,1.672c-2.484,0-4.96-0.034-7.43-0.094l-0.041-5.556
	l-0.111-14.973l-0.027-3.639h52.09l0.027,3.639L342.257,589.626z M336.616,581.673c0-2.066-1.672-3.738-3.738-3.738
	c-2.061,0-3.733,1.672-3.733,3.738c0,2.061,1.672,3.734,3.733,3.734C334.943,585.407,336.616,583.735,336.616,581.673z"></path>
</svg>